<?xml version="1.0" encoding="UTF-8" standalone="no"?>
<!-- Created with Inkscape (http://www.inkscape.org/) -->

<svg
   xmlns:osb="http://www.openswatchbook.org/uri/2009/osb"
   xmlns:dc="http://purl.org/dc/elements/1.1/"
   xmlns:cc="http://creativecommons.org/ns#"
   xmlns:rdf="http://www.w3.org/1999/02/22-rdf-syntax-ns#"
   xmlns:svg="http://www.w3.org/2000/svg"
   xmlns="http://www.w3.org/2000/svg"
   xmlns:xlink="http://www.w3.org/1999/xlink"
   xmlns:sodipodi="http://sodipodi.sourceforge.net/DTD/sodipodi-0.dtd"
   xmlns:inkscape="http://www.inkscape.org/namespaces/inkscape"
   width="95.876266"
   height="153.39339"
   id="svg2"
   version="1.1"
   inkscape:version="0.48.4 r9939"
   sodipodi:docname="char.svg"
   inkscape:export-filename="C:\Users\roger.DOMAIN\android\ZHAWWarriors\assets\gfx\char.png"
   inkscape:export-xdpi="75.06414"
   inkscape:export-ydpi="75.06414">
  <defs
     id="defs4">
    <linearGradient
       id="linearGradient5457">
      <stop
         style="stop-color:#000000;stop-opacity:1;"
         offset="0"
         id="stop5459" />
      <stop
         style="stop-color:#000000;stop-opacity:0;"
         offset="1"
         id="stop5461" />
    </linearGradient>
    <linearGradient
       id="linearGradient5445">
      <stop
         id="stop5455"
         offset="0"
         style="stop-color:#000000;stop-opacity:0.49803922;" />
      <stop
         style="stop-color:#000000;stop-opacity:0;"
         offset="1"
         id="stop5449" />
    </linearGradient>
    <linearGradient
       id="linearGradient5292"
       osb:paint="solid">
      <stop
         style="stop-color:#646464;stop-opacity:1;"
         offset="0"
         id="stop5294" />
    </linearGradient>
    <linearGradient
       id="linearGradient5236"
       osb:paint="solid">
      <stop
         style="stop-color:#646464;stop-opacity:1;"
         offset="0"
         id="stop5238" />
    </linearGradient>
    <radialGradient
       inkscape:collect="always"
       xlink:href="#linearGradient5445"
       id="radialGradient5453"
       cx="238.64854"
       cy="532.32837"
       fx="238.64854"
       fy="532.32837"
       r="47.724632"
       gradientTransform="matrix(0.87360734,0,0,0.92730695,23.637032,46.375171)"
       gradientUnits="userSpaceOnUse" />
    <radialGradient
       inkscape:collect="always"
       xlink:href="#linearGradient5445-8"
       id="radialGradient5453-8"
       cx="238.64854"
       cy="532.32837"
       fx="238.64854"
       fy="532.32837"
       r="47.724632"
       gradientTransform="matrix(0.87360734,0,0,0.92730695,23.637032,46.375171)"
       gradientUnits="userSpaceOnUse" />
    <linearGradient
       id="linearGradient5445-8">
      <stop
         id="stop5455-1"
         offset="0"
         style="stop-color:#000000;stop-opacity:0.49803922;" />
      <stop
         style="stop-color:#000000;stop-opacity:0;"
         offset="1"
         id="stop5449-2" />
    </linearGradient>
    <radialGradient
       inkscape:collect="always"
       xlink:href="#linearGradient5445-82"
       id="radialGradient5453-9"
       cx="238.64854"
       cy="532.32837"
       fx="238.64854"
       fy="532.32837"
       r="47.724632"
       gradientTransform="matrix(0.87360734,0,0,0.92730695,23.637032,46.375171)"
       gradientUnits="userSpaceOnUse" />
    <linearGradient
       id="linearGradient5445-82">
      <stop
         id="stop5455-4"
         offset="0"
         style="stop-color:#000000;stop-opacity:0.49803922;" />
      <stop
         style="stop-color:#000000;stop-opacity:0;"
         offset="1"
         id="stop5449-5" />
    </linearGradient>
    <radialGradient
       inkscape:collect="always"
       xlink:href="#linearGradient5445-8"
       id="radialGradient5575"
       gradientUnits="userSpaceOnUse"
       gradientTransform="matrix(0.87360734,0,0,0.92730695,22.562027,46.254757)"
       cx="238.64854"
       cy="532.32837"
       fx="238.64854"
       fy="532.32837"
       r="47.724632" />
    <radialGradient
       inkscape:collect="always"
       xlink:href="#linearGradient5445-8-3"
       id="radialGradient5575-8"
       gradientUnits="userSpaceOnUse"
       gradientTransform="matrix(0.87360734,0,0,0.92730695,23.269135,46.254757)"
       cx="238.64854"
       cy="532.32837"
       fx="238.64854"
       fy="532.32837"
       r="47.724632" />
    <linearGradient
       id="linearGradient5445-8-3">
      <stop
         id="stop5455-1-8"
         offset="0"
         style="stop-color:#000000;stop-opacity:0.49803922;" />
      <stop
         style="stop-color:#000000;stop-opacity:0;"
         offset="1"
         id="stop5449-2-6" />
    </linearGradient>
    <radialGradient
       inkscape:collect="always"
       xlink:href="#linearGradient5445-6"
       id="radialGradient5453-86"
       cx="238.64854"
       cy="532.32837"
       fx="238.64854"
       fy="532.32837"
       r="47.724632"
       gradientTransform="matrix(0.87360734,0,0,0.92730695,23.637032,46.375171)"
       gradientUnits="userSpaceOnUse" />
    <linearGradient
       id="linearGradient5445-6">
      <stop
         id="stop5455-2"
         offset="0"
         style="stop-color:#000000;stop-opacity:0.49803922;" />
      <stop
         style="stop-color:#000000;stop-opacity:0;"
         offset="1"
         id="stop5449-3" />
    </linearGradient>
    <radialGradient
       inkscape:collect="always"
       xlink:href="#linearGradient5445-62"
       id="radialGradient5453-2"
       cx="238.64854"
       cy="532.32837"
       fx="238.64854"
       fy="532.32837"
       r="47.724632"
       gradientTransform="matrix(0.87360734,0,0,0.92730695,23.637032,46.375171)"
       gradientUnits="userSpaceOnUse" />
    <linearGradient
       id="linearGradient5445-62">
      <stop
         id="stop5455-7"
         offset="0"
         style="stop-color:#000000;stop-opacity:0.49803922;" />
      <stop
         style="stop-color:#000000;stop-opacity:0;"
         offset="1"
         id="stop5449-57" />
    </linearGradient>
    <filter
       inkscape:collect="always"
       id="filter5733"
       x="-0.11165316"
       width="1.2233063"
       y="-0.043500695"
       height="1.0870014"
       color-interpolation-filters="sRGB">
      <feGaussianBlur
         inkscape:collect="always"
         stdDeviation="1.5366848"
         id="feGaussianBlur5735" />
    </filter>
    <filter
       inkscape:collect="always"
       id="filter5771"
       color-interpolation-filters="sRGB">
      <feGaussianBlur
         inkscape:collect="always"
         stdDeviation="0.73376359"
         id="feGaussianBlur5773" />
    </filter>
    <filter
       inkscape:collect="always"
       id="filter5801"
       color-interpolation-filters="sRGB">
      <feGaussianBlur
         inkscape:collect="always"
         stdDeviation="1.6136209"
         id="feGaussianBlur5803" />
    </filter>
    <filter
       inkscape:collect="always"
       id="filter5831"
       x="-0.042329721"
       width="1.0846595"
       y="-0.17055775"
       height="1.3411155"
       color-interpolation-filters="sRGB">
      <feGaussianBlur
         inkscape:collect="always"
         stdDeviation="1.4474545"
         id="feGaussianBlur5833" />
    </filter>
    <filter
       inkscape:collect="always"
       id="filter5861"
       color-interpolation-filters="sRGB">
      <feGaussianBlur
         inkscape:collect="always"
         stdDeviation="0.84831742"
         id="feGaussianBlur5863" />
    </filter>
    <filter
       inkscape:collect="always"
       id="filter5877"
       x="-0.13043478"
       width="1.2608696"
       y="-0.13043478"
       height="1.2608696"
       color-interpolation-filters="sRGB">
      <feGaussianBlur
         inkscape:collect="always"
         stdDeviation="0.22097087"
         id="feGaussianBlur5879" />
    </filter>
    <filter
       color-interpolation-filters="sRGB"
       inkscape:collect="always"
       id="filter5877-8"
       x="-0.13043478"
       width="1.2608696"
       y="-0.13043478"
       height="1.2608696">
      <feGaussianBlur
         inkscape:collect="always"
         stdDeviation="0.22097087"
         id="feGaussianBlur5879-2" />
    </filter>
    <filter
       inkscape:collect="always"
       id="filter5959"
       x="-0.11105929"
       width="1.2221186"
       y="-0.10811081"
       height="1.2162216"
       color-interpolation-filters="sRGB">
      <feGaussianBlur
         inkscape:collect="always"
         stdDeviation="0.31813859"
         id="feGaussianBlur5961" />
    </filter>
    <filter
       inkscape:collect="always"
       id="filter6013"
       x="-0.18839809"
       width="1.3767962"
       y="-0.18013503"
       height="1.36027"
       color-interpolation-filters="sRGB">
      <feGaussianBlur
         inkscape:collect="always"
         stdDeviation="0.53477585"
         id="feGaussianBlur6015" />
    </filter>
    <filter
       inkscape:collect="always"
       id="filter6051"
       x="-0.14807004"
       width="1.2961401"
       y="-0.14415629"
       height="1.2883126"
       color-interpolation-filters="sRGB">
      <feGaussianBlur
         inkscape:collect="always"
         stdDeviation="0.42608696"
         id="feGaussianBlur6053" />
    </filter>
    <radialGradient
       inkscape:collect="always"
       xlink:href="#linearGradient5445-81"
       id="radialGradient5453-7"
       cx="238.64854"
       cy="532.32837"
       fx="238.64854"
       fy="532.32837"
       r="47.724632"
       gradientTransform="matrix(0.87360734,0,0,0.92730695,23.637032,46.375171)"
       gradientUnits="userSpaceOnUse" />
    <linearGradient
       id="linearGradient5445-81">
      <stop
         id="stop5455-6"
         offset="0"
         style="stop-color:#000000;stop-opacity:0.49803922;" />
      <stop
         style="stop-color:#000000;stop-opacity:0;"
         offset="1"
         id="stop5449-0" />
    </linearGradient>
    <radialGradient
       r="47.724632"
       fy="532.32837"
       fx="238.64854"
       cy="532.32837"
       cx="238.64854"
       gradientTransform="matrix(0.87360734,0,0,0.92730695,145.42183,-259.18451)"
       gradientUnits="userSpaceOnUse"
       id="radialGradient6070"
       xlink:href="#linearGradient5445-81"
       inkscape:collect="always" />
    <radialGradient
       inkscape:collect="always"
       xlink:href="#linearGradient5445-0"
       id="radialGradient5453-89"
       cx="238.64854"
       cy="532.32837"
       fx="238.64854"
       fy="532.32837"
       r="47.724632"
       gradientTransform="matrix(0.87360734,0,0,0.92730695,23.637032,46.375171)"
       gradientUnits="userSpaceOnUse" />
    <linearGradient
       id="linearGradient5445-0">
      <stop
         id="stop5455-0"
         offset="0"
         style="stop-color:#000000;stop-opacity:0.49803922;" />
      <stop
         style="stop-color:#000000;stop-opacity:0;"
         offset="1"
         id="stop5449-07" />
    </linearGradient>
    <radialGradient
       r="47.724632"
       fy="532.32837"
       fx="238.64854"
       cy="532.32837"
       cx="238.64854"
       gradientTransform="matrix(0.87360734,0,0,0.92730695,145.77538,43.249549)"
       gradientUnits="userSpaceOnUse"
       id="radialGradient6070-2"
       xlink:href="#linearGradient5445-0"
       inkscape:collect="always" />
    <filter
       inkscape:collect="always"
       id="filter6125"
       x="-0.028999876"
       width="1.0579998"
       y="-0.25971144"
       height="1.5194229"
       color-interpolation-filters="sRGB">
      <feGaussianBlur
         inkscape:collect="always"
         stdDeviation="0.99913635"
         id="feGaussianBlur6127" />
    </filter>
  </defs>
  <sodipodi:namedview
     id="base"
     pagecolor="#ffffff"
     bordercolor="#666666"
     borderopacity="1.0"
     inkscape:pageopacity="0.0"
     inkscape:pageshadow="2"
     inkscape:zoom="4"
     inkscape:cx="-60.977274"
     inkscape:cy="89.00441"
     inkscape:document-units="px"
     inkscape:current-layer="layer1"
     showgrid="false"
     fit-margin-top="0"
     fit-margin-left="0"
     fit-margin-right="0"
     fit-margin-bottom="0"
     inkscape:window-width="1920"
     inkscape:window-height="1028"
     inkscape:window-x="1358"
     inkscape:window-y="-8"
     inkscape:window-maximized="1" />
  <metadata
     id="metadata7">
    <rdf:RDF>
      <cc:Work
         rdf:about="">
        <dc:format>image/svg+xml</dc:format>
        <dc:type
           rdf:resource="http://purl.org/dc/dcmitype/StillImage" />
        <dc:title></dc:title>
      </cc:Work>
    </rdf:RDF>
  </metadata>
  <g
     inkscape:label="Layer 1"
     inkscape:groupmode="layer"
     id="layer1"
     transform="translate(-183.5497,-434.73169)">
    <rect
       style="fill:#803300;fill-opacity:1;stroke:#000000;stroke-width:0.79072767;stroke-linejoin:round;stroke-miterlimit:4;stroke-opacity:1;stroke-dasharray:none"
       id="rect3810-7"
       width="14.726356"
       height="6.4667835"
       x="241.7289"
       y="581.26294"
       ry="3.2333918" />
    <rect
       style="fill:#803300;fill-opacity:1;stroke:#000000;stroke-width:0.79072767;stroke-linejoin:round;stroke-miterlimit:4;stroke-opacity:1;stroke-dasharray:none"
       id="rect3810"
       width="14.726356"
       height="6.4667835"
       x="206.20923"
       y="581.26288"
       ry="3.2333918" />
    <path
       style="fill:#333333;fill-opacity:1;fill-rule:evenodd;stroke:url(#radialGradient5453);stroke-width:0.69476271px;stroke-linecap:butt;stroke-linejoin:miter;stroke-opacity:1"
       d="m 217.02576,496.10233 30.45919,0.67917 c 7.7311,65.20075 12.52902,66.44564 25.98575,83.77875 -30.43782,3.74056 -47.59846,5.31342 -82.69711,-0.44986 13.70511,-23.83955 19.59358,-39.8132 26.25217,-84.00806 z"
       id="rect3008"
       inkscape:connector-curvature="0"
       sodipodi:nodetypes="ccccc" />
    <path
       style="fill:#800000;fill-opacity:1;fill-rule:evenodd;stroke:#000000;stroke-width:0.69476271px;stroke-linecap:butt;stroke-linejoin:miter;stroke-opacity:1"
       d="m 217.32647,495.33865 c -0.15289,1.0148 -0.31192,1.93708 -0.4641,2.92255 3.13288,3.93746 8.55747,5.76158 15.80683,5.76158 6.29891,0 11.84998,-0.97365 15.67033,-3.56271 -0.18279,-1.49588 -0.35999,-2.85675 -0.546,-4.42556 l -30.46706,-0.69586 z"
       id="rect3008-9"
       inkscape:connector-curvature="0" />
    <path
       style="fill:#000000;fill-opacity:1"
       d="m 246.55404,488.49889 c 0,10.85685 -6.28377,14.36268 -14.40706,14.36268 -8.12327,0 -12.89973,-4.82968 -12.89973,-15.68652 0,-10.85685 5.68084,-15.24525 13.80413,-15.24525 8.12328,0 13.50266,5.71225 13.50266,16.56909 z"
       id="path3757"
       inkscape:connector-curvature="0"
       sodipodi:nodetypes="sssss" />
    <rect
       style="fill:#000000;fill-opacity:1;stroke:#000000;stroke-width:1.84888649;stroke-linejoin:round;stroke-miterlimit:4;stroke-opacity:1;stroke-dasharray:none"
       id="rect3832"
       width="12.354673"
       height="8.5473642"
       x="226.16544"
       y="521.38916"
       ry="3.2333918" />
    <path
       style="fill:#800000;fill-opacity:1;fill-rule:evenodd;stroke:#000000;stroke-width:0.69476271px;stroke-linecap:butt;stroke-linejoin:miter;stroke-opacity:1"
       d="m 270.76798,577.08581 c -25.44996,2.66807 -51.42512,3.27013 -78.32435,0.0278 -0.5502,0.97895 -1.08804,1.94622 -1.66532,2.95038 35.09864,5.76327 52.25458,4.1859 82.6924,0.44534 -0.97511,-1.256 -1.81413,-2.30605 -2.70273,-3.42355 z"
       id="rect3008-1"
       inkscape:connector-curvature="0" />
    <path
       style="opacity:0.48115043;fill:#000000;fill-opacity:1;fill-rule:evenodd;stroke:url(#radialGradient5575);stroke-width:0.69476271px;stroke-linecap:butt;stroke-linejoin:miter;stroke-opacity:1;filter:url(#filter5733)"
       d="m 239.35588,496.49162 c 7.78009,65.98359 12.61425,67.24003 26.15625,84.78125 2.26141,-0.26669 4.46229,-0.54725 6.875,-0.84375 -13.45673,-17.33311 -18.23765,-18.5805 -25.96875,-83.78125 l -7.0625,-0.15625 z"
       id="rect3008-14"
       inkscape:connector-curvature="0" />
    <path
       style="fill:#333333;fill-opacity:1;stroke:#000000;stroke-width:0.88210231;stroke-opacity:1"
       d="m 246.89256,496.13357 1.76495,13.49583 c 0.7263,2.09627 9.79549,10.47677 8.38354,13.04598 l -21.41601,-1.99318 -1.42331,31.36087 c 12.40665,-15.65067 25.83408,-17.00497 43.05335,-23.33868 -7.33822,-11.22653 -14.36037,-29.17869 -30.36252,-32.57082 z"
       id="rect3787-1"
       inkscape:connector-curvature="0"
       sodipodi:nodetypes="ccccccc" />
    <path
       style="fill:#333333;fill-opacity:1;stroke:#000000;stroke-width:0.88210231;stroke-opacity:1"
       d="m 217.7819,496.19692 -1.76495,13.49584 c -0.7263,2.09627 -9.79549,10.47677 -8.38354,13.04598 l 21.41602,-1.99317 1.4233,31.36085 c -12.40665,-15.65066 -25.83408,-17.00496 -43.05334,-23.33866 7.33821,-11.22654 14.36036,-29.17869 30.36251,-32.57084 z"
       id="rect3787"
       inkscape:connector-curvature="0"
       sodipodi:nodetypes="ccccccc" />
    <path
       sodipodi:type="arc"
       style="opacity:0.74336285;fill:#ff6600;fill-opacity:1;fill-rule:evenodd;stroke:none;filter:url(#filter5877)"
       id="path5867"
       sodipodi:cx="316.51868"
       sodipodi:cy="209.07982"
       sodipodi:rx="2.032932"
       sodipodi:ry="2.032932"
       d="m 318.55161,209.07982 c 0,1.12276 -0.91018,2.03293 -2.03293,2.03293 -1.12276,0 -2.03294,-0.91017 -2.03294,-2.03293 0,-1.12276 0.91018,-2.03293 2.03294,-2.03293 1.1128,0 2.0188,0.89469 2.03277,2.0074"
       transform="translate(-87.340993,288.28023)"
       sodipodi:start="0"
       sodipodi:end="6.2706283"
       sodipodi:open="true" />
    <path
       sodipodi:type="arc"
       style="opacity:0.74336285;fill:#ff6600;fill-opacity:1;fill-rule:evenodd;stroke:none;filter:url(#filter5877-8)"
       id="path5867-0"
       sodipodi:cx="316.51868"
       sodipodi:cy="209.07982"
       sodipodi:rx="2.032932"
       sodipodi:ry="2.032932"
       d="m 318.55161,209.07982 c 0,1.12276 -0.91018,2.03293 -2.03293,2.03293 -1.12276,0 -2.03294,-0.91017 -2.03294,-2.03293 0,-1.12276 0.91018,-2.03293 2.03294,-2.03293 1.1128,0 2.0188,0.89469 2.03277,2.0074"
       transform="translate(-80.532193,288.43572)"
       sodipodi:start="0"
       sodipodi:end="6.2706283"
       sodipodi:open="true" />
    <path
       style="fill:#333333;fill-opacity:1;fill-rule:evenodd;stroke:#000000;stroke-width:0.7552923px;stroke-linecap:butt;stroke-linejoin:miter;stroke-opacity:1"
       d="m 274.7154,494.11453 c -0.31363,9.67357 -14.53423,5.16864 -42.1052,3.54663 -1.26556,-0.0745 -2.50657,-0.16939 -3.72258,-0.28384 -25.27557,-2.37782 -39.75251,-13.14551 -39.45328,-22.37504 0.31363,-9.67358 15.85808,-8.25761 43.42905,-6.6356 27.57097,1.62201 42.16564,16.07425 41.85201,25.74783 z"
       id="path3755"
       inkscape:connector-curvature="0"
       sodipodi:nodetypes="ssssss" />
    <path
       style="fill:#333333;fill-opacity:1;stroke:#000000;stroke-width:0.8736912;stroke-opacity:1"
       d="m 219.08719,452.37849 -8.95504,-11.15008 -14.04205,3.53803 17.29533,-9.5979 24.12085,14.12098 11.33613,27.62848 c -7.04234,9.67685 -25.54411,9.64662 -34.60044,2.13069 z"
       id="rect3761"
       inkscape:connector-curvature="0"
       sodipodi:nodetypes="cccccccc" />
    <path
       style="fill:#800000;fill-opacity:1;stroke:#000000;stroke-width:0.88210231;stroke-opacity:1"
       d="m 235.791,520.80384 -1.41962,31.36864 c 1.0281,-1.2969 2.06856,-2.47902 3.11224,-3.59055 l 1.61071,-27.47192 -3.30333,-0.30617 z"
       id="rect3787-1-2"
       inkscape:connector-curvature="0" />
    <path
       style="fill:#800000;fill-opacity:1;stroke:#000000;stroke-width:0.88210231;stroke-opacity:1"
       d="m 228.73988,520.82016 1.4196,31.36864 c -1.02808,-1.2969 -2.06854,-2.47902 -3.11222,-3.59056 l -1.61072,-27.47191 3.30334,-0.30617 z"
       id="rect3787-1-2-6"
       inkscape:connector-curvature="0" />
    <path
       sodipodi:type="star"
       style="fill:#ffff00;fill-opacity:1;fill-rule:evenodd;stroke:#000000;stroke-opacity:0.98412697"
       id="path5479"
       sodipodi:sides="5"
       sodipodi:cx="213.8998"
       sodipodi:cy="248.76617"
       sodipodi:r1="8.7535706"
       sodipodi:r2="4.3767853"
       sodipodi:arg1="0.75683451"
       sodipodi:arg2="1.385153"
       inkscape:flatsided="false"
       inkscape:rounded="0"
       inkscape:randomized="0"
       d="m 220.26376,254.77658 -5.5561,-1.70882 -4.55753,3.60822 -0.0917,-5.81222 -4.83998,-3.21947 5.4994,-1.88332 1.56626,-5.59796 3.49056,4.64826 5.80797,-0.24026 -3.34211,4.7561 z"
       transform="matrix(0.420618,0,0,0.42883798,115.98106,463.32423)"
       inkscape:transform-center-x="0.20999916"
       inkscape:transform-center-y="-0.14867631" />
    <path
       sodipodi:type="star"
       style="fill:#ffff00;fill-opacity:1;fill-rule:evenodd;stroke:#000000;stroke-opacity:0.98412697"
       id="path5479-4"
       sodipodi:sides="5"
       sodipodi:cx="213.8998"
       sodipodi:cy="248.76617"
       sodipodi:r1="8.7535706"
       sodipodi:r2="4.3767853"
       sodipodi:arg1="0.75683451"
       sodipodi:arg2="1.385153"
       inkscape:flatsided="false"
       inkscape:rounded="0"
       inkscape:randomized="0"
       d="m 220.26376,254.77658 -5.5561,-1.70882 -4.55753,3.60822 -0.0917,-5.81222 -4.83998,-3.21947 5.4994,-1.88332 1.56626,-5.59796 3.49056,4.64826 5.80797,-0.24026 -3.34211,4.7561 z"
       transform="matrix(0.3868293,0.16840235,-0.16517441,0.39438896,173.07385,438.73513)"
       inkscape:transform-center-x="-0.24599252"
       inkscape:transform-center-y="-0.1114688" />
    <path
       sodipodi:type="star"
       style="fill:#ffff00;fill-opacity:1;fill-rule:evenodd;stroke:#000000;stroke-opacity:1"
       id="path5479-5"
       sodipodi:sides="5"
       sodipodi:cx="213.8998"
       sodipodi:cy="248.76617"
       sodipodi:r1="8.7535706"
       sodipodi:r2="4.3767853"
       sodipodi:arg1="0.75683451"
       sodipodi:arg2="1.385153"
       inkscape:flatsided="false"
       inkscape:rounded="0"
       inkscape:randomized="0"
       d="m 220.26376,254.77658 -5.5561,-1.70882 -4.55753,3.60822 -0.0917,-5.81222 -4.83998,-3.21947 5.4994,-1.88332 1.56626,-5.59796 3.49056,4.64826 5.80797,-0.24026 -3.34211,4.7561 z"
       transform="matrix(0.39072578,0.15877675,-0.15573331,0.39836159,166.18536,427.20968)"
       inkscape:transform-center-x="-0.21894169"
       inkscape:transform-center-y="-0.13946787" />
    <path
       style="opacity:0.58849553;fill:#000000;fill-opacity:1;stroke:none;filter:url(#filter5771)"
       d="m 254.00868,498.6905 c 9.20244,6.97814 14.57751,19.29431 20.125,27.78125 -15.45125,5.68338 -27.84042,7.37707 -39.1875,18.96875 l -0.3125,6.65625 c 12.40665,-15.65067 25.81198,-16.97879 43.03125,-23.3125 -6.22467,-9.52294 -12.2126,-23.88381 -23.65625,-30.09375 z"
       id="rect3787-1-7"
       inkscape:connector-curvature="0" />
    <path
       style="fill:#000000;fill-opacity:1;stroke:none;filter:url(#filter5801)"
       d="m 217.79739,496.36481 c -0.74503,0.15793 -1.48046,0.37484 -2.1875,0.59375 l -1.53125,11.84375 c -0.7263,2.09627 -9.78695,10.49329 -8.375,13.0625 l 1.84375,-0.15625 c 0.002,-0.008 -0.002,-0.0227 0,-0.0312 0.82923,-3.36198 7.83484,-9.9829 8.46875,-11.8125 l 1.78125,-13.5 z m 11.25,24.5625 -1.875,0.1875 1.3125,28.8125 c 0.66521,0.75356 1.34097,1.5124 2,2.34375 l -1.4375,-31.34375 z m -41.4375,7.71875 c -0.0646,0.1 -0.12282,0.21355 -0.1875,0.3125 9.68583,3.56271 18.158,5.53265 25.9375,9.375 -7.74303,-4.2233 -16.14077,-6.30473 -25.75,-9.6875 z"
       id="rect3787-0"
       inkscape:connector-curvature="0" />
    <path
       style="opacity:0.7522124;fill:#000000;fill-opacity:1;fill-rule:evenodd;stroke:none;filter:url(#filter5831)"
       d="m 266.45848,479.41968 c 3.24744,3.69296 4.85636,7.53191 4.75,10.8125 -0.31363,9.67357 -14.52278,5.15326 -42.09375,3.53125 -1.26556,-0.0745 -2.50274,-0.1668 -3.71875,-0.28125 -14.8142,-1.39366 -25.93702,-5.65355 -32.53125,-10.8125 5.56795,6.65808 18.12705,12.64176 36.21875,14.34375 1.21601,0.11445 2.48444,0.238 3.75,0.3125 27.57097,1.62201 41.78012,6.11107 42.09375,-3.5625 0.14105,-4.3506 -2.75466,-9.66186 -8.46875,-14.34375 z"
       id="path3755-0"
       inkscape:connector-curvature="0" />
    <path
       style="opacity:0.91592922;fill:#000000;fill-opacity:1;stroke:none;filter:url(#filter5861)"
       d="m 208.11232,439.47117 -4.25,1.0625 -7.3125,4.0625 13.03125,-3.3125 -1.46875,-1.8125 z m 27.46875,8.21875 11.25,27.46875 c -6.30082,8.65793 -21.7937,9.54209 -31.46875,4.25 9.2674,6.98998 27.06212,6.75993 33.9375,-2.6875 l -11.34375,-27.625 -2.375,-1.40625 z"
       id="rect3761-9"
       inkscape:connector-curvature="0" />
    <path
       style="fill:#000000;fill-opacity:1;fill-rule:evenodd;stroke:none;filter:url(#filter5959)"
       d="m 211.84649,556.80202 -0.125,0.15625 0.375,1.46875 0.1875,0.0625 -0.4375,-1.6875 z m -3.9375,1.84375 0.96875,1.40625 0.0312,-0.125 -0.84375,-1.28125 -0.15625,0 z m 5.875,1.03125 -1.4375,0.9375 -0.0625,2.5 -1.875,-1.5625 -1.59375,0.46875 -0.375,1 2.34375,-0.71875 1.90625,1.5625 0.0312,-2.46875 2.0625,-1.375 -1,-0.34375 z"
       id="path5479-5-5"
       inkscape:connector-curvature="0" />
    <path
       style="fill:#000000;fill-opacity:1;fill-rule:evenodd;stroke:none;filter:url(#filter6013)"
       d="m 215.5625,569.67394 -0.15625,0.1875 0.21875,0.875 0.1875,0.0625 -0.25,-1.125 z m -3.96875,1.78125 0.65625,1.0625 0.15625,-0.375 -0.40625,-0.65625 -0.40625,-0.0312 z m 5.15625,0.90625 -0.90625,0.5625 -0.125,2.5 -1.875,-1.625 -1.1875,0.34375 -0.65625,1.6875 2.34375,-0.65625 1.875,1.625 0.125,-2.5 2.0625,-1.3125 -1.65625,-0.625 z"
       id="path5479-4-7"
       inkscape:connector-curvature="0" />
    <path
       style="fill:#000000;fill-opacity:1;fill-rule:evenodd;stroke:none;filter:url(#filter6051)"
       d="m 205.28571,566.30491 -0.0312,0.15625 0.8125,1.125 0.15625,0 -0.9375,-1.28125 z m 3.9375,1.90625 -1.25,0.0625 -0.875,1.25 0.84375,2.34375 -2.34375,-0.71875 -1.21875,0.96875 0.0312,1.28125 1.90625,-1.5625 2.34375,0.75 -0.84375,-2.34375 1.40625,-2.03125 z m -6.65625,1.21875 -0.25,0.0937 1.34375,0.90625 0,-0.25 -1.09375,-0.75 z"
       id="path5479-7"
       inkscape:connector-curvature="0" />
    <path
       style="opacity:0.50884956;fill:#000000;fill-opacity:1;fill-rule:evenodd;stroke:none;filter:url(#filter6125)"
       d="m 193.97139,574.3875 c -0.97423,1.77371 -1.96672,3.58579 -3.03125,5.4375 35.09865,5.76328 52.24968,4.17806 82.6875,0.4375 -1.50741,-1.94164 -2.8811,-3.63085 -4.1875,-5.28125 -26.84611,3.2249 -43.97837,4.36407 -75.46875,-0.59375 z"
       id="rect3008-95"
       inkscape:connector-curvature="0" />
  </g>
</svg>
