<?xml version="1.0" encoding="UTF-8" standalone="no"?>
<!-- Created with Inkscape (http://www.inkscape.org/) -->

<svg
   xmlns:dc="http://purl.org/dc/elements/1.1/"
   xmlns:cc="http://creativecommons.org/ns#"
   xmlns:rdf="http://www.w3.org/1999/02/22-rdf-syntax-ns#"
   xmlns:svg="http://www.w3.org/2000/svg"
   xmlns="http://www.w3.org/2000/svg"
   xmlns:xlink="http://www.w3.org/1999/xlink"
   xmlns:sodipodi="http://sodipodi.sourceforge.net/DTD/sodipodi-0.dtd"
   xmlns:inkscape="http://www.inkscape.org/namespaces/inkscape"
   width="512"
   height="128"
   id="svg3213"
   version="1.1"
   inkscape:version="0.48.4 r9939"
   sodipodi:docname="vsync.svg">
  <defs
     id="defs3215" />
  <sodipodi:namedview
     id="base"
     pagecolor="#ffffff"
     bordercolor="#666666"
     borderopacity="1.0"
     inkscape:pageopacity="0.0"
     inkscape:pageshadow="2"
     inkscape:zoom="1.4"
     inkscape:cx="181.64714"
     inkscape:cy="57.544504"
     inkscape:document-units="px"
     inkscape:current-layer="layer1"
     showgrid="false"
     fit-margin-top="0"
     fit-margin-left="0"
     fit-margin-right="0"
     fit-margin-bottom="0"
     inkscape:window-width="1222"
     inkscape:window-height="721"
     inkscape:window-x="1707"
     inkscape:window-y="135"
     inkscape:window-maximized="0" />
  <metadata
     id="metadata3218">
    <rdf:RDF>
      <cc:Work
         rdf:about="">
        <dc:format>image/svg+xml</dc:format>
        <dc:type
           rdf:resource="http://purl.org/dc/dcmitype/StillImage" />
        <dc:title></dc:title>
      </cc:Work>
    </rdf:RDF>
  </metadata>
  <g
     inkscape:label="Layer 1"
     inkscape:groupmode="layer"
     id="layer1"
     transform="translate(683.46875,7.5312507)">
    <flowRoot
       xml:space="preserve"
       id="flowRoot3221"
       style="font-size:22px;font-style:normal;font-variant:normal;font-weight:normal;font-stretch:normal;line-height:125%;letter-spacing:0px;word-spacing:0px;fill:#000000;fill-opacity:1;stroke:none;font-family:Comic Sans MS;-inkscape-font-specification:Comic Sans MS"><flowRegion
         id="flowRegion3223"><rect
           id="rect3225"
           width="42.857143"
           height="45.714287"
           x="-565.71429"
           y="149.50504" /></flowRegion><flowPara
         id="flowPara3227" /></flowRoot>    <path
       sodipodi:type="inkscape:offset"
       inkscape:radius="7.2668757"
       inkscape:original="M -446 27.125 C -447.15625 27.125037 -448.0625 27.671911 -448.6875 28.78125 C -449.1875 29.656284 -449.4375 30.656283 -449.4375 31.78125 L -449.4375 58.34375 C -449.4375 58.718755 -449.45313 59.289067 -449.5 60.0625 C -449.54688 60.835941 -449.5625 61.406253 -449.5625 61.78125 C -449.5625 62.625001 -449.25781 63.343751 -448.65625 63.90625 C -448.05469 64.46875 -447.34375 64.749999 -446.5 64.75 C -445.67188 64.749999 -444.98438 64.453125 -444.40625 63.875 C -442.43751 64.640624 -440.34376 65.031249 -438.15625 65.03125 C -434.46877 65.031249 -431.37502 63.734375 -428.875 61.15625 C -426.4219 58.64063 -425.18753 55.562508 -425.1875 51.9375 C -425.18753 48.375016 -426.26565 45.343769 -428.375 42.84375 C -430.64065 40.171899 -433.60939 38.843775 -437.28125 38.84375 C -438.26564 38.843775 -439.28126 38.992213 -440.34375 39.3125 C -441.40626 39.632837 -442.50001 40.140649 -443.65625 40.78125 L -443.65625 31.78125 C -443.65626 31.578157 -443.64845 31.257845 -443.59375 30.8125 C -443.53907 30.367221 -443.50001 30.046909 -443.5 29.84375 C -443.50001 28.031286 -444.32813 27.125037 -446 27.125 z M -505.71875 27.5625 C -506.65626 27.562536 -507.51563 27.992224 -508.34375 28.84375 C -509.17188 29.695347 -509.59375 30.546908 -509.59375 31.40625 C -509.59375 33.140656 -509.57032 35.750028 -509.5 39.21875 C -509.42969 42.687521 -509.375 45.296894 -509.375 47.03125 C -509.375 48.593765 -509.44532 50.937513 -509.59375 54.0625 C -509.74219 57.187507 -509.84375 59.531255 -509.84375 61.09375 C -509.84375 61.968752 -509.53125 62.695314 -508.90625 63.3125 C -508.28125 63.929688 -507.48438 64.265625 -506.5625 64.28125 C -505.53126 64.937499 -504.14063 65.468749 -502.34375 65.875 C -500.85939 66.203123 -499.54689 66.374998 -498.40625 66.375 C -493.70314 66.374998 -490.03127 65.531249 -487.4375 63.84375 C -485.12503 62.343752 -483.32815 60.328129 -482 57.84375 C -480.67191 55.406259 -480.00003 52.859386 -480 50.15625 C -480.00003 45.671893 -481.92191 41.578147 -485.78125 37.875 C -489.01565 34.765654 -492.9219 32.453157 -497.5 30.96875 C -497.95314 30.828158 -499.39064 30.187534 -501.8125 29.03125 C -503.89063 28.062536 -505.20313 27.562536 -505.71875 27.5625 z M -503.15625 35.6875 C -498.17189 37.734401 -494.92189 39.2344 -493.40625 40.1875 C -488.87502 43.015646 -486.59378 46.375018 -486.59375 50.25 C -486.59378 51.906262 -487.02346 53.500011 -487.84375 55.03125 C -488.66409 56.562507 -489.76565 57.765631 -491.15625 58.65625 C -492.62502 59.593754 -495.03127 60.062504 -498.40625 60.0625 C -499.37501 60.062504 -500.27345 59.945317 -501.0625 59.75 C -501.85157 59.554692 -502.54689 59.26563 -503.15625 58.875 L -503.15625 35.6875 z M -418.0625 39.0625 C -419.85938 39.062525 -420.9375 39.953149 -421.25 41.71875 C -421.71875 44.328145 -421.9375 46.625017 -421.9375 48.65625 C -421.9375 51.734387 -421.64063 55.250009 -421.03125 59.15625 C -420.70313 61.218753 -419.67188 62.765626 -417.96875 63.84375 C -416.45313 64.781249 -414.59376 65.249999 -412.375 65.25 C -410.23439 65.249999 -408.15627 64.890624 -406.15625 64.15625 C -405.56252 65.328124 -404.64064 65.906248 -403.34375 65.90625 C -402.4219 65.906248 -401.63283 65.632811 -401 65.0625 C -400.36721 64.492187 -400.06252 63.78125 -400.0625 62.90625 C -400.06252 62.578126 -400.07034 62.085939 -400.125 61.4375 C -400.17971 60.789066 -400.21877 60.296879 -400.21875 59.96875 C -400.21877 58.92188 -400.2344 57.328132 -400.25 55.21875 C -400.26565 53.109386 -400.25002 51.546887 -400.25 50.5 C -400.25002 50.953138 -400.1094 48.203141 -399.8125 42.25 C -399.76565 41.375023 -400.06252 40.640648 -400.71875 40.0625 C -401.37502 39.4844 -402.1719 39.187525 -403.09375 39.1875 C -404.98439 39.187525 -406.04689 40.140649 -406.28125 42 C -406.57814 44.328145 -406.71877 47.078142 -406.71875 50.28125 C -406.71877 51.078138 -406.71877 52.390637 -406.6875 54.21875 C -406.67189 55.750008 -406.65627 57.109382 -406.65625 58.3125 C -408.73439 58.812505 -410.64064 59.062505 -412.375 59.0625 C -412.71876 59.062505 -413.07032 59.031255 -413.4375 58.9375 C -413.8047 58.843755 -414.20313 58.70313 -414.59375 58.53125 C -414.89063 57.453132 -415.10157 56.085945 -415.25 54.4375 C -415.39845 52.789074 -415.46876 50.859388 -415.46875 48.65625 C -415.46876 47.890641 -415.35157 46.781267 -415.125 45.3125 C -414.89845 43.84377 -414.78126 42.781271 -414.78125 42.09375 C -414.78126 41.218773 -415.10938 40.476586 -415.75 39.90625 C -416.39063 39.335962 -417.15626 39.062525 -418.0625 39.0625 z M -464.9375 39.5625 C -468.85938 39.562524 -471.96876 41.062523 -474.28125 44.09375 C -476.35938 46.828142 -477.40625 50.171889 -477.40625 54.125 C -477.40625 57.703131 -476.09375 60.468754 -473.46875 62.4375 C -471.09376 64.21875 -468.01564 65.124999 -464.28125 65.125 C -461.82814 65.124999 -459.53127 64.656249 -457.34375 63.71875 C -454.7344 62.593751 -453.40628 61.125003 -453.40625 59.34375 C -453.40628 57.765631 -454.21877 57.000007 -455.84375 57 C -456.62502 57.000007 -457.6719 57.359382 -458.96875 58.125 C -460.42189 58.98438 -462.18752 59.437505 -464.28125 59.4375 C -465.65626 59.437505 -466.87501 59.218755 -467.9375 58.8125 C -469.00001 58.406256 -469.90626 57.812506 -470.65625 57 L -462.78125 53.5 C -460.14064 52.328137 -458.37502 51.421888 -457.5 50.8125 C -455.57815 49.48439 -454.62502 47.968766 -454.625 46.25 C -454.62502 43.81252 -455.7969 42.031272 -458.15625 40.875 C -459.95314 40.000024 -462.21877 39.562524 -464.9375 39.5625 z M -383 40.03125 C -387.57814 40.031274 -391.18751 41.406273 -393.875 44.125 C -396.46875 46.750017 -397.78125 50.187514 -397.78125 54.4375 C -397.78125 57.593756 -396.78906 60.164066 -394.84375 62.1875 C -392.89844 64.210937 -390.39063 65.249999 -387.28125 65.25 C -386.09376 65.249999 -385.00001 65.031249 -384 64.625 C -383.00002 64.21875 -382.10939 63.625 -381.3125 62.8125 C -381.50002 65.843748 -382.12502 68.046871 -383.1875 69.4375 C -384.29689 70.859368 -386.01564 71.562492 -388.34375 71.5625 C -389.35938 71.562492 -390.50001 71.421868 -391.8125 71.15625 C -393.12501 70.890618 -394.14063 70.781243 -394.84375 70.78125 C -395.73438 70.781243 -396.45313 71.031243 -397 71.5625 C -397.54688 72.093742 -397.8125 72.796866 -397.8125 73.65625 C -397.8125 76.062488 -394.79688 77.249987 -388.71875 77.25 C -383.51564 77.249987 -379.89064 75.734363 -377.84375 72.6875 C -376.31252 70.406244 -375.46877 66.734372 -375.3125 61.6875 C -375.18752 57.609381 -374.78127 53.734385 -374.125 50.0625 C -373.7969 48.218766 -373.62502 46.796892 -373.625 45.75 C -373.62502 43.640645 -374.64065 42.453147 -376.625 42.21875 C -377.28127 41.484398 -378.12502 40.953148 -379.1875 40.59375 C -380.25002 40.234399 -381.53127 40.031274 -383 40.03125 z M -437.28125 44.84375 C -435.46877 44.843769 -434.00002 45.531269 -432.90625 46.90625 C -431.85939 48.234391 -431.34377 49.906264 -431.34375 51.9375 C -431.34377 53.96876 -431.96877 55.664071 -433.25 57 C -434.53127 58.335943 -436.17189 59.000005 -438.15625 59 C -439.68751 59.000005 -441.51564 58.546881 -443.65625 57.625 C -443.67188 52.468762 -443.67188 49.14064 -443.65625 47.65625 C -442.32813 46.718767 -441.15626 46.031268 -440.09375 45.5625 C -439.03126 45.093769 -438.09376 44.843769 -437.28125 44.84375 z M -464.9375 45.21875 C -463.25002 45.218769 -461.85939 45.531269 -460.8125 46.125 C -462.06252 46.937517 -463.76564 47.796891 -465.875 48.75 C -467.62501 49.500015 -469.35938 50.265639 -471.125 51.03125 C -470.50001 49.093765 -469.68751 47.656266 -468.65625 46.6875 C -467.62501 45.718768 -466.39064 45.218769 -464.9375 45.21875 z M -383.21875 45.375 C -382.73439 45.375019 -382.23439 45.468769 -381.71875 45.625 C -381.20314 45.781268 -380.68752 46.000018 -380.15625 46.3125 C -380.54689 49.48439 -380.89064 51.843762 -381.1875 53.34375 C -381.35939 54.718759 -382.06252 56.093758 -383.28125 57.5 C -384.57814 58.98438 -385.84376 59.718754 -387.125 59.71875 C -388.53126 59.718754 -389.60938 59.250005 -390.3125 58.3125 C -391.01563 57.375007 -391.34376 55.984383 -391.34375 54.125 C -391.34376 51.609387 -390.68751 49.578139 -389.375 48 C -387.90626 46.265643 -385.85939 45.375019 -383.21875 45.375 z "
       xlink:href="#text3241"
       style="font-size:48px;font-style:normal;font-variant:normal;font-weight:bold;font-stretch:normal;line-height:125%;letter-spacing:0px;word-spacing:0px;fill:#ffffff;fill-opacity:1;stroke:none;font-family:Comic Sans MS;-inkscape-font-specification:Comic Sans MS Bold"
       id="path3247"
       inkscape:href="#text3241"
       d="m -483.28125,20.8125 c -2.90665,1.06e-4 -6.1369,1.580175 -7.96875,3.65625 -1.74133,1.971817 -3.037,4.291355 -4.15625,6.9375 -0.17854,-0.773686 -0.35181,-1.531897 -0.53125,-2.3125 A 7.2676024,7.2676024 0 0 0 -496.25,28.125 c -1.30054,-3.422342 -5.88311,-7.031153 -9.90625,-7.03125 -2.432,10e-5 -5.12009,0.955714 -7.03125,2.59375 a 7.2676024,7.2676024 0 0 0 -0.0937,0.09375 c -2.00245,1.774995 -3.5,4.990388 -3.5,7.71875 0,2.998802 0.67553,5.000013 1.625,8.1875 a 7.2676024,7.2676024 0 0 0 0.0312,0.09375 c 0.64351,2.068444 1.26271,4.193567 1.90625,6.3125 l 0.0312,0 c 2.35222,8.627178 4.52689,15.339278 6.625,20.34375 l -0.0312,0 c 1.46739,3.507501 6.2328,6.749995 10.09375,6.75 3.51196,-5e-6 7.6288,-2.604798 9.28125,-5.5625 0.007,-0.01235 0.0244,-0.0189 0.0312,-0.03125 1.13739,-2.05779 2.08414,-4.165221 2.90625,-6.28125 0.93258,2.925387 2.86974,5.539316 5.09375,7.25 0.0116,0.009 0.0196,0.02231 0.0312,0.03125 3.88041,2.987833 8.74041,4.156249 13.78125,4.15625 5.35788,-10e-7 10.44434,-0.977146 15,-3.03125 1.87423,-0.847869 3.54495,-2.079098 5.09375,-3.46875 -0.15808,0.392576 -0.45273,1.008807 -0.59375,1.375 -0.9265,2.405846 -1.75002,3.450009 -1.75,6.9375 -3e-5,2.864828 1.55553,5.960547 3.5625,7.6875 1.85069,1.59243 4.58834,2.656211 7.09375,2.65625 3.96508,-3.9e-5 8.48545,-3.522855 9.78125,-6.90625 a 7.2676024,7.2676024 0 0 0 0.0312,-0.09375 c 0.68111,-1.846617 1.15403,-3.171272 1.5,-4.1875 0.63116,-1.62032 1.81837,-4.126353 2.90625,-6.46875 0.46651,0.833267 0.9013,1.707985 1.5625,2.34375 2.03023,1.952161 4.94376,2.906247 7.375,2.90625 2.43125,-3e-6 5.4067,-1.065706 7.3125,-2.875 0.15639,-0.148477 0.22757,-0.399176 0.375,-0.5625 0.35235,0.456181 0.54844,0.975989 1,1.375 2.1481,1.898135 4.90027,2.562498 7.0625,2.5625 2.44692,-5e-6 5.26922,-1.048971 7.15625,-2.75 3.11178,1.702281 6.7,2.562499 10.28125,2.5625 3.26625,-2e-6 5.92521,-0.970583 8.8125,-2.28125 a 7.2676024,7.2676024 0 0 0 0.0312,-0.03125 c 1.75026,-0.803066 3.3225,-1.66067 4.875,-3.09375 1.5525,-1.43308 3.3437,-3.938298 3.34375,-7.15625 -7e-5,-2.670549 -1.32826,-5.462316 -3.03125,-7.1875 -0.40379,-0.40902 -1.02245,-0.655202 -1.53125,-1 0.47028,-0.348351 1.06759,-0.588388 1.4375,-1 0.009,-0.01023 0.0221,-0.02098 0.0312,-0.03125 0.006,-0.0064 -0.006,-0.02484 0,-0.03125 l 0.0312,0 c 1.55242,-1.766824 2.62493,-4.328161 2.625,-6.84375 -4e-5,-2.990847 -1.65344,-5.729855 -3.3125,-7.28125 -1.65906,-1.551395 -3.36341,-2.411479 -5.1875,-3.15625 a 7.2676024,7.2676024 0 0 0 -0.0312,-0.03125 c -2.74893,-1.107444 -5.47703,-1.843705 -8.40625,-1.84375 -4.31835,3.3e-5 -8.22905,2.039456 -11.34375,4.96875 -2.68726,-3.062798 -6.86546,-5.156217 -10.75,-5.15625 -1.78458,1.8e-5 -3.50325,0.440106 -5.15625,1.03125 -1.75123,-0.990116 -3.72398,-1.531229 -5.375,-1.53125 -1.99561,5.6e-5 -4.05458,0.787387 -5.8125,1.90625 -1.0944,-0.374218 -2.23119,-0.687469 -3.375,-0.6875 -3.48226,7.1e-5 -7.33729,2.468736 -9,5.21875 -0.007,0.01178 -0.0242,0.01946 -0.0312,0.03125 -0.19729,0.328396 -0.36794,0.754578 -0.5625,1.09375 -0.47782,-0.702635 -0.96552,-1.590547 -1.4375,-2.21875 -1.78473,-2.36347 -5.30051,-4.039956 -8.15625,-4.0625 -0.48479,-2.856096 -2.32287,-5.084117 -3.84375,-6.1875 -1.7541,-1.27258 -3.41449,-1.894487 -5.25,-2.46875 -2.69244,-0.841338 -5.17564,-1.406191 -7.84375,-1.40625 -5.279,4.7e-5 -10.42006,1.879186 -14.65625,5.09375 -0.58613,-1.456523 -1.40802,-2.809297 -2.5,-3.8125 -1.90616,-1.750841 -4.78717,-2.84365 -7.25,-2.84375 z" />
    <path
       sodipodi:type="inkscape:offset"
       inkscape:radius="3.7029774"
       inkscape:original="M -446 27.125 C -447.15625 27.125037 -448.0625 27.671911 -448.6875 28.78125 C -449.1875 29.656284 -449.4375 30.656283 -449.4375 31.78125 L -449.4375 58.34375 C -449.4375 58.718755 -449.45313 59.289067 -449.5 60.0625 C -449.54688 60.835941 -449.5625 61.406253 -449.5625 61.78125 C -449.5625 62.625001 -449.25781 63.343751 -448.65625 63.90625 C -448.05469 64.46875 -447.34375 64.749999 -446.5 64.75 C -445.67188 64.749999 -444.98438 64.453125 -444.40625 63.875 C -442.43751 64.640624 -440.34376 65.031249 -438.15625 65.03125 C -434.46877 65.031249 -431.37502 63.734375 -428.875 61.15625 C -426.4219 58.64063 -425.18753 55.562508 -425.1875 51.9375 C -425.18753 48.375016 -426.26565 45.343769 -428.375 42.84375 C -430.64065 40.171899 -433.60939 38.843775 -437.28125 38.84375 C -438.26564 38.843775 -439.28126 38.992213 -440.34375 39.3125 C -441.40626 39.632837 -442.50001 40.140649 -443.65625 40.78125 L -443.65625 31.78125 C -443.65626 31.578157 -443.64845 31.257845 -443.59375 30.8125 C -443.53907 30.367221 -443.50001 30.046909 -443.5 29.84375 C -443.50001 28.031286 -444.32813 27.125037 -446 27.125 z M -505.71875 27.5625 C -506.65626 27.562536 -507.51563 27.992224 -508.34375 28.84375 C -509.17188 29.695347 -509.59375 30.546908 -509.59375 31.40625 C -509.59375 33.140656 -509.57032 35.750028 -509.5 39.21875 C -509.42969 42.687521 -509.375 45.296894 -509.375 47.03125 C -509.375 48.593765 -509.44532 50.937513 -509.59375 54.0625 C -509.74219 57.187507 -509.84375 59.531255 -509.84375 61.09375 C -509.84375 61.968752 -509.53125 62.695314 -508.90625 63.3125 C -508.28125 63.929688 -507.48438 64.265625 -506.5625 64.28125 C -505.53126 64.937499 -504.14063 65.468749 -502.34375 65.875 C -500.85939 66.203123 -499.54689 66.374998 -498.40625 66.375 C -493.70314 66.374998 -490.03127 65.531249 -487.4375 63.84375 C -485.12503 62.343752 -483.32815 60.328129 -482 57.84375 C -480.67191 55.406259 -480.00003 52.859386 -480 50.15625 C -480.00003 45.671893 -481.92191 41.578147 -485.78125 37.875 C -489.01565 34.765654 -492.9219 32.453157 -497.5 30.96875 C -497.95314 30.828158 -499.39064 30.187534 -501.8125 29.03125 C -503.89063 28.062536 -505.20313 27.562536 -505.71875 27.5625 z M -503.15625 35.6875 C -498.17189 37.734401 -494.92189 39.2344 -493.40625 40.1875 C -488.87502 43.015646 -486.59378 46.375018 -486.59375 50.25 C -486.59378 51.906262 -487.02346 53.500011 -487.84375 55.03125 C -488.66409 56.562507 -489.76565 57.765631 -491.15625 58.65625 C -492.62502 59.593754 -495.03127 60.062504 -498.40625 60.0625 C -499.37501 60.062504 -500.27345 59.945317 -501.0625 59.75 C -501.85157 59.554692 -502.54689 59.26563 -503.15625 58.875 L -503.15625 35.6875 z M -418.0625 39.0625 C -419.85938 39.062525 -420.9375 39.953149 -421.25 41.71875 C -421.71875 44.328145 -421.9375 46.625017 -421.9375 48.65625 C -421.9375 51.734387 -421.64063 55.250009 -421.03125 59.15625 C -420.70313 61.218753 -419.67188 62.765626 -417.96875 63.84375 C -416.45313 64.781249 -414.59376 65.249999 -412.375 65.25 C -410.23439 65.249999 -408.15627 64.890624 -406.15625 64.15625 C -405.56252 65.328124 -404.64064 65.906248 -403.34375 65.90625 C -402.4219 65.906248 -401.63283 65.632811 -401 65.0625 C -400.36721 64.492187 -400.06252 63.78125 -400.0625 62.90625 C -400.06252 62.578126 -400.07034 62.085939 -400.125 61.4375 C -400.17971 60.789066 -400.21877 60.296879 -400.21875 59.96875 C -400.21877 58.92188 -400.2344 57.328132 -400.25 55.21875 C -400.26565 53.109386 -400.25002 51.546887 -400.25 50.5 C -400.25002 50.953138 -400.1094 48.203141 -399.8125 42.25 C -399.76565 41.375023 -400.06252 40.640648 -400.71875 40.0625 C -401.37502 39.4844 -402.1719 39.187525 -403.09375 39.1875 C -404.98439 39.187525 -406.04689 40.140649 -406.28125 42 C -406.57814 44.328145 -406.71877 47.078142 -406.71875 50.28125 C -406.71877 51.078138 -406.71877 52.390637 -406.6875 54.21875 C -406.67189 55.750008 -406.65627 57.109382 -406.65625 58.3125 C -408.73439 58.812505 -410.64064 59.062505 -412.375 59.0625 C -412.71876 59.062505 -413.07032 59.031255 -413.4375 58.9375 C -413.8047 58.843755 -414.20313 58.70313 -414.59375 58.53125 C -414.89063 57.453132 -415.10157 56.085945 -415.25 54.4375 C -415.39845 52.789074 -415.46876 50.859388 -415.46875 48.65625 C -415.46876 47.890641 -415.35157 46.781267 -415.125 45.3125 C -414.89845 43.84377 -414.78126 42.781271 -414.78125 42.09375 C -414.78126 41.218773 -415.10938 40.476586 -415.75 39.90625 C -416.39063 39.335962 -417.15626 39.062525 -418.0625 39.0625 z M -464.9375 39.5625 C -468.85938 39.562524 -471.96876 41.062523 -474.28125 44.09375 C -476.35938 46.828142 -477.40625 50.171889 -477.40625 54.125 C -477.40625 57.703131 -476.09375 60.468754 -473.46875 62.4375 C -471.09376 64.21875 -468.01564 65.124999 -464.28125 65.125 C -461.82814 65.124999 -459.53127 64.656249 -457.34375 63.71875 C -454.7344 62.593751 -453.40628 61.125003 -453.40625 59.34375 C -453.40628 57.765631 -454.21877 57.000007 -455.84375 57 C -456.62502 57.000007 -457.6719 57.359382 -458.96875 58.125 C -460.42189 58.98438 -462.18752 59.437505 -464.28125 59.4375 C -465.65626 59.437505 -466.87501 59.218755 -467.9375 58.8125 C -469.00001 58.406256 -469.90626 57.812506 -470.65625 57 L -462.78125 53.5 C -460.14064 52.328137 -458.37502 51.421888 -457.5 50.8125 C -455.57815 49.48439 -454.62502 47.968766 -454.625 46.25 C -454.62502 43.81252 -455.7969 42.031272 -458.15625 40.875 C -459.95314 40.000024 -462.21877 39.562524 -464.9375 39.5625 z M -383 40.03125 C -387.57814 40.031274 -391.18751 41.406273 -393.875 44.125 C -396.46875 46.750017 -397.78125 50.187514 -397.78125 54.4375 C -397.78125 57.593756 -396.78906 60.164066 -394.84375 62.1875 C -392.89844 64.210937 -390.39063 65.249999 -387.28125 65.25 C -386.09376 65.249999 -385.00001 65.031249 -384 64.625 C -383.00002 64.21875 -382.10939 63.625 -381.3125 62.8125 C -381.50002 65.843748 -382.12502 68.046871 -383.1875 69.4375 C -384.29689 70.859368 -386.01564 71.562492 -388.34375 71.5625 C -389.35938 71.562492 -390.50001 71.421868 -391.8125 71.15625 C -393.12501 70.890618 -394.14063 70.781243 -394.84375 70.78125 C -395.73438 70.781243 -396.45313 71.031243 -397 71.5625 C -397.54688 72.093742 -397.8125 72.796866 -397.8125 73.65625 C -397.8125 76.062488 -394.79688 77.249987 -388.71875 77.25 C -383.51564 77.249987 -379.89064 75.734363 -377.84375 72.6875 C -376.31252 70.406244 -375.46877 66.734372 -375.3125 61.6875 C -375.18752 57.609381 -374.78127 53.734385 -374.125 50.0625 C -373.7969 48.218766 -373.62502 46.796892 -373.625 45.75 C -373.62502 43.640645 -374.64065 42.453147 -376.625 42.21875 C -377.28127 41.484398 -378.12502 40.953148 -379.1875 40.59375 C -380.25002 40.234399 -381.53127 40.031274 -383 40.03125 z M -437.28125 44.84375 C -435.46877 44.843769 -434.00002 45.531269 -432.90625 46.90625 C -431.85939 48.234391 -431.34377 49.906264 -431.34375 51.9375 C -431.34377 53.96876 -431.96877 55.664071 -433.25 57 C -434.53127 58.335943 -436.17189 59.000005 -438.15625 59 C -439.68751 59.000005 -441.51564 58.546881 -443.65625 57.625 C -443.67188 52.468762 -443.67188 49.14064 -443.65625 47.65625 C -442.32813 46.718767 -441.15626 46.031268 -440.09375 45.5625 C -439.03126 45.093769 -438.09376 44.843769 -437.28125 44.84375 z M -464.9375 45.21875 C -463.25002 45.218769 -461.85939 45.531269 -460.8125 46.125 C -462.06252 46.937517 -463.76564 47.796891 -465.875 48.75 C -467.62501 49.500015 -469.35938 50.265639 -471.125 51.03125 C -470.50001 49.093765 -469.68751 47.656266 -468.65625 46.6875 C -467.62501 45.718768 -466.39064 45.218769 -464.9375 45.21875 z M -383.21875 45.375 C -382.73439 45.375019 -382.23439 45.468769 -381.71875 45.625 C -381.20314 45.781268 -380.68752 46.000018 -380.15625 46.3125 C -380.54689 49.48439 -380.89064 51.843762 -381.1875 53.34375 C -381.35939 54.718759 -382.06252 56.093758 -383.28125 57.5 C -384.57814 58.98438 -385.84376 59.718754 -387.125 59.71875 C -388.53126 59.718754 -389.60938 59.250005 -390.3125 58.3125 C -391.01563 57.375007 -391.34376 55.984383 -391.34375 54.125 C -391.34376 51.609387 -390.68751 49.578139 -389.375 48 C -387.90626 46.265643 -385.85939 45.375019 -383.21875 45.375 z "
       xlink:href="#text3241"
       style="font-size:48px;font-style:normal;font-variant:normal;font-weight:bold;font-stretch:normal;line-height:125%;letter-spacing:0px;word-spacing:0px;fill:#000000;fill-opacity:1;stroke:none;font-family:Comic Sans MS;-inkscape-font-specification:Comic Sans MS Bold"
       id="path3249"
       inkscape:href="#text3241"
       d="m -483.28125,24.40625 c -1.96392,7.2e-5 -4.03422,0.988802 -5.3125,2.4375 -1.43521,1.625183 -2.59102,3.667651 -3.625,6.15625 a 3.7033477,3.7033477 0 0 0 -0.0937,0.15625 c -0.67411,1.881199 -1.32353,3.76417 -2,5.59375 -0.36961,1.001946 -1.10506,2.858149 -1.5625,4.0625 -0.14504,-0.518031 -0.29185,-0.872211 -0.4375,-1.40625 a 3.7033477,3.7033477 0 0 0 0,-0.0625 c -0.93891,-3.27098 -1.66093,-5.674871 -2.1875,-7.40625 -0.0142,-0.06086 -0.0171,-0.126559 -0.0312,-0.1875 -0.005,-0.01509 -0.0267,-0.04753 -0.0312,-0.0625 -0.29193,-1.256993 -0.58183,-2.537129 -0.875,-3.8125 a 3.7033477,3.7033477 0 0 0 -0.125,-0.46875 c -0.95391,-2.510201 -3.80804,-4.718683 -6.59375,-4.71875 -1.6684,6.9e-5 -3.42304,0.608207 -4.71875,1.71875 a 3.7033477,3.7033477 0 0 0 -0.0625,0.03125 c -1.35756,1.203356 -2.25,3.220111 -2.25,5.0625 0,2.08751 0.52455,4.122628 1.4375,7.1875 a 3.7033477,3.7033477 0 0 0 0.0312,0.03125 c 0.64004,2.057282 1.27385,4.136071 1.90625,6.21875 0.01,0.03163 0.0216,0.06212 0.0312,0.09375 2.34228,8.603846 4.49418,15.246898 6.5,20.03125 1.06191,2.538286 4.01687,4.531247 6.78125,4.53125 2.42525,-4e-6 5.02284,-1.606152 6.1875,-3.71875 1.12199,-2.026302 2.09076,-4.0661 2.875,-6.125 0.003,-0.0086 -0.003,-0.02263 0,-0.03125 2.77246,-7.19583 4.84749,-12.587773 6.25,-16.1875 a 3.7033477,3.7033477 0 0 0 0.0312,-0.0625 c 0.56465,-1.521446 0.99553,-2.658622 1.28125,-3.4375 0.13254,-0.361297 0.20945,-0.648758 0.28125,-0.84375 0.0958,-0.19148 0.001,5.87e-4 0.0312,-0.0625 0.0361,-0.09783 0.0793,-0.14922 0.0937,-0.1875 0.61178,-1.49548 1.26516,-2.747602 1.9375,-3.71875 0.76282,-1.101885 1.28118,-2.510293 1.28125,-3.9375 -6e-5,-1.800071 -0.82308,-3.746498 -2.1875,-5 -1.30084,-1.194845 -3.15199,-1.874932 -4.84375,-1.875 z m 24.40625,1.5625 c -4.67392,4.1e-5 -9.13724,1.606144 -12.90625,4.59375 -3.75983,2.980383 -6.18342,6.890492 -6.25,11.21875 -0.0759,3.923298 2.749,7.376434 6.4375,9.03125 a 3.7033477,3.7033477 0 0 0 0.0312,0 c 2.65675,1.182961 5.56186,1.740971 8.65625,1.8125 3.32221,0.0745 5.64996,0.535541 5.71875,0.5625 -0.23092,0.208312 -0.72974,0.589646 -1.6875,1.03125 a 3.7033477,3.7033477 0 0 0 0,0.03125 c -2.04973,0.954842 -4.09358,1.406254 -6.25,1.40625 -2.35415,4e-6 -2.50764,-0.330139 -2.6875,-0.71875 -0.004,-0.0077 0.004,-0.02355 0,-0.03125 l -0.0312,0 c -1.08327,-2.329599 -3.78406,-4.281231 -6.4375,-4.28125 -1.80219,1.7e-5 -3.85827,0.738738 -5.15625,2.15625 -1.22715,1.340192 -1.875,3.200678 -1.875,4.96875 0,3.131445 1.77015,6.035272 4.28125,7.96875 l 0,0.03125 c 0.006,0.0043 0.0257,-0.0042 0.0312,0 3.09615,2.386923 7.11253,3.406249 11.625,3.40625 4.93714,-10e-7 9.49331,-0.866831 13.53125,-2.6875 4.909,-2.220748 8.21275,-6.294213 8.8125,-11.09375 1.20698,2.209727 2.7122,4.88359 3.53125,6.46875 -1.21442,2.680779 -2.35839,5.234146 -3.0625,7.0625 -0.87825,2.280562 -1.46876,3.522801 -1.46875,5.65625 -2e-5,1.88895 0.9603,3.836461 2.3125,5 1.27256,1.094977 3.03653,1.749973 4.75,1.75 2.72547,-2.7e-5 5.53258,-2.149362 6.46875,-4.59375 a 3.7033477,3.7033477 0 0 0 0,-0.03125 c 0.68931,-1.868844 1.16233,-3.25599 1.5,-4.25 0.006,-0.0164 0.0248,-0.04604 0.0312,-0.0625 0.007,-0.0215 0.0241,-0.07268 0.0312,-0.09375 0.98997,-2.526744 2.43719,-5.767465 4.375,-9.71875 a 3.7033477,3.7033477 0 0 0 0.0312,0 c 1.66706,-3.433035 2.39234,-4.960471 3.65625,-7.5625 -0.0569,1.034926 -0.15625,2.336006 -0.15625,3.15625 0,0.790165 0.0606,1.474701 0.15625,2.375 0.0818,0.770274 0.125,1.332585 0.125,1.59375 0,1.713495 0.72885,3.6227 2.03125,4.875 1.3334,1.282123 3.20759,1.906248 4.90625,1.90625 1.69866,-2e-6 3.60117,-0.665677 4.875,-1.875 1.28557,-1.220493 2.06248,-3.127807 2.0625,-4.90625 -2e-5,-0.746007 -0.0473,-1.490269 -0.15625,-2.4375 -0.0953,-0.828207 -0.15625,-1.402421 -0.15625,-1.53125 -10e-6,-0.442186 0.0445,-0.959129 0.125,-1.5625 a 3.7033477,3.7033477 0 0 0 0.0312,-0.03125 c 0.0938,-0.737033 0.12154,-1.251362 0.15625,-1.75 0.27796,-0.868121 0.59672,-1.644149 0.9375,-2.34375 -0.003,0.191811 -0.0313,0.550622 -0.0312,0.6875 -2e-5,1.693826 0.11882,3.496484 0.375,5.375 0.21638,1.607515 0.44024,3.192197 0.65625,4.78125 l -0.0312,0 c 0.003,0.02177 0.0285,0.04067 0.0312,0.0625 0.19164,1.546957 0.84837,3.222952 2.1875,4.40625 1.35802,1.199994 3.11442,1.624998 4.6875,1.625 1.71685,-4e-6 3.54476,-0.671133 4.8125,-1.84375 0.64372,-0.595464 1.16601,-1.35829 1.53125,-2.1875 0.0226,0.01927 0.0397,0.04336 0.0625,0.0625 3.01501,2.529372 6.88681,3.781249 11.03125,3.78125 2.40002,-2e-6 4.70769,-0.740879 7.34375,-1.9375 1.54323,-0.708074 2.85388,-1.43964 3.96875,-2.46875 1.11487,-1.02911 2.15622,-2.623873 2.15625,-4.5625 -4e-5,-1.743976 -0.80595,-3.509541 -1.96875,-4.6875 -1.20387,-1.219457 -3.06892,-1.999986 -4.78125,-2 -1.38988,2.4e-5 -1.78596,0.293904 -2.4375,0.5625 -0.65154,0.268596 -1.33604,0.600005 -2.15625,1.03125 -1.19598,0.628814 -1.9993,0.78125 -2.125,0.78125 -1.2789,3e-6 -1.84102,-0.281687 -2.15625,-0.53125 a 3.7033477,3.7033477 0 0 0 -0.0312,0 c -0.35509,-0.280327 -0.375,-0.221541 -0.375,-0.96875 0,-0.628271 0.39383,-2.060773 1.53125,-4 0.006,-0.0099 -0.006,-0.02128 0,-0.03125 0.53599,-0.893949 0.97233,-1.414417 1.21875,-1.65625 0.77505,0.08876 1.52406,0.268493 1.5,0.25 1.28805,0.990033 2.66642,1.843801 4.6875,1.84375 1.70021,3.2e-5 3.7051,-0.81101 4.90625,-2.15625 0.004,-0.0044 -0.004,-0.02685 0,-0.03125 l 0.0312,0 c 1.05093,-1.190129 1.71871,-2.842223 1.71875,-4.5 -3e-5,-1.868873 -0.98612,-3.593311 -2.15625,-4.6875 -1.17013,-1.094189 -2.51673,-1.824859 -4.09375,-2.46875 a 3.7033477,3.7033477 0 0 0 -0.0312,0 c -2.46593,-0.993435 -4.77291,-1.562465 -7.0625,-1.5625 -4.7197,3.6e-5 -8.87008,2.928323 -11.78125,7.3125 -0.008,0.01247 -0.023,0.01876 -0.0312,0.03125 -0.0892,0.134326 -0.13233,0.271464 -0.21875,0.40625 -0.1908,-0.686459 -0.30783,-1.431065 -0.59375,-2.0625 -1.62152,-3.558228 -5.47072,-5.874966 -9.46875,-5.875 -1.98651,2e-5 -3.89934,0.545435 -5.6875,1.46875 -1.30938,-1.300668 -3.17886,-1.968729 -4.84375,-1.96875 -1.73772,4.9e-5 -3.52977,0.656507 -4.8125,1.8125 -0.20073,0.18091 -0.2919,0.474833 -0.46875,0.6875 -1.15245,-0.751671 -2.48731,-1.281211 -3.90625,-1.28125 -2.35679,4.8e-5 -4.79799,1.508377 -5.96875,3.46875 -1.13783,1.890792 -2.24149,4.031307 -3.375,6.40625 -1.59937,-2.817743 -3.10766,-5.292698 -4.53125,-7.1875 -1.19922,-1.588087 -3.4087,-2.624954 -5.375,-2.625 -1.79175,4.9e-5 -3.61226,0.803773 -4.84375,1.96875 0.92984,-1.190695 1.53119,-2.733356 1.53125,-4.25 -5e-5,-2.075167 -1.32671,-3.728443 -2.5625,-4.625 -1.23579,-0.896557 -2.5976,-1.430302 -4.21875,-1.9375 -2.47546,-0.773537 -4.6707,-1.218703 -6.78125,-1.21875 z m 11.6875,12.5 c -0.96401,1.095969 -1.61084,2.544968 -1.71875,4.03125 -1.19181,-0.779663 -2.43089,-1.483813 -3.84375,-1.9375 0.15375,0.0061 0.34623,0.06251 0.5,0.0625 1.75901,4.8e-5 3.77263,-0.783193 5.0625,-2.15625 z m -9.78125,14.65625 c -0.0376,-0.03461 -0.12501,0.02502 -0.125,0.5 10e-6,-0.348976 0.13766,-0.533393 0.0625,-0.46875 0.002,-0.01912 0.0735,-0.0211 0.0625,-0.03125 z" />
    <text
       xml:space="preserve"
       style="font-size:48px;font-style:normal;font-variant:normal;font-weight:bold;font-stretch:normal;line-height:125%;letter-spacing:0px;word-spacing:0px;fill:#ffff00;fill-opacity:1;stroke:none;font-family:Comic Sans MS;-inkscape-font-specification:Comic Sans MS Bold"
       x="-513.18304"
       y="64.040184"
       id="text3241"
       sodipodi:linespacing="125%"><tspan
         sodipodi:role="line"
         id="tspan3243"
         x="-513.18304"
         y="64.040184">Debug</tspan></text>
  </g>
</svg>
