<?xml version="1.0" encoding="UTF-8" standalone="no"?>
<!-- Created with Inkscape (http://www.inkscape.org/) -->

<svg
   xmlns:dc="http://purl.org/dc/elements/1.1/"
   xmlns:cc="http://creativecommons.org/ns#"
   xmlns:rdf="http://www.w3.org/1999/02/22-rdf-syntax-ns#"
   xmlns:svg="http://www.w3.org/2000/svg"
   xmlns="http://www.w3.org/2000/svg"
   xmlns:xlink="http://www.w3.org/1999/xlink"
   xmlns:sodipodi="http://sodipodi.sourceforge.net/DTD/sodipodi-0.dtd"
   xmlns:inkscape="http://www.inkscape.org/namespaces/inkscape"
   width="512"
   height="128"
   id="svg3213"
   version="1.1"
   inkscape:version="0.48.4 r9939"
   sodipodi:docname="options.svg">
  <defs
     id="defs3215" />
  <sodipodi:namedview
     id="base"
     pagecolor="#ffffff"
     bordercolor="#666666"
     borderopacity="1.0"
     inkscape:pageopacity="0.0"
     inkscape:pageshadow="2"
     inkscape:zoom="1.4"
     inkscape:cx="181.64714"
     inkscape:cy="57.544504"
     inkscape:document-units="px"
     inkscape:current-layer="layer1"
     showgrid="false"
     fit-margin-top="0"
     fit-margin-left="0"
     fit-margin-right="0"
     fit-margin-bottom="0"
     inkscape:window-width="1366"
     inkscape:window-height="716"
     inkscape:window-x="-8"
     inkscape:window-y="-8"
     inkscape:window-maximized="1" />
  <metadata
     id="metadata3218">
    <rdf:RDF>
      <cc:Work
         rdf:about="">
        <dc:format>image/svg+xml</dc:format>
        <dc:type
           rdf:resource="http://purl.org/dc/dcmitype/StillImage" />
        <dc:title></dc:title>
      </cc:Work>
    </rdf:RDF>
  </metadata>
  <g
     inkscape:label="Layer 1"
     inkscape:groupmode="layer"
     id="layer1"
     transform="translate(683.46875,7.5312507)">
    <flowRoot
       xml:space="preserve"
       id="flowRoot3221"
       style="font-size:22px;font-style:normal;font-variant:normal;font-weight:normal;font-stretch:normal;line-height:125%;letter-spacing:0px;word-spacing:0px;fill:#000000;fill-opacity:1;stroke:none;font-family:Comic Sans MS;-inkscape-font-specification:Comic Sans MS"><flowRegion
         id="flowRegion3223"><rect
           id="rect3225"
           width="42.857143"
           height="45.714287"
           x="-565.71429"
           y="149.50504" /></flowRegion><flowPara
         id="flowPara3227" /></flowRoot>    <path
       sodipodi:type="inkscape:offset"
       inkscape:radius="7.2668757"
       inkscape:original="M -519.5625 26.4375 C -521.01564 26.437538 -522.5547 26.523475 -524.1875 26.75 C -525.82032 26.9766 -527.53126 27.328162 -529.34375 27.78125 C -529.92188 27.390662 -530.56251 27.187537 -531.25 27.1875 C -533.4375 27.187537 -534.53125 28.375036 -534.53125 30.75 C -534.53125 31.296908 -534.46875 32.117219 -534.3125 33.1875 C -534.15625 34.257842 -534.0625 35.078154 -534.0625 35.625 C -534.0625 37.703151 -534.22657 40.835961 -534.53125 45.03125 C -534.83594 49.226577 -534.96875 52.375012 -534.96875 54.46875 C -534.96875 59.51563 -534.14063 62.796876 -532.4375 64.3125 C -530.89063 65.687498 -527.56251 66.374998 -522.46875 66.375 C -517.54689 66.374998 -514.31252 66.203123 -512.75 65.90625 C -510.9219 65.562498 -510.00003 64.53125 -510 62.78125 C -510.00003 61.734377 -510.3594 60.921878 -511.09375 60.34375 C -511.7344 59.828129 -512.50002 59.562504 -513.40625 59.5625 C -513.70315 59.562504 -514.1719 59.625004 -514.78125 59.71875 C -515.39065 59.812504 -515.84377 59.843754 -516.15625 59.84375 C -517.12502 59.843754 -518.57814 59.859379 -520.53125 59.90625 C -522.48439 59.953129 -523.96876 60.000004 -524.9375 60 C -526.73439 60.000004 -527.70313 59.890629 -527.875 59.6875 C -528.23438 59.26563 -528.40626 57.531257 -528.40625 54.46875 C -528.40626 53.250011 -528.35938 51.640637 -528.25 49.65625 C -523.78126 49.29689 -520.43752 49.000015 -518.21875 48.75 C -515.7344 48.531266 -513.87502 48.375016 -512.625 48.28125 C -510.64065 48.031266 -509.65628 46.953142 -509.65625 45.09375 C -509.65628 44.12502 -509.96878 43.367208 -510.625 42.78125 C -511.28128 42.195334 -512.07815 41.906272 -513 41.90625 C -513.7969 41.906272 -515.6719 42.046897 -518.65625 42.34375 C -523.89064 42.859396 -526.96876 43.156271 -527.84375 43.21875 C -527.70313 39.125025 -527.62501 36.015653 -527.625 33.9375 C -526.10939 33.56253 -524.68751 33.281281 -523.34375 33.09375 C -522.00002 32.906281 -520.73439 32.812531 -519.5625 32.8125 C -517.1719 32.812531 -514.71877 33.156281 -512.1875 33.84375 C -511.84378 33.93753 -511.50003 34.00003 -511.1875 34 C -510.21878 34.00003 -509.43753 33.62503 -508.8125 32.90625 C -508.25003 32.281282 -507.96878 31.562532 -507.96875 30.75 C -507.96878 29.312535 -508.68753 28.328161 -510.125 27.78125 C -512.4844 26.875037 -515.62502 26.437538 -519.5625 26.4375 z M -468.03125 31.3125 C -468.93751 31.312533 -469.73438 31.578157 -470.375 32.15625 C -471.01563 32.734406 -471.31251 33.468781 -471.3125 34.34375 C -471.31251 34.890654 -471.28126 35.656278 -471.21875 36.65625 C -471.15626 37.812526 -471.14063 38.656275 -471.125 39.15625 C -473.20313 38.968775 -474.51563 38.875025 -475.09375 38.875 C -476.03125 38.875025 -476.8125 39.1719 -477.40625 39.78125 C -478 40.390649 -478.28125 41.125023 -478.28125 42 C -478.28125 43.81252 -477.30469 44.820332 -475.34375 45.03125 C -473.38282 45.242206 -471.90626 45.390644 -470.9375 45.4375 C -470.65626 51.640637 -470.53126 55.671883 -470.53125 57.5625 C -470.53126 58.125006 -470.54688 58.968755 -470.59375 60.09375 C -470.64063 61.218753 -470.65626 62.062502 -470.65625 62.625 C -470.65626 63.468751 -470.31251 64.1875 -469.625 64.75 C -469.00001 65.281249 -468.26564 65.531249 -467.40625 65.53125 C -465.14064 65.531249 -464.00001 63.75 -464 60.15625 C -464.00001 59.812504 -464.01564 59.367192 -464.03125 58.8125 C -464.04689 58.257818 -464.06251 57.859381 -464.0625 57.65625 C -464.06251 55.718758 -464.18751 51.593762 -464.46875 45.28125 C -463.62502 45.156269 -462.89064 45.093769 -462.25 45.09375 C -461.92189 45.093769 -461.53908 45.101581 -461.09375 45.125 C -460.64846 45.148456 -460.26564 45.187519 -459.9375 45.1875 C -459.00002 45.187519 -458.2344 44.875019 -457.625 44.28125 C -457.01565 43.68752 -456.68752 42.953146 -456.6875 42.0625 C -456.68752 40.593773 -457.31252 39.625024 -458.5625 39.1875 C -459.21877 38.95315 -460.45314 38.843775 -462.25 38.84375 C -462.85939 38.843775 -463.65627 38.9219 -464.625 39.0625 L -464.5625 37.125 C -464.56251 33.234406 -465.71876 31.312533 -468.03125 31.3125 z M -482.53125 38.15625 C -483.56252 38.156276 -484.4219 38.6094 -485.09375 39.5625 C -485.81252 40.578148 -487.00002 41.812522 -488.65625 43.25 C -489.98439 44.37502 -491.31252 45.500019 -492.65625 46.625 L -496.40625 41.8125 C -498.35938 39.578149 -499.89063 38.437526 -501 38.4375 C -501.85938 38.437526 -502.60157 38.773463 -503.21875 39.40625 C -503.83594 40.039087 -504.125 40.750023 -504.125 41.5625 C -504.125 42.406272 -503.71875 43.171896 -502.90625 43.84375 C -501.95313 44.640644 -500.95313 45.750018 -499.875 47.1875 C -498.98438 48.406266 -498.09376 49.625014 -497.21875 50.84375 C -499.23438 52.812511 -500.73438 54.265635 -501.6875 55.21875 C -502.71875 56.093758 -503.75 56.984382 -504.78125 57.875 C -506.0625 59.04688 -506.6875 60.093754 -506.6875 61 C -506.6875 61.812502 -506.36719 62.515627 -505.71875 63.125 C -505.07031 63.734375 -504.3125 64.03125 -503.46875 64.03125 C -502.60938 64.03125 -501.84376 63.6875 -501.15625 62.96875 C -500.71876 62.500002 -500.09376 61.921877 -499.25 61.21875 C -496.59376 58.79688 -494.60939 56.953132 -493.34375 55.6875 C -490.10939 59.671879 -487.81252 62.406252 -486.40625 63.9375 C -485.71877 64.687499 -484.93752 65.062499 -484.0625 65.0625 C -483.21877 65.062499 -482.46877 64.765624 -481.8125 64.15625 C -481.15628 63.546875 -480.81253 62.843751 -480.8125 62.03125 C -480.81253 61.406253 -481.07815 60.765628 -481.59375 60.125 L -488.75 51.375 L -485.15625 48.0625 C -483.75002 46.812517 -482.6094 45.796893 -481.71875 45.03125 C -480.09378 43.453146 -479.28128 42.171897 -479.28125 41.15625 C -479.28128 40.343774 -479.58597 39.625024 -480.25 39.03125 C -480.91409 38.437526 -481.68753 38.156276 -482.53125 38.15625 z M -390.34375 39.03125 C -394.32814 39.031275 -397.29688 39.3594 -399.25 40 C -402.57813 41.093773 -404.25 43.203146 -404.25 46.34375 C -404.25 48.562515 -403.14063 50.453139 -400.9375 52 C -400.03126 52.625011 -397.96876 53.640635 -394.75 55.0625 C -392.54689 56.031258 -391.43752 56.921882 -391.4375 57.71875 C -391.45314 59.000005 -393.04689 59.625004 -396.21875 59.625 C -396.95313 59.625004 -398.01563 59.42188 -399.375 58.96875 C -400.73438 58.515631 -401.78125 58.281256 -402.5 58.28125 C -404.35938 58.281256 -405.28125 59.062505 -405.28125 60.625 C -405.28125 62.328127 -404.09375 63.625 -401.75 64.5 C -400.03126 65.140624 -398.14063 65.437499 -396.0625 65.4375 C -393.12501 65.437499 -390.64064 64.890624 -388.625 63.78125 C -386.12502 62.390627 -384.87502 60.343754 -384.875 57.65625 C -384.87502 55.593758 -386.01565 53.765635 -388.28125 52.125 C -389.37502 51.328138 -391.46877 50.203139 -394.5625 48.78125 C -396.82813 47.750016 -397.96876 46.921892 -397.96875 46.3125 C -397.96876 45.281269 -396.07814 44.781269 -392.3125 44.78125 C -391.65626 44.781269 -391.03127 44.828144 -390.40625 44.9375 C -390.09377 46.234393 -389.14064 46.875017 -387.59375 46.875 C -386.07815 46.875017 -385.34377 45.468769 -385.34375 42.65625 C -385.34377 41.187523 -385.84377 40.203149 -386.875 39.65625 C -387.62502 39.250025 -388.78127 39.031275 -390.34375 39.03125 z M -438.90625 39.34375 C -442.28126 39.343775 -445.35939 40.375024 -448.125 42.4375 C -448.45313 40.656273 -449.48438 39.750024 -451.21875 39.75 C -452.1875 39.750024 -452.91407 40.039086 -453.4375 40.625 C -453.96094 41.21096 -454.25 41.968772 -454.25 42.84375 C -454.25 43.328146 -454.25 44.039083 -454.28125 45 C -454.3125 45.960956 -454.34375 46.671892 -454.34375 47.15625 L -454.34375 62.53125 C -454.34375 63.406251 -454.09375 64.125 -453.59375 64.6875 C -453.0625 65.312499 -452.3125 65.624998 -451.34375 65.625 C -450.40626 65.624998 -449.60938 65.304686 -449 64.71875 C -448.39063 64.132812 -448.09376 63.421876 -448.09375 62.53125 L -448.125 50.71875 C -446.60938 47.671891 -444.07814 45.875018 -440.5625 45.3125 L -440.46875 47.6875 C -440.46877 49.718764 -439.46877 50.718763 -437.5 50.71875 C -435.46877 50.718763 -434.39065 49.54689 -434.25 47.15625 C -434.2344 46.906267 -434.21877 46.359393 -434.21875 45.5625 C -434.21877 41.406273 -435.78127 39.343775 -438.90625 39.34375 z M -417.75 39.5625 C -421.62501 39.562524 -424.93751 40.914086 -427.71875 43.59375 C -430.5 46.273455 -431.90625 49.48439 -431.90625 53.25 C -431.90625 57.265632 -430.94531 60.296879 -429.0625 62.3125 C -427.17969 64.328125 -424.35938 65.343749 -420.59375 65.34375 C -419.82814 65.343749 -418.90626 65.164061 -417.8125 64.8125 C -416.71877 64.460937 -415.46877 63.9375 -414.03125 63.25 C -412.46877 64.812499 -411.31252 65.593748 -410.59375 65.59375 C -409.76565 65.593748 -409.03909 65.328124 -408.40625 64.78125 C -407.77346 64.234375 -407.46878 63.546876 -407.46875 62.71875 C -407.46878 62.531252 -407.76565 61.750002 -408.375 60.40625 C -409.0469 58.92188 -409.39065 58.109381 -409.4375 57.96875 C -409.8594 56.656257 -410.09377 54.515635 -410.09375 51.53125 C -410.09377 50.265639 -410.02346 49.164077 -409.9375 48.21875 C -409.85159 47.273454 -409.75002 46.468768 -409.59375 45.84375 C -409.2344 45.421894 -409.06252 44.937519 -409.0625 44.375 C -409.06252 43.031271 -410.2344 41.859397 -412.59375 40.84375 C -414.54689 40.000024 -416.26564 39.562524 -417.75 39.5625 z M -417.4375 45.1875 C -417.26564 45.187519 -417.0547 45.210956 -416.8125 45.28125 C -416.57033 45.351581 -416.31252 45.468769 -416 45.625 C -416.14064 46.421893 -416.2422 47.132829 -416.3125 47.78125 C -416.38283 48.429703 -416.40627 49.000015 -416.40625 49.5 C -416.40627 51.343763 -416.18752 54.12501 -415.71875 57.84375 C -416.48439 58.468756 -417.28908 58.960943 -418.15625 59.28125 C -419.02345 59.601567 -419.93751 59.750004 -420.90625 59.75 C -422.40626 59.750004 -423.53126 59.210942 -424.28125 58.15625 C -425.03126 57.101569 -425.40626 55.531258 -425.40625 53.4375 C -425.40626 51.250013 -424.62501 49.320327 -423.03125 47.65625 C -421.43751 45.992206 -419.56251 45.187519 -417.4375 45.1875 z "
       xlink:href="#text3241"
       style="font-size:48px;font-style:normal;font-variant:normal;font-weight:bold;font-stretch:normal;line-height:125%;letter-spacing:0px;word-spacing:0px;fill:#ffffff;fill-opacity:1;stroke:none;font-family:Comic Sans MS;-inkscape-font-specification:Comic Sans MS Bold"
       id="path3247"
       inkscape:href="#text3241"
       d="m -516.6875,21.25 c -7.76717,4.9e-5 -15.07349,3.921665 -19.875,10.25 -4.18292,5.498696 -6.5,12.100399 -6.5,18.9375 0,6.393116 2.97223,12.642503 7.90625,16.6875 4.56863,3.733991 10.40643,5.624999 16.40625,5.625 5.58107,-10e-7 10.88332,-2.135613 15.15625,-5.6875 -0.0193,3.79636 -0.0312,6.844129 -0.0312,7.46875 0,2.49325 1.16985,5.563708 3.125,7.46875 1.9669,1.916443 4.98419,2.937464 7.375,2.9375 2.39082,-3.6e-5 5.40811,-1.021104 7.375,-2.9375 1.86618,-1.818378 3.15622,-4.808487 3.15625,-7.46875 l 0,-2.15625 c 4.16953,-0.686305 8.14375,-2.684504 10.875,-5.84375 0.10872,-0.125247 0.17627,-0.278121 0.28125,-0.40625 0.64049,1.618878 1.64034,3.101448 2.84375,4.125 l -0.0312,0.03125 c 0.028,0.02376 0.0654,0.03905 0.0937,0.0625 0.007,0.0057 0.0244,-0.0057 0.0312,0 0.006,0.0049 -0.006,0.02633 0,0.03125 1.9023,1.560091 4.58964,2.437497 6.8125,2.4375 3.03724,-10e-7 6.94261,-1.972506 8.6875,-4.71875 0.21607,-0.340068 0.23388,-0.663659 0.40625,-1 0.4244,0.69675 0.76807,1.47772 1.34375,2.03125 1.94073,1.866101 4.91252,2.906247 7.34375,2.90625 2.43125,-3e-6 5.40301,-1.040168 7.34375,-2.90625 0.13098,-0.125941 0.18803,-0.332877 0.3125,-0.46875 3.16318,2.515513 7.18344,4.062499 11.25,4.0625 3.78766,-10e-7 7.53726,-1.363718 10.625,-3.5625 0.11582,0.125918 0.15917,0.32012 0.28125,0.4375 2.03023,1.952161 4.94376,2.906247 7.375,2.90625 2.43125,-3e-6 5.4067,-1.065706 7.3125,-2.875 0.15639,-0.148477 0.22757,-0.399176 0.375,-0.5625 0.35235,0.456181 0.54844,0.975989 1,1.375 2.1481,1.898135 4.90027,2.562498 7.0625,2.5625 1.97924,-4e-6 4.09566,-0.810281 5.875,-1.96875 0.19825,0.08117 0.3956,0.207275 0.59375,0.28125 2.66447,0.993126 5.44854,1.406249 8.21875,1.40625 3.83941,-10e-7 7.59589,-0.723334 10.9375,-2.5625 a 7.2676024,7.2676024 0 0 0 0.0312,-0.03125 c 4.24796,-2.362943 7.49996,-7.527982 7.5,-12.46875 -3e-5,-2.768868 -1.09401,-5.304016 -2.625,-7.46875 0.2565,-0.324455 0.5737,-0.63646 0.75,-0.96875 1.32046,-2.488825 1.40624,-4.523762 1.40625,-6.5625 -4e-5,-3.09935 -2.01861,-7.570919 -5.34375,-9.375 -0.0231,-0.0125 -0.0395,-0.01895 -0.0625,-0.03125 -2.50945,-1.340545 -4.6547,-1.499964 -6.875,-1.5 -4.38333,2.8e-5 -7.82934,0.252562 -11.15625,1.34375 a 7.2676024,7.2676024 0 0 0 -0.0312,0 c -1.64503,0.540631 -3.18849,1.454458 -4.65625,2.5625 -2.65595,-2.379035 -6.18168,-3.999972 -9.53125,-4 -1.78458,1.8e-5 -3.50325,0.440106 -5.15625,1.03125 -1.75123,-0.990116 -3.72398,-1.531229 -5.375,-1.53125 -2.52293,7.1e-5 -5.31051,1.0303 -7.21875,2.75 -0.35958,0.324079 -0.5622,0.848291 -0.875,1.25 -2.64846,-1.6404 -5.70777,-2.687477 -8.75,-2.6875 -3.15128,1.8e-5 -6.28463,0.824417 -9.09375,2.25 0.19101,-0.786099 0.53124,-1.574992 0.53125,-2.3125 -3e-5,-2.648721 -1.3143,-5.877883 -3.40625,-7.8125 -1.97682,-1.827917 -4.94176,-2.937409 -7.53125,-2.9375 -2.58947,9.1e-5 -5.50738,1.054711 -7.53125,2.90625 -1.40615,1.286533 -2.28948,3.203177 -2.84375,5.15625 -0.12191,-0.235157 -0.13918,-0.449919 -0.28125,-0.6875 -1.6766,-2.803773 -5.67439,-4.999955 -8.84375,-5 -2.32605,8.5e-5 -5.17489,0.874377 -7.21875,2.71875 -1.5351,1.385396 -2.41076,3.456005 -2.875,5.46875 -1.51806,0.455576 -2.96973,1.173796 -4.15625,2.28125 -2.33727,-1.213013 -4.89215,-1.999983 -7.4375,-2 -1.24912,2.8e-5 -2.44597,0.292844 -3.65625,0.53125 -1.73745,-1.155041 -3.75708,-2.031191 -5.75,-2.03125 -0.86314,2e-5 -1.77361,0.165704 -2.65625,0.4375 -0.92423,-1.645623 -2.01726,-3.193998 -3.4375,-4.5 -4.51597,-4.152513 -10.62391,-5.687457 -17.1875,-5.6875 z m 0,20.90625 c 1.14793,9e-6 1.8065,0.133499 2.3125,0.25 0.05,0.290552 0.0937,0.44844 0.0937,1.15625 -2e-5,2.628761 -0.58389,4.522173 -1.875,6.40625 -1.35253,1.987379 -1.53454,1.875002 -2.59375,1.875 -1.67151,3e-6 -2.25555,-0.294794 -2.78125,-0.71875 -0.53431,-0.430756 -0.3125,0.0093 -0.3125,-0.6875 -10e-6,-2.366701 0.56625,-4.159023 2.0625,-6.1875 1.53147,-2.080479 1.95557,-2.093741 3.09375,-2.09375 z m 23.59375,1.03125 3.375,0 c 0,0.06691 -0.0204,0.136928 -0.0312,0.34375 -0.005,0.103411 -0.003,0.261616 -0.0312,0.5 -0.0284,0.238384 -0.31277,1.407075 -0.3125,1.40625 7e-5,-2.06e-4 -0.34382,0.87515 -0.34375,0.875 7e-5,-1.5e-4 -0.90633,1.406345 -0.90625,1.40625 7e-5,-9e-5 -2.15349,1.699136 -2.375,1.875 0.37662,-1.981893 0.65623,-3.983616 0.65625,-6.03125 0,-0.126304 -0.0297,-0.248832 -0.0312,-0.375 z M -425,51.96875 c 0.54975,-2e-6 1.60853,0.458 2,0.8125 0.0549,0.05164 0.0157,0.03706 0.0625,0.09375 -0.32791,0.176743 -0.54135,0.333213 -0.6875,0.34375 -0.41451,-0.0023 -1.28861,-0.455509 -2.0625,-0.96875 0.28526,-0.110211 0.56218,-0.28125 0.6875,-0.28125 z" />
    <path
       sodipodi:type="inkscape:offset"
       inkscape:radius="3.7029774"
       inkscape:original="M -519.5625 26.4375 C -521.01564 26.437538 -522.5547 26.523475 -524.1875 26.75 C -525.82032 26.9766 -527.53126 27.328162 -529.34375 27.78125 C -529.92188 27.390662 -530.56251 27.187537 -531.25 27.1875 C -533.4375 27.187537 -534.53125 28.375036 -534.53125 30.75 C -534.53125 31.296908 -534.46875 32.117219 -534.3125 33.1875 C -534.15625 34.257842 -534.0625 35.078154 -534.0625 35.625 C -534.0625 37.703151 -534.22657 40.835961 -534.53125 45.03125 C -534.83594 49.226577 -534.96875 52.375012 -534.96875 54.46875 C -534.96875 59.51563 -534.14063 62.796876 -532.4375 64.3125 C -530.89063 65.687498 -527.56251 66.374998 -522.46875 66.375 C -517.54689 66.374998 -514.31252 66.203123 -512.75 65.90625 C -510.9219 65.562498 -510.00003 64.53125 -510 62.78125 C -510.00003 61.734377 -510.3594 60.921878 -511.09375 60.34375 C -511.7344 59.828129 -512.50002 59.562504 -513.40625 59.5625 C -513.70315 59.562504 -514.1719 59.625004 -514.78125 59.71875 C -515.39065 59.812504 -515.84377 59.843754 -516.15625 59.84375 C -517.12502 59.843754 -518.57814 59.859379 -520.53125 59.90625 C -522.48439 59.953129 -523.96876 60.000004 -524.9375 60 C -526.73439 60.000004 -527.70313 59.890629 -527.875 59.6875 C -528.23438 59.26563 -528.40626 57.531257 -528.40625 54.46875 C -528.40626 53.250011 -528.35938 51.640637 -528.25 49.65625 C -523.78126 49.29689 -520.43752 49.000015 -518.21875 48.75 C -515.7344 48.531266 -513.87502 48.375016 -512.625 48.28125 C -510.64065 48.031266 -509.65628 46.953142 -509.65625 45.09375 C -509.65628 44.12502 -509.96878 43.367208 -510.625 42.78125 C -511.28128 42.195334 -512.07815 41.906272 -513 41.90625 C -513.7969 41.906272 -515.6719 42.046897 -518.65625 42.34375 C -523.89064 42.859396 -526.96876 43.156271 -527.84375 43.21875 C -527.70313 39.125025 -527.62501 36.015653 -527.625 33.9375 C -526.10939 33.56253 -524.68751 33.281281 -523.34375 33.09375 C -522.00002 32.906281 -520.73439 32.812531 -519.5625 32.8125 C -517.1719 32.812531 -514.71877 33.156281 -512.1875 33.84375 C -511.84378 33.93753 -511.50003 34.00003 -511.1875 34 C -510.21878 34.00003 -509.43753 33.62503 -508.8125 32.90625 C -508.25003 32.281282 -507.96878 31.562532 -507.96875 30.75 C -507.96878 29.312535 -508.68753 28.328161 -510.125 27.78125 C -512.4844 26.875037 -515.62502 26.437538 -519.5625 26.4375 z M -468.03125 31.3125 C -468.93751 31.312533 -469.73438 31.578157 -470.375 32.15625 C -471.01563 32.734406 -471.31251 33.468781 -471.3125 34.34375 C -471.31251 34.890654 -471.28126 35.656278 -471.21875 36.65625 C -471.15626 37.812526 -471.14063 38.656275 -471.125 39.15625 C -473.20313 38.968775 -474.51563 38.875025 -475.09375 38.875 C -476.03125 38.875025 -476.8125 39.1719 -477.40625 39.78125 C -478 40.390649 -478.28125 41.125023 -478.28125 42 C -478.28125 43.81252 -477.30469 44.820332 -475.34375 45.03125 C -473.38282 45.242206 -471.90626 45.390644 -470.9375 45.4375 C -470.65626 51.640637 -470.53126 55.671883 -470.53125 57.5625 C -470.53126 58.125006 -470.54688 58.968755 -470.59375 60.09375 C -470.64063 61.218753 -470.65626 62.062502 -470.65625 62.625 C -470.65626 63.468751 -470.31251 64.1875 -469.625 64.75 C -469.00001 65.281249 -468.26564 65.531249 -467.40625 65.53125 C -465.14064 65.531249 -464.00001 63.75 -464 60.15625 C -464.00001 59.812504 -464.01564 59.367192 -464.03125 58.8125 C -464.04689 58.257818 -464.06251 57.859381 -464.0625 57.65625 C -464.06251 55.718758 -464.18751 51.593762 -464.46875 45.28125 C -463.62502 45.156269 -462.89064 45.093769 -462.25 45.09375 C -461.92189 45.093769 -461.53908 45.101581 -461.09375 45.125 C -460.64846 45.148456 -460.26564 45.187519 -459.9375 45.1875 C -459.00002 45.187519 -458.2344 44.875019 -457.625 44.28125 C -457.01565 43.68752 -456.68752 42.953146 -456.6875 42.0625 C -456.68752 40.593773 -457.31252 39.625024 -458.5625 39.1875 C -459.21877 38.95315 -460.45314 38.843775 -462.25 38.84375 C -462.85939 38.843775 -463.65627 38.9219 -464.625 39.0625 L -464.5625 37.125 C -464.56251 33.234406 -465.71876 31.312533 -468.03125 31.3125 z M -482.53125 38.15625 C -483.56252 38.156276 -484.4219 38.6094 -485.09375 39.5625 C -485.81252 40.578148 -487.00002 41.812522 -488.65625 43.25 C -489.98439 44.37502 -491.31252 45.500019 -492.65625 46.625 L -496.40625 41.8125 C -498.35938 39.578149 -499.89063 38.437526 -501 38.4375 C -501.85938 38.437526 -502.60157 38.773463 -503.21875 39.40625 C -503.83594 40.039087 -504.125 40.750023 -504.125 41.5625 C -504.125 42.406272 -503.71875 43.171896 -502.90625 43.84375 C -501.95313 44.640644 -500.95313 45.750018 -499.875 47.1875 C -498.98438 48.406266 -498.09376 49.625014 -497.21875 50.84375 C -499.23438 52.812511 -500.73438 54.265635 -501.6875 55.21875 C -502.71875 56.093758 -503.75 56.984382 -504.78125 57.875 C -506.0625 59.04688 -506.6875 60.093754 -506.6875 61 C -506.6875 61.812502 -506.36719 62.515627 -505.71875 63.125 C -505.07031 63.734375 -504.3125 64.03125 -503.46875 64.03125 C -502.60938 64.03125 -501.84376 63.6875 -501.15625 62.96875 C -500.71876 62.500002 -500.09376 61.921877 -499.25 61.21875 C -496.59376 58.79688 -494.60939 56.953132 -493.34375 55.6875 C -490.10939 59.671879 -487.81252 62.406252 -486.40625 63.9375 C -485.71877 64.687499 -484.93752 65.062499 -484.0625 65.0625 C -483.21877 65.062499 -482.46877 64.765624 -481.8125 64.15625 C -481.15628 63.546875 -480.81253 62.843751 -480.8125 62.03125 C -480.81253 61.406253 -481.07815 60.765628 -481.59375 60.125 L -488.75 51.375 L -485.15625 48.0625 C -483.75002 46.812517 -482.6094 45.796893 -481.71875 45.03125 C -480.09378 43.453146 -479.28128 42.171897 -479.28125 41.15625 C -479.28128 40.343774 -479.58597 39.625024 -480.25 39.03125 C -480.91409 38.437526 -481.68753 38.156276 -482.53125 38.15625 z M -390.34375 39.03125 C -394.32814 39.031275 -397.29688 39.3594 -399.25 40 C -402.57813 41.093773 -404.25 43.203146 -404.25 46.34375 C -404.25 48.562515 -403.14063 50.453139 -400.9375 52 C -400.03126 52.625011 -397.96876 53.640635 -394.75 55.0625 C -392.54689 56.031258 -391.43752 56.921882 -391.4375 57.71875 C -391.45314 59.000005 -393.04689 59.625004 -396.21875 59.625 C -396.95313 59.625004 -398.01563 59.42188 -399.375 58.96875 C -400.73438 58.515631 -401.78125 58.281256 -402.5 58.28125 C -404.35938 58.281256 -405.28125 59.062505 -405.28125 60.625 C -405.28125 62.328127 -404.09375 63.625 -401.75 64.5 C -400.03126 65.140624 -398.14063 65.437499 -396.0625 65.4375 C -393.12501 65.437499 -390.64064 64.890624 -388.625 63.78125 C -386.12502 62.390627 -384.87502 60.343754 -384.875 57.65625 C -384.87502 55.593758 -386.01565 53.765635 -388.28125 52.125 C -389.37502 51.328138 -391.46877 50.203139 -394.5625 48.78125 C -396.82813 47.750016 -397.96876 46.921892 -397.96875 46.3125 C -397.96876 45.281269 -396.07814 44.781269 -392.3125 44.78125 C -391.65626 44.781269 -391.03127 44.828144 -390.40625 44.9375 C -390.09377 46.234393 -389.14064 46.875017 -387.59375 46.875 C -386.07815 46.875017 -385.34377 45.468769 -385.34375 42.65625 C -385.34377 41.187523 -385.84377 40.203149 -386.875 39.65625 C -387.62502 39.250025 -388.78127 39.031275 -390.34375 39.03125 z M -438.90625 39.34375 C -442.28126 39.343775 -445.35939 40.375024 -448.125 42.4375 C -448.45313 40.656273 -449.48438 39.750024 -451.21875 39.75 C -452.1875 39.750024 -452.91407 40.039086 -453.4375 40.625 C -453.96094 41.21096 -454.25 41.968772 -454.25 42.84375 C -454.25 43.328146 -454.25 44.039083 -454.28125 45 C -454.3125 45.960956 -454.34375 46.671892 -454.34375 47.15625 L -454.34375 62.53125 C -454.34375 63.406251 -454.09375 64.125 -453.59375 64.6875 C -453.0625 65.312499 -452.3125 65.624998 -451.34375 65.625 C -450.40626 65.624998 -449.60938 65.304686 -449 64.71875 C -448.39063 64.132812 -448.09376 63.421876 -448.09375 62.53125 L -448.125 50.71875 C -446.60938 47.671891 -444.07814 45.875018 -440.5625 45.3125 L -440.46875 47.6875 C -440.46877 49.718764 -439.46877 50.718763 -437.5 50.71875 C -435.46877 50.718763 -434.39065 49.54689 -434.25 47.15625 C -434.2344 46.906267 -434.21877 46.359393 -434.21875 45.5625 C -434.21877 41.406273 -435.78127 39.343775 -438.90625 39.34375 z M -417.75 39.5625 C -421.62501 39.562524 -424.93751 40.914086 -427.71875 43.59375 C -430.5 46.273455 -431.90625 49.48439 -431.90625 53.25 C -431.90625 57.265632 -430.94531 60.296879 -429.0625 62.3125 C -427.17969 64.328125 -424.35938 65.343749 -420.59375 65.34375 C -419.82814 65.343749 -418.90626 65.164061 -417.8125 64.8125 C -416.71877 64.460937 -415.46877 63.9375 -414.03125 63.25 C -412.46877 64.812499 -411.31252 65.593748 -410.59375 65.59375 C -409.76565 65.593748 -409.03909 65.328124 -408.40625 64.78125 C -407.77346 64.234375 -407.46878 63.546876 -407.46875 62.71875 C -407.46878 62.531252 -407.76565 61.750002 -408.375 60.40625 C -409.0469 58.92188 -409.39065 58.109381 -409.4375 57.96875 C -409.8594 56.656257 -410.09377 54.515635 -410.09375 51.53125 C -410.09377 50.265639 -410.02346 49.164077 -409.9375 48.21875 C -409.85159 47.273454 -409.75002 46.468768 -409.59375 45.84375 C -409.2344 45.421894 -409.06252 44.937519 -409.0625 44.375 C -409.06252 43.031271 -410.2344 41.859397 -412.59375 40.84375 C -414.54689 40.000024 -416.26564 39.562524 -417.75 39.5625 z M -417.4375 45.1875 C -417.26564 45.187519 -417.0547 45.210956 -416.8125 45.28125 C -416.57033 45.351581 -416.31252 45.468769 -416 45.625 C -416.14064 46.421893 -416.2422 47.132829 -416.3125 47.78125 C -416.38283 48.429703 -416.40627 49.000015 -416.40625 49.5 C -416.40627 51.343763 -416.18752 54.12501 -415.71875 57.84375 C -416.48439 58.468756 -417.28908 58.960943 -418.15625 59.28125 C -419.02345 59.601567 -419.93751 59.750004 -420.90625 59.75 C -422.40626 59.750004 -423.53126 59.210942 -424.28125 58.15625 C -425.03126 57.101569 -425.40626 55.531258 -425.40625 53.4375 C -425.40626 51.250013 -424.62501 49.320327 -423.03125 47.65625 C -421.43751 45.992206 -419.56251 45.187519 -417.4375 45.1875 z "
       xlink:href="#text3241"
       style="font-size:48px;font-style:normal;font-variant:normal;font-weight:bold;font-stretch:normal;line-height:125%;letter-spacing:0px;word-spacing:0px;fill:#000000;fill-opacity:1;stroke:none;font-family:Comic Sans MS;-inkscape-font-specification:Comic Sans MS Bold"
       id="path3249"
       inkscape:href="#text3241"
       d="m -516.6875,24.84375 c -6.73958,4.3e-5 -12.7531,3.173952 -17.03125,8.8125 -3.7637,4.947613 -5.75,10.691869 -5.75,16.78125 0,5.472341 2.3471,10.481634 6.5625,13.9375 3.92193,3.205434 8.83068,4.781249 14.15625,4.78125 6.76582,-10e-7 12.77229,-3.253161 16.84375,-9 0.72687,-1.023562 1.32711,-2.101009 1.90625,-3.1875 0.027,2.308513 0.0298,5.170792 0,8.78125 -0.0313,5.10243 -0.0312,8.046865 -0.0312,8.78125 0,1.714931 0.70486,3.6443 2,4.90625 1.30113,1.267747 3.22819,1.906225 4.90625,1.90625 1.67806,-2.5e-5 3.60513,-0.638526 4.90625,-1.90625 1.2498,-1.217789 2.03123,-3.106214 2.03125,-4.90625 l 0,-5.46875 c 0.18466,0.0048 0.37894,0.0625 0.5625,0.0625 4.36698,-10e-7 8.4343,-1.742312 11.1875,-4.90625 0.01,-0.01101 0.0217,-0.02021 0.0312,-0.03125 2.53727,-2.940589 3.81248,-6.789668 3.8125,-10.90625 -10e-6,-1.702001 -0.18432,-3.282896 -0.4375,-4.8125 0.33887,0.07555 0.66778,0.214267 1,0.25 0.53287,0.05732 0.78505,0.04565 1.25,0.09375 0.14461,3.669911 0.28124,7.487206 0.28125,8.75 -10e-6,0.494021 -0.0174,1.292755 -0.0625,2.375 -0.0487,1.167747 -0.0625,2.05634 -0.0625,2.6875 -2e-5,1.820908 0.93217,3.772137 2.3125,4.9375 0.005,0.004 0.0265,-0.0039 0.0312,0 0.0107,0.009 0.0204,0.02228 0.0312,0.03125 1.27421,1.058294 3.00659,1.624998 4.5625,1.625 2.10325,-10e-7 4.51962,-1.193143 5.6875,-3.03125 1.16788,-1.838107 1.40624,-3.842611 1.40625,-6.03125 -10e-6,-0.455902 -0.016,-0.89658 -0.0312,-1.4375 -0.0162,-0.574177 -0.0312,-1.049437 -0.0312,-1.0625 -10e-6,-1.474487 -0.14562,-5.27367 -0.28125,-8.8125 0.22744,0.01597 0.386,0.03127 0.71875,0.03125 1.20569,2.4e-5 2.3897,-0.421357 3.46875,-1.03125 -0.14418,1.984996 -0.25,3.749499 -0.25,5.21875 0,0.998901 0.039,2.40571 0.0937,4.375 0.0547,1.968228 0.0937,3.405173 0.0937,4.1875 0,1.714933 0.70514,3.631155 2.03125,4.90625 1.28779,1.238269 3.17633,1.906248 4.875,1.90625 1.69866,-2e-6 3.5872,-0.66799 4.875,-1.90625 1.07138,-1.030184 1.66501,-2.517774 1.875,-4.03125 0.61432,0.948605 1.29727,1.836957 2.125,2.625 2.6945,2.572949 6.27326,3.999999 10.03125,4 4.60688,-10e-7 8.82871,-2.09264 11.59375,-5.6875 0.26885,1.323229 0.80369,2.62255 1.78125,3.5625 1.3334,1.282123 3.20759,1.906248 4.90625,1.90625 1.69866,-2e-6 3.60117,-0.665677 4.875,-1.875 1.28557,-1.220493 2.06248,-3.127807 2.0625,-4.90625 -2e-5,-0.746007 -0.0473,-1.490269 -0.15625,-2.4375 -0.0953,-0.828207 -0.15625,-1.402421 -0.15625,-1.53125 -10e-6,-0.442186 0.0445,-0.959129 0.125,-1.5625 a 3.7033477,3.7033477 0 0 0 0.0312,-0.03125 c 0.0938,-0.737033 0.12154,-1.251362 0.15625,-1.75 0.27796,-0.868121 0.59672,-1.644149 0.9375,-2.34375 -0.003,0.191811 -0.0313,0.550622 -0.0312,0.6875 -2e-5,1.693826 0.11882,3.496484 0.375,5.375 0.21638,1.607515 0.44024,3.192197 0.65625,4.78125 l -0.0312,0 c 0.003,0.02177 0.0285,0.04067 0.0312,0.0625 0.19164,1.546957 0.84837,3.222952 2.1875,4.40625 1.35802,1.199994 3.11442,1.624998 4.6875,1.625 1.71685,-4e-6 3.54476,-0.671133 4.8125,-1.84375 0.22775,-0.210678 0.33565,-0.533106 0.53125,-0.78125 0.73431,0.472871 1.54055,0.875974 2.375,1.1875 2.20066,0.820248 4.53796,1.156249 6.96875,1.15625 3.39708,-10e-7 6.52744,-0.612496 9.21875,-2.09375 a 3.7033477,3.7033477 0 0 0 0.0312,0 c 3.3907,-1.886088 5.62497,-5.539302 5.625,-9.375 -3e-5,-3.067548 -1.70206,-5.78963 -4.09375,-7.8125 1.12458,-0.560962 2.14418,-1.316099 2.65625,-2.28125 0.85582,-1.613063 0.96874,-3.177699 0.96875,-4.90625 -3e-5,-2.30911 -1.25038,-5.104766 -3.46875,-6.28125 l 0,0.03125 c -1.6619,-0.900115 -3.31068,-1.062469 -5.21875,-1.0625 -4.18768,2.6e-5 -7.40934,0.254794 -10.0625,1.125 -2.16011,0.709908 -4.11488,1.901332 -5.5,3.65625 -0.1987,0.251751 -0.26834,0.573104 -0.4375,0.84375 -1.66406,-3.464488 -5.43946,-5.718717 -9.375,-5.71875 -1.98651,2e-5 -3.89934,0.545435 -5.6875,1.46875 -1.30938,-1.300668 -3.17886,-1.968729 -4.84375,-1.96875 -1.73772,4.9e-5 -3.52977,0.656507 -4.8125,1.8125 -1.17433,1.058396 -1.86313,2.713104 -2.03125,4.28125 -2.45573,-2.998222 -6.10518,-4.78122 -10,-4.78125 -5.16353,2.9e-5 -9.87237,2.220162 -12.875,6.25 a 3.7033477,3.7033477 0 0 0 0,0.03125 c -0.20041,0.270865 -0.34711,0.56408 -0.53125,0.84375 0.002,-0.169671 0.0312,-0.431566 0.0312,-0.59375 -2e-5,-1.574254 -0.65642,-3.267616 -1.78125,-4.53125 0.24181,-0.171993 0.53405,-0.269046 0.75,-0.46875 1.42244,-1.315341 2.24998,-3.362697 2.25,-5.1875 -2e-5,-1.824795 -0.82769,-3.872154 -2.25,-5.1875 -1.36366,-1.260941 -3.2838,-1.968687 -5.09375,-1.96875 -1.80995,6.3e-5 -3.73354,0.695772 -5.125,1.96875 -1.40848,1.288662 -2.28125,3.302974 -2.28125,5.1875 0,1.819919 0.83079,3.738837 2.15625,5.03125 -0.12281,0.100564 -0.29235,0.140482 -0.40625,0.25 -0.0967,0.09298 -0.12774,0.243601 -0.21875,0.34375 -0.75696,-1.051963 -1.75528,-1.933657 -2.90625,-2.34375 -0.0107,-0.0038 -0.0206,0.0038 -0.0312,0 -1.27935,-0.452031 -2.40686,-0.518151 -3.6875,-0.53125 -0.14645,-1.515653 -0.42232,-2.980633 -1.21875,-4.3125 -1.13787,-1.902864 -3.59919,-3.218719 -5.78125,-3.21875 -1.62974,5.9e-5 -3.45683,0.557899 -4.8125,1.78125 -1.37604,1.241849 -2.15627,3.224885 -2.15625,4.9375 0,0.229342 0.0235,0.582559 0.0312,0.84375 -0.0287,-1.77e-4 -0.0968,10e-7 -0.125,0 -1.71918,4.6e-5 -3.66148,0.658387 -4.96875,2 -0.55984,0.574591 -0.95703,1.306921 -1.28125,2.0625 -2.28306,-1.989107 -5.23028,-3.156229 -8.375,-3.15625 -1.40734,3.2e-5 -2.79735,0.190086 -4.15625,0.5625 -0.0959,0.02629 -0.18537,0.09687 -0.28125,0.125 -0.0556,-0.0606 -0.0673,-0.160998 -0.125,-0.21875 -1.23686,-1.236786 -3.08715,-1.968698 -4.84375,-1.96875 -1.57658,3.6e-5 -3.06081,0.796178 -4.3125,1.84375 -0.84703,-2.673993 -2.18865,-5.036929 -4.1875,-6.875 -3.63457,-3.342054 -8.76228,-4.71871 -14.78125,-4.71875 z m 0,13.71875 c 3.14691,2.6e-5 4.83438,0.771051 5.0625,0.96875 0.28374,0.259165 0.93748,1.321725 0.9375,4.03125 -2e-5,3.262952 -0.83885,5.936581 -2.53125,8.40625 -1.81568,2.667914 -3.30566,3.468753 -5.53125,3.46875 -2.30006,4e-6 -3.81316,-0.548914 -5.03125,-1.53125 -1.26079,-1.016445 -1.65626,-1.841638 -1.65625,-3.46875 -10e-6,-3.091083 0.87702,-5.730918 2.78125,-8.3125 1.99879,-2.715338 3.67992,-3.562481 5.96875,-3.5625 z m 20,4.625 3.375,0 c 0,0.02979 0.005,0.08467 0,0.1875 -0.003,0.05141 0.0144,0.09812 0,0.21875 -0.0144,0.120631 -0.15652,0.719575 -0.15625,0.71875 7e-5,-2.06e-4 -0.18757,0.43765 -0.1875,0.4375 7e-5,-1.5e-4 -0.46883,0.718845 -0.46875,0.71875 8e-5,-9.5e-5 -1.25008,1.031289 -1.25,1.03125 5e-5,-2.5e-5 -0.81185,0.09983 -1.5,0.1875 0.11089,-1.035786 0.21874,-2.064459 0.21875,-3.125 0,-0.129155 -0.0296,-0.24657 -0.0312,-0.375 z m 72.90625,6.46875 c 0.15851,0.348153 0.5224,1.58446 0.4375,3.6875 -0.0467,1.102015 -0.24647,1.447024 -0.625,1.8125 -0.0107,0.01032 -0.0203,0.02087 -0.0312,0.03125 -0.35144,0.319792 -0.48316,0.375002 -1,0.375 -0.26784,10e-7 -0.21642,0.0213 -0.4375,-0.1875 -0.22138,-0.208354 -0.43751,-0.44945 -0.4375,-1.625 -10e-6,-1.401203 0.29779,-2.35432 0.84375,-3.21875 0.52678,-0.838395 0.67155,-0.876619 1.25,-0.875 z M -484.625,49.875 c 0.0379,0.214911 0.18748,1.477176 0.1875,3.40625 -10e-6,1.221038 -0.25904,1.743179 -0.40625,1.9375 A 3.7033477,3.7033477 0 0 0 -484.875,55.25 c -0.16323,0.216652 0.0205,0.218752 -0.75,0.21875 -0.19313,10e-7 -0.37334,-0.08341 -0.5625,-0.09375 -0.0286,-1.563534 -0.0535,-3.127656 -0.125,-4.6875 0.27379,-0.176481 0.62136,-0.492817 0.84375,-0.59375 0.34413,-0.156178 0.57458,-0.166688 0.84375,-0.21875 z M -385,53.53125 c 0.41973,0.42838 0.86327,0.821339 1.34375,1.1875 -0.39799,0.0381 -0.78384,0.04969 -1.1875,0.15625 -0.037,-0.4198 -0.1502,-1.029354 -0.15625,-1.34375 z" />
    <text
       xml:space="preserve"
       style="font-size:48px;font-style:normal;font-variant:normal;font-weight:bold;font-stretch:normal;line-height:125%;letter-spacing:0px;word-spacing:0px;fill:#ffff00;fill-opacity:1;stroke:none;font-family:Comic Sans MS;-inkscape-font-specification:Comic Sans MS Bold"
       x="-537.18304"
       y="64.040184"
       id="text3241"
       sodipodi:linespacing="125%"><tspan
         sodipodi:role="line"
         id="tspan3243"
         x="-537.18304"
         y="64.040184">Extras</tspan></text>
  </g>
</svg>
