<?xml version="1.0" encoding="UTF-8" standalone="no"?>
<!-- Created with Inkscape (http://www.inkscape.org/) -->

<svg
   xmlns:dc="http://purl.org/dc/elements/1.1/"
   xmlns:cc="http://creativecommons.org/ns#"
   xmlns:rdf="http://www.w3.org/1999/02/22-rdf-syntax-ns#"
   xmlns:svg="http://www.w3.org/2000/svg"
   xmlns="http://www.w3.org/2000/svg"
   xmlns:xlink="http://www.w3.org/1999/xlink"
   xmlns:sodipodi="http://sodipodi.sourceforge.net/DTD/sodipodi-0.dtd"
   xmlns:inkscape="http://www.inkscape.org/namespaces/inkscape"
   width="512"
   height="128"
   id="svg3213"
   version="1.1"
   inkscape:version="0.48.4 r9939"
   sodipodi:docname="on.svg">
  <defs
     id="defs3215" />
  <sodipodi:namedview
     id="base"
     pagecolor="#ffffff"
     bordercolor="#666666"
     borderopacity="1.0"
     inkscape:pageopacity="0.0"
     inkscape:pageshadow="2"
     inkscape:zoom="1.4"
     inkscape:cx="181.64714"
     inkscape:cy="57.544504"
     inkscape:document-units="px"
     inkscape:current-layer="layer1"
     showgrid="false"
     fit-margin-top="0"
     fit-margin-left="0"
     fit-margin-right="0"
     fit-margin-bottom="0"
     inkscape:window-width="1366"
     inkscape:window-height="716"
     inkscape:window-x="-8"
     inkscape:window-y="-8"
     inkscape:window-maximized="1" />
  <metadata
     id="metadata3218">
    <rdf:RDF>
      <cc:Work
         rdf:about="">
        <dc:format>image/svg+xml</dc:format>
        <dc:type
           rdf:resource="http://purl.org/dc/dcmitype/StillImage" />
        <dc:title />
      </cc:Work>
    </rdf:RDF>
  </metadata>
  <g
     inkscape:label="Layer 1"
     inkscape:groupmode="layer"
     id="layer1"
     transform="translate(683.46875,7.5312507)">
    <flowRoot
       xml:space="preserve"
       id="flowRoot3221"
       style="font-size:22px;font-style:normal;font-variant:normal;font-weight:normal;font-stretch:normal;line-height:125%;letter-spacing:0px;word-spacing:0px;fill:#000000;fill-opacity:1;stroke:none;font-family:Comic Sans MS;-inkscape-font-specification:Comic Sans MS"><flowRegion
         id="flowRegion3223"><rect
           id="rect3225"
           width="42.857143"
           height="45.714287"
           x="-565.71429"
           y="149.50504" /></flowRegion><flowPara
         id="flowPara3227" /></flowRoot>    <path
       sodipodi:type="inkscape:offset"
       inkscape:radius="7.2668757"
       inkscape:original="M -446.6875 28.53125 C -452.35939 28.531286 -457.04689 30.984408 -460.78125 35.90625 C -464.10938 40.281274 -465.78125 45.125019 -465.78125 50.4375 C -465.78125 54.953134 -464.03125 58.656255 -460.5625 61.5 C -457.31251 64.15625 -453.37501 65.468749 -448.75 65.46875 C -443.06252 65.468749 -438.46878 62.984376 -434.9375 58 C -431.87504 53.68751 -430.34379 48.875015 -430.34375 43.5625 C -430.34379 38.5469 -431.68754 34.781279 -434.40625 32.28125 C -437.12503 29.781284 -441.2344 28.531286 -446.6875 28.53125 z M -446.6875 34.875 C -443.1094 34.875029 -440.59378 35.500029 -439.1875 36.71875 C -437.71878 38.000026 -437.00003 40.281274 -437 43.5625 C -437.00003 47.484392 -438.0469 50.984388 -440.15625 54.0625 C -442.45315 57.437507 -445.31252 59.125005 -448.75 59.125 C -451.70314 59.125005 -454.15626 58.343756 -456.09375 56.78125 C -458.10938 55.156259 -459.12501 53.031261 -459.125 50.4375 C -459.12501 46.593767 -457.95313 43.093771 -455.625 39.9375 C -453.14064 36.562527 -450.17189 34.875029 -446.6875 34.875 z M -423.46875 38.4375 C -424.39063 38.437526 -425.17969 38.742213 -425.8125 39.3125 C -426.44531 39.882837 -426.75 40.593773 -426.75 41.46875 C -426.75 41.921897 -426.71094 42.601584 -426.65625 43.53125 C -426.60156 44.460957 -426.59375 45.187519 -426.59375 45.65625 C -426.59375 47.156267 -426.6875 49.23439 -426.90625 51.90625 C -427.125 54.578134 -427.25 56.656257 -427.25 58.15625 C -427.25 58.593755 -427.1875 59.242192 -427.09375 60.125 C -427 61.007816 -426.96875 61.687502 -426.96875 62.125 C -426.96875 63.015626 -426.67188 63.757813 -426.0625 64.34375 C -425.45313 64.929687 -424.65625 65.218749 -423.71875 65.21875 C -422.78126 65.218749 -422.02344 64.929687 -421.40625 64.34375 C -420.78907 63.757813 -420.46876 63.015626 -420.46875 62.125 C -420.46876 61.687502 -420.52345 61.007816 -420.625 60.125 C -420.72657 59.242192 -420.78126 58.593755 -420.78125 58.15625 C -420.78126 57.484382 -420.71876 56.796882 -420.625 56.09375 C -420.51563 55.234384 -420.46876 54.546884 -420.4375 54.03125 C -419.65626 51.453138 -418.57032 49.335952 -417.1875 47.65625 C -415.8047 45.976581 -414.37501 45.125019 -412.9375 45.125 C -412.26564 45.125019 -411.93752 45.765643 -411.9375 47.0625 C -411.93752 47.343767 -411.96877 47.710954 -412 48.15625 C -412.03127 48.601578 -412.03127 48.89064 -412.03125 49 C -412.03127 49.406265 -412.07033 50.109389 -412.125 51.09375 C -412.1797 52.078137 -412.18752 52.750011 -412.1875 53.15625 C -412.18752 54.671884 -412.07814 56.312508 -411.84375 58.03125 C -411.62502 59.656254 -411.40627 61.265628 -411.1875 62.875 C -410.96877 64.765624 -409.89064 65.718748 -407.96875 65.71875 C -407.0469 65.718748 -406.28127 65.421874 -405.65625 64.84375 C -405.03127 64.265625 -404.71877 63.531251 -404.71875 62.65625 C -404.71877 61.453128 -404.88284 59.890629 -405.21875 57.96875 C -405.55471 56.046883 -405.71877 54.46876 -405.71875 53.25 C -405.71877 52.953136 -405.7344 52.468762 -405.71875 51.75 L -405.71875 50.0625 C -405.71877 46.765642 -406.09377 44.31252 -406.84375 42.65625 C -407.96877 40.187524 -409.98439 38.937525 -412.9375 38.9375 C -415.46876 38.937525 -417.87501 40.078149 -420.15625 42.375 L -420.1875 42.125 C -420.32813 39.671899 -421.42188 38.437526 -423.46875 38.4375 z "
       xlink:href="#text3241"
       style="font-size:48px;font-style:normal;font-variant:normal;font-weight:bold;font-stretch:normal;line-height:125%;letter-spacing:0px;word-spacing:0px;fill:#ffffff;fill-opacity:1;stroke:none;font-family:Comic Sans MS;-inkscape-font-specification:Comic Sans MS Bold"
       id="path3247"
       inkscape:href="#text3241"
       d="m -448.6875,21.25 c -7.76717,4.9e-5 -15.07349,3.921665 -19.875,10.25 -4.18292,5.498696 -6.5,12.100399 -6.5,18.9375 0,6.393116 2.97223,12.642503 7.90625,16.6875 4.56863,3.733991 10.40643,5.624999 16.40625,5.625 5.8148,-10e-7 11.36218,-2.265206 15.71875,-6.09375 0.5168,1.077191 1.11149,2.143266 1.9375,2.9375 2.03023,1.952161 4.94376,2.906247 7.375,2.90625 2.43125,-3e-6 5.4067,-1.065706 7.3125,-2.875 0.15639,-0.148477 0.22757,-0.399176 0.375,-0.5625 0.35235,0.456181 0.54844,0.975989 1,1.375 2.1481,1.898135 4.90027,2.562498 7.0625,2.5625 2.482,-5e-6 5.36369,-1.067718 7.25,-2.8125 1.99048,-1.84125 3.28119,-4.926135 3.28125,-7.53125 -3e-5,-1.863674 -0.24317,-3.75292 -0.625,-5.9375 -0.28887,-1.652461 -0.37501,-2.902233 -0.375,-3.46875 -4e-5,-0.551401 -0.0431,-0.801297 -0.0312,-1.34375 a 7.2676024,7.2676024 0 0 0 0.0312,-0.15625 l 0,-1.6875 c -2e-5,-3.847882 -0.29455,-7.122986 -1.78125,-10.40625 -2.09936,-4.606809 -7.71504,-7.999958 -12.71875,-8 -1.78458,1.8e-5 -3.50325,0.440106 -5.15625,1.03125 -1.75123,-0.990116 -3.72398,-1.531229 -5.375,-1.53125 -0.82122,2.3e-5 -1.66363,0.294339 -2.5,0.5 -0.94237,-1.726933 -2.05138,-3.357919 -3.53125,-4.71875 -4.51597,-4.152513 -10.62391,-5.687457 -17.1875,-5.6875 z m 0,20.90625 c 1.14793,9e-6 1.8065,0.133499 2.3125,0.25 0.05,0.290552 0.0937,0.44844 0.0937,1.15625 -2e-5,2.628761 -0.58389,4.522173 -1.875,6.40625 -1.35253,1.987379 -1.53454,1.875002 -2.59375,1.875 -1.67151,3e-6 -2.25555,-0.294794 -2.78125,-0.71875 -0.53431,-0.430756 -0.3125,0.0093 -0.3125,-0.6875 -10e-6,-2.366701 0.56625,-4.159023 2.0625,-6.1875 1.53147,-2.080479 1.95557,-2.093741 3.09375,-2.09375 z" />
    <path
       sodipodi:type="inkscape:offset"
       inkscape:radius="3.7029774"
       inkscape:original="M -446.6875 28.53125 C -452.35939 28.531286 -457.04689 30.984408 -460.78125 35.90625 C -464.10938 40.281274 -465.78125 45.125019 -465.78125 50.4375 C -465.78125 54.953134 -464.03125 58.656255 -460.5625 61.5 C -457.31251 64.15625 -453.37501 65.468749 -448.75 65.46875 C -443.06252 65.468749 -438.46878 62.984376 -434.9375 58 C -431.87504 53.68751 -430.34379 48.875015 -430.34375 43.5625 C -430.34379 38.5469 -431.68754 34.781279 -434.40625 32.28125 C -437.12503 29.781284 -441.2344 28.531286 -446.6875 28.53125 z M -446.6875 34.875 C -443.1094 34.875029 -440.59378 35.500029 -439.1875 36.71875 C -437.71878 38.000026 -437.00003 40.281274 -437 43.5625 C -437.00003 47.484392 -438.0469 50.984388 -440.15625 54.0625 C -442.45315 57.437507 -445.31252 59.125005 -448.75 59.125 C -451.70314 59.125005 -454.15626 58.343756 -456.09375 56.78125 C -458.10938 55.156259 -459.12501 53.031261 -459.125 50.4375 C -459.12501 46.593767 -457.95313 43.093771 -455.625 39.9375 C -453.14064 36.562527 -450.17189 34.875029 -446.6875 34.875 z M -423.46875 38.4375 C -424.39063 38.437526 -425.17969 38.742213 -425.8125 39.3125 C -426.44531 39.882837 -426.75 40.593773 -426.75 41.46875 C -426.75 41.921897 -426.71094 42.601584 -426.65625 43.53125 C -426.60156 44.460957 -426.59375 45.187519 -426.59375 45.65625 C -426.59375 47.156267 -426.6875 49.23439 -426.90625 51.90625 C -427.125 54.578134 -427.25 56.656257 -427.25 58.15625 C -427.25 58.593755 -427.1875 59.242192 -427.09375 60.125 C -427 61.007816 -426.96875 61.687502 -426.96875 62.125 C -426.96875 63.015626 -426.67188 63.757813 -426.0625 64.34375 C -425.45313 64.929687 -424.65625 65.218749 -423.71875 65.21875 C -422.78126 65.218749 -422.02344 64.929687 -421.40625 64.34375 C -420.78907 63.757813 -420.46876 63.015626 -420.46875 62.125 C -420.46876 61.687502 -420.52345 61.007816 -420.625 60.125 C -420.72657 59.242192 -420.78126 58.593755 -420.78125 58.15625 C -420.78126 57.484382 -420.71876 56.796882 -420.625 56.09375 C -420.51563 55.234384 -420.46876 54.546884 -420.4375 54.03125 C -419.65626 51.453138 -418.57032 49.335952 -417.1875 47.65625 C -415.8047 45.976581 -414.37501 45.125019 -412.9375 45.125 C -412.26564 45.125019 -411.93752 45.765643 -411.9375 47.0625 C -411.93752 47.343767 -411.96877 47.710954 -412 48.15625 C -412.03127 48.601578 -412.03127 48.89064 -412.03125 49 C -412.03127 49.406265 -412.07033 50.109389 -412.125 51.09375 C -412.1797 52.078137 -412.18752 52.750011 -412.1875 53.15625 C -412.18752 54.671884 -412.07814 56.312508 -411.84375 58.03125 C -411.62502 59.656254 -411.40627 61.265628 -411.1875 62.875 C -410.96877 64.765624 -409.89064 65.718748 -407.96875 65.71875 C -407.0469 65.718748 -406.28127 65.421874 -405.65625 64.84375 C -405.03127 64.265625 -404.71877 63.531251 -404.71875 62.65625 C -404.71877 61.453128 -404.88284 59.890629 -405.21875 57.96875 C -405.55471 56.046883 -405.71877 54.46876 -405.71875 53.25 C -405.71877 52.953136 -405.7344 52.468762 -405.71875 51.75 L -405.71875 50.0625 C -405.71877 46.765642 -406.09377 44.31252 -406.84375 42.65625 C -407.96877 40.187524 -409.98439 38.937525 -412.9375 38.9375 C -415.46876 38.937525 -417.87501 40.078149 -420.15625 42.375 L -420.1875 42.125 C -420.32813 39.671899 -421.42188 38.437526 -423.46875 38.4375 z "
       xlink:href="#text3241"
       style="font-size:48px;font-style:normal;font-variant:normal;font-weight:bold;font-stretch:normal;line-height:125%;letter-spacing:0px;word-spacing:0px;fill:#000000;fill-opacity:1;stroke:none;font-family:Comic Sans MS;-inkscape-font-specification:Comic Sans MS Bold"
       id="path3249"
       inkscape:href="#text3241"
       d="m -448.6875,24.84375 c -6.73958,4.3e-5 -12.7531,3.173952 -17.03125,8.8125 -3.7637,4.947613 -5.75,10.691869 -5.75,16.78125 0,5.472341 2.3471,10.481634 6.5625,13.9375 3.92193,3.205434 8.83068,4.781249 14.15625,4.78125 6.76582,-10e-7 12.77229,-3.253161 16.84375,-9 0.37864,-0.533195 0.6613,-1.105507 1,-1.65625 0.019,0.651976 0.0433,1.261472 0.125,2.03125 0.0818,0.770274 0.125,1.332585 0.125,1.59375 0,1.713495 0.72885,3.6227 2.03125,4.875 1.3334,1.282123 3.20759,1.906248 4.90625,1.90625 1.69866,-2e-6 3.60117,-0.665677 4.875,-1.875 1.28557,-1.220493 2.06248,-3.127807 2.0625,-4.90625 -2e-5,-0.746007 -0.0473,-1.490269 -0.15625,-2.4375 -0.0953,-0.828207 -0.15625,-1.402421 -0.15625,-1.53125 -10e-6,-0.442186 0.0445,-0.959129 0.125,-1.5625 a 3.7033477,3.7033477 0 0 0 0.0312,-0.03125 c 0.0938,-0.737033 0.12154,-1.251362 0.15625,-1.75 0.27796,-0.868121 0.59672,-1.644149 0.9375,-2.34375 -0.003,0.191811 -0.0313,0.550622 -0.0312,0.6875 -2e-5,1.693826 0.11882,3.496484 0.375,5.375 0.21638,1.607515 0.44024,3.192197 0.65625,4.78125 l -0.0312,0 c 0.003,0.02177 0.0285,0.04067 0.0312,0.0625 0.19164,1.546957 0.84837,3.222952 2.1875,4.40625 1.35802,1.199994 3.11442,1.624998 4.6875,1.625 1.71685,-4e-6 3.54476,-0.671133 4.8125,-1.84375 1.3208,-1.221775 2.12496,-3.149636 2.125,-4.90625 -3e-5,-1.539719 -0.17194,-3.256757 -0.53125,-5.3125 -0.31196,-1.784586 -0.46876,-3.207353 -0.46875,-4.09375 -3e-5,-0.426568 -0.0137,-0.77733 0,-1.40625 a 3.7033477,3.7033477 0 0 0 0,-0.09375 l 0,-1.6875 c -2e-5,-3.577643 -0.31211,-6.452163 -1.4375,-8.9375 -1.62152,-3.558228 -5.47072,-5.874966 -9.46875,-5.875 -1.98651,2e-5 -3.89934,0.545435 -5.6875,1.46875 -1.30938,-1.300668 -3.17886,-1.968729 -4.84375,-1.96875 -1.53129,4.3e-5 -3.04941,0.585155 -4.28125,1.5 -0.85187,-2.599767 -2.20183,-4.890283 -4.15625,-6.6875 -3.63457,-3.342054 -8.76228,-4.71871 -14.78125,-4.71875 z m 0,13.71875 c 3.14691,2.6e-5 4.83438,0.771051 5.0625,0.96875 0.28374,0.259165 0.93748,1.321725 0.9375,4.03125 -2e-5,3.262952 -0.83885,5.936581 -2.53125,8.40625 -1.81568,2.667914 -3.30566,3.468753 -5.53125,3.46875 -2.30006,4e-6 -3.81316,-0.548914 -5.03125,-1.53125 -1.26079,-1.016445 -1.65626,-1.841638 -1.65625,-3.46875 -10e-6,-3.091083 0.87702,-5.730918 2.78125,-8.3125 1.99879,-2.715338 3.67992,-3.562481 5.96875,-3.5625 z" />
    <text
       xml:space="preserve"
       style="font-size:48px;font-style:normal;font-variant:normal;font-weight:bold;font-stretch:normal;line-height:125%;letter-spacing:0px;word-spacing:0px;fill:#ffff00;fill-opacity:1;stroke:none;font-family:Comic Sans MS;-inkscape-font-specification:Comic Sans MS Bold"
       x="-467.18304"
       y="64.040184"
       id="text3241"
       sodipodi:linespacing="125%"><tspan
         sodipodi:role="line"
         id="tspan3243"
         x="-467.18304"
         y="64.040184">On</tspan></text>
  </g>
</svg>
