<?xml version="1.0" encoding="UTF-8" standalone="no"?>
<!-- Created with Inkscape (http://www.inkscape.org/) -->

<svg
   xmlns:dc="http://purl.org/dc/elements/1.1/"
   xmlns:cc="http://creativecommons.org/ns#"
   xmlns:rdf="http://www.w3.org/1999/02/22-rdf-syntax-ns#"
   xmlns:svg="http://www.w3.org/2000/svg"
   xmlns="http://www.w3.org/2000/svg"
   xmlns:xlink="http://www.w3.org/1999/xlink"
   xmlns:sodipodi="http://sodipodi.sourceforge.net/DTD/sodipodi-0.dtd"
   xmlns:inkscape="http://www.inkscape.org/namespaces/inkscape"
   width="512"
   height="128"
   id="svg3213"
   version="1.1"
   inkscape:version="0.48.4 r9939"
   sodipodi:docname="on.svg">
  <defs
     id="defs3215" />
  <sodipodi:namedview
     id="base"
     pagecolor="#ffffff"
     bordercolor="#666666"
     borderopacity="1.0"
     inkscape:pageopacity="0.0"
     inkscape:pageshadow="2"
     inkscape:zoom="1.71875"
     inkscape:cx="257.57561"
     inkscape:cy="99.385208"
     inkscape:document-units="px"
     inkscape:current-layer="layer1"
     showgrid="false"
     fit-margin-top="0"
     fit-margin-left="0"
     fit-margin-right="0"
     fit-margin-bottom="0"
     inkscape:window-width="1920"
     inkscape:window-height="1028"
     inkscape:window-x="1358"
     inkscape:window-y="-8"
     inkscape:window-maximized="1"
     showguides="true"
     inkscape:guide-bbox="true">
    <sodipodi:guide
       orientation="1,0"
       position="256,174.28571"
       id="guide3671" />
    <sodipodi:guide
       orientation="1,0"
       position="100,226.42857"
       id="guide3673" />
    <sodipodi:guide
       orientation="1,0"
       position="356,140.8"
       id="guide3847" />
  </sodipodi:namedview>
  <metadata
     id="metadata3218">
    <rdf:RDF>
      <cc:Work
         rdf:about="">
        <dc:format>image/svg+xml</dc:format>
        <dc:type
           rdf:resource="http://purl.org/dc/dcmitype/StillImage" />
        <dc:title></dc:title>
      </cc:Work>
    </rdf:RDF>
  </metadata>
  <g
     inkscape:label="Layer 1"
     inkscape:groupmode="layer"
     id="layer1"
     transform="translate(683.46875,7.5312507)">
    <flowRoot
       xml:space="preserve"
       id="flowRoot3221"
       style="font-size:22px;font-style:normal;font-variant:normal;font-weight:normal;font-stretch:normal;line-height:125%;letter-spacing:0px;word-spacing:0px;fill:#000000;fill-opacity:1;stroke:none;font-family:Comic Sans MS;-inkscape-font-specification:Comic Sans MS"><flowRegion
         id="flowRegion3223"><rect
           id="rect3225"
           width="42.857143"
           height="45.714287"
           x="-565.71429"
           y="149.50504" /></flowRegion><flowPara
         id="flowPara3227" /></flowRoot>    <path
       sodipodi:type="inkscape:offset"
       inkscape:radius="7.2668757"
       inkscape:original="M -556.6875 28.53125 C -562.35939 28.531286 -567.04689 30.984408 -570.78125 35.90625 C -574.10938 40.281274 -575.78125 45.125019 -575.78125 50.4375 C -575.78125 54.953134 -574.03125 58.656255 -570.5625 61.5 C -567.31251 64.15625 -563.37501 65.468749 -558.75 65.46875 C -553.06252 65.468749 -548.46878 62.984376 -544.9375 58 C -541.87504 53.68751 -540.34379 48.875015 -540.34375 43.5625 C -540.34379 38.5469 -541.68754 34.781279 -544.40625 32.28125 C -547.12503 29.781284 -551.2344 28.531286 -556.6875 28.53125 z M -556.6875 34.875 C -553.1094 34.875029 -550.59378 35.500029 -549.1875 36.71875 C -547.71878 38.000026 -547.00003 40.281274 -547 43.5625 C -547.00003 47.484392 -548.0469 50.984388 -550.15625 54.0625 C -552.45315 57.437507 -555.31252 59.125005 -558.75 59.125 C -561.70314 59.125005 -564.15626 58.343756 -566.09375 56.78125 C -568.10938 55.156259 -569.12501 53.031261 -569.125 50.4375 C -569.12501 46.593767 -567.95313 43.093771 -565.625 39.9375 C -563.14064 36.562527 -560.17189 34.875029 -556.6875 34.875 z M -533.46875 38.4375 C -534.39063 38.437526 -535.17969 38.742213 -535.8125 39.3125 C -536.44531 39.882837 -536.75 40.593773 -536.75 41.46875 C -536.75 41.921897 -536.71094 42.601584 -536.65625 43.53125 C -536.60156 44.460957 -536.59375 45.187519 -536.59375 45.65625 C -536.59375 47.156267 -536.6875 49.23439 -536.90625 51.90625 C -537.125 54.578134 -537.25 56.656257 -537.25 58.15625 C -537.25 58.593755 -537.1875 59.242192 -537.09375 60.125 C -537 61.007816 -536.96875 61.687502 -536.96875 62.125 C -536.96875 63.015626 -536.67188 63.757813 -536.0625 64.34375 C -535.45313 64.929687 -534.65625 65.218749 -533.71875 65.21875 C -532.78126 65.218749 -532.02344 64.929687 -531.40625 64.34375 C -530.78907 63.757813 -530.46876 63.015626 -530.46875 62.125 C -530.46876 61.687502 -530.52345 61.007816 -530.625 60.125 C -530.72657 59.242192 -530.78126 58.593755 -530.78125 58.15625 C -530.78126 57.484382 -530.71876 56.796882 -530.625 56.09375 C -530.51563 55.234384 -530.46876 54.546884 -530.4375 54.03125 C -529.65626 51.453138 -528.57032 49.335952 -527.1875 47.65625 C -525.8047 45.976581 -524.37501 45.125019 -522.9375 45.125 C -522.26564 45.125019 -521.93752 45.765643 -521.9375 47.0625 C -521.93752 47.343767 -521.96877 47.710954 -522 48.15625 C -522.03127 48.601578 -522.03127 48.89064 -522.03125 49 C -522.03127 49.406265 -522.07033 50.109389 -522.125 51.09375 C -522.1797 52.078137 -522.18752 52.750011 -522.1875 53.15625 C -522.18752 54.671884 -522.07814 56.312508 -521.84375 58.03125 C -521.62502 59.656254 -521.40627 61.265628 -521.1875 62.875 C -520.96877 64.765624 -519.89064 65.718748 -517.96875 65.71875 C -517.0469 65.718748 -516.28127 65.421874 -515.65625 64.84375 C -515.03127 64.265625 -514.71877 63.531251 -514.71875 62.65625 C -514.71877 61.453128 -514.88284 59.890629 -515.21875 57.96875 C -515.55471 56.046883 -515.71877 54.46876 -515.71875 53.25 C -515.71877 52.953136 -515.7344 52.468762 -515.71875 51.75 L -515.71875 50.0625 C -515.71877 46.765642 -516.09377 44.31252 -516.84375 42.65625 C -517.96877 40.187524 -519.98439 38.937525 -522.9375 38.9375 C -525.46876 38.937525 -527.87501 40.078149 -530.15625 42.375 L -530.1875 42.125 C -530.32813 39.671899 -531.42188 38.437526 -533.46875 38.4375 z "
       xlink:href="#text3241"
       style="font-size:48px;font-style:normal;font-variant:normal;font-weight:bold;font-stretch:normal;line-height:125%;letter-spacing:0px;word-spacing:0px;fill:#ffffff;fill-opacity:1;stroke:none;font-family:Comic Sans MS;-inkscape-font-specification:Comic Sans MS Bold"
       id="path3247"
       inkscape:href="#text3241"
       d="m -554.6875,21.25 c -7.76717,4.9e-5 -15.07349,3.921665 -19.875,10.25 -4.18292,5.498696 -6.5,12.100399 -6.5,18.9375 0,6.393116 2.97223,12.642503 7.90625,16.6875 4.56863,3.733991 10.40643,5.624999 16.40625,5.625 5.8148,-10e-7 11.36218,-2.265206 15.71875,-6.09375 0.5168,1.077191 1.11149,2.143266 1.9375,2.9375 2.03023,1.952161 4.94376,2.906247 7.375,2.90625 2.43125,-3e-6 5.4067,-1.065706 7.3125,-2.875 0.15639,-0.148477 0.22757,-0.399176 0.375,-0.5625 0.35235,0.456181 0.54844,0.975989 1,1.375 2.1481,1.898135 4.90027,2.562498 7.0625,2.5625 2.482,-5e-6 5.36369,-1.067718 7.25,-2.8125 1.99048,-1.84125 3.28119,-4.926135 3.28125,-7.53125 -3e-5,-1.863674 -0.24317,-3.75292 -0.625,-5.9375 -0.28887,-1.652461 -0.37501,-2.902233 -0.375,-3.46875 -4e-5,-0.551401 -0.0431,-0.801297 -0.0312,-1.34375 a 7.2676024,7.2676024 0 0 0 0.0312,-0.15625 l 0,-1.6875 c -2e-5,-3.847882 -0.29455,-7.122986 -1.78125,-10.40625 -2.09936,-4.606809 -7.71504,-7.999958 -12.71875,-8 -1.78458,1.8e-5 -3.50325,0.440106 -5.15625,1.03125 -1.75123,-0.990116 -3.72398,-1.531229 -5.375,-1.53125 -0.82122,2.3e-5 -1.66363,0.294339 -2.5,0.5 -0.94237,-1.726933 -2.05138,-3.357919 -3.53125,-4.71875 -4.51597,-4.152513 -10.62391,-5.687457 -17.1875,-5.6875 z m 0,20.90625 c 1.14793,9e-6 1.8065,0.133499 2.3125,0.25 0.05,0.290552 0.0937,0.44844 0.0937,1.15625 -2e-5,2.628761 -0.58389,4.522173 -1.875,6.40625 -1.35253,1.987379 -1.53454,1.875002 -2.59375,1.875 -1.67151,3e-6 -2.25555,-0.294794 -2.78125,-0.71875 -0.53431,-0.430756 -0.3125,0.0093 -0.3125,-0.6875 -10e-6,-2.366701 0.56625,-4.159023 2.0625,-6.1875 1.53147,-2.080479 1.95557,-2.093741 3.09375,-2.09375 z" />
    <path
       sodipodi:type="inkscape:offset"
       inkscape:radius="3.7029774"
       inkscape:original="M -556.6875 28.53125 C -562.35939 28.531286 -567.04689 30.984408 -570.78125 35.90625 C -574.10938 40.281274 -575.78125 45.125019 -575.78125 50.4375 C -575.78125 54.953134 -574.03125 58.656255 -570.5625 61.5 C -567.31251 64.15625 -563.37501 65.468749 -558.75 65.46875 C -553.06252 65.468749 -548.46878 62.984376 -544.9375 58 C -541.87504 53.68751 -540.34379 48.875015 -540.34375 43.5625 C -540.34379 38.5469 -541.68754 34.781279 -544.40625 32.28125 C -547.12503 29.781284 -551.2344 28.531286 -556.6875 28.53125 z M -556.6875 34.875 C -553.1094 34.875029 -550.59378 35.500029 -549.1875 36.71875 C -547.71878 38.000026 -547.00003 40.281274 -547 43.5625 C -547.00003 47.484392 -548.0469 50.984388 -550.15625 54.0625 C -552.45315 57.437507 -555.31252 59.125005 -558.75 59.125 C -561.70314 59.125005 -564.15626 58.343756 -566.09375 56.78125 C -568.10938 55.156259 -569.12501 53.031261 -569.125 50.4375 C -569.12501 46.593767 -567.95313 43.093771 -565.625 39.9375 C -563.14064 36.562527 -560.17189 34.875029 -556.6875 34.875 z M -533.46875 38.4375 C -534.39063 38.437526 -535.17969 38.742213 -535.8125 39.3125 C -536.44531 39.882837 -536.75 40.593773 -536.75 41.46875 C -536.75 41.921897 -536.71094 42.601584 -536.65625 43.53125 C -536.60156 44.460957 -536.59375 45.187519 -536.59375 45.65625 C -536.59375 47.156267 -536.6875 49.23439 -536.90625 51.90625 C -537.125 54.578134 -537.25 56.656257 -537.25 58.15625 C -537.25 58.593755 -537.1875 59.242192 -537.09375 60.125 C -537 61.007816 -536.96875 61.687502 -536.96875 62.125 C -536.96875 63.015626 -536.67188 63.757813 -536.0625 64.34375 C -535.45313 64.929687 -534.65625 65.218749 -533.71875 65.21875 C -532.78126 65.218749 -532.02344 64.929687 -531.40625 64.34375 C -530.78907 63.757813 -530.46876 63.015626 -530.46875 62.125 C -530.46876 61.687502 -530.52345 61.007816 -530.625 60.125 C -530.72657 59.242192 -530.78126 58.593755 -530.78125 58.15625 C -530.78126 57.484382 -530.71876 56.796882 -530.625 56.09375 C -530.51563 55.234384 -530.46876 54.546884 -530.4375 54.03125 C -529.65626 51.453138 -528.57032 49.335952 -527.1875 47.65625 C -525.8047 45.976581 -524.37501 45.125019 -522.9375 45.125 C -522.26564 45.125019 -521.93752 45.765643 -521.9375 47.0625 C -521.93752 47.343767 -521.96877 47.710954 -522 48.15625 C -522.03127 48.601578 -522.03127 48.89064 -522.03125 49 C -522.03127 49.406265 -522.07033 50.109389 -522.125 51.09375 C -522.1797 52.078137 -522.18752 52.750011 -522.1875 53.15625 C -522.18752 54.671884 -522.07814 56.312508 -521.84375 58.03125 C -521.62502 59.656254 -521.40627 61.265628 -521.1875 62.875 C -520.96877 64.765624 -519.89064 65.718748 -517.96875 65.71875 C -517.0469 65.718748 -516.28127 65.421874 -515.65625 64.84375 C -515.03127 64.265625 -514.71877 63.531251 -514.71875 62.65625 C -514.71877 61.453128 -514.88284 59.890629 -515.21875 57.96875 C -515.55471 56.046883 -515.71877 54.46876 -515.71875 53.25 C -515.71877 52.953136 -515.7344 52.468762 -515.71875 51.75 L -515.71875 50.0625 C -515.71877 46.765642 -516.09377 44.31252 -516.84375 42.65625 C -517.96877 40.187524 -519.98439 38.937525 -522.9375 38.9375 C -525.46876 38.937525 -527.87501 40.078149 -530.15625 42.375 L -530.1875 42.125 C -530.32813 39.671899 -531.42188 38.437526 -533.46875 38.4375 z "
       xlink:href="#text3241"
       style="font-size:48px;font-style:normal;font-variant:normal;font-weight:bold;font-stretch:normal;line-height:125%;letter-spacing:0px;word-spacing:0px;fill:#000000;fill-opacity:1;stroke:none;font-family:Comic Sans MS;-inkscape-font-specification:Comic Sans MS Bold"
       id="path3249"
       inkscape:href="#text3241"
       d="m -554.6875,24.84375 c -6.73958,4.3e-5 -12.7531,3.173952 -17.03125,8.8125 -3.7637,4.947613 -5.75,10.691869 -5.75,16.78125 0,5.472341 2.3471,10.481634 6.5625,13.9375 3.92193,3.205434 8.83068,4.781249 14.15625,4.78125 6.76582,-10e-7 12.77229,-3.253161 16.84375,-9 0.37864,-0.533195 0.6613,-1.105507 1,-1.65625 0.019,0.651976 0.0432,1.261472 0.125,2.03125 0.0818,0.770274 0.125,1.332585 0.125,1.59375 0,1.713495 0.72885,3.6227 2.03125,4.875 1.3334,1.282123 3.20759,1.906248 4.90625,1.90625 1.69866,-2e-6 3.60117,-0.665677 4.875,-1.875 1.28557,-1.220493 2.06248,-3.127807 2.0625,-4.90625 -2e-5,-0.746007 -0.0473,-1.490269 -0.15625,-2.4375 -0.0953,-0.828207 -0.15625,-1.402421 -0.15625,-1.53125 -10e-6,-0.442186 0.0445,-0.959129 0.125,-1.5625 a 3.7033477,3.7033477 0 0 0 0.0312,-0.03125 c 0.0938,-0.737033 0.12154,-1.251362 0.15625,-1.75 0.27796,-0.868121 0.59672,-1.644149 0.9375,-2.34375 -0.003,0.191811 -0.0313,0.550622 -0.0312,0.6875 -2e-5,1.693826 0.11882,3.496484 0.375,5.375 0.21638,1.607515 0.44024,3.192197 0.65625,4.78125 l -0.0312,0 c 0.003,0.02177 0.0285,0.04067 0.0312,0.0625 0.19164,1.546957 0.84837,3.222952 2.1875,4.40625 1.35802,1.199994 3.11442,1.624998 4.6875,1.625 1.71685,-4e-6 3.54476,-0.671133 4.8125,-1.84375 1.3208,-1.221775 2.12496,-3.149636 2.125,-4.90625 -3e-5,-1.539719 -0.17194,-3.256757 -0.53125,-5.3125 -0.31196,-1.784586 -0.46876,-3.207353 -0.46875,-4.09375 -3e-5,-0.426568 -0.0137,-0.77733 0,-1.40625 a 3.7033477,3.7033477 0 0 0 0,-0.09375 l 0,-1.6875 c -2e-5,-3.577643 -0.31211,-6.452163 -1.4375,-8.9375 -1.62152,-3.558228 -5.47072,-5.874966 -9.46875,-5.875 -1.98651,2e-5 -3.89934,0.545435 -5.6875,1.46875 -1.30938,-1.300668 -3.17886,-1.968729 -4.84375,-1.96875 -1.53129,4.3e-5 -3.04941,0.585155 -4.28125,1.5 -0.85187,-2.599767 -2.20183,-4.890283 -4.15625,-6.6875 -3.63457,-3.342054 -8.76228,-4.71871 -14.78125,-4.71875 z m 0,13.71875 c 3.14691,2.6e-5 4.83438,0.771051 5.0625,0.96875 0.28374,0.259165 0.93748,1.321725 0.9375,4.03125 -2e-5,3.262952 -0.83885,5.936581 -2.53125,8.40625 -1.81568,2.667914 -3.30566,3.468753 -5.53125,3.46875 -2.30006,4e-6 -3.81316,-0.548914 -5.03125,-1.53125 -1.26079,-1.016445 -1.65626,-1.841638 -1.65625,-3.46875 -10e-6,-3.091083 0.87702,-5.730918 2.78125,-8.3125 1.99879,-2.715338 3.67992,-3.562481 5.96875,-3.5625 z" />
    <text
       xml:space="preserve"
       style="font-size:48px;font-style:normal;font-variant:normal;font-weight:bold;font-stretch:normal;line-height:125%;letter-spacing:0px;word-spacing:0px;fill:#ffff00;fill-opacity:1;stroke:none;font-family:Comic Sans MS;-inkscape-font-specification:Comic Sans MS Bold"
       x="-577.18304"
       y="64.040184"
       id="text3241"
       sodipodi:linespacing="125%"><tspan
         sodipodi:role="line"
         id="tspan3243"
         x="-577.18304"
         y="64.040184">On</tspan></text>
    <path
       sodipodi:type="inkscape:offset"
       inkscape:radius="7.2668757"
       inkscape:original="M -264.4375 28.5 C -268.18751 28.500037 -270.93751 29.562536 -272.75 31.6875 C -274.20313 33.390658 -275.15626 35.984405 -275.59375 39.46875 C -275.78126 40.95315 -275.89063 41.843774 -275.90625 42.125 C -277.95313 42.187524 -279.3125 42.328149 -280 42.53125 C -281.53125 42.984398 -282.3125 43.921897 -282.3125 45.375 C -282.3125 46.31252 -282 47.070331 -281.375 47.625 C -280.75 48.179705 -279.95313 48.468768 -279 48.46875 C -278.6875 48.468768 -278.21875 48.421893 -277.625 48.34375 C -276.87501 48.234393 -276.37501 48.171893 -276.09375 48.15625 L -276.09375 59.875 C -276.09376 61.843754 -276.28126 63.953127 -276.65625 66.1875 C -276.68751 66.375 -276.68751 66.546874 -276.6875 66.75 C -276.68751 67.609373 -276.36719 68.343748 -275.71875 68.90625 C -275.07032 69.468747 -274.31251 69.749996 -273.4375 69.75 C -271.73439 69.749996 -270.70314 68.890622 -270.34375 67.21875 C -269.98439 65.546875 -269.81251 63.296878 -269.8125 60.4375 C -269.81251 59.921881 -269.84376 57.812508 -269.90625 54.125 C -269.93751 51.562514 -269.93751 49.468767 -269.875 47.8125 C -267.87502 47.640643 -266.35939 47.562518 -265.375 47.59375 C -262.26565 47.687518 -260.71877 46.687519 -260.71875 44.625 C -260.71877 42.625023 -262.1719 41.625024 -265.09375 41.625 C -266.00002 41.625024 -267.50002 41.718774 -269.59375 41.90625 L -269.53125 41.25 C -269.31251 39.156277 -268.89064 37.609403 -268.25 36.625 C -267.39064 35.296906 -266.01564 34.625031 -264.125 34.625 C -261.46877 34.625031 -260.12502 33.625032 -260.125 31.59375 C -260.12502 29.546911 -261.57815 28.500037 -264.4375 28.5 z M -240.0625 28.5 C -243.81251 28.500037 -246.56251 29.562536 -248.375 31.6875 C -249.82813 33.390658 -250.78126 35.984405 -251.21875 39.46875 C -251.40626 40.95315 -251.51563 41.843774 -251.53125 42.125 C -253.57813 42.187524 -254.9375 42.328149 -255.625 42.53125 C -257.15625 42.984398 -257.9375 43.921897 -257.9375 45.375 C -257.9375 46.31252 -257.625 47.070331 -257 47.625 C -256.375 48.179705 -255.57813 48.468768 -254.625 48.46875 C -254.3125 48.468768 -253.84375 48.421893 -253.25 48.34375 C -252.50001 48.234393 -252.00001 48.171893 -251.71875 48.15625 L -251.71875 59.875 C -251.71876 61.843754 -251.90626 63.953127 -252.28125 66.1875 C -252.31251 66.375 -252.31251 66.546874 -252.3125 66.75 C -252.31251 67.609373 -251.99219 68.343748 -251.34375 68.90625 C -250.69532 69.468747 -249.93751 69.749996 -249.0625 69.75 C -247.35939 69.749996 -246.32814 68.890622 -245.96875 67.21875 C -245.60939 65.546875 -245.43751 63.296878 -245.4375 60.4375 C -245.43751 59.921881 -245.46876 57.812508 -245.53125 54.125 C -245.56251 51.562514 -245.56251 49.468767 -245.5 47.8125 C -243.50002 47.640643 -241.98439 47.562518 -241 47.59375 C -237.89065 47.687518 -236.34377 46.687519 -236.34375 44.625 C -236.34377 42.625023 -237.7969 41.625024 -240.71875 41.625 C -241.62502 41.625024 -243.12502 41.718774 -245.21875 41.90625 L -245.15625 41.25 C -244.93751 39.156277 -244.51564 37.609403 -243.875 36.625 C -243.01564 35.296906 -241.64064 34.625031 -239.75 34.625 C -237.09377 34.625031 -235.75002 33.625032 -235.75 31.59375 C -235.75002 29.546911 -237.20315 28.500037 -240.0625 28.5 z M -300.96875 30.46875 C -306.64064 30.468786 -311.32814 32.953158 -315.0625 37.875 C -318.39063 42.250024 -320.0625 47.093769 -320.0625 52.40625 C -320.0625 56.921884 -318.34375 60.593755 -314.875 63.4375 C -311.62501 66.09375 -307.68751 67.406249 -303.0625 67.40625 C -297.37502 67.406249 -292.75003 64.921876 -289.21875 59.9375 C -286.15629 55.62501 -284.62504 50.812515 -284.625 45.5 C -284.62504 40.4844 -285.96879 36.718779 -288.6875 34.21875 C -291.40628 31.718784 -295.51565 30.468786 -300.96875 30.46875 z M -300.96875 36.84375 C -297.39065 36.843779 -294.90628 37.437529 -293.5 38.65625 C -292.03128 39.937526 -291.28128 42.218774 -291.28125 45.5 C -291.28128 49.421892 -292.32815 52.921888 -294.4375 56 C -296.7344 59.375007 -299.62502 61.062505 -303.0625 61.0625 C -306.01564 61.062505 -308.43751 60.281256 -310.375 58.71875 C -312.39063 57.093759 -313.40626 55.000011 -313.40625 52.40625 C -313.40626 48.562517 -312.23438 45.062521 -309.90625 41.90625 C -307.42189 38.531277 -304.45314 36.843779 -300.96875 36.84375 z "
       xlink:href="#text3241-7"
       style="font-size:48px;font-style:normal;font-variant:normal;font-weight:bold;font-stretch:normal;line-height:125%;letter-spacing:0px;word-spacing:0px;fill:#ffffff;fill-opacity:1;stroke:none;font-family:Comic Sans MS;-inkscape-font-specification:Comic Sans MS Bold"
       id="path3247-5"
       inkscape:href="#text3241-7"
       d="m -266.4375,21.21875 c -5.1226,5.1e-5 -10.45222,1.773773 -13.84375,5.75 -1.2983,1.521686 -2.20596,3.212813 -2.90625,5 -0.75452,-1.10568 -1.58636,-2.167394 -2.59375,-3.09375 -4.51597,-4.152513 -10.62391,-5.687457 -17.1875,-5.6875 -7.79386,4.9e-5 -15.08244,3.964714 -19.875,10.28125 -4.18292,5.498696 -6.5,12.100399 -6.5,18.9375 0,6.35959 2.94462,12.614235 7.875,16.65625 4.56863,3.733991 10.40643,5.624999 16.40625,5.625 7.5552,-10e-7 14.65667,-3.862893 19.28125,-10 -0.0181,0.113966 -0.0119,0.197231 -0.0312,0.3125 -0.14972,0.898047 -0.15626,1.546672 -0.15625,1.75 -3e-5,2.665176 1.38146,5.818484 3.5,7.65625 1.8597,1.613247 4.59909,2.624989 7.03125,2.625 2.07382,-5e-6 4.63734,-0.65302 6.65625,-2.3125 2.01891,-1.65948 3.10518,-3.986691 3.53125,-5.96875 0.54081,-2.516041 0.71874,-5.161923 0.71875,-8.3125 -10e-6,-0.726411 -0.0431,-2.780567 -0.0937,-5.78125 0.7626,-0.100317 1.54986,-0.40712 2.34375,-0.6875 0.42216,0.254528 0.82914,0.523231 1.28125,0.71875 l 0,5.1875 c -10e-6,1.507392 -0.12063,3.236925 -0.4375,5.125 -0.14972,0.898047 -0.15626,1.546672 -0.15625,1.75 -3e-5,2.665176 1.38146,5.818484 3.5,7.65625 1.8597,1.613247 4.59909,2.624989 7.03125,2.625 2.07382,-5e-6 4.63734,-0.65302 6.65625,-2.3125 2.01891,-1.65948 3.10518,-3.986691 3.53125,-5.96875 0.54081,-2.516041 0.71874,-5.161923 0.71875,-8.3125 -1e-5,-0.726411 -0.0431,-2.780567 -0.0937,-5.78125 1.50025,-0.197353 3.03707,-0.589053 4.65625,-1.625 2.71053,-1.73419 4.53122,-5.558294 4.53125,-8.40625 -2e-5,-1.906446 -0.84485,-4.232413 -2.1875,-6.09375 1.77647,-1.986819 2.78123,-4.757817 2.78125,-6.9375 -3e-5,-2.743086 -1.55809,-6.375311 -4.125,-8.21875 -2.56691,-1.843439 -5.15223,-2.15622 -7.46875,-2.15625 -5.1226,5.1e-5 -10.45222,1.773773 -13.84375,5.75 -0.0345,0.04048 -0.0597,0.08431 -0.0937,0.125 -0.70577,-1.451125 -1.70767,-2.813097 -2.96875,-3.71875 -2.56691,-1.843439 -5.15223,-2.15622 -7.46875,-2.15625 z M -302.96875,44.125 c 1.16571,9e-6 1.81478,0.139196 2.3125,0.25 0.0499,0.287194 0.0937,0.438763 0.0937,1.125 -2e-5,2.628761 -0.58389,4.522173 -1.875,6.40625 -1.33529,1.962034 -1.56579,1.875002 -2.625,1.875 -1.67151,3e-6 -2.19458,-0.270825 -2.75,-0.71875 -0.56975,-0.459327 -0.3125,0.04052 -0.3125,-0.65625 -10e-6,-2.366701 0.56625,-4.159023 2.0625,-6.1875 1.53147,-2.080479 1.95557,-2.093741 3.09375,-2.09375 z"
       transform="translate(0.2653628,1.1312524)" />
    <path
       sodipodi:type="inkscape:offset"
       inkscape:radius="3.7029774"
       inkscape:original="M -264.4375 28.5 C -268.18751 28.500037 -270.93751 29.562536 -272.75 31.6875 C -274.20313 33.390658 -275.15626 35.984405 -275.59375 39.46875 C -275.78126 40.95315 -275.89063 41.843774 -275.90625 42.125 C -277.95313 42.187524 -279.3125 42.328149 -280 42.53125 C -281.53125 42.984398 -282.3125 43.921897 -282.3125 45.375 C -282.3125 46.31252 -282 47.070331 -281.375 47.625 C -280.75 48.179705 -279.95313 48.468768 -279 48.46875 C -278.6875 48.468768 -278.21875 48.421893 -277.625 48.34375 C -276.87501 48.234393 -276.37501 48.171893 -276.09375 48.15625 L -276.09375 59.875 C -276.09376 61.843754 -276.28126 63.953127 -276.65625 66.1875 C -276.68751 66.375 -276.68751 66.546874 -276.6875 66.75 C -276.68751 67.609373 -276.36719 68.343748 -275.71875 68.90625 C -275.07032 69.468747 -274.31251 69.749996 -273.4375 69.75 C -271.73439 69.749996 -270.70314 68.890622 -270.34375 67.21875 C -269.98439 65.546875 -269.81251 63.296878 -269.8125 60.4375 C -269.81251 59.921881 -269.84376 57.812508 -269.90625 54.125 C -269.93751 51.562514 -269.93751 49.468767 -269.875 47.8125 C -267.87502 47.640643 -266.35939 47.562518 -265.375 47.59375 C -262.26565 47.687518 -260.71877 46.687519 -260.71875 44.625 C -260.71877 42.625023 -262.1719 41.625024 -265.09375 41.625 C -266.00002 41.625024 -267.50002 41.718774 -269.59375 41.90625 L -269.53125 41.25 C -269.31251 39.156277 -268.89064 37.609403 -268.25 36.625 C -267.39064 35.296906 -266.01564 34.625031 -264.125 34.625 C -261.46877 34.625031 -260.12502 33.625032 -260.125 31.59375 C -260.12502 29.546911 -261.57815 28.500037 -264.4375 28.5 z M -240.0625 28.5 C -243.81251 28.500037 -246.56251 29.562536 -248.375 31.6875 C -249.82813 33.390658 -250.78126 35.984405 -251.21875 39.46875 C -251.40626 40.95315 -251.51563 41.843774 -251.53125 42.125 C -253.57813 42.187524 -254.9375 42.328149 -255.625 42.53125 C -257.15625 42.984398 -257.9375 43.921897 -257.9375 45.375 C -257.9375 46.31252 -257.625 47.070331 -257 47.625 C -256.375 48.179705 -255.57813 48.468768 -254.625 48.46875 C -254.3125 48.468768 -253.84375 48.421893 -253.25 48.34375 C -252.50001 48.234393 -252.00001 48.171893 -251.71875 48.15625 L -251.71875 59.875 C -251.71876 61.843754 -251.90626 63.953127 -252.28125 66.1875 C -252.31251 66.375 -252.31251 66.546874 -252.3125 66.75 C -252.31251 67.609373 -251.99219 68.343748 -251.34375 68.90625 C -250.69532 69.468747 -249.93751 69.749996 -249.0625 69.75 C -247.35939 69.749996 -246.32814 68.890622 -245.96875 67.21875 C -245.60939 65.546875 -245.43751 63.296878 -245.4375 60.4375 C -245.43751 59.921881 -245.46876 57.812508 -245.53125 54.125 C -245.56251 51.562514 -245.56251 49.468767 -245.5 47.8125 C -243.50002 47.640643 -241.98439 47.562518 -241 47.59375 C -237.89065 47.687518 -236.34377 46.687519 -236.34375 44.625 C -236.34377 42.625023 -237.7969 41.625024 -240.71875 41.625 C -241.62502 41.625024 -243.12502 41.718774 -245.21875 41.90625 L -245.15625 41.25 C -244.93751 39.156277 -244.51564 37.609403 -243.875 36.625 C -243.01564 35.296906 -241.64064 34.625031 -239.75 34.625 C -237.09377 34.625031 -235.75002 33.625032 -235.75 31.59375 C -235.75002 29.546911 -237.20315 28.500037 -240.0625 28.5 z M -300.96875 30.46875 C -306.64064 30.468786 -311.32814 32.953158 -315.0625 37.875 C -318.39063 42.250024 -320.0625 47.093769 -320.0625 52.40625 C -320.0625 56.921884 -318.34375 60.593755 -314.875 63.4375 C -311.62501 66.09375 -307.68751 67.406249 -303.0625 67.40625 C -297.37502 67.406249 -292.75003 64.921876 -289.21875 59.9375 C -286.15629 55.62501 -284.62504 50.812515 -284.625 45.5 C -284.62504 40.4844 -285.96879 36.718779 -288.6875 34.21875 C -291.40628 31.718784 -295.51565 30.468786 -300.96875 30.46875 z M -300.96875 36.84375 C -297.39065 36.843779 -294.90628 37.437529 -293.5 38.65625 C -292.03128 39.937526 -291.28128 42.218774 -291.28125 45.5 C -291.28128 49.421892 -292.32815 52.921888 -294.4375 56 C -296.7344 59.375007 -299.62502 61.062505 -303.0625 61.0625 C -306.01564 61.062505 -308.43751 60.281256 -310.375 58.71875 C -312.39063 57.093759 -313.40626 55.000011 -313.40625 52.40625 C -313.40626 48.562517 -312.23438 45.062521 -309.90625 41.90625 C -307.42189 38.531277 -304.45314 36.843779 -300.96875 36.84375 z "
       xlink:href="#text3241-7"
       style="font-size:48px;font-style:normal;font-variant:normal;font-weight:bold;font-stretch:normal;line-height:125%;letter-spacing:0px;word-spacing:0px;fill:#000000;fill-opacity:1;stroke:none;font-family:Comic Sans MS;-inkscape-font-specification:Comic Sans MS Bold"
       id="path3249-1"
       inkscape:href="#text3241-7"
       d="m -266.4375,24.8125 c -4.44944,4.4e-5 -8.50788,1.400439 -11.125,4.46875 -2.09502,2.455491 -3.15086,5.687192 -3.65625,9.5 -0.55869,0.07632 -1.28915,0.02366 -1.84375,0.1875 -0.23279,0.06889 -0.45426,0.221049 -0.6875,0.3125 -0.80813,-3.049828 -2.21811,-5.740375 -4.4375,-7.78125 -3.63457,-3.342054 -8.76228,-4.71871 -14.78125,-4.71875 -6.75318,4.3e-5 -12.75766,3.211215 -17.03125,8.84375 -3.7637,4.947613 -5.75,10.691869 -5.75,16.78125 0,5.455257 2.3177,10.451903 6.53125,13.90625 3.92193,3.205434 8.83068,4.781249 14.15625,4.78125 6.76582,-10e-7 12.79758,-3.244752 16.875,-9 2.25926,-3.181438 3.72166,-6.722029 4.53125,-10.4375 0.61048,0.229466 1.23919,0.306988 1.875,0.375 l 0,7.84375 c -10e-6,1.733658 -0.18588,3.62959 -0.53125,5.6875 a 3.7033477,3.7033477 0 0 0 0,0.03125 c -0.0916,0.549573 -0.0625,0.953021 -0.0625,1.15625 -2e-5,1.779555 0.82119,3.756412 2.21875,4.96875 1.26566,1.097927 3.05027,1.718742 4.71875,1.71875 1.47438,-3e-6 3.1246,-0.415272 4.40625,-1.46875 1.28165,-1.053478 2.00726,-2.548785 2.3125,-3.96875 0.45182,-2.102036 0.59374,-4.554736 0.59375,-7.5625 -10e-6,-0.661781 -0.0318,-2.68761 -0.0937,-6.34375 -1.6e-4,-0.01288 1.6e-4,-0.01839 0,-0.03125 -0.0137,-1.131437 -0.002,-1.815162 0,-2.75 0.16599,-0.0016 0.60057,-0.035 0.71875,-0.03125 1.9696,0.0594 3.86352,-0.12301 5.625,-1.25 0.0368,-0.02355 0.0575,-0.06916 0.0937,-0.09375 0.12724,0.137862 0.17237,0.344386 0.3125,0.46875 1.11578,0.990284 2.60239,1.468813 4.0625,1.625 l 0,7.84375 c -10e-6,1.733658 -0.18588,3.62959 -0.53125,5.6875 a 3.7033477,3.7033477 0 0 0 0,0.03125 c -0.0916,0.549573 -0.0625,0.953021 -0.0625,1.15625 -2e-5,1.779555 0.82119,3.756412 2.21875,4.96875 1.26566,1.097927 3.05027,1.718742 4.71875,1.71875 1.47438,-3e-6 3.1246,-0.415272 4.40625,-1.46875 1.28165,-1.053478 2.00726,-2.548785 2.3125,-3.96875 0.45182,-2.102036 0.59374,-4.554736 0.59375,-7.5625 -1e-5,-0.661781 -0.0318,-2.68761 -0.0937,-6.34375 -1.6e-4,-0.01288 1.6e-4,-0.01839 0,-0.03125 -0.0137,-1.131437 -0.002,-1.815162 0,-2.75 0.16599,-0.0016 0.60057,-0.035 0.71875,-0.03125 1.9696,0.0594 3.86352,-0.12301 5.625,-1.25 1.76148,-1.12699 2.84373,-3.449257 2.84375,-5.40625 -2e-5,-1.896811 -1.0081,-4.159887 -2.6875,-5.3125 -0.94349,-0.647542 -1.92011,-0.963507 -2.9375,-1.15625 1.30024,-0.147398 2.57539,-0.457639 3.75,-1.34375 1.61638,-1.219371 2.46873,-3.386574 2.46875,-5.21875 -2e-5,-1.899709 -0.96353,-4.119304 -2.625,-5.3125 -1.66147,-1.193196 -3.49342,-1.468726 -5.375,-1.46875 -4.44944,4.4e-5 -8.50788,1.400439 -11.125,4.46875 -2.09502,2.455491 -3.15086,5.687192 -3.65625,9.5 -0.55869,0.07632 -1.28915,0.02366 -1.84375,0.1875 -0.80189,0.237305 -1.57401,0.682995 -2.3125,1.21875 -0.26157,-0.276697 -0.41053,-0.663461 -0.71875,-0.875 -0.94349,-0.647542 -1.92011,-0.963507 -2.9375,-1.15625 1.30024,-0.147398 2.57539,-0.457639 3.75,-1.34375 1.61638,-1.219371 2.46873,-3.386574 2.46875,-5.21875 -2e-5,-1.899709 -0.96353,-4.119304 -2.625,-5.3125 -1.66147,-1.193196 -3.49342,-1.468726 -5.375,-1.46875 z m -36.53125,15.71875 c 3.16847,2.6e-5 4.80628,0.742537 5.03125,0.9375 0.30278,0.275248 0.96873,1.34379 0.96875,4.03125 -2e-5,3.262952 -0.83885,5.936581 -2.53125,8.40625 -1.80689,2.654999 -3.33691,3.468753 -5.5625,3.46875 -2.30006,4e-6 -3.76677,-0.5367 -5,-1.53125 -1.27885,-1.031004 -1.65626,-1.810388 -1.65625,-3.4375 -10e-6,-3.091083 0.87702,-5.730918 2.78125,-8.3125 1.99879,-2.715338 3.67992,-3.562481 5.96875,-3.5625 z"
       transform="translate(0.1926356,0.4039797)" />
    <text
       xml:space="preserve"
       style="font-size:48px;font-style:normal;font-variant:normal;font-weight:bold;font-stretch:normal;line-height:125%;letter-spacing:0px;word-spacing:0px;fill:#ffff00;fill-opacity:1;stroke:none;font-family:Comic Sans MS;-inkscape-font-specification:Comic Sans MS Bold"
       x="-321.46875"
       y="65.99218"
       id="text3241-7"
       sodipodi:linespacing="125%"><tspan
         sodipodi:role="line"
         id="tspan3243-1"
         x="-321.46875"
         y="65.99218">Off</tspan></text>
    <text
       xml:space="preserve"
       style="font-size:36px;font-style:normal;font-variant:normal;font-weight:normal;font-stretch:normal;line-height:125%;letter-spacing:0px;word-spacing:0px;fill:#000000;fill-opacity:1;stroke:none;font-family:Comic Sans MS;-inkscape-font-specification:Comic Sans MS"
       x="-157.67273"
       y="95.418182"
       id="text3843"
       sodipodi:linespacing="125%"
       transform="translate(-683.46875,-7.5312507)"><tspan
         sodipodi:role="line"
         id="tspan3845"></tspan></text>
  </g>
</svg>
