<?xml version="1.0" encoding="UTF-8" standalone="no"?>
<!-- Created with Inkscape (http://www.inkscape.org/) -->

<svg
   xmlns:dc="http://purl.org/dc/elements/1.1/"
   xmlns:cc="http://creativecommons.org/ns#"
   xmlns:rdf="http://www.w3.org/1999/02/22-rdf-syntax-ns#"
   xmlns:svg="http://www.w3.org/2000/svg"
   xmlns="http://www.w3.org/2000/svg"
   xmlns:xlink="http://www.w3.org/1999/xlink"
   xmlns:sodipodi="http://sodipodi.sourceforge.net/DTD/sodipodi-0.dtd"
   xmlns:inkscape="http://www.inkscape.org/namespaces/inkscape"
   width="512"
   height="128"
   id="svg3213"
   version="1.1"
   inkscape:version="0.48.4 r9939"
   sodipodi:docname="options.svg">
  <defs
     id="defs3215" />
  <sodipodi:namedview
     id="base"
     pagecolor="#ffffff"
     bordercolor="#666666"
     borderopacity="1.0"
     inkscape:pageopacity="0.0"
     inkscape:pageshadow="2"
     inkscape:zoom="1.4"
     inkscape:cx="181.64714"
     inkscape:cy="57.544504"
     inkscape:document-units="px"
     inkscape:current-layer="layer1"
     showgrid="false"
     fit-margin-top="0"
     fit-margin-left="0"
     fit-margin-right="0"
     fit-margin-bottom="0"
     inkscape:window-width="1366"
     inkscape:window-height="716"
     inkscape:window-x="-8"
     inkscape:window-y="-8"
     inkscape:window-maximized="1" />
  <metadata
     id="metadata3218">
    <rdf:RDF>
      <cc:Work
         rdf:about="">
        <dc:format>image/svg+xml</dc:format>
        <dc:type
           rdf:resource="http://purl.org/dc/dcmitype/StillImage" />
        <dc:title></dc:title>
      </cc:Work>
    </rdf:RDF>
  </metadata>
  <g
     inkscape:label="Layer 1"
     inkscape:groupmode="layer"
     id="layer1"
     transform="translate(683.46875,7.5312507)">
    <flowRoot
       xml:space="preserve"
       id="flowRoot3221"
       style="font-size:22px;font-style:normal;font-variant:normal;font-weight:normal;font-stretch:normal;line-height:125%;letter-spacing:0px;word-spacing:0px;fill:#000000;fill-opacity:1;stroke:none;font-family:Comic Sans MS;-inkscape-font-specification:Comic Sans MS"><flowRegion
         id="flowRegion3223"><rect
           id="rect3225"
           width="42.857143"
           height="45.714287"
           x="-565.71429"
           y="149.50504" /></flowRegion><flowPara
         id="flowPara3227"></flowPara></flowRoot>    <path
       sodipodi:type="inkscape:offset"
       inkscape:radius="7.2668757"
       inkscape:original="M -516.6875 28.53125 C -522.35939 28.531286 -527.04689 30.984408 -530.78125 35.90625 C -534.10938 40.281274 -535.78125 45.125019 -535.78125 50.4375 C -535.78125 54.953134 -534.03125 58.656255 -530.5625 61.5 C -527.31251 64.15625 -523.37501 65.468749 -518.75 65.46875 C -513.06252 65.468749 -508.46878 62.984376 -504.9375 58 C -501.87504 53.68751 -500.34379 48.875015 -500.34375 43.5625 C -500.34379 38.5469 -501.68754 34.781279 -504.40625 32.28125 C -507.12503 29.781284 -511.2344 28.531286 -516.6875 28.53125 z M -442.8125 28.9375 C -443.81251 28.937535 -444.70313 29.26566 -445.4375 29.9375 C -446.17188 30.609408 -446.53125 31.437533 -446.53125 32.40625 C -446.53125 33.375031 -446.17188 34.203155 -445.4375 34.875 C -444.70313 35.546904 -443.81251 35.875028 -442.8125 35.875 C -441.81251 35.875028 -440.94532 35.546904 -440.21875 34.875 C -439.4922 34.203155 -439.15626 33.375031 -439.15625 32.40625 C -439.15626 31.437533 -439.4922 30.609408 -440.21875 29.9375 C -440.94532 29.26566 -441.81251 28.937535 -442.8125 28.9375 z M -462.3125 31.3125 C -463.21876 31.312533 -464.01563 31.578157 -464.65625 32.15625 C -465.29688 32.734406 -465.59376 33.468781 -465.59375 34.34375 C -465.59376 34.890654 -465.56251 35.656278 -465.5 36.65625 C -465.43751 37.812526 -465.42188 38.656275 -465.40625 39.15625 C -467.48438 38.968775 -468.79688 38.875025 -469.375 38.875 C -470.3125 38.875025 -471.09375 39.1719 -471.6875 39.78125 C -472.28125 40.390649 -472.5625 41.125023 -472.5625 42 C -472.5625 43.81252 -471.58594 44.820332 -469.625 45.03125 C -467.66407 45.242206 -466.18751 45.390644 -465.21875 45.4375 C -464.93751 51.640637 -464.81251 55.671883 -464.8125 57.5625 C -464.81251 58.125006 -464.82813 58.968755 -464.875 60.09375 C -464.92188 61.218753 -464.93751 62.062502 -464.9375 62.625 C -464.93751 63.468751 -464.59376 64.1875 -463.90625 64.75 C -463.28126 65.281249 -462.54689 65.531249 -461.6875 65.53125 C -459.42189 65.531249 -458.28126 63.75 -458.28125 60.15625 C -458.28126 59.812504 -458.29689 59.367192 -458.3125 58.8125 C -458.32814 58.257818 -458.34376 57.859381 -458.34375 57.65625 C -458.34376 55.718758 -458.46876 51.593762 -458.75 45.28125 C -457.90627 45.156269 -457.17189 45.093769 -456.53125 45.09375 C -456.20314 45.093769 -455.82033 45.101581 -455.375 45.125 C -454.92971 45.148456 -454.54689 45.187519 -454.21875 45.1875 C -453.28127 45.187519 -452.51565 44.875019 -451.90625 44.28125 C -451.2969 43.68752 -450.96877 42.953146 -450.96875 42.0625 C -450.96877 40.593773 -451.59377 39.625024 -452.84375 39.1875 C -453.50002 38.95315 -454.73439 38.843775 -456.53125 38.84375 C -457.14064 38.843775 -457.93752 38.9219 -458.90625 39.0625 L -458.84375 37.125 C -458.84376 33.234406 -460.00001 31.312533 -462.3125 31.3125 z M -516.6875 34.875 C -513.1094 34.875029 -510.59378 35.500029 -509.1875 36.71875 C -507.71878 38.000026 -507.00003 40.281274 -507 43.5625 C -507.00003 47.484392 -508.0469 50.984388 -510.15625 54.0625 C -512.45315 57.437507 -515.31252 59.125005 -518.75 59.125 C -521.70314 59.125005 -524.15626 58.343756 -526.09375 56.78125 C -528.10938 55.156259 -529.12501 53.031261 -529.125 50.4375 C -529.12501 46.593767 -527.95313 43.093771 -525.625 39.9375 C -523.14064 36.562527 -520.17189 34.875029 -516.6875 34.875 z M -493.40625 38.28125 C -494.54688 38.281276 -495.45313 38.7969 -496.125 39.84375 C -496.70313 40.765648 -497 41.890647 -497 43.1875 C -497 42.906271 -496.85938 44.453145 -496.625 47.8125 C -496.45313 50.250014 -496.35938 53.156261 -496.3125 56.53125 C -496.28125 58.92188 -496.28125 62.000002 -496.3125 65.78125 C -496.34375 70.874993 -496.34375 73.796865 -496.34375 74.53125 C -496.34375 75.437489 -496.04688 76.187488 -495.4375 76.78125 C -494.82813 77.374987 -494.0625 77.656236 -493.125 77.65625 C -492.18751 77.656236 -491.42188 77.374987 -490.8125 76.78125 C -490.20313 76.187488 -489.87501 75.437489 -489.875 74.53125 L -489.875 64.96875 C -488.39064 65.281249 -486.96876 65.437499 -485.625 65.4375 C -482.10939 65.437499 -479.31252 64.203125 -477.21875 61.78125 C -475.26565 59.531255 -474.28127 56.703132 -474.28125 53.28125 C -474.28127 49.625014 -474.89065 46.640642 -476.125 44.34375 C -477.78127 41.296898 -480.40627 39.781274 -484 39.78125 C -485.06251 39.781274 -486.13283 39.929712 -487.1875 40.21875 C -488.2422 40.507836 -489.29688 40.937523 -490.34375 41.53125 L -490.3125 41.3125 C -490.31251 40.484399 -490.59376 39.781274 -491.1875 39.1875 C -491.78126 38.593775 -492.53126 38.281276 -493.40625 38.28125 z M -406.46875 38.4375 C -407.39063 38.437526 -408.17969 38.742213 -408.8125 39.3125 C -409.44531 39.882837 -409.75 40.593773 -409.75 41.46875 C -409.75 41.921897 -409.71094 42.601584 -409.65625 43.53125 C -409.60156 44.460957 -409.59375 45.187519 -409.59375 45.65625 C -409.59375 47.156267 -409.6875 49.23439 -409.90625 51.90625 C -410.125 54.578134 -410.25 56.656257 -410.25 58.15625 C -410.25 58.593755 -410.1875 59.242192 -410.09375 60.125 C -410 61.007816 -409.96875 61.687502 -409.96875 62.125 C -409.96875 63.015626 -409.67188 63.757813 -409.0625 64.34375 C -408.45313 64.929687 -407.65625 65.218749 -406.71875 65.21875 C -405.78126 65.218749 -405.02344 64.929687 -404.40625 64.34375 C -403.78907 63.757813 -403.46876 63.015626 -403.46875 62.125 C -403.46876 61.687502 -403.52345 61.007816 -403.625 60.125 C -403.72657 59.242192 -403.78126 58.593755 -403.78125 58.15625 C -403.78126 57.484382 -403.71876 56.796882 -403.625 56.09375 C -403.51563 55.234384 -403.46876 54.546884 -403.4375 54.03125 C -402.65626 51.453138 -401.57032 49.335952 -400.1875 47.65625 C -398.8047 45.976581 -397.37501 45.125019 -395.9375 45.125 C -395.26564 45.125019 -394.93752 45.765643 -394.9375 47.0625 C -394.93752 47.343767 -394.96877 47.710954 -395 48.15625 C -395.03127 48.601578 -395.03127 48.89064 -395.03125 49 C -395.03127 49.406265 -395.07033 50.109389 -395.125 51.09375 C -395.1797 52.078137 -395.18752 52.750011 -395.1875 53.15625 C -395.18752 54.671884 -395.07814 56.312508 -394.84375 58.03125 C -394.62502 59.656254 -394.40627 61.265628 -394.1875 62.875 C -393.96877 64.765624 -392.89064 65.718748 -390.96875 65.71875 C -390.0469 65.718748 -389.28127 65.421874 -388.65625 64.84375 C -388.03127 64.265625 -387.71877 63.531251 -387.71875 62.65625 C -387.71877 61.453128 -387.88284 59.890629 -388.21875 57.96875 C -388.55471 56.046883 -388.71877 54.46876 -388.71875 53.25 C -388.71877 52.953136 -388.7344 52.468762 -388.71875 51.75 L -388.71875 50.0625 C -388.71877 46.765642 -389.09377 44.31252 -389.84375 42.65625 C -390.96877 40.187524 -392.98439 38.937525 -395.9375 38.9375 C -398.46876 38.937525 -400.87501 40.078149 -403.15625 42.375 L -403.1875 42.125 C -403.32813 39.671899 -404.42188 38.437526 -406.46875 38.4375 z M -370.5625 39.03125 C -374.54689 39.031275 -377.51563 39.3594 -379.46875 40 C -382.79688 41.093773 -384.46875 43.203146 -384.46875 46.34375 C -384.46875 48.562515 -383.35938 50.453139 -381.15625 52 C -380.25001 52.625011 -378.18751 53.640635 -374.96875 55.0625 C -372.76564 56.031258 -371.65627 56.921882 -371.65625 57.71875 C -371.67189 59.000005 -373.26564 59.625004 -376.4375 59.625 C -377.17188 59.625004 -378.23438 59.42188 -379.59375 58.96875 C -380.95313 58.515631 -382 58.281256 -382.71875 58.28125 C -384.57813 58.281256 -385.5 59.062505 -385.5 60.625 C -385.5 62.328127 -384.3125 63.625 -381.96875 64.5 C -380.25001 65.140624 -378.35938 65.437499 -376.28125 65.4375 C -373.34376 65.437499 -370.85939 64.890624 -368.84375 63.78125 C -366.34377 62.390627 -365.09377 60.343754 -365.09375 57.65625 C -365.09377 55.593758 -366.2344 53.765635 -368.5 52.125 C -369.59377 51.328138 -371.68752 50.203139 -374.78125 48.78125 C -377.04688 47.750016 -378.18751 46.921892 -378.1875 46.3125 C -378.18751 45.281269 -376.29689 44.781269 -372.53125 44.78125 C -371.87501 44.781269 -371.25002 44.828144 -370.625 44.9375 C -370.31252 46.234393 -369.35939 46.875017 -367.8125 46.875 C -366.2969 46.875017 -365.56252 45.468769 -365.5625 42.65625 C -365.56252 41.187523 -366.06252 40.203149 -367.09375 39.65625 C -367.84377 39.250025 -369.00002 39.031275 -370.5625 39.03125 z M -443.59375 39.46875 C -444.53126 39.468775 -445.29688 39.757837 -445.90625 40.34375 C -446.51563 40.929711 -446.84375 41.687522 -446.84375 42.59375 C -446.84375 43.984395 -446.90625 45.718768 -447.0625 47.8125 C -447.21875 49.906264 -447.3125 51.671887 -447.3125 53.0625 C -447.3125 53.953135 -447.27344 55.375009 -447.21875 57.34375 C -447.16407 59.312505 -447.125 60.734378 -447.125 61.625 C -447.125 62.531252 -446.82813 63.289063 -446.21875 63.875 C -445.60938 64.460937 -444.84376 64.749999 -443.90625 64.75 C -442.96876 64.749999 -442.20313 64.460937 -441.59375 63.875 C -440.98438 63.289063 -440.65626 62.531252 -440.65625 61.625 C -440.65626 60.734378 -440.69532 59.312505 -440.75 57.34375 C -440.8047 55.375009 -440.84376 53.953135 -440.84375 53.0625 C -440.84376 51.671887 -440.75001 49.906264 -440.59375 47.8125 C -440.43751 45.718768 -440.37501 43.984395 -440.375 42.59375 C -440.37501 41.687522 -440.67188 40.929711 -441.28125 40.34375 C -441.89063 39.757837 -442.65626 39.468775 -443.59375 39.46875 z M -423.3125 39.75 C -427.54688 39.750024 -430.84376 41.343773 -433.21875 44.53125 C -435.21875 47.234392 -436.17188 50.296889 -436.0625 53.75 C -435.95313 57.375007 -434.75 60.265629 -432.46875 62.4375 C -430.39063 64.421875 -427.89063 65.437499 -425 65.4375 C -421.34377 65.437499 -418.45314 63.984375 -416.28125 61.125 C -414.34377 58.562505 -413.37502 55.468759 -413.375 51.84375 C -413.37502 48.515641 -414.18752 45.750018 -415.84375 43.5 C -417.68752 41.000023 -420.18752 39.750024 -423.3125 39.75 z M -423.59375 45.9375 C -420.75002 45.953143 -419.45314 48.468766 -419.65625 53.5 C -419.73439 55.343759 -420.32814 56.796882 -421.46875 57.875 C -422.46876 58.79688 -423.64064 59.250005 -425 59.25 C -426.12501 59.250005 -427.12501 58.85938 -427.96875 58.0625 C -429.03126 57.062507 -429.56251 55.625008 -429.5625 53.75 C -429.56251 51.765637 -429.09376 50.046889 -428.15625 48.5625 C -427.04689 46.796892 -425.51564 45.921893 -423.59375 45.9375 z M -484 46.03125 C -482.46877 46.031268 -481.48439 47.000017 -481.03125 48.90625 C -480.84377 49.718764 -480.75002 51.171888 -480.75 53.28125 C -480.75002 55.031259 -481.12502 56.437508 -481.90625 57.46875 C -482.76564 58.60938 -484.01564 59.156255 -485.625 59.15625 C -487.01564 59.156255 -488.39064 58.95313 -489.78125 58.5 C -489.78126 55.265634 -489.87501 52.031262 -490.0625 48.8125 C -489.03126 47.890641 -488.01564 47.179704 -487 46.71875 C -485.98439 46.25783 -484.98439 46.031268 -484 46.03125 z "
       xlink:href="#text3241"
       style="font-size:48px;font-style:normal;font-variant:normal;font-weight:bold;font-stretch:normal;line-height:125%;letter-spacing:0px;word-spacing:0px;fill:#ffffff;fill-opacity:1;stroke:none;font-family:Comic Sans MS;-inkscape-font-specification:Comic Sans MS Bold"
       id="path3247"
       inkscape:href="#text3241"
       d="m -516.6875,21.25 c -7.76717,4.9e-5 -15.07349,3.921665 -19.875,10.25 -4.18292,5.498696 -6.5,12.100399 -6.5,18.9375 0,6.393116 2.97223,12.642503 7.90625,16.6875 4.56863,3.733991 10.40643,5.624999 16.40625,5.625 5.58107,-10e-7 10.88332,-2.135613 15.15625,-5.6875 -0.0193,3.79636 -0.0312,6.844129 -0.0312,7.46875 0,2.49325 1.16985,5.563708 3.125,7.46875 1.9669,1.916443 4.98419,2.937464 7.375,2.9375 2.39082,-3.6e-5 5.40811,-1.021104 7.375,-2.9375 1.86618,-1.818378 3.15622,-4.808487 3.15625,-7.46875 l 0,-2.15625 c 4.16953,-0.686305 8.14375,-2.684504 10.875,-5.84375 0.10872,-0.125247 0.17627,-0.278121 0.28125,-0.40625 0.64049,1.618878 1.64034,3.101448 2.84375,4.125 l -0.0312,0.03125 c 0.028,0.02376 0.0654,0.03905 0.0937,0.0625 0.007,0.0057 0.0244,-0.0057 0.0312,0 0.006,0.0049 -0.006,0.02633 0,0.03125 1.9023,1.560091 4.58964,2.437497 6.8125,2.4375 3.03724,-10e-7 6.94261,-1.972506 8.6875,-4.71875 0.21607,-0.340068 0.23388,-0.663659 0.40625,-1 0.4244,0.69675 0.76807,1.47772 1.34375,2.03125 1.94073,1.866101 4.91252,2.906247 7.34375,2.90625 2.43125,-3e-6 5.40301,-1.040168 7.34375,-2.90625 0.13098,-0.125941 0.18803,-0.332877 0.3125,-0.46875 3.16318,2.515513 7.18344,4.062499 11.25,4.0625 3.78766,-10e-7 7.53726,-1.363718 10.625,-3.5625 0.11582,0.125918 0.15917,0.32012 0.28125,0.4375 2.03023,1.952161 4.94376,2.906247 7.375,2.90625 2.43125,-3e-6 5.4067,-1.065706 7.3125,-2.875 0.15639,-0.148477 0.22757,-0.399176 0.375,-0.5625 0.35235,0.456181 0.54844,0.975989 1,1.375 2.1481,1.898135 4.90027,2.562498 7.0625,2.5625 1.97924,-4e-6 4.09566,-0.810281 5.875,-1.96875 0.19825,0.08117 0.3956,0.207275 0.59375,0.28125 2.66447,0.993126 5.44854,1.406249 8.21875,1.40625 3.83941,-10e-7 7.59589,-0.723334 10.9375,-2.5625 a 7.2676024,7.2676024 0 0 0 0.0312,-0.03125 c 4.24796,-2.362943 7.49996,-7.527982 7.5,-12.46875 -3e-5,-2.768868 -1.09401,-5.304016 -2.625,-7.46875 0.2565,-0.324455 0.5737,-0.63646 0.75,-0.96875 1.32046,-2.488825 1.40624,-4.523762 1.40625,-6.5625 -4e-5,-3.09935 -2.01861,-7.570919 -5.34375,-9.375 -0.0231,-0.0125 -0.0395,-0.01895 -0.0625,-0.03125 -2.50945,-1.340545 -4.6547,-1.499964 -6.875,-1.5 -4.38333,2.8e-5 -7.82934,0.252562 -11.15625,1.34375 a 7.2676024,7.2676024 0 0 0 -0.0312,0 c -1.64503,0.540631 -3.18849,1.454458 -4.65625,2.5625 -2.65595,-2.379035 -6.18168,-3.999972 -9.53125,-4 -1.78458,1.8e-5 -3.50325,0.440106 -5.15625,1.03125 -1.75123,-0.990116 -3.72398,-1.531229 -5.375,-1.53125 -2.52293,7.1e-5 -5.31051,1.0303 -7.21875,2.75 -0.35958,0.324079 -0.5622,0.848291 -0.875,1.25 -2.64846,-1.6404 -5.70777,-2.687477 -8.75,-2.6875 -3.15128,1.8e-5 -6.28463,0.824417 -9.09375,2.25 0.19101,-0.786099 0.53124,-1.574992 0.53125,-2.3125 -3e-5,-2.648721 -1.3143,-5.877883 -3.40625,-7.8125 -1.97682,-1.827917 -4.94176,-2.937409 -7.53125,-2.9375 -2.58947,9.1e-5 -5.50738,1.054711 -7.53125,2.90625 -1.40615,1.286533 -2.28948,3.203177 -2.84375,5.15625 -0.12191,-0.235157 -0.13918,-0.449919 -0.28125,-0.6875 -1.6766,-2.803773 -5.67439,-4.999955 -8.84375,-5 -2.32605,8.5e-5 -5.17489,0.874377 -7.21875,2.71875 -1.5351,1.385396 -2.41076,3.456005 -2.875,5.46875 -1.51806,0.455576 -2.96973,1.173796 -4.15625,2.28125 -2.33727,-1.213013 -4.89215,-1.999983 -7.4375,-2 -1.24912,2.8e-5 -2.44597,0.292844 -3.65625,0.53125 -1.73745,-1.155041 -3.75708,-2.031191 -5.75,-2.03125 -0.86314,2e-5 -1.77361,0.165704 -2.65625,0.4375 -0.92423,-1.645623 -2.01726,-3.193998 -3.4375,-4.5 -4.51597,-4.152513 -10.62391,-5.687457 -17.1875,-5.6875 z m 0,20.90625 c 1.14793,9e-6 1.8065,0.133499 2.3125,0.25 0.05,0.290552 0.0937,0.44844 0.0937,1.15625 -2e-5,2.628761 -0.58389,4.522173 -1.875,6.40625 -1.35253,1.987379 -1.53454,1.875002 -2.59375,1.875 -1.67151,3e-6 -2.25555,-0.294794 -2.78125,-0.71875 -0.53431,-0.430756 -0.3125,0.0093 -0.3125,-0.6875 -10e-6,-2.366701 0.56625,-4.159023 2.0625,-6.1875 1.53147,-2.080479 1.95557,-2.093741 3.09375,-2.09375 z m 23.59375,1.03125 3.375,0 c 0,0.06691 -0.0204,0.136928 -0.0312,0.34375 -0.005,0.103411 -0.003,0.261616 -0.0312,0.5 -0.0284,0.238384 -0.31277,1.407075 -0.3125,1.40625 7e-5,-2.06e-4 -0.34382,0.87515 -0.34375,0.875 7e-5,-1.5e-4 -0.90633,1.406345 -0.90625,1.40625 7e-5,-9e-5 -2.15349,1.699136 -2.375,1.875 0.37662,-1.981893 0.65623,-3.983616 0.65625,-6.03125 0,-0.126304 -0.0297,-0.248832 -0.0312,-0.375 z M -425,51.96875 c 0.54975,-2e-6 1.60853,0.458 2,0.8125 0.0549,0.05164 0.0157,0.03706 0.0625,0.09375 -0.32791,0.176743 -0.54135,0.333213 -0.6875,0.34375 -0.41451,-0.0023 -1.28861,-0.455509 -2.0625,-0.96875 0.28526,-0.110211 0.56218,-0.28125 0.6875,-0.28125 z" />
    <path
       sodipodi:type="inkscape:offset"
       inkscape:radius="3.7029774"
       inkscape:original="M -516.6875 28.53125 C -522.35939 28.531286 -527.04689 30.984408 -530.78125 35.90625 C -534.10938 40.281274 -535.78125 45.125019 -535.78125 50.4375 C -535.78125 54.953134 -534.03125 58.656255 -530.5625 61.5 C -527.31251 64.15625 -523.37501 65.468749 -518.75 65.46875 C -513.06252 65.468749 -508.46878 62.984376 -504.9375 58 C -501.87504 53.68751 -500.34379 48.875015 -500.34375 43.5625 C -500.34379 38.5469 -501.68754 34.781279 -504.40625 32.28125 C -507.12503 29.781284 -511.2344 28.531286 -516.6875 28.53125 z M -442.8125 28.9375 C -443.81251 28.937535 -444.70313 29.26566 -445.4375 29.9375 C -446.17188 30.609408 -446.53125 31.437533 -446.53125 32.40625 C -446.53125 33.375031 -446.17188 34.203155 -445.4375 34.875 C -444.70313 35.546904 -443.81251 35.875028 -442.8125 35.875 C -441.81251 35.875028 -440.94532 35.546904 -440.21875 34.875 C -439.4922 34.203155 -439.15626 33.375031 -439.15625 32.40625 C -439.15626 31.437533 -439.4922 30.609408 -440.21875 29.9375 C -440.94532 29.26566 -441.81251 28.937535 -442.8125 28.9375 z M -462.3125 31.3125 C -463.21876 31.312533 -464.01563 31.578157 -464.65625 32.15625 C -465.29688 32.734406 -465.59376 33.468781 -465.59375 34.34375 C -465.59376 34.890654 -465.56251 35.656278 -465.5 36.65625 C -465.43751 37.812526 -465.42188 38.656275 -465.40625 39.15625 C -467.48438 38.968775 -468.79688 38.875025 -469.375 38.875 C -470.3125 38.875025 -471.09375 39.1719 -471.6875 39.78125 C -472.28125 40.390649 -472.5625 41.125023 -472.5625 42 C -472.5625 43.81252 -471.58594 44.820332 -469.625 45.03125 C -467.66407 45.242206 -466.18751 45.390644 -465.21875 45.4375 C -464.93751 51.640637 -464.81251 55.671883 -464.8125 57.5625 C -464.81251 58.125006 -464.82813 58.968755 -464.875 60.09375 C -464.92188 61.218753 -464.93751 62.062502 -464.9375 62.625 C -464.93751 63.468751 -464.59376 64.1875 -463.90625 64.75 C -463.28126 65.281249 -462.54689 65.531249 -461.6875 65.53125 C -459.42189 65.531249 -458.28126 63.75 -458.28125 60.15625 C -458.28126 59.812504 -458.29689 59.367192 -458.3125 58.8125 C -458.32814 58.257818 -458.34376 57.859381 -458.34375 57.65625 C -458.34376 55.718758 -458.46876 51.593762 -458.75 45.28125 C -457.90627 45.156269 -457.17189 45.093769 -456.53125 45.09375 C -456.20314 45.093769 -455.82033 45.101581 -455.375 45.125 C -454.92971 45.148456 -454.54689 45.187519 -454.21875 45.1875 C -453.28127 45.187519 -452.51565 44.875019 -451.90625 44.28125 C -451.2969 43.68752 -450.96877 42.953146 -450.96875 42.0625 C -450.96877 40.593773 -451.59377 39.625024 -452.84375 39.1875 C -453.50002 38.95315 -454.73439 38.843775 -456.53125 38.84375 C -457.14064 38.843775 -457.93752 38.9219 -458.90625 39.0625 L -458.84375 37.125 C -458.84376 33.234406 -460.00001 31.312533 -462.3125 31.3125 z M -516.6875 34.875 C -513.1094 34.875029 -510.59378 35.500029 -509.1875 36.71875 C -507.71878 38.000026 -507.00003 40.281274 -507 43.5625 C -507.00003 47.484392 -508.0469 50.984388 -510.15625 54.0625 C -512.45315 57.437507 -515.31252 59.125005 -518.75 59.125 C -521.70314 59.125005 -524.15626 58.343756 -526.09375 56.78125 C -528.10938 55.156259 -529.12501 53.031261 -529.125 50.4375 C -529.12501 46.593767 -527.95313 43.093771 -525.625 39.9375 C -523.14064 36.562527 -520.17189 34.875029 -516.6875 34.875 z M -493.40625 38.28125 C -494.54688 38.281276 -495.45313 38.7969 -496.125 39.84375 C -496.70313 40.765648 -497 41.890647 -497 43.1875 C -497 42.906271 -496.85938 44.453145 -496.625 47.8125 C -496.45313 50.250014 -496.35938 53.156261 -496.3125 56.53125 C -496.28125 58.92188 -496.28125 62.000002 -496.3125 65.78125 C -496.34375 70.874993 -496.34375 73.796865 -496.34375 74.53125 C -496.34375 75.437489 -496.04688 76.187488 -495.4375 76.78125 C -494.82813 77.374987 -494.0625 77.656236 -493.125 77.65625 C -492.18751 77.656236 -491.42188 77.374987 -490.8125 76.78125 C -490.20313 76.187488 -489.87501 75.437489 -489.875 74.53125 L -489.875 64.96875 C -488.39064 65.281249 -486.96876 65.437499 -485.625 65.4375 C -482.10939 65.437499 -479.31252 64.203125 -477.21875 61.78125 C -475.26565 59.531255 -474.28127 56.703132 -474.28125 53.28125 C -474.28127 49.625014 -474.89065 46.640642 -476.125 44.34375 C -477.78127 41.296898 -480.40627 39.781274 -484 39.78125 C -485.06251 39.781274 -486.13283 39.929712 -487.1875 40.21875 C -488.2422 40.507836 -489.29688 40.937523 -490.34375 41.53125 L -490.3125 41.3125 C -490.31251 40.484399 -490.59376 39.781274 -491.1875 39.1875 C -491.78126 38.593775 -492.53126 38.281276 -493.40625 38.28125 z M -406.46875 38.4375 C -407.39063 38.437526 -408.17969 38.742213 -408.8125 39.3125 C -409.44531 39.882837 -409.75 40.593773 -409.75 41.46875 C -409.75 41.921897 -409.71094 42.601584 -409.65625 43.53125 C -409.60156 44.460957 -409.59375 45.187519 -409.59375 45.65625 C -409.59375 47.156267 -409.6875 49.23439 -409.90625 51.90625 C -410.125 54.578134 -410.25 56.656257 -410.25 58.15625 C -410.25 58.593755 -410.1875 59.242192 -410.09375 60.125 C -410 61.007816 -409.96875 61.687502 -409.96875 62.125 C -409.96875 63.015626 -409.67188 63.757813 -409.0625 64.34375 C -408.45313 64.929687 -407.65625 65.218749 -406.71875 65.21875 C -405.78126 65.218749 -405.02344 64.929687 -404.40625 64.34375 C -403.78907 63.757813 -403.46876 63.015626 -403.46875 62.125 C -403.46876 61.687502 -403.52345 61.007816 -403.625 60.125 C -403.72657 59.242192 -403.78126 58.593755 -403.78125 58.15625 C -403.78126 57.484382 -403.71876 56.796882 -403.625 56.09375 C -403.51563 55.234384 -403.46876 54.546884 -403.4375 54.03125 C -402.65626 51.453138 -401.57032 49.335952 -400.1875 47.65625 C -398.8047 45.976581 -397.37501 45.125019 -395.9375 45.125 C -395.26564 45.125019 -394.93752 45.765643 -394.9375 47.0625 C -394.93752 47.343767 -394.96877 47.710954 -395 48.15625 C -395.03127 48.601578 -395.03127 48.89064 -395.03125 49 C -395.03127 49.406265 -395.07033 50.109389 -395.125 51.09375 C -395.1797 52.078137 -395.18752 52.750011 -395.1875 53.15625 C -395.18752 54.671884 -395.07814 56.312508 -394.84375 58.03125 C -394.62502 59.656254 -394.40627 61.265628 -394.1875 62.875 C -393.96877 64.765624 -392.89064 65.718748 -390.96875 65.71875 C -390.0469 65.718748 -389.28127 65.421874 -388.65625 64.84375 C -388.03127 64.265625 -387.71877 63.531251 -387.71875 62.65625 C -387.71877 61.453128 -387.88284 59.890629 -388.21875 57.96875 C -388.55471 56.046883 -388.71877 54.46876 -388.71875 53.25 C -388.71877 52.953136 -388.7344 52.468762 -388.71875 51.75 L -388.71875 50.0625 C -388.71877 46.765642 -389.09377 44.31252 -389.84375 42.65625 C -390.96877 40.187524 -392.98439 38.937525 -395.9375 38.9375 C -398.46876 38.937525 -400.87501 40.078149 -403.15625 42.375 L -403.1875 42.125 C -403.32813 39.671899 -404.42188 38.437526 -406.46875 38.4375 z M -370.5625 39.03125 C -374.54689 39.031275 -377.51563 39.3594 -379.46875 40 C -382.79688 41.093773 -384.46875 43.203146 -384.46875 46.34375 C -384.46875 48.562515 -383.35938 50.453139 -381.15625 52 C -380.25001 52.625011 -378.18751 53.640635 -374.96875 55.0625 C -372.76564 56.031258 -371.65627 56.921882 -371.65625 57.71875 C -371.67189 59.000005 -373.26564 59.625004 -376.4375 59.625 C -377.17188 59.625004 -378.23438 59.42188 -379.59375 58.96875 C -380.95313 58.515631 -382 58.281256 -382.71875 58.28125 C -384.57813 58.281256 -385.5 59.062505 -385.5 60.625 C -385.5 62.328127 -384.3125 63.625 -381.96875 64.5 C -380.25001 65.140624 -378.35938 65.437499 -376.28125 65.4375 C -373.34376 65.437499 -370.85939 64.890624 -368.84375 63.78125 C -366.34377 62.390627 -365.09377 60.343754 -365.09375 57.65625 C -365.09377 55.593758 -366.2344 53.765635 -368.5 52.125 C -369.59377 51.328138 -371.68752 50.203139 -374.78125 48.78125 C -377.04688 47.750016 -378.18751 46.921892 -378.1875 46.3125 C -378.18751 45.281269 -376.29689 44.781269 -372.53125 44.78125 C -371.87501 44.781269 -371.25002 44.828144 -370.625 44.9375 C -370.31252 46.234393 -369.35939 46.875017 -367.8125 46.875 C -366.2969 46.875017 -365.56252 45.468769 -365.5625 42.65625 C -365.56252 41.187523 -366.06252 40.203149 -367.09375 39.65625 C -367.84377 39.250025 -369.00002 39.031275 -370.5625 39.03125 z M -443.59375 39.46875 C -444.53126 39.468775 -445.29688 39.757837 -445.90625 40.34375 C -446.51563 40.929711 -446.84375 41.687522 -446.84375 42.59375 C -446.84375 43.984395 -446.90625 45.718768 -447.0625 47.8125 C -447.21875 49.906264 -447.3125 51.671887 -447.3125 53.0625 C -447.3125 53.953135 -447.27344 55.375009 -447.21875 57.34375 C -447.16407 59.312505 -447.125 60.734378 -447.125 61.625 C -447.125 62.531252 -446.82813 63.289063 -446.21875 63.875 C -445.60938 64.460937 -444.84376 64.749999 -443.90625 64.75 C -442.96876 64.749999 -442.20313 64.460937 -441.59375 63.875 C -440.98438 63.289063 -440.65626 62.531252 -440.65625 61.625 C -440.65626 60.734378 -440.69532 59.312505 -440.75 57.34375 C -440.8047 55.375009 -440.84376 53.953135 -440.84375 53.0625 C -440.84376 51.671887 -440.75001 49.906264 -440.59375 47.8125 C -440.43751 45.718768 -440.37501 43.984395 -440.375 42.59375 C -440.37501 41.687522 -440.67188 40.929711 -441.28125 40.34375 C -441.89063 39.757837 -442.65626 39.468775 -443.59375 39.46875 z M -423.3125 39.75 C -427.54688 39.750024 -430.84376 41.343773 -433.21875 44.53125 C -435.21875 47.234392 -436.17188 50.296889 -436.0625 53.75 C -435.95313 57.375007 -434.75 60.265629 -432.46875 62.4375 C -430.39063 64.421875 -427.89063 65.437499 -425 65.4375 C -421.34377 65.437499 -418.45314 63.984375 -416.28125 61.125 C -414.34377 58.562505 -413.37502 55.468759 -413.375 51.84375 C -413.37502 48.515641 -414.18752 45.750018 -415.84375 43.5 C -417.68752 41.000023 -420.18752 39.750024 -423.3125 39.75 z M -423.59375 45.9375 C -420.75002 45.953143 -419.45314 48.468766 -419.65625 53.5 C -419.73439 55.343759 -420.32814 56.796882 -421.46875 57.875 C -422.46876 58.79688 -423.64064 59.250005 -425 59.25 C -426.12501 59.250005 -427.12501 58.85938 -427.96875 58.0625 C -429.03126 57.062507 -429.56251 55.625008 -429.5625 53.75 C -429.56251 51.765637 -429.09376 50.046889 -428.15625 48.5625 C -427.04689 46.796892 -425.51564 45.921893 -423.59375 45.9375 z M -484 46.03125 C -482.46877 46.031268 -481.48439 47.000017 -481.03125 48.90625 C -480.84377 49.718764 -480.75002 51.171888 -480.75 53.28125 C -480.75002 55.031259 -481.12502 56.437508 -481.90625 57.46875 C -482.76564 58.60938 -484.01564 59.156255 -485.625 59.15625 C -487.01564 59.156255 -488.39064 58.95313 -489.78125 58.5 C -489.78126 55.265634 -489.87501 52.031262 -490.0625 48.8125 C -489.03126 47.890641 -488.01564 47.179704 -487 46.71875 C -485.98439 46.25783 -484.98439 46.031268 -484 46.03125 z "
       xlink:href="#text3241"
       style="font-size:48px;font-style:normal;font-variant:normal;font-weight:bold;font-stretch:normal;line-height:125%;letter-spacing:0px;word-spacing:0px;fill:#000000;fill-opacity:1;stroke:none;font-family:Comic Sans MS;-inkscape-font-specification:Comic Sans MS Bold"
       id="path3249"
       inkscape:href="#text3241"
       d="m -516.6875,24.84375 c -6.73958,4.3e-5 -12.7531,3.173952 -17.03125,8.8125 -3.7637,4.947613 -5.75,10.691869 -5.75,16.78125 0,5.472341 2.3471,10.481634 6.5625,13.9375 3.92193,3.205434 8.83068,4.781249 14.15625,4.78125 6.76582,-10e-7 12.77229,-3.253161 16.84375,-9 0.72687,-1.023562 1.32711,-2.101009 1.90625,-3.1875 0.027,2.308513 0.0298,5.170792 0,8.78125 -0.0313,5.10243 -0.0312,8.046865 -0.0312,8.78125 0,1.714931 0.70486,3.6443 2,4.90625 1.30113,1.267747 3.22819,1.906225 4.90625,1.90625 1.67806,-2.5e-5 3.60513,-0.638526 4.90625,-1.90625 1.2498,-1.217789 2.03123,-3.106214 2.03125,-4.90625 l 0,-5.46875 c 0.18466,0.0048 0.37894,0.0625 0.5625,0.0625 4.36698,-10e-7 8.4343,-1.742312 11.1875,-4.90625 0.01,-0.01101 0.0217,-0.02021 0.0312,-0.03125 2.53727,-2.940589 3.81248,-6.789668 3.8125,-10.90625 -10e-6,-1.702001 -0.18432,-3.282896 -0.4375,-4.8125 0.33887,0.07555 0.66778,0.214267 1,0.25 0.53287,0.05732 0.78505,0.04565 1.25,0.09375 0.14461,3.669911 0.28124,7.487206 0.28125,8.75 -10e-6,0.494021 -0.0174,1.292755 -0.0625,2.375 -0.0487,1.167747 -0.0625,2.05634 -0.0625,2.6875 -2e-5,1.820908 0.93217,3.772137 2.3125,4.9375 0.005,0.004 0.0265,-0.0039 0.0312,0 0.0107,0.009 0.0204,0.02228 0.0312,0.03125 1.27421,1.058294 3.00659,1.624998 4.5625,1.625 2.10325,-10e-7 4.51962,-1.193143 5.6875,-3.03125 1.16788,-1.838107 1.40624,-3.842611 1.40625,-6.03125 -10e-6,-0.455902 -0.016,-0.89658 -0.0312,-1.4375 -0.0162,-0.574177 -0.0312,-1.049437 -0.0312,-1.0625 -10e-6,-1.474487 -0.14562,-5.27367 -0.28125,-8.8125 0.22744,0.01597 0.386,0.03127 0.71875,0.03125 1.20569,2.4e-5 2.3897,-0.421357 3.46875,-1.03125 -0.14418,1.984996 -0.25,3.749499 -0.25,5.21875 0,0.998901 0.039,2.40571 0.0937,4.375 0.0547,1.968228 0.0937,3.405173 0.0937,4.1875 0,1.714933 0.70514,3.631155 2.03125,4.90625 1.28779,1.238269 3.17633,1.906248 4.875,1.90625 1.69866,-2e-6 3.5872,-0.66799 4.875,-1.90625 1.07138,-1.030184 1.66501,-2.517774 1.875,-4.03125 0.61432,0.948605 1.29727,1.836957 2.125,2.625 2.6945,2.572949 6.27326,3.999999 10.03125,4 4.60688,-10e-7 8.82871,-2.09264 11.59375,-5.6875 0.26885,1.323229 0.80369,2.62255 1.78125,3.5625 1.3334,1.282123 3.20759,1.906248 4.90625,1.90625 1.69866,-2e-6 3.60117,-0.665677 4.875,-1.875 1.28557,-1.220493 2.06248,-3.127807 2.0625,-4.90625 -2e-5,-0.746007 -0.0473,-1.490269 -0.15625,-2.4375 -0.0953,-0.828207 -0.15625,-1.402421 -0.15625,-1.53125 -10e-6,-0.442186 0.0445,-0.959129 0.125,-1.5625 a 3.7033477,3.7033477 0 0 0 0.0312,-0.03125 c 0.0938,-0.737033 0.12154,-1.251362 0.15625,-1.75 0.27796,-0.868121 0.59672,-1.644149 0.9375,-2.34375 -0.003,0.191811 -0.0313,0.550622 -0.0312,0.6875 -2e-5,1.693826 0.11882,3.496484 0.375,5.375 0.21638,1.607515 0.44024,3.192197 0.65625,4.78125 l -0.0312,0 c 0.003,0.02177 0.0285,0.04067 0.0312,0.0625 0.19164,1.546957 0.84837,3.222952 2.1875,4.40625 1.35802,1.199994 3.11442,1.624998 4.6875,1.625 1.71685,-4e-6 3.54476,-0.671133 4.8125,-1.84375 0.22775,-0.210678 0.33565,-0.533106 0.53125,-0.78125 0.73431,0.472871 1.54055,0.875974 2.375,1.1875 2.20066,0.820248 4.53796,1.156249 6.96875,1.15625 3.39708,-10e-7 6.52744,-0.612496 9.21875,-2.09375 a 3.7033477,3.7033477 0 0 0 0.0312,0 c 3.3907,-1.886088 5.62497,-5.539302 5.625,-9.375 -3e-5,-3.067548 -1.70206,-5.78963 -4.09375,-7.8125 1.12458,-0.560962 2.14418,-1.316099 2.65625,-2.28125 0.85582,-1.613063 0.96874,-3.177699 0.96875,-4.90625 -3e-5,-2.30911 -1.25038,-5.104766 -3.46875,-6.28125 l 0,0.03125 c -1.6619,-0.900115 -3.31068,-1.062469 -5.21875,-1.0625 -4.18768,2.6e-5 -7.40934,0.254794 -10.0625,1.125 -2.16011,0.709908 -4.11488,1.901332 -5.5,3.65625 -0.1987,0.251751 -0.26834,0.573104 -0.4375,0.84375 -1.66406,-3.464488 -5.43946,-5.718717 -9.375,-5.71875 -1.98651,2e-5 -3.89934,0.545435 -5.6875,1.46875 -1.30938,-1.300668 -3.17886,-1.968729 -4.84375,-1.96875 -1.73772,4.9e-5 -3.52977,0.656507 -4.8125,1.8125 -1.17433,1.058396 -1.86313,2.713104 -2.03125,4.28125 -2.45573,-2.998222 -6.10518,-4.78122 -10,-4.78125 -5.16353,2.9e-5 -9.87237,2.220162 -12.875,6.25 a 3.7033477,3.7033477 0 0 0 0,0.03125 c -0.20041,0.270865 -0.34711,0.56408 -0.53125,0.84375 0.002,-0.169671 0.0312,-0.431566 0.0312,-0.59375 -2e-5,-1.574254 -0.65642,-3.267616 -1.78125,-4.53125 0.24181,-0.171993 0.53405,-0.269046 0.75,-0.46875 1.42244,-1.315341 2.24998,-3.362697 2.25,-5.1875 -2e-5,-1.824795 -0.82769,-3.872154 -2.25,-5.1875 -1.36366,-1.260941 -3.2838,-1.968687 -5.09375,-1.96875 -1.80995,6.3e-5 -3.73354,0.695772 -5.125,1.96875 -1.40848,1.288662 -2.28125,3.302974 -2.28125,5.1875 0,1.819919 0.83079,3.738837 2.15625,5.03125 -0.12281,0.100564 -0.29235,0.140482 -0.40625,0.25 -0.0967,0.09298 -0.12774,0.243601 -0.21875,0.34375 -0.75696,-1.051963 -1.75528,-1.933657 -2.90625,-2.34375 -0.0107,-0.0038 -0.0206,0.0038 -0.0312,0 -1.27935,-0.452031 -2.40686,-0.518151 -3.6875,-0.53125 -0.14645,-1.515653 -0.42232,-2.980633 -1.21875,-4.3125 -1.13787,-1.902864 -3.59919,-3.218719 -5.78125,-3.21875 -1.62974,5.9e-5 -3.45683,0.557899 -4.8125,1.78125 -1.37604,1.241849 -2.15627,3.224885 -2.15625,4.9375 0,0.229342 0.0235,0.582559 0.0312,0.84375 -0.0287,-1.77e-4 -0.0968,10e-7 -0.125,0 -1.71918,4.6e-5 -3.66148,0.658387 -4.96875,2 -0.55984,0.574591 -0.95703,1.306921 -1.28125,2.0625 -2.28306,-1.989107 -5.23028,-3.156229 -8.375,-3.15625 -1.40734,3.2e-5 -2.79735,0.190086 -4.15625,0.5625 -0.0959,0.02629 -0.18537,0.09687 -0.28125,0.125 -0.0556,-0.0606 -0.0673,-0.160998 -0.125,-0.21875 -1.23686,-1.236786 -3.08715,-1.968698 -4.84375,-1.96875 -1.57658,3.6e-5 -3.06081,0.796178 -4.3125,1.84375 -0.84703,-2.673993 -2.18865,-5.036929 -4.1875,-6.875 -3.63457,-3.342054 -8.76228,-4.71871 -14.78125,-4.71875 z m 0,13.71875 c 3.14691,2.6e-5 4.83438,0.771051 5.0625,0.96875 0.28374,0.259165 0.93748,1.321725 0.9375,4.03125 -2e-5,3.262952 -0.83885,5.936581 -2.53125,8.40625 -1.81568,2.667914 -3.30566,3.468753 -5.53125,3.46875 -2.30006,4e-6 -3.81316,-0.548914 -5.03125,-1.53125 -1.26079,-1.016445 -1.65626,-1.841638 -1.65625,-3.46875 -10e-6,-3.091083 0.87702,-5.730918 2.78125,-8.3125 1.99879,-2.715338 3.67992,-3.562481 5.96875,-3.5625 z m 20,4.625 3.375,0 c 0,0.02979 0.005,0.08467 0,0.1875 -0.003,0.05141 0.0144,0.09812 0,0.21875 -0.0144,0.120631 -0.15652,0.719575 -0.15625,0.71875 7e-5,-2.06e-4 -0.18757,0.43765 -0.1875,0.4375 7e-5,-1.5e-4 -0.46883,0.718845 -0.46875,0.71875 8e-5,-9.5e-5 -1.25008,1.031289 -1.25,1.03125 5e-5,-2.5e-5 -0.81185,0.09983 -1.5,0.1875 0.11089,-1.035786 0.21874,-2.064459 0.21875,-3.125 0,-0.129155 -0.0296,-0.24657 -0.0312,-0.375 z m 72.90625,6.46875 c 0.15851,0.348153 0.5224,1.58446 0.4375,3.6875 -0.0467,1.102015 -0.24647,1.447024 -0.625,1.8125 -0.0107,0.01032 -0.0203,0.02087 -0.0312,0.03125 -0.35144,0.319792 -0.48316,0.375002 -1,0.375 -0.26784,10e-7 -0.21642,0.0213 -0.4375,-0.1875 -0.22138,-0.208354 -0.43751,-0.44945 -0.4375,-1.625 -10e-6,-1.401203 0.29779,-2.35432 0.84375,-3.21875 0.52678,-0.838395 0.67155,-0.876619 1.25,-0.875 z M -484.625,49.875 c 0.0379,0.214911 0.18748,1.477176 0.1875,3.40625 -10e-6,1.221038 -0.25904,1.743179 -0.40625,1.9375 A 3.7033477,3.7033477 0 0 0 -484.875,55.25 c -0.16323,0.216652 0.0205,0.218752 -0.75,0.21875 -0.19313,10e-7 -0.37334,-0.08341 -0.5625,-0.09375 -0.0286,-1.563534 -0.0535,-3.127656 -0.125,-4.6875 0.27379,-0.176481 0.62136,-0.492817 0.84375,-0.59375 0.34413,-0.156178 0.57458,-0.166688 0.84375,-0.21875 z M -385,53.53125 c 0.41973,0.42838 0.86327,0.821339 1.34375,1.1875 -0.39799,0.0381 -0.78384,0.04969 -1.1875,0.15625 -0.037,-0.4198 -0.1502,-1.029354 -0.15625,-1.34375 z" />
    <text
       xml:space="preserve"
       style="font-size:48px;font-style:normal;font-variant:normal;font-weight:bold;font-stretch:normal;line-height:125%;letter-spacing:0px;word-spacing:0px;fill:#ffff00;fill-opacity:1;stroke:none;font-family:Comic Sans MS;-inkscape-font-specification:Comic Sans MS Bold"
       x="-537.18304"
       y="64.040184"
       id="text3241"
       sodipodi:linespacing="125%"><tspan
         sodipodi:role="line"
         id="tspan3243"
         x="-537.18304"
         y="64.040184">Options</tspan></text>
  </g>
</svg>
