<?xml version="1.0" encoding="UTF-8" standalone="no"?>
<!-- Created with Inkscape (http://www.inkscape.org/) -->

<svg
   xmlns:dc="http://purl.org/dc/elements/1.1/"
   xmlns:cc="http://creativecommons.org/ns#"
   xmlns:rdf="http://www.w3.org/1999/02/22-rdf-syntax-ns#"
   xmlns:svg="http://www.w3.org/2000/svg"
   xmlns="http://www.w3.org/2000/svg"
   xmlns:xlink="http://www.w3.org/1999/xlink"
   xmlns:sodipodi="http://sodipodi.sourceforge.net/DTD/sodipodi-0.dtd"
   xmlns:inkscape="http://www.inkscape.org/namespaces/inkscape"
   width="512"
   height="128"
   id="svg3213"
   version="1.1"
   inkscape:version="0.48.4 r9939"
   sodipodi:docname="back.svg">
  <defs
     id="defs3215" />
  <sodipodi:namedview
     id="base"
     pagecolor="#ffffff"
     bordercolor="#666666"
     borderopacity="1.0"
     inkscape:pageopacity="0.0"
     inkscape:pageshadow="2"
     inkscape:zoom="1.4"
     inkscape:cx="181.64714"
     inkscape:cy="57.544504"
     inkscape:document-units="px"
     inkscape:current-layer="layer1"
     showgrid="false"
     fit-margin-top="0"
     fit-margin-left="0"
     fit-margin-right="0"
     fit-margin-bottom="0"
     inkscape:window-width="1366"
     inkscape:window-height="716"
     inkscape:window-x="-8"
     inkscape:window-y="-8"
     inkscape:window-maximized="1" />
  <metadata
     id="metadata3218">
    <rdf:RDF>
      <cc:Work
         rdf:about="">
        <dc:format>image/svg+xml</dc:format>
        <dc:type
           rdf:resource="http://purl.org/dc/dcmitype/StillImage" />
        <dc:title></dc:title>
      </cc:Work>
    </rdf:RDF>
  </metadata>
  <g
     inkscape:label="Layer 1"
     inkscape:groupmode="layer"
     id="layer1"
     transform="translate(683.46875,7.5312507)">
    <flowRoot
       xml:space="preserve"
       id="flowRoot3221"
       style="font-size:22px;font-style:normal;font-variant:normal;font-weight:normal;font-stretch:normal;line-height:125%;letter-spacing:0px;word-spacing:0px;fill:#000000;fill-opacity:1;stroke:none;font-family:Comic Sans MS;-inkscape-font-specification:Comic Sans MS"><flowRegion
         id="flowRegion3223"><rect
           id="rect3225"
           width="42.857143"
           height="45.714287"
           x="-565.71429"
           y="149.50504" /></flowRegion><flowPara
         id="flowPara3227"></flowPara></flowRoot>    <path
       sodipodi:type="inkscape:offset"
       inkscape:radius="7.2668757"
       inkscape:original="M -489.84375 26.5 C -490.75001 26.500038 -491.51563 26.773475 -492.15625 27.34375 C -492.79688 27.914099 -493.125 28.64066 -493.125 29.53125 C -493.125 30.015659 -493.02344 30.742221 -492.875 31.6875 C -492.72657 32.632844 -492.65625 33.359406 -492.65625 33.84375 C -492.65625 34.46878 -492.71875 35.687528 -492.8125 37.53125 L -492.84375 38.3125 C -492.95313 45.625018 -492.98438 50.859388 -492.90625 54 C -492.98438 57.875006 -493.07813 59.968754 -493.1875 60.3125 C -493.35938 60.843753 -493.4375 61.265628 -493.4375 61.5625 C -493.4375 62.421877 -493.08594 63.132813 -492.40625 63.71875 C -491.72657 64.304687 -490.96875 64.593749 -490.09375 64.59375 C -488.76563 64.593749 -487.79688 63.96875 -487.1875 62.6875 C -486.64063 61.531253 -486.37501 58.125006 -486.375 52.46875 C -485.12501 50.234389 -484.12501 48.70314 -483.40625 47.90625 C -482.00001 46.312518 -480.42189 45.531269 -478.6875 45.53125 C -478.01564 45.531269 -477.60939 45.953143 -477.46875 46.8125 C -477.43752 47.000017 -477.43752 47.687516 -477.4375 48.84375 C -477.43752 49.23439 -477.46096 49.804702 -477.5 50.59375 C -477.53908 51.382825 -477.56252 51.984387 -477.5625 52.375 C -477.56252 53.796885 -477.40627 55.609383 -477.125 57.8125 C -476.81252 60.109379 -476.46877 61.890627 -476.09375 63.15625 C -475.62502 64.718749 -474.6094 65.499999 -473.03125 65.5 C -472.14065 65.499999 -471.35159 65.195311 -470.6875 64.625 C -470.02346 64.054687 -469.68753 63.343751 -469.6875 62.46875 C -469.68753 62.218752 -469.7344 61.921877 -469.8125 61.59375 C -470.12503 60.296879 -470.40628 58.79688 -470.625 57.0625 C -470.68753 56.515633 -470.84378 54.984384 -471.09375 52.46875 C -471.18752 50.531264 -471.26565 48.60939 -471.34375 46.6875 C -471.53127 44.359395 -472.06252 42.625021 -472.9375 41.5 C -474.1094 40.000024 -476.01564 39.250025 -478.6875 39.25 C -480.17189 39.250025 -481.57033 39.507837 -482.875 40.0625 C -484.1797 40.617211 -485.42189 41.468773 -486.5625 42.59375 C -486.56251 41.093773 -486.50001 39.593774 -486.40625 38.0625 C -486.31251 36.453153 -486.28126 34.843779 -486.28125 33.28125 C -486.28126 31.343783 -486.42188 29.906284 -486.71875 28.96875 C -487.25001 27.312537 -488.29688 26.500038 -489.84375 26.5 z M -418.125 26.6875 C -419.89065 26.687537 -420.89065 27.593786 -421.15625 29.4375 C -421.43752 31.468783 -421.67189 35.171904 -421.875 40.5 C -422.54689 40.000024 -423.35939 39.625024 -424.28125 39.375 C -425.20314 39.125025 -426.23439 39.000025 -427.40625 39 C -431.23439 39.000025 -434.34376 40.289086 -436.71875 42.875 C -439.09375 45.460956 -440.28125 48.85939 -440.28125 53.0625 C -440.28125 56.593757 -439.10938 59.500005 -436.75 61.78125 C -434.43751 64.015625 -431.53126 65.124999 -428.03125 65.125 C -426.81251 65.124999 -425.64064 64.945312 -424.5 64.625 C -423.35939 64.304687 -422.25002 63.828125 -421.1875 63.1875 C -420.62502 64.21875 -419.75002 64.749999 -418.59375 64.75 C -417.76565 64.749999 -417.06252 64.460937 -416.4375 63.90625 C -415.81253 63.351563 -415.50003 62.640626 -415.5 61.78125 C -415.50003 61.578127 -415.51565 61.375003 -415.5625 61.125 C -415.9219 59.250005 -416.09378 55.531259 -416.09375 50 C -416.09378 47.734391 -415.91409 44.359395 -415.5625 39.875 C -415.21096 35.390654 -415.03128 32.015657 -415.03125 29.75 C -415.03128 28.89066 -415.31253 28.156286 -415.875 27.5625 C -416.43752 26.968787 -417.20315 26.687537 -418.125 26.6875 z M -509.3125 29.65625 C -513.17189 29.656284 -516.70314 30.929721 -519.90625 33.46875 C -523.10938 36.007841 -524.73438 38.7969 -524.78125 41.84375 C -524.82813 44.265645 -523.39063 46.140643 -520.5 47.4375 C -518.35939 48.390641 -515.95314 48.875015 -513.25 48.9375 C -509.76564 49.01564 -507.43752 49.29689 -506.28125 49.75 C -504.65627 50.375014 -503.84378 51.656262 -503.84375 53.625 C -503.84378 55.062509 -505.14065 56.390633 -507.75 57.59375 C -510.26564 58.76563 -512.87502 59.343755 -515.5625 59.34375 C -518.70314 59.343755 -520.73438 58.390631 -521.625 56.46875 C -522.28126 55.031259 -523.31251 54.31251 -524.71875 54.3125 C -525.76563 54.31251 -526.5625 54.632822 -527.15625 55.28125 C -527.75 55.929696 -528.0625 56.765632 -528.0625 57.75 C -528.0625 59.671879 -527.10938 61.343753 -525.1875 62.8125 C -522.90626 64.578124 -519.78126 65.468749 -515.8125 65.46875 C -511.31252 65.468749 -507.31252 64.671874 -503.8125 63.09375 C -499.21878 61.015628 -496.90628 57.968756 -496.90625 53.9375 C -496.90628 50.625013 -498.03128 48.031266 -500.25 46.15625 C -502.26565 44.46877 -505.00002 43.484396 -508.46875 43.21875 C -510.45314 43.109396 -512.43752 43.015646 -514.4375 42.90625 C -515.57814 42.750021 -516.4297 42.476584 -517 42.09375 C -517.57032 41.71096 -517.87501 41.218773 -517.875 40.625 C -517.87501 39.4844 -516.93751 38.437526 -515.0625 37.46875 C -513.25002 36.515653 -511.32814 36.015653 -509.3125 36 C -508.56252 36.000028 -507.46096 36.156278 -506 36.46875 C -504.53909 36.781277 -503.4219 36.937527 -502.6875 36.9375 C -501.70315 36.937527 -500.90628 36.609402 -500.28125 35.90625 C -499.71878 35.281279 -499.43753 34.562529 -499.4375 33.75 C -499.43753 32.609406 -500.82815 31.593782 -503.625 30.71875 C -505.87502 30.015659 -507.78127 29.656284 -509.3125 29.65625 z M -369.03125 39.34375 C -372.40626 39.343775 -375.48439 40.375024 -378.25 42.4375 C -378.57813 40.656273 -379.60938 39.750024 -381.34375 39.75 C -382.3125 39.750024 -383.03907 40.039086 -383.5625 40.625 C -384.08594 41.21096 -384.375 41.968772 -384.375 42.84375 C -384.375 43.328146 -384.375 44.039083 -384.40625 45 C -384.4375 45.960956 -384.46875 46.671892 -384.46875 47.15625 L -384.46875 62.53125 C -384.46875 63.406251 -384.21875 64.125 -383.71875 64.6875 C -383.1875 65.312499 -382.4375 65.624998 -381.46875 65.625 C -380.53126 65.624998 -379.73438 65.304686 -379.125 64.71875 C -378.51563 64.132812 -378.21876 63.421876 -378.21875 62.53125 L -378.25 50.71875 C -376.73438 47.671891 -374.20314 45.875018 -370.6875 45.3125 L -370.59375 47.6875 C -370.59377 49.718764 -369.59377 50.718763 -367.625 50.71875 C -365.59377 50.718763 -364.51565 49.54689 -364.375 47.15625 C -364.3594 46.906267 -364.34377 46.359393 -364.34375 45.5625 C -364.34377 41.406273 -365.90627 39.343775 -369.03125 39.34375 z M -452.6875 39.5625 C -456.56251 39.562524 -459.87501 40.914086 -462.65625 43.59375 C -465.4375 46.273455 -466.84375 49.48439 -466.84375 53.25 C -466.84375 57.265632 -465.88281 60.296879 -464 62.3125 C -462.11719 64.328125 -459.29688 65.343749 -455.53125 65.34375 C -454.76564 65.343749 -453.84376 65.164061 -452.75 64.8125 C -451.65627 64.460937 -450.40627 63.9375 -448.96875 63.25 C -447.40627 64.812499 -446.25002 65.593748 -445.53125 65.59375 C -444.70315 65.593748 -443.97659 65.328124 -443.34375 64.78125 C -442.71096 64.234375 -442.40628 63.546876 -442.40625 62.71875 C -442.40628 62.531252 -442.70315 61.750002 -443.3125 60.40625 C -443.9844 58.92188 -444.32815 58.109381 -444.375 57.96875 C -444.7969 56.656257 -445.03127 54.515635 -445.03125 51.53125 C -445.03127 50.265639 -444.96096 49.164077 -444.875 48.21875 C -444.78909 47.273454 -444.68752 46.468768 -444.53125 45.84375 C -444.1719 45.421894 -444.00002 44.937519 -444 44.375 C -444.00002 43.031271 -445.1719 41.859397 -447.53125 40.84375 C -449.48439 40.000024 -451.20314 39.562524 -452.6875 39.5625 z M -399.65625 39.5625 C -403.57813 39.562524 -406.68751 41.062523 -409 44.09375 C -411.07813 46.828142 -412.125 50.171889 -412.125 54.125 C -412.125 57.703131 -410.8125 60.468754 -408.1875 62.4375 C -405.81251 64.21875 -402.73439 65.124999 -399 65.125 C -396.54689 65.124999 -394.25002 64.656249 -392.0625 63.71875 C -389.45315 62.593751 -388.12503 61.125003 -388.125 59.34375 C -388.12503 57.765631 -388.93752 57.000007 -390.5625 57 C -391.34377 57.000007 -392.39065 57.359382 -393.6875 58.125 C -395.14064 58.98438 -396.90627 59.437505 -399 59.4375 C -400.37501 59.437505 -401.59376 59.218755 -402.65625 58.8125 C -403.71876 58.406256 -404.62501 57.812506 -405.375 57 L -397.5 53.5 C -394.85939 52.328137 -393.09377 51.421888 -392.21875 50.8125 C -390.2969 49.48439 -389.34377 47.968766 -389.34375 46.25 C -389.34377 43.81252 -390.51565 42.031272 -392.875 40.875 C -394.67189 40.000024 -396.93752 39.562524 -399.65625 39.5625 z M -427.3125 44.9375 C -426.17189 44.937519 -425.20314 45.171894 -424.375 45.65625 C -423.54689 46.140643 -422.85939 46.890642 -422.34375 47.875 C -422.37502 52.843761 -422.37502 55.687508 -422.34375 56.4375 C -422.59377 56.703132 -422.85939 56.968757 -423.125 57.1875 C -424.14064 58.000006 -424.85939 58.500006 -425.28125 58.6875 C -425.90627 58.968755 -426.82814 59.093755 -428.03125 59.09375 C -429.68751 59.093755 -431.12501 58.484381 -432.375 57.28125 C -433.62501 56.078133 -434.25001 54.656259 -434.25 52.96875 C -434.25001 50.296889 -433.68751 48.273453 -432.53125 46.9375 C -431.37501 45.601581 -429.62501 44.937519 -427.3125 44.9375 z M -452.375 45.1875 C -452.20314 45.187519 -451.9922 45.210956 -451.75 45.28125 C -451.50783 45.351581 -451.25002 45.468769 -450.9375 45.625 C -451.07814 46.421893 -451.1797 47.132829 -451.25 47.78125 C -451.32033 48.429703 -451.34377 49.000015 -451.34375 49.5 C -451.34377 51.343763 -451.12502 54.12501 -450.65625 57.84375 C -451.42189 58.468756 -452.22658 58.960943 -453.09375 59.28125 C -453.96095 59.601567 -454.87501 59.750004 -455.84375 59.75 C -457.34376 59.750004 -458.46876 59.210942 -459.21875 58.15625 C -459.96876 57.101569 -460.34376 55.531258 -460.34375 53.4375 C -460.34376 51.250013 -459.56251 49.320327 -457.96875 47.65625 C -456.37501 45.992206 -454.50001 45.187519 -452.375 45.1875 z M -399.65625 45.21875 C -397.96877 45.218769 -396.57814 45.531269 -395.53125 46.125 C -396.78127 46.937517 -398.48439 47.796891 -400.59375 48.75 C -402.34376 49.500015 -404.07813 50.265639 -405.84375 51.03125 C -405.21876 49.093765 -404.40626 47.656266 -403.375 46.6875 C -402.34376 45.718768 -401.10939 45.218769 -399.65625 45.21875 z "
       xlink:href="#text3241"
       style="font-size:48px;font-style:normal;font-variant:normal;font-weight:bold;font-stretch:normal;line-height:125%;letter-spacing:0px;word-spacing:0px;fill:#ffffff;fill-opacity:1;stroke:none;font-family:Comic Sans MS;-inkscape-font-specification:Comic Sans MS Bold"
       id="path3247"
       inkscape:href="#text3241"
       d="m -487.84375,19.21875 c -2.3678,9.9e-5 -5.22955,0.972368 -7.15625,2.6875 -0.79847,0.710872 -1.38221,1.755642 -1.9375,2.78125 -0.82005,-0.359545 -1.65857,-0.633219 -2.53125,-0.90625 -2.69244,-0.841338 -5.17564,-1.406191 -7.84375,-1.40625 -5.45786,4.8e-5 -10.78009,1.986914 -15.09375,5.40625 -4.29562,3.405101 -7.5707,8.375963 -7.65625,13.9375 l 0.0312,0 c -0.039,2.402044 0.86393,4.702982 2.1875,6.71875 -0.98954,0.519442 -1.95426,1.136733 -2.6875,1.9375 -1.83676,2.005958 -2.8125,4.852658 -2.8125,7.375 0,4.308805 2.61886,8.428097 5.71875,10.8125 0.0116,0.009 0.0196,0.02231 0.0312,0.03125 3.88041,2.987833 8.74041,4.156249 13.78125,4.15625 5.35788,-10e-7 10.44434,-0.977146 15,-3.03125 0.9824,-0.444422 1.84326,-1.11559 2.75,-1.71875 0.32199,0.388405 0.55498,0.915931 0.90625,1.21875 1.80772,1.558395 4.58706,2.656247 7.0625,2.65625 2.86609,-2e-6 6.15181,-1.855062 8.15625,-4.1875 0.6316,1.089332 1.42092,2.149168 2.53125,3 1.94308,1.488955 4.38679,2.093749 6.375,2.09375 2.548,-3e-6 5.24175,-1.065781 7.09375,-2.65625 0.0473,-0.04058 0.0783,-0.114055 0.125,-0.15625 3.0745,1.7979 6.68918,2.656249 10.28125,2.65625 1.90262,-2e-6 3.4605,-0.411417 5,-0.90625 0.13404,-0.04309 0.27279,-0.110995 0.40625,-0.15625 1.02261,0.658132 2.25756,1.312493 4.59375,1.3125 2.38205,-6e-6 5.10349,-1.008876 6.9375,-2.59375 0.17587,-0.151994 0.27144,-0.421842 0.4375,-0.59375 3.06554,1.759781 6.59544,2.718749 10.125,2.71875 1.93301,-2e-6 3.79312,-0.301929 5.5,-0.78125 0.24913,-0.06996 0.4716,-0.232794 0.71875,-0.3125 1.08161,0.414485 2.16709,0.718749 3.21875,0.71875 2.51918,-3e-6 5.25748,-1.168799 6.96875,-2.6875 0.10745,-0.09537 0.14646,-0.272442 0.25,-0.375 3.62874,2.321842 7.93944,3.437499 12.375,3.4375 3.37883,-10e-7 6.73827,-0.682486 9.8125,-2 0.22349,-0.09636 0.4348,-0.240069 0.65625,-0.34375 1.97464,1.831605 4.80379,2.843745 7.0625,2.84375 2.59273,-6e-6 5.43784,-1.074864 7.375,-2.9375 1.87631,-1.804156 3.15622,-4.932085 3.15625,-7.4375 a 7.2676024,7.2676024 0 0 0 0,-0.03125 l 0,-5.0625 c 1.15586,0.349661 2.32582,0.562507 3.3125,0.5625 2.41311,1.5e-5 5.61343,-0.981255 7.6875,-3.25 2.07407,-2.268745 2.68233,-4.94368 2.8125,-7.15625 0.0378,-0.60637 0.0625,-1.13942 0.0625,-2.03125 -10e-6,-2.988749 -0.4691,-6.133272 -2.65625,-9.03125 -2.18715,-2.897978 -6.1513,-4.468725 -9.3125,-4.46875 -2.71227,2e-5 -5.37425,0.576579 -7.90625,1.53125 -1.49992,-0.667567 -3.04219,-1.124981 -4.40625,-1.125 -2.19498,5.4e-5 -5.05119,0.967435 -7.03125,2.78125 -0.44023,-0.297076 -0.85106,-0.680107 -1.3125,-0.90625 -3.10131,-1.510148 -6.47046,-2.062469 -9.96875,-2.0625 -2.86431,1.8e-5 -5.74132,0.685376 -8.34375,1.9375 0.0659,-1.415446 0.24999,-3.360614 0.25,-4.46875 -9e-5,-2.44476 -1.05581,-5.300011 -2.84375,-7.1875 -2.03871,-2.151763 -5.13151,-3.156154 -7.53125,-3.15625 -2.12608,4.5e-5 -4.89991,0.717363 -6.96875,2.59375 -2.06884,1.876387 -2.95764,4.376759 -3.25,6.40625 a 7.2676024,7.2676024 0 0 0 0,0.03125 c -0.10714,0.773767 -0.13523,2.445596 -0.21875,3.40625 -4.4156,0.25196 -8.70991,1.943115 -12.03125,4.84375 -1.3145,-1.109027 -2.64966,-1.923055 -4.0625,-2.53125 l 0,0.03125 c -2.53836,-1.096534 -5.11909,-1.906203 -8.03125,-1.90625 -5.19844,3.2e-5 -10.26237,2.025078 -14.15625,5.40625 -0.14786,-0.214404 -0.17881,-0.444171 -0.34375,-0.65625 a 7.2676024,7.2676024 0 0 0 -0.0312,0 c -2.80212,-3.586576 -7.43703,-5.062462 -11.46875,-5.0625 -0.12332,2e-6 -0.25115,0.02885 -0.375,0.03125 -0.0322,-1.728359 -0.12381,-3.339892 -0.71875,-5.21875 A 7.2676024,7.2676024 0 0 0 -477.8125,26.75 c -0.58409,-1.820924 -1.68788,-3.844746 -3.59375,-5.34375 -1.90587,-1.499004 -4.39179,-2.18745 -6.4375,-2.1875 z" />
    <path
       sodipodi:type="inkscape:offset"
       inkscape:radius="3.7029774"
       inkscape:original="M -489.84375 26.5 C -490.75001 26.500038 -491.51563 26.773475 -492.15625 27.34375 C -492.79688 27.914099 -493.125 28.64066 -493.125 29.53125 C -493.125 30.015659 -493.02344 30.742221 -492.875 31.6875 C -492.72657 32.632844 -492.65625 33.359406 -492.65625 33.84375 C -492.65625 34.46878 -492.71875 35.687528 -492.8125 37.53125 L -492.84375 38.3125 C -492.95313 45.625018 -492.98438 50.859388 -492.90625 54 C -492.98438 57.875006 -493.07813 59.968754 -493.1875 60.3125 C -493.35938 60.843753 -493.4375 61.265628 -493.4375 61.5625 C -493.4375 62.421877 -493.08594 63.132813 -492.40625 63.71875 C -491.72657 64.304687 -490.96875 64.593749 -490.09375 64.59375 C -488.76563 64.593749 -487.79688 63.96875 -487.1875 62.6875 C -486.64063 61.531253 -486.37501 58.125006 -486.375 52.46875 C -485.12501 50.234389 -484.12501 48.70314 -483.40625 47.90625 C -482.00001 46.312518 -480.42189 45.531269 -478.6875 45.53125 C -478.01564 45.531269 -477.60939 45.953143 -477.46875 46.8125 C -477.43752 47.000017 -477.43752 47.687516 -477.4375 48.84375 C -477.43752 49.23439 -477.46096 49.804702 -477.5 50.59375 C -477.53908 51.382825 -477.56252 51.984387 -477.5625 52.375 C -477.56252 53.796885 -477.40627 55.609383 -477.125 57.8125 C -476.81252 60.109379 -476.46877 61.890627 -476.09375 63.15625 C -475.62502 64.718749 -474.6094 65.499999 -473.03125 65.5 C -472.14065 65.499999 -471.35159 65.195311 -470.6875 64.625 C -470.02346 64.054687 -469.68753 63.343751 -469.6875 62.46875 C -469.68753 62.218752 -469.7344 61.921877 -469.8125 61.59375 C -470.12503 60.296879 -470.40628 58.79688 -470.625 57.0625 C -470.68753 56.515633 -470.84378 54.984384 -471.09375 52.46875 C -471.18752 50.531264 -471.26565 48.60939 -471.34375 46.6875 C -471.53127 44.359395 -472.06252 42.625021 -472.9375 41.5 C -474.1094 40.000024 -476.01564 39.250025 -478.6875 39.25 C -480.17189 39.250025 -481.57033 39.507837 -482.875 40.0625 C -484.1797 40.617211 -485.42189 41.468773 -486.5625 42.59375 C -486.56251 41.093773 -486.50001 39.593774 -486.40625 38.0625 C -486.31251 36.453153 -486.28126 34.843779 -486.28125 33.28125 C -486.28126 31.343783 -486.42188 29.906284 -486.71875 28.96875 C -487.25001 27.312537 -488.29688 26.500038 -489.84375 26.5 z M -418.125 26.6875 C -419.89065 26.687537 -420.89065 27.593786 -421.15625 29.4375 C -421.43752 31.468783 -421.67189 35.171904 -421.875 40.5 C -422.54689 40.000024 -423.35939 39.625024 -424.28125 39.375 C -425.20314 39.125025 -426.23439 39.000025 -427.40625 39 C -431.23439 39.000025 -434.34376 40.289086 -436.71875 42.875 C -439.09375 45.460956 -440.28125 48.85939 -440.28125 53.0625 C -440.28125 56.593757 -439.10938 59.500005 -436.75 61.78125 C -434.43751 64.015625 -431.53126 65.124999 -428.03125 65.125 C -426.81251 65.124999 -425.64064 64.945312 -424.5 64.625 C -423.35939 64.304687 -422.25002 63.828125 -421.1875 63.1875 C -420.62502 64.21875 -419.75002 64.749999 -418.59375 64.75 C -417.76565 64.749999 -417.06252 64.460937 -416.4375 63.90625 C -415.81253 63.351563 -415.50003 62.640626 -415.5 61.78125 C -415.50003 61.578127 -415.51565 61.375003 -415.5625 61.125 C -415.9219 59.250005 -416.09378 55.531259 -416.09375 50 C -416.09378 47.734391 -415.91409 44.359395 -415.5625 39.875 C -415.21096 35.390654 -415.03128 32.015657 -415.03125 29.75 C -415.03128 28.89066 -415.31253 28.156286 -415.875 27.5625 C -416.43752 26.968787 -417.20315 26.687537 -418.125 26.6875 z M -509.3125 29.65625 C -513.17189 29.656284 -516.70314 30.929721 -519.90625 33.46875 C -523.10938 36.007841 -524.73438 38.7969 -524.78125 41.84375 C -524.82813 44.265645 -523.39063 46.140643 -520.5 47.4375 C -518.35939 48.390641 -515.95314 48.875015 -513.25 48.9375 C -509.76564 49.01564 -507.43752 49.29689 -506.28125 49.75 C -504.65627 50.375014 -503.84378 51.656262 -503.84375 53.625 C -503.84378 55.062509 -505.14065 56.390633 -507.75 57.59375 C -510.26564 58.76563 -512.87502 59.343755 -515.5625 59.34375 C -518.70314 59.343755 -520.73438 58.390631 -521.625 56.46875 C -522.28126 55.031259 -523.31251 54.31251 -524.71875 54.3125 C -525.76563 54.31251 -526.5625 54.632822 -527.15625 55.28125 C -527.75 55.929696 -528.0625 56.765632 -528.0625 57.75 C -528.0625 59.671879 -527.10938 61.343753 -525.1875 62.8125 C -522.90626 64.578124 -519.78126 65.468749 -515.8125 65.46875 C -511.31252 65.468749 -507.31252 64.671874 -503.8125 63.09375 C -499.21878 61.015628 -496.90628 57.968756 -496.90625 53.9375 C -496.90628 50.625013 -498.03128 48.031266 -500.25 46.15625 C -502.26565 44.46877 -505.00002 43.484396 -508.46875 43.21875 C -510.45314 43.109396 -512.43752 43.015646 -514.4375 42.90625 C -515.57814 42.750021 -516.4297 42.476584 -517 42.09375 C -517.57032 41.71096 -517.87501 41.218773 -517.875 40.625 C -517.87501 39.4844 -516.93751 38.437526 -515.0625 37.46875 C -513.25002 36.515653 -511.32814 36.015653 -509.3125 36 C -508.56252 36.000028 -507.46096 36.156278 -506 36.46875 C -504.53909 36.781277 -503.4219 36.937527 -502.6875 36.9375 C -501.70315 36.937527 -500.90628 36.609402 -500.28125 35.90625 C -499.71878 35.281279 -499.43753 34.562529 -499.4375 33.75 C -499.43753 32.609406 -500.82815 31.593782 -503.625 30.71875 C -505.87502 30.015659 -507.78127 29.656284 -509.3125 29.65625 z M -369.03125 39.34375 C -372.40626 39.343775 -375.48439 40.375024 -378.25 42.4375 C -378.57813 40.656273 -379.60938 39.750024 -381.34375 39.75 C -382.3125 39.750024 -383.03907 40.039086 -383.5625 40.625 C -384.08594 41.21096 -384.375 41.968772 -384.375 42.84375 C -384.375 43.328146 -384.375 44.039083 -384.40625 45 C -384.4375 45.960956 -384.46875 46.671892 -384.46875 47.15625 L -384.46875 62.53125 C -384.46875 63.406251 -384.21875 64.125 -383.71875 64.6875 C -383.1875 65.312499 -382.4375 65.624998 -381.46875 65.625 C -380.53126 65.624998 -379.73438 65.304686 -379.125 64.71875 C -378.51563 64.132812 -378.21876 63.421876 -378.21875 62.53125 L -378.25 50.71875 C -376.73438 47.671891 -374.20314 45.875018 -370.6875 45.3125 L -370.59375 47.6875 C -370.59377 49.718764 -369.59377 50.718763 -367.625 50.71875 C -365.59377 50.718763 -364.51565 49.54689 -364.375 47.15625 C -364.3594 46.906267 -364.34377 46.359393 -364.34375 45.5625 C -364.34377 41.406273 -365.90627 39.343775 -369.03125 39.34375 z M -452.6875 39.5625 C -456.56251 39.562524 -459.87501 40.914086 -462.65625 43.59375 C -465.4375 46.273455 -466.84375 49.48439 -466.84375 53.25 C -466.84375 57.265632 -465.88281 60.296879 -464 62.3125 C -462.11719 64.328125 -459.29688 65.343749 -455.53125 65.34375 C -454.76564 65.343749 -453.84376 65.164061 -452.75 64.8125 C -451.65627 64.460937 -450.40627 63.9375 -448.96875 63.25 C -447.40627 64.812499 -446.25002 65.593748 -445.53125 65.59375 C -444.70315 65.593748 -443.97659 65.328124 -443.34375 64.78125 C -442.71096 64.234375 -442.40628 63.546876 -442.40625 62.71875 C -442.40628 62.531252 -442.70315 61.750002 -443.3125 60.40625 C -443.9844 58.92188 -444.32815 58.109381 -444.375 57.96875 C -444.7969 56.656257 -445.03127 54.515635 -445.03125 51.53125 C -445.03127 50.265639 -444.96096 49.164077 -444.875 48.21875 C -444.78909 47.273454 -444.68752 46.468768 -444.53125 45.84375 C -444.1719 45.421894 -444.00002 44.937519 -444 44.375 C -444.00002 43.031271 -445.1719 41.859397 -447.53125 40.84375 C -449.48439 40.000024 -451.20314 39.562524 -452.6875 39.5625 z M -399.65625 39.5625 C -403.57813 39.562524 -406.68751 41.062523 -409 44.09375 C -411.07813 46.828142 -412.125 50.171889 -412.125 54.125 C -412.125 57.703131 -410.8125 60.468754 -408.1875 62.4375 C -405.81251 64.21875 -402.73439 65.124999 -399 65.125 C -396.54689 65.124999 -394.25002 64.656249 -392.0625 63.71875 C -389.45315 62.593751 -388.12503 61.125003 -388.125 59.34375 C -388.12503 57.765631 -388.93752 57.000007 -390.5625 57 C -391.34377 57.000007 -392.39065 57.359382 -393.6875 58.125 C -395.14064 58.98438 -396.90627 59.437505 -399 59.4375 C -400.37501 59.437505 -401.59376 59.218755 -402.65625 58.8125 C -403.71876 58.406256 -404.62501 57.812506 -405.375 57 L -397.5 53.5 C -394.85939 52.328137 -393.09377 51.421888 -392.21875 50.8125 C -390.2969 49.48439 -389.34377 47.968766 -389.34375 46.25 C -389.34377 43.81252 -390.51565 42.031272 -392.875 40.875 C -394.67189 40.000024 -396.93752 39.562524 -399.65625 39.5625 z M -427.3125 44.9375 C -426.17189 44.937519 -425.20314 45.171894 -424.375 45.65625 C -423.54689 46.140643 -422.85939 46.890642 -422.34375 47.875 C -422.37502 52.843761 -422.37502 55.687508 -422.34375 56.4375 C -422.59377 56.703132 -422.85939 56.968757 -423.125 57.1875 C -424.14064 58.000006 -424.85939 58.500006 -425.28125 58.6875 C -425.90627 58.968755 -426.82814 59.093755 -428.03125 59.09375 C -429.68751 59.093755 -431.12501 58.484381 -432.375 57.28125 C -433.62501 56.078133 -434.25001 54.656259 -434.25 52.96875 C -434.25001 50.296889 -433.68751 48.273453 -432.53125 46.9375 C -431.37501 45.601581 -429.62501 44.937519 -427.3125 44.9375 z M -452.375 45.1875 C -452.20314 45.187519 -451.9922 45.210956 -451.75 45.28125 C -451.50783 45.351581 -451.25002 45.468769 -450.9375 45.625 C -451.07814 46.421893 -451.1797 47.132829 -451.25 47.78125 C -451.32033 48.429703 -451.34377 49.000015 -451.34375 49.5 C -451.34377 51.343763 -451.12502 54.12501 -450.65625 57.84375 C -451.42189 58.468756 -452.22658 58.960943 -453.09375 59.28125 C -453.96095 59.601567 -454.87501 59.750004 -455.84375 59.75 C -457.34376 59.750004 -458.46876 59.210942 -459.21875 58.15625 C -459.96876 57.101569 -460.34376 55.531258 -460.34375 53.4375 C -460.34376 51.250013 -459.56251 49.320327 -457.96875 47.65625 C -456.37501 45.992206 -454.50001 45.187519 -452.375 45.1875 z M -399.65625 45.21875 C -397.96877 45.218769 -396.57814 45.531269 -395.53125 46.125 C -396.78127 46.937517 -398.48439 47.796891 -400.59375 48.75 C -402.34376 49.500015 -404.07813 50.265639 -405.84375 51.03125 C -405.21876 49.093765 -404.40626 47.656266 -403.375 46.6875 C -402.34376 45.718768 -401.10939 45.218769 -399.65625 45.21875 z "
       xlink:href="#text3241"
       style="font-size:48px;font-style:normal;font-variant:normal;font-weight:bold;font-stretch:normal;line-height:125%;letter-spacing:0px;word-spacing:0px;fill:#000000;fill-opacity:1;stroke:none;font-family:Comic Sans MS;-inkscape-font-specification:Comic Sans MS Bold"
       id="path3249"
       inkscape:href="#text3241"
       d="m -487.84375,22.8125 c -1.65101,6.9e-5 -3.48528,0.596341 -4.78125,1.75 -1.33813,1.191332 -2.1875,3.168635 -2.1875,4.96875 0,0.494703 0.0716,0.913803 0.125,1.34375 -0.47422,-0.708719 -1.04967,-1.332601 -1.625,-1.75 -1.23579,-0.896557 -2.5976,-1.430302 -4.21875,-1.9375 -2.47546,-0.773537 -4.6707,-1.218703 -6.78125,-1.21875 -4.67392,4.1e-5 -9.13724,1.606144 -12.90625,4.59375 -3.75983,2.980383 -6.18342,6.890492 -6.25,11.21875 -0.0759,3.923298 2.749,7.376434 6.4375,9.03125 a 3.7033477,3.7033477 0 0 0 0.0312,0 c 2.65675,1.182961 5.56186,1.740971 8.65625,1.8125 3.32221,0.0745 5.64996,0.535541 5.71875,0.5625 -0.23092,0.208312 -0.72974,0.589646 -1.6875,1.03125 a 3.7033477,3.7033477 0 0 0 0,0.03125 c -2.04973,0.954842 -4.09358,1.406254 -6.25,1.40625 -2.35415,4e-6 -2.50764,-0.330139 -2.6875,-0.71875 -0.004,-0.0077 0.004,-0.02355 0,-0.03125 l -0.0312,0 c -1.08327,-2.329599 -3.78406,-4.281231 -6.4375,-4.28125 -1.80219,1.7e-5 -3.85827,0.738738 -5.15625,2.15625 -1.22715,1.340192 -1.875,3.200678 -1.875,4.96875 0,3.131445 1.77015,6.035272 4.28125,7.96875 l 0,0.03125 c 0.006,0.0043 0.0257,-0.0042 0.0312,0 3.09615,2.386923 7.11253,3.406249 11.625,3.40625 4.93714,-10e-7 9.49331,-0.866831 13.53125,-2.6875 2.14386,-0.969845 3.89664,-2.364866 5.375,-3.9375 0.2707,1.541925 1.00281,3.059534 2.09375,4 1.25449,1.081472 3.02822,1.749998 4.71875,1.75 2.48984,-2e-6 5.18744,-1.765909 6.25,-4 0.77527,-1.639155 0.82116,-2.853551 0.96875,-4.71875 0.12418,-1.569386 0.1385,-3.685138 0.15625,-5.96875 0.66688,-1.125396 1.15048,-1.864057 1.5,-2.34375 -0.015,0.380062 -0.0313,0.817069 -0.0312,1.125 -2e-5,1.693208 0.14574,3.620943 0.4375,5.90625 a 3.7033477,3.7033477 0 0 0 0.0312,0.03125 c 0.32691,2.402925 0.65622,4.324194 1.125,5.90625 a 3.7033477,3.7033477 0 0 0 0.0312,0 c 0.39706,1.323584 1.16611,2.6747 2.40625,3.625 1.24014,0.9503 2.78738,1.343749 4.1875,1.34375 1.73516,-2e-6 3.48059,-0.659848 4.75,-1.75 0.72978,-0.626776 1.31218,-1.515701 1.71875,-2.46875 2.71564,2.807235 6.67487,4.062499 11.03125,4.0625 1.345,-2e-6 2.58535,-0.262932 3.90625,-0.6875 0.6166,-0.198198 1.31993,-0.547242 1.96875,-0.8125 0.20731,0.160277 0.41209,0.386416 0.625,0.53125 0.8745,0.594896 1.799,1.218745 3.5,1.21875 1.61995,-4e-6 3.34883,-0.611693 4.59375,-1.6875 0.87392,-0.755264 1.4469,-1.854913 1.8125,-3 2.96762,2.774581 6.89636,4.218749 11.09375,4.21875 1.58271,-10e-7 3.10207,-0.223662 4.53125,-0.625 0.57228,-0.16071 1.09817,-0.496165 1.65625,-0.71875 1.01228,0.585209 2.14664,0.968749 3.25,0.96875 1.68982,-2e-6 3.44646,-0.704081 4.625,-1.75 0.86754,-0.769978 1.3932,-1.884628 1.75,-3.03125 0.55909,0.619961 1.13263,1.240095 1.8125,1.75 3.12131,2.340989 7.07278,3.406249 11.40625,3.40625 2.92483,-10e-7 5.76689,-0.556357 8.40625,-1.6875 1.12916,-0.486827 2.1157,-1.114684 3.03125,-1.84375 0.26545,0.649232 0.56885,1.279295 1.03125,1.8125 0.0155,0.01784 0.0156,0.04484 0.0312,0.0625 l 0.0312,-0.03125 c 1.25454,1.436926 3.25616,2.187496 5,2.1875 1.78095,-4e-6 3.62027,-0.700997 4.90625,-1.9375 1.25496,-1.206705 2.03123,-3.130277 2.03125,-4.84375 l -0.0312,-10.625 c 0.28072,-0.47949 0.59754,-0.877038 0.9375,-1.21875 0.2822,0.661866 0.58024,1.321659 1.125,1.875 1.3619,1.383352 3.26366,1.843761 4.875,1.84375 1.72774,1.1e-5 3.74029,-0.616182 5.0625,-2.0625 1.32221,-1.446318 1.77418,-3.255071 1.875,-4.96875 0.0269,-0.431587 0.0312,-0.96723 0.0312,-1.8125 -10e-6,-2.542145 -0.40859,-4.921857 -1.90625,-6.90625 -1.49766,-1.984393 -4.09161,-2.999981 -6.46875,-3 -2.77475,2.1e-5 -5.38891,0.78549 -7.875,1.9375 -1.28027,-1.087138 -2.94666,-1.531229 -4.4375,-1.53125 -1.70532,4.2e-5 -3.7142,0.689434 -4.96875,2.09375 -0.62849,0.703558 -1.07978,1.563098 -1.375,2.46875 -0.95349,-1.265626 -2.13654,-2.363664 -3.5625,-3.0625 a 3.7033477,3.7033477 0 0 0 0,-0.03125 c -2.46158,-1.19864 -5.29028,-1.656222 -8.40625,-1.65625 -4.86605,3e-5 -9.35519,2.133248 -12.28125,5.96875 -0.014,0.01846 -0.0173,0.044 -0.0312,0.0625 0.0508,-0.71796 0.0319,-0.961026 0.0937,-1.75 0.35517,-4.530654 0.53122,-7.944863 0.53125,-10.40625 -6e-5,-1.667222 -0.65682,-3.465733 -1.84375,-4.71875 -1.31474,-1.387647 -3.26256,-2.031183 -4.9375,-2.03125 -1.51635,3.2e-5 -3.26115,0.444709 -4.5625,1.625 -1.30135,1.180291 -1.91089,2.794977 -2.125,4.28125 a 3.7033477,3.7033477 0 0 0 0,0.03125 c -0.18982,1.370836 -0.30195,4.285738 -0.4375,6.625 -0.71631,-0.09135 -1.4009,-0.249984 -2.15625,-0.25 -4.6594,3e-5 -8.9818,1.74223 -12.03125,5.0625 -0.52391,0.570442 -0.94298,1.209457 -1.375,1.84375 -0.36015,-0.901868 -0.82018,-1.726428 -1.4375,-2.34375 -1.08662,-1.086616 -2.36226,-1.813202 -3.8125,-2.4375 -2.25135,-0.972549 -4.41308,-1.562464 -6.625,-1.5625 -4.73604,2.9e-5 -9.14009,1.795194 -12.53125,5.0625 -1.10559,1.065221 -2.00317,2.261368 -2.78125,3.53125 -0.32868,-1.935541 -0.82594,-3.740427 -2,-5.25 a 3.7033477,3.7033477 0 0 0 -0.0312,0 c -2.00261,-2.563243 -5.29145,-3.656219 -8.65625,-3.65625 -1.3378,2.3e-5 -2.66663,0.231352 -3.96875,0.59375 0.0279,-0.963529 0.0625,-1.948242 0.0625,-2.875 -10e-6,-2.116631 -0.0696,-3.78228 -0.59375,-5.4375 -0.42791,-1.334016 -1.21057,-2.691251 -2.4375,-3.65625 -1.22693,-0.964999 -2.797,-1.374965 -4.21875,-1.375 z m -6.625,13.84375 c -0.0155,0.315999 -0.0128,0.325189 -0.0312,0.6875 a 3.7033477,3.7033477 0 0 0 0,0.03125 l -0.0312,0.78125 a 3.7033477,3.7033477 0 0 0 0,0.09375 c -0.0448,2.992077 -0.0145,4.165214 -0.0312,6.46875 -0.41718,-0.481721 -0.82009,-0.990121 -1.3125,-1.40625 -1.51987,-1.272416 -3.34688,-2.118817 -5.3125,-2.75 0.15375,0.0061 0.34623,0.06251 0.5,0.0625 1.79935,4.9e-5 3.87162,-0.81806 5.15625,-2.25 0.006,-0.0065 -0.006,-0.02474 0,-0.03125 0.43591,-0.488477 0.77308,-1.069984 1.0625,-1.6875 z M -425.3125,48.625 c 0.63338,1.1e-5 0.87133,0.106938 1.0625,0.21875 0.0548,0.03207 0.15266,0.190685 0.21875,0.25 -0.0163,2.794322 -0.0154,4.490568 0,5.65625 -0.33456,0.22624 -0.96273,0.657049 -0.75,0.5625 a 3.7033477,3.7033477 0 0 0 -0.0312,0 c 0.24313,-0.109405 -0.27213,0.09375 -1.21875,0.09375 -0.74798,2e-6 -1.10313,-0.128551 -1.78125,-0.78125 -0.64409,-0.619925 -0.75,-0.883064 -0.75,-1.65625 -10e-6,-2.152135 0.50939,-3.207423 0.84375,-3.59375 0.34367,-0.397079 0.80262,-0.749987 2.40625,-0.75 z M -453,50 c 0.0178,1.472393 0.24051,3.65838 0.46875,5.84375 -0.3845,0.125405 -0.78516,0.218752 -1.3125,0.21875 -0.61284,2e-6 -0.26193,0.05256 -0.34375,-0.0625 -0.0818,-0.115061 -0.46876,-0.910896 -0.46875,-2.5625 -10e-6,-1.305811 0.35223,-2.150859 1.375,-3.21875 0.1028,-0.107335 0.18346,-0.12701 0.28125,-0.21875 z m 66.84375,1.8125 0,1.9375 c -0.53678,-0.194584 -1.03709,-0.257153 -1.5625,-0.3125 0.60478,-0.46241 1.06046,-1.054806 1.5625,-1.625 z m -119.25,1.3125 c -0.0376,-0.03461 -0.12501,0.02502 -0.125,0.5 10e-6,-0.348976 0.13766,-0.533393 0.0625,-0.46875 0.002,-0.01912 0.0735,-0.0211 0.0625,-0.03125 z" />
    <text
       xml:space="preserve"
       style="font-size:48px;font-style:normal;font-variant:normal;font-weight:bold;font-stretch:normal;line-height:125%;letter-spacing:0px;word-spacing:0px;fill:#ffff00;fill-opacity:1;stroke:none;font-family:Comic Sans MS;-inkscape-font-specification:Comic Sans MS Bold"
       x="-529.18304"
       y="64.040184"
       id="text3241"
       sodipodi:linespacing="125%"><tspan
         sodipodi:role="line"
         id="tspan3243"
         x="-529.18304"
         y="64.040184">Shader</tspan></text>
  </g>
</svg>
