<?xml version="1.0" encoding="UTF-8" standalone="no"?>
<!-- Created with Inkscape (http://www.inkscape.org/) -->

<svg
   xmlns:dc="http://purl.org/dc/elements/1.1/"
   xmlns:cc="http://creativecommons.org/ns#"
   xmlns:rdf="http://www.w3.org/1999/02/22-rdf-syntax-ns#"
   xmlns:svg="http://www.w3.org/2000/svg"
   xmlns="http://www.w3.org/2000/svg"
   xmlns:xlink="http://www.w3.org/1999/xlink"
   xmlns:sodipodi="http://sodipodi.sourceforge.net/DTD/sodipodi-0.dtd"
   xmlns:inkscape="http://www.inkscape.org/namespaces/inkscape"
   width="79.285713"
   height="33.928574"
   id="svg2"
   version="1.1"
   inkscape:version="0.48.4 r9939"
   sodipodi:docname="New document 1">
  <defs
     id="defs4" />
  <sodipodi:namedview
     id="base"
     pagecolor="#ffffff"
     bordercolor="#666666"
     borderopacity="1.0"
     inkscape:pageopacity="0.0"
     inkscape:pageshadow="2"
     inkscape:zoom="2.8"
     inkscape:cx="66.935149"
     inkscape:cy="-9.3080378"
     inkscape:document-units="px"
     inkscape:current-layer="layer1"
     showgrid="false"
     inkscape:window-width="1366"
     inkscape:window-height="716"
     inkscape:window-x="-8"
     inkscape:window-y="-8"
     inkscape:window-maximized="1"
     fit-margin-top="0"
     fit-margin-left="0"
     fit-margin-right="0"
     fit-margin-bottom="0" />
  <metadata
     id="metadata7">
    <rdf:RDF>
      <cc:Work
         rdf:about="">
        <dc:format>image/svg+xml</dc:format>
        <dc:type
           rdf:resource="http://purl.org/dc/dcmitype/StillImage" />
        <dc:title></dc:title>
      </cc:Work>
    </rdf:RDF>
  </metadata>
  <g
     inkscape:label="Layer 1"
     inkscape:groupmode="layer"
     id="layer1"
     transform="translate(-179.64285,-261.64789)">
    <rect
       style="color:#000000;fill:#00ff00;fill-opacity:1;fill-rule:nonzero;stroke:none;stroke-width:1.20927203;marker:none;visibility:visible;display:inline;overflow:visible;enable-background:accumulate"
       id="rect3187"
       width="79.285713"
       height="33.928574"
       x="179.64285"
       y="261.64789" />
    <flowRoot
       xml:space="preserve"
       id="flowRoot2985"
       style="font-size:10px;font-style:normal;font-weight:bold;line-height:125%;letter-spacing:0px;word-spacing:0px;fill:#000000;fill-opacity:1;stroke:none;font-family:Sans;-inkscape-font-specification:Sans Bold"><flowRegion
         id="flowRegion2987"><rect
           id="rect2989"
           width="365.71429"
           height="177.14285"
           x="77.14286"
           y="229.50504" /></flowRegion><flowPara
         id="flowPara2991"></flowPara></flowRoot>    <g
       transform="translate(50,17.142857)"
       style="font-size:24px;font-style:normal;font-weight:bold;line-height:125%;letter-spacing:0px;word-spacing:0px;fill:#000000;fill-opacity:1;stroke:none;font-family:Sans;-inkscape-font-specification:Sans Bold"
       id="flowRoot2993">
      <path
         sodipodi:type="inkscape:offset"
         inkscape:radius="4.6215882"
         inkscape:original="M 195.40625 252.59375 C 194.95312 252.59376 194.57031 252.7422 194.25 253.03125 C 193.92968 253.32033 193.75 253.68752 193.75 254.125 C 193.75 254.39845 193.7812 254.78126 193.8125 255.28125 C 193.8437 255.85939 193.867 256.28126 193.875 256.53125 C 192.83594 256.43752 192.16406 256.40626 191.875 256.40625 C 191.40625 256.40626 191.01562 256.53908 190.71875 256.84375 C 190.42187 257.14845 190.28125 257.53127 190.28125 257.96875 C 190.28125 258.87501 190.76953 259.36329 191.75 259.46875 C 192.73046 259.57421 193.45312 259.6641 193.9375 259.6875 C 194.07814 262.78907 194.15625 264.8047 194.15625 265.75 C 194.15625 266.03126 194.1484 266.4375 194.125 267 C 194.1015 267.5625 194.09374 268 194.09375 268.28125 C 194.09374 268.70313 194.25 269.0625 194.59375 269.34375 C 194.90625 269.60938 195.28906 269.71875 195.71875 269.71875 C 196.85156 269.71875 197.40625 268.82812 197.40625 267.03125 C 197.40625 266.85937 197.41425 266.65234 197.40625 266.375 C 197.39855 266.09766 197.375 265.88281 197.375 265.78125 C 197.375 264.8125 197.32812 262.75001 197.1875 259.59375 C 197.60936 259.53135 197.96093 259.50001 198.28125 259.5 C 198.4453 259.5 198.65233 259.51955 198.875 259.53125 C 199.09764 259.54285 199.27343 259.53125 199.4375 259.53125 L 199.46875 259.53125 C 199.9375 259.53125 200.3203 259.39064 200.625 259.09375 C 200.92968 258.79689 201.06249 258.44532 201.0625 258 C 201.06249 257.26564 200.74999 256.78127 200.125 256.5625 C 199.79687 256.44532 199.17968 256.37502 198.28125 256.375 C 197.97655 256.37502 197.60937 256.4297 197.125 256.5 L 197.125 255.53125 C 197.125 253.58596 196.56249 252.59376 195.40625 252.59375 z "
         xlink:href="#path3173"
         style="font-variant:normal;font-stretch:normal;fill:#ffffff;font-family:Comic Sans MS;-inkscape-font-specification:Comic Sans MS Bold"
         id="path3198"
         inkscape:href="#path3173"
         d="m 195.40625,247.96875 c -1.46239,3e-5 -3.15426,0.6362 -4.25,1.625 -0.70985,0.64062 -1.23272,1.61323 -1.59375,2.65625 -0.7799,0.29929 -1.54531,0.74801 -2.15625,1.375 -1.13808,1.16805 -1.75,2.91592 -1.75,4.34375 0,1.28315 0.46634,3.04059 1.6875,4.28125 0.65004,0.66042 1.37399,1.09584 2.09375,1.375 0.0192,0.5995 0.0937,1.87377 0.0937,2.125 0,0.19527 -0.01,0.54944 -0.0312,1.0625 -0.0259,0.61996 -0.0313,1.10232 -0.0312,1.46875 -4e-5,1.54273 0.87831,3.48408 2.15625,4.5625 l -0.0312,0.0312 c 0.0184,0.0157 0.0439,0.0159 0.0625,0.0312 1.24744,1.03178 2.86642,1.4375 4.0625,1.4375 1.77759,0 4.16564,-1.21304 5.1875,-2.84375 1.02186,-1.63071 1.125,-3.09476 1.125,-4.46875 0,-0.0285 0.0125,-0.34889 0,-0.78125 -0.0131,-0.47247 -0.0312,-1.08163 -0.0312,-0.46875 0,-0.3817 -0.0492,-1.57588 -0.0625,-2.1875 0.69891,-0.29159 1.37547,-0.67033 1.90625,-1.1875 1.13017,-1.10116 1.84372,-3.04211 1.84375,-4.40625 -3e-5,-2.03328 -1.83756,-4.9967 -4,-5.78125 -0.0136,-0.005 -0.0178,0.005 -0.0312,0 -0.23206,-0.0819 -0.33081,-0.008 -0.53125,-0.0625 -0.14242,-0.38422 -0.20184,-0.7503 -0.4375,-1.15625 -0.95804,-1.65033 -3.38117,-3.03123 -5.28125,-3.03125 z" />
      <path
         sodipodi:type="inkscape:offset"
         inkscape:radius="4.3723464"
         inkscape:original="M 187.125 256.625 C 185.43749 256.62501 183.91406 257.15626 182.53125 258.1875 C 182.36718 257.29689 181.86719 256.84377 181 256.84375 C 180.51563 256.84377 180.13672 256.98829 179.875 257.28125 C 179.61328 257.57423 179.46875 257.93751 179.46875 258.375 C 179.46875 258.6172 179.4531 258.9883 179.4375 259.46875 C 179.4221 259.94923 179.4375 260.28907 179.4375 260.53125 L 179.4375 263.78125 L 179.4375 268.21875 C 179.4375 268.65625 179.5625 269 179.8125 269.28125 C 180.07812 269.59374 180.45312 269.74999 180.9375 269.75 C 181.40625 269.74999 181.78906 269.60547 182.09375 269.3125 C 182.39843 269.01953 182.53124 268.66406 182.53125 268.21875 L 182.53125 265.21875 L 182.53125 262.3125 C 183.28906 260.78907 184.55468 259.90626 186.3125 259.625 L 186.375 260.8125 C 186.37499 261.82813 186.85937 262.31251 187.84375 262.3125 C 188.85937 262.31251 189.39845 261.72657 189.46875 260.53125 C 189.47645 260.40626 189.46874 260.14845 189.46875 259.75 C 189.46874 257.67189 188.68749 256.62501 187.125 256.625 z "
         xlink:href="#path3171"
         style="font-variant:normal;font-stretch:normal;fill:#ffffff;font-family:Comic Sans MS;-inkscape-font-specification:Comic Sans MS Bold"
         id="path3196"
         inkscape:href="#path3171"
         d="m 187.125,252.25 c -1.34054,1e-5 -2.65364,0.27788 -3.90625,0.71875 -0.77321,-0.29862 -1.54308,-0.49998 -2.21875,-0.5 -1.35398,6e-5 -3.19237,0.58246 -4.375,1.90625 -0.92523,1.03574 -1.53125,2.59954 -1.53125,4 0,0.0539 -0.0149,0.43524 -0.0312,0.9375 a 4.3727836,4.3727836 0 0 0 0,0.0312 c -0.0205,0.63974 0,1.13068 0,1.1875 l 0,3.25 0,4.4375 c 0,1.25017 0.52083,2.84293 1.4375,3.90625 0.0133,0.0154 0.0177,0.0472 0.0312,0.0625 1.12239,1.26956 3.00549,1.93747 4.40625,1.9375 1.36739,-3e-5 3.08173,-0.59301 4.1875,-1.65625 1.12079,-1.07772 1.78122,-2.9354 1.78125,-4.25 l 0,-1.6875 c 0.31205,0.0435 0.66664,0.15625 0.9375,0.15625 1.34866,10e-6 3.21332,-0.5701 4.40625,-1.875 1.18393,-1.29505 1.5192,-2.79479 1.59375,-4 5.7e-4,-0.009 -5.4e-4,-0.0221 0,-0.0312 0.036,-0.61678 -1e-5,-0.69931 0,-1.03125 -1e-5,-1.58697 -0.24118,-3.32994 -1.46875,-4.96875 -1.22757,-1.63881 -3.49226,-2.53124 -5.25,-2.53125 z" />
      <path
         sodipodi:type="inkscape:offset"
         inkscape:radius="4.4036078"
         inkscape:original="M 172.8125 256.75 C 170.875 256.75002 169.23437 257.41017 167.84375 258.75 C 166.45312 260.08985 165.75 261.71095 165.75 263.59375 C 165.75 265.60157 166.21484 267.11719 167.15625 268.125 C 168.09765 269.13281 169.52343 269.625 171.40625 269.625 C 171.78905 269.625 172.23437 269.55078 172.78125 269.375 C 173.32812 269.19922 173.96874 268.9375 174.6875 268.59375 C 175.46874 269.375 176.04687 269.75 176.40625 269.75 C 176.8203 269.75 177.18358 269.61719 177.5 269.34375 C 177.81639 269.07031 177.96873 268.72656 177.96875 268.3125 C 177.96873 268.21875 177.80468 267.82813 177.5 267.15625 C 177.16406 266.41407 176.99215 266.0078 176.96875 265.9375 C 176.7578 265.28126 176.65623 264.21094 176.65625 262.71875 C 176.65625 262.08594 176.67575 261.53517 176.71875 261.0625 C 176.76171 260.58986 176.82815 260.18751 176.90625 259.875 C 177.08588 259.66407 177.18749 259.43751 177.1875 259.15625 C 177.18749 258.48438 176.58593 257.88282 175.40625 257.375 C 174.42968 256.95313 173.55468 256.75002 172.8125 256.75 z M 172.96875 259.53125 C 173.05468 259.53125 173.16014 259.55865 173.28125 259.59375 C 173.40233 259.62892 173.56249 259.70315 173.71875 259.78125 C 173.64845 260.1797 173.5976 260.51954 173.5625 260.84375 C 173.5274 261.16797 173.5 261.46876 173.5 261.71875 C 173.5 262.64064 173.60936 264.01563 173.84375 265.875 C 173.46093 266.1875 173.05858 266.4336 172.625 266.59375 C 172.1914 266.75389 171.73437 266.84375 171.25 266.84375 C 170.5 266.84375 169.9375 266.5586 169.5625 266.03125 C 169.1875 265.50391 169 264.73438 169 263.6875 C 169 262.59376 169.39062 261.61329 170.1875 260.78125 C 170.98437 259.94923 171.90624 259.53125 172.96875 259.53125 z "
         xlink:href="#path3169"
         style="font-variant:normal;font-stretch:normal;fill:#ffffff;font-family:Comic Sans MS;-inkscape-font-specification:Comic Sans MS Bold"
         id="path3194"
         inkscape:href="#path3169"
         d="m 172.8125,252.34375 c -2.93775,3e-5 -5.91485,1.2109 -8.03125,3.25 -2.1346,2.05666 -3.4375,5.02087 -3.4375,8 0,2.68749 0.64256,5.44244 2.59375,7.53125 1.96722,2.106 4.8185,2.90625 7.46875,2.90625 0.91829,0 1.78694,-0.1756 2.625,-0.4375 0.55163,0.30443 1.23173,0.5625 2.375,0.5625 1.35571,0 2.92443,-0.56628 3.96875,-1.46875 1.16871,-1.01006 1.99993,-2.88095 2,-4.375 -2.8e-4,-1.30707 -0.17755,-1.31434 -0.25,-1.53125 -0.0725,-0.21691 -0.12697,-0.35204 -0.1875,-0.5 -0.12105,-0.29592 -0.27537,-0.57996 -0.4375,-0.9375 -0.15986,-0.35317 -0.26904,-0.63983 -0.34375,-0.8125 0.0694,0.19805 -0.0938,-0.56314 -0.0937,-1.8125 0,-0.54235 0.005,-0.96508 0.0312,-1.25 0.014,-0.15441 0.0473,-0.18909 0.0625,-0.28125 0.002,-0.01 -0.002,-0.0223 0,-0.0312 0.027,-0.0677 0.006,-0.14949 0.0312,-0.21875 0.2072,-0.57414 0.40623,-1.18258 0.40625,-1.78125 -2e-5,-1.65017 -0.86683,-3.17933 -1.75,-4.0625 -0.88317,-0.88317 -1.76731,-1.35388 -2.6875,-1.75 -1.38329,-0.59757 -2.79825,-0.99996 -4.34375,-1 z m -0.65625,10.59375 c 0.0489,0.0237 0.0761,0.0365 0.125,0.0625 0.21042,0.11179 0.3607,0.13801 0.53125,0.28125 0.1111,0.0933 0.27225,0.087 0.34375,0.1875 0.1059,0.14892 0.11448,0.19322 0.15625,0.28125 0.009,0.0191 0.0245,0.0466 0.0312,0.0625 0.053,-0.0816 -0.28911,0.125 -0.375,0.125 -0.7351,0 -0.7786,-0.10926 -0.78125,-0.125 l -0.0937,-0.0937 -0.21875,-0.25 0.28125,-0.53125 z" />
      <path
         sodipodi:type="inkscape:offset"
         inkscape:radius="4.1707826"
         inkscape:original="M 159.21875 252.59375 C 158.76562 252.59376 158.38281 252.7422 158.0625 253.03125 C 157.74218 253.32033 157.5625 253.68752 157.5625 254.125 C 157.5625 254.39845 157.5937 254.78126 157.625 255.28125 C 157.6562 255.85939 157.6795 256.28126 157.6875 256.53125 C 156.64844 256.43752 155.97656 256.40626 155.6875 256.40625 C 155.21875 256.40626 154.82812 256.53908 154.53125 256.84375 C 154.23437 257.14845 154.09375 257.53127 154.09375 257.96875 C 154.09375 258.87501 154.58203 259.36329 155.5625 259.46875 C 156.54296 259.57421 157.26562 259.6641 157.75 259.6875 C 157.89064 262.78907 157.96875 264.8047 157.96875 265.75 C 157.96875 266.03126 157.9609 266.4375 157.9375 267 C 157.914 267.5625 157.90624 268 157.90625 268.28125 C 157.90624 268.70313 158.0625 269.0625 158.40625 269.34375 C 158.71875 269.60938 159.10156 269.71875 159.53125 269.71875 C 160.66406 269.71875 161.21875 268.82812 161.21875 267.03125 C 161.21875 266.85937 161.22675 266.65234 161.21875 266.375 C 161.21105 266.09766 161.1875 265.88281 161.1875 265.78125 C 161.1875 264.8125 161.14062 262.75001 161 259.59375 C 161.42186 259.53135 161.77343 259.50001 162.09375 259.5 C 162.2578 259.5 162.46483 259.51955 162.6875 259.53125 C 162.91014 259.54285 163.08593 259.53125 163.25 259.53125 L 163.28125 259.53125 C 163.75 259.53125 164.1328 259.39064 164.4375 259.09375 C 164.74218 258.79689 164.87499 258.44532 164.875 258 C 164.87499 257.26564 164.56249 256.78127 163.9375 256.5625 C 163.60937 256.44532 162.99218 256.37502 162.09375 256.375 C 161.78905 256.37502 161.42187 256.4297 160.9375 256.5 L 160.9375 255.53125 C 160.9375 253.58596 160.37499 252.59376 159.21875 252.59375 z "
         xlink:href="#path3167"
         style="font-variant:normal;font-stretch:normal;fill:#ffffff;font-family:Comic Sans MS;-inkscape-font-specification:Comic Sans MS Bold"
         id="path3192"
         inkscape:href="#path3167"
         d="m 159.21875,248.4375 c -1.36394,3e-5 -2.9174,0.57945 -3.9375,1.5 -0.71281,0.64329 -1.21316,1.63275 -1.53125,2.6875 -0.80096,0.2731 -1.5931,0.67041 -2.21875,1.3125 -1.05602,1.08384 -1.59375,2.70002 -1.59375,4.03125 0,1.20218 0.43659,2.82487 1.5625,3.96875 0.68828,0.69927 1.45587,1.0611 2.21875,1.3125 0.0263,0.76888 0.0937,2.19551 0.0937,2.5 0,0.20366 -0.01,0.54462 -0.0312,1.0625 -0.0257,0.61436 -0.0313,1.11063 -0.0312,1.46875 -3e-5,1.43889 0.77457,3.25222 1.96875,4.25 0.0114,0.01 0.0198,0.0217 0.0312,0.0312 1.15832,0.96691 2.65494,1.3125 3.78125,1.3125 1.65945,0 3.86298,-1.10973 4.8125,-2.625 0.94952,-1.51527 1.03125,-2.89114 1.03125,-4.21875 0,-0.0425 0.012,-0.36401 0,-0.78125 -0.0126,-0.45344 -0.0312,-1.01194 -0.0312,-0.46875 0,-0.42721 -0.0452,-1.74169 -0.0625,-2.46875 0.76411,-0.27284 1.48837,-0.65934 2.0625,-1.21875 1.04965,-1.02271 1.68747,-2.81923 1.6875,-4.09375 -3e-5,-1.90996 -1.67042,-4.65199 -3.6875,-5.375 -0.0132,-0.005 -0.0182,0.005 -0.0312,0 -0.30502,-0.10755 -0.46538,-0.0339 -0.71875,-0.0937 -0.14239,-0.42633 -0.20788,-0.83187 -0.46875,-1.28125 -0.89241,-1.53726 -3.13512,-2.81248 -4.90625,-2.8125 z" />
      <path
         sodipodi:type="inkscape:offset"
         inkscape:radius="1.8210784"
         inkscape:original="M 195.40625 252.59375 C 194.95312 252.59376 194.57031 252.7422 194.25 253.03125 C 193.92968 253.32033 193.75 253.68752 193.75 254.125 C 193.75 254.39845 193.7812 254.78126 193.8125 255.28125 C 193.8437 255.85939 193.867 256.28126 193.875 256.53125 C 192.83594 256.43752 192.16406 256.40626 191.875 256.40625 C 191.40625 256.40626 191.01562 256.53908 190.71875 256.84375 C 190.42187 257.14845 190.28125 257.53127 190.28125 257.96875 C 190.28125 258.87501 190.76953 259.36329 191.75 259.46875 C 192.73046 259.57421 193.45312 259.6641 193.9375 259.6875 C 194.07814 262.78907 194.15625 264.8047 194.15625 265.75 C 194.15625 266.03126 194.1484 266.4375 194.125 267 C 194.1015 267.5625 194.09374 268 194.09375 268.28125 C 194.09374 268.70313 194.25 269.0625 194.59375 269.34375 C 194.90625 269.60938 195.28906 269.71875 195.71875 269.71875 C 196.85156 269.71875 197.40625 268.82812 197.40625 267.03125 C 197.40625 266.85937 197.41425 266.65234 197.40625 266.375 C 197.39855 266.09766 197.375 265.88281 197.375 265.78125 C 197.375 264.8125 197.32812 262.75001 197.1875 259.59375 C 197.60936 259.53135 197.96093 259.50001 198.28125 259.5 C 198.4453 259.5 198.65233 259.51955 198.875 259.53125 C 199.09764 259.54285 199.27343 259.53125 199.4375 259.53125 L 199.46875 259.53125 C 199.9375 259.53125 200.3203 259.39064 200.625 259.09375 C 200.92968 258.79689 201.06249 258.44532 201.0625 258 C 201.06249 257.26564 200.74999 256.78127 200.125 256.5625 C 199.79687 256.44532 199.17968 256.37502 198.28125 256.375 C 197.97655 256.37502 197.60937 256.4297 197.125 256.5 L 197.125 255.53125 C 197.125 253.58596 196.56249 252.59376 195.40625 252.59375 z "
         xlink:href="#path3173"
         style="font-variant:normal;font-stretch:normal;fill:#ffffff;font-family:Comic Sans MS;-inkscape-font-specification:Comic Sans MS Bold"
         id="path3200"
         inkscape:href="#path3173"
         d="m 195.40625,250.78125 c -0.85082,2e-5 -1.74914,0.34147 -2.375,0.90625 -0.63827,0.57602 -1.09375,1.50139 -1.09375,2.4375 0,0.15085 0.0237,0.32063 0.0312,0.46875 -0.0192,-1.4e-4 -0.0755,0 -0.0937,0 -0.81273,2e-5 -1.79926,0.28167 -2.46875,0.96875 -0.62834,0.64489 -0.9375,1.57853 -0.9375,2.40625 0,0.78019 0.24558,1.67303 0.875,2.3125 0.62942,0.63947 1.46334,0.91875 2.21875,1 0.26467,0.0285 0.39562,0.0367 0.625,0.0625 0.0783,1.86998 0.15625,3.78249 0.15625,4.40625 0,0.24738 -0.009,0.64448 -0.0312,1.1875 -0.0245,0.58514 -0.0313,1.02894 -0.0312,1.34375 -2e-5,0.85802 0.42196,1.84263 1.125,2.4375 0.005,0.004 0.0265,-0.004 0.0312,0 0.006,0.005 -0.006,0.026 0,0.0312 0.67887,0.56045 1.55455,0.78125 2.28125,0.78125 1.04366,0 2.24001,-0.58641 2.8125,-1.5 0.57249,-0.91359 0.6875,-1.91418 0.6875,-3 0,-0.11537 0.01,-0.38032 0,-0.71875 -0.01,-0.35423 -0.0312,-0.71121 -0.0312,-0.53125 0,-0.72586 -0.0611,-2.65034 -0.125,-4.4375 0.13898,-9.4e-4 0.33029,0 0.375,0 l 0.0312,0 c 0.83293,0 1.79262,-0.30915 2.4375,-0.9375 0.62995,-0.61379 0.96873,-1.59888 0.96875,-2.40625 -2e-5,-1.23736 -0.90793,-2.67434 -2.125,-3.125 -0.006,-0.002 0.006,-0.0291 0,-0.0312 -0.01,-0.004 -0.0214,0.003 -0.0312,0 -0.5896,-0.20629 -1.19815,-0.20362 -1.84375,-0.21875 -0.0661,-0.77877 -0.19681,-1.53497 -0.59375,-2.21875 -0.5503,-0.94795 -1.77598,-1.62499 -2.875,-1.625 z" />
      <path
         style="font-variant:normal;font-stretch:normal;fill:#ffff00;font-family:Comic Sans MS;-inkscape-font-specification:Comic Sans MS Bold"
         d="m 147.09375,251.09375 c -2.07905,2e-5 -4.01174,0.70939 -5.71875,2.0625 -1.70364,1.35046 -2.69174,2.96034 -2.71875,4.71875 -0.0289,1.49197 0.97626,2.6946 2.5625,3.40625 1.15485,0.51422 2.4412,0.81065 3.875,0.84375 a 0.67905922,0.67905922 0 0 0 0.0312,0 c 1.71236,0.0384 2.83613,0.19382 3.21875,0.34375 0.59308,0.22812 0.78124,0.51495 0.78125,1.3125 0,0.16011 -0.0475,0.32453 -0.28125,0.5625 -0.23371,0.23797 -0.644,0.50183 -1.25,0.78125 -1.17239,0.54614 -2.37862,0.8125 -3.625,0.8125 -1.43294,0 -2.09054,-0.34996 -2.40625,-1.03125 -0.40238,-0.88139 -1.23182,-1.46875 -2.15625,-1.46875 -0.64843,0 -1.30063,0.19675 -1.75,0.6875 -0.41368,0.4518 -0.625,1.06597 -0.625,1.6875 0,1.18542 0.63896,2.26855 1.71875,3.09375 1.29364,1.00126 3.01135,1.46875 5.09375,1.46875 2.33015,0 4.43261,-0.41647 6.28125,-1.25 2.44469,-1.10594 3.84373,-2.91572 3.84375,-5.1875 -2e-5,-1.80571 -0.64229,-3.36934 -1.90625,-4.4375 -1.14257,-0.95654 -2.66569,-1.48453 -4.5,-1.625 a 0.67905922,0.67905922 0 0 0 -0.0312,0 c -0.97445,-0.0537 -1.93096,-0.10316 -2.90625,-0.15625 -0.0295,-0.004 -0.0341,0.004 -0.0625,0 -0.46122,-0.0718 -0.7965,-0.1866 -0.9375,-0.28125 -0.16866,-0.1132 -0.125,-0.0917 -0.125,-0.15625 0,-0.0991 0.0332,-0.19948 0.1875,-0.375 0.1543,-0.17552 0.42525,-0.40878 0.84375,-0.625 0.81235,-0.42718 1.65643,-0.61781 2.5625,-0.625 0.29959,2e-5 0.80157,0.0381 1.5,0.1875 0.74538,0.15946 1.32969,0.28128 1.8125,0.28125 0.64868,3e-5 1.23751,-0.32089 1.65625,-0.78125 l 0.0312,0.0312 c 0.007,-0.007 -0.006,-0.0239 0,-0.0312 0.3668,-0.41733 0.62499,-0.9609 0.625,-1.53125 -1e-5,-0.56109 -0.3649,-1.02404 -0.8125,-1.34375 -0.4476,-0.31971 -1.0434,-0.58166 -1.78125,-0.8125 -1.16635,-0.36447 -2.15942,-0.56248 -3.03125,-0.5625 z"
         id="path3175"
         inkscape:connector-curvature="0" />
      <path
         sodipodi:type="inkscape:offset"
         inkscape:radius="4.6871386"
         inkscape:original="M 147.09375 251.78125 C 145.16405 251.78127 143.38281 252.41798 141.78125 253.6875 C 140.17969 254.95704 139.36715 256.35158 139.34375 257.875 C 139.32032 259.08595 140.05468 260.00782 141.5 260.65625 C 142.5703 261.13282 143.77343 261.4063 145.125 261.4375 C 146.86718 261.47657 148.01561 261.6172 148.59375 261.84375 C 149.40624 262.15626 149.81249 262.79689 149.8125 263.78125 C 149.81249 264.50001 149.17967 265.14844 147.875 265.75 C 146.61718 266.33594 145.3125 266.625 143.96875 266.625 C 142.39844 266.625 141.3828 266.14844 140.9375 265.1875 C 140.60937 264.46876 140.10937 264.125 139.40625 264.125 C 138.88281 264.125 138.45313 264.26953 138.15625 264.59375 C 137.85938 264.91797 137.71875 265.32031 137.71875 265.8125 C 137.71875 266.77343 138.19531 267.64063 139.15625 268.375 C 140.29687 269.25782 141.85937 269.6875 143.84375 269.6875 C 146.09374 269.6875 148.09374 269.28906 149.84375 268.5 C 152.14061 267.46094 153.28123 265.95313 153.28125 263.9375 C 153.28123 262.28125 152.73436 260.96876 151.625 260.03125 C 150.61717 259.18751 149.23437 258.69532 147.5 258.5625 C 146.50781 258.50782 145.53125 258.46095 144.53125 258.40625 C 143.96093 258.32813 143.53515 258.19142 143.25 258 C 142.96484 257.8086 142.81249 257.57813 142.8125 257.28125 C 142.81249 256.71095 143.28124 256.17188 144.21875 255.6875 C 145.12499 255.21095 146.08593 254.97675 147.09375 254.96875 C 147.46874 254.96877 148.01952 255.03126 148.75 255.1875 C 149.48046 255.34377 150.03905 255.43752 150.40625 255.4375 C 150.89842 255.43752 151.28123 255.25783 151.59375 254.90625 C 151.87498 254.59376 152.03124 254.21876 152.03125 253.8125 C 152.03124 253.2422 151.33592 252.75001 149.9375 252.3125 C 148.81249 251.96095 147.85936 251.78127 147.09375 251.78125 z "
         xlink:href="#path3165"
         style="font-variant:normal;font-stretch:normal;fill:#ffffff;font-family:Comic Sans MS;-inkscape-font-specification:Comic Sans MS Bold"
         id="path3190"
         inkscape:href="#path3165"
         d="m 147.09375,247.09375 c -2.96069,3e-5 -5.88926,1.05971 -8.21875,2.90625 -2.29848,1.82198 -4.15853,4.64845 -4.21875,7.78125 -2e-4,0.0105 1.6e-4,0.0207 0,0.0312 -0.015,1.0861 0.34976,2.09951 0.84375,3.0625 -0.26842,0.20198 -0.57581,0.30402 -0.8125,0.5625 -1.10325,1.20489 -1.65625,2.98999 -1.65625,4.375 0,2.49512 1.48315,4.88415 3.25,6.25 l 0,0.0312 c 0.005,0.004 0.0262,-0.004 0.0312,0 2.19277,1.68682 4.8795,2.28125 7.53125,2.28125 2.80334,0 5.5066,-0.49769 7.9375,-1.59375 3.31738,-1.50072 6.18746,-5.05988 6.1875,-8.84375 -3e-5,-2.30689 -0.88575,-4.76671 -2.5,-6.59375 0.69446,-1.00522 1.24997,-2.20899 1.25,-3.53125 -4e-5,-2.19001 -1.46821,-3.88801 -2.5,-4.625 -1.03179,-0.73699 -1.90904,-1.04154 -2.875,-1.34375 -1.4104,-0.44073 -2.75115,-0.74996 -4.25,-0.75 z" />
      <path
         sodipodi:type="inkscape:offset"
         inkscape:radius="1.7004459"
         inkscape:original="M 159.21875 252.59375 C 158.76562 252.59376 158.38281 252.7422 158.0625 253.03125 C 157.74218 253.32033 157.5625 253.68752 157.5625 254.125 C 157.5625 254.39845 157.5937 254.78126 157.625 255.28125 C 157.6562 255.85939 157.6795 256.28126 157.6875 256.53125 C 156.64844 256.43752 155.97656 256.40626 155.6875 256.40625 C 155.21875 256.40626 154.82812 256.53908 154.53125 256.84375 C 154.23437 257.14845 154.09375 257.53127 154.09375 257.96875 C 154.09375 258.87501 154.58203 259.36329 155.5625 259.46875 C 156.54296 259.57421 157.26562 259.6641 157.75 259.6875 C 157.89064 262.78907 157.96875 264.8047 157.96875 265.75 C 157.96875 266.03126 157.9609 266.4375 157.9375 267 C 157.914 267.5625 157.90624 268 157.90625 268.28125 C 157.90624 268.70313 158.0625 269.0625 158.40625 269.34375 C 158.71875 269.60938 159.10156 269.71875 159.53125 269.71875 C 160.66406 269.71875 161.21875 268.82812 161.21875 267.03125 C 161.21875 266.85937 161.22675 266.65234 161.21875 266.375 C 161.21105 266.09766 161.1875 265.88281 161.1875 265.78125 C 161.1875 264.8125 161.14062 262.75001 161 259.59375 C 161.42186 259.53135 161.77343 259.50001 162.09375 259.5 C 162.2578 259.5 162.46483 259.51955 162.6875 259.53125 C 162.91014 259.54285 163.08593 259.53125 163.25 259.53125 L 163.28125 259.53125 C 163.75 259.53125 164.1328 259.39064 164.4375 259.09375 C 164.74218 258.79689 164.87499 258.44532 164.875 258 C 164.87499 257.26564 164.56249 256.78127 163.9375 256.5625 C 163.60937 256.44532 162.99218 256.37502 162.09375 256.375 C 161.78905 256.37502 161.42187 256.4297 160.9375 256.5 L 160.9375 255.53125 C 160.9375 253.58596 160.37499 252.59376 159.21875 252.59375 z "
         xlink:href="#path3167"
         style="font-variant:normal;font-stretch:normal;fill:#000000;font-family:Comic Sans MS;-inkscape-font-specification:Comic Sans MS Bold"
         id="path3204"
         inkscape:href="#path3167"
         d="m 159.21875,250.90625 c -0.82447,2e-5 -1.67563,0.32849 -2.28125,0.875 -0.61721,0.55701 -1.0625,1.44067 -1.0625,2.34375 0,0.19135 0.0196,0.40007 0.0312,0.59375 -0.0471,-7.5e-4 -0.17714,0 -0.21875,0 -0.78994,2e-5 -1.73019,0.27575 -2.375,0.9375 -0.60639,0.62236 -0.90625,1.51064 -0.90625,2.3125 0,0.75852 0.23982,1.63643 0.84375,2.25 0.60393,0.61357 1.38716,0.85814 2.125,0.9375 0.31742,0.0341 0.48257,0.0326 0.75,0.0625 0.0819,1.94097 0.15625,3.88814 0.15625,4.53125 0,0.24962 -0.009,0.64319 -0.0312,1.1875 -0.0244,0.58364 -0.0313,1.03116 -0.0312,1.34375 -2e-5,0.82843 0.41562,1.76973 1.09375,2.34375 0.005,0.004 0.0265,-0.004 0.0312,0 0.006,0.005 -0.006,0.0261 0,0.0312 0.6542,0.53947 1.48143,0.75 2.1875,0.75 1.01204,0 2.16562,-0.58605 2.71875,-1.46875 0.55313,-0.8827 0.65625,-1.83284 0.65625,-2.90625 0,-0.11912 0.01,-0.38437 0,-0.71875 -0.01,-0.34914 -0.0312,-0.69256 -0.0312,-0.53125 0,-0.74718 -0.0563,-2.67929 -0.125,-4.5625 0.21476,0.003 0.43606,0 0.5,0 l 0.0312,0 c 0.8088,0 1.7214,-0.29985 2.34375,-0.90625 0.60841,-0.59279 0.93748,-1.52911 0.9375,-2.3125 -2e-5,-1.21676 -0.86562,-2.6123 -2.0625,-3.03125 -0.6431,-0.22966 -1.27285,-0.2412 -2.03125,-0.25 -0.0625,-0.78542 -0.10797,-1.57468 -0.5,-2.25 -0.53274,-0.91769 -1.68548,-1.56249 -2.75,-1.5625 z" />
      <path
         sodipodi:type="inkscape:offset"
         inkscape:radius="2.2800219"
         inkscape:original="M 147.09375 251.78125 C 145.16405 251.78127 143.38281 252.41798 141.78125 253.6875 C 140.17969 254.95704 139.36715 256.35158 139.34375 257.875 C 139.32032 259.08595 140.05468 260.00782 141.5 260.65625 C 142.5703 261.13282 143.77343 261.4063 145.125 261.4375 C 146.86718 261.47657 148.01561 261.6172 148.59375 261.84375 C 149.40624 262.15626 149.81249 262.79689 149.8125 263.78125 C 149.81249 264.50001 149.17967 265.14844 147.875 265.75 C 146.61718 266.33594 145.3125 266.625 143.96875 266.625 C 142.39844 266.625 141.3828 266.14844 140.9375 265.1875 C 140.60937 264.46876 140.10937 264.125 139.40625 264.125 C 138.88281 264.125 138.45313 264.26953 138.15625 264.59375 C 137.85938 264.91797 137.71875 265.32031 137.71875 265.8125 C 137.71875 266.77343 138.19531 267.64063 139.15625 268.375 C 140.29687 269.25782 141.85937 269.6875 143.84375 269.6875 C 146.09374 269.6875 148.09374 269.28906 149.84375 268.5 C 152.14061 267.46094 153.28123 265.95313 153.28125 263.9375 C 153.28123 262.28125 152.73436 260.96876 151.625 260.03125 C 150.61717 259.18751 149.23437 258.69532 147.5 258.5625 C 146.50781 258.50782 145.53125 258.46095 144.53125 258.40625 C 143.96093 258.32813 143.53515 258.19142 143.25 258 C 142.96484 257.8086 142.81249 257.57813 142.8125 257.28125 C 142.81249 256.71095 143.28124 256.17188 144.21875 255.6875 C 145.12499 255.21095 146.08593 254.97675 147.09375 254.96875 C 147.46874 254.96877 148.01952 255.03126 148.75 255.1875 C 149.48046 255.34377 150.03905 255.43752 150.40625 255.4375 C 150.89842 255.43752 151.28123 255.25783 151.59375 254.90625 C 151.87498 254.59376 152.03124 254.21876 152.03125 253.8125 C 152.03124 253.2422 151.33592 252.75001 149.9375 252.3125 C 148.81249 251.96095 147.85936 251.78127 147.09375 251.78125 z "
         xlink:href="#path3165"
         style="font-variant:normal;font-stretch:normal;fill:#000000;font-family:Comic Sans MS;-inkscape-font-specification:Comic Sans MS Bold"
         id="path3202"
         inkscape:href="#path3165"
         d="m 147.09375,249.5 c -2.43122,3e-5 -4.76309,0.85604 -6.71875,2.40625 -1.94433,1.54125 -3.27698,3.62501 -3.3125,5.9375 -0.032,1.6534 1.03312,3.0037 2.34375,4 -0.94314,0 -2.12856,0.33532 -2.9375,1.21875 -0.68913,0.75261 -1.03125,1.82351 -1.03125,2.75 0,1.70005 0.97076,3.30346 2.3125,4.34375 l 0,0.0312 c 0.005,0.004 0.0258,-0.004 0.0312,0 1.65114,1.26789 3.75936,1.78125 6.0625,1.78125 2.51916,0 4.85628,-0.4366 6.9375,-1.375 a 2.2802499,2.2802499 0 0 0 0,-0.0312 c 2.79328,-1.26363 4.78122,-3.74922 4.78125,-6.625 -3e-5,-2.15812 -0.84025,-4.28002 -2.46875,-5.65625 -0.44227,-0.37026 -0.98657,-0.58102 -1.5,-0.84375 0.64707,-0.21993 1.26768,-0.54058 1.6875,-1 0.004,-0.004 -0.004,-0.027 0,-0.0312 l 0.0312,0 c 0.59189,-0.67254 0.99998,-1.61809 1,-2.59375 -2e-5,-1.21175 -0.7878,-2.16986 -1.46875,-2.65625 -0.68095,-0.48639 -1.38978,-0.7719 -2.21875,-1.03125 -1.26383,-0.39493 -2.40896,-0.62497 -3.53125,-0.625 z m -5.125,13.5625 c 0.99719,0.29772 1.97545,0.63043 3.09375,0.65625 0.72637,0.0163 0.72303,0.0694 1.1875,0.125 -0.75104,0.26779 -1.49234,0.5 -2.28125,0.5 -1.10901,0 -0.9586,-0.1031 -0.96875,-0.125 l -0.0312,0 c -0.20402,-0.43123 -0.60962,-0.79838 -1,-1.15625 z" />
      <path
         sodipodi:type="inkscape:offset"
         inkscape:radius="1.9744675"
         inkscape:original="M 172.8125 256.75 C 170.875 256.75002 169.23437 257.41017 167.84375 258.75 C 166.45312 260.08985 165.75 261.71095 165.75 263.59375 C 165.75 265.60157 166.21484 267.11719 167.15625 268.125 C 168.09765 269.13281 169.52343 269.625 171.40625 269.625 C 171.78905 269.625 172.23437 269.55078 172.78125 269.375 C 173.32812 269.19922 173.96874 268.9375 174.6875 268.59375 C 175.46874 269.375 176.04687 269.75 176.40625 269.75 C 176.8203 269.75 177.18358 269.61719 177.5 269.34375 C 177.81639 269.07031 177.96873 268.72656 177.96875 268.3125 C 177.96873 268.21875 177.80468 267.82813 177.5 267.15625 C 177.16406 266.41407 176.99215 266.0078 176.96875 265.9375 C 176.7578 265.28126 176.65623 264.21094 176.65625 262.71875 C 176.65625 262.08594 176.67575 261.53517 176.71875 261.0625 C 176.76171 260.58986 176.82815 260.18751 176.90625 259.875 C 177.08588 259.66407 177.18749 259.43751 177.1875 259.15625 C 177.18749 258.48438 176.58593 257.88282 175.40625 257.375 C 174.42968 256.95313 173.55468 256.75002 172.8125 256.75 z M 172.96875 259.53125 C 173.05468 259.53125 173.16014 259.55865 173.28125 259.59375 C 173.40233 259.62892 173.56249 259.70315 173.71875 259.78125 C 173.64845 260.1797 173.5976 260.51954 173.5625 260.84375 C 173.5274 261.16797 173.5 261.46876 173.5 261.71875 C 173.5 262.64064 173.60936 264.01563 173.84375 265.875 C 173.46093 266.1875 173.05858 266.4336 172.625 266.59375 C 172.1914 266.75389 171.73437 266.84375 171.25 266.84375 C 170.5 266.84375 169.9375 266.5586 169.5625 266.03125 C 169.1875 265.50391 169 264.73438 169 263.6875 C 169 262.59376 169.39062 261.61329 170.1875 260.78125 C 170.98437 259.94923 171.90624 259.53125 172.96875 259.53125 z "
         xlink:href="#path3169"
         style="font-variant:normal;font-stretch:normal;fill:#000000;font-family:Comic Sans MS;-inkscape-font-specification:Comic Sans MS Bold"
         id="path3206"
         inkscape:href="#path3169"
         d="m 172.8125,254.78125 c -2.38599,2e-5 -4.62771,0.87789 -6.34375,2.53125 -1.72421,1.66125 -2.6875,3.90688 -2.6875,6.28125 0,2.31257 0.54333,4.3825 1.9375,5.875 1.40135,1.50021 3.46058,2.125 5.6875,2.125 0.63802,0 1.27874,-0.12196 1.96875,-0.34375 0.29583,-0.0951 0.65167,-0.24782 0.96875,-0.375 0.0905,0.0676 0.18829,0.15677 0.28125,0.21875 0.45217,0.30145 0.9148,0.625 1.78125,0.625 0.83627,0 1.73221,-0.31952 2.375,-0.875 0.69855,-0.60372 1.15621,-1.63295 1.15625,-2.53125 -1.3e-4,-0.59899 -0.0814,-0.61948 -0.125,-0.75 -0.0436,-0.13052 -0.076,-0.22408 -0.125,-0.34375 -0.0979,-0.23934 -0.21827,-0.52938 -0.375,-0.875 -0.16433,-0.36305 -0.29301,-0.65428 -0.375,-0.84375 -0.0711,-0.16421 -0.13019,-0.26819 -0.0937,-0.15625 -9e-4,-0.003 9.2e-4,-0.0283 0,-0.0312 -0.0767,-0.25098 -0.21877,-1.20775 -0.21875,-2.59375 0,-0.59225 0.0272,-1.08026 0.0625,-1.46875 0.0355,-0.39047 0.0797,-0.72494 0.125,-0.90625 l -0.0937,-0.0312 c 0.17756,-0.38739 0.43748,-0.71826 0.4375,-1.15625 -1e-5,-0.92521 -0.47096,-1.78346 -1.03125,-2.34375 -0.56029,-0.56029 -1.19954,-0.93233 -1.9375,-1.25 -1.15893,-0.50065 -2.27263,-0.78122 -3.375,-0.78125 z m -1.25,7.5 c 0.0173,0.66309 0.12419,1.57867 0.21875,2.5 -0.17655,0.0511 -0.34584,0.0937 -0.53125,0.0937 -0.24954,0 -0.0643,0.0413 -0.0937,0 -0.0294,-0.0413 -0.1875,-0.37638 -0.1875,-1.1875 0,-0.57141 0.19973,-0.95573 0.59375,-1.40625 z" />
      <path
         d="m 176.40234,269.75274 c -0.35938,0 -0.92969,-0.39063 -1.71093,-1.17188 -0.71876,0.34375 -1.35157,0.60352 -1.89844,0.7793 -0.54688,0.17578 -1.01173,0.26367 -1.39453,0.26367 -1.88282,0 -3.29493,-0.50391 -4.23633,-1.51172 -0.94141,-1.00781 -1.41211,-2.51562 -1.41211,-4.52344 0,-1.8828 0.69531,-3.49413 2.08594,-4.83398 1.39062,-1.33983 3.05468,-2.00975 4.99218,-2.00977 0.74218,2e-5 1.60156,0.21095 2.57813,0.63282 1.17968,0.50782 1.76952,1.09766 1.76953,1.76953 -1e-5,0.28126 -0.0899,0.52735 -0.26953,0.73828 -0.0781,0.31251 -0.13868,0.70509 -0.18164,1.17773 -0.043,0.47267 -0.0645,1.0254 -0.0645,1.65821 -2e-5,1.49219 0.10545,2.56641 0.3164,3.22265 0.0234,0.0703 0.20312,0.47657 0.53906,1.21875 0.30468,0.67188 0.45702,1.05469 0.45704,1.14844 -2e-5,0.41406 -0.15822,0.75781 -0.47461,1.03125 -0.31642,0.27344 -0.68166,0.41016 -1.09571,0.41016 z m -2.90625,-8.03907 c 0,-0.24999 0.0176,-0.5371 0.0527,-0.86132 0.0351,-0.32421 0.0879,-0.68554 0.1582,-1.08399 -0.15626,-0.0781 -0.29493,-0.13475 -0.41601,-0.16992 -0.12111,-0.0351 -0.22462,-0.0527 -0.31055,-0.0527 -1.06251,0 -1.99219,0.41602 -2.78906,1.24804 -0.79688,0.83204 -1.19532,1.79493 -1.19532,2.88867 0,1.04688 0.1875,1.83399 0.5625,2.36133 0.375,0.52735 0.9375,0.79102 1.6875,0.79102 0.48437,0 0.94336,-0.0801 1.37696,-0.24024 0.43358,-0.16015 0.84179,-0.39648 1.22461,-0.70898 -0.23439,-1.85937 -0.35157,-3.24999 -0.35157,-4.17188 z"
         style="font-variant:normal;font-stretch:normal;fill:#ffff00;font-family:Comic Sans MS;-inkscape-font-specification:Comic Sans MS Bold"
         id="path3169"
         inkscape:connector-curvature="0" />
      <path
         sodipodi:type="inkscape:offset"
         inkscape:radius="1.9603502"
         inkscape:original="M 187.125 256.625 C 185.43749 256.62501 183.91406 257.15626 182.53125 258.1875 C 182.36718 257.29689 181.86719 256.84377 181 256.84375 C 180.51563 256.84377 180.13672 256.98829 179.875 257.28125 C 179.61328 257.57423 179.46875 257.93751 179.46875 258.375 C 179.46875 258.6172 179.4531 258.9883 179.4375 259.46875 C 179.4221 259.94923 179.4375 260.28907 179.4375 260.53125 L 179.4375 263.78125 L 179.4375 268.21875 C 179.4375 268.65625 179.5625 269 179.8125 269.28125 C 180.07812 269.59374 180.45312 269.74999 180.9375 269.75 C 181.40625 269.74999 181.78906 269.60547 182.09375 269.3125 C 182.39843 269.01953 182.53124 268.66406 182.53125 268.21875 L 182.53125 265.21875 L 182.53125 262.3125 C 183.28906 260.78907 184.55468 259.90626 186.3125 259.625 L 186.375 260.8125 C 186.37499 261.82813 186.85937 262.31251 187.84375 262.3125 C 188.85937 262.31251 189.39845 261.72657 189.46875 260.53125 C 189.47645 260.40626 189.46874 260.14845 189.46875 259.75 C 189.46874 257.67189 188.68749 256.62501 187.125 256.625 z "
         xlink:href="#path3171"
         style="font-variant:normal;font-stretch:normal;fill:#000000;font-family:Comic Sans MS;-inkscape-font-specification:Comic Sans MS Bold"
         id="path3208"
         inkscape:href="#path3171"
         d="m 187.125,254.65625 c -1.40713,1e-5 -2.7211,0.41557 -3.96875,1 -0.64149,-0.49035 -1.4427,-0.78123 -2.15625,-0.78125 -0.87426,4e-5 -1.91914,0.33861 -2.59375,1.09375 -0.55921,0.626 -0.90625,1.53701 -0.90625,2.40625 0,0.15775 -0.0153,0.54102 -0.0312,1.03125 -0.0177,0.55188 0,0.96592 0,1.125 l 0,3.25 0,4.4375 c 0,0.79804 0.29917,1.71324 0.84375,2.34375 0.009,0.0111 0.0216,0.0202 0.0312,0.0312 0.64898,0.73891 1.7011,1.12498 2.59375,1.125 0.87166,-2e-5 1.83614,-0.36168 2.5,-1 0.67059,-0.64481 1.06248,-1.66494 1.0625,-2.5 l 0,-3 0,-2.3125 c 0.10322,-0.16962 0.22519,-0.30733 0.34375,-0.4375 0.13936,0.29238 0.25402,0.59384 0.5,0.84375 0.70971,0.72107 1.68627,0.96876 2.5,0.96875 0.88481,10e-6 1.94092,-0.34547 2.625,-1.09375 0.68408,-0.74828 0.91746,-1.65915 0.96875,-2.53125 0.0228,-0.37027 -1e-5,-0.53311 0,-0.90625 -1e-5,-1.28471 -0.23413,-2.50881 -1,-3.53125 -0.76587,-1.02244 -2.09344,-1.56249 -3.3125,-1.5625 z" />
      <path
         sodipodi:type="inkscape:offset"
         inkscape:radius="1.9051205"
         inkscape:original="M 195.40625 252.59375 C 194.95312 252.59376 194.57031 252.7422 194.25 253.03125 C 193.92968 253.32033 193.75 253.68752 193.75 254.125 C 193.75 254.39845 193.7812 254.78126 193.8125 255.28125 C 193.8437 255.85939 193.867 256.28126 193.875 256.53125 C 192.83594 256.43752 192.16406 256.40626 191.875 256.40625 C 191.40625 256.40626 191.01562 256.53908 190.71875 256.84375 C 190.42187 257.14845 190.28125 257.53127 190.28125 257.96875 C 190.28125 258.87501 190.76953 259.36329 191.75 259.46875 C 192.73046 259.57421 193.45312 259.6641 193.9375 259.6875 C 194.07814 262.78907 194.15625 264.8047 194.15625 265.75 C 194.15625 266.03126 194.1484 266.4375 194.125 267 C 194.1015 267.5625 194.09374 268 194.09375 268.28125 C 194.09374 268.70313 194.25 269.0625 194.59375 269.34375 C 194.90625 269.60938 195.28906 269.71875 195.71875 269.71875 C 196.85156 269.71875 197.40625 268.82812 197.40625 267.03125 C 197.40625 266.85937 197.41425 266.65234 197.40625 266.375 C 197.39855 266.09766 197.375 265.88281 197.375 265.78125 C 197.375 264.8125 197.32812 262.75001 197.1875 259.59375 C 197.60936 259.53135 197.96093 259.50001 198.28125 259.5 C 198.4453 259.5 198.65233 259.51955 198.875 259.53125 C 199.09764 259.54285 199.27343 259.53125 199.4375 259.53125 L 199.46875 259.53125 C 199.9375 259.53125 200.3203 259.39064 200.625 259.09375 C 200.92968 258.79689 201.06249 258.44532 201.0625 258 C 201.06249 257.26564 200.74999 256.78127 200.125 256.5625 C 199.79687 256.44532 199.17968 256.37502 198.28125 256.375 C 197.97655 256.37502 197.60937 256.4297 197.125 256.5 L 197.125 255.53125 C 197.125 253.58596 196.56249 252.59376 195.40625 252.59375 z "
         xlink:href="#path3173"
         style="font-variant:normal;font-stretch:normal;fill:#000000;font-family:Comic Sans MS;-inkscape-font-specification:Comic Sans MS Bold"
         id="path3210"
         inkscape:href="#path3173"
         d="m 195.40625,250.6875 c -0.86917,2e-5 -1.79754,0.36 -2.4375,0.9375 -0.65294,0.58926 -1.125,1.54088 -1.125,2.5 0,0.12265 0.0261,0.25599 0.0312,0.375 -0.8286,2e-5 -1.84456,0.29527 -2.53125,1 -0.64364,0.66059 -0.96875,1.62303 -0.96875,2.46875 0,0.79528 0.25907,1.71749 0.90625,2.375 0.64718,0.65751 1.48236,0.94868 2.25,1.03125 0.23509,0.0253 0.35551,0.0392 0.5625,0.0625 0.0751,1.8054 0.15625,3.70534 0.15625,4.3125 0,0.24581 -0.009,0.61413 -0.0312,1.15625 -0.0245,0.58619 -0.0313,1.05864 -0.0312,1.375 -2e-5,0.88466 0.45835,1.89214 1.1875,2.5 l 0.0312,0 c 0.6973,0.58026 1.56842,0.84375 2.3125,0.84375 1.06568,0 2.28903,-0.62739 2.875,-1.5625 0.58597,-0.93511 0.71875,-1.93678 0.71875,-3.03125 0,-0.11277 0.01,-0.37751 0,-0.71875 -0.01,-0.35778 -0.0312,-0.7242 -0.0312,-0.53125 0,-0.71241 -0.0641,-2.6162 -0.125,-4.34375 0.089,-0.002 0.24942,0 0.28125,0 l 0.0312,0 c 0.84973,0 1.83942,-0.3251 2.5,-0.96875 0.64497,-0.62841 0.99998,-1.64467 1,-2.46875 -2e-5,-1.26124 -0.94204,-2.75791 -2.1875,-3.21875 -0.01,-0.004 -0.0213,0.003 -0.0312,0 -0.57699,-0.20199 -1.17274,-0.20078 -1.78125,-0.21875 -0.0693,-0.76994 -0.22684,-1.50164 -0.625,-2.1875 -0.56254,-0.96902 -1.81444,-1.68749 -2.9375,-1.6875 z" />
      <path
         d="m 199.45312,259.54571 c -0.16407,0 -0.35743,-0.006 -0.58007,-0.0176 -0.22267,-0.0117 -0.41603,-0.0176 -0.58008,-0.0176 -0.32032,10e-6 -0.69142,0.0313 -1.11328,0.0937 0.14062,3.15626 0.21093,5.21875 0.21093,6.1875 0,0.10156 0.004,0.29102 0.0117,0.56836 0.008,0.27734 0.0117,0.50195 0.0117,0.67383 0,1.79687 -0.56641,2.69531 -1.69922,2.69531 -0.42969,0 -0.80078,-0.13281 -1.11328,-0.39844 -0.34375,-0.28125 -0.51563,-0.63281 -0.51562,-1.05469 -1e-5,-0.28125 0.0117,-0.70312 0.0352,-1.26562 0.0234,-0.5625 0.0352,-0.98437 0.0352,-1.26563 0,-0.9453 -0.0703,-2.96874 -0.21094,-6.07031 -0.48438,-0.0234 -1.2168,-0.0879 -2.19726,-0.19336 -0.98047,-0.10546 -1.47071,-0.61132 -1.47071,-1.51758 0,-0.43748 0.14844,-0.80858 0.44532,-1.11328 0.29687,-0.30467 0.67968,-0.45702 1.14843,-0.45703 0.28906,1e-5 0.95313,0.0469 1.99219,0.14063 -0.008,-0.24999 -0.0274,-0.66405 -0.0586,-1.24219 -0.0313,-0.49999 -0.0469,-0.88671 -0.0469,-1.16016 0,-0.43748 0.16015,-0.80076 0.48047,-1.08984 0.32031,-0.28905 0.70703,-0.43358 1.16016,-0.43359 1.15624,10e-6 1.73437,0.97267 1.73437,2.91796 l -0.0234,0.96094 c 0.48437,-0.0703 0.8789,-0.10545 1.1836,-0.10547 0.89843,2e-5 1.51171,0.0586 1.83984,0.17578 0.62499,0.21877 0.93749,0.69533 0.9375,1.42969 -1e-5,0.44532 -0.15235,0.81642 -0.45703,1.11328 -0.3047,0.29689 -0.69141,0.44532 -1.16016,0.44532 z"
         style="font-variant:normal;font-stretch:normal;fill:#ffff00;font-family:Comic Sans MS;-inkscape-font-specification:Comic Sans MS Bold"
         id="path3173"
         inkscape:connector-curvature="0" />
      <path
         d="m 143.84766,269.69414 c -1.98438,0 -3.54688,-0.4414 -4.6875,-1.32422 -0.96094,-0.73437 -1.44141,-1.58203 -1.44141,-2.54296 0,-0.49219 0.14844,-0.90039 0.44531,-1.22461 0.29688,-0.32422 0.70703,-0.48633 1.23047,-0.48633 0.70312,0 1.21875,0.35938 1.54688,1.07812 0.4453,0.96094 1.45312,1.44141 3.02343,1.44141 1.34375,0 2.64453,-0.29297 3.90235,-0.87891 1.30467,-0.60156 1.95702,-1.26171 1.95703,-1.98047 -1e-5,-0.98436 -0.40626,-1.6328 -1.21875,-1.94531 -0.57814,-0.22655 -1.73829,-0.35937 -3.48047,-0.39844 -1.35157,-0.0312 -2.56251,-0.28514 -3.63281,-0.76171 -1.44532,-0.64843 -2.15625,-1.57812 -2.13282,-2.78907 0.0234,-1.52342 0.83594,-2.91991 2.4375,-4.18945 1.60156,-1.26952 3.36718,-1.90428 5.29688,-1.9043 0.76561,2e-5 1.71093,0.1758 2.83594,0.52735 1.39842,0.43751 2.09764,0.94142 2.09765,1.51172 -1e-5,0.40626 -0.14064,0.76563 -0.42187,1.07812 -0.31252,0.35158 -0.71486,0.52736 -1.20703,0.52734 -0.3672,2e-5 -0.91603,-0.0781 -1.64649,-0.23437 -0.73048,-0.15624 -1.28321,-0.23436 -1.6582,-0.23438 -1.00782,0.008 -1.96485,0.25002 -2.87109,0.72657 -0.93751,0.48438 -1.40626,1.01173 -1.40625,1.58203 -1e-5,0.29688 0.14257,0.54102 0.42773,0.73242 0.28515,0.19142 0.71288,0.32618 1.2832,0.4043 1,0.0547 1.99609,0.10938 2.98828,0.16406 1.73437,0.13282 3.10546,0.6211 4.11329,1.46484 1.10936,0.93751 1.66404,2.23438 1.66406,3.89063 -2e-5,2.01563 -1.14845,3.54297 -3.44531,4.58203 -1.75001,0.78906 -3.75001,1.18359 -6,1.18359 z"
         style="font-variant:normal;font-stretch:normal;fill:#ffff00;font-family:Comic Sans MS;-inkscape-font-specification:Comic Sans MS Bold"
         id="path3165"
         inkscape:connector-curvature="0" />
      <path
         d="m 163.26562,259.54571 c -0.16407,0 -0.35743,-0.006 -0.58007,-0.0176 -0.22267,-0.0117 -0.41603,-0.0176 -0.58008,-0.0176 -0.32032,10e-6 -0.69142,0.0313 -1.11328,0.0937 0.14062,3.15626 0.21093,5.21875 0.21093,6.1875 0,0.10156 0.004,0.29102 0.0117,0.56836 0.008,0.27734 0.0117,0.50195 0.0117,0.67383 0,1.79687 -0.56641,2.69531 -1.69922,2.69531 -0.42969,0 -0.80078,-0.13281 -1.11328,-0.39844 -0.34375,-0.28125 -0.51563,-0.63281 -0.51562,-1.05469 -1e-5,-0.28125 0.0117,-0.70312 0.0352,-1.26562 0.0234,-0.5625 0.0352,-0.98437 0.0352,-1.26563 0,-0.9453 -0.0703,-2.96874 -0.21094,-6.07031 -0.48438,-0.0234 -1.2168,-0.0879 -2.19726,-0.19336 -0.98047,-0.10546 -1.47071,-0.61132 -1.47071,-1.51758 0,-0.43748 0.14844,-0.80858 0.44532,-1.11328 0.29687,-0.30467 0.67968,-0.45702 1.14843,-0.45703 0.28906,1e-5 0.95313,0.0469 1.99219,0.14063 -0.008,-0.24999 -0.0274,-0.66405 -0.0586,-1.24219 -0.0313,-0.49999 -0.0469,-0.88671 -0.0469,-1.16016 0,-0.43748 0.16015,-0.80076 0.48047,-1.08984 0.32031,-0.28905 0.70703,-0.43358 1.16016,-0.43359 1.15624,10e-6 1.73437,0.97267 1.73437,2.91796 l -0.0234,0.96094 c 0.48437,-0.0703 0.8789,-0.10545 1.1836,-0.10547 0.89843,2e-5 1.51171,0.0586 1.83984,0.17578 0.62499,0.21877 0.93749,0.69533 0.9375,1.42969 -1e-5,0.44532 -0.15235,0.81642 -0.45703,1.11328 -0.3047,0.29689 -0.69141,0.44532 -1.16016,0.44532 z"
         style="font-variant:normal;font-stretch:normal;fill:#ffff00;font-family:Comic Sans MS;-inkscape-font-specification:Comic Sans MS Bold"
         id="path3167"
         inkscape:connector-curvature="0" />
      <path
         d="m 189.46875,260.53008 c -0.0703,1.19532 -0.61329,1.79298 -1.62891,1.79297 -0.98438,10e-6 -1.47657,-0.50781 -1.47656,-1.52344 l -0.0586,-1.18359 c -1.75782,0.28126 -3.01563,1.1836 -3.77344,2.70703 l 0.006,2.89833 0.006,2.9962 c -1e-5,0.44531 -0.15235,0.81445 -0.45703,1.10742 -0.30469,0.29297 -0.69141,0.43945 -1.16016,0.43946 -0.48438,-10e-6 -0.85938,-0.15626 -1.125,-0.46875 -0.25,-0.28125 -0.375,-0.64063 -0.375,-1.07813 l 0,-4.42683 0,-3.24895 c 0,-0.24218 0.008,-0.60351 0.0234,-1.08399 0.0156,-0.48045 0.0234,-0.84178 0.0234,-1.08398 0,-0.43749 0.13085,-0.80272 0.39257,-1.0957 0.26172,-0.29296 0.63477,-0.43944 1.11914,-0.43946 0.86719,2e-5 1.38281,0.44533 1.54688,1.33594 1.38281,-1.03124 2.91796,-1.54686 4.60547,-1.54687 1.56249,10e-6 2.34374,1.03907 2.34375,3.11718 -1e-5,0.39845 -0.004,0.66017 -0.0117,0.78516 z"
         style="font-variant:normal;font-stretch:normal;fill:#ffff00;font-family:Comic Sans MS;-inkscape-font-specification:Comic Sans MS Bold"
         id="path3171"
         inkscape:connector-curvature="0"
         sodipodi:nodetypes="ccccccccccscscsccccccc" />
    </g>
  </g>
</svg>
