<?xml version="1.0" encoding="UTF-8" standalone="no"?>
<!-- Created with Inkscape (http://www.inkscape.org/) -->

<svg
   xmlns:dc="http://purl.org/dc/elements/1.1/"
   xmlns:cc="http://creativecommons.org/ns#"
   xmlns:rdf="http://www.w3.org/1999/02/22-rdf-syntax-ns#"
   xmlns:svg="http://www.w3.org/2000/svg"
   xmlns="http://www.w3.org/2000/svg"
   xmlns:xlink="http://www.w3.org/1999/xlink"
   xmlns:sodipodi="http://sodipodi.sourceforge.net/DTD/sodipodi-0.dtd"
   xmlns:inkscape="http://www.inkscape.org/namespaces/inkscape"
   width="512"
   height="128"
   id="svg3213"
   version="1.1"
   inkscape:version="0.48.4 r9939"
   sodipodi:docname="start.svg">
  <defs
     id="defs3215" />
  <sodipodi:namedview
     id="base"
     pagecolor="#ffffff"
     bordercolor="#666666"
     borderopacity="1.0"
     inkscape:pageopacity="0.0"
     inkscape:pageshadow="2"
     inkscape:zoom="1.4"
     inkscape:cx="181.64714"
     inkscape:cy="57.544504"
     inkscape:document-units="px"
     inkscape:current-layer="layer1"
     showgrid="false"
     fit-margin-top="0"
     fit-margin-left="0"
     fit-margin-right="0"
     fit-margin-bottom="0"
     inkscape:window-width="1366"
     inkscape:window-height="716"
     inkscape:window-x="-8"
     inkscape:window-y="-8"
     inkscape:window-maximized="1" />
  <metadata
     id="metadata3218">
    <rdf:RDF>
      <cc:Work
         rdf:about="">
        <dc:format>image/svg+xml</dc:format>
        <dc:type
           rdf:resource="http://purl.org/dc/dcmitype/StillImage" />
        <dc:title />
      </cc:Work>
    </rdf:RDF>
  </metadata>
  <g
     inkscape:label="Layer 1"
     inkscape:groupmode="layer"
     id="layer1"
     transform="translate(683.46875,7.5312507)">
    <flowRoot
       xml:space="preserve"
       id="flowRoot3221"
       style="font-size:22px;font-style:normal;font-variant:normal;font-weight:normal;font-stretch:normal;line-height:125%;letter-spacing:0px;word-spacing:0px;fill:#000000;fill-opacity:1;stroke:none;font-family:Comic Sans MS;-inkscape-font-specification:Comic Sans MS"><flowRegion
         id="flowRegion3223"><rect
           id="rect3225"
           width="42.857143"
           height="45.714287"
           x="-565.71429"
           y="149.50504" /></flowRegion><flowPara
         id="flowPara3227" /></flowRoot>    <path
       sodipodi:type="inkscape:offset"
       inkscape:radius="7.2668757"
       inkscape:original="M -413.3125 27.21875 C -415.79689 27.218787 -418.10939 28.140661 -420.28125 29.96875 C -423.37501 32.578156 -425.90626 35.984403 -427.875 40.1875 C -429.84375 44.390645 -430.84375 48.500016 -430.84375 52.5 C -430.84375 56.890632 -429.79688 60.179691 -427.71875 62.375 C -425.64063 64.570312 -422.53126 65.656248 -418.375 65.65625 C -413.98439 65.656248 -410.14065 64.25 -406.875 61.4375 C -403.65628 58.64063 -401.53128 54.906259 -400.46875 50.25 C -399.53128 49.625014 -399.06253 48.76564 -399.0625 47.625 C -399.06253 46.734392 -399.36722 45.984393 -400 45.375 C -400.63284 44.765644 -401.40628 44.43752 -402.34375 44.4375 C -406.59378 44.43752 -410.31252 44.718769 -413.5 45.25 C -419.15626 46.203143 -422.00001 47.859391 -422 50.25 C -422.00001 51.062513 -421.70314 51.796887 -421.125 52.4375 C -420.48439 53.156261 -419.68751 53.531261 -418.71875 53.53125 C -418.23439 53.531261 -417.73439 53.406261 -417.25 53.1875 C -414.56252 51.984387 -411.40627 51.250013 -407.78125 50.96875 C -408.70315 53.71876 -410.14065 55.812508 -412.0625 57.25 C -413.87502 58.60938 -415.98439 59.281255 -418.375 59.28125 C -420.70314 59.281255 -422.25001 58.79688 -423.0625 57.8125 C -423.82813 56.875007 -424.21876 55.109384 -424.21875 52.5 C -424.21876 47.359392 -422.48438 42.562521 -419 38.15625 C -416.60939 35.125029 -414.71877 33.62503 -413.3125 33.625 C -411.98439 33.62503 -410.50783 34.054717 -408.90625 34.9375 C -407.30471 35.820341 -406.28128 36.281278 -405.8125 36.28125 C -404.87503 36.281278 -404.07815 35.945341 -403.4375 35.28125 C -402.7969 34.617217 -402.46878 33.84378 -402.46875 33 C -402.46878 31.531283 -404.03128 30.171909 -407.125 28.875 C -409.7344 27.781286 -411.79689 27.218787 -413.3125 27.21875 z M -545.28125 27.6875 C -546.3125 27.687536 -547.22657 28.046911 -548.03125 28.78125 C -548.83594 29.51566 -549.25 30.375034 -549.25 31.3125 C -549.25 32.250032 -549.15625 33.640655 -548.96875 35.5 C -548.78125 37.359402 -548.6875 38.750025 -548.6875 39.6875 C -548.6875 40.671898 -548.64063 42.171897 -548.59375 44.15625 C -548.54688 46.140643 -548.53125 47.609391 -548.53125 48.59375 C -548.53125 49.51564 -548.5625 50.906263 -548.625 52.75 C -548.6875 54.593759 -548.71875 55.984383 -548.71875 56.90625 C -548.71875 57.531257 -548.77344 58.453131 -548.875 59.71875 C -548.97656 60.984378 -549.03125 61.937502 -549.03125 62.5625 C -549.03125 63.453126 -548.73438 64.21875 -548.125 64.84375 C -547.4375 65.546874 -546.51563 65.906248 -545.375 65.90625 C -543.12501 65.906248 -542.00001 63.578125 -542 58.96875 C -542.00001 57.734381 -542.00782 55.890633 -542.0625 53.40625 C -542.1172 50.921888 -542.15626 49.04689 -542.15625 47.8125 C -542.15626 46.890642 -542.12501 44.40627 -542.03125 40.34375 C -534.46877 50.125014 -527.6719 57.734381 -521.65625 63.15625 C -520.28128 64.390625 -519.03128 64.999999 -517.9375 65 C -515.96879 64.999999 -514.84379 63.984375 -514.53125 61.96875 C -514.26566 60.281254 -514.12504 59.062505 -514.125 58.28125 C -514.12504 56.343758 -514.09379 51.406263 -514 43.46875 C -513.96879 41.171898 -513.93754 39.921899 -513.9375 39.75 C -513.93754 31.890657 -515.20316 27.968786 -517.75 27.96875 C -520.03128 27.968786 -521.18753 29.062535 -521.1875 31.21875 C -521.18753 31.843782 -521.09378 32.687531 -520.9375 33.78125 C -520.76566 35.015654 -520.68753 35.859403 -520.65625 36.3125 C -520.50003 39.000025 -520.40628 44.203145 -520.40625 51.90625 C -520.40628 53.78126 -520.42191 54.968759 -520.4375 55.46875 C -527.34377 49.07814 -534.34377 40.812523 -541.4375 30.6875 C -542.84376 28.687535 -544.12501 27.687536 -545.28125 27.6875 z M -367.09375 38.03125 C -368.20313 38.031276 -369.07813 38.718775 -369.6875 40.125 C -370.1875 41.250023 -370.4375 42.515647 -370.4375 43.90625 C -370.4375 44.687519 -370.40625 45.835956 -370.34375 47.34375 C -370.28125 48.851578 -370.25 50.000014 -370.25 50.78125 L -370.25 59.5 C -370.25 61.203128 -370.07813 62.437502 -369.75 63.21875 C -369.28125 64.375 -368.39063 64.968749 -367.0625 64.96875 C -366.14063 64.968749 -365.37501 64.734374 -364.75 64.28125 C -364.06251 63.796875 -363.71876 63.125001 -363.71875 62.28125 C -363.71876 61.921877 -363.68751 61.36719 -363.65625 60.625 C -363.62501 59.882817 -363.62501 59.312505 -363.625 58.875 C -363.62501 57.078132 -363.59376 54.593759 -363.53125 51.4375 C -363.34376 51.218763 -363.20313 51.046888 -363.125 50.9375 C -361.29689 48.500016 -359.46876 46.765642 -357.65625 45.71875 C -357.48439 46.312518 -357.40627 47.093767 -357.40625 48.09375 C -357.40627 49.875014 -357.19533 52.507824 -356.8125 55.96875 C -356.4297 59.429692 -356.25002 62.062502 -356.25 63.84375 C -356.25002 64.734374 -355.95314 65.468749 -355.34375 66.0625 C -354.73439 66.656247 -353.96877 66.937497 -353.03125 66.9375 C -352.09377 66.937497 -351.2969 66.656247 -350.6875 66.0625 C -350.07815 65.468749 -349.78127 64.734374 -349.78125 63.84375 C -349.78127 62.140627 -350.00002 59.578129 -350.4375 56.15625 C -350.8594 52.812511 -351.06252 50.250014 -351.0625 48.46875 C -350.46877 47.953141 -349.53127 47.312517 -348.25 46.59375 C -346.96878 45.875018 -346.1719 45.531269 -345.8125 45.53125 C -345.15628 45.531269 -344.6094 46.921892 -344.1875 49.71875 C -343.9844 51.062513 -343.71878 53.343761 -343.40625 56.5625 C -343.1094 59.500005 -342.81253 61.765627 -342.53125 63.375 C -342.21878 65.156249 -341.17191 66.062498 -339.375 66.0625 C -338.46878 66.062498 -337.67191 65.765623 -337 65.1875 C -336.32816 64.609374 -336.03129 63.890625 -336.09375 63 C -336.78129 57.093757 -337.34379 52.875011 -337.78125 50.34375 C -338.23441 46.734392 -338.56253 44.593769 -338.78125 43.96875 C -339.87503 40.921898 -341.96878 39.406275 -345.03125 39.40625 C -346.37503 39.406275 -347.62502 39.609399 -348.78125 40.03125 C -349.93752 40.453149 -350.9844 41.093773 -351.9375 41.9375 C -353.06252 40.109399 -354.84377 39.187525 -357.25 39.1875 C -359.35939 39.187525 -361.57814 40.578148 -363.9375 43.3125 C -363.79688 41.640647 -363.71876 40.953148 -363.71875 41.28125 C -363.71876 40.468774 -364.06251 39.710962 -364.75 39.03125 C -365.43751 38.351588 -366.21876 38.031276 -367.09375 38.03125 z M -498.625 39.5625 C -502.54688 39.562524 -505.65626 41.062523 -507.96875 44.09375 C -510.04688 46.828142 -511.09375 50.171889 -511.09375 54.125 C -511.09375 57.703131 -509.78125 60.468754 -507.15625 62.4375 C -504.78126 64.21875 -501.70314 65.124999 -497.96875 65.125 C -495.51564 65.124999 -493.21877 64.656249 -491.03125 63.71875 C -488.4219 62.593751 -487.09378 61.125003 -487.09375 59.34375 C -487.09378 57.765631 -487.90627 57.000007 -489.53125 57 C -490.31252 57.000007 -491.3594 57.359382 -492.65625 58.125 C -494.10939 58.98438 -495.87502 59.437505 -497.96875 59.4375 C -499.34376 59.437505 -500.56251 59.218755 -501.625 58.8125 C -502.68751 58.406256 -503.59376 57.812506 -504.34375 57 L -496.46875 53.5 C -493.82814 52.328137 -492.06252 51.421888 -491.1875 50.8125 C -489.26565 49.48439 -488.31252 47.968766 -488.3125 46.25 C -488.31252 43.81252 -489.4844 42.031272 -491.84375 40.875 C -493.64064 40.000024 -495.90627 39.562524 -498.625 39.5625 z M -383.65625 39.5625 C -387.53126 39.562524 -390.84376 40.914086 -393.625 43.59375 C -396.40625 46.273455 -397.8125 49.48439 -397.8125 53.25 C -397.8125 57.265632 -396.85156 60.296879 -394.96875 62.3125 C -393.08594 64.328125 -390.26563 65.343749 -386.5 65.34375 C -385.73439 65.343749 -384.81251 65.164061 -383.71875 64.8125 C -382.62502 64.460937 -381.37502 63.9375 -379.9375 63.25 C -378.37502 64.812499 -377.21877 65.593748 -376.5 65.59375 C -375.6719 65.593748 -374.94534 65.328124 -374.3125 64.78125 C -373.67971 64.234375 -373.37503 63.546876 -373.375 62.71875 C -373.37503 62.531252 -373.6719 61.750002 -374.28125 60.40625 C -374.95315 58.92188 -375.2969 58.109381 -375.34375 57.96875 C -375.76565 56.656257 -376.00002 54.515635 -376 51.53125 C -376.00002 50.265639 -375.92971 49.164077 -375.84375 48.21875 C -375.75784 47.273454 -375.65627 46.468768 -375.5 45.84375 C -375.14065 45.421894 -374.96877 44.937519 -374.96875 44.375 C -374.96877 43.031271 -376.14065 41.859397 -378.5 40.84375 C -380.45314 40.000024 -382.17189 39.562524 -383.65625 39.5625 z M -321.53125 39.5625 C -325.45313 39.562524 -328.56251 41.062523 -330.875 44.09375 C -332.95313 46.828142 -334 50.171889 -334 54.125 C -334 57.703131 -332.6875 60.468754 -330.0625 62.4375 C -327.68751 64.21875 -324.60939 65.124999 -320.875 65.125 C -318.42189 65.124999 -316.12502 64.656249 -313.9375 63.71875 C -311.32815 62.593751 -310.00003 61.125003 -310 59.34375 C -310.00003 57.765631 -310.81252 57.000007 -312.4375 57 C -313.21877 57.000007 -314.26565 57.359382 -315.5625 58.125 C -317.01564 58.98438 -318.78127 59.437505 -320.875 59.4375 C -322.25001 59.437505 -323.46876 59.218755 -324.53125 58.8125 C -325.59376 58.406256 -326.50001 57.812506 -327.25 57 L -319.375 53.5 C -316.73439 52.328137 -314.96877 51.421888 -314.09375 50.8125 C -312.1719 49.48439 -311.21877 47.968766 -311.21875 46.25 C -311.21877 43.81252 -312.39065 42.031272 -314.75 40.875 C -316.54689 40.000024 -318.81252 39.562524 -321.53125 39.5625 z M -481.21875 39.65625 C -482.125 39.656274 -482.91406 39.929712 -483.5625 40.5 C -484.21094 41.070335 -484.53125 41.796897 -484.53125 42.65625 C -484.53125 43.453146 -484.40625 44.53127 -484.1875 45.9375 C -483.17188 52.437512 -482.42188 56.656257 -481.9375 58.59375 C -481.40625 60.734378 -480.73438 62.484377 -479.875 63.84375 C -479.06251 65.187499 -478.26563 65.843748 -477.53125 65.8125 C -476.23438 65.765623 -475.28126 65.234374 -474.625 64.1875 C -474.15626 63.796875 -473.79689 63.281251 -473.5625 62.625 C -472.00001 58.546881 -470.81251 55.531259 -470 53.59375 C -469.92189 53.359386 -469.70314 52.906261 -469.375 52.21875 C -468.79689 56.140633 -468.29689 58.812505 -467.875 60.25 C -466.75002 64.015625 -465.21877 65.906248 -463.25 65.9375 C -462.00002 65.953123 -461.00002 65.437499 -460.25 64.40625 C -459.18753 62.921876 -458.40628 61.500003 -457.9375 60.09375 C -456.28128 55.093759 -454.64066 49.531265 -453 43.40625 C -452.92191 43.109396 -452.87503 42.875021 -452.875 42.71875 C -452.87503 41.859397 -453.22659 41.140648 -453.90625 40.5625 C -454.58597 39.984399 -455.3594 39.687524 -456.25 39.6875 C -457.8594 39.687524 -458.84378 40.375024 -459.1875 41.71875 C -461.50002 50.734388 -462.7344 55.484384 -462.875 55.96875 C -463.01565 55.265634 -463.39065 53.046886 -464.03125 49.34375 C -464.46877 46.796892 -464.89065 44.718769 -465.28125 43.125 C -465.82814 40.859398 -466.98439 39.750024 -468.71875 39.75 C -470.48439 39.750024 -471.67189 40.750023 -472.3125 42.78125 C -473.81251 47.500017 -475.15626 51.453138 -476.3125 54.625 C -476.73438 51.859387 -477.04688 49.875014 -477.25 48.65625 C -477.29688 48.328141 -477.40626 47.218767 -477.59375 45.375 C -477.73438 44.09377 -477.89063 43.031271 -478.09375 42.15625 C -478.48438 40.484399 -479.53126 39.656274 -481.21875 39.65625 z M -383.34375 45.1875 C -383.17189 45.187519 -382.96095 45.210956 -382.71875 45.28125 C -382.47658 45.351581 -382.21877 45.468769 -381.90625 45.625 C -382.04689 46.421893 -382.14845 47.132829 -382.21875 47.78125 C -382.28908 48.429703 -382.31252 49.000015 -382.3125 49.5 C -382.31252 51.343763 -382.09377 54.12501 -381.625 57.84375 C -382.39064 58.468756 -383.19533 58.960943 -384.0625 59.28125 C -384.9297 59.601567 -385.84376 59.750004 -386.8125 59.75 C -388.31251 59.750004 -389.43751 59.210942 -390.1875 58.15625 C -390.93751 57.101569 -391.31251 55.531258 -391.3125 53.4375 C -391.31251 51.250013 -390.53126 49.320327 -388.9375 47.65625 C -387.34376 45.992206 -385.46876 45.187519 -383.34375 45.1875 z M -498.625 45.21875 C -496.93752 45.218769 -495.54689 45.531269 -494.5 46.125 C -495.75002 46.937517 -497.45314 47.796891 -499.5625 48.75 C -501.31251 49.500015 -503.04688 50.265639 -504.8125 51.03125 C -504.18751 49.093765 -503.37501 47.656266 -502.34375 46.6875 C -501.31251 45.718768 -500.07814 45.218769 -498.625 45.21875 z M -321.53125 45.21875 C -319.84377 45.218769 -318.45314 45.531269 -317.40625 46.125 C -318.65627 46.937517 -320.35939 47.796891 -322.46875 48.75 C -324.21876 49.500015 -325.95313 50.265639 -327.71875 51.03125 C -327.09376 49.093765 -326.28126 47.656266 -325.25 46.6875 C -324.21876 45.718768 -322.98439 45.218769 -321.53125 45.21875 z "
       xlink:href="#text3241"
       style="font-size:48px;font-style:normal;font-variant:normal;font-weight:bold;font-stretch:normal;line-height:125%;letter-spacing:0px;word-spacing:0px;fill:#ffffff;fill-opacity:1;stroke:none;font-family:Comic Sans MS;-inkscape-font-specification:Comic Sans MS Bold"
       id="path3247"
       inkscape:href="#text3241"
       d="m -415.3125,19.9375 c -4.28199,6.4e-5 -8.46096,1.779221 -11.65625,4.46875 -3.98294,3.359374 -7.15607,7.683407 -9.5,12.6875 -2.33955,4.994778 -3.65625,10.195115 -3.65625,15.40625 0,5.545739 1.39335,10.932931 5.125,14.875 3.74347,3.954573 9.20296,5.562497 14.625,5.5625 5.94226,-3e-6 11.75547,-2.129139 16.25,-6 a 7.2676024,7.2676024 0 0 0 0.0312,0 c 0.3308,-0.287443 0.59214,-0.634276 0.90625,-0.9375 0.31814,0.417908 0.54091,0.890137 0.90625,1.28125 3.52267,3.771159 8.70899,5.343749 13.78125,5.34375 1.90262,-2e-6 3.4605,-0.411417 5,-0.90625 0.13404,-0.04309 0.27279,-0.110995 0.40625,-0.15625 1.02261,0.658132 2.25756,1.312493 4.59375,1.3125 1.84437,-4e-6 3.78654,-0.744715 5.46875,-1.75 1.33536,0.644121 2.7136,1.124999 3.96875,1.125 1.98399,-2e-6 4.19859,-0.653259 6.0625,-1.84375 0.21892,0.272126 0.35059,0.638081 0.59375,0.875 1.96689,1.916494 4.98415,2.937492 7.375,2.9375 2.39087,-8e-6 5.35048,-0.934538 7.40625,-2.9375 0.01,-0.0097 0.0213,-0.02149 0.0312,-0.03125 1.97038,1.424043 4.29311,2.093748 6.21875,2.09375 2.49328,-6e-6 5.23216,-1.027618 7.125,-2.65625 0.23092,-0.19871 0.41059,-0.481469 0.625,-0.71875 3.26308,1.661016 6.96668,2.437499 10.75,2.4375 3.37883,-10e-7 6.73827,-0.682486 9.8125,-2 0.55682,-0.240066 1.08329,-0.582828 1.625,-0.875 1.09323,0.753227 2.23534,1.355778 3.375,1.78125 2.66447,0.993126 5.44854,1.406249 8.21875,1.40625 3.83941,-10e-7 7.59589,-0.723334 10.9375,-2.5625 a 7.2676024,7.2676024 0 0 0 0.0312,-0.03125 c 4.24796,-2.362943 7.49996,-7.527982 7.5,-12.46875 -3e-5,-2.768868 -1.09401,-5.304016 -2.625,-7.46875 0.2565,-0.324455 0.5737,-0.63646 0.75,-0.96875 1.32046,-2.488825 1.40624,-4.523762 1.40625,-6.5625 -4e-5,-3.09935 -2.01861,-7.570919 -5.34375,-9.375 -0.0231,-0.0125 -0.0395,-0.01895 -0.0625,-0.03125 -2.50945,-1.340545 -4.6547,-1.499964 -6.875,-1.5 -4.38333,2.8e-5 -7.82934,0.252562 -11.15625,1.34375 a 7.2676024,7.2676024 0 0 0 -0.0312,0 c -1.94525,0.639298 -3.75269,1.800576 -5.40625,3.25 -0.884,-0.803903 -1.8379,-1.507052 -2.84375,-2 -3.10131,-1.510148 -6.47046,-2.062469 -9.96875,-2.0625 -4.73622,2.9e-5 -9.43374,1.971635 -12.9375,5.1875 -2.67636,-3.095846 -6.6695,-5.343718 -10.5625,-5.34375 -2.076,3.9e-5 -4.21513,0.351327 -6.25,1.09375 -0.0756,0.0276 -0.14362,0.06505 -0.21875,0.09375 -1.86315,-0.858955 -3.85705,-1.40623 -5.75,-1.40625 -1.51962,1.8e-5 -2.89141,0.332132 -4.1875,0.78125 -1.71862,-1.095114 -3.70231,-1.937442 -5.65625,-1.9375 -2.93146,6.9e-5 -5.69697,1.810119 -7.53125,3.90625 -0.33467,-0.161918 -0.65961,-0.353468 -1,-0.5 l 0,0.03125 c -2.53836,-1.096534 -5.11909,-1.906203 -8.03125,-1.90625 -4.36078,2.7e-5 -8.64724,1.406095 -12.21875,3.84375 0.33959,-1.023539 0.68746,-2.05928 0.6875,-3.125 -7e-5,-3.311277 -1.92575,-6.036355 -3.65625,-7.5625 -1.7305,-1.526145 -3.4893,-2.4202 -5.46875,-3.25 -3.04921,-1.278056 -5.68655,-2.249919 -9,-2.25 z m -131.96875,0.46875 c -2.71936,9.5e-5 -5.69955,1.214346 -7.65625,3 -1.97278,1.800483 -3.59375,4.829028 -3.59375,7.90625 0,1.421974 0.14422,2.927616 0.34375,4.90625 0.17547,1.740127 0.21875,3.015746 0.21875,3.46875 0,1.215062 0.0788,2.668536 0.125,4.625 0.0458,1.937898 0.0312,3.373815 0.0312,4.28125 0,0.757669 -0.001,2.104194 -0.0625,3.90625 -0.0639,1.885438 -0.125,3.320158 -0.125,4.40625 0,0.201091 -0.0293,1.026248 -0.125,2.21875 -0.10819,1.348249 -0.1875,2.38858 -0.1875,3.4375 0,2.505458 1.14334,5.439499 3,7.34375 a 7.2676024,7.2676024 0 0 0 0,0.03125 c 2.09237,2.139921 5.27051,3.249995 7.9375,3.25 3.6314,-3e-6 7.6704,-2.977372 9.0625,-5.84375 1.19456,-2.459631 1.43795,-4.762872 1.5,-7.1875 2.83134,3.06521 5.63356,6.019903 8.28125,8.40625 a 7.2676024,7.2676024 0 0 0 0.0312,0 c 2.11946,1.902742 4.76968,3.718747 8.5625,3.71875 2.23397,-10e-7 5.03959,-0.734602 7.15625,-2.625 0.21965,-0.196167 0.30437,-0.446935 0.5,-0.65625 3.61688,2.295595 7.90074,3.406249 12.3125,3.40625 3.37883,-10e-7 6.73827,-0.682486 9.8125,-2 1.03114,-0.444565 2.03262,-1.000579 3,-1.65625 0.52168,0.725962 0.95856,1.442513 1.8125,2.15625 1.29407,1.081611 3.45543,2.245901 6.0625,2.15625 0.0224,-7.69e-4 0.0401,9.55e-4 0.0625,0 2.30383,-0.100969 5.01022,-1.258816 6.96875,-2.96875 1.79574,1.632876 4.19332,3.082431 6.875,3.125 a 7.2676024,7.2676024 0 0 0 0.0312,0 c 3.29636,0.0412 7.08924,-1.946991 8.96875,-4.53125 a 7.2676024,7.2676024 0 0 0 0.0312,-0.0625 c 1.35951,-1.899372 2.54244,-3.908725 3.3125,-6.21875 a 7.2676024,7.2676024 0 0 0 0,-0.03125 c 1.71166,-5.167353 3.39308,-10.86135 5.0625,-17.09375 a 7.2676024,7.2676024 0 0 0 0,-0.03125 c 0.13546,-0.514943 0.37469,-0.923039 0.375,-2.53125 -10e-5,-2.841123 -1.59204,-5.984758 -3.59375,-7.6875 -1.81679,-1.545174 -4.55711,-2.624932 -7.0625,-2.625 -1.83943,2.7e-5 -4.08055,0.416894 -6.09375,1.8125 -0.14722,0.102057 -0.23474,0.263762 -0.375,0.375 -1.8164,-1.269126 -4.02415,-2.124973 -6,-2.125 -1.98227,2.7e-5 -4.23727,0.761971 -6.09375,2.03125 -1.99268,-1.513134 -4.43088,-2.124972 -6.40625,-2.125 -2.23812,5.9e-5 -4.82984,0.878509 -6.78125,2.4375 -0.22837,-0.133067 -0.42293,-0.354405 -0.65625,-0.46875 -3.10131,-1.510148 -6.47046,-2.062469 -9.96875,-2.0625 -2.84125,1.7e-5 -5.69539,0.673291 -8.28125,1.90625 -0.18687,-1.935262 -0.49533,-3.746133 -1.0625,-5.5 -0.53603,-1.657567 -1.30259,-3.412822 -2.90625,-5.0625 -1.60366,-1.649678 -4.37326,-2.937465 -6.875,-2.9375 -2.30198,3.6e-5 -5.2433,0.619511 -7.5625,2.8125 -2.3192,2.192989 -3.15628,5.341694 -3.15625,7.71875 -6e-5,1.340346 0.17289,2.367005 0.34375,3.5625 0.002,0.01649 -0.002,0.01493 0,0.03125 0.11169,0.80826 0.12626,1.191303 0.15625,1.53125 -2.49017,-3.099938 -4.98867,-6.183418 -7.53125,-9.8125 a 7.2676024,7.2676024 0 0 0 0,-0.03125 c -1.94525,-2.766513 -4.43523,-6.093584 -9.78125,-6.09375 z" />
    <path
       sodipodi:type="inkscape:offset"
       inkscape:radius="3.7029774"
       inkscape:original="M -413.3125 27.21875 C -415.79689 27.218787 -418.10939 28.140661 -420.28125 29.96875 C -423.37501 32.578156 -425.90626 35.984403 -427.875 40.1875 C -429.84375 44.390645 -430.84375 48.500016 -430.84375 52.5 C -430.84375 56.890632 -429.79688 60.179691 -427.71875 62.375 C -425.64063 64.570312 -422.53126 65.656248 -418.375 65.65625 C -413.98439 65.656248 -410.14065 64.25 -406.875 61.4375 C -403.65628 58.64063 -401.53128 54.906259 -400.46875 50.25 C -399.53128 49.625014 -399.06253 48.76564 -399.0625 47.625 C -399.06253 46.734392 -399.36722 45.984393 -400 45.375 C -400.63284 44.765644 -401.40628 44.43752 -402.34375 44.4375 C -406.59378 44.43752 -410.31252 44.718769 -413.5 45.25 C -419.15626 46.203143 -422.00001 47.859391 -422 50.25 C -422.00001 51.062513 -421.70314 51.796887 -421.125 52.4375 C -420.48439 53.156261 -419.68751 53.531261 -418.71875 53.53125 C -418.23439 53.531261 -417.73439 53.406261 -417.25 53.1875 C -414.56252 51.984387 -411.40627 51.250013 -407.78125 50.96875 C -408.70315 53.71876 -410.14065 55.812508 -412.0625 57.25 C -413.87502 58.60938 -415.98439 59.281255 -418.375 59.28125 C -420.70314 59.281255 -422.25001 58.79688 -423.0625 57.8125 C -423.82813 56.875007 -424.21876 55.109384 -424.21875 52.5 C -424.21876 47.359392 -422.48438 42.562521 -419 38.15625 C -416.60939 35.125029 -414.71877 33.62503 -413.3125 33.625 C -411.98439 33.62503 -410.50783 34.054717 -408.90625 34.9375 C -407.30471 35.820341 -406.28128 36.281278 -405.8125 36.28125 C -404.87503 36.281278 -404.07815 35.945341 -403.4375 35.28125 C -402.7969 34.617217 -402.46878 33.84378 -402.46875 33 C -402.46878 31.531283 -404.03128 30.171909 -407.125 28.875 C -409.7344 27.781286 -411.79689 27.218787 -413.3125 27.21875 z M -545.28125 27.6875 C -546.3125 27.687536 -547.22657 28.046911 -548.03125 28.78125 C -548.83594 29.51566 -549.25 30.375034 -549.25 31.3125 C -549.25 32.250032 -549.15625 33.640655 -548.96875 35.5 C -548.78125 37.359402 -548.6875 38.750025 -548.6875 39.6875 C -548.6875 40.671898 -548.64063 42.171897 -548.59375 44.15625 C -548.54688 46.140643 -548.53125 47.609391 -548.53125 48.59375 C -548.53125 49.51564 -548.5625 50.906263 -548.625 52.75 C -548.6875 54.593759 -548.71875 55.984383 -548.71875 56.90625 C -548.71875 57.531257 -548.77344 58.453131 -548.875 59.71875 C -548.97656 60.984378 -549.03125 61.937502 -549.03125 62.5625 C -549.03125 63.453126 -548.73438 64.21875 -548.125 64.84375 C -547.4375 65.546874 -546.51563 65.906248 -545.375 65.90625 C -543.12501 65.906248 -542.00001 63.578125 -542 58.96875 C -542.00001 57.734381 -542.00782 55.890633 -542.0625 53.40625 C -542.1172 50.921888 -542.15626 49.04689 -542.15625 47.8125 C -542.15626 46.890642 -542.12501 44.40627 -542.03125 40.34375 C -534.46877 50.125014 -527.6719 57.734381 -521.65625 63.15625 C -520.28128 64.390625 -519.03128 64.999999 -517.9375 65 C -515.96879 64.999999 -514.84379 63.984375 -514.53125 61.96875 C -514.26566 60.281254 -514.12504 59.062505 -514.125 58.28125 C -514.12504 56.343758 -514.09379 51.406263 -514 43.46875 C -513.96879 41.171898 -513.93754 39.921899 -513.9375 39.75 C -513.93754 31.890657 -515.20316 27.968786 -517.75 27.96875 C -520.03128 27.968786 -521.18753 29.062535 -521.1875 31.21875 C -521.18753 31.843782 -521.09378 32.687531 -520.9375 33.78125 C -520.76566 35.015654 -520.68753 35.859403 -520.65625 36.3125 C -520.50003 39.000025 -520.40628 44.203145 -520.40625 51.90625 C -520.40628 53.78126 -520.42191 54.968759 -520.4375 55.46875 C -527.34377 49.07814 -534.34377 40.812523 -541.4375 30.6875 C -542.84376 28.687535 -544.12501 27.687536 -545.28125 27.6875 z M -367.09375 38.03125 C -368.20313 38.031276 -369.07813 38.718775 -369.6875 40.125 C -370.1875 41.250023 -370.4375 42.515647 -370.4375 43.90625 C -370.4375 44.687519 -370.40625 45.835956 -370.34375 47.34375 C -370.28125 48.851578 -370.25 50.000014 -370.25 50.78125 L -370.25 59.5 C -370.25 61.203128 -370.07813 62.437502 -369.75 63.21875 C -369.28125 64.375 -368.39063 64.968749 -367.0625 64.96875 C -366.14063 64.968749 -365.37501 64.734374 -364.75 64.28125 C -364.06251 63.796875 -363.71876 63.125001 -363.71875 62.28125 C -363.71876 61.921877 -363.68751 61.36719 -363.65625 60.625 C -363.62501 59.882817 -363.62501 59.312505 -363.625 58.875 C -363.62501 57.078132 -363.59376 54.593759 -363.53125 51.4375 C -363.34376 51.218763 -363.20313 51.046888 -363.125 50.9375 C -361.29689 48.500016 -359.46876 46.765642 -357.65625 45.71875 C -357.48439 46.312518 -357.40627 47.093767 -357.40625 48.09375 C -357.40627 49.875014 -357.19533 52.507824 -356.8125 55.96875 C -356.4297 59.429692 -356.25002 62.062502 -356.25 63.84375 C -356.25002 64.734374 -355.95314 65.468749 -355.34375 66.0625 C -354.73439 66.656247 -353.96877 66.937497 -353.03125 66.9375 C -352.09377 66.937497 -351.2969 66.656247 -350.6875 66.0625 C -350.07815 65.468749 -349.78127 64.734374 -349.78125 63.84375 C -349.78127 62.140627 -350.00002 59.578129 -350.4375 56.15625 C -350.8594 52.812511 -351.06252 50.250014 -351.0625 48.46875 C -350.46877 47.953141 -349.53127 47.312517 -348.25 46.59375 C -346.96878 45.875018 -346.1719 45.531269 -345.8125 45.53125 C -345.15628 45.531269 -344.6094 46.921892 -344.1875 49.71875 C -343.9844 51.062513 -343.71878 53.343761 -343.40625 56.5625 C -343.1094 59.500005 -342.81253 61.765627 -342.53125 63.375 C -342.21878 65.156249 -341.17191 66.062498 -339.375 66.0625 C -338.46878 66.062498 -337.67191 65.765623 -337 65.1875 C -336.32816 64.609374 -336.03129 63.890625 -336.09375 63 C -336.78129 57.093757 -337.34379 52.875011 -337.78125 50.34375 C -338.23441 46.734392 -338.56253 44.593769 -338.78125 43.96875 C -339.87503 40.921898 -341.96878 39.406275 -345.03125 39.40625 C -346.37503 39.406275 -347.62502 39.609399 -348.78125 40.03125 C -349.93752 40.453149 -350.9844 41.093773 -351.9375 41.9375 C -353.06252 40.109399 -354.84377 39.187525 -357.25 39.1875 C -359.35939 39.187525 -361.57814 40.578148 -363.9375 43.3125 C -363.79688 41.640647 -363.71876 40.953148 -363.71875 41.28125 C -363.71876 40.468774 -364.06251 39.710962 -364.75 39.03125 C -365.43751 38.351588 -366.21876 38.031276 -367.09375 38.03125 z M -498.625 39.5625 C -502.54688 39.562524 -505.65626 41.062523 -507.96875 44.09375 C -510.04688 46.828142 -511.09375 50.171889 -511.09375 54.125 C -511.09375 57.703131 -509.78125 60.468754 -507.15625 62.4375 C -504.78126 64.21875 -501.70314 65.124999 -497.96875 65.125 C -495.51564 65.124999 -493.21877 64.656249 -491.03125 63.71875 C -488.4219 62.593751 -487.09378 61.125003 -487.09375 59.34375 C -487.09378 57.765631 -487.90627 57.000007 -489.53125 57 C -490.31252 57.000007 -491.3594 57.359382 -492.65625 58.125 C -494.10939 58.98438 -495.87502 59.437505 -497.96875 59.4375 C -499.34376 59.437505 -500.56251 59.218755 -501.625 58.8125 C -502.68751 58.406256 -503.59376 57.812506 -504.34375 57 L -496.46875 53.5 C -493.82814 52.328137 -492.06252 51.421888 -491.1875 50.8125 C -489.26565 49.48439 -488.31252 47.968766 -488.3125 46.25 C -488.31252 43.81252 -489.4844 42.031272 -491.84375 40.875 C -493.64064 40.000024 -495.90627 39.562524 -498.625 39.5625 z M -383.65625 39.5625 C -387.53126 39.562524 -390.84376 40.914086 -393.625 43.59375 C -396.40625 46.273455 -397.8125 49.48439 -397.8125 53.25 C -397.8125 57.265632 -396.85156 60.296879 -394.96875 62.3125 C -393.08594 64.328125 -390.26563 65.343749 -386.5 65.34375 C -385.73439 65.343749 -384.81251 65.164061 -383.71875 64.8125 C -382.62502 64.460937 -381.37502 63.9375 -379.9375 63.25 C -378.37502 64.812499 -377.21877 65.593748 -376.5 65.59375 C -375.6719 65.593748 -374.94534 65.328124 -374.3125 64.78125 C -373.67971 64.234375 -373.37503 63.546876 -373.375 62.71875 C -373.37503 62.531252 -373.6719 61.750002 -374.28125 60.40625 C -374.95315 58.92188 -375.2969 58.109381 -375.34375 57.96875 C -375.76565 56.656257 -376.00002 54.515635 -376 51.53125 C -376.00002 50.265639 -375.92971 49.164077 -375.84375 48.21875 C -375.75784 47.273454 -375.65627 46.468768 -375.5 45.84375 C -375.14065 45.421894 -374.96877 44.937519 -374.96875 44.375 C -374.96877 43.031271 -376.14065 41.859397 -378.5 40.84375 C -380.45314 40.000024 -382.17189 39.562524 -383.65625 39.5625 z M -321.53125 39.5625 C -325.45313 39.562524 -328.56251 41.062523 -330.875 44.09375 C -332.95313 46.828142 -334 50.171889 -334 54.125 C -334 57.703131 -332.6875 60.468754 -330.0625 62.4375 C -327.68751 64.21875 -324.60939 65.124999 -320.875 65.125 C -318.42189 65.124999 -316.12502 64.656249 -313.9375 63.71875 C -311.32815 62.593751 -310.00003 61.125003 -310 59.34375 C -310.00003 57.765631 -310.81252 57.000007 -312.4375 57 C -313.21877 57.000007 -314.26565 57.359382 -315.5625 58.125 C -317.01564 58.98438 -318.78127 59.437505 -320.875 59.4375 C -322.25001 59.437505 -323.46876 59.218755 -324.53125 58.8125 C -325.59376 58.406256 -326.50001 57.812506 -327.25 57 L -319.375 53.5 C -316.73439 52.328137 -314.96877 51.421888 -314.09375 50.8125 C -312.1719 49.48439 -311.21877 47.968766 -311.21875 46.25 C -311.21877 43.81252 -312.39065 42.031272 -314.75 40.875 C -316.54689 40.000024 -318.81252 39.562524 -321.53125 39.5625 z M -481.21875 39.65625 C -482.125 39.656274 -482.91406 39.929712 -483.5625 40.5 C -484.21094 41.070335 -484.53125 41.796897 -484.53125 42.65625 C -484.53125 43.453146 -484.40625 44.53127 -484.1875 45.9375 C -483.17188 52.437512 -482.42188 56.656257 -481.9375 58.59375 C -481.40625 60.734378 -480.73438 62.484377 -479.875 63.84375 C -479.06251 65.187499 -478.26563 65.843748 -477.53125 65.8125 C -476.23438 65.765623 -475.28126 65.234374 -474.625 64.1875 C -474.15626 63.796875 -473.79689 63.281251 -473.5625 62.625 C -472.00001 58.546881 -470.81251 55.531259 -470 53.59375 C -469.92189 53.359386 -469.70314 52.906261 -469.375 52.21875 C -468.79689 56.140633 -468.29689 58.812505 -467.875 60.25 C -466.75002 64.015625 -465.21877 65.906248 -463.25 65.9375 C -462.00002 65.953123 -461.00002 65.437499 -460.25 64.40625 C -459.18753 62.921876 -458.40628 61.500003 -457.9375 60.09375 C -456.28128 55.093759 -454.64066 49.531265 -453 43.40625 C -452.92191 43.109396 -452.87503 42.875021 -452.875 42.71875 C -452.87503 41.859397 -453.22659 41.140648 -453.90625 40.5625 C -454.58597 39.984399 -455.3594 39.687524 -456.25 39.6875 C -457.8594 39.687524 -458.84378 40.375024 -459.1875 41.71875 C -461.50002 50.734388 -462.7344 55.484384 -462.875 55.96875 C -463.01565 55.265634 -463.39065 53.046886 -464.03125 49.34375 C -464.46877 46.796892 -464.89065 44.718769 -465.28125 43.125 C -465.82814 40.859398 -466.98439 39.750024 -468.71875 39.75 C -470.48439 39.750024 -471.67189 40.750023 -472.3125 42.78125 C -473.81251 47.500017 -475.15626 51.453138 -476.3125 54.625 C -476.73438 51.859387 -477.04688 49.875014 -477.25 48.65625 C -477.29688 48.328141 -477.40626 47.218767 -477.59375 45.375 C -477.73438 44.09377 -477.89063 43.031271 -478.09375 42.15625 C -478.48438 40.484399 -479.53126 39.656274 -481.21875 39.65625 z M -383.34375 45.1875 C -383.17189 45.187519 -382.96095 45.210956 -382.71875 45.28125 C -382.47658 45.351581 -382.21877 45.468769 -381.90625 45.625 C -382.04689 46.421893 -382.14845 47.132829 -382.21875 47.78125 C -382.28908 48.429703 -382.31252 49.000015 -382.3125 49.5 C -382.31252 51.343763 -382.09377 54.12501 -381.625 57.84375 C -382.39064 58.468756 -383.19533 58.960943 -384.0625 59.28125 C -384.9297 59.601567 -385.84376 59.750004 -386.8125 59.75 C -388.31251 59.750004 -389.43751 59.210942 -390.1875 58.15625 C -390.93751 57.101569 -391.31251 55.531258 -391.3125 53.4375 C -391.31251 51.250013 -390.53126 49.320327 -388.9375 47.65625 C -387.34376 45.992206 -385.46876 45.187519 -383.34375 45.1875 z M -498.625 45.21875 C -496.93752 45.218769 -495.54689 45.531269 -494.5 46.125 C -495.75002 46.937517 -497.45314 47.796891 -499.5625 48.75 C -501.31251 49.500015 -503.04688 50.265639 -504.8125 51.03125 C -504.18751 49.093765 -503.37501 47.656266 -502.34375 46.6875 C -501.31251 45.718768 -500.07814 45.218769 -498.625 45.21875 z M -321.53125 45.21875 C -319.84377 45.218769 -318.45314 45.531269 -317.40625 46.125 C -318.65627 46.937517 -320.35939 47.796891 -322.46875 48.75 C -324.21876 49.500015 -325.95313 50.265639 -327.71875 51.03125 C -327.09376 49.093765 -326.28126 47.656266 -325.25 46.6875 C -324.21876 45.718768 -322.98439 45.218769 -321.53125 45.21875 z "
       xlink:href="#text3241"
       style="font-size:48px;font-style:normal;font-variant:normal;font-weight:bold;font-stretch:normal;line-height:125%;letter-spacing:0px;word-spacing:0px;fill:#000000;fill-opacity:1;stroke:none;font-family:Comic Sans MS;-inkscape-font-specification:Comic Sans MS Bold"
       id="path3249"
       inkscape:href="#text3241"
       d="m -415.3125,23.53125 c -3.40039,5.1e-5 -6.65038,1.326698 -9.34375,3.59375 -3.54686,2.991567 -6.40258,6.88874 -8.5625,11.5 -2.1577,4.606537 -3.3125,9.257851 -3.3125,13.875 0,4.979239 1.20429,9.320846 4.125,12.40625 2.92673,3.091778 7.22999,4.437498 12.03125,4.4375 5.18128,-2e-6 10.0144,-1.741942 13.90625,-5.09375 a 3.7033477,3.7033477 0 0 0 0.0312,-0.03125 c 1.49979,-1.303225 2.74254,-2.826631 3.84375,-4.46875 0.62103,1.930455 1.56303,3.655784 2.90625,5.09375 2.71843,2.910192 6.75605,4.187499 11.1875,4.1875 1.345,-2e-6 2.58535,-0.262932 3.90625,-0.6875 0.6166,-0.198198 1.31993,-0.547242 1.96875,-0.8125 0.20731,0.160277 0.41209,0.386416 0.625,0.53125 0.8745,0.594896 1.799,1.218745 3.5,1.21875 1.61995,-4e-6 3.34883,-0.611693 4.59375,-1.6875 0.21929,-0.189514 0.33898,-0.491624 0.53125,-0.71875 1.24302,1.054806 2.81328,1.781249 4.3125,1.78125 1.52697,-2e-6 3.14944,-0.430948 4.4375,-1.34375 0.019,-0.01346 0.0437,-0.01758 0.0625,-0.03125 l -0.0312,-0.03125 c 1.48392,-1.076093 2.50671,-3.09458 2.53125,-4.90625 0.0137,0.388804 0.125,1.192079 0.125,1.5 -4e-5,1.713568 0.72808,3.63572 2,4.875 1.30112,1.267779 3.22816,1.906245 4.90625,1.90625 1.67808,-5e-6 3.59108,-0.59441 4.9375,-1.90625 1.20344,-1.17263 1.86146,-2.954019 1.9375,-4.59375 0.27522,1.443759 0.97348,2.971054 2.25,4.0625 1.31205,1.121829 3.01028,1.562498 4.53125,1.5625 1.71494,-4e-6 3.48719,-0.63657 4.78125,-1.75 0.87762,-0.755198 1.45404,-1.90264 1.8125,-3.09375 0.18145,0.152297 0.3092,0.356903 0.5,0.5 3.12131,2.340989 7.07278,3.406249 11.40625,3.40625 2.92483,-10e-7 5.76689,-0.556357 8.40625,-1.6875 1.26378,-0.54487 2.35211,-1.264808 3.34375,-2.125 0.0898,0.112487 0.12289,0.269939 0.21875,0.375 1.13398,1.242874 2.55227,2.018263 4.09375,2.59375 2.20066,0.820248 4.53796,1.156249 6.96875,1.15625 3.39708,-10e-7 6.52744,-0.612496 9.21875,-2.09375 a 3.7033477,3.7033477 0 0 0 0.0312,0 c 3.3907,-1.886088 5.62497,-5.539302 5.625,-9.375 -3e-5,-3.067548 -1.70206,-5.78963 -4.09375,-7.8125 1.12458,-0.560962 2.14418,-1.316099 2.65625,-2.28125 0.85582,-1.613063 0.96874,-3.177699 0.96875,-4.90625 -3e-5,-2.30911 -1.25038,-5.104766 -3.46875,-6.28125 l 0,0.03125 c -1.6619,-0.900115 -3.31068,-1.062469 -5.21875,-1.0625 -4.18768,2.6e-5 -7.40934,0.254794 -10.0625,1.125 -2.16011,0.709908 -4.11488,1.901332 -5.5,3.65625 -0.45004,0.570188 -0.70038,1.249104 -1,1.90625 -0.99027,-1.891802 -2.50799,-3.523134 -4.4375,-4.46875 a 3.7033477,3.7033477 0 0 0 0,-0.03125 c -2.46158,-1.19864 -5.29028,-1.656222 -8.40625,-1.65625 -4.86605,3e-5 -9.35519,2.133248 -12.28125,5.96875 -0.47047,0.619044 -0.86554,1.297716 -1.25,1.96875 -0.0703,-0.322009 -0.0804,-0.667241 -0.21875,-1.0625 a 3.7033477,3.7033477 0 0 0 0,-0.03125 c -1.46958,-4.093687 -5.4658,-6.999965 -9.75,-7 -1.7169,3.2e-5 -3.42729,0.258545 -5.03125,0.84375 -0.50097,0.182794 -0.87329,0.571969 -1.34375,0.8125 -1.70426,-1.175338 -3.75612,-1.874978 -5.84375,-1.875 -1.68841,2e-5 -3.21676,0.482953 -4.65625,1.28125 -0.0986,-0.110573 -0.14646,-0.272632 -0.25,-0.375 -1.27126,-1.256752 -3.15886,-2.062447 -4.9375,-2.0625 -2.62405,6.1e-5 -5.00913,2.105662 -5.96875,4.28125 -0.003,0.007 0.003,0.02424 0,0.03125 -0.15528,0.351846 -0.22388,0.729128 -0.34375,1.09375 -1.04966,-0.997967 -2.24696,-1.719286 -3.625,-2.3125 -2.25135,-0.972549 -4.41308,-1.562464 -6.625,-1.5625 -4.73604,2.9e-5 -9.14009,1.795194 -12.53125,5.0625 -0.53546,0.515907 -0.97698,1.089142 -1.4375,1.65625 -1.23771,-1.109688 -2.99328,-1.843713 -4.71875,-1.84375 -4.41338,2.1e-5 -8.3109,0.270583 -11.75,0.84375 a 3.7033477,3.7033477 0 0 0 -0.0312,0 c -1.19237,0.200927 -2.22622,0.447158 -3.25,0.71875 0.40632,-0.626299 0.78891,-1.252394 1.28125,-1.875 1.08529,-1.37612 2.02849,-2.306502 2.625,-2.78125 0.22478,-0.178899 0.31892,-0.207326 0.40625,-0.25 0.54015,0.03533 1.28727,0.181698 2.375,0.78125 0.8542,0.470876 1.58863,0.852654 2.28125,1.15625 0.69262,0.303596 1.14552,0.625087 2.59375,0.625 1.82216,5.4e-5 3.75855,-0.805737 5.03125,-2.125 1.19946,-1.243341 1.99994,-3.040068 2,-4.84375 -4e-5,-2.047477 -1.14321,-3.79236 -2.40625,-4.90625 -1.26304,-1.11389 -2.7327,-1.884137 -4.5,-2.625 -2.83351,-1.187649 -5.19326,-1.937441 -7.625,-1.9375 z M -547.28125,24 c -1.89146,6.6e-5 -3.85829,0.761193 -5.25,2.03125 -1.39991,1.277648 -2.40625,3.25343 -2.40625,5.28125 0,1.184389 0.0876,2.642369 0.28125,4.5625 0.18137,1.798623 0.28125,3.121897 0.28125,3.8125 0,1.101938 0.0472,2.592358 0.0937,4.5625 0.0463,1.960701 0.0625,3.398589 0.0625,4.34375 0,0.838208 -0.032,2.208752 -0.0937,4.03125 -0.0632,1.864997 -0.0937,3.275699 -0.0937,4.28125 0,0.408993 -0.0577,1.302889 -0.15625,2.53125 -0.10494,1.307729 -0.15625,2.283984 -0.15625,3.125 0,1.713495 0.69254,3.598133 1.9375,4.875 1.40338,1.435272 3.48783,2.156247 5.40625,2.15625 2.40218,-2e-6 4.88976,-1.783863 5.875,-3.8125 0.98524,-2.028637 1.18749,-4.206555 1.1875,-6.8125 -10e-6,-1.249959 -0.007,-3.139328 -0.0625,-5.65625 -0.0276,-1.255296 -0.0461,-1.851263 -0.0625,-2.78125 5.05735,6.040108 9.92151,11.417425 14.3125,15.375 1.75434,1.574954 3.71837,2.781248 6.1875,2.78125 1.62112,-10e-7 3.42488,-0.476122 4.78125,-1.6875 1.04304,-0.931541 1.58648,-2.149364 1.9375,-3.375 0.56669,0.632628 1.15195,1.262402 1.84375,1.78125 3.12131,2.340989 7.07278,3.406249 11.40625,3.40625 2.92483,-10e-7 5.76689,-0.556357 8.40625,-1.6875 1.63293,-0.704024 3.06103,-1.590166 4.21875,-2.875 0.35556,-0.394593 0.60176,-0.895669 0.875,-1.375 0.4036,1.033367 0.87358,1.973755 1.4375,2.875 0.0119,0.01965 0.0193,0.04294 0.0312,0.0625 0.53569,0.878429 1.09857,1.673807 1.9375,2.375 0.85138,0.7116 2.14662,1.366236 3.65625,1.3125 0.01,-3.49e-4 0.0216,3.96e-4 0.0312,0 1.86382,-0.07634 3.71555,-1.13088 5.03125,-2.5625 l 0.0937,0.09375 c 0.85019,-0.708506 1.48878,-1.666742 1.9375,-2.6875 0.42811,0.907754 0.94342,1.737932 1.5625,2.5 1.24933,1.537884 3.28347,2.747057 5.4375,2.78125 a 3.7033477,3.7033477 0 0 0 0.0312,0 c 2.29275,0.02866 4.70567,-1.208635 6.03125,-3.03125 a 3.7033477,3.7033477 0 0 0 0,-0.03125 c 1.21383,-1.695844 2.1902,-3.445712 2.8125,-5.3125 1.68447,-5.085274 3.34468,-10.695265 5,-16.875 a 3.7033477,3.7033477 0 0 0 0.0312,-0.03125 c 0.10732,-0.407986 0.21858,-0.728865 0.21875,-1.625 -7e-5,-1.869203 -0.95916,-3.817543 -2.3125,-4.96875 -1.25913,-1.070892 -3.03655,-1.749954 -4.75,-1.75 -1.33197,2e-5 -2.79621,0.278422 -4.0625,1.15625 -1.04033,0.721181 -1.72463,1.82543 -2.15625,2.9375 -0.37543,-0.773516 -0.84265,-1.514555 -1.5,-2.15625 -1.24857,-1.218846 -3.0933,-1.874977 -4.75,-1.875 -1.58189,2.2e-5 -3.3086,0.541441 -4.59375,1.625 -0.74704,0.629853 -1.31001,1.381063 -1.75,2.1875 -0.41705,-0.926958 -0.96242,-1.821851 -1.8125,-2.5 -1.28652,-1.026325 -2.89428,-1.406229 -4.34375,-1.40625 -1.65105,4.4e-5 -3.45495,0.583551 -4.78125,1.75 -0.59962,0.527393 -1.06269,1.22896 -1.4375,1.96875 -0.81649,-0.855591 -1.7186,-1.604216 -2.78125,-2.125 a 3.7033477,3.7033477 0 0 0 0,-0.03125 c -2.46158,-1.19864 -5.29028,-1.656222 -8.40625,-1.65625 -4.55622,2.8e-5 -8.73389,1.923642 -11.65625,5.3125 0.007,-0.371353 0.0312,-1.203106 0.0312,-1.4375 -2e-5,-4.128437 -0.2674,-7.316798 -1.125,-9.96875 -0.4288,-1.325976 -1.01148,-2.575077 -2.0625,-3.65625 -1.05102,-1.081173 -2.72543,-1.843728 -4.3125,-1.84375 -1.73242,2.7e-5 -3.66159,0.428732 -5.125,1.8125 -1.46341,1.383768 -2.00002,3.384988 -2,5.125 -5e-5,0.985498 0.11907,1.925831 0.28125,3.0625 0.002,0.01568 -0.002,0.01572 0,0.03125 0.15443,1.116468 0.22558,1.871327 0.25,2.21875 2.9e-4,0.0051 -2.9e-4,0.02615 0,0.03125 0.0904,1.564836 0.11477,5.977558 0.15625,9.59375 -4.67349,-5.067224 -9.39876,-10.714087 -14.21875,-17.59375 -1.68091,-2.390574 -3.58378,-4.562398 -6.875,-4.5625 z m 159.3125,26 c 0.0178,1.472393 0.24051,3.65838 0.46875,5.84375 -0.3845,0.125405 -0.78516,0.218752 -1.3125,0.21875 -0.61284,2e-6 -0.26193,0.05256 -0.34375,-0.0625 -0.0818,-0.115061 -0.46876,-0.910896 -0.46875,-2.5625 -10e-6,-1.305811 0.35223,-2.150859 1.375,-3.21875 0.1028,-0.107335 0.18346,-0.12701 0.28125,-0.21875 z m 77.25,0.375 c 0.78987,1.678875 1.97992,3.185347 3.5,4.34375 -0.83063,0.07952 -1.65032,0.318785 -2.46875,0.75 -0.14338,-0.18102 -0.20268,-0.397639 -0.375,-0.5625 -1.05577,-1.010093 -2.33133,-1.342349 -3.53125,-1.46875 1.12958,-0.863665 2.16458,-1.854509 2.875,-3.0625 z m -178.21875,1.25 c 0.15544,0.91102 0.29871,1.746044 0.4375,2.5 -0.73859,-0.373938 -1.44676,-0.60947 -2.1875,-0.6875 0.67591,-0.516796 1.20537,-1.162613 1.75,-1.8125 z" />
    <text
       xml:space="preserve"
       style="font-size:48px;font-style:normal;font-variant:normal;font-weight:bold;font-stretch:normal;line-height:125%;letter-spacing:0px;word-spacing:0px;fill:#ffff00;fill-opacity:1;stroke:none;font-family:Comic Sans MS;-inkscape-font-specification:Comic Sans MS Bold"
       x="-551.18304"
       y="64.040184"
       id="text3241"
       sodipodi:linespacing="125%"><tspan
         sodipodi:role="line"
         id="tspan3243"
         x="-551.18304"
         y="64.040184">New Game</tspan></text>
  </g>
</svg>
