<?xml version="1.0" encoding="UTF-8" standalone="no"?>
<!-- Created with Inkscape (http://www.inkscape.org/) -->

<svg
   xmlns:dc="http://purl.org/dc/elements/1.1/"
   xmlns:cc="http://creativecommons.org/ns#"
   xmlns:rdf="http://www.w3.org/1999/02/22-rdf-syntax-ns#"
   xmlns:svg="http://www.w3.org/2000/svg"
   xmlns="http://www.w3.org/2000/svg"
   xmlns:xlink="http://www.w3.org/1999/xlink"
   xmlns:sodipodi="http://sodipodi.sourceforge.net/DTD/sodipodi-0.dtd"
   xmlns:inkscape="http://www.inkscape.org/namespaces/inkscape"
   width="598.125"
   height="83.46875"
   id="svg2"
   version="1.1"
   inkscape:version="0.48.4 r9939"
   sodipodi:docname="title.svg">
  <defs
     id="defs4" />
  <sodipodi:namedview
     id="base"
     pagecolor="#ffffff"
     bordercolor="#666666"
     borderopacity="1.0"
     inkscape:pageopacity="0.0"
     inkscape:pageshadow="2"
     inkscape:zoom="0.70710678"
     inkscape:cx="557.36207"
     inkscape:cy="99.205197"
     inkscape:document-units="px"
     inkscape:current-layer="layer1"
     showgrid="false"
     inkscape:window-width="1366"
     inkscape:window-height="716"
     inkscape:window-x="-8"
     inkscape:window-y="-8"
     inkscape:window-maximized="1"
     fit-margin-top="0"
     fit-margin-left="0"
     fit-margin-right="0"
     fit-margin-bottom="0" />
  <metadata
     id="metadata7">
    <rdf:RDF>
      <cc:Work
         rdf:about="">
        <dc:format>image/svg+xml</dc:format>
        <dc:type
           rdf:resource="http://purl.org/dc/dcmitype/StillImage" />
        <dc:title></dc:title>
      </cc:Work>
    </rdf:RDF>
  </metadata>
  <g
     inkscape:label="Layer 1"
     inkscape:groupmode="layer"
     id="layer1"
     transform="translate(290.21875,6.1875)">
    <path
       sodipodi:type="inkscape:offset"
       inkscape:radius="12.727922"
       inkscape:original="M -217.625 6.53125 C -218.98438 6.5313046 -220.1172 6.9844292 -221.03125 7.875 C -221.94532 8.7656774 -222.40626 9.8672388 -222.40625 11.15625 C -222.40626 14.156297 -222.48438 18.652386 -222.625 24.6875 C -222.76563 30.722687 -222.84376 35.250026 -222.84375 38.25 C -222.84376 40.617208 -223.02735 44.16408 -223.4375 48.875 C -223.84766 53.585945 -224.0625 57.132817 -224.0625 59.5 C -224.0625 60.789063 -223.60157 61.859374 -222.6875 62.75 C -221.77344 63.640623 -220.64063 64.093747 -219.28125 64.09375 C -217.92189 64.093747 -216.78907 63.640623 -215.875 62.75 C -214.96095 61.859374 -214.50001 60.789063 -214.5 59.5 C -214.50001 57.414066 -214.39064 54.718756 -214.15625 51.4375 C -213.87501 47.710951 -213.70314 45.062516 -213.65625 43.46875 C -209.15627 42.625019 -204.65627 41.789082 -200.15625 40.96875 C -194.74222 39.984396 -190.21098 39.414084 -186.53125 39.25 C -186.57817 40.281271 -186.59379 41.445332 -186.59375 42.78125 C -186.59379 44.492204 -186.52739 47.078139 -186.375 50.5 C -186.2227 53.921882 -186.12504 56.476567 -186.125 58.1875 C -186.12504 59.453127 -185.63285 60.527344 -184.625 61.40625 C -183.61723 62.285155 -182.41411 62.718748 -181.03125 62.71875 C -179.67192 62.718748 -178.53911 62.265624 -177.625 61.375 C -176.71099 60.484376 -176.25005 59.414064 -176.25 58.125 C -176.25005 56.414067 -176.39849 53.835945 -176.65625 50.4375 C -176.91411 47.039077 -177.0313 44.492204 -177.03125 42.78125 C -177.0313 40.554708 -176.92193 37.257836 -176.6875 32.875 C -176.45318 28.49222 -176.31255 25.195348 -176.3125 22.96875 C -176.31255 22.312539 -176.25396 21.277384 -176.125 19.90625 C -175.99615 18.535199 -175.93755 17.531294 -175.9375 16.875 C -175.93755 15.609421 -175.7188 14.117235 -175.25 12.40625 C -175.1563 12.054737 -175.0938 11.695362 -175.09375 11.34375 C -175.0938 10.007864 -175.62505 8.9219273 -176.65625 8.03125 C -177.61724 7.2109915 -178.69536 6.7813044 -179.9375 6.78125 C -181.60161 6.7813044 -183.09379 8.2422404 -184.40625 11.125 C -185.46098 13.468798 -186.01567 15.539108 -186.0625 17.34375 C -186.27348 24.210974 -186.43754 28.42972 -186.53125 30 C -190.3516 30.140656 -194.88285 30.656281 -200.15625 31.59375 L -213.65625 34.125 C -213.6797 33.304715 -213.64064 32.140654 -213.5 30.59375 C -213.33595 28.92972 -213.25001 27.804721 -213.25 27.21875 C -213.25001 25.437536 -213.16017 22.761757 -213.03125 19.1875 C -212.90236 15.613327 -212.84377 12.937548 -212.84375 11.15625 C -212.84377 9.8672388 -213.3047 8.7656774 -214.21875 7.875 C -215.13283 6.9844292 -216.26564 6.5313046 -217.625 6.53125 z M -113.15625 7.53125 C -114.51563 7.5313036 -115.66407 7.9063033 -116.625 8.65625 C -117.70313 9.4766142 -118.25 10.593801 -118.25 12 C -118.25 12.585986 -118.14844 13.164111 -117.9375 13.75 C -114.30469 24.015662 -111.70313 31.914092 -110.15625 37.46875 C -108.39845 44.734391 -107.14845 50.218761 -106.375 53.875 L -105.28125 57.96875 C -105.23439 59.632814 -104.59377 60.945313 -103.375 61.90625 C -102.25002 62.773436 -100.83596 63.218748 -99.125 63.21875 C -97.765647 63.218748 -96.531273 62.835936 -95.40625 62.0625 C -94.117213 61.148438 -93.468777 59.953126 -93.46875 58.5 C -93.468777 57.914066 -93.570339 57.359379 -93.78125 56.84375 C -92.960965 53.63282 -91.250029 49.218762 -88.625 43.59375 C -86.867221 39.843771 -85.210972 35.617213 -83.6875 30.90625 C -81.859413 40.960958 -80.43754 48.484388 -79.40625 53.5 C -79.125041 55.210943 -78.453167 57.429691 -77.375 60.125 C -77.281293 61.507812 -76.578168 62.624999 -75.3125 63.46875 C -74.234421 64.195309 -73.023484 64.562497 -71.6875 64.5625 C -69.437551 64.562497 -67.789115 63.57031 -66.6875 61.625 C -65.843804 60.148439 -64.929743 58.17969 -63.96875 55.71875 C -62.679745 52.414071 -60.539122 47.421889 -57.5625 40.71875 C -54.656315 34.13284 -52.554755 29.101595 -51.21875 25.65625 C -50.328195 22.984413 -49.679758 20.984415 -49.28125 19.625 C -48.742259 18.218793 -48.273509 17.023482 -47.875 16.0625 C -47.05476 14.023485 -46.625073 12.773486 -46.625 12.28125 C -46.625073 10.898488 -47.093823 9.7539577 -48.03125 8.875 C -48.968821 7.9961469 -50.164132 7.5625536 -51.59375 7.5625 C -53.468817 7.5625536 -54.968815 8.3906778 -56.09375 10.03125 C -57.125063 11.554737 -57.976625 13.625048 -58.65625 16.25 C -59.617248 19.906291 -60.242247 22.062539 -60.5 22.71875 C -64.695368 33.66409 -68.015677 42.031269 -70.5 47.84375 C -72.960985 37.203149 -74.445358 29.875031 -74.9375 25.84375 C -75.406295 22.093789 -75.703169 19.742229 -75.84375 18.78125 C -76.335981 15.640671 -76.859418 13.47661 -77.375 12.28125 C -78.429729 9.7734889 -80.078165 8.5000527 -82.375 8.5 C -84.812535 8.5000527 -87.218783 11.078175 -89.5625 16.1875 C -90.546904 18.320355 -91.835966 21.906289 -93.40625 26.96875 C -95.351587 33.179715 -97.250023 38.55471 -99.125 43.125 C -102.00783 30.468781 -104.60939 20.859415 -106.90625 14.25 C -107.65626 12.093799 -108.32032 10.601613 -108.90625 9.78125 C -109.96095 8.2813029 -111.37501 7.5313036 -113.15625 7.53125 z M -7.125 7.53125 C -8.4843805 7.5313036 -9.6328168 7.9063033 -10.59375 8.65625 C -11.671877 9.4766142 -12.218752 10.593801 -12.21875 12 C -12.218752 12.585986 -12.117189 13.164111 -11.90625 13.75 C -8.2734432 24.015662 -5.6718833 31.914092 -4.125 37.46875 C -2.3671991 44.734391 -1.1172004 50.218761 -0.34375 53.875 L 0.75 57.96875 C 0.79686022 59.632814 1.4374846 60.945313 2.65625 61.90625 C 3.7812322 62.773436 5.1952933 63.218748 6.90625 63.21875 C 8.2656028 63.218748 9.4999765 62.835936 10.625 62.0625 C 11.914037 61.148438 12.562473 59.953126 12.5625 58.5 C 12.562473 57.914066 12.460911 57.359379 12.25 56.84375 C 13.070285 53.63282 14.781221 49.218762 17.40625 43.59375 C 19.164029 39.843771 20.820278 35.617213 22.34375 30.90625 C 24.171837 40.960958 25.59371 48.484388 26.625 53.5 C 26.906209 55.210943 27.578083 57.429691 28.65625 60.125 C 28.749957 61.507812 29.453082 62.624999 30.71875 63.46875 C 31.796829 64.195309 33.007766 64.562497 34.34375 64.5625 C 36.593699 64.562497 38.242135 63.57031 39.34375 61.625 C 40.187446 60.148439 41.101507 58.17969 42.0625 55.71875 C 43.351505 52.414071 45.492128 47.421889 48.46875 40.71875 C 51.374935 34.13284 53.476495 29.101595 54.8125 25.65625 C 55.703055 22.984413 56.351492 20.984415 56.75 19.625 C 57.288991 18.218793 57.757741 17.023482 58.15625 16.0625 C 58.97649 14.023485 59.406177 12.773486 59.40625 12.28125 C 59.406177 10.898488 58.937427 9.7539577 58 8.875 C 57.062429 7.9961469 55.867118 7.5625536 54.4375 7.5625 C 52.562433 7.5625536 51.062435 8.3906778 49.9375 10.03125 C 48.906187 11.554737 48.054625 13.625048 47.375 16.25 C 46.414002 19.906291 45.789003 22.062539 45.53125 22.71875 C 41.335882 33.66409 38.015573 42.031269 35.53125 47.84375 C 33.070265 37.203149 31.585892 29.875031 31.09375 25.84375 C 30.624955 22.093789 30.328081 19.742229 30.1875 18.78125 C 29.695269 15.640671 29.171832 13.47661 28.65625 12.28125 C 27.601521 9.7734889 25.953085 8.5000527 23.65625 8.5 C 21.218715 8.5000527 18.812467 11.078175 16.46875 16.1875 C 15.484346 18.320355 14.195284 21.906289 12.625 26.96875 C 10.679663 33.179715 8.7812272 38.55471 6.90625 43.125 C 4.0234195 30.468781 1.4218596 20.859415 -0.875 14.25 C -1.6250124 12.093799 -2.2890742 10.601613 -2.875 9.78125 C -3.9296976 8.2813029 -5.3437586 7.5313036 -7.125 7.53125 z M -269.65625 8.125 C -274.41407 8.1250531 -276.8125 9.7266139 -276.8125 12.9375 C -276.8125 14.437547 -276.26563 15.640671 -275.1875 16.53125 C -274.22657 17.328169 -273.03907 17.718793 -271.65625 17.71875 C -271.39844 17.718793 -271.02344 17.69145 -270.53125 17.65625 C -270.03907 17.621137 -269.66407 17.625044 -269.40625 17.625 L -255.21875 17.625 C -253.2969 17.625044 -250.50003 17.476606 -246.84375 17.21875 C -250.85159 20.87504 -255.15627 25.656286 -259.75 31.5625 C -263.6172 36.671899 -267.46876 41.804707 -271.3125 46.9375 C -273.49219 49.750011 -274.8125 51.523447 -275.28125 52.25 C -276.75781 54.570319 -277.5 56.562505 -277.5 58.25 C -277.5 59.773439 -276.94531 60.96875 -275.84375 61.8125 C -274.85938 62.585936 -273.61719 62.968748 -272.09375 62.96875 C -268.53126 62.968748 -263.16798 62.86328 -256.03125 62.6875 C -248.89456 62.511717 -243.56253 62.437499 -240 62.4375 C -239.32035 62.437499 -238.29691 62.480467 -236.9375 62.5625 C -235.57817 62.64453 -234.55473 62.687498 -233.875 62.6875 C -232.49223 62.687498 -231.29692 62.304686 -230.3125 61.53125 C -229.16411 60.640626 -228.64849 59.421877 -228.71875 57.875 C -228.81255 55.789068 -230.25005 54.421882 -233.0625 53.8125 C -234.25786 53.554695 -236.52348 53.437508 -239.875 53.4375 C -242.92191 53.437508 -247.02347 53.546883 -252.15625 53.78125 C -258.69533 54.062507 -262.82033 54.234382 -264.53125 54.28125 L -264.40625 54.09375 C -260.25783 48.4922 -256.08596 42.921893 -251.9375 37.34375 C -246.52347 30.195343 -241.83597 25.148474 -237.875 22.21875 C -236.00004 20.976603 -234.41411 19.953166 -233.125 19.15625 C -230.0313 17.000044 -228.50005 14.945359 -228.5 13 C -228.50005 9.9531762 -231.98442 8.4375527 -238.96875 8.4375 C -240.77347 8.4375527 -243.46488 8.5000527 -247.0625 8.59375 C -250.66018 8.6875525 -253.38284 8.7188025 -255.1875 8.71875 C -256.80471 8.7188025 -259.22658 8.6055213 -262.4375 8.40625 C -265.64845 8.2070842 -268.03907 8.1250531 -269.65625 8.125 z M 181.71875 8.5 C 180.21874 8.5000527 178.91405 9.0234897 177.8125 10.03125 C 176.71093 11.039113 176.15624 12.265674 176.15625 13.71875 C 176.15624 15.171921 176.71093 16.398482 177.8125 17.40625 C 178.91405 18.414105 180.21874 18.906292 181.71875 18.90625 C 183.21874 18.906292 184.50389 18.414105 185.59375 17.40625 C 186.68358 16.398482 187.21873 15.171921 187.21875 13.71875 C 187.21873 12.265674 186.68358 11.039113 185.59375 10.03125 C 184.50389 9.0234897 183.21874 8.5000527 181.71875 8.5 z M -139.46875 9.21875 C -140.82816 9.218802 -144.45315 13.648485 -150.3125 22.53125 C -154.39064 28.718782 -158.07814 34.703151 -161.40625 40.46875 C -163.58595 41.101583 -164.75001 41.968769 -164.84375 43.09375 C -164.89063 43.72658 -164.73438 44.429704 -164.40625 45.15625 C -167.82813 52.070322 -169.53125 56.117193 -169.53125 57.3125 C -169.53125 58.671878 -169.03125 59.777345 -168 60.65625 C -166.96876 61.535156 -165.78907 61.968749 -164.5 61.96875 C -162.67189 61.968749 -161.25001 61.125 -160.21875 59.4375 C -157.54689 54.257819 -155.67189 50.390636 -154.59375 47.8125 C -152.62502 47.460951 -149.7969 47.164077 -146.09375 46.90625 C -142.15628 46.648452 -139.32816 46.382827 -137.59375 46.125 C -136.70316 49.734386 -135.61722 52.921883 -134.375 55.6875 C -132.50004 59.976564 -130.63285 62.148437 -128.78125 62.21875 C -127.49223 62.265624 -126.36333 61.851562 -125.34375 60.9375 C -124.32427 60.023439 -123.81255 58.890627 -123.8125 57.53125 C -123.81255 56.523442 -124.2188 54.984381 -125.0625 52.96875 C -126.0938 50.531261 -126.71098 49.000012 -126.875 48.34375 C -128.93754 39.648459 -130.6641 31.937529 -132.09375 25.1875 C -133.1016 20.171916 -133.84379 16.382857 -134.3125 13.875 C -135.17973 10.757863 -136.89066 9.218802 -139.46875 9.21875 z M 287 23.65625 C 281.02342 23.656288 276.55467 24.13285 273.625 25.09375 C 268.63281 26.734409 266.15625 29.914094 266.15625 34.625 C 266.15625 37.953148 267.78906 40.773458 271.09375 43.09375 C 272.45312 44.031267 275.54686 45.585953 280.375 47.71875 C 283.67967 49.171887 285.34373 50.492198 285.34375 51.6875 C 285.32029 53.609383 282.94529 54.562507 278.1875 54.5625 C 277.08592 54.562507 275.5078 54.210944 273.46875 53.53125 C 271.42968 52.851571 269.85937 52.531259 268.78125 52.53125 C 265.99218 52.531259 264.59375 53.687507 264.59375 56.03125 C 264.59375 58.58594 266.35937 60.531251 269.875 61.84375 C 272.45312 62.804686 275.28905 63.281248 278.40625 63.28125 C 282.81248 63.281248 286.53904 62.445311 289.5625 60.78125 C 293.31247 58.695315 295.18747 55.656256 295.1875 51.625 C 295.18747 48.531263 293.49216 45.742203 290.09375 43.28125 C 288.4531 42.085957 285.29685 40.414083 280.65625 38.28125 C 277.2578 36.734399 275.56249 35.507838 275.5625 34.59375 C 275.56249 33.046903 278.3828 32.281279 284.03125 32.28125 C 285.0156 32.281279 285.99998 32.367216 286.9375 32.53125 C 287.40623 34.476589 288.80466 35.437526 291.125 35.4375 C 293.39841 35.437526 294.53122 33.343778 294.53125 29.125 C 294.53122 26.921909 293.73434 25.382848 292.1875 24.5625 C 291.06247 23.953162 289.34372 23.656288 287 23.65625 z M 126.96875 24.125 C 121.90623 24.125037 117.30467 25.656286 113.15625 28.75 C 112.66405 26.07816 111.10155 24.750036 108.5 24.75 C 107.04687 24.750036 105.9414 25.18363 105.15625 26.0625 C 104.37109 26.94144 103.96875 28.031283 103.96875 29.34375 C 103.96875 30.070344 103.95312 31.152374 103.90625 32.59375 C 103.85937 34.035183 103.84375 35.148464 103.84375 35.875 L 103.84375 58.875 C 103.84375 60.187501 104.21875 61.28125 104.96875 62.125 C 105.76562 63.062498 106.89062 63.531248 108.34375 63.53125 C 109.74999 63.531248 110.89843 63.097654 111.8125 62.21875 C 112.72655 61.339844 113.18749 60.210938 113.1875 58.875 L 113.15625 41.21875 C 115.42967 36.648462 119.19529 33.937527 124.46875 33.09375 L 124.65625 36.625 C 124.65623 39.671896 126.10935 41.21877 129.0625 41.21875 C 132.10934 41.21877 133.75778 39.398459 133.96875 35.8125 C 133.99215 35.437526 133.99997 34.664089 134 33.46875 C 133.99997 27.234409 131.65622 24.125037 126.96875 24.125 z M 161.5625 24.125 C 156.49998 24.125037 151.89842 25.656286 147.75 28.75 C 147.2578 26.07816 145.6953 24.750036 143.09375 24.75 C 141.64062 24.750036 140.53515 25.18363 139.75 26.0625 C 138.96484 26.94144 138.5625 28.031283 138.5625 29.34375 C 138.5625 30.070344 138.54687 31.152374 138.5 32.59375 C 138.45312 34.035183 138.4375 35.148464 138.4375 35.875 L 138.4375 58.875 C 138.4375 60.187501 138.8125 61.28125 139.5625 62.125 C 140.35937 63.062498 141.48437 63.531248 142.9375 63.53125 C 144.34374 63.531248 145.49218 63.097654 146.40625 62.21875 C 147.3203 61.339844 147.78124 60.210938 147.78125 58.875 L 147.75 41.21875 C 150.02342 36.648462 153.78904 33.937527 159.0625 33.09375 L 159.25 36.625 C 159.24998 39.671896 160.7031 41.21877 163.65625 41.21875 C 166.70309 41.21877 168.35153 39.398459 168.5625 35.8125 C 168.5859 35.437526 168.59372 34.664089 168.59375 33.46875 C 168.59372 27.234409 166.24997 24.125037 161.5625 24.125 z M 254.21875 24.125 C 249.15623 24.125037 244.55467 25.656286 240.40625 28.75 C 239.91405 26.07816 238.3828 24.750036 235.78125 24.75 C 234.32812 24.750036 233.1914 25.18363 232.40625 26.0625 C 231.62109 26.94144 231.25 28.031283 231.25 29.34375 C 231.25 30.070344 231.20312 31.152374 231.15625 32.59375 C 231.10937 34.035183 231.09375 35.148464 231.09375 35.875 L 231.09375 58.875 C 231.09375 60.187501 231.46875 61.28125 232.21875 62.125 C 233.01562 63.062498 234.14062 63.531248 235.59375 63.53125 C 236.99999 63.531248 238.17968 63.097654 239.09375 62.21875 C 240.0078 61.339844 240.43749 60.210938 240.4375 58.875 L 240.40625 41.21875 C 242.67967 36.648462 246.47654 33.937527 251.75 33.09375 L 251.90625 36.625 C 251.90623 39.671896 253.3906 41.21877 256.34375 41.21875 C 259.39059 41.21877 261.00778 39.398459 261.21875 35.8125 C 261.24215 35.437526 261.24997 34.664089 261.25 33.46875 C 261.24997 27.234409 258.90622 24.125037 254.21875 24.125 z M 180.53125 24.34375 C 179.12499 24.343787 177.97655 24.77738 177.0625 25.65625 C 176.14843 26.535191 175.68749 27.640659 175.6875 29 C 175.68749 31.085968 175.57812 33.703152 175.34375 36.84375 C 175.10937 39.984396 175 42.601581 175 44.6875 C 175 46.023453 175.04296 48.171888 175.125 51.125 C 175.20703 54.078132 175.24999 56.226567 175.25 57.5625 C 175.24999 58.921877 175.67968 60.027345 176.59375 60.90625 C 177.50781 61.785156 178.68749 62.218749 180.09375 62.21875 C 181.49999 62.218749 182.64842 61.785156 183.5625 60.90625 C 184.47655 60.027345 184.93749 58.921877 184.9375 57.5625 C 184.93749 56.226567 184.89452 54.078132 184.8125 51.125 C 184.73045 48.171888 184.68749 46.023453 184.6875 44.6875 C 184.68749 42.601581 184.79686 39.984396 185.03125 36.84375 C 185.26561 33.703152 185.40623 31.085968 185.40625 29 C 185.40623 27.640659 184.9453 26.535191 184.03125 25.65625 C 183.11717 24.77738 181.93749 24.343787 180.53125 24.34375 z M 84.03125 24.46875 C 78.218733 24.468787 73.234363 26.480503 69.0625 30.5 C 64.890621 34.519558 62.812498 39.351584 62.8125 45 C 62.812498 51.023448 64.207028 55.539068 67.03125 58.5625 C 69.85546 61.585937 74.101549 63.093748 79.75 63.09375 C 80.898417 63.093748 82.296854 62.839842 83.9375 62.3125 C 85.5781 61.785156 87.468723 61 89.625 59.96875 C 91.968719 62.312499 93.671842 63.499998 94.75 63.5 C 95.992152 63.499998 97.113245 63.070311 98.0625 62.25 C 99.011681 61.429687 99.468711 60.398438 99.46875 59.15625 C 99.468711 58.875002 99.007774 57.734378 98.09375 55.71875 C 97.085901 53.492195 96.570277 52.273446 96.5 52.0625 C 95.867152 50.093761 95.531215 46.882827 95.53125 42.40625 C 95.531215 40.507833 95.589809 38.855491 95.71875 37.4375 C 95.847621 36.019556 96.04684 34.843776 96.28125 33.90625 C 96.820277 33.273465 97.093714 32.531279 97.09375 31.6875 C 97.093714 29.671907 95.320278 27.898471 91.78125 26.375 C 88.851534 25.109411 86.257787 24.468787 84.03125 24.46875 z M 211 24.71875 C 204.64842 24.718786 199.68749 27.093784 196.125 31.875 C 193.125 35.929713 191.71094 40.570333 191.875 45.75 C 192.03906 51.18751 193.82812 55.523443 197.25 58.78125 C 200.36718 61.757812 204.10155 63.249998 208.4375 63.25 C 213.92185 63.249998 218.27341 61.101563 221.53125 56.8125 C 224.43747 52.968758 225.90621 48.343763 225.90625 42.90625 C 225.90621 37.914086 224.64059 33.718777 222.15625 30.34375 C 219.3906 26.593785 215.68747 24.718786 211 24.71875 z M -141.90625 26.15625 C -140.92191 31.03128 -140.15628 34.984401 -139.59375 38.03125 C -140.27347 38.125023 -141.90628 38.27346 -144.53125 38.4375 C -146.75784 38.578148 -148.41409 38.765647 -149.46875 39 C -146.25784 33.585965 -143.7344 29.296907 -141.90625 26.15625 z M 84.5 32.875 C 84.757789 32.875028 85.074195 32.925809 85.4375 33.03125 C 85.800756 33.136747 86.218725 33.296903 86.6875 33.53125 C 86.476537 34.726589 86.324193 35.808619 86.21875 36.78125 C 86.113256 37.75393 86.031225 38.625023 86.03125 39.375 C 86.031225 42.140644 86.390599 46.32814 87.09375 51.90625 C 85.945287 52.843758 84.738257 53.550789 83.4375 54.03125 C 82.136697 54.511725 80.734355 54.750006 79.28125 54.75 C 77.031234 54.750006 75.343735 53.957038 74.21875 52.375 C 73.093738 50.792979 72.531238 48.421888 72.53125 45.28125 C 72.531238 42.000019 73.734362 39.121116 76.125 36.625 C 78.515607 34.128933 81.31248 32.875028 84.5 32.875 z M 210.53125 34 C 214.79685 34.023465 216.77341 37.796898 216.46875 45.34375 C 216.35154 48.109388 215.42966 50.320323 213.71875 51.9375 C 212.21873 53.32032 210.47654 54.000007 208.4375 54 C 206.74998 54.000007 205.26561 53.41407 204 52.21875 C 202.40624 50.71876 201.59374 48.562513 201.59375 45.75 C 201.59374 42.773456 202.31249 40.164084 203.71875 37.9375 C 205.3828 35.289088 207.64842 33.97659 210.53125 34 z "
       xlink:href="#text3205"
       style="font-size:72px;font-style:normal;font-variant:normal;font-weight:bold;font-stretch:normal;line-height:125%;letter-spacing:0px;word-spacing:0px;fill:#ffffff;fill-opacity:1;stroke:none;font-family:Comic Sans MS;-inkscape-font-specification:Comic Sans MS Bold"
       id="path3209"
       inkscape:href="#text3205"
       d="m -217.625,-6.1875 c -3.4111,1.37e-4 -7.27942,1.2880443 -10.3125,3.40625 -3.79704,-1.302501 -7.24846,-1.4999715 -11.03125,-1.5 -2.09821,6.13e-5 -4.82198,0.062087 -8.4375,0.15625 -3.50405,0.091361 -6.1239,0.1250482 -7.78125,0.125 -1.02243,3.32e-5 -3.3551,-0.1192654 -6.46875,-0.3125 -3.38502,-0.209963 -5.95282,-0.2811828 -8,-0.28125 -3.80703,4.25e-5 -8.01896,0.3566047 -12.46875,3.34375 -4.44979,2.9871453 -7.40625,9.4129389 -7.40625,14.1875 0,4.580177 2.44921,10.240083 6.21875,13.375 l 0,0.03125 c 0.005,0.0044 0.0259,-0.0044 0.0312,0 2.50412,2.069563 5.6491,3.335479 8.65625,3.84375 -2.25025,2.990773 -4.51211,5.980473 -6.75,8.96875 -0.0399,0.05324 -0.0851,0.103008 -0.125,0.15625 -2.12735,2.742364 -3.24513,4.134668 -4.46875,6.03125 a 12.729195,12.729195 0 0 0 -0.0625,0.0625 c -2.21099,3.474427 -4.1875,7.424279 -4.1875,12.84375 0,4.56084 2.5087,10.385917 6.5,13.53125 l 0,0.03125 c 0.0297,0.02337 0.0639,0.03937 0.0937,0.0625 0.0114,0.0089 0.0198,0.02243 0.0312,0.03125 3.45281,2.657545 7.88769,3.781245 11.5,3.78125 3.81369,-2e-6 9.20664,-0.104691 16.375,-0.28125 7.06884,-0.174112 12.333,-0.250001 15.71875,-0.25 0.14319,0 1.03849,0.05001 2.28125,0.125 1.476,0.08907 2.62767,0.124996 3.84375,0.125 1.8951,-3e-6 3.96408,-0.305052 5.96875,-0.96875 2.7179,1.479276 5.82189,2.374994 8.625,2.375 4.1878,-9e-6 9.14802,-1.884637 12.28125,-4.9375 3.03272,-2.955002 5.21872,-8.051845 5.21875,-12.375 -1e-5,-1.218062 0.10292,-3.282053 0.21875,-5.3125 0.85342,-0.157087 1.7096,-0.312784 2.5625,-0.46875 0.0626,1.678397 0.15623,3.699257 0.15625,4.46875 -1.4e-4,4.565698 2.51114,9.906262 5.84375,12.8125 3.22682,2.814203 7.92536,4.437494 11.96875,4.4375 2.91712,-4e-6 6.17856,-0.939263 8.96875,-2.53125 2.39689,1.095446 5.03598,1.781248 7.5625,1.78125 5.74442,-3e-6 12.3949,-4.106467 15.15625,-8.625 a 12.729195,12.729195 0 0 0 0.4375,-0.78125 c 1.15431,-2.237748 1.6729,-3.47083 2.5625,-5.28125 0.10855,0.252645 0.20113,0.531849 0.3125,0.78125 0.0169,0.03789 0.0143,0.08718 0.0312,0.125 l 0.0312,0 c 1.22614,2.791269 2.53748,5.325365 4.75,7.90625 2.24688,2.620961 6.23932,5.907429 11.96875,6.125 4.27898,0.155601 9.33223,-1.775361 12.40625,-4.53125 0.77559,-0.695391 1.49795,-1.52745 2.15625,-2.4375 0.98824,1.494156 2.11683,2.896217 3.4375,3.9375 A 12.729195,12.729195 0 0 0 -111.15625,72 c 3.54083,2.729436 8.11183,3.937495 12.03125,3.9375 3.748911,-6e-6 7.846571,-1.250034 10.9375,-3.375 a 12.729195,12.729195 0 0 0 0.15625,-0.125 c 0.717281,-0.508627 1.367111,-1.209923 2.03125,-1.90625 1.107303,1.38416 2.292219,2.643855 3.5625,3.5 0.01898,0.01279 0.04345,0.01852 0.0625,0.03125 3.08468,2.06063 7.041914,3.218742 10.6875,3.21875 5.977501,-8e-6 13.147458,-4.29136 16.03125,-9.34375 l 0.03125,0 c 0.0038,-0.0067 -0.0038,-0.02453 0,-0.03125 1.29123,-2.263291 2.384717,-4.706451 3.5,-7.5625 1.132381,-2.903134 3.243588,-7.839272 6.1875,-14.46875 a 12.729195,12.729195 0 0 0 0.03125,-0.03125 c 2.957817,-6.702916 5.109936,-11.847817 6.5625,-15.59375 a 12.729195,12.729195 0 0 0 0.1875,-0.5625 c 0.831866,-2.495758 1.422108,-4.321126 1.90625,-5.9375 0.430964,-1.117412 0.846855,-2.141769 1.125,-2.8125 a 12.729195,12.729195 0 0 0 0.0625,-0.125 c 0.459015,-1.141053 0.831572,-2.121372 1.1875,-3.1875 0.355928,-1.066128 0.968164,-1.395706 0.96875,-5.34375 -2.25e-4,-4.2588629 -1.991471,-9.4857079 -5.40625,-12.6875 -3.351667,-3.1417596 -8.27837,-4.7498499 -12.28125,-4.75 -5.622401,1.607e-4 -12.020527,3.6548236 -15,8 a 12.729195,12.729195 0 0 0 -0.03125,0.0625 c -0.348065,0.5141728 -0.54226,1.0435371 -0.84375,1.5625 -3.237949,-4.51945352 -9.132518,-8.6873675 -14.90625,-8.6875 -5.706016,1.234e-4 -10.271533,3.1160785 -12.9375,5.96875 -0.82008,0.8775118 -1.410103,1.7806654 -2.0625,2.6875 -0.363198,-0.6433315 -0.598448,-1.2243825 -1.125,-1.96875 -0.0203,-0.028862 -0.0419,-0.064966 -0.0625,-0.09375 -3.00991,-4.205372 -9.27634,-7.56234 -14.59375,-7.5625 -3.65344,1.441e-4 -7.9831,1.2700235 -11.1875,3.71875 -0.0113,0.00859 -0.02,0.022615 -0.0312,0.03125 -0.0294,0.022574 -0.0646,0.039728 -0.0937,0.0625 l 0,0.03125 c -0.99511,0.77962553 -1.90083,1.75076821 -2.71875,2.84375 -0.18849,-0.1858664 -0.33027,-0.3811849 -0.53125,-0.5625 -3.21565,-2.9010422 -7.92825,-4.4374229 -11.75,-4.4375 -7.25203,2.774e-4 -8.42226,2.71049125 -9.90625,4.03125 -1.48399,1.3207588 -2.53415,2.5544686 -3.6875,3.96875 -2.30669,2.8285629 -4.81649,6.394553 -7.875,11.03125 -0.88522,1.343093 -1.55549,2.580475 -2.40625,3.90625 0.0607,-0.841397 0.12493,-1.7044 0.125,-2.5625 1e-5,0.201461 0.0129,-0.228523 0.25,-1.09375 a 12.729195,12.729195 0 0 0 0.0312,-0.09375 c 0.28698,-1.076609 0.56224,-2.485089 0.5625,-4.34375 -1.8e-4,-4.7100219 -2.70104,-10.1150876 -5.96875,-12.9375 a 12.729195,12.729195 0 0 0 -0.0625,-0.0625 c -2.86691,-2.4470632 -7.35416,-4.2810671 -11.53125,-4.28125 -4.55658,1.49e-4 -8.81667,2.317946 -11.25,4.6875 -2.43333,2.369554 -3.73851,4.7347852 -4.8125,7.09375 a 12.729195,12.729195 0 0 0 0,0.0625 c -1.5125,3.3610469 -2.66313,6.901324 -2.78125,11.03125 -6.2e-4,0.02175 5.7e-4,0.04072 0,0.0625 -0.026,0.845744 -0.0376,0.76328 -0.0625,1.53125 -0.48361,0.07397 -0.94415,0.138125 -1.4375,0.21875 0.10503,-3.104001 0.15623,-5.753219 0.15625,-7.59375 -7e-5,-4.3231011 -2.07969,-9.3474532 -5.21875,-12.40625 -3.13315,-3.0525672 -8.09372,-4.9373318 -12.28125,-4.9375 z m 210.5,1 c -3.653442,1.441e-4 -7.983121,1.2700472 -11.1875,3.71875 -0.01128,0.00859 -0.01998,0.022615 -0.03125,0.03125 -0.02937,0.022574 -0.06457,0.039728 -0.09375,0.0625 l 0,0.03125 c -3.788847,2.9683907 -6.500007,8.6926309 -6.5,13.34375 -7e-6,2.033771 0.371175,4.143565 1.03125,6 0.0074,0.02091 0.02374,0.04165 0.03125,0.0625 3.505936,9.910376 5.970037,17.408512 7.375,22.40625 0.0059,0.02094 0.0254,0.0729 0.03125,0.09375 1.721436,7.119121 2.959721,12.497157 3.6875,15.9375 a 12.729195,12.729195 0 0 0 0.15625,0.65625 l 1.09375,4.09375 c 0.876623,3.9964 3.1560866,8.167572 6.3125,10.65625 A 12.729195,12.729195 0 0 0 -5.125,72 c 3.5408306,2.729429 8.1118308,3.937495 12.03125,3.9375 3.748911,-6e-6 7.846573,-1.250036 10.9375,-3.375 A 12.729195,12.729195 0 0 0 18,72.4375 c 0.717281,-0.508627 1.367111,-1.209923 2.03125,-1.90625 1.107303,1.38416 2.292219,2.643855 3.5625,3.5 0.01898,0.01279 0.04345,0.01852 0.0625,0.03125 3.08468,2.06063 7.041914,3.218742 10.6875,3.21875 5.977501,-8e-6 13.147458,-4.29136 16.03125,-9.34375 l 0.03125,0 c 0.0038,-0.0067 -0.0038,-0.02453 0,-0.03125 1.169817,-2.050475 2.177425,-4.323901 3.1875,-6.84375 1.094226,2.194493 2.372968,4.311886 4.125,6.1875 5.727339,6.131361 14.11772,8.562497 22.03125,8.5625 2.975742,-5e-6 5.494627,-0.556047 7.96875,-1.34375 1.603612,0.929568 3.562433,1.749994 7.03125,1.75 2.281091,-4e-6 4.620064,-0.543662 6.78125,-1.4375 2.31609,0.973825 4.73686,1.468747 6.8125,1.46875 4.02255,-6e-6 9.03532,-1.722698 12.28125,-4.84375 3.04946,-2.932213 4.91453,-7.489183 5.1875,-11.53125 0.20863,3.456308 1.49767,7.427758 4.09375,10.46875 L 129.875,70.375 c 0.0286,0.03365 0.0648,0.06038 0.0937,0.09375 0.0344,0.03955 0.0589,0.0858 0.0937,0.125 l 0.0312,-0.03125 c 3.2934,3.705869 8.73319,5.687494 12.84375,5.6875 4.02255,-6e-6 9.03532,-1.722698 12.28125,-4.84375 3.29812,-3.171311 5.28122,-8.267681 5.28125,-12.53125 a 12.729195,12.729195 0 0 0 0,-0.03125 l 0,-5.1875 c 0.69383,0.122132 1.32411,0.144784 1.96875,0.1875 0.0298,1.372861 0.0625,3.069992 0.0625,3.71875 -3e-5,4.041569 1.92882,9.337835 5.25,12.53125 3.3504,3.221542 8.28997,4.843747 12.3125,4.84375 3.79232,-3e-6 8.41304,-1.582308 11.65625,-4.375 4.86341,3.401735 10.81538,5.406247 16.6875,5.40625 5.30213,-2e-6 10.6244,-1.747717 15.25,-4.5625 3.33005,3.119279 8.14488,4.843745 11.90625,4.84375 4.02255,-6e-6 8.9621,-1.622243 12.3125,-4.84375 2.70884,-2.604685 4.37873,-6.407733 4.96875,-9.90625 0.81364,2.425843 2.04679,4.731314 3.625,6.46875 2.75214,3.0298 5.90347,4.679799 8.9375,5.8125 4.14992,1.546789 8.55431,2.218747 12.96875,2.21875 6.01603,-3e-6 11.96483,-1.136434 17.28125,-4.0625 a 12.729195,12.729195 0 0 0 0.0625,-0.03125 c 6.76436,-3.762701 12.15619,-12.303405 12.15625,-20.28125 -4e-5,-4.061134 -1.37006,-7.880092 -3.4375,-11.1875 0.11256,-0.179643 0.30886,-0.350892 0.40625,-0.53125 2.25743,-4.180715 2.37498,-7.532658 2.375,-10.78125 -7e-5,-5.24198 -3.29119,-12.657538 -9,-15.75 -0.009,-0.005 -0.0221,0.0049 -0.0312,0 -0.0258,-0.01389 -0.0366,-0.04878 -0.0625,-0.0625 -4.32583,-2.314071 -7.7656,-2.374945 -11.15625,-2.375 -6.65314,4.2e-5 -11.95629,0.295472 -17.34375,2.0625 -1.43233,0.47073 -2.84705,1.261363 -4.25,2 -3.4819,-2.308638 -7.65832,-3.593722 -11.1875,-3.59375 -3.9583,2.9e-5 -7.90114,0.695387 -11.65625,2 -2.33843,-0.929044 -4.73877,-1.374972 -6.78125,-1.375 -3.38379,8.4e-5 -7.74774,1.290083 -11.125,4.03125 C 220.47776,13.567697 215.69845,12.000036 211,12 c -3.7742,2.1e-5 -7.53063,0.902776 -11.125,2.25 0.007,-0.174284 0.0625,-0.359022 0.0625,-0.53125 -6e-5,-4.5780022 -2.34334,-9.9386024 -5.6875,-13.03125 -3.13882,-2.9023669 -8.07049,-4.9060933 -12.53125,-4.90625 -4.46074,1.567e-4 -9.32499,1.9390749 -12.5,4.84375 a 12.729195,12.729195 0 0 0 0,0.03125 c -2.84881,2.6064748 -4.95341,6.8730646 -5.53125,11 -0.71025,-0.08653 -1.4554,-0.249995 -2.125,-0.25 -3.94879,2.9e-5 -7.87792,0.70147 -11.625,2 -2.35209,-0.940659 -4.77957,-1.374971 -6.84375,-1.375 -2.15289,5.3e-5 -4.72842,0.57941 -7.1875,1.65625 -2.9558,-1.464501 -6.14132,-2.281228 -8.9375,-2.28125 -3.94879,2.9e-5 -7.87792,0.70147 -11.625,2 -2.35209,-0.940659 -4.77957,-1.374971 -6.84375,-1.375 -3.09914,7.7e-5 -7.07243,1.123183 -10.28125,3.375 -0.461848,-0.219641 -0.909769,-0.518197 -1.375,-0.71875 -0.0091,-0.0039 -0.02217,0.0039 -0.03125,0 -3.996325,-1.723799 -8.12406,-2.937423 -12.78125,-2.9375 -4.113935,2.6e-5 -8.20179,0.823748 -12.0625,2.28125 0.056,-0.582083 0.156113,-0.828989 0.15625,-1.75 -2.25e-4,-4.2588629 -1.991471,-9.4857079 -5.40625,-12.6875 -3.351667,-3.1417596 -8.27837,-4.7498499 -12.28125,-4.75 -5.622401,1.607e-4 -12.020527,3.6548236 -15,8 a 12.729195,12.729195 0 0 0 -0.03125,0.0625 C 39.058185,3.4204228 38.86399,3.9497871 38.5625,4.46875 35.324551,-0.05070352 29.429982,-4.2186175 23.65625,-4.21875 17.950234,-4.2186266 13.384717,-1.1026715 10.71875,1.75 9.8986704,2.6275118 9.3086467,3.5306654 8.65625,4.4375 8.2930568,3.7941745 8.0577921,3.2131087 7.53125,2.46875 7.5109552,2.4398875 7.4893519,2.4037845 7.46875,2.375 4.4588371,-1.8303847 -1.8075932,-5.18734 -7.125,-5.1875 z m -228.4375,42.71875 c -4.3e-4,0.174451 0,0.551561 0,0.71875 0,0.448402 -0.13345,1.837456 -0.15625,2.5 -0.77164,-0.02318 -1.65035,-0.03463 -2.5,-0.03125 0.88601,-1.053066 1.86421,-2.321628 2.65625,-3.1875 z m 444,3.75 c 1.25875,-5e-6 3.47594,0.897397 4.3125,1.6875 0.66367,0.640446 1.0515,1.434011 1.28125,2.03125 -0.0803,0.05697 -0.22277,0.140048 -0.34375,0.21875 -0.89421,0.58172 -2.42163,1.490259 -3.21875,1.5 -0.55977,-0.0031 -1.57315,-0.53864 -2.5,-1 l -0.65625,-0.75 -0.0312,0 -2.1875,-2.375 c 0.58283,-0.537292 2.55431,-1.312503 3.34375,-1.3125 z m -3.46875,1.40625 2.15625,2.25 -0.625,0 0.625,0.03125 0.625,0.65625 c -0.50276,-0.261924 -0.76565,-0.368741 -1.25,-0.6875 l -0.0312,0 c -0.82702,-0.546257 -1.41541,-1.102853 -1.875,-1.625 0.17194,-0.303756 0.12541,-0.389086 0.375,-0.625 z M 81.9375,43 c 0.193295,0.09888 0.308639,0.263961 0.5,0.375 0.792249,0.459708 1.598971,0.950502 2.0625,1.5625 0.02015,0.0266 0.07469,0.0357 0.09375,0.0625 0.200581,0.282062 0.135838,0.270642 0.25,0.46875 -0.131159,0.05826 -0.302922,0.125 -0.34375,0.125 -1.412567,-1.53e-4 -2.139104,-0.20273 -2.625,-0.34375 -0.157085,-0.04562 -0.192621,-0.08118 -0.3125,-0.125 L 81.15625,44.625 81.9375,43 z" />
    <path
       sodipodi:type="inkscape:offset"
       inkscape:radius="5.6568542"
       inkscape:original="M -217.625 6.53125 C -218.98438 6.5313046 -220.1172 6.9844292 -221.03125 7.875 C -221.94532 8.7656774 -222.40626 9.8672388 -222.40625 11.15625 C -222.40626 14.156297 -222.48438 18.652386 -222.625 24.6875 C -222.76563 30.722687 -222.84376 35.250026 -222.84375 38.25 C -222.84376 40.617208 -223.02735 44.16408 -223.4375 48.875 C -223.84766 53.585945 -224.0625 57.132817 -224.0625 59.5 C -224.0625 60.789063 -223.60157 61.859374 -222.6875 62.75 C -221.77344 63.640623 -220.64063 64.093747 -219.28125 64.09375 C -217.92189 64.093747 -216.78907 63.640623 -215.875 62.75 C -214.96095 61.859374 -214.50001 60.789063 -214.5 59.5 C -214.50001 57.414066 -214.39064 54.718756 -214.15625 51.4375 C -213.87501 47.710951 -213.70314 45.062516 -213.65625 43.46875 C -209.15627 42.625019 -204.65627 41.789082 -200.15625 40.96875 C -194.74222 39.984396 -190.21098 39.414084 -186.53125 39.25 C -186.57817 40.281271 -186.59379 41.445332 -186.59375 42.78125 C -186.59379 44.492204 -186.52739 47.078139 -186.375 50.5 C -186.2227 53.921882 -186.12504 56.476567 -186.125 58.1875 C -186.12504 59.453127 -185.63285 60.527344 -184.625 61.40625 C -183.61723 62.285155 -182.41411 62.718748 -181.03125 62.71875 C -179.67192 62.718748 -178.53911 62.265624 -177.625 61.375 C -176.71099 60.484376 -176.25005 59.414064 -176.25 58.125 C -176.25005 56.414067 -176.39849 53.835945 -176.65625 50.4375 C -176.91411 47.039077 -177.0313 44.492204 -177.03125 42.78125 C -177.0313 40.554708 -176.92193 37.257836 -176.6875 32.875 C -176.45318 28.49222 -176.31255 25.195348 -176.3125 22.96875 C -176.31255 22.312539 -176.25396 21.277384 -176.125 19.90625 C -175.99615 18.535199 -175.93755 17.531294 -175.9375 16.875 C -175.93755 15.609421 -175.7188 14.117235 -175.25 12.40625 C -175.1563 12.054737 -175.0938 11.695362 -175.09375 11.34375 C -175.0938 10.007864 -175.62505 8.9219273 -176.65625 8.03125 C -177.61724 7.2109915 -178.69536 6.7813044 -179.9375 6.78125 C -181.60161 6.7813044 -183.09379 8.2422404 -184.40625 11.125 C -185.46098 13.468798 -186.01567 15.539108 -186.0625 17.34375 C -186.27348 24.210974 -186.43754 28.42972 -186.53125 30 C -190.3516 30.140656 -194.88285 30.656281 -200.15625 31.59375 L -213.65625 34.125 C -213.6797 33.304715 -213.64064 32.140654 -213.5 30.59375 C -213.33595 28.92972 -213.25001 27.804721 -213.25 27.21875 C -213.25001 25.437536 -213.16017 22.761757 -213.03125 19.1875 C -212.90236 15.613327 -212.84377 12.937548 -212.84375 11.15625 C -212.84377 9.8672388 -213.3047 8.7656774 -214.21875 7.875 C -215.13283 6.9844292 -216.26564 6.5313046 -217.625 6.53125 z M -113.15625 7.53125 C -114.51563 7.5313036 -115.66407 7.9063033 -116.625 8.65625 C -117.70313 9.4766142 -118.25 10.593801 -118.25 12 C -118.25 12.585986 -118.14844 13.164111 -117.9375 13.75 C -114.30469 24.015662 -111.70313 31.914092 -110.15625 37.46875 C -108.39845 44.734391 -107.14845 50.218761 -106.375 53.875 L -105.28125 57.96875 C -105.23439 59.632814 -104.59377 60.945313 -103.375 61.90625 C -102.25002 62.773436 -100.83596 63.218748 -99.125 63.21875 C -97.765647 63.218748 -96.531273 62.835936 -95.40625 62.0625 C -94.117213 61.148438 -93.468777 59.953126 -93.46875 58.5 C -93.468777 57.914066 -93.570339 57.359379 -93.78125 56.84375 C -92.960965 53.63282 -91.250029 49.218762 -88.625 43.59375 C -86.867221 39.843771 -85.210972 35.617213 -83.6875 30.90625 C -81.859413 40.960958 -80.43754 48.484388 -79.40625 53.5 C -79.125041 55.210943 -78.453167 57.429691 -77.375 60.125 C -77.281293 61.507812 -76.578168 62.624999 -75.3125 63.46875 C -74.234421 64.195309 -73.023484 64.562497 -71.6875 64.5625 C -69.437551 64.562497 -67.789115 63.57031 -66.6875 61.625 C -65.843804 60.148439 -64.929743 58.17969 -63.96875 55.71875 C -62.679745 52.414071 -60.539122 47.421889 -57.5625 40.71875 C -54.656315 34.13284 -52.554755 29.101595 -51.21875 25.65625 C -50.328195 22.984413 -49.679758 20.984415 -49.28125 19.625 C -48.742259 18.218793 -48.273509 17.023482 -47.875 16.0625 C -47.05476 14.023485 -46.625073 12.773486 -46.625 12.28125 C -46.625073 10.898488 -47.093823 9.7539577 -48.03125 8.875 C -48.968821 7.9961469 -50.164132 7.5625536 -51.59375 7.5625 C -53.468817 7.5625536 -54.968815 8.3906778 -56.09375 10.03125 C -57.125063 11.554737 -57.976625 13.625048 -58.65625 16.25 C -59.617248 19.906291 -60.242247 22.062539 -60.5 22.71875 C -64.695368 33.66409 -68.015677 42.031269 -70.5 47.84375 C -72.960985 37.203149 -74.445358 29.875031 -74.9375 25.84375 C -75.406295 22.093789 -75.703169 19.742229 -75.84375 18.78125 C -76.335981 15.640671 -76.859418 13.47661 -77.375 12.28125 C -78.429729 9.7734889 -80.078165 8.5000527 -82.375 8.5 C -84.812535 8.5000527 -87.218783 11.078175 -89.5625 16.1875 C -90.546904 18.320355 -91.835966 21.906289 -93.40625 26.96875 C -95.351587 33.179715 -97.250023 38.55471 -99.125 43.125 C -102.00783 30.468781 -104.60939 20.859415 -106.90625 14.25 C -107.65626 12.093799 -108.32032 10.601613 -108.90625 9.78125 C -109.96095 8.2813029 -111.37501 7.5313036 -113.15625 7.53125 z M -7.125 7.53125 C -8.4843805 7.5313036 -9.6328168 7.9063033 -10.59375 8.65625 C -11.671877 9.4766142 -12.218752 10.593801 -12.21875 12 C -12.218752 12.585986 -12.117189 13.164111 -11.90625 13.75 C -8.2734432 24.015662 -5.6718833 31.914092 -4.125 37.46875 C -2.3671991 44.734391 -1.1172004 50.218761 -0.34375 53.875 L 0.75 57.96875 C 0.79686022 59.632814 1.4374846 60.945313 2.65625 61.90625 C 3.7812322 62.773436 5.1952933 63.218748 6.90625 63.21875 C 8.2656028 63.218748 9.4999765 62.835936 10.625 62.0625 C 11.914037 61.148438 12.562473 59.953126 12.5625 58.5 C 12.562473 57.914066 12.460911 57.359379 12.25 56.84375 C 13.070285 53.63282 14.781221 49.218762 17.40625 43.59375 C 19.164029 39.843771 20.820278 35.617213 22.34375 30.90625 C 24.171837 40.960958 25.59371 48.484388 26.625 53.5 C 26.906209 55.210943 27.578083 57.429691 28.65625 60.125 C 28.749957 61.507812 29.453082 62.624999 30.71875 63.46875 C 31.796829 64.195309 33.007766 64.562497 34.34375 64.5625 C 36.593699 64.562497 38.242135 63.57031 39.34375 61.625 C 40.187446 60.148439 41.101507 58.17969 42.0625 55.71875 C 43.351505 52.414071 45.492128 47.421889 48.46875 40.71875 C 51.374935 34.13284 53.476495 29.101595 54.8125 25.65625 C 55.703055 22.984413 56.351492 20.984415 56.75 19.625 C 57.288991 18.218793 57.757741 17.023482 58.15625 16.0625 C 58.97649 14.023485 59.406177 12.773486 59.40625 12.28125 C 59.406177 10.898488 58.937427 9.7539577 58 8.875 C 57.062429 7.9961469 55.867118 7.5625536 54.4375 7.5625 C 52.562433 7.5625536 51.062435 8.3906778 49.9375 10.03125 C 48.906187 11.554737 48.054625 13.625048 47.375 16.25 C 46.414002 19.906291 45.789003 22.062539 45.53125 22.71875 C 41.335882 33.66409 38.015573 42.031269 35.53125 47.84375 C 33.070265 37.203149 31.585892 29.875031 31.09375 25.84375 C 30.624955 22.093789 30.328081 19.742229 30.1875 18.78125 C 29.695269 15.640671 29.171832 13.47661 28.65625 12.28125 C 27.601521 9.7734889 25.953085 8.5000527 23.65625 8.5 C 21.218715 8.5000527 18.812467 11.078175 16.46875 16.1875 C 15.484346 18.320355 14.195284 21.906289 12.625 26.96875 C 10.679663 33.179715 8.7812272 38.55471 6.90625 43.125 C 4.0234195 30.468781 1.4218596 20.859415 -0.875 14.25 C -1.6250124 12.093799 -2.2890742 10.601613 -2.875 9.78125 C -3.9296976 8.2813029 -5.3437586 7.5313036 -7.125 7.53125 z M -269.65625 8.125 C -274.41407 8.1250531 -276.8125 9.7266139 -276.8125 12.9375 C -276.8125 14.437547 -276.26563 15.640671 -275.1875 16.53125 C -274.22657 17.328169 -273.03907 17.718793 -271.65625 17.71875 C -271.39844 17.718793 -271.02344 17.69145 -270.53125 17.65625 C -270.03907 17.621137 -269.66407 17.625044 -269.40625 17.625 L -255.21875 17.625 C -253.2969 17.625044 -250.50003 17.476606 -246.84375 17.21875 C -250.85159 20.87504 -255.15627 25.656286 -259.75 31.5625 C -263.6172 36.671899 -267.46876 41.804707 -271.3125 46.9375 C -273.49219 49.750011 -274.8125 51.523447 -275.28125 52.25 C -276.75781 54.570319 -277.5 56.562505 -277.5 58.25 C -277.5 59.773439 -276.94531 60.96875 -275.84375 61.8125 C -274.85938 62.585936 -273.61719 62.968748 -272.09375 62.96875 C -268.53126 62.968748 -263.16798 62.86328 -256.03125 62.6875 C -248.89456 62.511717 -243.56253 62.437499 -240 62.4375 C -239.32035 62.437499 -238.29691 62.480467 -236.9375 62.5625 C -235.57817 62.64453 -234.55473 62.687498 -233.875 62.6875 C -232.49223 62.687498 -231.29692 62.304686 -230.3125 61.53125 C -229.16411 60.640626 -228.64849 59.421877 -228.71875 57.875 C -228.81255 55.789068 -230.25005 54.421882 -233.0625 53.8125 C -234.25786 53.554695 -236.52348 53.437508 -239.875 53.4375 C -242.92191 53.437508 -247.02347 53.546883 -252.15625 53.78125 C -258.69533 54.062507 -262.82033 54.234382 -264.53125 54.28125 L -264.40625 54.09375 C -260.25783 48.4922 -256.08596 42.921893 -251.9375 37.34375 C -246.52347 30.195343 -241.83597 25.148474 -237.875 22.21875 C -236.00004 20.976603 -234.41411 19.953166 -233.125 19.15625 C -230.0313 17.000044 -228.50005 14.945359 -228.5 13 C -228.50005 9.9531762 -231.98442 8.4375527 -238.96875 8.4375 C -240.77347 8.4375527 -243.46488 8.5000527 -247.0625 8.59375 C -250.66018 8.6875525 -253.38284 8.7188025 -255.1875 8.71875 C -256.80471 8.7188025 -259.22658 8.6055213 -262.4375 8.40625 C -265.64845 8.2070842 -268.03907 8.1250531 -269.65625 8.125 z M 181.71875 8.5 C 180.21874 8.5000527 178.91405 9.0234897 177.8125 10.03125 C 176.71093 11.039113 176.15624 12.265674 176.15625 13.71875 C 176.15624 15.171921 176.71093 16.398482 177.8125 17.40625 C 178.91405 18.414105 180.21874 18.906292 181.71875 18.90625 C 183.21874 18.906292 184.50389 18.414105 185.59375 17.40625 C 186.68358 16.398482 187.21873 15.171921 187.21875 13.71875 C 187.21873 12.265674 186.68358 11.039113 185.59375 10.03125 C 184.50389 9.0234897 183.21874 8.5000527 181.71875 8.5 z M -139.46875 9.21875 C -140.82816 9.218802 -144.45315 13.648485 -150.3125 22.53125 C -154.39064 28.718782 -158.07814 34.703151 -161.40625 40.46875 C -163.58595 41.101583 -164.75001 41.968769 -164.84375 43.09375 C -164.89063 43.72658 -164.73438 44.429704 -164.40625 45.15625 C -167.82813 52.070322 -169.53125 56.117193 -169.53125 57.3125 C -169.53125 58.671878 -169.03125 59.777345 -168 60.65625 C -166.96876 61.535156 -165.78907 61.968749 -164.5 61.96875 C -162.67189 61.968749 -161.25001 61.125 -160.21875 59.4375 C -157.54689 54.257819 -155.67189 50.390636 -154.59375 47.8125 C -152.62502 47.460951 -149.7969 47.164077 -146.09375 46.90625 C -142.15628 46.648452 -139.32816 46.382827 -137.59375 46.125 C -136.70316 49.734386 -135.61722 52.921883 -134.375 55.6875 C -132.50004 59.976564 -130.63285 62.148437 -128.78125 62.21875 C -127.49223 62.265624 -126.36333 61.851562 -125.34375 60.9375 C -124.32427 60.023439 -123.81255 58.890627 -123.8125 57.53125 C -123.81255 56.523442 -124.2188 54.984381 -125.0625 52.96875 C -126.0938 50.531261 -126.71098 49.000012 -126.875 48.34375 C -128.93754 39.648459 -130.6641 31.937529 -132.09375 25.1875 C -133.1016 20.171916 -133.84379 16.382857 -134.3125 13.875 C -135.17973 10.757863 -136.89066 9.218802 -139.46875 9.21875 z M 287 23.65625 C 281.02342 23.656288 276.55467 24.13285 273.625 25.09375 C 268.63281 26.734409 266.15625 29.914094 266.15625 34.625 C 266.15625 37.953148 267.78906 40.773458 271.09375 43.09375 C 272.45312 44.031267 275.54686 45.585953 280.375 47.71875 C 283.67967 49.171887 285.34373 50.492198 285.34375 51.6875 C 285.32029 53.609383 282.94529 54.562507 278.1875 54.5625 C 277.08592 54.562507 275.5078 54.210944 273.46875 53.53125 C 271.42968 52.851571 269.85937 52.531259 268.78125 52.53125 C 265.99218 52.531259 264.59375 53.687507 264.59375 56.03125 C 264.59375 58.58594 266.35937 60.531251 269.875 61.84375 C 272.45312 62.804686 275.28905 63.281248 278.40625 63.28125 C 282.81248 63.281248 286.53904 62.445311 289.5625 60.78125 C 293.31247 58.695315 295.18747 55.656256 295.1875 51.625 C 295.18747 48.531263 293.49216 45.742203 290.09375 43.28125 C 288.4531 42.085957 285.29685 40.414083 280.65625 38.28125 C 277.2578 36.734399 275.56249 35.507838 275.5625 34.59375 C 275.56249 33.046903 278.3828 32.281279 284.03125 32.28125 C 285.0156 32.281279 285.99998 32.367216 286.9375 32.53125 C 287.40623 34.476589 288.80466 35.437526 291.125 35.4375 C 293.39841 35.437526 294.53122 33.343778 294.53125 29.125 C 294.53122 26.921909 293.73434 25.382848 292.1875 24.5625 C 291.06247 23.953162 289.34372 23.656288 287 23.65625 z M 126.96875 24.125 C 121.90623 24.125037 117.30467 25.656286 113.15625 28.75 C 112.66405 26.07816 111.10155 24.750036 108.5 24.75 C 107.04687 24.750036 105.9414 25.18363 105.15625 26.0625 C 104.37109 26.94144 103.96875 28.031283 103.96875 29.34375 C 103.96875 30.070344 103.95312 31.152374 103.90625 32.59375 C 103.85937 34.035183 103.84375 35.148464 103.84375 35.875 L 103.84375 58.875 C 103.84375 60.187501 104.21875 61.28125 104.96875 62.125 C 105.76562 63.062498 106.89062 63.531248 108.34375 63.53125 C 109.74999 63.531248 110.89843 63.097654 111.8125 62.21875 C 112.72655 61.339844 113.18749 60.210938 113.1875 58.875 L 113.15625 41.21875 C 115.42967 36.648462 119.19529 33.937527 124.46875 33.09375 L 124.65625 36.625 C 124.65623 39.671896 126.10935 41.21877 129.0625 41.21875 C 132.10934 41.21877 133.75778 39.398459 133.96875 35.8125 C 133.99215 35.437526 133.99997 34.664089 134 33.46875 C 133.99997 27.234409 131.65622 24.125037 126.96875 24.125 z M 161.5625 24.125 C 156.49998 24.125037 151.89842 25.656286 147.75 28.75 C 147.2578 26.07816 145.6953 24.750036 143.09375 24.75 C 141.64062 24.750036 140.53515 25.18363 139.75 26.0625 C 138.96484 26.94144 138.5625 28.031283 138.5625 29.34375 C 138.5625 30.070344 138.54687 31.152374 138.5 32.59375 C 138.45312 34.035183 138.4375 35.148464 138.4375 35.875 L 138.4375 58.875 C 138.4375 60.187501 138.8125 61.28125 139.5625 62.125 C 140.35937 63.062498 141.48437 63.531248 142.9375 63.53125 C 144.34374 63.531248 145.49218 63.097654 146.40625 62.21875 C 147.3203 61.339844 147.78124 60.210938 147.78125 58.875 L 147.75 41.21875 C 150.02342 36.648462 153.78904 33.937527 159.0625 33.09375 L 159.25 36.625 C 159.24998 39.671896 160.7031 41.21877 163.65625 41.21875 C 166.70309 41.21877 168.35153 39.398459 168.5625 35.8125 C 168.5859 35.437526 168.59372 34.664089 168.59375 33.46875 C 168.59372 27.234409 166.24997 24.125037 161.5625 24.125 z M 254.21875 24.125 C 249.15623 24.125037 244.55467 25.656286 240.40625 28.75 C 239.91405 26.07816 238.3828 24.750036 235.78125 24.75 C 234.32812 24.750036 233.1914 25.18363 232.40625 26.0625 C 231.62109 26.94144 231.25 28.031283 231.25 29.34375 C 231.25 30.070344 231.20312 31.152374 231.15625 32.59375 C 231.10937 34.035183 231.09375 35.148464 231.09375 35.875 L 231.09375 58.875 C 231.09375 60.187501 231.46875 61.28125 232.21875 62.125 C 233.01562 63.062498 234.14062 63.531248 235.59375 63.53125 C 236.99999 63.531248 238.17968 63.097654 239.09375 62.21875 C 240.0078 61.339844 240.43749 60.210938 240.4375 58.875 L 240.40625 41.21875 C 242.67967 36.648462 246.47654 33.937527 251.75 33.09375 L 251.90625 36.625 C 251.90623 39.671896 253.3906 41.21877 256.34375 41.21875 C 259.39059 41.21877 261.00778 39.398459 261.21875 35.8125 C 261.24215 35.437526 261.24997 34.664089 261.25 33.46875 C 261.24997 27.234409 258.90622 24.125037 254.21875 24.125 z M 180.53125 24.34375 C 179.12499 24.343787 177.97655 24.77738 177.0625 25.65625 C 176.14843 26.535191 175.68749 27.640659 175.6875 29 C 175.68749 31.085968 175.57812 33.703152 175.34375 36.84375 C 175.10937 39.984396 175 42.601581 175 44.6875 C 175 46.023453 175.04296 48.171888 175.125 51.125 C 175.20703 54.078132 175.24999 56.226567 175.25 57.5625 C 175.24999 58.921877 175.67968 60.027345 176.59375 60.90625 C 177.50781 61.785156 178.68749 62.218749 180.09375 62.21875 C 181.49999 62.218749 182.64842 61.785156 183.5625 60.90625 C 184.47655 60.027345 184.93749 58.921877 184.9375 57.5625 C 184.93749 56.226567 184.89452 54.078132 184.8125 51.125 C 184.73045 48.171888 184.68749 46.023453 184.6875 44.6875 C 184.68749 42.601581 184.79686 39.984396 185.03125 36.84375 C 185.26561 33.703152 185.40623 31.085968 185.40625 29 C 185.40623 27.640659 184.9453 26.535191 184.03125 25.65625 C 183.11717 24.77738 181.93749 24.343787 180.53125 24.34375 z M 84.03125 24.46875 C 78.218733 24.468787 73.234363 26.480503 69.0625 30.5 C 64.890621 34.519558 62.812498 39.351584 62.8125 45 C 62.812498 51.023448 64.207028 55.539068 67.03125 58.5625 C 69.85546 61.585937 74.101549 63.093748 79.75 63.09375 C 80.898417 63.093748 82.296854 62.839842 83.9375 62.3125 C 85.5781 61.785156 87.468723 61 89.625 59.96875 C 91.968719 62.312499 93.671842 63.499998 94.75 63.5 C 95.992152 63.499998 97.113245 63.070311 98.0625 62.25 C 99.011681 61.429687 99.468711 60.398438 99.46875 59.15625 C 99.468711 58.875002 99.007774 57.734378 98.09375 55.71875 C 97.085901 53.492195 96.570277 52.273446 96.5 52.0625 C 95.867152 50.093761 95.531215 46.882827 95.53125 42.40625 C 95.531215 40.507833 95.589809 38.855491 95.71875 37.4375 C 95.847621 36.019556 96.04684 34.843776 96.28125 33.90625 C 96.820277 33.273465 97.093714 32.531279 97.09375 31.6875 C 97.093714 29.671907 95.320278 27.898471 91.78125 26.375 C 88.851534 25.109411 86.257787 24.468787 84.03125 24.46875 z M 211 24.71875 C 204.64842 24.718786 199.68749 27.093784 196.125 31.875 C 193.125 35.929713 191.71094 40.570333 191.875 45.75 C 192.03906 51.18751 193.82812 55.523443 197.25 58.78125 C 200.36718 61.757812 204.10155 63.249998 208.4375 63.25 C 213.92185 63.249998 218.27341 61.101563 221.53125 56.8125 C 224.43747 52.968758 225.90621 48.343763 225.90625 42.90625 C 225.90621 37.914086 224.64059 33.718777 222.15625 30.34375 C 219.3906 26.593785 215.68747 24.718786 211 24.71875 z M -141.90625 26.15625 C -140.92191 31.03128 -140.15628 34.984401 -139.59375 38.03125 C -140.27347 38.125023 -141.90628 38.27346 -144.53125 38.4375 C -146.75784 38.578148 -148.41409 38.765647 -149.46875 39 C -146.25784 33.585965 -143.7344 29.296907 -141.90625 26.15625 z M 84.5 32.875 C 84.757789 32.875028 85.074195 32.925809 85.4375 33.03125 C 85.800756 33.136747 86.218725 33.296903 86.6875 33.53125 C 86.476537 34.726589 86.324193 35.808619 86.21875 36.78125 C 86.113256 37.75393 86.031225 38.625023 86.03125 39.375 C 86.031225 42.140644 86.390599 46.32814 87.09375 51.90625 C 85.945287 52.843758 84.738257 53.550789 83.4375 54.03125 C 82.136697 54.511725 80.734355 54.750006 79.28125 54.75 C 77.031234 54.750006 75.343735 53.957038 74.21875 52.375 C 73.093738 50.792979 72.531238 48.421888 72.53125 45.28125 C 72.531238 42.000019 73.734362 39.121116 76.125 36.625 C 78.515607 34.128933 81.31248 32.875028 84.5 32.875 z M 210.53125 34 C 214.79685 34.023465 216.77341 37.796898 216.46875 45.34375 C 216.35154 48.109388 215.42966 50.320323 213.71875 51.9375 C 212.21873 53.32032 210.47654 54.000007 208.4375 54 C 206.74998 54.000007 205.26561 53.41407 204 52.21875 C 202.40624 50.71876 201.59374 48.562513 201.59375 45.75 C 201.59374 42.773456 202.31249 40.164084 203.71875 37.9375 C 205.3828 35.289088 207.64842 33.97659 210.53125 34 z "
       xlink:href="#text3205"
       style="font-size:72px;font-style:normal;font-variant:normal;font-weight:bold;font-stretch:normal;line-height:125%;letter-spacing:0px;word-spacing:0px;fill:#000000;fill-opacity:1;stroke:none;font-family:Comic Sans MS;-inkscape-font-specification:Comic Sans MS Bold"
       id="path3211"
       inkscape:href="#text3205"
       d="m -217.625,0.875 c -2.61633,1.0509e-4 -5.44339,1.085957 -7.34375,2.9375 -0.61542,0.5996685 -1.01986,1.4216999 -1.46875,2.1875 -0.77035,-0.6714354 -1.5702,-1.2608063 -2.40625,-1.625 -3.01233,-1.3122033 -6.22366,-1.5937206 -10.125,-1.59375 -1.93516,5.65e-5 -4.64443,0.062346 -8.25,0.15625 -3.55607,0.092718 -6.22956,0.1250506 -7.96875,0.125 -1.35286,4.39e-5 -3.73856,-0.1159117 -6.90625,-0.3125 -3.28832,-0.2039646 -5.75421,-0.2811906 -7.5625,-0.28125 -3.01363,3.36e-5 -5.8588,0.383209 -8.5,2.15625 -2.6412,1.773041 -4.3125,5.2985601 -4.3125,8.3125 0,2.86085 1.39344,6.048476 3.65625,7.9375 0.011,0.0091 0.0202,0.02221 0.0312,0.03125 2.02042,1.660493 4.69002,2.468826 7.125,2.46875 0.6587,1.1e-4 1.04305,-0.02758 1.53125,-0.0625 0.25903,-0.01848 0.40284,-0.0312 0.71875,-0.03125 l 9.1875,0 c -1.32697,1.576735 -2.63414,3.056397 -4,4.8125 a 5.6574198,5.6574198 0 0 0 -0.0312,0.0625 c -3.85903,5.098598 -7.70269,10.200067 -11.53125,15.3125 -0.0175,0.02334 -0.045,0.03916 -0.0625,0.0625 -2.15662,2.783094 -3.37881,4.402803 -4.1875,5.65625 a 5.6574198,5.6574198 0 0 0 -0.0312,0.03125 c -1.80297,2.833256 -3.09375,5.685099 -3.09375,9.03125 0,2.868977 1.43262,6.135932 3.8125,8 0.0229,0.01792 0.0394,0.04484 0.0625,0.0625 l 0.0312,-0.03125 c 2.07775,1.598533 4.71597,2.343747 7.15625,2.34375 3.67413,-2e-6 9.03671,-0.105124 16.1875,-0.28125 7.10654,-0.17504 12.42229,-0.250001 15.90625,-0.25 0.44122,-10e-7 1.41119,0.0461 2.71875,0.125 1.41118,0.08516 2.48814,0.124997 3.40625,0.125 2.32453,-3e-6 4.79953,-0.763458 6.78125,-2.21875 0.17753,0.20759 0.27718,0.500848 0.46875,0.6875 1.90035,1.851628 4.72731,2.937494 7.34375,2.9375 2.61644,-6e-6 5.44338,-1.085881 7.34375,-2.9375 1.85568,-1.808127 3.09373,-4.674952 3.09375,-7.3125 -1e-5,-1.880485 0.11808,-4.456462 0.34375,-7.625 9.2e-4,-0.01296 -9.3e-4,-0.01827 0,-0.03125 0.12415,-1.646108 0.13719,-2.38045 0.21875,-3.625 3.04278,-0.566559 6.08507,-1.133336 9.125,-1.6875 2.85167,-0.518478 4.71122,-0.599829 7,-0.875 0.0334,1.551894 0.0261,2.87237 0.125,5.09375 0.15152,3.404253 0.24997,5.941697 0.25,7.4375 -9e-5,2.732325 1.39642,5.688807 3.4375,7.46875 1.99402,1.739038 4.74718,2.718746 7.3125,2.71875 2.61644,-4e-6 5.44341,-1.085987 7.34375,-2.9375 0.46688,-0.454938 0.74711,-1.120087 1.125,-1.6875 0.32532,0.389513 0.53181,0.899629 0.90625,1.21875 1.95315,1.664632 4.59869,2.656248 7.15625,2.65625 3.56869,-2e-6 7.29356,-2.304263 9.09375,-5.25 a 5.6574198,5.6574198 0 0 0 0.21875,-0.34375 c 2.00781,-3.892342 3.1447,-6.389426 4.3125,-8.9375 1.52078,-0.186502 2.81157,-0.36745 5.15625,-0.53125 0.0139,-9.08e-4 0.0174,9.08e-4 0.0312,0 1.77288,-0.116297 2.61065,-0.255143 3.96875,-0.375 0.65835,2.040479 1.3545,3.99252 2.15625,5.78125 0.006,0.01364 0.0253,0.01764 0.0312,0.03125 1.06756,2.436689 2.14794,4.459324 3.65625,6.21875 1.51673,1.769255 3.81425,3.540021 6.875,3.65625 2.61789,0.0952 5.50483,-0.986098 7.4375,-2.71875 2.04858,-1.836745 3.40615,-4.846105 3.40625,-7.625 -1.3e-4,-2.527717 -0.69752,-4.384892 -1.6875,-6.75 a 5.6574198,5.6574198 0 0 0 0,-0.03125 c -1.01561,-2.400398 -1.67473,-4.355338 -1.53125,-3.78125 -2.0405,-8.60457 -3.774,-16.234725 -5.1875,-22.90625 -0.005,-0.02685 0.005,-0.03572 0,-0.0625 -0.99689,-4.962045 -1.73034,-8.710193 -2.1875,-11.15625 a 5.6574198,5.6574198 0 0 0 -0.125,-0.5 c -0.62666,-2.252426 -1.68768,-4.436668 -3.59375,-6.15625 -1.90607,-1.719582 -4.58531,-2.6249513 -7,-2.625 -3.41193,1.305e-4 -4.21333,1.3551721 -5.21875,2.25 -1.00542,0.8948279 -1.89127,1.9116325 -2.90625,3.15625 -2.02997,2.489235 -4.45056,5.909311 -7.4375,10.4375 -3.71843,5.641761 -7.017,11.097487 -10.125,16.40625 -0.003,0.0045 -0.0286,-0.0045 -0.0312,0 -0.71961,0.323201 -1.40757,0.736784 -2.125,1.28125 -1.43486,1.088932 -2.95847,3.157651 -3.15625,5.53125 a 5.6574198,5.6574198 0 0 0 -0.0312,0.0625 c -0.0499,0.673545 0.0418,1.271911 0.125,1.875 -0.32257,0.665854 -0.52539,1.173366 -0.8125,1.78125 -0.0567,-1.189478 -0.18752,-2.845665 -0.1875,-3.5625 -5e-5,-2.04117 0.11239,-5.268296 0.34375,-9.59375 0.23595,-4.41331 0.37494,-7.754089 0.375,-10.21875 -2e-5,-0.319042 0.0372,-1.265351 0.15625,-2.53125 0.13797,-1.468086 0.21867,-2.569915 0.21875,-3.5625 -2e-5,-0.613561 0.13419,-1.633657 0.5,-2.96875 a 5.6574198,5.6574198 0 0 0 0,-0.03125 c 0.1796,-0.673778 0.3436,-1.509839 0.34375,-2.53125 -1.1e-4,-2.8355019 -1.50605,-5.8445238 -3.53125,-7.59375 a 5.6574198,5.6574198 0 0 0 0,-0.03125 c -1.80806,-1.5432828 -4.42219,-2.5936385 -6.96875,-2.59375 -2.4874,8.13e-5 -4.81706,1.2312617 -6.3125,2.6875 -1.49544,1.4562383 -2.4706,3.1195547 -3.3125,4.96875 a 5.6574198,5.6574198 0 0 0 0,0.03125 c -1.25715,2.793614 -2.07719,5.504407 -2.15625,8.34375 -2.9e-4,0.01033 2.7e-4,0.02092 0,0.03125 -0.12717,4.135445 -0.19453,5.384396 -0.28125,7.5625 -2.82819,0.285114 -5.83223,0.690329 -9.15625,1.28125 a 5.6574198,5.6574198 0 0 0 -0.0312,0 l -6.40625,1.1875 c -1e-5,-1.59097 0.0901,-4.24527 0.21875,-7.8125 0.13033,-3.614087 0.18748,-6.344723 0.1875,-8.25 -4e-5,-2.6374955 -1.19081,-5.489464 -3.09375,-7.34375 -1.90033,-1.8514581 -4.72742,-2.93739491 -7.34375,-2.9375 z m 104.46875,1 c -2.38605,9.41e-5 -4.94713,0.7660455 -6.90625,2.28125 -0.0111,0.0086 -0.0202,0.022601 -0.0312,0.03125 -2.29481,1.7664083 -3.8125,4.9540336 -3.8125,7.8125 0,1.229333 0.24609,2.475435 0.65625,3.625 l -0.0312,0 c 3.58272,10.124121 6.1405,17.879312 7.625,23.1875 0.012,0.04298 0.0506,0.144845 0.0625,0.1875 1.71641,7.101957 2.94133,12.503961 3.6875,16.03125 a 5.6574198,5.6574198 0 0 0 0.0625,0.3125 l 1.09375,4.09375 0.125,-0.03125 c 0.41695,2.635059 1.66385,5.292675 3.75,6.9375 a 5.6574198,5.6574198 0 0 0 0.0312,0.03125 c 2.19869,1.694852 5.02625,2.499997 7.71875,2.5 2.421379,-4e-6 4.938741,-0.782134 6.9375,-2.15625 a 5.6574198,5.6574198 0 0 0 0.0625,-0.03125 c 2.457025,-1.742288 4.312442,-5.051573 4.3125,-8.1875 -1.6e-5,-0.356323 -0.18013,-0.72837 -0.21875,-1.09375 0.466827,-1.632515 1.325469,-3.835593 2.40625,-6.4375 0.177225,0.891556 0.496343,2.65803 0.65625,3.4375 l -0.03125,0 c 0.0094,0.05714 0.05263,0.130183 0.0625,0.1875 0.0015,0.0087 -0.0015,0.02257 0,0.03125 0.371637,2.14329 1.140205,4.457813 2.15625,7.0625 0.559786,2.627632 2.258651,5.085408 4.3125,6.46875 0.01142,0.0077 0.0198,0.02359 0.03125,0.03125 1.967496,1.315447 4.391252,2.031245 6.75,2.03125 3.898385,-5e-6 8.009151,-2.46692 9.90625,-5.78125 0.0059,-0.01034 0.02534,-0.02088 0.03125,-0.03125 1.03871,-1.822746 2.037078,-3.999068 3.0625,-6.625 1.219394,-3.126215 3.319166,-8.110849 6.28125,-14.78125 a 5.6574198,5.6574198 0 0 0 0.03125,0 c 2.929132,-6.637913 5.049691,-11.73356 6.4375,-15.3125 a 5.6574198,5.6574198 0 0 0 0.09375,-0.25 c 0.83404,-2.502281 1.40356,-4.308666 1.84375,-5.78125 0.03417,-0.08914 0.06021,-0.131485 0.09375,-0.21875 0.01595,-0.05387 0.04707,-0.166129 0.0625,-0.21875 0.446758,-1.159068 0.869329,-2.232749 1.1875,-3 A 5.6574198,5.6574198 0 0 0 -42.625,18.1875 c 0.431851,-1.073528 0.787665,-1.989273 1.0625,-2.8125 0.274835,-0.823227 0.593469,-1.202332 0.59375,-3.09375 -1.4e-4,-2.661029 -1.149028,-5.6199215 -3.1875,-7.53125 -2.010502,-1.8845893 -4.86421,-2.8436535 -7.4375,-2.84375 -3.540549,1.012e-4 -7.207076,2.0948816 -9.15625,4.9375 A 5.6574198,5.6574198 0 0 0 -60.78125,6.875 c -1.549466,2.2889178 -2.558735,4.913921 -3.34375,7.9375 -0.0026,0.01004 0.0026,0.02121 0,0.03125 -0.94091,3.57419 -1.770532,6.183008 -1.625,5.8125 a 5.6574198,5.6574198 0 0 0 -0.03125,0.03125 c -1.242116,3.240569 -1.849909,4.62298 -2.9375,7.40625 -0.0974,-0.622836 -0.535247,-2.458288 -0.59375,-2.9375 -0.469151,-3.752808 -0.770706,-6.047332 -0.9375,-7.1875 a 5.6574198,5.6574198 0 0 0 0,-0.0625 c -0.520732,-3.322425 -0.976831,-5.634167 -1.90625,-7.8125 -0.0087,-0.02072 -0.02238,-0.04181 -0.03125,-0.0625 -1.625452,-3.7934983 -5.82364,-7.1873999 -10.1875,-7.1875 -3.2131,6.95e-5 -5.898893,1.7380056 -7.75,3.71875 -1.84246,1.9714921 -3.24071,4.374438 -4.5625,7.25 -0.0041,0.0089 0.0041,0.02238 0,0.03125 -0.0021,0.0046 -0.02912,-0.0046 -0.03125,0 -1.023245,2.221855 -2.183483,5.70721 -3.46875,9.71875 -1.162723,-4.211655 -2.29992,-8.062622 -3.375,-11.15625 -0.81879,-2.353945 -1.43985,-4.0731043 -2.71875,-5.875 -0.008,-0.011805 -0.0229,-0.019475 -0.0312,-0.03125 -1.91897,-2.7016151 -5.48932,-4.6248991 -8.84375,-4.625 z m 106.03125,0 c -2.3860457,9.41e-5 -4.947137,0.7660563 -6.90625,2.28125 -0.01112,0.0086 -0.02017,0.022601 -0.03125,0.03125 -2.294803,1.766404 -3.812504,4.954016 -3.8125,7.8125 -4e-6,1.229364 0.2461,2.475455 0.65625,3.625 l -0.03125,0 c 3.582719,10.124122 6.140498,17.879309 7.625,23.1875 0.01202,0.04298 0.050621,0.144845 0.0625,0.1875 1.7164062,7.101956 2.9413276,12.503959 3.6875,16.03125 a 5.6574198,5.6574198 0 0 0 0.0625,0.3125 l 1.09375,4.09375 0.125,-0.03125 c 0.4169489,2.635062 1.6638568,5.292678 3.75,6.9375 A 5.6574198,5.6574198 0 0 0 -0.8125,66.375 c 2.1986926,1.694849 5.0262545,2.499997 7.71875,2.5 2.4213785,-4e-6 4.938742,-0.782135 6.9375,-2.15625 a 5.6574198,5.6574198 0 0 0 0.0625,-0.03125 C 16.363275,64.945212 18.218692,61.635927 18.21875,58.5 18.218734,58.143677 18.03862,57.77163 18,57.40625 c 0.466827,-1.632515 1.325469,-3.835593 2.40625,-6.4375 0.177225,0.891556 0.496343,2.65803 0.65625,3.4375 l -0.03125,0 c 0.0094,0.05714 0.05263,0.130183 0.0625,0.1875 0.0015,0.0087 -0.0015,0.02257 0,0.03125 0.371637,2.14329 1.140205,4.457813 2.15625,7.0625 0.559786,2.627632 2.258651,5.085408 4.3125,6.46875 0.01142,0.0077 0.0198,0.02359 0.03125,0.03125 1.967496,1.315447 4.391252,2.031245 6.75,2.03125 3.898385,-5e-6 8.009151,-2.46692 9.90625,-5.78125 0.0059,-0.01034 0.02534,-0.02088 0.03125,-0.03125 1.03871,-1.822746 2.037078,-3.999068 3.0625,-6.625 C 48.563144,54.655035 50.662916,49.670401 53.625,43 a 5.6574198,5.6574198 0 0 0 0.03125,0 c 2.929132,-6.637913 5.049691,-11.73356 6.4375,-15.3125 a 5.6574198,5.6574198 0 0 0 0.09375,-0.25 c 0.83404,-2.502281 1.40356,-4.308666 1.84375,-5.78125 0.03417,-0.08914 0.06021,-0.131485 0.09375,-0.21875 0.01595,-0.05387 0.04707,-0.166129 0.0625,-0.21875 0.446758,-1.159068 0.869329,-2.232749 1.1875,-3 a 5.6574198,5.6574198 0 0 0 0.03125,-0.03125 c 0.431851,-1.073528 0.787665,-1.989273 1.0625,-2.8125 0.274835,-0.823227 0.593469,-1.202332 0.59375,-3.09375 C 65.06236,9.620221 63.913472,6.6613285 61.875,4.75 59.864498,2.8654107 57.01079,1.9063465 54.4375,1.90625 50.896951,1.9063512 47.230424,4.0011316 45.28125,6.84375 A 5.6574198,5.6574198 0 0 0 45.25,6.875 c -1.549466,2.2889178 -2.558735,4.913921 -3.34375,7.9375 -0.0026,0.01004 0.0026,0.02121 0,0.03125 -0.94091,3.57419 -1.770532,6.183008 -1.625,5.8125 A 5.6574198,5.6574198 0 0 0 40.25,20.6875 c -1.242116,3.240569 -1.849909,4.62298 -2.9375,7.40625 -0.0974,-0.622836 -0.535247,-2.458288 -0.59375,-2.9375 -0.469151,-3.752808 -0.770706,-6.047332 -0.9375,-7.1875 a 5.6574198,5.6574198 0 0 0 0,-0.0625 c -0.520732,-3.322425 -0.976831,-5.634167 -1.90625,-7.8125 -0.0087,-0.02072 -0.02238,-0.04181 -0.03125,-0.0625 -1.625452,-3.7934983 -5.82364,-7.1873999 -10.1875,-7.1875 -3.2131,6.95e-5 -5.898893,1.7380056 -7.75,3.71875 -1.84246,1.9714921 -3.24071,4.374438 -4.5625,7.25 -0.0041,0.0089 0.0041,0.02238 0,0.03125 -0.0021,0.0046 -0.02912,-0.0046 -0.03125,0 C 10.289255,16.065605 9.1290175,19.55096 7.84375,23.5625 6.6810272,19.350845 5.5438268,15.499878 4.46875,12.40625 3.6499543,10.052305 3.028876,8.3331298 1.75,6.53125 1.7416993,6.5194451 1.7271139,6.5117751 1.71875,6.5 -0.20021785,3.7983792 -3.770574,1.8751009 -7.125,1.875 z m 188.84375,0.96875 c -2.81589,9.89e-5 -5.69566,1.1491665 -7.71875,3 -2.0902,1.912395 -3.50002,4.982289 -3.5,7.875 -2e-5,2.743617 1.33623,5.577641 3.25,7.5 -0.18175,0.149311 -0.42498,0.212721 -0.59375,0.375 -0.6021,0.578956 -0.96399,1.382001 -1.40625,2.125 -0.14381,-0.217753 -0.24655,-0.444116 -0.40625,-0.65625 -2.26241,-3.005236 -6.18672,-4.593722 -9.78125,-4.59375 -4.21604,3.1e-5 -8.28629,0.981463 -12.0625,2.75 -1.91237,-1.466542 -4.28169,-2.124971 -6.40625,-2.125 -2.4787,6.1e-5 -5.37843,0.977841 -7.3125,2.96875 -2.31827,-2.321384 -5.66378,-3.593725 -8.8125,-3.59375 -4.21604,3.1e-5 -8.28629,0.981463 -12.0625,2.75 -1.91237,-1.466542 -4.28169,-2.124971 -6.40625,-2.125 -2.57834,6.4e-5 -5.63563,1.030626 -7.5625,3.1875 -0.61488,0.688325 -1.000255,1.557759 -1.40625,2.40625 -1.599697,-1.536766 -3.400271,-2.596114 -5.5,-3.5 -3.407559,-1.472009 -6.688468,-2.374945 -10,-2.375 -7.117724,4.5e-5 -13.792291,2.697815 -18.90625,7.625 -5.127177,4.939977 -7.968752,11.526598 -7.96875,18.5625 -2e-6,6.896554 1.641898,13.039628 5.75,17.4375 4.11449,4.404736 10.188597,6.312498 16.84375,6.3125 1.9822,-3e-6 3.877673,-0.410468 5.90625,-1.0625 0.895254,-0.287765 1.928172,-0.804152 2.875,-1.1875 0.300152,0.234282 0.597019,0.567548 0.90625,0.78125 1.305287,0.902052 2.696579,1.874995 5.3125,1.875 2.48512,-4e-6 4.979032,-0.977788 6.84375,-2.53125 1.89485,1.645811 4.46466,2.562497 6.75,2.5625 2.56904,-4e-6 5.42455,-1.030836 7.375,-2.90625 1.97364,-1.897753 3.12498,-4.769143 3.125,-7.40625 l -0.0312,-16.09375 c 0.34442,-0.572827 0.7259,-1.098336 1.125,-1.53125 0.41043,0.958586 0.93517,1.89756 1.71875,2.71875 2.03297,2.130559 4.94197,2.906267 7.40625,2.90625 1.20415,8e-6 2.48269,-0.282971 3.71875,-0.71875 l 0,12.71875 c 0,2.346863 0.82358,4.927529 2.5,6.875 l -0.0312,0.03125 c 0.0241,0.02837 0.0692,0.03447 0.0937,0.0625 0.005,0.0053 -0.005,0.02599 0,0.03125 1.9032,2.165032 4.96445,3.312496 7.59375,3.3125 2.56904,-4e-6 5.42455,-1.030836 7.375,-2.90625 1.97364,-1.897753 3.12498,-4.769143 3.125,-7.40625 l -0.0312,-16.09375 c 0.34442,-0.572827 0.7259,-1.098336 1.125,-1.53125 0.41043,0.958586 0.93517,1.89756 1.71875,2.71875 2.03297,2.130559 4.94197,2.906267 7.40625,2.90625 1.87289,1.2e-5 3.9255,-0.551381 5.6875,-1.625 0.007,1.443756 0.0494,3.310457 0.125,6.03125 0.0814,2.931808 0.12499,5.066544 0.125,6.28125 -2e-5,2.551462 1.10985,5.498674 3.09375,7.40625 1.99688,1.920077 4.8372,2.906248 7.40625,2.90625 2.56904,-2e-6 5.42456,-1.030868 7.375,-2.90625 1.54383,-1.484474 2.41476,-3.631763 2.78125,-5.78125 0.88787,1.334571 1.91836,2.568471 3.09375,3.6875 4.06626,3.882832 9.45996,6.031247 15.09375,6.03125 6.81107,-2e-6 13.10052,-3.095913 17.28125,-8.375 0.28268,1.860369 0.92894,3.720396 2.21875,5.21875 l -0.0312,0.03125 c 0.0241,0.02837 0.0692,0.03447 0.0937,0.0625 0.005,0.0053 -0.005,0.02599 0,0.03125 1.9032,2.165032 4.96445,3.312496 7.59375,3.3125 2.56904,-4e-6 5.40937,-0.986189 7.40625,-2.90625 2.02007,-1.942401 3.09373,-4.857359 3.09375,-7.40625 l -0.0312,-16.09375 c 0.34894,-0.577851 0.74843,-1.094541 1.15625,-1.53125 0.41755,0.970235 0.9246,1.926513 1.71875,2.75 2.04161,2.117029 4.94197,2.875017 7.40625,2.875 2.5836,1.7e-5 5.57884,-0.970375 7.5625,-3.0625 0.93443,1.21683 1.99215,2.322459 3.21875,3.28125 -1.72338,0.19358 -3.48429,0.627154 -5.09375,1.96875 -2.12676,1.772795 -3.09375,4.671796 -3.09375,6.96875 0,2.58055 1.06871,5.302186 2.78125,7.1875 1.71254,1.885314 3.86248,3.069494 6.1875,3.9375 3.2767,1.221315 6.80625,1.781248 10.5,1.78125 5.1217,-2e-6 9.83245,-0.962548 13.875,-3.1875 a 5.6574198,5.6574198 0 0 0 0.0312,-0.03125 c 5.0897,-2.831164 8.53121,-8.308454 8.53125,-14.09375 -4e-5,-4.515237 -2.44811,-8.571543 -5.9375,-11.625 1.59033,-0.844689 3.00386,-2.055673 3.75,-3.4375 1.31851,-2.441863 1.53123,-4.821799 1.53125,-7.4375 -5e-5,-3.553559 -1.91326,-7.704593 -5.3125,-9.53125 -0.009,-0.0051 -0.0219,0.005 -0.0312,0 C 292.28368,18.215514 289.8111,18.000046 287,18 c -6.27727,4e-5 -11.10298,0.399571 -15.125,1.71875 a 5.6574198,5.6574198 0 0 0 -0.0312,0 c -2.77133,0.910784 -5.17617,2.463838 -7.15625,4.5 -0.23088,-0.386571 -0.40913,-0.786488 -0.6875,-1.15625 -2.26241,-3.005236 -6.18672,-4.593722 -9.78125,-4.59375 -4.21604,3.1e-5 -8.28629,0.981463 -12.0625,2.75 -1.90269,-1.456817 -4.26372,-2.124971 -6.375,-2.125 -2.57834,6.4e-5 -5.61719,0.975012 -7.59375,3.1875 -1.04123,1.165595 -1.64906,2.616067 -2.0625,4.09375 -3.68267,-4.550213 -9.22081,-7.312455 -15.125,-7.3125 -7.76171,4.4e-5 -14.87668,3.35837 -19.40625,9.4375 a 5.6574198,5.6574198 0 0 0 -0.0312,0 c -0.19987,0.270133 -0.34229,0.567725 -0.53125,0.84375 5.2e-4,-0.09904 0.0312,-0.246043 0.0312,-0.34375 -4e-5,-2.392648 -1.06248,-4.923721 -2.6875,-6.78125 0.33755,-0.244369 0.76041,-0.376888 1.0625,-0.65625 2.09195,-1.934431 3.43746,-5.001814 3.4375,-7.84375 -4e-5,-2.841932 -1.34574,-5.9093161 -3.4375,-7.84375 -2.00051,-1.8498076 -4.90286,-3.0311511 -7.71875,-3.03125 z M -228.25,22.5 c -0.0185,0.852899 -0.01,1.136598 -0.0312,2.0625 -0.14103,6.052273 -0.21876,10.589291 -0.21875,13.6875 -1e-5,2.074752 -0.16098,5.513188 -0.5625,10.125 -0.0305,0.349858 -0.0341,0.474991 -0.0625,0.8125 -0.89734,-0.387277 -1.82115,-0.704993 -2.75,-0.90625 -2.28997,-0.493881 -4.51662,-0.499992 -8,-0.5 -3.18227,8e-6 -7.34141,0.106778 -12.53125,0.34375 -0.28293,0.01217 -0.25721,0.01949 -0.53125,0.03125 1.83732,-2.463984 3.66389,-4.937433 5.5,-7.40625 0.0102,-0.01345 0.0211,-0.01781 0.0312,-0.03125 5.22585,-6.895228 9.7331,-11.590488 12.90625,-13.9375 1.71342,-1.132346 3.19741,-2.103842 4.34375,-2.8125 a 5.6574198,5.6574198 0 0 0 0.28125,-0.15625 c 0.57696,-0.402125 1.08037,-0.876365 1.625,-1.3125 z m 438.5,17.1875 c 0.23513,0.569522 0.67974,2.390132 0.5625,5.40625 -5e-4,0.0129 5.2e-4,0.01831 0,0.03125 -0.072,1.576072 -0.3847,2.125256 -0.9375,2.65625 -0.0108,0.01038 -0.0203,0.02087 -0.0312,0.03125 -0.53533,0.49062 -0.64482,0.531253 -1.40625,0.53125 -0.37807,2e-6 -0.23119,0.06291 -0.5625,-0.25 -0.32225,-0.30329 -0.62501,-0.62071 -0.625,-2.34375 -1e-5,-2.065888 0.44455,-3.505953 1.25,-4.78125 a 5.6574198,5.6574198 0 0 0 0,-0.03125 c 0.78055,-1.242278 0.95505,-1.258685 1.75,-1.25 z M 80.46875,40.34375 c 0.0361,2.171023 0.355131,5.31126 0.6875,8.4375 -0.565171,0.17498 -1.160127,0.312503 -1.875,0.3125 -0.92092,2e-6 -0.343436,0.13228 -0.4375,0 -0.09406,-0.132275 -0.656259,-1.347315 -0.65625,-3.8125 -7e-6,-1.898425 0.4877,-3.138347 2.03125,-4.75 0.09115,-0.09517 0.161888,-0.100571 0.25,-0.1875 z" />
    <text
       xml:space="preserve"
       style="font-size:72px;font-style:normal;font-variant:normal;font-weight:bold;font-stretch:normal;line-height:125%;letter-spacing:0px;word-spacing:0px;fill:#ffff00;fill-opacity:1;stroke:none;font-family:Comic Sans MS;-inkscape-font-specification:Comic Sans MS Bold"
       x="-277.92657"
       y="61.172024"
       id="text3205"
       sodipodi:linespacing="125%"><tspan
         sodipodi:role="line"
         id="tspan3207"
         x="-277.92657"
         y="61.172024">ZHAW Warriors</tspan></text>
  </g>
</svg>
