<?xml version="1.0" encoding="UTF-8" standalone="no"?>
<!-- Created with Inkscape (http://www.inkscape.org/) -->

<svg
   xmlns:dc="http://purl.org/dc/elements/1.1/"
   xmlns:cc="http://creativecommons.org/ns#"
   xmlns:rdf="http://www.w3.org/1999/02/22-rdf-syntax-ns#"
   xmlns:svg="http://www.w3.org/2000/svg"
   xmlns="http://www.w3.org/2000/svg"
   xmlns:xlink="http://www.w3.org/1999/xlink"
   xmlns:sodipodi="http://sodipodi.sourceforge.net/DTD/sodipodi-0.dtd"
   xmlns:inkscape="http://www.inkscape.org/namespaces/inkscape"
   width="512"
   height="128"
   id="svg3213"
   version="1.1"
   inkscape:version="0.48.4 r9939"
   sodipodi:docname="on.svg">
  <defs
     id="defs3215" />
  <sodipodi:namedview
     id="base"
     pagecolor="#ffffff"
     bordercolor="#666666"
     borderopacity="1.0"
     inkscape:pageopacity="0.0"
     inkscape:pageshadow="2"
     inkscape:zoom="1.4"
     inkscape:cx="181.64714"
     inkscape:cy="57.544504"
     inkscape:document-units="px"
     inkscape:current-layer="layer1"
     showgrid="false"
     fit-margin-top="0"
     fit-margin-left="0"
     fit-margin-right="0"
     fit-margin-bottom="0"
     inkscape:window-width="1366"
     inkscape:window-height="716"
     inkscape:window-x="-8"
     inkscape:window-y="-8"
     inkscape:window-maximized="1" />
  <metadata
     id="metadata3218">
    <rdf:RDF>
      <cc:Work
         rdf:about="">
        <dc:format>image/svg+xml</dc:format>
        <dc:type
           rdf:resource="http://purl.org/dc/dcmitype/StillImage" />
        <dc:title></dc:title>
      </cc:Work>
    </rdf:RDF>
  </metadata>
  <g
     inkscape:label="Layer 1"
     inkscape:groupmode="layer"
     id="layer1"
     transform="translate(683.46875,7.5312507)">
    <flowRoot
       xml:space="preserve"
       id="flowRoot3221"
       style="font-size:22px;font-style:normal;font-variant:normal;font-weight:normal;font-stretch:normal;line-height:125%;letter-spacing:0px;word-spacing:0px;fill:#000000;fill-opacity:1;stroke:none;font-family:Comic Sans MS;-inkscape-font-specification:Comic Sans MS"><flowRegion
         id="flowRegion3223"><rect
           id="rect3225"
           width="42.857143"
           height="45.714287"
           x="-565.71429"
           y="149.50504" /></flowRegion><flowPara
         id="flowPara3227" /></flowRoot>    <path
       sodipodi:type="inkscape:offset"
       inkscape:radius="7.2668757"
       inkscape:original="M -485.28125 28.09375 C -486.26565 28.093786 -487.1094 28.484411 -487.8125 29.28125 C -488.87502 30.484409 -489.89065 32.187532 -490.8125 34.40625 C -491.4844 36.281278 -492.15627 38.171901 -492.84375 40.03125 C -494.14064 43.546896 -495.95314 48.250016 -498.3125 54.1875 C -499.45314 50.765638 -500.65626 46.843767 -501.875 42.375 C -502.84376 39.000025 -503.57813 36.468778 -504.09375 34.78125 C -504.40626 33.437531 -504.71876 32.078157 -505.03125 30.71875 C -505.62501 29.156285 -506.65626 28.375036 -508.15625 28.375 C -509.03125 28.375036 -509.8125 28.656285 -510.46875 29.21875 C -511.15625 29.828159 -511.5 30.578158 -511.5 31.5 C -511.5 32.640656 -511.0625 34.687529 -510.1875 37.625 C -509.53125 39.734399 -508.89063 41.859397 -508.25 43.96875 C -505.92188 52.531262 -503.78126 59.07813 -501.875 63.625 C -501.23439 65.156249 -500.12501 65.906248 -498.5 65.90625 C -497.21877 65.906248 -496.23439 65.312499 -495.5625 64.09375 C -494.51564 62.203127 -493.62502 60.296879 -492.90625 58.40625 C -490.12502 51.187513 -488.03128 45.796893 -486.625 42.1875 C -485.50003 39.156275 -484.93753 37.593776 -484.90625 37.53125 C -484.20315 35.812528 -483.40628 34.34378 -482.5625 33.125 C -482.14066 32.515657 -481.93753 31.906282 -481.9375 31.28125 C -481.93753 30.390659 -482.26566 29.617222 -482.9375 29 C -483.6094 28.382848 -484.39065 28.093786 -485.28125 28.09375 z M -460.875 29.65625 C -464.73439 29.656284 -468.26564 30.929721 -471.46875 33.46875 C -474.67188 36.007841 -476.29688 38.7969 -476.34375 41.84375 C -476.39063 44.265645 -474.95313 46.140643 -472.0625 47.4375 C -469.92189 48.390641 -467.51564 48.875015 -464.8125 48.9375 C -461.32814 49.01564 -459.00002 49.29689 -457.84375 49.75 C -456.21877 50.375014 -455.40628 51.656262 -455.40625 53.625 C -455.40628 55.062509 -456.70315 56.390633 -459.3125 57.59375 C -461.82814 58.76563 -464.43752 59.343755 -467.125 59.34375 C -470.26564 59.343755 -472.29688 58.390631 -473.1875 56.46875 C -473.84376 55.031259 -474.87501 54.31251 -476.28125 54.3125 C -477.32813 54.31251 -478.125 54.632822 -478.71875 55.28125 C -479.3125 55.929696 -479.625 56.765632 -479.625 57.75 C -479.625 59.671879 -478.67188 61.343753 -476.75 62.8125 C -474.46876 64.578124 -471.34376 65.468749 -467.375 65.46875 C -462.87502 65.468749 -458.87502 64.671874 -455.375 63.09375 C -450.78128 61.015628 -448.46878 57.968756 -448.46875 53.9375 C -448.46878 50.625013 -449.59378 48.031266 -451.8125 46.15625 C -453.82815 44.46877 -456.56252 43.484396 -460.03125 43.21875 C -462.01564 43.109396 -464.00002 43.015646 -466 42.90625 C -467.14064 42.750021 -467.9922 42.476584 -468.5625 42.09375 C -469.13282 41.71096 -469.43751 41.218773 -469.4375 40.625 C -469.43751 39.4844 -468.50001 38.437526 -466.625 37.46875 C -464.81252 36.515653 -462.89064 36.015653 -460.875 36 C -460.12502 36.000028 -459.02346 36.156278 -457.5625 36.46875 C -456.10159 36.781277 -454.9844 36.937527 -454.25 36.9375 C -453.26565 36.937527 -452.46878 36.609402 -451.84375 35.90625 C -451.28128 35.281279 -451.00003 34.562529 -451 33.75 C -451.00003 32.609406 -452.39065 31.593782 -455.1875 30.71875 C -457.43752 30.015659 -459.34377 29.656284 -460.875 29.65625 z M -415.5625 38.4375 C -416.48438 38.437526 -417.27344 38.742213 -417.90625 39.3125 C -418.53906 39.882837 -418.84375 40.593773 -418.84375 41.46875 C -418.84375 41.921897 -418.80469 42.601584 -418.75 43.53125 C -418.69531 44.460957 -418.6875 45.187519 -418.6875 45.65625 C -418.6875 47.156267 -418.78125 49.23439 -419 51.90625 C -419.21875 54.578134 -419.34375 56.656257 -419.34375 58.15625 C -419.34375 58.593755 -419.28125 59.242192 -419.1875 60.125 C -419.09375 61.007816 -419.0625 61.687502 -419.0625 62.125 C -419.0625 63.015626 -418.76563 63.757813 -418.15625 64.34375 C -417.54688 64.929687 -416.75 65.218749 -415.8125 65.21875 C -414.87501 65.218749 -414.11719 64.929687 -413.5 64.34375 C -412.88282 63.757813 -412.56251 63.015626 -412.5625 62.125 C -412.56251 61.687502 -412.6172 61.007816 -412.71875 60.125 C -412.82032 59.242192 -412.87501 58.593755 -412.875 58.15625 C -412.87501 57.484382 -412.81251 56.796882 -412.71875 56.09375 C -412.60938 55.234384 -412.56251 54.546884 -412.53125 54.03125 C -411.75001 51.453138 -410.66407 49.335952 -409.28125 47.65625 C -407.89845 45.976581 -406.46876 45.125019 -405.03125 45.125 C -404.35939 45.125019 -404.03127 45.765643 -404.03125 47.0625 C -404.03127 47.343767 -404.06252 47.710954 -404.09375 48.15625 C -404.12502 48.601578 -404.12502 48.89064 -404.125 49 C -404.12502 49.406265 -404.16408 50.109389 -404.21875 51.09375 C -404.27345 52.078137 -404.28127 52.750011 -404.28125 53.15625 C -404.28127 54.671884 -404.17189 56.312508 -403.9375 58.03125 C -403.71877 59.656254 -403.50002 61.265628 -403.28125 62.875 C -403.06252 64.765624 -401.98439 65.718748 -400.0625 65.71875 C -399.14065 65.718748 -398.37502 65.421874 -397.75 64.84375 C -397.12502 64.265625 -396.81252 63.531251 -396.8125 62.65625 C -396.81252 61.453128 -396.97659 59.890629 -397.3125 57.96875 C -397.64846 56.046883 -397.81252 54.46876 -397.8125 53.25 C -397.81252 52.953136 -397.82815 52.468762 -397.8125 51.75 L -397.8125 50.0625 C -397.81252 46.765642 -398.18752 44.31252 -398.9375 42.65625 C -400.06252 40.187524 -402.07814 38.937525 -405.03125 38.9375 C -407.56251 38.937525 -409.96876 40.078149 -412.25 42.375 L -412.28125 42.125 C -412.42188 39.671899 -413.51563 38.437526 -415.5625 38.4375 z M -382.9375 39.125 C -386.25001 39.125025 -389.15626 41.031273 -391.65625 44.8125 C -393.85938 48.125016 -394.96875 51.328138 -394.96875 54.4375 C -394.96875 57.812506 -393.73438 60.531254 -391.28125 62.59375 C -388.95313 64.546875 -386.06251 65.531249 -382.625 65.53125 C -381.12501 65.531249 -379.18752 64.984374 -376.8125 63.90625 C -374.15627 62.687501 -372.84377 61.468753 -372.84375 60.25 C -372.84377 59.468755 -373.14846 58.76563 -373.75 58.15625 C -374.35158 57.546881 -375.06252 57.250007 -375.90625 57.25 C -376.31252 57.250007 -377.26564 57.640631 -378.78125 58.4375 C -380.29689 59.23438 -381.57814 59.625004 -382.625 59.625 C -384.46876 59.625004 -385.96876 59.20313 -387.09375 58.3125 C -388.28126 57.375007 -388.87501 56.078133 -388.875 54.4375 C -388.87501 52.781261 -388.18751 50.812513 -386.84375 48.53125 C -385.43751 46.171893 -384.14064 45.000019 -382.9375 45 C -381.04689 45.000019 -379.63283 45.335956 -378.6875 46.0625 C -377.74221 46.78908 -376.92189 47.156267 -376.25 47.15625 C -375.3594 47.156267 -374.65627 46.859392 -374.09375 46.21875 C -373.56252 45.625018 -373.28127 44.921894 -373.28125 44.15625 C -373.28127 42.750021 -374.6094 41.515648 -377.25 40.4375 C -379.42189 39.562524 -381.31251 39.125025 -382.9375 39.125 z M -424.75 39.65625 C -425.9219 39.656274 -426.8594 40.218774 -427.53125 41.34375 C -428.59377 43.109396 -429.67189 45.171894 -430.78125 47.5 C -431.14064 48.265641 -432.14064 50.484389 -433.8125 54.1875 C -436.76564 48.250016 -439.37501 43.828145 -441.59375 40.875 C -442.17188 40.109399 -442.96875 39.718774 -444 39.71875 C -444.875 39.718774 -445.64063 40.046899 -446.3125 40.6875 C -446.98438 41.328148 -447.3125 42.062522 -447.3125 42.90625 C -447.3125 43.500021 -447.10938 44.15627 -446.6875 44.875 C -446.29688 45.484394 -445.90625 46.093768 -445.53125 46.6875 C -441.79688 53.281261 -439.09376 58.265631 -437.375 61.65625 C -440.68751 68.812495 -442.34376 73.109366 -442.34375 74.5625 C -442.34376 75.437489 -441.98438 76.171863 -441.3125 76.75 C -440.64063 77.328112 -439.85938 77.624986 -438.96875 77.625 C -437.53126 77.624986 -436.53126 76.874987 -435.96875 75.40625 C -435.26564 73.499991 -434.76564 72.062492 -434.4375 71.09375 C -433.39064 68.406246 -431.87502 65.015624 -429.875 60.9375 C -426.18752 53.343761 -423.4844 47.796891 -421.78125 44.25 C -421.51565 43.703145 -421.37503 43.203146 -421.375 42.75 C -421.37503 41.890647 -421.71878 41.156273 -422.40625 40.5625 C -423.09377 39.968774 -423.87502 39.656274 -424.75 39.65625 z "
       xlink:href="#text3241"
       style="font-size:48px;font-style:normal;font-variant:normal;font-weight:bold;font-stretch:normal;line-height:125%;letter-spacing:0px;word-spacing:0px;fill:#ffffff;fill-opacity:1;stroke:none;font-family:Comic Sans MS;-inkscape-font-specification:Comic Sans MS Bold"
       id="path3247"
       inkscape:href="#text3241"
       d="m -483.28125,20.8125 c -2.90665,1.06e-4 -6.1369,1.580175 -7.96875,3.65625 -1.74133,1.971817 -3.037,4.291355 -4.15625,6.9375 -0.17854,-0.773686 -0.35181,-1.531897 -0.53125,-2.3125 A 7.2676024,7.2676024 0 0 0 -496.25,28.125 c -1.30054,-3.422342 -5.88311,-7.031153 -9.90625,-7.03125 -2.432,10e-5 -5.12009,0.955714 -7.03125,2.59375 a 7.2676024,7.2676024 0 0 0 -0.0937,0.09375 c -2.00245,1.774995 -3.5,4.990388 -3.5,7.71875 0,2.998802 0.67553,5.000013 1.625,8.1875 a 7.2676024,7.2676024 0 0 0 0.0312,0.09375 c 0.64351,2.068444 1.26271,4.193567 1.90625,6.3125 l 0.0312,0 c 2.35222,8.627178 4.52689,15.339278 6.625,20.34375 l -0.0312,0 c 1.46739,3.507501 6.2328,6.749995 10.09375,6.75 3.51196,-5e-6 7.6288,-2.604798 9.28125,-5.5625 0.007,-0.01235 0.0244,-0.0189 0.0312,-0.03125 1.13739,-2.05779 2.08414,-4.165221 2.90625,-6.28125 0.93258,2.925387 2.86974,5.539316 5.09375,7.25 0.0116,0.009 0.0196,0.02231 0.0312,0.03125 3.88041,2.987833 8.74041,4.156249 13.78125,4.15625 5.35788,-10e-7 10.44434,-0.977146 15,-3.03125 1.87423,-0.847869 3.54495,-2.079098 5.09375,-3.46875 -0.15808,0.392576 -0.45273,1.008807 -0.59375,1.375 -0.9265,2.405846 -1.75002,3.450009 -1.75,6.9375 -3e-5,2.864828 1.55553,5.960547 3.5625,7.6875 1.85069,1.59243 4.58834,2.656211 7.09375,2.65625 3.96508,-3.9e-5 8.48545,-3.522855 9.78125,-6.90625 a 7.2676024,7.2676024 0 0 0 0.0312,-0.09375 c 0.68111,-1.846617 1.15403,-3.171272 1.5,-4.1875 0.63116,-1.62032 1.81837,-4.126353 2.90625,-6.46875 0.46651,0.833267 0.9013,1.707985 1.5625,2.34375 2.03023,1.952161 4.94376,2.906247 7.375,2.90625 2.43125,-3e-6 5.4067,-1.065706 7.3125,-2.875 0.15639,-0.148477 0.22757,-0.399176 0.375,-0.5625 0.35235,0.456181 0.54844,0.975989 1,1.375 2.1481,1.898135 4.90027,2.562498 7.0625,2.5625 2.44692,-5e-6 5.26922,-1.048971 7.15625,-2.75 3.11178,1.702281 6.7,2.562499 10.28125,2.5625 3.26625,-2e-6 5.92521,-0.970583 8.8125,-2.28125 a 7.2676024,7.2676024 0 0 0 0.0312,-0.03125 c 1.75026,-0.803066 3.3225,-1.66067 4.875,-3.09375 1.5525,-1.43308 3.3437,-3.938298 3.34375,-7.15625 -7e-5,-2.670549 -1.32826,-5.462316 -3.03125,-7.1875 -0.40379,-0.40902 -1.02245,-0.655202 -1.53125,-1 0.47028,-0.348351 1.06759,-0.588388 1.4375,-1 0.009,-0.01023 0.0221,-0.02098 0.0312,-0.03125 0.006,-0.0064 -0.006,-0.02484 0,-0.03125 l 0.0312,0 c 1.55242,-1.766824 2.62493,-4.328161 2.625,-6.84375 -4e-5,-2.990847 -1.65344,-5.729855 -3.3125,-7.28125 -1.65906,-1.551395 -3.36341,-2.411479 -5.1875,-3.15625 a 7.2676024,7.2676024 0 0 0 -0.0312,-0.03125 c -2.74893,-1.107444 -5.47703,-1.843705 -8.40625,-1.84375 -4.31835,3.3e-5 -8.22905,2.039456 -11.34375,4.96875 -2.68726,-3.062798 -6.86546,-5.156217 -10.75,-5.15625 -1.78458,1.8e-5 -3.50325,0.440106 -5.15625,1.03125 -1.75123,-0.990116 -3.72398,-1.531229 -5.375,-1.53125 -1.99561,5.6e-5 -4.05458,0.787387 -5.8125,1.90625 -1.0944,-0.374218 -2.23119,-0.687469 -3.375,-0.6875 -3.48226,7.1e-5 -7.33729,2.468736 -9,5.21875 -0.007,0.01178 -0.0242,0.01946 -0.0312,0.03125 -0.19729,0.328396 -0.36794,0.754578 -0.5625,1.09375 -0.47782,-0.702635 -0.96552,-1.590547 -1.4375,-2.21875 -1.78473,-2.36347 -5.30051,-4.039956 -8.15625,-4.0625 -0.48479,-2.856096 -2.32287,-5.084117 -3.84375,-6.1875 -1.7541,-1.27258 -3.41449,-1.894487 -5.25,-2.46875 -2.69244,-0.841338 -5.17564,-1.406191 -7.84375,-1.40625 -5.279,4.7e-5 -10.42006,1.879186 -14.65625,5.09375 -0.58613,-1.456523 -1.40802,-2.809297 -2.5,-3.8125 -1.90616,-1.750841 -4.78717,-2.84365 -7.25,-2.84375 z" />
    <path
       sodipodi:type="inkscape:offset"
       inkscape:radius="3.7029774"
       inkscape:original="M -485.28125 28.09375 C -486.26565 28.093786 -487.1094 28.484411 -487.8125 29.28125 C -488.87502 30.484409 -489.89065 32.187532 -490.8125 34.40625 C -491.4844 36.281278 -492.15627 38.171901 -492.84375 40.03125 C -494.14064 43.546896 -495.95314 48.250016 -498.3125 54.1875 C -499.45314 50.765638 -500.65626 46.843767 -501.875 42.375 C -502.84376 39.000025 -503.57813 36.468778 -504.09375 34.78125 C -504.40626 33.437531 -504.71876 32.078157 -505.03125 30.71875 C -505.62501 29.156285 -506.65626 28.375036 -508.15625 28.375 C -509.03125 28.375036 -509.8125 28.656285 -510.46875 29.21875 C -511.15625 29.828159 -511.5 30.578158 -511.5 31.5 C -511.5 32.640656 -511.0625 34.687529 -510.1875 37.625 C -509.53125 39.734399 -508.89063 41.859397 -508.25 43.96875 C -505.92188 52.531262 -503.78126 59.07813 -501.875 63.625 C -501.23439 65.156249 -500.12501 65.906248 -498.5 65.90625 C -497.21877 65.906248 -496.23439 65.312499 -495.5625 64.09375 C -494.51564 62.203127 -493.62502 60.296879 -492.90625 58.40625 C -490.12502 51.187513 -488.03128 45.796893 -486.625 42.1875 C -485.50003 39.156275 -484.93753 37.593776 -484.90625 37.53125 C -484.20315 35.812528 -483.40628 34.34378 -482.5625 33.125 C -482.14066 32.515657 -481.93753 31.906282 -481.9375 31.28125 C -481.93753 30.390659 -482.26566 29.617222 -482.9375 29 C -483.6094 28.382848 -484.39065 28.093786 -485.28125 28.09375 z M -460.875 29.65625 C -464.73439 29.656284 -468.26564 30.929721 -471.46875 33.46875 C -474.67188 36.007841 -476.29688 38.7969 -476.34375 41.84375 C -476.39063 44.265645 -474.95313 46.140643 -472.0625 47.4375 C -469.92189 48.390641 -467.51564 48.875015 -464.8125 48.9375 C -461.32814 49.01564 -459.00002 49.29689 -457.84375 49.75 C -456.21877 50.375014 -455.40628 51.656262 -455.40625 53.625 C -455.40628 55.062509 -456.70315 56.390633 -459.3125 57.59375 C -461.82814 58.76563 -464.43752 59.343755 -467.125 59.34375 C -470.26564 59.343755 -472.29688 58.390631 -473.1875 56.46875 C -473.84376 55.031259 -474.87501 54.31251 -476.28125 54.3125 C -477.32813 54.31251 -478.125 54.632822 -478.71875 55.28125 C -479.3125 55.929696 -479.625 56.765632 -479.625 57.75 C -479.625 59.671879 -478.67188 61.343753 -476.75 62.8125 C -474.46876 64.578124 -471.34376 65.468749 -467.375 65.46875 C -462.87502 65.468749 -458.87502 64.671874 -455.375 63.09375 C -450.78128 61.015628 -448.46878 57.968756 -448.46875 53.9375 C -448.46878 50.625013 -449.59378 48.031266 -451.8125 46.15625 C -453.82815 44.46877 -456.56252 43.484396 -460.03125 43.21875 C -462.01564 43.109396 -464.00002 43.015646 -466 42.90625 C -467.14064 42.750021 -467.9922 42.476584 -468.5625 42.09375 C -469.13282 41.71096 -469.43751 41.218773 -469.4375 40.625 C -469.43751 39.4844 -468.50001 38.437526 -466.625 37.46875 C -464.81252 36.515653 -462.89064 36.015653 -460.875 36 C -460.12502 36.000028 -459.02346 36.156278 -457.5625 36.46875 C -456.10159 36.781277 -454.9844 36.937527 -454.25 36.9375 C -453.26565 36.937527 -452.46878 36.609402 -451.84375 35.90625 C -451.28128 35.281279 -451.00003 34.562529 -451 33.75 C -451.00003 32.609406 -452.39065 31.593782 -455.1875 30.71875 C -457.43752 30.015659 -459.34377 29.656284 -460.875 29.65625 z M -415.5625 38.4375 C -416.48438 38.437526 -417.27344 38.742213 -417.90625 39.3125 C -418.53906 39.882837 -418.84375 40.593773 -418.84375 41.46875 C -418.84375 41.921897 -418.80469 42.601584 -418.75 43.53125 C -418.69531 44.460957 -418.6875 45.187519 -418.6875 45.65625 C -418.6875 47.156267 -418.78125 49.23439 -419 51.90625 C -419.21875 54.578134 -419.34375 56.656257 -419.34375 58.15625 C -419.34375 58.593755 -419.28125 59.242192 -419.1875 60.125 C -419.09375 61.007816 -419.0625 61.687502 -419.0625 62.125 C -419.0625 63.015626 -418.76563 63.757813 -418.15625 64.34375 C -417.54688 64.929687 -416.75 65.218749 -415.8125 65.21875 C -414.87501 65.218749 -414.11719 64.929687 -413.5 64.34375 C -412.88282 63.757813 -412.56251 63.015626 -412.5625 62.125 C -412.56251 61.687502 -412.6172 61.007816 -412.71875 60.125 C -412.82032 59.242192 -412.87501 58.593755 -412.875 58.15625 C -412.87501 57.484382 -412.81251 56.796882 -412.71875 56.09375 C -412.60938 55.234384 -412.56251 54.546884 -412.53125 54.03125 C -411.75001 51.453138 -410.66407 49.335952 -409.28125 47.65625 C -407.89845 45.976581 -406.46876 45.125019 -405.03125 45.125 C -404.35939 45.125019 -404.03127 45.765643 -404.03125 47.0625 C -404.03127 47.343767 -404.06252 47.710954 -404.09375 48.15625 C -404.12502 48.601578 -404.12502 48.89064 -404.125 49 C -404.12502 49.406265 -404.16408 50.109389 -404.21875 51.09375 C -404.27345 52.078137 -404.28127 52.750011 -404.28125 53.15625 C -404.28127 54.671884 -404.17189 56.312508 -403.9375 58.03125 C -403.71877 59.656254 -403.50002 61.265628 -403.28125 62.875 C -403.06252 64.765624 -401.98439 65.718748 -400.0625 65.71875 C -399.14065 65.718748 -398.37502 65.421874 -397.75 64.84375 C -397.12502 64.265625 -396.81252 63.531251 -396.8125 62.65625 C -396.81252 61.453128 -396.97659 59.890629 -397.3125 57.96875 C -397.64846 56.046883 -397.81252 54.46876 -397.8125 53.25 C -397.81252 52.953136 -397.82815 52.468762 -397.8125 51.75 L -397.8125 50.0625 C -397.81252 46.765642 -398.18752 44.31252 -398.9375 42.65625 C -400.06252 40.187524 -402.07814 38.937525 -405.03125 38.9375 C -407.56251 38.937525 -409.96876 40.078149 -412.25 42.375 L -412.28125 42.125 C -412.42188 39.671899 -413.51563 38.437526 -415.5625 38.4375 z M -382.9375 39.125 C -386.25001 39.125025 -389.15626 41.031273 -391.65625 44.8125 C -393.85938 48.125016 -394.96875 51.328138 -394.96875 54.4375 C -394.96875 57.812506 -393.73438 60.531254 -391.28125 62.59375 C -388.95313 64.546875 -386.06251 65.531249 -382.625 65.53125 C -381.12501 65.531249 -379.18752 64.984374 -376.8125 63.90625 C -374.15627 62.687501 -372.84377 61.468753 -372.84375 60.25 C -372.84377 59.468755 -373.14846 58.76563 -373.75 58.15625 C -374.35158 57.546881 -375.06252 57.250007 -375.90625 57.25 C -376.31252 57.250007 -377.26564 57.640631 -378.78125 58.4375 C -380.29689 59.23438 -381.57814 59.625004 -382.625 59.625 C -384.46876 59.625004 -385.96876 59.20313 -387.09375 58.3125 C -388.28126 57.375007 -388.87501 56.078133 -388.875 54.4375 C -388.87501 52.781261 -388.18751 50.812513 -386.84375 48.53125 C -385.43751 46.171893 -384.14064 45.000019 -382.9375 45 C -381.04689 45.000019 -379.63283 45.335956 -378.6875 46.0625 C -377.74221 46.78908 -376.92189 47.156267 -376.25 47.15625 C -375.3594 47.156267 -374.65627 46.859392 -374.09375 46.21875 C -373.56252 45.625018 -373.28127 44.921894 -373.28125 44.15625 C -373.28127 42.750021 -374.6094 41.515648 -377.25 40.4375 C -379.42189 39.562524 -381.31251 39.125025 -382.9375 39.125 z M -424.75 39.65625 C -425.9219 39.656274 -426.8594 40.218774 -427.53125 41.34375 C -428.59377 43.109396 -429.67189 45.171894 -430.78125 47.5 C -431.14064 48.265641 -432.14064 50.484389 -433.8125 54.1875 C -436.76564 48.250016 -439.37501 43.828145 -441.59375 40.875 C -442.17188 40.109399 -442.96875 39.718774 -444 39.71875 C -444.875 39.718774 -445.64063 40.046899 -446.3125 40.6875 C -446.98438 41.328148 -447.3125 42.062522 -447.3125 42.90625 C -447.3125 43.500021 -447.10938 44.15627 -446.6875 44.875 C -446.29688 45.484394 -445.90625 46.093768 -445.53125 46.6875 C -441.79688 53.281261 -439.09376 58.265631 -437.375 61.65625 C -440.68751 68.812495 -442.34376 73.109366 -442.34375 74.5625 C -442.34376 75.437489 -441.98438 76.171863 -441.3125 76.75 C -440.64063 77.328112 -439.85938 77.624986 -438.96875 77.625 C -437.53126 77.624986 -436.53126 76.874987 -435.96875 75.40625 C -435.26564 73.499991 -434.76564 72.062492 -434.4375 71.09375 C -433.39064 68.406246 -431.87502 65.015624 -429.875 60.9375 C -426.18752 53.343761 -423.4844 47.796891 -421.78125 44.25 C -421.51565 43.703145 -421.37503 43.203146 -421.375 42.75 C -421.37503 41.890647 -421.71878 41.156273 -422.40625 40.5625 C -423.09377 39.968774 -423.87502 39.656274 -424.75 39.65625 z "
       xlink:href="#text3241"
       style="font-size:48px;font-style:normal;font-variant:normal;font-weight:bold;font-stretch:normal;line-height:125%;letter-spacing:0px;word-spacing:0px;fill:#000000;fill-opacity:1;stroke:none;font-family:Comic Sans MS;-inkscape-font-specification:Comic Sans MS Bold"
       id="path3249"
       inkscape:href="#text3241"
       d="m -483.28125,24.40625 c -1.96392,7.2e-5 -4.03422,0.988802 -5.3125,2.4375 -1.43521,1.625183 -2.59102,3.667651 -3.625,6.15625 a 3.7033477,3.7033477 0 0 0 -0.0937,0.15625 c -0.67411,1.881199 -1.32353,3.76417 -2,5.59375 -0.36961,1.001946 -1.10506,2.858149 -1.5625,4.0625 -0.14504,-0.518031 -0.29185,-0.872211 -0.4375,-1.40625 a 3.7033477,3.7033477 0 0 0 0,-0.0625 c -0.93891,-3.27098 -1.66093,-5.674871 -2.1875,-7.40625 -0.0142,-0.06086 -0.0171,-0.126559 -0.0312,-0.1875 -0.005,-0.01509 -0.0267,-0.04753 -0.0312,-0.0625 -0.29193,-1.256993 -0.58183,-2.537129 -0.875,-3.8125 a 3.7033477,3.7033477 0 0 0 -0.125,-0.46875 c -0.95391,-2.510201 -3.80804,-4.718683 -6.59375,-4.71875 -1.6684,6.9e-5 -3.42304,0.608207 -4.71875,1.71875 a 3.7033477,3.7033477 0 0 0 -0.0625,0.03125 c -1.35756,1.203356 -2.25,3.220111 -2.25,5.0625 0,2.08751 0.52455,4.122628 1.4375,7.1875 a 3.7033477,3.7033477 0 0 0 0.0312,0.03125 c 0.64004,2.057282 1.27385,4.136071 1.90625,6.21875 0.01,0.03163 0.0216,0.06212 0.0312,0.09375 2.34228,8.603846 4.49418,15.246898 6.5,20.03125 1.06191,2.538286 4.01687,4.531247 6.78125,4.53125 2.42525,-4e-6 5.02284,-1.606152 6.1875,-3.71875 1.12199,-2.026302 2.09076,-4.0661 2.875,-6.125 0.003,-0.0086 -0.003,-0.02263 0,-0.03125 2.77246,-7.19583 4.84749,-12.587773 6.25,-16.1875 a 3.7033477,3.7033477 0 0 0 0.0312,-0.0625 c 0.56465,-1.521446 0.99553,-2.658622 1.28125,-3.4375 0.13254,-0.361297 0.20945,-0.648758 0.28125,-0.84375 0.0958,-0.19148 0.001,5.87e-4 0.0312,-0.0625 0.0361,-0.09783 0.0793,-0.14922 0.0937,-0.1875 0.61178,-1.49548 1.26516,-2.747602 1.9375,-3.71875 0.76282,-1.101885 1.28118,-2.510293 1.28125,-3.9375 -6e-5,-1.800071 -0.82308,-3.746498 -2.1875,-5 -1.30084,-1.194845 -3.15199,-1.874932 -4.84375,-1.875 z m 24.40625,1.5625 c -4.67392,4.1e-5 -9.13724,1.606144 -12.90625,4.59375 -3.75983,2.980383 -6.18342,6.890492 -6.25,11.21875 -0.0759,3.923298 2.749,7.376434 6.4375,9.03125 a 3.7033477,3.7033477 0 0 0 0.0312,0 c 2.65675,1.182961 5.56186,1.740971 8.65625,1.8125 3.32221,0.0745 5.64996,0.535541 5.71875,0.5625 -0.23092,0.208312 -0.72974,0.589646 -1.6875,1.03125 a 3.7033477,3.7033477 0 0 0 0,0.03125 c -2.04973,0.954842 -4.09358,1.406254 -6.25,1.40625 -2.35415,4e-6 -2.50764,-0.330139 -2.6875,-0.71875 -0.004,-0.0077 0.004,-0.02355 0,-0.03125 l -0.0312,0 c -1.08327,-2.329599 -3.78406,-4.281231 -6.4375,-4.28125 -1.80219,1.7e-5 -3.85827,0.738738 -5.15625,2.15625 -1.22715,1.340192 -1.875,3.200678 -1.875,4.96875 0,3.131445 1.77015,6.035272 4.28125,7.96875 l 0,0.03125 c 0.006,0.0043 0.0257,-0.0042 0.0312,0 3.09615,2.386923 7.11253,3.406249 11.625,3.40625 4.93714,-10e-7 9.49331,-0.866831 13.53125,-2.6875 4.909,-2.220748 8.21275,-6.294213 8.8125,-11.09375 1.20698,2.209727 2.7122,4.88359 3.53125,6.46875 -1.21442,2.680779 -2.35839,5.234146 -3.0625,7.0625 -0.87825,2.280562 -1.46876,3.522801 -1.46875,5.65625 -2e-5,1.88895 0.9603,3.836461 2.3125,5 1.27256,1.094977 3.03653,1.749973 4.75,1.75 2.72547,-2.7e-5 5.53258,-2.149362 6.46875,-4.59375 a 3.7033477,3.7033477 0 0 0 0,-0.03125 c 0.68931,-1.868844 1.16233,-3.25599 1.5,-4.25 0.006,-0.0164 0.0248,-0.04604 0.0312,-0.0625 0.007,-0.0215 0.0241,-0.07268 0.0312,-0.09375 0.98997,-2.526744 2.43719,-5.767465 4.375,-9.71875 a 3.7033477,3.7033477 0 0 0 0.0312,0 c 1.66706,-3.433035 2.39234,-4.960471 3.65625,-7.5625 -0.0569,1.034926 -0.15625,2.336006 -0.15625,3.15625 0,0.790165 0.0606,1.474701 0.15625,2.375 0.0818,0.770274 0.125,1.332585 0.125,1.59375 0,1.713495 0.72885,3.6227 2.03125,4.875 1.3334,1.282123 3.20759,1.906248 4.90625,1.90625 1.69866,-2e-6 3.60117,-0.665677 4.875,-1.875 1.28557,-1.220493 2.06248,-3.127807 2.0625,-4.90625 -2e-5,-0.746007 -0.0473,-1.490269 -0.15625,-2.4375 -0.0953,-0.828207 -0.15625,-1.402421 -0.15625,-1.53125 -10e-6,-0.442186 0.0445,-0.959129 0.125,-1.5625 a 3.7033477,3.7033477 0 0 0 0.0312,-0.03125 c 0.0938,-0.737033 0.12154,-1.251362 0.15625,-1.75 0.27796,-0.868121 0.59672,-1.644149 0.9375,-2.34375 -0.003,0.191811 -0.0313,0.550622 -0.0312,0.6875 -2e-5,1.693826 0.11882,3.496484 0.375,5.375 0.21638,1.607515 0.44024,3.192197 0.65625,4.78125 l -0.0312,0 c 0.003,0.02177 0.0285,0.04067 0.0312,0.0625 0.19164,1.546957 0.84837,3.222952 2.1875,4.40625 1.35802,1.199994 3.11442,1.624998 4.6875,1.625 1.71685,-4e-6 3.54476,-0.671133 4.8125,-1.84375 0.64372,-0.595464 1.16601,-1.35829 1.53125,-2.1875 0.0226,0.01927 0.0397,0.04336 0.0625,0.0625 3.01501,2.529372 6.88681,3.781249 11.03125,3.78125 2.40002,-2e-6 4.70769,-0.740879 7.34375,-1.9375 1.54323,-0.708074 2.85388,-1.43964 3.96875,-2.46875 1.11487,-1.02911 2.15622,-2.623873 2.15625,-4.5625 -4e-5,-1.743976 -0.80595,-3.509541 -1.96875,-4.6875 -1.20387,-1.219457 -3.06892,-1.999986 -4.78125,-2 -1.38988,2.4e-5 -1.78596,0.293904 -2.4375,0.5625 -0.65154,0.268596 -1.33604,0.600005 -2.15625,1.03125 -1.19598,0.628814 -1.9993,0.78125 -2.125,0.78125 -1.2789,3e-6 -1.84102,-0.281687 -2.15625,-0.53125 a 3.7033477,3.7033477 0 0 0 -0.0312,0 c -0.35509,-0.280327 -0.375,-0.221541 -0.375,-0.96875 0,-0.628271 0.39383,-2.060773 1.53125,-4 0.006,-0.0099 -0.006,-0.02128 0,-0.03125 0.53599,-0.893949 0.97233,-1.414417 1.21875,-1.65625 0.77505,0.08876 1.52406,0.268493 1.5,0.25 1.28805,0.990033 2.66642,1.843801 4.6875,1.84375 1.70021,3.2e-5 3.7051,-0.81101 4.90625,-2.15625 0.004,-0.0044 -0.004,-0.02685 0,-0.03125 l 0.0312,0 c 1.05093,-1.190129 1.71871,-2.842223 1.71875,-4.5 -3e-5,-1.868873 -0.98612,-3.593311 -2.15625,-4.6875 -1.17013,-1.094189 -2.51673,-1.824859 -4.09375,-2.46875 a 3.7033477,3.7033477 0 0 0 -0.0312,0 c -2.46593,-0.993435 -4.77291,-1.562465 -7.0625,-1.5625 -4.7197,3.6e-5 -8.87008,2.928323 -11.78125,7.3125 -0.008,0.01247 -0.023,0.01876 -0.0312,0.03125 -0.0892,0.134326 -0.13233,0.271464 -0.21875,0.40625 -0.1908,-0.686459 -0.30783,-1.431065 -0.59375,-2.0625 -1.62152,-3.558228 -5.47072,-5.874966 -9.46875,-5.875 -1.98651,2e-5 -3.89934,0.545435 -5.6875,1.46875 -1.30938,-1.300668 -3.17886,-1.968729 -4.84375,-1.96875 -1.73772,4.9e-5 -3.52977,0.656507 -4.8125,1.8125 -0.20073,0.18091 -0.2919,0.474833 -0.46875,0.6875 -1.15245,-0.751671 -2.48731,-1.281211 -3.90625,-1.28125 -2.35679,4.8e-5 -4.79799,1.508377 -5.96875,3.46875 -1.13783,1.890792 -2.24149,4.031307 -3.375,6.40625 -1.59937,-2.817743 -3.10766,-5.292698 -4.53125,-7.1875 -1.19922,-1.588087 -3.4087,-2.624954 -5.375,-2.625 -1.79175,4.9e-5 -3.61226,0.803773 -4.84375,1.96875 0.92984,-1.190695 1.53119,-2.733356 1.53125,-4.25 -5e-5,-2.075167 -1.32671,-3.728443 -2.5625,-4.625 -1.23579,-0.896557 -2.5976,-1.430302 -4.21875,-1.9375 -2.47546,-0.773537 -4.6707,-1.218703 -6.78125,-1.21875 z m 11.6875,12.5 c -0.96401,1.095969 -1.61084,2.544968 -1.71875,4.03125 -1.19181,-0.779663 -2.43089,-1.483813 -3.84375,-1.9375 0.15375,0.0061 0.34623,0.06251 0.5,0.0625 1.75901,4.8e-5 3.77263,-0.783193 5.0625,-2.15625 z m -9.78125,14.65625 c -0.0376,-0.03461 -0.12501,0.02502 -0.125,0.5 10e-6,-0.348976 0.13766,-0.533393 0.0625,-0.46875 0.002,-0.01912 0.0735,-0.0211 0.0625,-0.03125 z" />
    <text
       xml:space="preserve"
       style="font-size:48px;font-style:normal;font-variant:normal;font-weight:bold;font-stretch:normal;line-height:125%;letter-spacing:0px;word-spacing:0px;fill:#ffff00;fill-opacity:1;stroke:none;font-family:Comic Sans MS;-inkscape-font-specification:Comic Sans MS Bold"
       x="-513.18304"
       y="64.040184"
       id="text3241"
       sodipodi:linespacing="125%"><tspan
         sodipodi:role="line"
         id="tspan3243"
         x="-513.18304"
         y="64.040184">VSync</tspan></text>
  </g>
</svg>
