<?xml version="1.0" encoding="UTF-8" standalone="no"?>
<!-- Created with Inkscape (http://www.inkscape.org/) -->

<svg
   xmlns:dc="http://purl.org/dc/elements/1.1/"
   xmlns:cc="http://creativecommons.org/ns#"
   xmlns:rdf="http://www.w3.org/1999/02/22-rdf-syntax-ns#"
   xmlns:svg="http://www.w3.org/2000/svg"
   xmlns="http://www.w3.org/2000/svg"
   xmlns:xlink="http://www.w3.org/1999/xlink"
   xmlns:sodipodi="http://sodipodi.sourceforge.net/DTD/sodipodi-0.dtd"
   xmlns:inkscape="http://www.inkscape.org/namespaces/inkscape"
   width="128"
   height="128"
   id="svg2"
   version="1.1"
   inkscape:version="0.48.4 r9939"
   sodipodi:docname="andengine.svg"
   inkscape:export-filename="E:\android\AndEngine\ext\img\badge.png"
   inkscape:export-xdpi="90"
   inkscape:export-ydpi="90">
  <defs
     id="defs4">
    <linearGradient
       id="linearGradient3675">
      <stop
         style="stop-color:#6ac335;stop-opacity:1;"
         offset="0"
         id="stop3677" />
      <stop
         id="stop3693"
         offset="0.67358595"
         style="stop-color:#6ac335;stop-opacity:0.37988827;" />
      <stop
         style="stop-color:#6ac335;stop-opacity:0;"
         offset="1"
         id="stop3679" />
    </linearGradient>
    <linearGradient
       id="linearGradient3942">
      <stop
         style="stop-color:#6ac335;stop-opacity:1;"
         offset="0"
         id="stop3944" />
      <stop
         id="stop3630"
         offset="0.38674596"
         style="stop-color:#6ac335;stop-opacity:1" />
      <stop
         style="stop-color:#6ac335;stop-opacity:0;"
         offset="1"
         id="stop3946" />
    </linearGradient>
    <linearGradient
       id="linearGradient3851">
      <stop
         id="stop3865"
         offset="0"
         style="stop-color:#6ac335;stop-opacity:0;" />
      <stop
         id="stop3863"
         offset="0.90119064"
         style="stop-color:#939393;stop-opacity:1;" />
      <stop
         style="stop-color:#6ac335;stop-opacity:1;"
         offset="0.9287079"
         id="stop3869" />
      <stop
         style="stop-color:#ffffff;stop-opacity:0;"
         offset="1"
         id="stop3855" />
    </linearGradient>
    <linearGradient
       id="linearGradient3829">
      <stop
         style="stop-color:#000000;stop-opacity:0;"
         offset="0"
         id="stop3831" />
      <stop
         id="stop3837"
         offset="0.08081111"
         style="stop-color:#000000;stop-opacity:0.86033517;" />
      <stop
         style="stop-color:#000000;stop-opacity:0;"
         offset="1"
         id="stop3833" />
    </linearGradient>
    <inkscape:perspective
       sodipodi:type="inkscape:persp3d"
       inkscape:vp_x="0 : 526.18109 : 1"
       inkscape:vp_y="0 : 1000 : 0"
       inkscape:vp_z="744.09448 : 526.18109 : 1"
       inkscape:persp3d-origin="372.04724 : 350.78739 : 1"
       id="perspective10" />
    <inkscape:perspective
       id="perspective2835"
       inkscape:persp3d-origin="0.5 : 0.33333333 : 1"
       inkscape:vp_z="1 : 0.5 : 1"
       inkscape:vp_y="0 : 1000 : 0"
       inkscape:vp_x="0 : 0.5 : 1"
       sodipodi:type="inkscape:persp3d" />
    <inkscape:perspective
       id="perspective3694"
       inkscape:persp3d-origin="0.5 : 0.33333333 : 1"
       inkscape:vp_z="1 : 0.5 : 1"
       inkscape:vp_y="0 : 1000 : 0"
       inkscape:vp_x="0 : 0.5 : 1"
       sodipodi:type="inkscape:persp3d" />
    <inkscape:perspective
       id="perspective2915"
       inkscape:persp3d-origin="0.5 : 0.33333333 : 1"
       inkscape:vp_z="1 : 0.5 : 1"
       inkscape:vp_y="0 : 1000 : 0"
       inkscape:vp_x="0 : 0.5 : 1"
       sodipodi:type="inkscape:persp3d" />
    <linearGradient
       inkscape:collect="always"
       xlink:href="#linearGradient3829"
       id="linearGradient3835"
       x1="248.22847"
       y1="845.06549"
       x2="248.22847"
       y2="789.3996"
       gradientUnits="userSpaceOnUse"
       gradientTransform="matrix(1,0,0,1.1654092,0,-134.82366)" />
    <radialGradient
       inkscape:collect="always"
       xlink:href="#linearGradient3851"
       id="radialGradient3859"
       cx="220.5"
       cy="99.5"
       fx="220.5"
       fy="99.5"
       r="84.5"
       gradientUnits="userSpaceOnUse" />
    <radialGradient
       inkscape:collect="always"
       xlink:href="#linearGradient3942"
       id="radialGradient3948"
       cx="144.49585"
       cy="86.383949"
       fx="144.49585"
       fy="86.383949"
       r="220.76167"
       gradientTransform="matrix(0.64284754,0.00515087,-0.00482929,0.74489324,52.024217,21.29285)"
       gradientUnits="userSpaceOnUse" />
    <radialGradient
       inkscape:collect="always"
       xlink:href="#linearGradient3675"
       id="radialGradient3683"
       cx="220.5"
       cy="99.5"
       fx="220.5"
       fy="99.5"
       r="87.5"
       gradientUnits="userSpaceOnUse"
       gradientTransform="matrix(0.87402472,0,0,0.87172596,27.777549,12.763266)" />
    <radialGradient
       inkscape:collect="always"
       xlink:href="#linearGradient3675"
       id="radialGradient2881"
       gradientUnits="userSpaceOnUse"
       gradientTransform="matrix(0.87402472,0,0,0.87172596,27.777549,12.763266)"
       cx="220.5"
       cy="99.5"
       fx="220.5"
       fy="99.5"
       r="87.5" />
    <radialGradient
       inkscape:collect="always"
       xlink:href="#linearGradient3851"
       id="radialGradient2883"
       gradientUnits="userSpaceOnUse"
       cx="220.5"
       cy="99.5"
       fx="220.5"
       fy="99.5"
       r="84.5" />
  </defs>
  <sodipodi:namedview
     id="base"
     pagecolor="#ffffff"
     bordercolor="#666666"
     borderopacity="1.0"
     inkscape:pageopacity="0"
     inkscape:pageshadow="2"
     inkscape:zoom="1.4142136"
     inkscape:cx="103.0608"
     inkscape:cy="-31.918565"
     inkscape:document-units="px"
     inkscape:current-layer="layer1"
     showgrid="false"
     inkscape:window-width="1366"
     inkscape:window-height="716"
     inkscape:window-x="-8"
     inkscape:window-y="-8"
     inkscape:window-maximized="1" />
  <metadata
     id="metadata7">
    <rdf:RDF>
      <cc:Work
         rdf:about="">
        <dc:format>image/svg+xml</dc:format>
        <dc:type
           rdf:resource="http://purl.org/dc/dcmitype/StillImage" />
        <dc:title />
      </cc:Work>
    </rdf:RDF>
  </metadata>
  <g
     inkscape:label="Ebene 1"
     inkscape:groupmode="layer"
     id="layer1"
     transform="translate(0,-924.36218)">
    <g
       id="g2865"
       transform="matrix(0.6396561,0,0,0.6396561,-89.517458,417.55727)">
      <path
         sodipodi:type="arc"
         style="fill:url(#radialGradient2881);fill-opacity:1;stroke:none"
         id="path3632"
         sodipodi:cx="220.5"
         sodipodi:cy="99.5"
         sodipodi:rx="80.5"
         sodipodi:ry="80.5"
         d="M 301,99.5 C 301,143.95892 264.95892,180 220.5,180 176.04108,180 140,143.95892 140,99.5 140,55.041078 176.04108,19 220.5,19 264.95892,19 301,55.041078 301,99.5 z"
         transform="matrix(1.2429039,0,0,1.2429039,-34.060319,768.69324)" />
      <path
         transform="translate(19.5,792.86218)"
         d="M 301,99.5 C 301,143.95892 264.95892,180 220.5,180 176.04108,180 140,143.95892 140,99.5 140,55.041078 176.04108,19 220.5,19 264.95892,19 301,55.041078 301,99.5 z"
         sodipodi:ry="80.5"
         sodipodi:rx="80.5"
         sodipodi:cy="99.5"
         sodipodi:cx="220.5"
         id="path3843"
         style="fill:#ffffff;fill-opacity:1;stroke:url(#radialGradient2883);stroke-width:14;stroke-miterlimit:4;stroke-dasharray:none"
         sodipodi:type="arc" />
      <g
         transform="matrix(0.25578178,0,0,0.25578178,219.71999,788.7603)"
         style="fill:#6ac335;fill-opacity:1"
         id="g3228" />
      <g
         style="font-size:23.7490654px;font-style:normal;font-variant:normal;font-weight:bold;font-stretch:normal;text-align:start;line-height:125%;writing-mode:lr-tb;text-anchor:start;fill:#000000;fill-opacity:1;stroke:none;font-family:Calibri;-inkscape-font-specification:Calibri Bold"
         id="text2816">
        <path
           d="m 198.43334,935.92927 c -10e-6,0.10824 -0.0387,0.19327 -0.11596,0.25512 -0.0773,0.0618 -0.19908,0.1063 -0.36528,0.13336 -0.16622,0.0271 -0.41168,0.0406 -0.73636,0.0406 -0.3479,0 -0.60108,-0.0135 -0.75955,-0.0406 -0.15849,-0.0271 -0.27059,-0.0715 -0.33629,-0.13336 -0.0657,-0.0619 -0.0986,-0.14688 -0.0986,-0.25512 l 0,-0.82333 c -0.4252,0.45612 -0.91031,0.81174 -1.45533,1.06686 -0.54503,0.25511 -1.14996,0.38267 -1.81481,0.38267 -0.54889,0 -1.05332,-0.0715 -1.5133,-0.21453 -0.45999,-0.14302 -0.85813,-0.35562 -1.19442,-0.63779 -0.33629,-0.28218 -0.5972,-0.63199 -0.78274,-1.04946 -0.18554,-0.41746 -0.27831,-0.9045 -0.27831,-1.46112 0,-0.603 0.11789,-1.12677 0.35368,-1.57129 0.23579,-0.44452 0.58755,-0.81173 1.05526,-1.10164 0.46771,-0.2899 1.04946,-0.50443 1.74523,-0.64359 0.69577,-0.13915 1.50364,-0.20873 2.42361,-0.20874 l 1.00887,0 0,-0.62619 c 0,-0.32469 -0.0329,-0.6088 -0.0986,-0.85232 -0.0657,-0.24352 -0.17395,-0.44645 -0.3247,-0.60881 -0.15076,-0.16233 -0.35176,-0.28216 -0.603,-0.35948 -0.25126,-0.0773 -0.56242,-0.11595 -0.9335,-0.11596 -0.48704,10e-6 -0.9219,0.0541 -1.30457,0.16235 -0.38268,0.10824 -0.7209,0.22806 -1.01467,0.35948 -0.29378,0.13143 -0.53923,0.25126 -0.73636,0.35948 -0.19714,0.10824 -0.35755,0.16236 -0.48125,0.16235 -0.085,1e-5 -0.16041,-0.027 -0.22612,-0.0812 -0.0657,-0.0541 -0.11983,-0.13141 -0.16235,-0.23192 -0.0425,-0.10049 -0.0754,-0.22418 -0.0986,-0.37108 -0.0232,-0.14688 -0.0348,-0.30922 -0.0348,-0.48704 0,-0.23965 0.0193,-0.42905 0.058,-0.56821 0.0386,-0.13915 0.11209,-0.26478 0.22032,-0.37688 0.10823,-0.11209 0.29764,-0.23578 0.56822,-0.37108 0.27058,-0.13528 0.58754,-0.26091 0.95089,-0.37688 0.36334,-0.11595 0.75955,-0.21065 1.18861,-0.28411 0.42906,-0.0734 0.87165,-0.11015 1.32777,-0.11016 0.81173,10e-6 1.50557,0.0793 2.08152,0.23772 0.57594,0.1585 1.04945,0.40202 1.42054,0.73056 0.37107,0.32857 0.64165,0.75184 0.81174,1.26979 0.17006,0.51797 0.2551,1.13257 0.25511,1.8438 z m -2.86427,-4.42975 -1.11323,0 c -0.47159,0 -0.87359,0.0348 -1.20601,0.10436 -0.33243,0.0696 -0.60301,0.17395 -0.81174,0.3131 -0.20873,0.13916 -0.36141,0.30731 -0.45805,0.50444 -0.0966,0.19714 -0.14495,0.42326 -0.14495,0.67838 0,0.43292 0.13722,0.77308 0.41167,1.02046 0.27444,0.24739 0.65518,0.37108 1.14222,0.37108 0.40973,0 0.78661,-0.10436 1.13064,-0.3131 0.34401,-0.20873 0.69383,-0.51409 1.04945,-0.9161 z"
           style="font-size:23.7490654px;font-style:normal;font-variant:normal;font-weight:bold;font-stretch:normal;text-align:start;line-height:125%;writing-mode:lr-tb;text-anchor:start;fill:#6c6a69;fill-opacity:1;font-family:Calibri;-inkscape-font-specification:Calibri Bold"
           id="path7987" />
        <path
           d="m 211.23557,935.89449 c -1e-5,0.0773 -0.0232,0.14495 -0.0696,0.20293 -0.0464,0.058 -0.12371,0.1063 -0.23193,0.14495 -0.10824,0.0387 -0.25706,0.0676 -0.44645,0.087 -0.18942,0.0193 -0.42328,0.029 -0.70158,0.029 -0.28604,0 -0.52377,-0.01 -0.71316,-0.029 -0.18942,-0.0193 -0.33823,-0.0483 -0.44646,-0.087 -0.10824,-0.0387 -0.18555,-0.087 -0.23192,-0.14495 -0.0464,-0.058 -0.0696,-0.12563 -0.0696,-0.20293 l 0,-5.90248 c -1e-5,-0.5025 -0.0367,-0.89677 -0.11016,-1.18282 -0.0735,-0.28603 -0.17975,-0.53148 -0.3189,-0.73636 -0.13916,-0.20486 -0.3189,-0.36334 -0.53922,-0.47544 -0.22034,-0.11209 -0.47739,-0.16814 -0.77115,-0.16815 -0.37109,10e-6 -0.74603,0.1353 -1.12484,0.40587 -0.37881,0.27059 -0.77308,0.66486 -1.18281,1.18282 l 0,6.87656 c -1e-5,0.0773 -0.0232,0.14495 -0.0696,0.20293 -0.0464,0.058 -0.12563,0.1063 -0.23772,0.14495 -0.1121,0.0387 -0.26092,0.0676 -0.44646,0.087 -0.18554,0.0193 -0.42133,0.029 -0.70737,0.029 -0.28604,0 -0.52183,-0.01 -0.70736,-0.029 -0.18555,-0.0193 -0.33436,-0.0483 -0.44646,-0.087 -0.1121,-0.0387 -0.19134,-0.087 -0.23772,-0.14495 -0.0464,-0.058 -0.0696,-0.12563 -0.0696,-0.20293 l 0,-10.34384 c 0,-0.0773 0.0193,-0.14494 0.058,-0.20293 0.0387,-0.058 0.10823,-0.10629 0.20873,-0.14495 0.1005,-0.0386 0.22999,-0.0676 0.38848,-0.087 0.15848,-0.0193 0.35754,-0.029 0.5972,-0.029 0.24739,10e-6 0.45225,0.01 0.6146,0.029 0.16235,0.0193 0.28797,0.0483 0.37688,0.087 0.0889,0.0387 0.15268,0.087 0.19134,0.14495 0.0387,0.058 0.058,0.12564 0.058,0.20293 l 0,1.19442 c 0.57207,-0.61846 1.15382,-1.08231 1.74523,-1.39155 0.5914,-0.30922 1.20793,-0.46384 1.8496,-0.46385 0.70349,10e-6 1.29683,0.11597 1.78002,0.34789 0.48316,0.23193 0.87357,0.54696 1.17122,0.94509 0.29762,0.39815 0.51215,0.86393 0.64359,1.39734 0.13141,0.53344 0.19712,1.1751 0.19713,1.92498 z"
           style="font-size:23.7490654px;font-style:normal;font-variant:normal;font-weight:bold;font-stretch:normal;text-align:start;line-height:125%;writing-mode:lr-tb;text-anchor:start;fill:#6c6a69;fill-opacity:1;font-family:Calibri;-inkscape-font-specification:Calibri Bold"
           id="path7989" />
        <path
           d="m 223.92184,935.89449 c -1e-5,0.085 -0.0193,0.15654 -0.058,0.21453 -0.0387,0.058 -0.10438,0.10629 -0.19714,0.14495 -0.0928,0.0387 -0.2184,0.0657 -0.37687,0.0812 -0.15849,0.0155 -0.3537,0.0232 -0.58561,0.0232 -0.2474,0 -0.4484,-0.008 -0.60301,-0.0232 -0.15462,-0.0155 -0.28025,-0.0425 -0.37687,-0.0812 -0.0966,-0.0387 -0.16622,-0.087 -0.20873,-0.14495 -0.0425,-0.058 -0.0638,-0.12949 -0.0638,-0.21453 l 0,-1.14803 c -0.53344,0.57208 -1.09199,1.0166 -1.67566,1.33357 -0.58368,0.31696 -1.23114,0.47544 -1.94237,0.47544 -0.78854,0 -1.45533,-0.15268 -2.00034,-0.45805 -0.54503,-0.30537 -0.98955,-0.71703 -1.33357,-1.235 -0.34402,-0.51796 -0.59334,-1.1229 -0.74796,-1.81481 -0.15461,-0.6919 -0.23192,-1.42053 -0.23192,-2.18589 0,-0.91996 0.0986,-1.74715 0.2957,-2.48159 0.19714,-0.73442 0.48511,-1.36061 0.86392,-1.87859 0.37881,-0.51795 0.85039,-0.91609 1.41474,-1.19441 0.56435,-0.27829 1.21373,-0.41745 1.94817,-0.41746 0.5798,10e-6 1.1055,0.11791 1.57708,0.35368 0.47157,0.23581 0.93929,0.58176 1.40315,1.03787 l 0,-5.60098 c -10e-6,-0.0773 0.0213,-0.14687 0.0638,-0.20873 0.0425,-0.0618 0.11982,-0.11401 0.23193,-0.15655 0.11209,-0.0425 0.26091,-0.0754 0.44645,-0.0986 0.18553,-0.0232 0.42132,-0.0348 0.70737,-0.0348 0.28603,2e-5 0.52182,0.0116 0.70737,0.0348 0.18553,0.0232 0.33242,0.0561 0.44066,0.0986 0.10822,0.0425 0.18553,0.0947 0.23192,0.15655 0.0464,0.0619 0.0696,0.13144 0.0696,0.20873 z m -2.89905,-6.91135 c -0.41748,-0.52569 -0.81755,-0.92769 -1.20021,-1.20601 -0.38269,-0.2783 -0.78275,-0.41746 -1.20021,-0.41746 -0.37882,0 -0.70544,0.0947 -0.97988,0.2841 -0.27445,0.18942 -0.49478,0.4426 -0.66099,0.75956 -0.16621,0.31697 -0.28991,0.67065 -0.37108,1.06105 -0.0812,0.39041 -0.12176,0.79048 -0.12176,1.20021 0,0.43293 0.0348,0.85426 0.10437,1.26399 0.0696,0.40973 0.1836,0.77502 0.34209,1.09584 0.15847,0.32083 0.36914,0.57788 0.63199,0.77115 0.26284,0.19327 0.59527,0.28991 0.99728,0.2899 0.20099,10e-6 0.39619,-0.029 0.58561,-0.087 0.18939,-0.058 0.38266,-0.15268 0.57981,-0.2841 0.19713,-0.13143 0.40006,-0.30344 0.6088,-0.51604 0.20872,-0.21259 0.43678,-0.47351 0.68418,-0.78274 z"
           style="font-size:23.7490654px;font-style:normal;font-variant:normal;font-weight:bold;font-stretch:normal;text-align:start;line-height:125%;writing-mode:lr-tb;text-anchor:start;fill:#6c6a69;fill-opacity:1;font-family:Calibri;-inkscape-font-specification:Calibri Bold"
           id="path7991" />
        <path
           d="m 236.42257,930.42107 c -1e-5,0.35562 -0.0793,0.61847 -0.23772,0.78854 -0.15849,0.17008 -0.37689,0.25512 -0.65519,0.25512 l -6.29675,0 c 0,0.44066 0.0522,0.84073 0.15655,1.20021 0.10436,0.35948 0.27058,0.66485 0.49864,0.9161 0.22805,0.25125 0.52182,0.44259 0.88131,0.57401 0.35948,0.13143 0.79047,0.19714 1.29298,0.19714 0.51023,0 0.95861,-0.0367 1.34516,-0.11017 0.38653,-0.0734 0.72089,-0.15461 1.00308,-0.24352 0.28216,-0.0889 0.51602,-0.17007 0.70157,-0.24352 0.18553,-0.0734 0.33628,-0.11016 0.45225,-0.11016 0.0696,0 0.12755,0.0135 0.17394,0.0406 0.0464,0.0271 0.085,0.0754 0.11597,0.14495 0.0309,0.0696 0.0522,0.16815 0.0638,0.2957 0.0116,0.12756 0.0174,0.28798 0.0174,0.48124 -1e-5,0.17008 -0.004,0.31504 -0.0116,0.43486 -0.008,0.11983 -0.0193,0.22227 -0.0348,0.3073 -0.0155,0.085 -0.0387,0.15655 -0.0696,0.21453 -0.0309,0.058 -0.0715,0.11403 -0.12176,0.16815 -0.0503,0.0541 -0.18749,0.12756 -0.41167,0.22033 -0.2242,0.0928 -0.51024,0.1836 -0.85812,0.27251 -0.3479,0.0889 -0.74603,0.16621 -1.19441,0.23192 -0.4484,0.0657 -0.92771,0.0986 -1.43793,0.0986 -0.91998,0 -1.72591,-0.11596 -2.41782,-0.34789 -0.69191,-0.23192 -1.26978,-0.58367 -1.73363,-1.05525 -0.46385,-0.47158 -0.8098,-1.06685 -1.03786,-1.78582 -0.22806,-0.71896 -0.34209,-1.56162 -0.34209,-2.52798 0,-0.91996 0.11983,-1.74909 0.35948,-2.48739 0.23966,-0.73828 0.58754,-1.36448 1.04366,-1.87859 0.45612,-0.51408 1.0108,-0.90642 1.66406,-1.17701 0.65325,-0.27057 1.38961,-0.40586 2.20908,-0.40587 0.86584,10e-6 1.60607,0.12757 2.22068,0.38268 0.61459,0.25512 1.11902,0.60881 1.5133,1.06105 0.39427,0.45226 0.68417,0.98762 0.86972,1.60608 0.18553,0.61847 0.2783,1.29105 0.27831,2.01774 z m -2.82948,-0.83493 c 0.0232,-0.81946 -0.14109,-1.46305 -0.49284,-1.93077 -0.35176,-0.46771 -0.89485,-0.70156 -1.62927,-0.70157 -0.37108,10e-6 -0.69384,0.0696 -0.96828,0.20873 -0.27445,0.13916 -0.50251,0.32664 -0.68418,0.56242 -0.18168,0.23579 -0.32083,0.5141 -0.41746,0.83492 -0.0966,0.32084 -0.15269,0.66293 -0.16815,1.02627 z"
           style="font-size:23.7490654px;font-style:normal;font-variant:normal;font-weight:bold;font-stretch:normal;text-align:start;line-height:125%;writing-mode:lr-tb;text-anchor:start;fill:#6ac335;fill-opacity:1;font-family:Calibri;-inkscape-font-specification:Calibri Bold"
           id="path7993" />
        <path
           d="m 248.71457,935.89449 c -2e-5,0.0773 -0.0232,0.14495 -0.0696,0.20293 -0.0464,0.058 -0.12371,0.1063 -0.23193,0.14495 -0.10824,0.0387 -0.25706,0.0676 -0.44645,0.087 -0.18942,0.0193 -0.42327,0.029 -0.70157,0.029 -0.28605,0 -0.52377,-0.01 -0.71317,-0.029 -0.18941,-0.0193 -0.33823,-0.0483 -0.44645,-0.087 -0.10825,-0.0387 -0.18555,-0.087 -0.23193,-0.14495 -0.0464,-0.058 -0.0696,-0.12563 -0.0696,-0.20293 l 0,-5.90248 c -1e-5,-0.5025 -0.0367,-0.89677 -0.11016,-1.18282 -0.0735,-0.28603 -0.17975,-0.53148 -0.3189,-0.73636 -0.13916,-0.20486 -0.3189,-0.36334 -0.53922,-0.47544 -0.22034,-0.11209 -0.47739,-0.16814 -0.77115,-0.16815 -0.37109,10e-6 -0.74603,0.1353 -1.12483,0.40587 -0.37882,0.27059 -0.77309,0.66486 -1.18282,1.18282 l 0,6.87656 c 0,0.0773 -0.0232,0.14495 -0.0696,0.20293 -0.0464,0.058 -0.12563,0.1063 -0.23772,0.14495 -0.1121,0.0387 -0.26092,0.0676 -0.44645,0.087 -0.18555,0.0193 -0.42134,0.029 -0.70737,0.029 -0.28605,0 -0.52184,-0.01 -0.70737,-0.029 -0.18554,-0.0193 -0.33436,-0.0483 -0.44646,-0.087 -0.1121,-0.0387 -0.19134,-0.087 -0.23772,-0.14495 -0.0464,-0.058 -0.0696,-0.12563 -0.0696,-0.20293 l 0,-10.34384 c 0,-0.0773 0.0193,-0.14494 0.058,-0.20293 0.0387,-0.058 0.10823,-0.10629 0.20874,-0.14495 0.10049,-0.0386 0.22999,-0.0676 0.38847,-0.087 0.15848,-0.0193 0.35755,-0.029 0.59721,-0.029 0.24738,10e-6 0.45224,0.01 0.61459,0.029 0.16235,0.0193 0.28797,0.0483 0.37688,0.087 0.0889,0.0387 0.15268,0.087 0.19134,0.14495 0.0386,0.058 0.058,0.12564 0.058,0.20293 l 0,1.19442 c 0.57208,-0.61846 1.15382,-1.08231 1.74523,-1.39155 0.5914,-0.30922 1.20794,-0.46384 1.8496,-0.46385 0.7035,10e-6 1.29684,0.11597 1.78002,0.34789 0.48317,0.23193 0.87357,0.54696 1.17122,0.94509 0.29762,0.39815 0.51215,0.86393 0.64359,1.39734 0.13141,0.53344 0.19712,1.1751 0.19714,1.92498 z"
           style="font-size:23.7490654px;font-style:normal;font-variant:normal;font-weight:bold;font-stretch:normal;text-align:start;line-height:125%;writing-mode:lr-tb;text-anchor:start;fill:#6ac335;fill-opacity:1;font-family:Calibri;-inkscape-font-specification:Calibri Bold"
           id="path7995" />
        <path
           d="m 260.91379,926.26962 c -1e-5,0.37109 -0.0425,0.64553 -0.12755,0.82333 -0.0851,0.17782 -0.18942,0.26672 -0.3131,0.26672 l -1.21761,0 c 0.17007,0.18554 0.29183,0.39621 0.36529,0.63199 0.0734,0.2358 0.11015,0.48125 0.11016,0.73636 -10e-6,0.60301 -0.10051,1.13837 -0.3015,1.60608 -0.20101,0.46772 -0.48898,0.86199 -0.86392,1.18281 -0.37495,0.32083 -0.82721,0.56436 -1.35676,0.73056 -0.52957,0.16622 -1.11904,0.24933 -1.76842,0.24932 -0.33243,10e-6 -0.6494,-0.0406 -0.95089,-0.12176 -0.30151,-0.0812 -0.53343,-0.17587 -0.69578,-0.28411 -0.0928,0.10051 -0.17588,0.22034 -0.24932,0.35949 -0.0734,0.13916 -0.11016,0.29377 -0.11016,0.46385 0,0.22419 0.0986,0.4078 0.2957,0.55082 0.19714,0.14302 0.47351,0.22226 0.82913,0.23772 l 2.51638,0.0928 c 0.58754,0.0232 1.1113,0.1063 1.57129,0.24932 0.45998,0.14302 0.84652,0.34402 1.15963,0.603 0.31308,0.25899 0.55274,0.57015 0.71896,0.9335 0.1662,0.36335 0.24931,0.77694 0.24932,1.24079 -10e-6,0.51024 -0.11211,0.99148 -0.33629,1.44373 -0.2242,0.45225 -0.56049,0.84459 -1.00887,1.17702 -0.4484,0.33242 -1.01081,0.59527 -1.68725,0.78854 -0.67646,0.19327 -1.46693,0.2899 -2.37143,0.28991 -0.88132,-10e-6 -1.63314,-0.0696 -2.25547,-0.20873 -0.62233,-0.13916 -1.13256,-0.33243 -1.5307,-0.57981 -0.39814,-0.24739 -0.68804,-0.5431 -0.86971,-0.88712 -0.18168,-0.34402 -0.27252,-0.7209 -0.27252,-1.13063 0,-0.25512 0.0329,-0.49864 0.0986,-0.73056 0.0657,-0.23192 0.16235,-0.45418 0.28991,-0.66678 0.12756,-0.2126 0.2841,-0.41553 0.46965,-0.6088 0.18553,-0.19327 0.39813,-0.37881 0.63779,-0.55662 -0.33243,-0.17781 -0.58948,-0.4194 -0.77115,-0.72477 -0.18168,-0.30536 -0.27251,-0.63972 -0.27251,-1.00307 0,-0.45611 0.10436,-0.87165 0.3131,-1.24659 0.20873,-0.37494 0.4793,-0.71317 0.81173,-1.01467 -0.27058,-0.27058 -0.48704,-0.59527 -0.64939,-0.97409 -0.16235,-0.3788 -0.24352,-0.85038 -0.24352,-1.41474 0,-0.60299 0.1063,-1.14221 0.3189,-1.61767 0.21259,-0.47543 0.5083,-0.87744 0.88711,-1.20601 0.37881,-0.32854 0.83106,-0.5798 1.35676,-0.75375 0.52569,-0.17393 1.1055,-0.2609 1.73943,-0.26092 0.32469,2e-5 0.63585,0.0193 0.9335,0.058 0.29763,0.0387 0.574,0.0928 0.82913,0.16234 l 3.28173,0 c 0.13141,10e-6 0.23771,0.0851 0.31889,0.25512 0.0812,0.17009 0.12175,0.45613 0.12176,0.85812 z m -3.74558,2.4468 c 0,-0.55661 -0.15462,-0.98953 -0.46384,-1.29877 -0.30924,-0.30923 -0.74603,-0.46384 -1.31038,-0.46385 -0.28604,10e-6 -0.53729,0.0483 -0.75375,0.14495 -0.21647,0.0966 -0.39621,0.22807 -0.53923,0.39427 -0.14302,0.16622 -0.24932,0.35949 -0.31889,0.57981 -0.0696,0.22034 -0.10437,0.45033 -0.10437,0.68998 0,0.5257 0.15461,0.94123 0.46385,1.24659 0.30923,0.30538 0.73829,0.45806 1.28718,0.45805 0.29377,10e-6 0.54888,-0.0464 0.76535,-0.13915 0.21646,-0.0928 0.3962,-0.22032 0.53923,-0.38268 0.14301,-0.16234 0.25124,-0.34981 0.32469,-0.56241 0.0734,-0.21259 0.11016,-0.43485 0.11016,-0.66679 z m 0.68418,8.25651 c -1e-5,-0.34788 -0.13916,-0.6146 -0.41746,-0.80013 -0.27832,-0.18554 -0.66099,-0.28604 -1.14803,-0.30151 l -2.07572,-0.058 c -0.20101,0.14689 -0.36142,0.28798 -0.48125,0.42326 -0.11983,0.13529 -0.21646,0.26478 -0.2899,0.38848 -0.0735,0.12369 -0.12176,0.24352 -0.14495,0.35948 -0.0232,0.11596 -0.0348,0.23579 -0.0348,0.35948 -1e-5,0.38654 0.1952,0.68031 0.58561,0.88132 0.3904,0.201 0.94122,0.3015 1.65246,0.3015 0.44065,0 0.81173,-0.0445 1.11324,-0.13336 0.30149,-0.0889 0.54501,-0.2068 0.73056,-0.35368 0.18553,-0.14689 0.31695,-0.31117 0.39427,-0.49284 0.0773,-0.18168 0.11595,-0.37302 0.11596,-0.57402 z"
           style="font-size:23.7490654px;font-style:normal;font-variant:normal;font-weight:bold;font-stretch:normal;text-align:start;line-height:125%;writing-mode:lr-tb;text-anchor:start;fill:#6ac335;fill-opacity:1;font-family:Calibri;-inkscape-font-specification:Calibri Bold"
           id="path7997" />
        <path
           d="m 265.78421,935.89449 c -10e-6,0.0773 -0.0232,0.14495 -0.0696,0.20293 -0.0464,0.058 -0.12563,0.1063 -0.23772,0.14495 -0.11211,0.0387 -0.26092,0.0676 -0.44646,0.087 -0.18554,0.0193 -0.42133,0.029 -0.70737,0.029 -0.28604,0 -0.52183,-0.01 -0.70737,-0.029 -0.18554,-0.0193 -0.33436,-0.0483 -0.44645,-0.087 -0.1121,-0.0387 -0.19134,-0.087 -0.23773,-0.14495 -0.0464,-0.058 -0.0696,-0.12563 -0.0696,-0.20293 l 0,-10.32064 c 0,-0.0773 0.0232,-0.14494 0.0696,-0.20294 0.0464,-0.058 0.12563,-0.10822 0.23773,-0.15075 0.11209,-0.0425 0.26091,-0.0754 0.44645,-0.0986 0.18554,-0.0232 0.42133,-0.0348 0.70737,-0.0348 0.28604,10e-6 0.52183,0.0116 0.70737,0.0348 0.18554,0.0232 0.33435,0.0561 0.44646,0.0986 0.11209,0.0425 0.19133,0.0928 0.23772,0.15075 0.0464,0.058 0.0696,0.12564 0.0696,0.20294 z m 0.22032,-13.84589 c 0,0.58755 -0.11983,0.99342 -0.35948,1.2176 -0.23966,0.2242 -0.68418,0.3363 -1.33356,0.33629 -0.65713,10e-6 -1.09972,-0.10822 -1.32777,-0.3247 -0.22806,-0.21644 -0.34209,-0.60685 -0.34209,-1.17121 0,-0.58753 0.11789,-0.99533 0.35368,-1.22341 0.23579,-0.22804 0.68225,-0.34207 1.33937,-0.34208 0.64938,10e-6 1.09004,0.11018 1.32197,0.33049 0.23192,0.22034 0.34788,0.61268 0.34788,1.17702 z"
           style="font-size:23.7490654px;font-style:normal;font-variant:normal;font-weight:bold;font-stretch:normal;text-align:start;line-height:125%;writing-mode:lr-tb;text-anchor:start;fill:#6ac335;fill-opacity:1;font-family:Calibri;-inkscape-font-specification:Calibri Bold"
           id="path7999" />
        <path
           d="m 278.58644,935.89449 c -10e-6,0.0773 -0.0232,0.14495 -0.0696,0.20293 -0.0464,0.058 -0.1237,0.1063 -0.23192,0.14495 -0.10825,0.0387 -0.25706,0.0676 -0.44646,0.087 -0.18941,0.0193 -0.42327,0.029 -0.70157,0.029 -0.28605,0 -0.52377,-0.01 -0.71317,-0.029 -0.18941,-0.0193 -0.33823,-0.0483 -0.44645,-0.087 -0.10824,-0.0387 -0.18555,-0.087 -0.23193,-0.14495 -0.0464,-0.058 -0.0696,-0.12563 -0.0696,-0.20293 l 0,-5.90248 c -1e-5,-0.5025 -0.0367,-0.89677 -0.11017,-1.18282 -0.0735,-0.28603 -0.17975,-0.53148 -0.3189,-0.73636 -0.13916,-0.20486 -0.3189,-0.36334 -0.53922,-0.47544 -0.22033,-0.11209 -0.47738,-0.16814 -0.77115,-0.16815 -0.37108,10e-6 -0.74603,0.1353 -1.12483,0.40587 -0.37882,0.27059 -0.77309,0.66486 -1.18282,1.18282 l 0,6.87656 c 0,0.0773 -0.0232,0.14495 -0.0696,0.20293 -0.0464,0.058 -0.12563,0.1063 -0.23773,0.14495 -0.1121,0.0387 -0.26092,0.0676 -0.44645,0.087 -0.18554,0.0193 -0.42133,0.029 -0.70737,0.029 -0.28604,0 -0.52183,-0.01 -0.70737,-0.029 -0.18554,-0.0193 -0.33436,-0.0483 -0.44646,-0.087 -0.11209,-0.0387 -0.19133,-0.087 -0.23772,-0.14495 -0.0464,-0.058 -0.0696,-0.12563 -0.0696,-0.20293 l 0,-10.34384 c 0,-0.0773 0.0193,-0.14494 0.058,-0.20293 0.0387,-0.058 0.10823,-0.10629 0.20873,-0.14495 0.1005,-0.0386 0.22999,-0.0676 0.38847,-0.087 0.15848,-0.0193 0.35755,-0.029 0.59721,-0.029 0.24738,10e-6 0.45225,0.01 0.6146,0.029 0.16234,0.0193 0.28797,0.0483 0.37687,0.087 0.0889,0.0387 0.15268,0.087 0.19134,0.14495 0.0387,0.058 0.058,0.12564 0.058,0.20293 l 0,1.19442 c 0.57208,-0.61846 1.15382,-1.08231 1.74523,-1.39155 0.59141,-0.30922 1.20794,-0.46384 1.8496,-0.46385 0.7035,10e-6 1.29684,0.11597 1.78002,0.34789 0.48317,0.23193 0.87357,0.54696 1.17122,0.94509 0.29763,0.39815 0.51216,0.86393 0.64359,1.39734 0.13141,0.53344 0.19713,1.1751 0.19714,1.92498 z"
           style="font-size:23.7490654px;font-style:normal;font-variant:normal;font-weight:bold;font-stretch:normal;text-align:start;line-height:125%;writing-mode:lr-tb;text-anchor:start;fill:#6ac335;fill-opacity:1;font-family:Calibri;-inkscape-font-specification:Calibri Bold"
           id="path8001" />
        <path
           d="m 291.01759,930.42107 c -10e-6,0.35562 -0.0793,0.61847 -0.23773,0.78854 -0.15849,0.17008 -0.37688,0.25512 -0.65518,0.25512 l -6.29675,0 c -10e-6,0.44066 0.0522,0.84073 0.15655,1.20021 0.10436,0.35948 0.27057,0.66485 0.49864,0.9161 0.22805,0.25125 0.52182,0.44259 0.88131,0.57401 0.35948,0.13143 0.79047,0.19714 1.29298,0.19714 0.51022,0 0.95861,-0.0367 1.34516,-0.11017 0.38653,-0.0734 0.72089,-0.15461 1.00307,-0.24352 0.28217,-0.0889 0.51602,-0.17007 0.70157,-0.24352 0.18553,-0.0734 0.33628,-0.11016 0.45226,-0.11016 0.0696,0 0.12754,0.0135 0.17394,0.0406 0.0464,0.0271 0.085,0.0754 0.11596,0.14495 0.0309,0.0696 0.0522,0.16815 0.0638,0.2957 0.0116,0.12756 0.0174,0.28798 0.0174,0.48124 -1e-5,0.17008 -0.004,0.31504 -0.0116,0.43486 -0.008,0.11983 -0.0193,0.22227 -0.0348,0.3073 -0.0155,0.085 -0.0387,0.15655 -0.0696,0.21453 -0.0309,0.058 -0.0715,0.11403 -0.12176,0.16815 -0.0503,0.0541 -0.18748,0.12756 -0.41166,0.22033 -0.22421,0.0928 -0.51025,0.1836 -0.85812,0.27251 -0.3479,0.0889 -0.74604,0.16621 -1.19441,0.23192 -0.4484,0.0657 -0.92771,0.0986 -1.43794,0.0986 -0.91997,0 -1.72591,-0.11596 -2.41781,-0.34789 -0.69191,-0.23192 -1.26979,-0.58367 -1.73363,-1.05525 -0.46385,-0.47158 -0.80981,-1.06685 -1.03787,-1.78582 -0.22806,-0.71896 -0.34209,-1.56162 -0.34208,-2.52798 -1e-5,-0.91996 0.11982,-1.74909 0.35948,-2.48739 0.23965,-0.73828 0.58754,-1.36448 1.04366,-1.87859 0.45611,-0.51408 1.0108,-0.90642 1.66406,-1.17701 0.65325,-0.27057 1.38961,-0.40586 2.20908,-0.40587 0.86584,10e-6 1.60607,0.12757 2.22067,0.38268 0.61459,0.25512 1.11903,0.60881 1.51331,1.06105 0.39426,0.45226 0.68417,0.98762 0.86972,1.60608 0.18553,0.61847 0.2783,1.29105 0.27831,2.01774 z m -2.82948,-0.83493 c 0.0232,-0.81946 -0.1411,-1.46305 -0.49284,-1.93077 -0.35176,-0.46771 -0.89485,-0.70156 -1.62927,-0.70157 -0.37109,10e-6 -0.69385,0.0696 -0.96828,0.20873 -0.27445,0.13916 -0.50251,0.32664 -0.68418,0.56242 -0.18168,0.23579 -0.32084,0.5141 -0.41747,0.83492 -0.0966,0.32084 -0.15268,0.66293 -0.16814,1.02627 z"
           style="font-size:23.7490654px;font-style:normal;font-variant:normal;font-weight:bold;font-stretch:normal;text-align:start;line-height:125%;writing-mode:lr-tb;text-anchor:start;fill:#6ac335;fill-opacity:1;font-family:Calibri;-inkscape-font-specification:Calibri Bold"
           id="path8003" />
      </g>
      <g
         transform="matrix(1.0565786,0,0,1.0565786,-13.578873,-56.488633)"
         id="g2870">
        <g
           id="g4104"
           style="font-size:144px;font-style:normal;font-variant:normal;font-weight:normal;font-stretch:normal;text-align:start;line-height:100%;writing-mode:lr-tb;text-anchor:start;fill:#6c6a69;fill-opacity:1;stroke:none;font-family:DroidLogo;-inkscape-font-specification:DroidLogo"
           transform="matrix(0.91241793,0,0,0.72820562,-26.877269,475.12677)">
          <path
             id="path4106"
             d="m 250.3125,538.625 c 1.24314,5.06051 -3.45844,16.07774 5.0625,13.8125 8.36991,0.67232 17.33545,-1.24662 25.40625,0.75 5.88112,4.70736 2.53275,14.14546 3.5,20.71875 0,6.4375 0,12.875 0,19.3125 -7.60943,-0.97019 -16.28901,1.97557 -23.28125,-1.5625 -4.39171,-3.9238 -4.32513,-12.40661 0.0312,-16.25 5.79911,-3.02843 12.89224,-0.58972 19.15625,-1.375 -1.44199,-4.80801 3.21483,-15.71483 -3,-15.75 -10.01442,-0.38046 -23.28208,-1.14906 -28.84375,9.25 -4.84738,9.86772 -4.93963,22.53859 0.15625,32.3125 5.63668,10.04725 18.72335,9.61918 28.65625,9.125 6.75,0 13.5,0 20.25,0 -0.25038,-16.72855 0.3583,-33.61516 0,-50.21875 -0.52811,-9.15326 -4.96018,-19.93694 -15.0625,-21.5625 -10.57435,-1.24011 -21.37736,-0.17226 -32.03125,-0.5625 l 0,1 0,1 z"
             style="fill:#6c6a69;fill-opacity:1" />
        </g>
        <g
           style="font-size:144px;font-style:normal;font-variant:normal;font-weight:normal;font-stretch:normal;text-align:start;line-height:125%;writing-mode:lr-tb;text-anchor:start;fill:#6ac335;fill-opacity:1;stroke:none;font-family:DroidLogo;-inkscape-font-specification:DroidLogo"
           id="text4112"
           transform="matrix(0.91241793,0,0,0.72820562,78.837265,386.96548)">
          <path
             id="path2876"
             d="m 195.625,658.25 c -10.98852,0.0926 -21.90394,7.29117 -24,18.53125 -5.55572,16.30962 -3.70998,36.98476 9.46875,49 9.93177,6.81219 22.8497,3.92719 34.125,4.59375 -1.44199,-4.80801 3.21483,-15.71483 -3,-15.75 -9.28171,-0.43086 -22.45146,2.58153 -27.84375,-7.46875 -4.13591,-9.26205 -4.16164,-21.59599 2.625,-29.5625 5.93426,-5.06785 16.08675,-4.76695 22.125,-0.25 1.83801,2.56633 2.16019,8.01947 -0.59375,9.875 -6.5912,0.29059 -13.259,-0.0962 -19.875,-0.0625 1.31399,4.66266 -3.09518,15.05881 2.99999,14.93337 9.72798,-0.32654 22.82366,2.33246 29.00001,-7.46462 9.27917,-13.0104 -0.13273,-32.90056 -15.4375,-35.59375 -3.14129,-0.7027 -6.37553,-0.92115 -9.59375,-0.78125 z" />
        </g>
      </g>
      <path
         sodipodi:type="arc"
         style="fill:none;stroke:#808080;stroke-width:2;stroke-miterlimit:4;stroke-opacity:1;stroke-dasharray:none"
         id="path3871"
         sodipodi:cx="220.5"
         sodipodi:cy="99.5"
         sodipodi:rx="80.5"
         sodipodi:ry="80.5"
         d="M 301,99.5 C 301,143.95892 264.95892,180 220.5,180 176.04108,180 140,143.95892 140,99.5 140,55.041078 176.04108,19 220.5,19 264.95892,19 301,55.041078 301,99.5 z"
         transform="matrix(0.91757651,0,0,0.91757651,37.67438,801.06332)" />
      <path
         sodipodi:nodetypes="csssc"
         id="path2867"
         d="M 301,99.5 C 300.18263,128.79144 300.27147,85.592043 272.97699,85.592043 228.51807,85.592043 140,143.95892 140,99.5 140,55.041078 176.04108,19 220.5,19 264.95892,19 301,55.041078 301,99.5 z"
         style="opacity:0.5;fill:#ffffff;stroke:none"
         transform="matrix(0.91757651,0,0,0.91757651,37.67438,801.06332)" />
    </g>
  </g>
</svg>
