<?xml version="1.0" encoding="UTF-8" standalone="no"?>
<!-- Created with Inkscape (http://www.inkscape.org/) -->

<svg
   xmlns:dc="http://purl.org/dc/elements/1.1/"
   xmlns:cc="http://creativecommons.org/ns#"
   xmlns:rdf="http://www.w3.org/1999/02/22-rdf-syntax-ns#"
   xmlns:svg="http://www.w3.org/2000/svg"
   xmlns="http://www.w3.org/2000/svg"
   xmlns:xlink="http://www.w3.org/1999/xlink"
   xmlns:sodipodi="http://sodipodi.sourceforge.net/DTD/sodipodi-0.dtd"
   xmlns:inkscape="http://www.inkscape.org/namespaces/inkscape"
   width="512"
   height="128"
   id="svg3213"
   version="1.1"
   inkscape:version="0.48.4 r9939"
   sodipodi:docname="back.svg">
  <defs
     id="defs3215" />
  <sodipodi:namedview
     id="base"
     pagecolor="#ffffff"
     bordercolor="#666666"
     borderopacity="1.0"
     inkscape:pageopacity="0.0"
     inkscape:pageshadow="2"
     inkscape:zoom="1.4"
     inkscape:cx="181.64714"
     inkscape:cy="57.544504"
     inkscape:document-units="px"
     inkscape:current-layer="layer1"
     showgrid="false"
     fit-margin-top="0"
     fit-margin-left="0"
     fit-margin-right="0"
     fit-margin-bottom="0"
     inkscape:window-width="1366"
     inkscape:window-height="716"
     inkscape:window-x="-8"
     inkscape:window-y="-8"
     inkscape:window-maximized="1" />
  <metadata
     id="metadata3218">
    <rdf:RDF>
      <cc:Work
         rdf:about="">
        <dc:format>image/svg+xml</dc:format>
        <dc:type
           rdf:resource="http://purl.org/dc/dcmitype/StillImage" />
        <dc:title />
      </cc:Work>
    </rdf:RDF>
  </metadata>
  <g
     inkscape:label="Layer 1"
     inkscape:groupmode="layer"
     id="layer1"
     transform="translate(683.46875,7.5312507)">
    <flowRoot
       xml:space="preserve"
       id="flowRoot3221"
       style="font-size:22px;font-style:normal;font-variant:normal;font-weight:normal;font-stretch:normal;line-height:125%;letter-spacing:0px;word-spacing:0px;fill:#000000;fill-opacity:1;stroke:none;font-family:Comic Sans MS;-inkscape-font-specification:Comic Sans MS"><flowRegion
         id="flowRegion3223"><rect
           id="rect3225"
           width="42.857143"
           height="45.714287"
           x="-565.71429"
           y="149.50504" /></flowRegion><flowPara
         id="flowPara3227" /></flowRoot>    <path
       sodipodi:type="inkscape:offset"
       inkscape:radius="7.2668757"
       inkscape:original="M -405.5625 26.46875 C -406.50001 26.468788 -407.26563 26.75785 -407.875 27.34375 C -408.48438 27.929724 -408.78125 28.687535 -408.78125 29.59375 C -408.78125 30.265659 -408.75782 31.05472 -408.6875 31.96875 C -408.61719 32.882844 -408.5625 33.671905 -408.5625 34.34375 C -408.5625 36.578152 -408.61719 39.148462 -408.6875 42.0625 C -408.75782 44.976582 -408.78125 47.578141 -408.78125 49.84375 C -408.78125 51.078138 -408.88282 52.914074 -409.0625 55.375 C -409.24219 57.835944 -409.3125 59.703129 -409.3125 60.9375 C -409.3125 63.5625 -408.23438 64.874999 -406.03125 64.875 C -405.09376 64.874999 -404.29688 64.562499 -403.6875 63.96875 C -403.07813 63.375001 -402.78126 62.625001 -402.78125 61.71875 C -402.78126 59.734379 -402.71876 57.671881 -402.5625 55.5 C -401.75001 55.015634 -400.71876 54.296885 -399.46875 53.375 C -399.32814 53.56251 -398.06251 55.171884 -395.6875 58.1875 C -394.15627 60.125004 -393.01564 61.796877 -392.25 63.21875 C -391.60939 64.40625 -390.6719 64.999999 -389.4375 65 C -388.56252 64.999999 -387.78127 64.695312 -387.09375 64.09375 C -386.40628 63.492188 -386.06253 62.765626 -386.0625 61.90625 C -386.06253 60.859378 -387.2344 58.76563 -389.59375 55.625 L -394.46875 49.34375 C -391.92189 47.093767 -389.71877 44.937519 -387.875 42.875 C -387.26565 42.203147 -386.96877 41.500023 -386.96875 40.78125 C -386.96877 39.937524 -387.2969 39.20315 -387.96875 38.5625 C -388.64065 37.921901 -389.40627 37.593776 -390.28125 37.59375 C -391.15627 37.593776 -391.93752 37.937526 -392.625 38.625 C -396.96876 42.953146 -400.21876 45.953143 -402.34375 47.59375 C -402.35938 45.687518 -402.31251 43.500021 -402.21875 41.0625 C -402.12501 38.515651 -402.09376 36.328153 -402.09375 34.46875 C -402.09376 33.78128 -402.10938 32.968781 -402.1875 32.03125 C -402.26563 31.093783 -402.31251 30.281284 -402.3125 29.59375 C -402.31251 28.687535 -402.60938 27.929724 -403.21875 27.34375 C -403.82813 26.75785 -404.62501 26.468788 -405.5625 26.46875 z M -479.90625 27.21875 C -482.65626 27.218787 -484.62501 27.406287 -485.8125 27.75 C -488.32813 28.062536 -489.6875 28.937535 -489.90625 30.40625 C -490.03125 31.234408 -490.07813 32.265657 -490.03125 33.46875 C -490 34.53128 -489.95313 35.593778 -489.90625 36.65625 L -489.90625 61.5 C -489.90625 62.390627 -489.52344 63.218751 -488.78125 64 C -488.03907 64.781249 -487.21876 65.156249 -486.28125 65.15625 C -480.71876 65.156249 -476.10939 64.484375 -472.46875 63.125 C -470.81252 62.500002 -469.2344 61.578127 -467.71875 60.34375 C -465.45315 58.484381 -464.31253 56.515633 -464.3125 54.4375 C -464.31253 52.796886 -464.9844 51.156263 -466.3125 49.5 C -467.4844 48.015641 -468.82815 46.890642 -470.34375 46.15625 C -469.06252 45.015644 -468.14065 43.93752 -467.625 42.9375 C -466.96878 41.703147 -466.65628 40.203149 -466.65625 38.40625 C -466.65628 35.078154 -468.2344 32.312532 -471.40625 30.09375 C -474.10939 28.187536 -476.95314 27.218787 -479.90625 27.21875 z M -479.90625 33.5625 C -478.26564 33.56253 -476.70314 34.109405 -475.25 35.1875 C -473.84377 36.218778 -473.15627 37.296902 -473.15625 38.40625 C -473.15627 41.546898 -475.53127 43.312521 -480.3125 43.6875 C -481.03126 43.75002 -482.10939 43.671895 -483.53125 43.5 L -483.5 38.59375 L -483.53125 33.625 C -483.12501 33.59378 -481.92189 33.56253 -479.90625 33.5625 z M -423.3125 39.125 C -426.62501 39.125025 -429.53126 41.031273 -432.03125 44.8125 C -434.23438 48.125016 -435.34375 51.328138 -435.34375 54.4375 C -435.34375 57.812506 -434.10938 60.531254 -431.65625 62.59375 C -429.32813 64.546875 -426.43751 65.531249 -423 65.53125 C -421.50001 65.531249 -419.56252 64.984374 -417.1875 63.90625 C -414.53127 62.687501 -413.21877 61.468753 -413.21875 60.25 C -413.21877 59.468755 -413.52346 58.76563 -414.125 58.15625 C -414.72658 57.546881 -415.43752 57.250007 -416.28125 57.25 C -416.68752 57.250007 -417.64064 57.640631 -419.15625 58.4375 C -420.67189 59.23438 -421.95314 59.625004 -423 59.625 C -424.84376 59.625004 -426.34376 59.20313 -427.46875 58.3125 C -428.65626 57.375007 -429.25001 56.078133 -429.25 54.4375 C -429.25001 52.781261 -428.56251 50.812513 -427.21875 48.53125 C -425.81251 46.171893 -424.51564 45.000019 -423.3125 45 C -421.42189 45.000019 -420.00783 45.335956 -419.0625 46.0625 C -418.11721 46.78908 -417.29689 47.156267 -416.625 47.15625 C -415.7344 47.156267 -415.03127 46.859392 -414.46875 46.21875 C -413.93752 45.625018 -413.65627 44.921894 -413.65625 44.15625 C -413.65627 42.750021 -414.9844 41.515648 -417.625 40.4375 C -419.79689 39.562524 -421.68751 39.125025 -423.3125 39.125 z M -447.4375 39.5625 C -451.31251 39.562524 -454.62501 40.914086 -457.40625 43.59375 C -460.1875 46.273455 -461.59375 49.48439 -461.59375 53.25 C -461.59375 57.265632 -460.63281 60.296879 -458.75 62.3125 C -456.86719 64.328125 -454.04688 65.343749 -450.28125 65.34375 C -449.51564 65.343749 -448.59376 65.164061 -447.5 64.8125 C -446.40627 64.460937 -445.15627 63.9375 -443.71875 63.25 C -442.15627 64.812499 -441.00002 65.593748 -440.28125 65.59375 C -439.45315 65.593748 -438.72659 65.328124 -438.09375 64.78125 C -437.46096 64.234375 -437.15628 63.546876 -437.15625 62.71875 C -437.15628 62.531252 -437.45315 61.750002 -438.0625 60.40625 C -438.7344 58.92188 -439.07815 58.109381 -439.125 57.96875 C -439.5469 56.656257 -439.78127 54.515635 -439.78125 51.53125 C -439.78127 50.265639 -439.71096 49.164077 -439.625 48.21875 C -439.53909 47.273454 -439.43752 46.468768 -439.28125 45.84375 C -438.9219 45.421894 -438.75002 44.937519 -438.75 44.375 C -438.75002 43.031271 -439.9219 41.859397 -442.28125 40.84375 C -444.23439 40.000024 -445.95314 39.562524 -447.4375 39.5625 z M -447.125 45.1875 C -446.95314 45.187519 -446.7422 45.210956 -446.5 45.28125 C -446.25783 45.351581 -446.00002 45.468769 -445.6875 45.625 C -445.82814 46.421893 -445.9297 47.132829 -446 47.78125 C -446.07033 48.429703 -446.09377 49.000015 -446.09375 49.5 C -446.09377 51.343763 -445.87502 54.12501 -445.40625 57.84375 C -446.17189 58.468756 -446.97658 58.960943 -447.84375 59.28125 C -448.71095 59.601567 -449.62501 59.750004 -450.59375 59.75 C -452.09376 59.750004 -453.21876 59.210942 -453.96875 58.15625 C -454.71876 57.101569 -455.09376 55.531258 -455.09375 53.4375 C -455.09376 51.250013 -454.31251 49.320327 -452.71875 47.65625 C -451.12501 45.992206 -449.25001 45.187519 -447.125 45.1875 z M -483.53125 49.96875 C -480.70314 50.078139 -478.57814 50.156264 -477.15625 50.15625 C -475.96877 50.281264 -474.68752 50.718763 -473.34375 51.46875 C -471.62502 52.406262 -470.76565 53.453136 -470.71875 54.65625 C -470.68752 55.562508 -472.03127 56.406258 -474.78125 57.1875 C -477.92189 58.078131 -480.84376 58.60938 -483.53125 58.75 L -483.53125 49.96875 z "
       xlink:href="#text3241"
       style="font-size:48px;font-style:normal;font-variant:normal;font-weight:bold;font-stretch:normal;line-height:125%;letter-spacing:0px;word-spacing:0px;fill:#ffffff;fill-opacity:1;stroke:none;font-family:Comic Sans MS;-inkscape-font-specification:Comic Sans MS Bold"
       id="path3247"
       inkscape:href="#text3241"
       d="m -403.5625,19.1875 c -2.43108,9.9e-5 -5.40304,1.040284 -7.34375,2.90625 -2.01574,1.938317 -3.15625,5.006732 -3.15625,7.5 0,0.840843 0.0396,1.827641 0.125,2.9375 0.0316,0.410536 0.014,0.546172 0.0312,0.84375 -2.41407,-0.888864 -4.8315,-1.53121 -7.40625,-1.53125 -4.42444,3.3e-5 -8.44501,2.107585 -11.59375,5.15625 -1.44224,-1.325352 -2.93755,-2.171148 -4.5,-2.84375 l 0,0.03125 c -2.53836,-1.096534 -5.11909,-1.906203 -8.03125,-1.90625 -4.37557,2.7e-5 -8.67135,1.421822 -12.25,3.875 -0.73425,-4.775254 -3.59864,-9.234882 -7.53125,-12 -0.0115,-0.0081 -0.0197,-0.02314 -0.0312,-0.03125 -3.71003,-2.606722 -8.12806,-4.187443 -12.65625,-4.1875 -2.62103,3.5e-5 -4.67942,0.150754 -6.8125,0.625 l 0,-0.03125 c -1.92229,0.23882 -3.86696,0.659192 -5.9375,2 -2.06344,1.33621 -4.0268,4.09436 -4.4375,6.78125 -0.001,0.0092 0.001,0.02201 0,0.03125 -0.21086,1.412763 -0.24386,2.826869 -0.1875,4.34375 6.3e-4,0.02156 -6.5e-4,0.04096 0,0.0625 0.0301,1.003086 0.0833,1.959002 0.125,2.90625 l -0.0312,0 0,24.84375 c 0,2.97293 1.47606,5.764279 3.125,7.5 1.78398,1.877885 4.90593,3.437497 7.78125,3.4375 6.14765,-10e-7 11.55517,-0.711998 16.34375,-2.5 a 7.2676024,7.2676024 0 0 0 0.0312,0 c 1.9696,-0.743252 3.80258,-1.844373 5.53125,-3.09375 0.11954,0.137246 0.18733,0.303503 0.3125,0.4375 3.52267,3.771159 8.70899,5.343749 13.78125,5.34375 1.90262,-2e-6 3.4605,-0.411417 5,-0.90625 0.13404,-0.04309 0.27279,-0.110995 0.40625,-0.15625 1.02261,0.658132 2.25756,1.312493 4.59375,1.3125 2.38205,-6e-6 5.10349,-1.008876 6.9375,-2.59375 0.0165,-0.01422 0.0149,-0.0481 0.0312,-0.0625 3.12016,1.715447 6.71739,2.593749 10.3125,2.59375 3.26625,-2e-6 5.92521,-0.970583 8.8125,-2.28125 a 7.2676024,7.2676024 0 0 0 0.0312,-0.03125 c 0.49395,-0.226637 0.93665,-0.503027 1.40625,-0.75 2.03593,1.612388 4.65276,2.406249 6.71875,2.40625 2.55236,-3e-6 5.4417,-1.054595 7.40625,-2.96875 0.37288,-0.363317 0.56329,-0.908575 0.875,-1.34375 1.9016,2.402774 5.249,4.437498 8.3125,4.4375 2.56196,-3e-6 5.29946,-1.121452 7.125,-2.71875 1.96627,-1.720563 3.53115,-4.859186 3.53125,-7.65625 -9e-5,-3.234814 -0.96976,-4.405551 -1.8125,-5.90625 -0.84274,-1.500699 -1.88907,-3.021604 -3.1875,-4.75 a 7.2676024,7.2676024 0 0 0 -0.0625,-0.09375 l -0.90625,-1.1875 c 0.71668,-0.734643 1.59574,-1.487819 2.25,-2.21875 0.009,-0.0098 0.0224,-0.02136 0.0312,-0.03125 1.50349,-1.671516 2.78117,-4.233863 2.78125,-6.9375 -6e-5,-2.727713 -1.45738,-5.729581 -3.28125,-7.46875 -1.77036,-1.687885 -4.62089,-2.99992 -7.3125,-3 -1.60709,4.8e-5 -3.20102,0.547228 -4.65625,1.28125 -0.005,-0.06107 0.005,-0.0943 0,-0.15625 -0.0693,-0.830909 -0.0938,-1.486631 -0.0937,-1.84375 -3e-5,-2.493224 -1.14054,-5.561684 -3.15625,-7.5 -2.0302,-1.951975 -4.94392,-2.906151 -7.375,-2.90625 z" />
    <path
       sodipodi:type="inkscape:offset"
       inkscape:radius="3.7029774"
       inkscape:original="M -405.5625 26.46875 C -406.50001 26.468788 -407.26563 26.75785 -407.875 27.34375 C -408.48438 27.929724 -408.78125 28.687535 -408.78125 29.59375 C -408.78125 30.265659 -408.75782 31.05472 -408.6875 31.96875 C -408.61719 32.882844 -408.5625 33.671905 -408.5625 34.34375 C -408.5625 36.578152 -408.61719 39.148462 -408.6875 42.0625 C -408.75782 44.976582 -408.78125 47.578141 -408.78125 49.84375 C -408.78125 51.078138 -408.88282 52.914074 -409.0625 55.375 C -409.24219 57.835944 -409.3125 59.703129 -409.3125 60.9375 C -409.3125 63.5625 -408.23438 64.874999 -406.03125 64.875 C -405.09376 64.874999 -404.29688 64.562499 -403.6875 63.96875 C -403.07813 63.375001 -402.78126 62.625001 -402.78125 61.71875 C -402.78126 59.734379 -402.71876 57.671881 -402.5625 55.5 C -401.75001 55.015634 -400.71876 54.296885 -399.46875 53.375 C -399.32814 53.56251 -398.06251 55.171884 -395.6875 58.1875 C -394.15627 60.125004 -393.01564 61.796877 -392.25 63.21875 C -391.60939 64.40625 -390.6719 64.999999 -389.4375 65 C -388.56252 64.999999 -387.78127 64.695312 -387.09375 64.09375 C -386.40628 63.492188 -386.06253 62.765626 -386.0625 61.90625 C -386.06253 60.859378 -387.2344 58.76563 -389.59375 55.625 L -394.46875 49.34375 C -391.92189 47.093767 -389.71877 44.937519 -387.875 42.875 C -387.26565 42.203147 -386.96877 41.500023 -386.96875 40.78125 C -386.96877 39.937524 -387.2969 39.20315 -387.96875 38.5625 C -388.64065 37.921901 -389.40627 37.593776 -390.28125 37.59375 C -391.15627 37.593776 -391.93752 37.937526 -392.625 38.625 C -396.96876 42.953146 -400.21876 45.953143 -402.34375 47.59375 C -402.35938 45.687518 -402.31251 43.500021 -402.21875 41.0625 C -402.12501 38.515651 -402.09376 36.328153 -402.09375 34.46875 C -402.09376 33.78128 -402.10938 32.968781 -402.1875 32.03125 C -402.26563 31.093783 -402.31251 30.281284 -402.3125 29.59375 C -402.31251 28.687535 -402.60938 27.929724 -403.21875 27.34375 C -403.82813 26.75785 -404.62501 26.468788 -405.5625 26.46875 z M -479.90625 27.21875 C -482.65626 27.218787 -484.62501 27.406287 -485.8125 27.75 C -488.32813 28.062536 -489.6875 28.937535 -489.90625 30.40625 C -490.03125 31.234408 -490.07813 32.265657 -490.03125 33.46875 C -490 34.53128 -489.95313 35.593778 -489.90625 36.65625 L -489.90625 61.5 C -489.90625 62.390627 -489.52344 63.218751 -488.78125 64 C -488.03907 64.781249 -487.21876 65.156249 -486.28125 65.15625 C -480.71876 65.156249 -476.10939 64.484375 -472.46875 63.125 C -470.81252 62.500002 -469.2344 61.578127 -467.71875 60.34375 C -465.45315 58.484381 -464.31253 56.515633 -464.3125 54.4375 C -464.31253 52.796886 -464.9844 51.156263 -466.3125 49.5 C -467.4844 48.015641 -468.82815 46.890642 -470.34375 46.15625 C -469.06252 45.015644 -468.14065 43.93752 -467.625 42.9375 C -466.96878 41.703147 -466.65628 40.203149 -466.65625 38.40625 C -466.65628 35.078154 -468.2344 32.312532 -471.40625 30.09375 C -474.10939 28.187536 -476.95314 27.218787 -479.90625 27.21875 z M -479.90625 33.5625 C -478.26564 33.56253 -476.70314 34.109405 -475.25 35.1875 C -473.84377 36.218778 -473.15627 37.296902 -473.15625 38.40625 C -473.15627 41.546898 -475.53127 43.312521 -480.3125 43.6875 C -481.03126 43.75002 -482.10939 43.671895 -483.53125 43.5 L -483.5 38.59375 L -483.53125 33.625 C -483.12501 33.59378 -481.92189 33.56253 -479.90625 33.5625 z M -423.3125 39.125 C -426.62501 39.125025 -429.53126 41.031273 -432.03125 44.8125 C -434.23438 48.125016 -435.34375 51.328138 -435.34375 54.4375 C -435.34375 57.812506 -434.10938 60.531254 -431.65625 62.59375 C -429.32813 64.546875 -426.43751 65.531249 -423 65.53125 C -421.50001 65.531249 -419.56252 64.984374 -417.1875 63.90625 C -414.53127 62.687501 -413.21877 61.468753 -413.21875 60.25 C -413.21877 59.468755 -413.52346 58.76563 -414.125 58.15625 C -414.72658 57.546881 -415.43752 57.250007 -416.28125 57.25 C -416.68752 57.250007 -417.64064 57.640631 -419.15625 58.4375 C -420.67189 59.23438 -421.95314 59.625004 -423 59.625 C -424.84376 59.625004 -426.34376 59.20313 -427.46875 58.3125 C -428.65626 57.375007 -429.25001 56.078133 -429.25 54.4375 C -429.25001 52.781261 -428.56251 50.812513 -427.21875 48.53125 C -425.81251 46.171893 -424.51564 45.000019 -423.3125 45 C -421.42189 45.000019 -420.00783 45.335956 -419.0625 46.0625 C -418.11721 46.78908 -417.29689 47.156267 -416.625 47.15625 C -415.7344 47.156267 -415.03127 46.859392 -414.46875 46.21875 C -413.93752 45.625018 -413.65627 44.921894 -413.65625 44.15625 C -413.65627 42.750021 -414.9844 41.515648 -417.625 40.4375 C -419.79689 39.562524 -421.68751 39.125025 -423.3125 39.125 z M -447.4375 39.5625 C -451.31251 39.562524 -454.62501 40.914086 -457.40625 43.59375 C -460.1875 46.273455 -461.59375 49.48439 -461.59375 53.25 C -461.59375 57.265632 -460.63281 60.296879 -458.75 62.3125 C -456.86719 64.328125 -454.04688 65.343749 -450.28125 65.34375 C -449.51564 65.343749 -448.59376 65.164061 -447.5 64.8125 C -446.40627 64.460937 -445.15627 63.9375 -443.71875 63.25 C -442.15627 64.812499 -441.00002 65.593748 -440.28125 65.59375 C -439.45315 65.593748 -438.72659 65.328124 -438.09375 64.78125 C -437.46096 64.234375 -437.15628 63.546876 -437.15625 62.71875 C -437.15628 62.531252 -437.45315 61.750002 -438.0625 60.40625 C -438.7344 58.92188 -439.07815 58.109381 -439.125 57.96875 C -439.5469 56.656257 -439.78127 54.515635 -439.78125 51.53125 C -439.78127 50.265639 -439.71096 49.164077 -439.625 48.21875 C -439.53909 47.273454 -439.43752 46.468768 -439.28125 45.84375 C -438.9219 45.421894 -438.75002 44.937519 -438.75 44.375 C -438.75002 43.031271 -439.9219 41.859397 -442.28125 40.84375 C -444.23439 40.000024 -445.95314 39.562524 -447.4375 39.5625 z M -447.125 45.1875 C -446.95314 45.187519 -446.7422 45.210956 -446.5 45.28125 C -446.25783 45.351581 -446.00002 45.468769 -445.6875 45.625 C -445.82814 46.421893 -445.9297 47.132829 -446 47.78125 C -446.07033 48.429703 -446.09377 49.000015 -446.09375 49.5 C -446.09377 51.343763 -445.87502 54.12501 -445.40625 57.84375 C -446.17189 58.468756 -446.97658 58.960943 -447.84375 59.28125 C -448.71095 59.601567 -449.62501 59.750004 -450.59375 59.75 C -452.09376 59.750004 -453.21876 59.210942 -453.96875 58.15625 C -454.71876 57.101569 -455.09376 55.531258 -455.09375 53.4375 C -455.09376 51.250013 -454.31251 49.320327 -452.71875 47.65625 C -451.12501 45.992206 -449.25001 45.187519 -447.125 45.1875 z M -483.53125 49.96875 C -480.70314 50.078139 -478.57814 50.156264 -477.15625 50.15625 C -475.96877 50.281264 -474.68752 50.718763 -473.34375 51.46875 C -471.62502 52.406262 -470.76565 53.453136 -470.71875 54.65625 C -470.68752 55.562508 -472.03127 56.406258 -474.78125 57.1875 C -477.92189 58.078131 -480.84376 58.60938 -483.53125 58.75 L -483.53125 49.96875 z "
       xlink:href="#text3241"
       style="font-size:48px;font-style:normal;font-variant:normal;font-weight:bold;font-stretch:normal;line-height:125%;letter-spacing:0px;word-spacing:0px;fill:#000000;fill-opacity:1;stroke:none;font-family:Comic Sans MS;-inkscape-font-specification:Comic Sans MS Bold"
       id="path3249"
       inkscape:href="#text3241"
       d="m -403.5625,22.78125 c -1.69859,6.9e-5 -3.58722,0.668068 -4.875,1.90625 -1.32602,1.275086 -2.03125,3.191321 -2.03125,4.90625 0,0.757993 0.0158,1.642432 0.0937,2.65625 0.0691,0.898025 0.125,1.62286 0.125,2.09375 0,1.416707 -0.0584,3.238412 -0.0937,4.96875 -1.12383,-0.993147 -2.38745,-1.70514 -3.875,-2.3125 a 3.7033477,3.7033477 0 0 0 -0.0312,0 c -2.46593,-0.993435 -4.77291,-1.562465 -7.0625,-1.5625 -4.7197,3.6e-5 -8.87008,2.928323 -11.78125,7.3125 -0.008,0.01247 -0.023,0.01876 -0.0312,0.03125 -0.0838,0.126204 -0.1374,0.24839 -0.21875,0.375 -0.29406,-1.270577 -0.83482,-2.459824 -1.65625,-3.28125 -1.08662,-1.086616 -2.36226,-1.813202 -3.8125,-2.4375 -2.25135,-0.972549 -4.41308,-1.562464 -6.625,-1.5625 -4.73604,2.9e-5 -9.14009,1.795194 -12.53125,5.0625 -1.72285,1.659945 -3.06238,3.597628 -3.96875,5.71875 -0.32744,-0.379731 -0.70615,-0.716403 -1.0625,-1.0625 0.20452,-0.311212 0.451,-0.603381 0.625,-0.9375 l 0.0312,0.03125 c 1.01117,-1.90202 1.37496,-4.05506 1.375,-6.28125 -4e-5,-4.498665 -2.42909,-8.627217 -6.3125,-11.34375 -3.21986,-2.270596 -6.86209,-3.531203 -10.625,-3.53125 -2.65323,3.6e-5 -4.61211,0.131498 -6.375,0.5625 l 0,-0.03125 c -0.1949,0.02421 -0.37106,0.0952 -0.5625,0.125 -1.37664,0.214295 -2.65524,0.553877 -3.875,1.34375 -1.38189,0.894866 -2.57696,2.5885 -2.84375,4.3125 -0.001,0.0093 0.001,0.02191 0,0.03125 -0.16601,1.1149 -0.20555,2.345007 -0.15625,3.6875 6.2e-4,0.0211 -6.3e-4,0.04141 0,0.0625 0.0307,1.024278 0.0812,2.03854 0.125,3.03125 0.002,0.05109 -0.002,0.105244 0,0.15625 l 0,24.6875 c 0,1.951705 0.92076,3.794881 2.125,5.0625 1.27305,1.340061 3.26254,2.281248 5.1875,2.28125 5.86067,-10e-7 10.86816,-0.67221 15.09375,-2.25 a 3.7033477,3.7033477 0 0 0 0.0312,0 c 2.05461,-0.775332 3.98969,-1.915914 5.78125,-3.375 0.68151,-0.559309 1.12011,-1.292316 1.6875,-1.9375 0.58374,1.29684 1.2547,2.530446 2.21875,3.5625 2.71843,2.910192 6.75605,4.187499 11.1875,4.1875 1.345,-2e-6 2.58535,-0.262932 3.90625,-0.6875 0.6166,-0.198198 1.31993,-0.547242 1.96875,-0.8125 0.20731,0.160277 0.41209,0.386416 0.625,0.53125 0.8745,0.594896 1.799,1.218745 3.5,1.21875 1.61995,-4e-6 3.34883,-0.611693 4.59375,-1.6875 0.66858,-0.577803 1.23938,-1.343441 1.625,-2.1875 0.0113,0.0096 0.0199,0.02168 0.0312,0.03125 3.01501,2.529372 6.88681,3.781249 11.03125,3.78125 2.40002,-2e-6 4.70769,-0.740879 7.34375,-1.9375 1.42291,-0.652871 2.60271,-1.373078 3.65625,-2.28125 0.21565,0.420198 0.3332,0.860947 0.65625,1.25 1.32418,1.594718 3.47559,2.312499 5.3125,2.3125 1.76038,-2e-6 3.63757,-0.670913 4.9375,-1.9375 1.29515,-1.261953 1.99998,-3.19134 2,-4.90625 0,-0.581966 0.0505,-1.217358 0.0625,-1.8125 0.23816,0.302094 0.16482,0.216267 0.4375,0.5625 1.44337,1.826335 2.4815,3.362981 3.09375,4.5 1.11246,2.062168 3.64067,3.718748 6.0625,3.71875 1.73462,-2e-6 3.51383,-0.703541 4.78125,-1.8125 1.33911,-1.171771 2.28119,-3.121987 2.28125,-4.96875 -5e-5,-1.905071 -0.626,-2.87812 -1.34375,-4.15625 -0.71775,-1.27813 -1.66606,-2.692882 -2.90625,-4.34375 a 3.7033477,3.7033477 0 0 0 -0.0312,-0.0625 l -2.875,-3.6875 c 1.51335,-1.438481 3.12972,-2.890114 4.375,-4.28125 l 0.0312,0 c 0.004,-0.005 -0.004,-0.02627 0,-0.03125 1.06228,-1.179614 1.8437,-2.833462 1.84375,-4.5625 -4e-5,-1.803748 -0.86612,-3.705828 -2.125,-4.90625 -1.23164,-1.174264 -3.07432,-1.968696 -4.875,-1.96875 -1.84476,5.5e-5 -3.72584,0.850848 -4.96875,2.09375 -1.49164,1.486274 -2.02881,1.841469 -3.25,3 0.0388,-1.593659 0.0937,-3.249214 0.0937,-4.53125 -10e-6,-0.743518 -0.004,-1.676747 -0.0937,-2.75 -0.0736,-0.883169 -0.12501,-1.605835 -0.125,-2.125 -2e-5,-1.714906 -0.70525,-3.631164 -2.03125,-4.90625 -1.33339,-1.28201 -3.20767,-1.906181 -4.90625,-1.90625 z m -74.25,14.5 c 0.77982,0.01625 1.4642,0.222453 2.34375,0.875 a 3.7033477,3.7033477 0 0 0 0.0312,0.03125 c 0.3533,0.259097 0.43138,0.339309 0.5,0.40625 -0.002,0.199298 0.0291,0.316762 -0.21875,0.5 -0.28594,0.211411 -1.23601,0.574153 -2.65625,0.78125 l 0,-1.25 a 3.7033477,3.7033477 0 0 0 0,-0.0625 l 0,-1.28125 z m 57,11.46875 c 0.77505,0.08876 1.52406,0.268493 1.5,0.25 1.28805,0.990033 2.66642,1.843801 4.6875,1.84375 1.41907,2.7e-5 2.95612,-0.653854 4.15625,-1.625 -3.1e-4,0.186091 0,0.443189 0,0.625 0,0.963601 -0.0946,2.714412 -0.25,4.90625 -1.09218,-0.687499 -2.32612,-1.18749 -3.5625,-1.1875 -1.38988,2.4e-5 -1.78596,0.293904 -2.4375,0.5625 -0.65154,0.268596 -1.33604,0.600005 -2.15625,1.03125 -1.19598,0.628814 -1.9993,0.78125 -2.125,0.78125 -1.2789,3e-6 -1.84102,-0.281687 -2.15625,-0.53125 a 3.7033477,3.7033477 0 0 0 -0.0312,0 c -0.35509,-0.280327 -0.375,-0.221541 -0.375,-0.96875 0,-0.628271 0.39383,-2.060773 1.53125,-4 0.006,-0.0099 -0.006,-0.02128 0,-0.03125 0.53599,-0.893949 0.97233,-1.414417 1.21875,-1.65625 z M -447.75,50 c 0.0178,1.472393 0.24051,3.65838 0.46875,5.84375 -0.3845,0.125405 -0.78516,0.218752 -1.3125,0.21875 -0.61284,2e-6 -0.26193,0.05256 -0.34375,-0.0625 -0.0818,-0.115061 -0.46876,-0.910896 -0.46875,-2.5625 -10e-6,-1.305811 0.35223,-2.150859 1.375,-3.21875 0.1028,-0.107335 0.18346,-0.12701 0.28125,-0.21875 z m -30.09375,3.78125 c 0.72578,0.02041 1.73768,0.05929 2.3125,0.0625 0.0446,0.0047 0.13983,0.05549 0.1875,0.0625 -0.89021,0.217805 -1.66727,0.321683 -2.5,0.46875 l 0,-0.59375 z" />
    <g
       style="font-size:48px;font-style:normal;font-variant:normal;font-weight:bold;font-stretch:normal;line-height:125%;letter-spacing:0px;word-spacing:0px;fill:#ffff00;fill-opacity:1;stroke:none;font-family:Comic Sans MS;-inkscape-font-specification:Comic Sans MS Bold"
       id="text3241">
      <path
         d="m -472.46429,63.126122 c -3.64065,1.359374 -8.2422,2.039061 -13.80469,2.039062 -0.93751,-10e-7 -1.77735,-0.390626 -2.51953,-1.171875 -0.74219,-0.781249 -1.11329,-1.617186 -1.11328,-2.507812 l 0,-24.84375 c -0.0469,-1.062472 -0.0859,-2.124971 -0.11719,-3.1875 -0.0469,-1.203094 -0.008,-2.218718 0.11719,-3.046875 0.21874,-1.468715 1.58593,-2.359339 4.10156,-2.671875 1.18749,-0.343714 3.15624,-0.515589 5.90625,-0.515625 2.95311,3.6e-5 5.78123,0.95316 8.48437,2.859375 3.17185,2.218781 4.75779,4.992216 4.75782,8.320312 -3e-5,1.796899 -0.32816,3.312522 -0.98438,4.546875 -0.51565,1.00002 -1.41409,2.070332 -2.69531,3.210938 1.5156,0.734392 2.85935,1.843766 4.03125,3.328125 1.32809,1.656262 1.99216,3.304698 1.99219,4.945312 -3e-5,2.078133 -1.13284,4.046881 -3.39844,5.90625 -1.51565,1.234377 -3.10159,2.164064 -4.75781,2.789063 z m -7.42969,-29.554688 c -2.01564,3e-5 -3.22657,0.01565 -3.63281,0.04687 l 0.0234,4.96875 -0.0234,4.921875 c 1.42186,0.171895 2.49217,0.226583 3.21093,0.164063 4.78124,-0.37498 7.17186,-2.13279 7.17188,-5.273438 -2e-5,-1.109348 -0.70315,-2.17966 -2.10938,-3.210937 -1.45314,-1.078096 -3.00001,-1.617158 -4.64062,-1.617188 z m 2.74219,16.570313 c -1.42189,1.3e-5 -3.54689,-0.05467 -6.375,-0.164063 l 0,8.765625 c 2.68748,-0.14062 5.60154,-0.656244 8.74218,-1.546875 2.74998,-0.781242 4.10936,-1.624992 4.07813,-2.53125 -0.0469,-1.203114 -0.92971,-2.273426 -2.64844,-3.210937 -1.34377,-0.749987 -2.60939,-1.187487 -3.79687,-1.3125 z"
         style=""
         id="path4288" />
      <path
         d="m -440.28461,65.587059 c -0.71877,-2e-6 -1.85939,-0.781251 -3.42187,-2.34375 -1.43752,0.6875 -2.70314,1.207031 -3.79688,1.558594 -1.09376,0.351561 -2.02345,0.527342 -2.78906,0.527344 -3.76563,-2e-6 -6.58985,-1.007813 -8.47266,-3.023438 -1.88281,-2.015621 -2.82422,-5.031243 -2.82421,-9.046875 -10e-6,-3.76561 1.39062,-6.988263 4.17187,-9.667969 2.78124,-2.679664 6.10936,-4.019507 9.98438,-4.019531 1.48435,2.4e-5 3.2031,0.421899 5.15625,1.265625 2.35935,1.015647 3.53903,2.195334 3.53906,3.539063 -3e-5,0.562519 -0.17971,1.054706 -0.53906,1.476562 -0.15628,0.625018 -0.27737,1.410173 -0.36329,2.355469 -0.086,0.945327 -0.12893,2.050795 -0.1289,3.316406 -3e-5,2.984385 0.21091,5.13282 0.63281,6.445313 0.0469,0.14063 0.40623,0.95313 1.07813,2.4375 0.60935,1.343752 0.91403,2.109376 0.91406,2.296875 -3e-5,0.828125 -0.31643,1.515624 -0.94922,2.0625 -0.63284,0.546873 -1.36331,0.82031 -2.19141,0.820312 z m -5.8125,-16.078125 c -1e-5,-0.499985 0.0351,-1.074203 0.10547,-1.722656 0.0703,-0.648421 0.17577,-1.371076 0.31641,-2.167969 -0.31252,-0.156231 -0.58986,-0.269513 -0.83203,-0.339844 -0.24221,-0.07029 -0.44924,-0.10545 -0.6211,-0.105468 -2.12501,1.8e-5 -3.98438,0.832049 -5.57812,2.496093 -1.59376,1.664077 -2.39063,3.589857 -2.39063,5.777344 0,2.093759 0.37499,3.667976 1.125,4.722656 0.74999,1.054693 1.87499,1.582036 3.375,1.582032 0.96874,4e-6 1.88671,-0.160152 2.75391,-0.480469 0.86717,-0.320308 1.68358,-0.792963 2.44922,-1.417969 -0.46877,-3.71874 -0.70314,-6.499987 -0.70313,-8.34375 z"
         style=""
         id="path4290" />
      <path
         d="m -423.01117,65.516747 c -3.43751,-2e-6 -6.32032,-0.976563 -8.64844,-2.929688 -2.45312,-2.062496 -3.67969,-4.781244 -3.67968,-8.15625 -10e-6,-3.109362 1.10156,-6.320297 3.30468,-9.632812 2.5,-3.781227 5.40624,-5.671851 8.71875,-5.671875 1.62499,2.4e-5 3.52342,0.437524 5.69532,1.3125 2.6406,1.078147 3.96091,2.320333 3.96093,3.726562 -2e-5,0.765644 -0.26564,1.445331 -0.79687,2.039063 -0.56252,0.640642 -1.28908,0.960954 -2.17969,0.960937 -0.67189,1.7e-5 -1.48049,-0.363264 -2.42578,-1.089844 -0.94533,-0.726544 -2.3633,-1.089824 -4.25391,-1.089843 -1.20313,1.9e-5 -2.50782,1.179705 -3.91406,3.539062 -1.34376,2.281263 -2.01563,4.250011 -2.01562,5.90625 -10e-6,1.640633 0.59374,2.929694 1.78125,3.867188 1.12499,0.890629 2.60936,1.335941 4.45312,1.335937 1.04686,4e-6 2.32811,-0.398433 3.84375,-1.195312 1.51561,-0.796869 2.47654,-1.195306 2.88281,-1.195313 0.84373,7e-6 1.56639,0.304694 2.16797,0.914063 0.60154,0.60938 0.90232,1.304692 0.90235,2.085937 -3e-5,1.218753 -1.32815,2.437501 -3.98438,3.65625 -2.37502,1.078124 -4.31251,1.617186 -5.8125,1.617188 z"
         style=""
         id="path4292" />
      <path
         d="m -389.42523,65.001122 c -1.2344,-10e-7 -2.1719,-0.593751 -2.8125,-1.78125 -0.76565,-1.421873 -1.91408,-3.101559 -3.44531,-5.039063 -2.37502,-3.015616 -3.63283,-4.617177 -3.77344,-4.804687 -1.25001,0.921884 -2.28126,1.625009 -3.09375,2.109375 -0.15626,2.171881 -0.23439,4.250004 -0.23438,6.234375 -1e-5,0.906251 -0.30469,1.65625 -0.91406,2.25 -0.60938,0.593749 -1.38282,0.890624 -2.32031,0.890625 -2.20313,-10e-7 -3.30469,-1.3125 -3.30469,-3.9375 0,-1.234371 0.0898,-3.082026 0.26953,-5.542969 0.17969,-2.460927 0.26953,-4.308581 0.26953,-5.542969 0,-2.265609 0.0352,-4.85545 0.10547,-7.769531 0.0703,-2.914038 0.10547,-5.488254 0.10547,-7.722656 0,-0.671845 -0.0352,-1.464813 -0.10547,-2.378907 -0.0703,-0.914029 -0.10547,-1.706997 -0.10547,-2.378906 0,-0.906215 0.30469,-1.652308 0.91407,-2.238281 0.60937,-0.5859 1.3828,-0.878869 2.32031,-0.878906 0.93749,3.7e-5 1.71093,0.293006 2.32031,0.878906 0.60937,0.585973 0.91405,1.332066 0.91406,2.238281 -1e-5,0.687534 0.0391,1.500033 0.11719,2.4375 0.0781,0.937531 0.11718,1.75003 0.11719,2.4375 -10e-6,1.859403 -0.0469,4.062526 -0.14063,6.609375 -0.0938,2.437521 -0.13282,4.609393 -0.11718,6.515625 2.12498,-1.640607 5.35936,-4.624979 9.70312,-8.953125 0.68748,-0.687474 1.46873,-1.031224 2.34375,-1.03125 0.87498,2.6e-5 1.64842,0.320339 2.32031,0.960938 0.67185,0.640649 1.00779,1.382836 1.00782,2.226562 -3e-5,0.718773 -0.30472,1.414084 -0.91407,2.085938 -1.84377,2.062519 -4.03908,4.218766 -6.58593,6.46875 l 4.875,6.28125 c 2.35935,3.14063 3.53903,5.234378 3.53906,6.28125 -3e-5,0.859376 -0.34378,1.589844 -1.03125,2.191406 -0.68753,0.601562 -1.46877,0.902343 -2.34375,0.902344 z"
         style=""
         id="path4294" />
    </g>
  </g>
</svg>
