<?xml version="1.0" encoding="UTF-8" standalone="no"?>
<!-- Created with Inkscape (http://www.inkscape.org/) -->

<svg
   xmlns:dc="http://purl.org/dc/elements/1.1/"
   xmlns:cc="http://creativecommons.org/ns#"
   xmlns:rdf="http://www.w3.org/1999/02/22-rdf-syntax-ns#"
   xmlns:svg="http://www.w3.org/2000/svg"
   xmlns="http://www.w3.org/2000/svg"
   version="1.2"
   width="512"
   height="128"
   id="svg3213">
  <defs
     id="defs3215" />
  <metadata
     id="metadata3218">
    <rdf:RDF>
      <cc:Work
         rdf:about="">
        <dc:format>image/svg+xml</dc:format>
        <dc:type
           rdf:resource="http://purl.org/dc/dcmitype/StillImage" />
        <dc:title></dc:title>
      </cc:Work>
    </rdf:RDF>
  </metadata>
  <g
     transform="translate(683.46875,7.5312507)"
     id="layer1">
    <flowRoot
       id="flowRoot3221"
       xml:space="preserve"
       style="font-size:22px;font-style:normal;font-variant:normal;font-weight:normal;font-stretch:normal;line-height:125%;letter-spacing:0px;word-spacing:0px;fill:#000000;fill-opacity:1;stroke:none;font-family:Comic Sans MS;-inkscape-font-specification:Comic Sans MS"><flowRegion
         id="flowRegion3223"><rect
           width="42.857143"
           height="45.714287"
           x="-565.71429"
           y="149.50504"
           id="rect3225" /></flowRegion><flowPara
         id="flowPara3227" /></flowRoot>    <path
       d="m -446,19.84375 c -3.43293,1.1e-4 -7.38858,2.521623 -9,5.34375 -0.007,0.01196 -0.0245,0.01928 -0.0312,0.03125 -1.15144,2.031565 -1.6875,4.373825 -1.6875,6.5625 l 0,2 c -2.6163,-0.961702 -5.35098,-1.499975 -8.21875,-1.5 -4.41945,2.7e-5 -8.85882,1.669327 -12.28125,4.5 -1.03682,-1.471276 -2.20408,-2.882796 -3.53125,-4.15625 -4.04402,-3.887663 -8.96921,-6.769191 -14.5,-8.5625 a 7.2676024,7.2676024 0 0 0 -0.0937,-0.03125 c 1.35964,0.421845 -0.98906,-0.438285 -3.34375,-1.5625 A 7.2676024,7.2676024 0 0 0 -498.75,22.4375 c -1.13611,-0.529594 -2.09056,-0.957629 -3.03125,-1.3125 -0.94069,-0.354871 -1.33121,-0.843568 -3.9375,-0.84375 -3.15775,1.21e-4 -6.11564,1.723049 -7.84375,3.5 -1.65618,1.703114 -3.3125,4.387345 -3.3125,7.625 0,1.799851 0.0539,4.458896 0.125,7.96875 0.0704,3.471283 0.0937,6.07466 0.0937,7.65625 0,1.344488 -0.0421,3.625864 -0.1875,6.6875 -0.14916,3.140101 -0.28125,5.497614 -0.28125,7.375 0,2.605207 1.33287,5.605274 3.125,7.375 1.25566,1.239967 2.93617,2.005513 4.6875,2.5 1.69642,0.898032 3.46265,1.567642 5.375,2 a 7.2676024,7.2676024 0 0 0 0.0312,0 c 1.84367,0.407549 3.62937,0.687497 5.5,0.6875 5.57224,-2e-6 10.64406,-0.925452 14.9375,-3.71875 1.46818,-0.952343 2.74161,-2.101706 3.9375,-3.34375 0.55421,0.566718 1.05431,1.181357 1.6875,1.65625 3.83959,2.879705 8.65244,4.156249 13.5625,4.15625 3.37883,-10e-7 6.73827,-0.682486 9.8125,-2 0.50637,-0.218317 0.97456,-0.551922 1.46875,-0.8125 1.80292,1.427928 4.27198,2.437497 6.5,2.4375 0.79317,-10e-7 1.62037,-0.312407 2.4375,-0.53125 1.93005,0.476367 3.89779,0.812499 5.90625,0.8125 4.86237,-10e-7 9.63538,-1.910258 13.28125,-5.09375 0.90254,1.069883 1.90034,2.034103 3.03125,2.75 a 7.2676024,7.2676024 0 0 0 0.0625,0.0625 c 2.85531,1.766173 6.16399,2.499999 9.40625,2.5 1.63745,-10e-7 3.26041,-0.216518 4.875,-0.53125 0.85311,0.415322 1.69587,0.726971 2.5625,0.90625 -0.0196,0.242893 -0.15625,0.518032 -0.15625,0.75 0,2.119429 0.87664,4.577549 2.28125,6.25 1.40461,1.672451 3.06331,2.614473 4.59375,3.21875 3.06088,1.208555 5.98769,1.406242 9.5,1.40625 6.61429,-1.7e-5 13.26675,-2.363738 16.90625,-7.78125 2.85377,-4.251601 3.57206,-9.097091 3.75,-14.84375 0.11453,-3.737071 0.50189,-7.250976 1.09375,-10.5625 0.36431,-2.047217 0.62496,-3.751594 0.625,-5.59375 -2e-5,-2.22097 -0.61655,-4.974265 -2.5,-7.1875 -1.1932,-1.402129 -2.72819,-2.204611 -4.28125,-2.78125 -1.19025,-0.881764 -2.42686,-1.6255 -3.71875,-2.0625 -1.95475,-0.661108 -4.01758,-0.968715 -6.15625,-0.96875 -4.20095,2.2e-5 -8.29992,1.104469 -11.8125,3.125 -0.34402,-0.451061 -0.6903,-0.894555 -1.09375,-1.25 -1.91976,-1.69109 -4.7056,-2.718683 -7.1875,-2.71875 -2.16645,2.9e-5 -4.9099,0.682922 -7.03125,2.5625 -0.17731,0.1571 -0.24472,0.364453 -0.40625,0.53125 -0.14778,-0.152904 -0.21872,-0.392116 -0.375,-0.53125 -1.92672,-1.715164 -4.78838,-2.687435 -7.15625,-2.6875 -2.09903,2.9e-5 -4.69921,0.643782 -6.78125,2.375 -0.41926,0.34862 -0.6274,0.817966 -0.96875,1.21875 -3.04362,-2.250609 -6.7949,-3.53357 -10.5625,-3.71875 0.0553,-0.435102 0.1562,-0.697369 0.15625,-1.8125 -10e-6,-2.012977 -0.51046,-4.733662 -2.5625,-6.96875 -2.05204,-2.235088 -5.06982,-3.031202 -7.21875,-3.03125 z m -49.875,27.59375 c 1.49587,1.185274 1.99999,2.03023 2,2.8125 -10e-6,0.399528 -0.047,0.731524 -0.375,1.34375 -0.28981,0.540964 -0.45714,0.709906 -0.8125,0.9375 0.36379,-0.232205 -0.0257,-0.144664 -0.8125,0 l 0,-5.09375 z"
       id="path3247"
       style="font-size:48px;font-style:normal;font-variant:normal;font-weight:bold;font-stretch:normal;line-height:125%;letter-spacing:0px;word-spacing:0px;fill:#ffffff;fill-opacity:1;stroke:none;font-family:Comic Sans MS;-inkscape-font-specification:Comic Sans MS Bold" />
    <path
       d="m -446,23.4375 c -2.30936,7.4e-5 -4.74444,1.528197 -5.875,3.5 -0.007,0.01232 -0.0243,0.01889 -0.0312,0.03125 -0.82928,1.46268 -1.21875,3.148546 -1.21875,4.8125 l 0,8.625 c -0.93083,-1.171979 -2.06004,-2.183997 -3.40625,-2.84375 a 3.7033477,3.7033477 0 0 0 0,-0.03125 c -2.46158,-1.19864 -5.29028,-1.656222 -8.40625,-1.65625 -4.86605,3e-5 -9.35519,2.133248 -12.28125,5.96875 -0.24127,0.317461 -0.43762,0.668503 -0.65625,1 -1.17557,-2.752949 -2.96675,-5.340251 -5.34375,-7.625 -0.006,-0.0057 -0.0253,0.0057 -0.0312,0 -3.64355,-3.497276 -8.03849,-6.142128 -13.09375,-7.78125 a 3.7033477,3.7033477 0 0 0 -0.0625,0 c 0.4706,0.146009 -1.42487,-0.610057 -3.8125,-1.75 a 3.7033477,3.7033477 0 0 0 -0.0312,0 c -1.08852,-0.507408 -1.98197,-0.917227 -2.78125,-1.21875 -0.79928,-0.301523 -1.23298,-0.593648 -2.6875,-0.59375 -2.06888,7.9e-5 -3.99452,1.051906 -5.28125,2.375 -1.25008,1.285504 -2.28125,3.084992 -2.28125,5.15625 0,1.767755 0.023,4.385318 0.0937,7.875 0.0703,3.470051 0.125,6.093489 0.125,7.75 0,1.451415 -0.0719,3.751045 -0.21875,6.84375 -0.14881,3.132699 -0.25,5.495796 -0.25,7.21875 0,1.756661 0.81152,3.639265 2.03125,4.84375 0.94204,0.930269 2.21598,1.46232 3.53125,1.75 1.40804,0.794081 2.98404,1.399109 4.8125,1.8125 1.66745,0.368596 3.23738,0.562497 4.75,0.5625 5.13458,-2e-6 9.51247,-0.885075 12.96875,-3.125 0.0125,-0.0081 0.0188,-0.02314 0.0312,-0.03125 2.43272,-1.58608 4.35742,-3.719692 5.875,-6.15625 0.91419,1.805545 2.19465,3.419426 3.84375,4.65625 3.12131,2.340989 7.07278,3.406249 11.40625,3.40625 2.92483,-10e-7 5.76689,-0.556357 8.40625,-1.6875 1.32024,-0.569208 2.4476,-1.331234 3.46875,-2.25 0.33563,0.6386 0.7064,1.270918 1.21875,1.75 1.2149,1.136015 3.02087,1.812498 4.6875,1.8125 0.89404,-10e-7 1.80896,-0.221554 2.65625,-0.59375 1.84339,0.51909 3.73156,0.874999 5.6875,0.875 4.54755,-10e-7 8.77702,-1.782342 11.90625,-5 l 0.0312,0.03125 c 0.006,-0.0059 -0.006,-0.02534 0,-0.03125 0.77804,-0.800217 1.46979,-1.673033 2.0625,-2.59375 0.74274,2.378926 2.14697,4.53226 4.21875,5.84375 A 3.7033477,3.7033477 0 0 0 -419.90625,67 c 2.19828,1.359766 4.79095,1.937499 7.53125,1.9375 1.744,-10e-7 3.46573,-0.277186 5.15625,-0.6875 1.16982,0.812905 2.54933,1.343748 3.875,1.34375 1.65409,-4e-6 3.47978,-0.580196 4.8125,-1.78125 0.73584,-0.663187 1.28209,-1.565871 1.65625,-2.53125 0.80202,0.734941 1.67156,1.356444 2.625,1.875 -0.17654,-0.0073 -0.42324,-0.0625 -0.59375,-0.0625 -1.5836,-1.2e-5 -3.45646,0.555892 -4.75,1.8125 -1.28837,1.251529 -1.90625,3.127601 -1.90625,4.75 0,1.375019 0.50528,2.895971 1.40625,3.96875 0.90097,1.072779 2.03646,1.733024 3.1875,2.1875 2.30208,0.908951 4.90728,1.124993 8.1875,1.125 5.9222,-1.5e-5 11.07907,-1.932627 13.9375,-6.1875 2.20516,-3.285284 2.98894,-7.534038 3.15625,-12.9375 0.11965,-3.904331 0.5328,-7.605494 1.15625,-11.09375 0.34655,-1.947423 0.53122,-3.516616 0.53125,-4.96875 -2e-5,-1.648984 -0.41908,-3.457926 -1.625,-4.875 -0.88583,-1.040932 -2.08879,-1.609692 -3.3125,-1.96875 -0.94625,-0.781205 -1.98456,-1.426731 -3.125,-1.8125 -1.51717,-0.513117 -3.18989,-0.74997 -5,-0.75 -5.22933,2.7e-5 -9.91127,1.693333 -13.3125,5.03125 -0.20132,-1.526244 -0.82983,-3.090349 -1.96875,-4.09375 -1.3001,-1.145246 -3.0957,-1.781203 -4.8125,-1.78125 -1.56757,2.1e-5 -3.31473,0.436377 -4.65625,1.625 -1.34152,1.188623 -2.02456,2.865606 -2.21875,4.40625 -0.32461,2.545553 -0.43752,5.438495 -0.4375,8.75 -2e-5,0.790764 2e-4,2.132805 0.0312,3.96875 1.2e-4,0.0118 -1.2e-4,0.01947 0,0.03125 0.003,0.306238 -0.003,0.52089 0,0.8125 -0.32667,0.03602 -0.69385,0.138641 -1,0.15625 -0.0572,-0.428454 -0.14186,-0.649404 -0.1875,-1.15625 -0.13466,-1.495339 -0.21876,-3.313155 -0.21875,-5.4375 -10e-6,-0.387691 0.0994,-1.400002 0.3125,-2.78125 0.23824,-1.544502 0.37498,-2.672995 0.375,-3.78125 -2e-5,-1.800708 -0.82427,-3.75508 -2.1875,-4.96875 -1.29598,-1.153682 -3.13021,-1.749954 -4.78125,-1.75 -1.51022,2.1e-5 -3.20881,0.400388 -4.53125,1.5 -1.32244,1.099612 -2.0475,2.690287 -2.3125,4.1875 -0.0165,0.09192 -0.0153,0.15867 -0.0312,0.25 -0.20672,-0.278481 -0.36895,-0.577316 -0.59375,-0.84375 a 3.7033477,3.7033477 0 0 0 -0.0312,-0.03125 c -2.90613,-3.427166 -7.15398,-5.281219 -11.71875,-5.28125 -0.88378,2.2e-5 -1.78607,0.229029 -2.6875,0.40625 l 0,-3.78125 c -10e-6,-0.107969 0.0288,-0.256816 0.0625,-0.53125 0.0549,-0.446765 0.0937,-0.728652 0.0937,-1.40625 -10e-6,-1.470196 -0.34407,-3.170091 -1.59375,-4.53125 -1.24968,-1.361159 -3.08875,-1.874967 -4.59375,-1.875 z m -53.46875,18 c 1.29472,0.610215 3.65744,1.600629 4.09375,1.875 a 3.7033477,3.7033477 0 0 0 0,0.03125 c 3.88746,2.426338 5.09373,4.484571 5.09375,6.90625 -2e-5,1.015869 -0.24308,1.968312 -0.8125,3.03125 -0.55,1.026634 -1.19943,1.697238 -2.0625,2.25 -0.39455,0.251838 -2.21789,0.843754 -5.25,0.84375 -0.39948,2e-6 -0.71934,-0.07552 -1.0625,-0.125 l 0,-14.8125 z m 62.1875,7.09375 c 0.86394,9e-6 1.02114,0.09622 1.46875,0.65625 0.005,0.0068 -0.005,0.02437 0,0.03125 0.46796,0.601841 0.78124,1.330019 0.78125,2.71875 -10e-6,1.271699 -0.29187,1.859393 -0.90625,2.5 -0.61254,0.638678 -1.06052,0.875003 -2.21875,0.875 -0.36043,10e-7 -1.22523,-0.365319 -1.8125,-0.5 -0.003,-2.097994 -0.005,-3.933351 0,-5.0625 0.44859,-0.259673 1.0204,-0.656056 1.375,-0.8125 0.77139,-0.340308 1.2595,-0.406249 1.3125,-0.40625 z M -384.3125,49.25 c -0.16669,1.137276 -0.37042,2.720274 -0.5,3.375 a 3.7033477,3.7033477 0 0 0 -0.0625,0.25 c -0.0554,0.443163 -0.32077,1.151359 -1.21875,2.1875 -0.87519,0.989047 -1.16284,0.96875 -1.03125,0.96875 -0.58338,2e-6 -0.2503,0.02044 -0.21875,0.0625 0.0197,0.02627 -0.31251,-0.545026 -0.3125,-1.96875 -10e-6,-1.848368 0.40794,-2.8806 1.09375,-3.71875 0.0105,-0.01237 0.0208,-0.01907 0.0312,-0.03125 0.55937,-0.650987 1.26585,-0.966433 2.21875,-1.125 z m -68.8125,2.25 0,2.4375 c -0.64054,-0.275832 -1.24193,-0.433311 -1.875,-0.5 0.72333,-0.553053 1.30427,-1.2332 1.875,-1.9375 z"
       id="path3249"
       style="font-size:48px;font-style:normal;font-variant:normal;font-weight:bold;font-stretch:normal;line-height:125%;letter-spacing:0px;word-spacing:0px;fill:#000000;fill-opacity:1;stroke:none;font-family:Comic Sans MS;-inkscape-font-specification:Comic Sans MS Bold" />
    <g
       id="text3241"
       style="font-size:48px;font-style:normal;font-variant:normal;font-weight:bold;font-stretch:normal;line-height:125%;letter-spacing:0px;word-spacing:0px;fill:#ffff00;fill-opacity:1;stroke:none;font-family:Comic Sans MS;-inkscape-font-specification:Comic Sans MS Bold">
      <path
         d="m -506.57367,64.274559 c -0.92188,-0.01563 -1.69532,-0.332031 -2.32031,-0.949219 -0.62501,-0.617186 -0.93751,-1.363279 -0.9375,-2.238281 -10e-6,-1.562495 0.0742,-3.906243 0.22265,-7.03125 0.14844,-3.124987 0.22266,-5.468735 0.22266,-7.03125 0,-1.734356 -0.0352,-4.335916 -0.10547,-7.804687 -0.0703,-3.468722 -0.10547,-6.070282 -0.10547,-7.804688 0,-0.859341 0.41406,-1.714809 1.24219,-2.566406 0.82812,-0.851527 1.71093,-1.277308 2.64844,-1.277344 0.51562,3.6e-5 1.81249,0.484411 3.89062,1.453125 2.42186,1.156284 3.85936,1.804721 4.3125,1.945313 4.57811,1.484406 8.48435,3.781279 11.71875,6.890625 3.85935,3.703147 5.78903,7.796893 5.78907,12.28125 -4e-5,2.703136 -0.6641,5.273446 -1.99219,7.710937 -1.32816,2.484379 -3.14847,4.476564 -5.46094,5.976563 -2.59377,1.687498 -6.24221,2.531247 -10.94531,2.53125 -1.14064,-3e-6 -2.45314,-0.164065 -3.9375,-0.492188 -1.79689,-0.406251 -3.21095,-0.937501 -4.24219,-1.59375 z m 13.17188,-24.09375 c -1.51565,-0.9531 -4.76564,-2.453099 -9.75,-4.5 l 0,23.203125 c 0.60936,0.39063 1.30858,0.683598 2.09765,0.878906 0.78905,0.195317 1.66796,0.292973 2.63672,0.292969 3.37498,4e-6 5.79686,-0.468746 7.26563,-1.40625 1.3906,-0.890619 2.49606,-2.101555 3.3164,-3.632812 0.82029,-1.53124 1.23044,-3.124988 1.23047,-4.78125 -3e-5,-3.874983 -2.26565,-7.226542 -6.79687,-10.054688 z"
         id="path3012" />
      <path
         d="m -464.29242,65.118309 c -3.73438,-10e-7 -6.78907,-0.890625 -9.16406,-2.671875 -2.625,-1.968746 -3.9375,-4.742181 -3.9375,-8.320312 0,-3.953112 1.03906,-7.296858 3.11719,-10.03125 2.31249,-3.031228 5.42967,-4.546851 9.35156,-4.546875 2.71873,2.4e-5 4.97654,0.437524 6.77344,1.3125 2.35935,1.156272 3.53903,2.953145 3.53906,5.390625 -3e-5,1.718766 -0.96096,3.242202 -2.88281,4.570312 -0.87502,0.609388 -2.63284,1.500012 -5.27344,2.671875 l -7.89844,3.492188 c 0.74999,0.812506 1.65624,1.42188 2.71875,1.828125 1.06249,0.406254 2.28124,0.609379 3.65625,0.609375 2.09373,4e-6 3.86717,-0.429683 5.32031,-1.289063 1.29686,-0.765618 2.33592,-1.14843 3.11719,-1.148437 1.62498,7e-6 2.43748,0.789068 2.4375,2.367187 -2e-5,1.781253 -1.30471,3.234376 -3.91406,4.359375 -2.18752,0.937499 -4.50783,1.406249 -6.96094,1.40625 z m -0.63281,-19.898437 c -1.45314,1.8e-5 -2.69533,0.484393 -3.72656,1.453125 -1.03126,0.968766 -1.85939,2.421889 -2.48438,4.359375 1.76562,-0.765612 3.52343,-1.523423 5.27344,-2.273438 2.10936,-0.953109 3.78904,-1.83592 5.03906,-2.648437 -1.04689,-0.593732 -2.41408,-0.890607 -4.10156,-0.890625 z"
         id="path3014" />
      <path
         d="m -438.15961,65.024559 c -2.18751,-10e-7 -4.26563,-0.382813 -6.23437,-1.148437 -0.57813,0.578124 -1.28126,0.867186 -2.10938,0.867187 -0.84375,-10e-7 -1.56641,-0.28125 -2.16797,-0.84375 -0.60156,-0.562499 -0.90234,-1.265624 -0.90234,-2.109375 0,-0.374997 0.0234,-0.949216 0.0703,-1.722656 0.0469,-0.773433 0.0703,-1.347651 0.0703,-1.722656 l 0,-26.554688 c -1e-5,-1.124967 0.24999,-2.124966 0.75,-3 0.62499,-1.109339 1.51562,-1.664026 2.67187,-1.664062 1.67187,3.6e-5 2.5078,0.906286 2.50781,2.71875 -10e-6,0.203159 -0.0274,0.527377 -0.082,0.972656 -0.0547,0.445345 -0.082,0.769563 -0.082,0.972656 l 0,8.976563 c 1.15624,-0.640602 2.26562,-1.12107 3.32813,-1.441407 1.06248,-0.320287 2.08592,-0.480443 3.07031,-0.480468 3.67185,2.5e-5 6.6406,1.335961 8.90625,4.007812 2.10935,2.500019 3.16403,5.531266 3.16406,9.09375 -3e-5,3.625008 -1.22659,6.695318 -3.67969,9.210938 -2.50002,2.578125 -5.59376,3.867186 -9.28125,3.867187 z m 0.89063,-20.179687 c -0.81252,1.9e-5 -1.75001,0.234393 -2.8125,0.703125 -1.06251,0.468768 -2.25782,1.171892 -3.58594,2.109375 -0.0156,1.484389 -0.0156,4.804699 0,9.960937 2.14062,0.921881 3.97655,1.382818 5.50781,1.382813 1.98436,5e-6 3.61717,-0.667964 4.89844,-2.003907 1.28123,-1.335929 1.92186,-3.019521 1.92188,-5.050781 -2e-5,-2.031236 -0.52346,-3.710922 -1.57032,-5.039062 -1.09376,-1.374982 -2.54689,-2.062481 -4.35937,-2.0625 z"
         id="path3016" />
      <path
         d="m -400.26117,50.493309 c -2e-5,1.046888 0.008,2.625011 0.0234,4.734375 0.0156,2.109382 0.0234,3.687505 0.0234,4.734375 -3e-5,0.328129 0.0273,0.81641 0.082,1.464844 0.0547,0.648439 0.082,1.13672 0.082,1.464844 -3e-5,0.875 -0.31643,1.597655 -0.94922,2.167968 -0.63283,0.570311 -1.41018,0.855467 -2.33203,0.855469 -1.2969,-2e-6 -2.24221,-0.585939 -2.83594,-1.757812 -2.00001,0.734374 -4.07032,1.101561 -6.21094,1.101562 -2.21876,-10e-7 -4.08594,-0.468751 -5.60156,-1.40625 -1.70313,-1.078124 -2.71875,-2.648435 -3.04687,-4.710937 -0.60938,-3.906242 -0.91407,-7.398426 -0.91407,-10.476563 0,-2.031233 0.23438,-4.351543 0.70313,-6.960937 0.3125,-1.765601 1.36718,-2.648413 3.16406,-2.648438 0.90624,2.5e-5 1.67968,0.285181 2.32031,0.855469 0.64062,0.570336 0.96093,1.292991 0.96094,2.167969 -1e-5,0.687521 -0.11329,1.765645 -0.33984,3.234375 -0.22657,1.468767 -0.33985,2.585953 -0.33985,3.351562 0,2.203138 0.0742,4.128918 0.22266,5.777344 0.14843,1.648445 0.37108,3.011725 0.66797,4.089844 0.39061,0.17188 0.76952,0.304692 1.13672,0.398437 0.36717,0.09375 0.72264,0.14063 1.0664,0.140625 1.73437,5e-6 3.64061,-0.249995 5.71875,-0.75 -1e-5,-1.203118 -0.008,-2.570304 -0.0234,-4.101562 -0.0313,-1.828114 -0.0469,-3.140613 -0.0469,-3.9375 -2e-5,-3.203109 0.14842,-5.968731 0.44531,-8.296875 0.23436,-1.859352 1.29686,-2.789038 3.1875,-2.789063 0.92186,2.5e-5 1.71092,0.289087 2.36719,0.867188 0.65623,0.578148 0.96091,1.30471 0.91406,2.179687 -0.2969,5.953141 -0.44533,8.703138 -0.44531,8.25 z"
         id="path3018" />
      <path
         d="m -374.12836,50.071434 c -0.65627,3.671885 -1.0469,7.546881 -1.17187,11.625 -0.15627,5.046872 -1.00002,8.710931 -2.53125,10.992188 -2.0469,3.046863 -5.67189,4.570299 -10.875,4.570312 -6.07813,-1.3e-5 -9.11719,-1.203137 -9.11719,-3.609375 0,-0.859384 0.27344,-1.554696 0.82031,-2.085937 0.54688,-0.531257 1.26563,-0.796882 2.15625,-0.796875 0.70312,-7e-6 1.71094,0.132805 3.02344,0.398437 1.31249,0.265618 2.47655,0.39843 3.49219,0.398438 2.32811,-8e-6 4.04686,-0.710945 5.15625,-2.132813 1.06248,-1.390629 1.68748,-3.601564 1.875,-6.632812 -0.79689,0.8125 -1.69533,1.421874 -2.69531,1.828125 -1.00002,0.406249 -2.09377,0.609373 -3.28125,0.609375 -3.10939,-2e-6 -5.63673,-1.011719 -7.58204,-3.035157 -1.94531,-2.023433 -2.91796,-4.613275 -2.91796,-7.769531 0,-4.249986 1.29687,-7.687483 3.89062,-10.3125 2.68749,-2.718727 6.3203,-4.078101 10.89844,-4.078125 1.46873,2.4e-5 2.73436,0.179711 3.79687,0.539063 1.06248,0.359398 1.92186,0.906272 2.57813,1.640625 1.98435,0.234396 2.97654,1.40627 2.97656,3.515625 -2e-5,1.046892 -0.16409,2.492203 -0.49219,4.335937 z m -9.09375,-4.6875 c -2.64063,1.9e-5 -4.69532,0.867205 -6.16406,2.601563 -1.31251,1.578139 -1.96876,3.625012 -1.96875,6.140625 -1e-5,1.859383 0.35156,3.257819 1.05469,4.195312 0.70311,0.937505 1.7578,1.406254 3.16406,1.40625 1.28124,4e-6 2.5703,-0.742182 3.86719,-2.226562 1.21873,-1.406243 1.91404,-2.796866 2.08594,-4.171875 0.29685,-1.499988 0.6406,-3.835923 1.03125,-7.007813 -0.53127,-0.312482 -1.05471,-0.546857 -1.57032,-0.703125 -0.51564,-0.156231 -1.01564,-0.234356 -1.5,-0.234375 z"
         id="path3020" />
    </g>
  </g>
</svg>
