<?xml version="1.0" encoding="UTF-8" standalone="no"?>
<!-- Created with Inkscape (http://www.inkscape.org/) -->

<svg
   xmlns:dc="http://purl.org/dc/elements/1.1/"
   xmlns:cc="http://creativecommons.org/ns#"
   xmlns:rdf="http://www.w3.org/1999/02/22-rdf-syntax-ns#"
   xmlns:svg="http://www.w3.org/2000/svg"
   xmlns="http://www.w3.org/2000/svg"
   version="1.2"
   width="512"
   height="128"
   id="svg3213">
  <defs
     id="defs3215" />
  <metadata
     id="metadata3218">
    <rdf:RDF>
      <cc:Work
         rdf:about="">
        <dc:format>image/svg+xml</dc:format>
        <dc:type
           rdf:resource="http://purl.org/dc/dcmitype/StillImage" />
        <dc:title></dc:title>
      </cc:Work>
    </rdf:RDF>
  </metadata>
  <g
     transform="translate(683.46875,7.5312507)"
     id="layer1">
    <flowRoot
       id="flowRoot3221"
       xml:space="preserve"
       style="font-size:22px;font-style:normal;font-variant:normal;font-weight:normal;font-stretch:normal;line-height:125%;letter-spacing:0px;word-spacing:0px;fill:#000000;fill-opacity:1;stroke:none;font-family:Comic Sans MS;-inkscape-font-specification:Comic Sans MS"><flowRegion
         id="flowRegion3223"><rect
           width="42.857143"
           height="45.714287"
           x="-565.71429"
           y="149.50504"
           id="rect3225" /></flowRegion><flowPara
         id="flowPara3227" /></flowRoot>    <path
       d="m -519.5625,19.15625 c -1.73951,4.5e-5 -3.62433,0.128689 -5.625,0.40625 -1.22467,0.169958 -2.45465,0.453933 -3.6875,0.71875 -0.78455,-0.185336 -1.57796,-0.374957 -2.375,-0.375 -2.40869,4.1e-5 -5.63014,0.88058 -7.8125,3.25 -2.18236,2.36942 -2.75,5.290722 -2.75,7.59375 0,1.100541 0.11959,2.178618 0.3125,3.5 0.13961,0.956324 0.15625,1.658698 0.15625,1.375 0,1.695671 -0.1381,4.752403 -0.4375,8.875 -0.31267,4.305139 -0.46875,7.56771 -0.46875,9.96875 0,5.841806 0.24849,11.080663 4.96875,15.28125 a 7.2676024,7.2676024 0 0 0 0.0312,0 c 4.51623,4.014432 9.03362,3.906248 14.78125,3.90625 5.09104,-2e-6 8.19866,-0.08088 11.0625,-0.625 l 0,0.03125 c 1.56835,-0.294909 3.30338,-1.151063 4.875,-2.40625 1.01776,0.323123 2.05457,0.65625 3.0625,0.65625 2.79721,0 5.81223,-1.482703 7.5625,-3.3125 a 7.2676024,7.2676024 0 0 0 0.0625,-0.0625 c 0.11553,-0.123785 0.55539,-0.546165 1.25,-1.125 a 7.2676024,7.2676024 0 0 0 0.25,-0.21875 c 0.16878,-0.153887 0.2115,-0.225689 0.375,-0.375 0.6377,0.740141 1.71172,2.072911 2.21875,2.625 1.72519,1.882073 4.73628,3.499997 7.6875,3.5 2.54834,-3e-6 5.37061,-1.187945 7.1875,-2.875 0.35653,-0.331076 0.60971,-0.887521 0.9375,-1.3125 0.50478,0.753437 0.98888,1.552705 1.625,2.09375 l -0.0312,0.03125 c 0.028,0.02376 0.0654,0.03905 0.0937,0.0625 0.007,0.0057 0.0244,-0.0057 0.0312,0 0.006,0.0049 -0.006,0.02633 0,0.03125 1.9023,1.560091 4.58964,2.437497 6.8125,2.4375 2.72138,-10e-7 6.0635,-1.63418 8,-3.9375 0.11923,0.158963 0.18299,0.349406 0.3125,0.5 l -0.0312,0.03125 c 0.024,0.02824 0.0693,0.03458 0.0937,0.0625 0.005,0.0052 -0.005,0.02607 0,0.03125 1.95356,2.221272 5.19309,3.406245 7.6875,3.40625 2.59273,-6e-6 5.43784,-1.074864 7.375,-2.9375 1.87631,-1.804156 3.15622,-4.932085 3.15625,-7.4375 a 7.2676024,7.2676024 0 0 0 0,-0.03125 l 0,-5.0625 c 0.71932,0.217601 1.38837,0.272485 2.0625,0.34375 0.59325,3.524205 1.89807,6.848346 4.375,9.5 3.52267,3.771159 8.70899,5.343749 13.78125,5.34375 1.90262,-2e-6 3.4605,-0.411417 5,-0.90625 0.13404,-0.04309 0.27279,-0.110995 0.40625,-0.15625 1.02261,0.658132 2.25756,1.312493 4.59375,1.3125 1.92435,-5e-6 3.96663,-0.789572 5.6875,-1.875 0.21079,0.08683 0.4143,0.23384 0.625,0.3125 2.66447,0.993126 5.44854,1.406249 8.21875,1.40625 3.83941,-10e-7 7.59589,-0.723334 10.9375,-2.5625 a 7.2676024,7.2676024 0 0 0 0.0312,-0.03125 c 4.24796,-2.362943 7.49996,-7.527982 7.5,-12.46875 -3e-5,-2.768868 -1.09401,-5.304016 -2.625,-7.46875 0.2565,-0.324455 0.5737,-0.63646 0.75,-0.96875 1.32046,-2.488825 1.40624,-4.523762 1.40625,-6.5625 -4e-5,-3.09935 -2.01861,-7.570919 -5.34375,-9.375 -0.0231,-0.0125 -0.0395,-0.01895 -0.0625,-0.03125 -2.50945,-1.340545 -4.6547,-1.499964 -6.875,-1.5 -4.38333,2.8e-5 -7.82934,0.252562 -11.15625,1.34375 a 7.2676024,7.2676024 0 0 0 -0.0312,0 c -1.78895,0.58793 -3.46971,1.609258 -5.03125,2.875 -1.03191,-0.725652 -2.06569,-1.343037 -3.15625,-1.8125 l 0,0.03125 c -2.53836,-1.096534 -5.11909,-1.906203 -8.03125,-1.90625 -4.36738,2.7e-5 -8.64404,1.430423 -12.21875,3.875 -2.23952,-2.63247 -5.92926,-4.093726 -8.9375,-4.09375 -2.71227,2e-5 -5.37425,0.576579 -7.90625,1.53125 -1.49992,-0.667567 -3.04219,-1.124981 -4.40625,-1.125 -1.05693,2.6e-5 -2.29788,0.327174 -3.5,0.75 -0.47417,-0.301044 -0.90156,-0.696025 -1.40625,-0.875 -0.0122,-0.0044 -0.0191,0.0043 -0.0312,0 -0.79295,-0.281358 -1.32542,-0.322357 -1.9375,-0.4375 -0.28315,-0.949661 -0.50526,-1.890877 -1.09375,-2.875 -1.6766,-2.803773 -5.67439,-4.999955 -8.84375,-5 -2.32605,8.5e-5 -5.17489,0.874377 -7.21875,2.71875 -1.48551,1.340645 -2.3247,3.32935 -2.8125,5.28125 -1.44749,-0.667225 -2.98756,-1.156204 -4.46875,-1.15625 -3.1598,8e-5 -6.77174,2.048259 -8.5,4.5 -0.0487,0.06883 -0.60417,0.582947 -0.8125,0.8125 -0.90774,-0.974336 -1.78394,-1.945623 -2.875,-2.75 -1.38935,-1.024289 -3.17334,-2.183102 -6.0625,-2.25 0.007,-0.145894 0.0937,-0.293054 0.0937,-0.4375 -8e-5,-3.859747 -3.45012,-8.458832 -6.84375,-9.75 -3.64353,-1.39943 -7.55552,-1.843707 -12.03125,-1.84375 z m 41.25,32.53125 c 0.10797,0.03178 0.20529,0.06547 0.3125,0.09375 0.0141,0.43696 0.0205,0.933106 0.0312,1.3125 L -478.75,52.125 c 0.15638,-0.138338 0.29253,-0.309785 0.4375,-0.4375 z"
       id="path3247"
       style="font-size:48px;font-style:normal;font-variant:normal;font-weight:bold;font-stretch:normal;line-height:125%;letter-spacing:0px;word-spacing:0px;fill:#ffffff;fill-opacity:1;stroke:none;font-family:Comic Sans MS;-inkscape-font-specification:Comic Sans MS Bold" />
    <path
       d="m -519.5625,22.75 c -1.59906,4.2e-5 -3.30474,0.09122 -5.125,0.34375 -1.36641,0.189628 -2.7954,0.518807 -4.21875,0.84375 -0.75488,-0.268288 -1.54031,-0.437457 -2.34375,-0.4375 -1.7638,3e-5 -3.80723,0.563923 -5.1875,2.0625 -1.38027,1.498577 -1.78125,3.43157 -1.78125,5.1875 0,0.829023 0.0751,1.770516 0.25,2.96875 0.14777,1.012242 0.21875,1.782624 0.21875,1.90625 0,1.883251 -0.16676,4.966753 -0.46875,9.125 -0.30875,4.251284 -0.4375,7.46842 -0.4375,9.71875 0,5.45195 0.50943,9.741201 3.75,12.625 3.05996,2.719973 7.01055,2.968748 12.4375,2.96875 5.00807,-2e-6 8.18062,-0.108388 10.40625,-0.53125 1.46388,-0.275266 3.01911,-0.9316 4.15625,-2.21875 0.24736,-0.279989 0.34424,-0.622334 0.53125,-0.9375 1.1658,0.79599 2.53293,1.34375 3.90625,1.34375 1.84684,0 3.77094,-0.902595 5,-2.1875 A 3.7033477,3.7033477 0 0 0 -498.4375,65.5 c 0.27343,-0.292965 0.79474,-0.797708 1.5625,-1.4375 a 3.7033477,3.7033477 0 0 0 0.125,-0.09375 c 1.37023,-1.249329 2.07244,-1.950774 3.09375,-2.90625 1.65475,1.994304 3.55141,4.308082 4.53125,5.375 1.21626,1.326869 3.12951,2.312498 5.0625,2.3125 1.71235,-2e-6 3.53357,-0.716473 4.78125,-1.875 1.2245,-1.137085 2.15618,-2.9869 2.15625,-4.84375 -8e-5,-1.674038 -0.71161,-3.1227 -1.59375,-4.21875 a 3.7033477,3.7033477 0 0 0 0,-0.03125 l -4.96875,-6.0625 0.96875,-0.90625 0.0312,0.03125 c 1.4075,-1.251116 2.52677,-2.270822 3.375,-3 a 3.7033477,3.7033477 0 0 0 0.1875,-0.15625 c 0.0556,-0.05403 0.10106,-0.102443 0.15625,-0.15625 1.02957,0.635485 2.12755,1.070131 3.21875,1.1875 0.53287,0.05732 0.78505,0.04565 1.25,0.09375 0.14461,3.669911 0.28124,7.487206 0.28125,8.75 -10e-6,0.494021 -0.0174,1.292755 -0.0625,2.375 -0.0487,1.167747 -0.0625,2.05634 -0.0625,2.6875 -2e-5,1.820908 0.93217,3.772137 2.3125,4.9375 0.005,0.004 0.0265,-0.0039 0.0312,0 0.0107,0.009 0.0204,0.02228 0.0312,0.03125 1.27421,1.058294 3.00659,1.624998 4.5625,1.625 2.10325,-10e-7 4.51962,-1.193143 5.6875,-3.03125 1.16788,-1.838107 1.40624,-3.842611 1.40625,-6.03125 -10e-6,-0.455902 -0.016,-0.89658 -0.0312,-1.4375 -0.0162,-0.574177 -0.0312,-1.049437 -0.0312,-1.0625 -10e-6,-1.474487 -0.14562,-5.27367 -0.28125,-8.8125 0.22744,0.01597 0.386,0.03127 0.71875,0.03125 0.63993,1.3e-5 1.27021,-0.192709 1.90625,-0.375 l 0,14.03125 c 0,1.558448 0.52316,3.291926 1.625,4.5625 0.0155,0.01784 0.0156,0.04484 0.0312,0.0625 l 0.0312,-0.03125 c 1.25454,1.436926 3.25616,2.187496 5,2.1875 1.78095,-4e-6 3.62027,-0.700997 4.90625,-1.9375 1.25496,-1.206705 2.03123,-3.130277 2.03125,-4.84375 l -0.0312,-10.625 c 0.28072,-0.47949 0.59754,-0.877038 0.9375,-1.21875 0.2822,0.661866 0.58024,1.321659 1.125,1.875 1.3619,1.383352 3.26366,1.843761 4.875,1.84375 0.62363,4e-6 1.28476,-0.199929 1.9375,-0.375 0.12491,4.277035 1.2219,8.072613 3.78125,10.8125 2.71843,2.910192 6.75605,4.187499 11.1875,4.1875 1.345,-2e-6 2.58535,-0.262932 3.90625,-0.6875 0.6166,-0.198198 1.31993,-0.547242 1.96875,-0.8125 0.20731,0.160277 0.41209,0.386416 0.625,0.53125 0.8745,0.594896 1.799,1.218745 3.5,1.21875 1.61995,-4e-6 3.34883,-0.611693 4.59375,-1.6875 0.2469,-0.213382 0.38136,-0.552134 0.59375,-0.8125 0.73431,0.472871 1.54055,0.875974 2.375,1.1875 2.20066,0.820248 4.53796,1.156249 6.96875,1.15625 3.39708,-10e-7 6.52744,-0.612496 9.21875,-2.09375 a 3.7033477,3.7033477 0 0 0 0.0312,0 c 3.3907,-1.886088 5.62497,-5.539302 5.625,-9.375 -3e-5,-3.067548 -1.70206,-5.78963 -4.09375,-7.8125 1.12458,-0.560962 2.14418,-1.316099 2.65625,-2.28125 0.85582,-1.613063 0.96874,-3.177699 0.96875,-4.90625 -3e-5,-2.30911 -1.25038,-5.104766 -3.46875,-6.28125 l 0,0.03125 c -1.6619,-0.900115 -3.31068,-1.062469 -5.21875,-1.0625 -4.18768,2.6e-5 -7.40934,0.254794 -10.0625,1.125 -2.16011,0.709908 -4.11488,1.901332 -5.5,3.65625 -0.24252,0.307271 -0.33268,0.696336 -0.53125,1.03125 -0.28294,-0.450309 -0.52769,-0.933936 -0.875,-1.28125 -1.08662,-1.086616 -2.36226,-1.813202 -3.8125,-2.4375 -2.25135,-0.972549 -4.41308,-1.562464 -6.625,-1.5625 -4.73604,2.9e-5 -9.14009,1.795194 -12.53125,5.0625 -0.25984,0.250357 -0.44509,0.549722 -0.6875,0.8125 -0.29577,-1.098384 -0.75494,-2.147946 -1.46875,-3.09375 -1.49766,-1.984393 -4.09161,-2.999981 -6.46875,-3 -2.77475,2.1e-5 -5.38891,0.78549 -7.875,1.9375 -1.28027,-1.087138 -2.94666,-1.531229 -4.4375,-1.53125 -1.26848,3.1e-5 -2.609,0.502979 -3.78125,1.28125 -0.6659,-0.722581 -1.43333,-1.342999 -2.3125,-1.65625 -0.0107,-0.0038 -0.0206,0.0038 -0.0312,0 -1.27935,-0.452031 -2.40686,-0.518151 -3.6875,-0.53125 -0.14645,-1.515653 -0.42232,-2.980633 -1.21875,-4.3125 -1.13787,-1.902864 -3.59919,-3.218719 -5.78125,-3.21875 -1.62974,5.9e-5 -3.45683,0.557899 -4.8125,1.78125 -1.37604,1.241849 -2.15627,3.224885 -2.15625,4.9375 0,0.229342 0.0235,0.582559 0.0312,0.84375 -0.0287,-1.77e-4 -0.0968,10e-7 -0.125,0 -1.04172,2.8e-5 -2.11158,0.316278 -3.125,0.8125 -1.24969,-0.952987 -2.81122,-1.531204 -4.3125,-1.53125 -2.11591,5.3e-5 -4.38359,1.251988 -5.59375,2.96875 -0.42064,0.594378 -1.43845,1.694366 -2.9375,3 -0.0158,0.01374 -0.0154,0.01746 -0.0312,0.03125 -0.33483,0.283619 -0.6656,0.560722 -1,0.84375 L -493.5,39.53125 a 3.7033477,3.7033477 0 0 0 -0.125,-0.15625 c -1.08666,-1.243121 -2.08302,-2.248226 -3.1875,-3.0625 -1.10448,-0.814274 -2.36376,-1.562457 -4.1875,-1.5625 -1.82433,5.5e-5 -3.67914,0.836395 -4.875,2.0625 -0.99479,1.020011 -1.58234,2.490757 -1.78125,3.9375 -0.18637,-0.226266 -0.28453,-0.526353 -0.5,-0.71875 -1.31579,-1.174713 -3.14786,-1.81246 -4.84375,-1.8125 -1.23237,3.4e-5 -3.0095,0.136927 -6.03125,0.4375 -2.90513,0.286188 -3.46693,0.351934 -5.03125,0.5 0.0193,-0.753616 0.051,-1.538641 0.0625,-2.1875 0.37125,-0.06483 0.80298,-0.169449 1.15625,-0.21875 1.19591,-0.166846 2.30678,-0.249974 3.28125,-0.25 2.03566,2.6e-5 4.15765,0.295552 6.40625,0.90625 0.54549,0.148831 1.16228,0.281327 1.96875,0.28125 1.90974,5.9e-5 3.91263,-0.938908 5.125,-2.3125 0.009,-0.01049 0.0219,-0.02068 0.0312,-0.03125 1.07999,-1.216576 1.74994,-2.941151 1.75,-4.59375 -6e-5,-2.671786 -2.09698,-5.511339 -4.53125,-6.4375 -3.01375,-1.157541 -6.53824,-1.562459 -10.75,-1.5625 z m 13.5,22.96875 c 0.27434,0.321655 0.47287,0.713755 0.78125,0.96875 0.62586,0.523271 1.45355,1.422464 2.40625,2.6875 0.0116,0.01548 0.0196,0.01566 0.0312,0.03125 0.25267,0.345769 0.49869,0.686822 0.75,1.03125 -0.66369,0.648109 -1.53591,1.506546 -2,1.96875 -0.0475,0.04735 -0.17328,0.142035 -0.21875,0.1875 -0.97266,0.8273 -1.91662,1.641065 -2.875,2.46875 a 3.7033477,3.7033477 0 0 0 -0.0937,0.09375 c -0.69833,0.638719 -1.30956,1.354774 -1.84375,2.125 -1.24022,-0.881391 -2.77964,-1.406243 -4.28125,-1.40625 -0.81652,1.1e-5 -1.29054,0.08797 -1.9375,0.1875 -0.45897,0.07061 -0.74695,0.09375 -0.8125,0.09375 -1.00857,4e-6 -2.49133,0.01505 -4.46875,0.0625 -1.8391,0.04414 -3.15867,0.08839 -4.03125,0.09375 -0.0253,-0.58751 -0.0625,-1.006468 -0.0625,-1.84375 0,-0.344128 0.0537,-0.983128 0.0625,-1.40625 2.49844,-0.214082 5.20411,-0.451796 6.75,-0.625 0.0415,-0.0037 0.0526,0.0036 0.0937,0 2.41499,-0.212378 4.27195,-0.378976 5.46875,-0.46875 a 3.7033477,3.7033477 0 0 0 0.1875,0 c 1.57181,-0.198013 3.23903,-0.829322 4.46875,-2.15625 1.0741,-1.159009 1.51172,-2.671855 1.625,-4.09375 z m 86,4.28125 c 0.0178,1.472393 0.24051,3.65838 0.46875,5.84375 -0.3845,0.125405 -0.78516,0.218752 -1.3125,0.21875 -0.61284,2e-6 -0.26193,0.05256 -0.34375,-0.0625 -0.0818,-0.115061 -0.46876,-0.910896 -0.46875,-2.5625 -10e-6,-1.305811 0.35223,-2.150859 1.375,-3.21875 0.1028,-0.107335 0.18346,-0.12701 0.28125,-0.21875 z m 13.65625,1.46875 c 0.76537,1.240627 1.78277,2.346203 2.96875,3.25 -0.87271,0.08355 -1.73846,0.334976 -2.59375,0.8125 -0.16124,-0.916964 -0.37501,-1.898986 -0.375,-4 0,-0.02369 -5e-5,-0.03894 0,-0.0625 z"
       id="path3249"
       style="font-size:48px;font-style:normal;font-variant:normal;font-weight:bold;font-stretch:normal;line-height:125%;letter-spacing:0px;word-spacing:0px;fill:#000000;fill-opacity:1;stroke:none;font-family:Comic Sans MS;-inkscape-font-specification:Comic Sans MS Bold" />
    <g
       id="text3241"
       style="font-size:48px;font-style:normal;font-variant:normal;font-weight:bold;font-stretch:normal;line-height:125%;letter-spacing:0px;word-spacing:0px;fill:#ffff00;fill-opacity:1;stroke:none;font-family:Comic Sans MS;-inkscape-font-specification:Comic Sans MS Bold">
      <path
         d="m -511.19086,33.993309 c -0.31252,3e-5 -0.64065,-0.04685 -0.98437,-0.140625 -2.53127,-0.687469 -4.99221,-1.031219 -7.38281,-1.03125 -1.1719,3.1e-5 -2.42971,0.09378 -3.77344,0.28125 -1.34376,0.187531 -2.77345,0.46878 -4.28906,0.84375 -10e-6,2.078153 -0.0703,5.164087 -0.21094,9.257813 0.87499,-0.06248 3.92967,-0.351542 9.16406,-0.867188 2.98435,-0.296853 4.87498,-0.44529 5.67188,-0.445312 0.92185,2.2e-5 1.71091,0.29299 2.36718,0.878906 0.65623,0.585958 0.98435,1.363301 0.98438,2.332031 -3e-5,1.859392 -0.99222,2.914079 -2.97656,3.164063 -1.25003,0.09376 -3.11721,0.250015 -5.60157,0.46875 -2.21876,0.250015 -5.56251,0.554702 -10.03125,0.914062 -0.10938,1.984387 -0.16407,3.585948 -0.16406,4.804688 -10e-6,3.062506 0.17968,4.804692 0.53906,5.226562 0.17187,0.203129 1.15624,0.304692 2.95313,0.304688 0.96873,4e-6 2.42967,-0.02343 4.38281,-0.07031 1.95311,-0.04687 3.41404,-0.07031 4.38281,-0.07031 0.31248,4e-6 0.77342,-0.04687 1.38282,-0.140625 0.60935,-0.09375 1.06247,-0.140621 1.35937,-0.140625 0.90623,4e-6 1.67966,0.257816 2.32031,0.773437 0.73435,0.578128 1.10154,1.390627 1.10157,2.4375 -3e-5,1.75 -0.91409,2.796873 -2.74219,3.140625 -1.56252,0.296873 -4.80471,0.44531 -9.72656,0.445313 -5.09376,-3e-6 -8.41407,-0.687502 -9.96094,-2.0625 -1.70313,-1.515624 -2.55469,-4.796871 -2.55469,-9.84375 0,-2.093739 0.15234,-5.238267 0.45703,-9.433594 0.30469,-4.19529 0.45703,-7.332005 0.45703,-9.410156 0,-0.546847 -0.0781,-1.355439 -0.23437,-2.425782 -0.15625,-1.07028 -0.23438,-1.878873 -0.23438,-2.425781 0,-2.374964 1.09375,-3.562463 3.28125,-3.5625 0.6875,3.7e-5 1.32031,0.195349 1.89844,0.585938 1.81249,-0.453089 3.53515,-0.792932 5.16797,-1.019532 1.6328,-0.226525 3.17576,-0.339806 4.62891,-0.339843 3.93747,3.7e-5 7.08591,0.453162 9.44531,1.359375 1.43747,0.54691 2.15622,1.539097 2.15625,2.976562 -3e-5,0.812532 -0.28128,1.531282 -0.84375,2.15625 -0.62503,0.71878 -1.4219,1.078155 -2.39063,1.078125 z"
         id="path3257" />
      <path
         d="m -481.70648,45.032372 c -0.89065,0.765643 -2.03909,1.773454 -3.44531,3.023437 l -3.58594,3.328125 7.14844,8.742188 c 0.51559,0.640628 0.77341,1.27344 0.77343,1.898437 -2e-5,0.812501 -0.32815,1.523438 -0.98437,2.132813 -0.65628,0.609374 -1.40628,0.914061 -2.25,0.914062 -0.87502,-10e-7 -1.65627,-0.375001 -2.34375,-1.125 -1.40627,-1.531248 -3.72658,-4.289058 -6.96094,-8.273437 -1.26564,1.265632 -3.22657,3.10938 -5.88281,5.53125 -0.84376,0.703127 -1.48438,1.289064 -1.92188,1.757812 -0.6875,0.71875 -1.46094,1.078125 -2.32031,1.078125 -0.84375,0 -1.58985,-0.304687 -2.23828,-0.914062 -0.64844,-0.609374 -0.97266,-1.320311 -0.97266,-2.132813 0,-0.906246 0.64063,-1.945307 1.92188,-3.117187 1.03124,-0.890618 2.06249,-1.77343 3.09375,-2.648438 0.95312,-0.953115 2.43749,-2.414051 4.45312,-4.382812 -0.87501,-1.218736 -1.75782,-2.437485 -2.64843,-3.65625 -1.07814,-1.437482 -2.09376,-2.554669 -3.04688,-3.351563 -0.8125,-0.671854 -1.21875,-1.429666 -1.21875,-2.273437 0,-0.812477 0.30859,-1.535133 0.92578,-2.167969 0.61718,-0.632787 1.35547,-0.949193 2.21485,-0.949219 1.10936,2.6e-5 2.64061,1.117212 4.59375,3.351563 l 3.75,4.828125 c 1.34373,-1.124982 2.67967,-2.249981 4.00781,-3.375 1.65623,-1.437478 2.84373,-2.66404 3.5625,-3.679688 0.67185,-0.9531 1.52341,-1.429662 2.55469,-1.429687 0.84372,2.5e-5 1.59763,0.2969 2.26171,0.890625 0.66404,0.593774 0.99607,1.296898 0.9961,2.109375 -3e-5,1.015646 -0.81253,2.31252 -2.4375,3.890625 z"
         id="path3259" />
      <path
         d="m -459.93304,45.172997 c -0.32815,1.8e-5 -0.71487,-0.0117 -1.16016,-0.03516 -0.44533,-0.02342 -0.83205,-0.03514 -1.16016,-0.03516 -0.64064,1.9e-5 -1.38282,0.06252 -2.22656,0.1875 0.28124,6.312512 0.42186,10.437508 0.42188,12.375 -2e-5,0.203131 0.008,0.582037 0.0234,1.136719 0.0156,0.554692 0.0234,1.00391 0.0234,1.347656 -1e-5,3.59375 -1.13283,5.390624 -3.39844,5.390625 -0.85938,-10e-7 -1.60157,-0.265626 -2.22656,-0.796875 -0.68751,-0.5625 -1.03126,-1.265624 -1.03125,-2.109375 -1e-5,-0.562498 0.0234,-1.406247 0.0703,-2.53125 0.0469,-1.124995 0.0703,-1.968744 0.0703,-2.53125 -1e-5,-1.890617 -0.14064,-5.937488 -0.42188,-12.140625 -0.96876,-0.04686 -2.4336,-0.175762 -4.39453,-0.386719 -1.96094,-0.210918 -2.94141,-1.222636 -2.94141,-3.035156 0,-0.874977 0.29688,-1.617164 0.89063,-2.226562 0.59375,-0.609351 1.35937,-0.914038 2.29687,-0.914063 0.57812,2.5e-5 1.90625,0.09377 3.98438,0.28125 -0.0156,-0.499975 -0.0547,-1.328099 -0.11719,-2.484375 -0.0625,-0.999972 -0.0938,-1.773408 -0.0937,-2.320312 -1e-5,-0.87497 0.32031,-1.601532 0.96094,-2.179688 0.64061,-0.578093 1.41405,-0.867155 2.32031,-0.867187 2.31249,3.2e-5 3.46874,1.945343 3.46875,5.835937 l -0.0469,1.921875 c 0.96873,-0.1406 1.75779,-0.210912 2.36718,-0.210937 1.79686,2.5e-5 3.02342,0.117212 3.67969,0.351562 1.24998,0.437524 1.87498,1.390648 1.875,2.859375 -2e-5,0.890646 -0.30471,1.632833 -0.91406,2.226563 -0.6094,0.593769 -1.38283,0.890643 -2.32031,0.890625 z"
         id="path3261" />
      <path
         d="m -434.24554,47.141747 c -0.14065,2.390639 -1.22659,3.58595 -3.25782,3.585937 -1.96876,1.3e-5 -2.95314,-1.015611 -2.95312,-3.046875 l -0.11719,-2.367187 c -3.51564,0.562518 -6.03126,2.367203 -7.54687,5.414062 l 0.0234,11.789063 c -10e-6,0.890625 -0.30469,1.628906 -0.91406,2.214843 -0.60938,0.585936 -1.38282,0.878905 -2.32031,0.878907 -0.96876,-2e-6 -1.71876,-0.312502 -2.25,-0.9375 -0.5,-0.562501 -0.75,-1.28125 -0.75,-2.15625 l 0,-15.351563 c 0,-0.484358 0.0156,-1.207013 0.0469,-2.167969 0.0312,-0.960917 0.0469,-1.683573 0.0469,-2.167968 0,-0.874978 0.26171,-1.605446 0.78515,-2.191407 0.52344,-0.585913 1.26953,-0.878882 2.23829,-0.878906 1.73436,2.4e-5 2.76561,0.890648 3.09375,2.671875 2.76561,-2.062476 5.83592,-3.093725 9.21093,-3.09375 3.12498,2.5e-5 4.68748,2.078148 4.6875,6.234375 -2e-5,0.796893 -0.008,1.32033 -0.0234,1.570313 z"
         id="path3263" />
      <path
         d="m -410.59711,65.587059 c -0.71877,-2e-6 -1.85939,-0.781251 -3.42187,-2.34375 -1.43752,0.6875 -2.70314,1.207031 -3.79688,1.558594 -1.09376,0.351561 -2.02345,0.527342 -2.78906,0.527344 -3.76563,-2e-6 -6.58985,-1.007813 -8.47266,-3.023438 -1.88281,-2.015621 -2.82422,-5.031243 -2.82421,-9.046875 -10e-6,-3.76561 1.39062,-6.988263 4.17187,-9.667969 2.78124,-2.679664 6.10936,-4.019507 9.98438,-4.019531 1.48435,2.4e-5 3.2031,0.421899 5.15625,1.265625 2.35935,1.015647 3.53903,2.195334 3.53906,3.539063 -3e-5,0.562519 -0.17971,1.054706 -0.53906,1.476562 -0.15628,0.625018 -0.27737,1.410173 -0.36329,2.355469 -0.086,0.945327 -0.12893,2.050795 -0.1289,3.316406 -3e-5,2.984385 0.21091,5.13282 0.63281,6.445313 0.0469,0.14063 0.40623,0.95313 1.07813,2.4375 0.60935,1.343752 0.91403,2.109376 0.91406,2.296875 -3e-5,0.828125 -0.31643,1.515624 -0.94922,2.0625 -0.63284,0.546873 -1.36331,0.82031 -2.19141,0.820312 z m -5.8125,-16.078125 c -1e-5,-0.499985 0.0351,-1.074203 0.10547,-1.722656 0.0703,-0.648421 0.17577,-1.371076 0.31641,-2.167969 -0.31252,-0.156231 -0.58986,-0.269513 -0.83203,-0.339844 -0.24221,-0.07029 -0.44924,-0.10545 -0.6211,-0.105468 -2.12501,1.8e-5 -3.98438,0.832049 -5.57812,2.496093 -1.59376,1.664077 -2.39063,3.589857 -2.39063,5.777344 0,2.093759 0.37499,3.667976 1.125,4.722656 0.74999,1.054693 1.87499,1.582036 3.375,1.582032 0.96874,4e-6 1.88671,-0.160152 2.75391,-0.480469 0.86717,-0.320308 1.68358,-0.792963 2.44922,-1.417969 -0.46877,-3.71874 -0.70314,-6.499987 -0.70313,-8.34375 z"
         id="path3265" />
      <path
         d="m -387.60492,46.883934 c -1.54689,1.7e-5 -2.47658,-0.64842 -2.78906,-1.945312 -0.62502,-0.109356 -1.26564,-0.164044 -1.92188,-0.164063 -3.76563,1.9e-5 -5.64844,0.515644 -5.64843,1.546875 -10e-6,0.609392 1.1328,1.429704 3.39843,2.460938 3.09374,1.421888 5.18749,2.531262 6.28125,3.328125 2.26561,1.640635 3.39842,3.492195 3.39844,5.554687 -2e-5,2.687504 -1.25002,4.726564 -3.75,6.117188 -2.01564,1.109374 -4.4922,1.664061 -7.42969,1.664062 -2.07813,-10e-7 -3.97657,-0.320314 -5.69531,-0.960937 -2.34375,-0.875 -3.51563,-2.164061 -3.51562,-3.867188 -10e-6,-1.562495 0.92968,-2.343744 2.78906,-2.34375 0.71874,6e-6 1.7578,0.226568 3.11719,0.679688 1.35936,0.453129 2.40624,0.679691 3.14062,0.679687 3.17186,4e-6 4.76561,-0.64062 4.78125,-1.921875 -1e-5,-0.796868 -1.10158,-1.679679 -3.30469,-2.648437 -3.21876,-1.421865 -5.28125,-2.445302 -6.1875,-3.070313 -2.20313,-1.546861 -3.30469,-3.429672 -3.30468,-5.648437 -10e-6,-3.140605 1.66405,-5.25779 4.99218,-6.351563 1.95312,-0.6406 4.92187,-0.960912 8.90625,-0.960937 1.56249,2.5e-5 2.71873,0.203149 3.46875,0.609375 1.03123,0.546898 1.54686,1.55471 1.54688,3.023437 -2e-5,2.812519 -0.75783,4.218767 -2.27344,4.21875 z"
         id="path3267" />
    </g>
  </g>
</svg>
