<?xml version="1.0" encoding="UTF-8" standalone="no"?>
<!-- Created with Inkscape (http://www.inkscape.org/) -->

<svg
   xmlns:dc="http://purl.org/dc/elements/1.1/"
   xmlns:cc="http://creativecommons.org/ns#"
   xmlns:rdf="http://www.w3.org/1999/02/22-rdf-syntax-ns#"
   xmlns:svg="http://www.w3.org/2000/svg"
   xmlns="http://www.w3.org/2000/svg"
   xmlns:xlink="http://www.w3.org/1999/xlink"
   xmlns:sodipodi="http://sodipodi.sourceforge.net/DTD/sodipodi-0.dtd"
   xmlns:inkscape="http://www.inkscape.org/namespaces/inkscape"
   width="512"
   height="128"
   id="svg3213"
   version="1.1"
   inkscape:version="0.48.4 r9939"
   sodipodi:docname="off.svg">
  <defs
     id="defs3215" />
  <sodipodi:namedview
     id="base"
     pagecolor="#ffffff"
     bordercolor="#666666"
     borderopacity="1.0"
     inkscape:pageopacity="0.0"
     inkscape:pageshadow="2"
     inkscape:zoom="1.4"
     inkscape:cx="181.64714"
     inkscape:cy="57.544504"
     inkscape:document-units="px"
     inkscape:current-layer="layer1"
     showgrid="false"
     fit-margin-top="0"
     fit-margin-left="0"
     fit-margin-right="0"
     fit-margin-bottom="0"
     inkscape:window-width="1366"
     inkscape:window-height="716"
     inkscape:window-x="-8"
     inkscape:window-y="-8"
     inkscape:window-maximized="1" />
  <metadata
     id="metadata3218">
    <rdf:RDF>
      <cc:Work
         rdf:about="">
        <dc:format>image/svg+xml</dc:format>
        <dc:type
           rdf:resource="http://purl.org/dc/dcmitype/StillImage" />
        <dc:title />
      </cc:Work>
    </rdf:RDF>
  </metadata>
  <g
     inkscape:label="Layer 1"
     inkscape:groupmode="layer"
     id="layer1"
     transform="translate(683.46875,7.5312507)">
    <flowRoot
       xml:space="preserve"
       id="flowRoot3221"
       style="font-size:22px;font-style:normal;font-variant:normal;font-weight:normal;font-stretch:normal;line-height:125%;letter-spacing:0px;word-spacing:0px;fill:#000000;fill-opacity:1;stroke:none;font-family:Comic Sans MS;-inkscape-font-specification:Comic Sans MS"><flowRegion
         id="flowRegion3223"><rect
           id="rect3225"
           width="42.857143"
           height="45.714287"
           x="-565.71429"
           y="149.50504" /></flowRegion><flowPara
         id="flowPara3227" /></flowRoot>    <path
       sodipodi:type="inkscape:offset"
       inkscape:radius="7.2668757"
       inkscape:original="M -432.125 26.5625 C -435.87501 26.562537 -438.65626 27.625036 -440.46875 29.75 C -441.92188 31.453158 -442.87501 34.046905 -443.3125 37.53125 C -443.50001 39.01565 -443.60938 39.906274 -443.625 40.1875 C -445.67188 40.250024 -447.03125 40.390649 -447.71875 40.59375 C -449.25 41.046898 -450.03125 41.984397 -450.03125 43.4375 C -450.03125 44.37502 -449.71875 45.132831 -449.09375 45.6875 C -448.46875 46.242205 -447.67188 46.500018 -446.71875 46.5 C -446.40625 46.500018 -445.9375 46.484393 -445.34375 46.40625 C -444.59376 46.296893 -444.09376 46.234393 -443.8125 46.21875 L -443.8125 57.9375 C -443.81251 59.906254 -444.00001 61.984377 -444.375 64.21875 C -444.40626 64.40625 -444.40626 64.609374 -444.40625 64.8125 C -444.40626 65.671873 -444.08594 66.374998 -443.4375 66.9375 C -442.78907 67.499997 -442.03126 67.781246 -441.15625 67.78125 C -439.45314 67.781246 -438.42189 66.953122 -438.0625 65.28125 C -437.70314 63.609375 -437.53126 61.359378 -437.53125 58.5 C -437.53126 57.984381 -437.56251 55.875008 -437.625 52.1875 C -437.65626 49.625014 -437.62501 47.500017 -437.5625 45.84375 C -435.56252 45.671893 -434.07814 45.625018 -433.09375 45.65625 C -429.9844 45.750018 -428.43752 44.750019 -428.4375 42.6875 C -428.43752 40.687523 -429.89065 39.687524 -432.8125 39.6875 C -433.71877 39.687524 -435.21877 39.781274 -437.3125 39.96875 L -437.25 39.28125 C -437.03126 37.187527 -436.60939 35.671903 -435.96875 34.6875 C -435.10939 33.359406 -433.73439 32.687531 -431.84375 32.6875 C -429.18752 32.687531 -427.84377 31.656282 -427.84375 29.625 C -427.84377 27.578161 -429.26565 26.562537 -432.125 26.5625 z M -407.75 26.5625 C -411.50001 26.562537 -414.28126 27.625036 -416.09375 29.75 C -417.54688 31.453158 -418.50001 34.046905 -418.9375 37.53125 C -419.12501 39.01565 -419.23438 39.906274 -419.25 40.1875 C -421.29688 40.250024 -422.65625 40.390649 -423.34375 40.59375 C -424.875 41.046898 -425.65625 41.984397 -425.65625 43.4375 C -425.65625 44.37502 -425.34375 45.132831 -424.71875 45.6875 C -424.09375 46.242205 -423.29688 46.500018 -422.34375 46.5 C -422.03125 46.500018 -421.5625 46.484393 -420.96875 46.40625 C -420.21876 46.296893 -419.71876 46.234393 -419.4375 46.21875 L -419.4375 57.9375 C -419.43751 59.906254 -419.62501 61.984377 -420 64.21875 C -420.03126 64.40625 -420.03126 64.609374 -420.03125 64.8125 C -420.03126 65.671873 -419.71094 66.374998 -419.0625 66.9375 C -418.41407 67.499997 -417.65626 67.781246 -416.78125 67.78125 C -415.07814 67.781246 -414.04689 66.953122 -413.6875 65.28125 C -413.32814 63.609375 -413.15626 61.359378 -413.15625 58.5 C -413.15626 57.984381 -413.18751 55.875008 -413.25 52.1875 C -413.28126 49.625014 -413.25001 47.500017 -413.1875 45.84375 C -411.18752 45.671893 -409.70314 45.625018 -408.71875 45.65625 C -405.6094 45.750018 -404.06252 44.750019 -404.0625 42.6875 C -404.06252 40.687523 -405.51565 39.687524 -408.4375 39.6875 C -409.34377 39.687524 -410.84377 39.781274 -412.9375 39.96875 L -412.875 39.28125 C -412.65626 37.187527 -412.23439 35.671903 -411.59375 34.6875 C -410.73439 33.359406 -409.35939 32.687531 -407.46875 32.6875 C -404.81252 32.687531 -403.46877 31.656282 -403.46875 29.625 C -403.46877 27.578161 -404.89065 26.562537 -407.75 26.5625 z M -468.6875 28.53125 C -474.35939 28.531286 -479.04689 30.984408 -482.78125 35.90625 C -486.10938 40.281274 -487.78125 45.125019 -487.78125 50.4375 C -487.78125 54.953134 -486.03125 58.656255 -482.5625 61.5 C -479.31251 64.15625 -475.37501 65.468749 -470.75 65.46875 C -465.06252 65.468749 -460.46878 62.984376 -456.9375 58 C -453.87504 53.68751 -452.34379 48.875015 -452.34375 43.5625 C -452.34379 38.5469 -453.68754 34.781279 -456.40625 32.28125 C -459.12503 29.781284 -463.2344 28.531286 -468.6875 28.53125 z M -468.6875 34.875 C -465.1094 34.875029 -462.59378 35.500029 -461.1875 36.71875 C -459.71878 38.000026 -459.00003 40.281274 -459 43.5625 C -459.00003 47.484392 -460.0469 50.984388 -462.15625 54.0625 C -464.45315 57.437507 -467.31252 59.125005 -470.75 59.125 C -473.70314 59.125005 -476.15626 58.343756 -478.09375 56.78125 C -480.10938 55.156259 -481.12501 53.031261 -481.125 50.4375 C -481.12501 46.593767 -479.95313 43.093771 -477.625 39.9375 C -475.14064 36.562527 -472.17189 34.875029 -468.6875 34.875 z "
       xlink:href="#text3241"
       style="font-size:48px;font-style:normal;font-variant:normal;font-weight:bold;font-stretch:normal;line-height:125%;letter-spacing:0px;word-spacing:0px;fill:#ffffff;fill-opacity:1;stroke:none;font-family:Comic Sans MS;-inkscape-font-specification:Comic Sans MS Bold"
       id="path3247"
       inkscape:href="#text3241"
       d="m -430.125,19.28125 c -5.1226,5.1e-5 -10.45671,1.742396 -13.875,5.75 -1.2983,1.521686 -2.20596,3.212813 -2.90625,5 -0.75452,-1.10568 -1.58636,-2.167394 -2.59375,-3.09375 -4.51597,-4.152513 -10.62391,-5.687457 -17.1875,-5.6875 -7.76717,4.9e-5 -15.07349,3.921665 -19.875,10.25 -4.18292,5.498696 -6.5,12.100399 -6.5,18.9375 0,6.393116 2.97223,12.642503 7.90625,16.6875 4.56863,3.733991 10.40643,5.624999 16.40625,5.625 7.5552,-10e-7 14.63719,-3.876883 19.25,-10 -0.0166,0.103699 -0.0136,0.176173 -0.0312,0.28125 -0.17126,1.027238 -0.15626,1.577886 -0.15625,1.78125 -3e-5,2.665174 1.4821,5.874531 3.5,7.625 1.8597,1.613247 4.59909,2.624989 7.03125,2.625 2.02937,-5e-6 4.58353,-0.602908 6.625,-2.25 2.04147,-1.647092 3.13448,-4.008846 3.5625,-6 0.54081,-2.516041 0.71874,-5.161923 0.71875,-8.3125 -10e-6,-0.726411 -0.0431,-2.780567 -0.0937,-5.78125 0.77463,-0.1019 1.5681,-0.430446 2.375,-0.71875 0.41857,0.248074 0.80936,0.532081 1.25,0.71875 l 0,5.21875 c -10e-6,1.507392 -0.1188,3.194768 -0.4375,5.09375 -0.17126,1.027238 -0.15626,1.577886 -0.15625,1.78125 -3e-5,2.665174 1.4821,5.874531 3.5,7.625 1.8597,1.613247 4.59909,2.624989 7.03125,2.625 2.02937,-5e-6 4.58353,-0.602908 6.625,-2.25 2.04147,-1.647092 3.13448,-4.008846 3.5625,-6 0.54081,-2.516041 0.71874,-5.161923 0.71875,-8.3125 -10e-6,-0.726411 -0.0431,-2.780567 -0.0937,-5.78125 1.50025,-0.197353 3.03707,-0.589053 4.65625,-1.625 2.71053,-1.73419 4.53122,-5.558294 4.53125,-8.40625 -2e-5,-1.91374 -0.83546,-4.26035 -2.1875,-6.125 1.77339,-1.98985 2.78123,-4.749702 2.78125,-6.9375 -3e-5,-2.706104 -1.54151,-6.371377 -4.125,-8.21875 -2.58349,-1.847373 -5.14746,-2.12497 -7.4375,-2.125 -5.1226,5.1e-5 -10.45671,1.742396 -13.875,5.75 -0.0249,0.0292 -0.0378,0.06444 -0.0625,0.09375 -0.7032,-1.459355 -1.72643,-2.808063 -3,-3.71875 -2.58349,-1.847373 -5.14746,-2.12497 -7.4375,-2.125 z m -36.5625,22.875 c 1.14793,9e-6 1.8065,0.133499 2.3125,0.25 0.05,0.290552 0.0937,0.44844 0.0937,1.15625 -2e-5,2.628761 -0.58389,4.522173 -1.875,6.40625 -1.35253,1.987379 -1.53454,1.875002 -2.59375,1.875 -1.67151,3e-6 -2.25555,-0.294794 -2.78125,-0.71875 -0.53431,-0.430756 -0.3125,0.0093 -0.3125,-0.6875 -10e-6,-2.366701 0.56625,-4.159023 2.0625,-6.1875 1.53147,-2.080479 1.95557,-2.093741 3.09375,-2.09375 z" />
    <path
       sodipodi:type="inkscape:offset"
       inkscape:radius="3.7029774"
       inkscape:original="M -432.125 26.5625 C -435.87501 26.562537 -438.65626 27.625036 -440.46875 29.75 C -441.92188 31.453158 -442.87501 34.046905 -443.3125 37.53125 C -443.50001 39.01565 -443.60938 39.906274 -443.625 40.1875 C -445.67188 40.250024 -447.03125 40.390649 -447.71875 40.59375 C -449.25 41.046898 -450.03125 41.984397 -450.03125 43.4375 C -450.03125 44.37502 -449.71875 45.132831 -449.09375 45.6875 C -448.46875 46.242205 -447.67188 46.500018 -446.71875 46.5 C -446.40625 46.500018 -445.9375 46.484393 -445.34375 46.40625 C -444.59376 46.296893 -444.09376 46.234393 -443.8125 46.21875 L -443.8125 57.9375 C -443.81251 59.906254 -444.00001 61.984377 -444.375 64.21875 C -444.40626 64.40625 -444.40626 64.609374 -444.40625 64.8125 C -444.40626 65.671873 -444.08594 66.374998 -443.4375 66.9375 C -442.78907 67.499997 -442.03126 67.781246 -441.15625 67.78125 C -439.45314 67.781246 -438.42189 66.953122 -438.0625 65.28125 C -437.70314 63.609375 -437.53126 61.359378 -437.53125 58.5 C -437.53126 57.984381 -437.56251 55.875008 -437.625 52.1875 C -437.65626 49.625014 -437.62501 47.500017 -437.5625 45.84375 C -435.56252 45.671893 -434.07814 45.625018 -433.09375 45.65625 C -429.9844 45.750018 -428.43752 44.750019 -428.4375 42.6875 C -428.43752 40.687523 -429.89065 39.687524 -432.8125 39.6875 C -433.71877 39.687524 -435.21877 39.781274 -437.3125 39.96875 L -437.25 39.28125 C -437.03126 37.187527 -436.60939 35.671903 -435.96875 34.6875 C -435.10939 33.359406 -433.73439 32.687531 -431.84375 32.6875 C -429.18752 32.687531 -427.84377 31.656282 -427.84375 29.625 C -427.84377 27.578161 -429.26565 26.562537 -432.125 26.5625 z M -407.75 26.5625 C -411.50001 26.562537 -414.28126 27.625036 -416.09375 29.75 C -417.54688 31.453158 -418.50001 34.046905 -418.9375 37.53125 C -419.12501 39.01565 -419.23438 39.906274 -419.25 40.1875 C -421.29688 40.250024 -422.65625 40.390649 -423.34375 40.59375 C -424.875 41.046898 -425.65625 41.984397 -425.65625 43.4375 C -425.65625 44.37502 -425.34375 45.132831 -424.71875 45.6875 C -424.09375 46.242205 -423.29688 46.500018 -422.34375 46.5 C -422.03125 46.500018 -421.5625 46.484393 -420.96875 46.40625 C -420.21876 46.296893 -419.71876 46.234393 -419.4375 46.21875 L -419.4375 57.9375 C -419.43751 59.906254 -419.62501 61.984377 -420 64.21875 C -420.03126 64.40625 -420.03126 64.609374 -420.03125 64.8125 C -420.03126 65.671873 -419.71094 66.374998 -419.0625 66.9375 C -418.41407 67.499997 -417.65626 67.781246 -416.78125 67.78125 C -415.07814 67.781246 -414.04689 66.953122 -413.6875 65.28125 C -413.32814 63.609375 -413.15626 61.359378 -413.15625 58.5 C -413.15626 57.984381 -413.18751 55.875008 -413.25 52.1875 C -413.28126 49.625014 -413.25001 47.500017 -413.1875 45.84375 C -411.18752 45.671893 -409.70314 45.625018 -408.71875 45.65625 C -405.6094 45.750018 -404.06252 44.750019 -404.0625 42.6875 C -404.06252 40.687523 -405.51565 39.687524 -408.4375 39.6875 C -409.34377 39.687524 -410.84377 39.781274 -412.9375 39.96875 L -412.875 39.28125 C -412.65626 37.187527 -412.23439 35.671903 -411.59375 34.6875 C -410.73439 33.359406 -409.35939 32.687531 -407.46875 32.6875 C -404.81252 32.687531 -403.46877 31.656282 -403.46875 29.625 C -403.46877 27.578161 -404.89065 26.562537 -407.75 26.5625 z M -468.6875 28.53125 C -474.35939 28.531286 -479.04689 30.984408 -482.78125 35.90625 C -486.10938 40.281274 -487.78125 45.125019 -487.78125 50.4375 C -487.78125 54.953134 -486.03125 58.656255 -482.5625 61.5 C -479.31251 64.15625 -475.37501 65.468749 -470.75 65.46875 C -465.06252 65.468749 -460.46878 62.984376 -456.9375 58 C -453.87504 53.68751 -452.34379 48.875015 -452.34375 43.5625 C -452.34379 38.5469 -453.68754 34.781279 -456.40625 32.28125 C -459.12503 29.781284 -463.2344 28.531286 -468.6875 28.53125 z M -468.6875 34.875 C -465.1094 34.875029 -462.59378 35.500029 -461.1875 36.71875 C -459.71878 38.000026 -459.00003 40.281274 -459 43.5625 C -459.00003 47.484392 -460.0469 50.984388 -462.15625 54.0625 C -464.45315 57.437507 -467.31252 59.125005 -470.75 59.125 C -473.70314 59.125005 -476.15626 58.343756 -478.09375 56.78125 C -480.10938 55.156259 -481.12501 53.031261 -481.125 50.4375 C -481.12501 46.593767 -479.95313 43.093771 -477.625 39.9375 C -475.14064 36.562527 -472.17189 34.875029 -468.6875 34.875 z "
       xlink:href="#text3241"
       style="font-size:48px;font-style:normal;font-variant:normal;font-weight:bold;font-stretch:normal;line-height:125%;letter-spacing:0px;word-spacing:0px;fill:#000000;fill-opacity:1;stroke:none;font-family:Comic Sans MS;-inkscape-font-specification:Comic Sans MS Bold"
       id="path3249"
       inkscape:href="#text3241"
       d="m -430.125,22.875 c -4.44944,4.4e-5 -8.52549,1.38445 -11.15625,4.46875 -2.09502,2.455491 -3.15086,5.687192 -3.65625,9.5 -0.55869,0.07632 -1.28915,0.02366 -1.84375,0.1875 -0.23279,0.06889 -0.45426,0.221049 -0.6875,0.3125 -0.80813,-3.049828 -2.21811,-5.740375 -4.4375,-7.78125 -3.63457,-3.342054 -8.76228,-4.71871 -14.78125,-4.71875 -6.73958,4.3e-5 -12.7531,3.173952 -17.03125,8.8125 -3.7637,4.947613 -5.75,10.691869 -5.75,16.78125 0,5.472341 2.3471,10.481634 6.5625,13.9375 3.92193,3.205434 8.83068,4.781249 14.15625,4.78125 6.76582,-10e-7 12.77229,-3.253161 16.84375,-9 2.26528,-3.189913 3.72347,-6.742247 4.53125,-10.46875 0.62701,0.230727 1.24283,0.310843 1.875,0.375 l 0,7.875 c -10e-6,1.733658 -0.18494,3.592782 -0.53125,5.65625 a 3.7033477,3.7033477 0 0 0 0,0.03125 c -0.1026,0.615405 -0.0625,0.984252 -0.0625,1.1875 -2e-5,1.779554 0.87247,3.769647 2.21875,4.9375 1.26566,1.097927 3.05027,1.718742 4.71875,1.71875 1.45173,-3e-6 3.08185,-0.394165 4.375,-1.4375 1.29315,-1.043335 2.03751,-2.54415 2.34375,-3.96875 0.45182,-2.102036 0.59374,-4.554736 0.59375,-7.5625 -10e-6,-0.661781 -0.0318,-2.68761 -0.0937,-6.34375 -1.5e-4,-0.01266 1.5e-4,-0.01861 0,-0.03125 -0.0133,-1.11245 0.0232,-1.815194 0.0312,-2.75 0.16408,2.35e-4 0.55976,-0.0353 0.6875,-0.03125 1.9696,0.0594 3.86352,-0.12301 5.625,-1.25 0.0368,-0.02355 0.0575,-0.06916 0.0937,-0.09375 0.12724,0.137862 0.17237,0.344386 0.3125,0.46875 1.15406,1.024261 2.65024,1.450423 4.0625,1.59375 l 0,7.875 c -10e-6,1.733658 -0.18494,3.592782 -0.53125,5.65625 a 3.7033477,3.7033477 0 0 0 0,0.03125 c -0.1026,0.615405 -0.0625,0.984252 -0.0625,1.1875 -2e-5,1.779554 0.87247,3.769647 2.21875,4.9375 1.26566,1.097927 3.05027,1.718742 4.71875,1.71875 1.45173,-3e-6 3.08185,-0.394165 4.375,-1.4375 1.29315,-1.043335 2.03751,-2.54415 2.34375,-3.96875 0.45182,-2.102036 0.59374,-4.554736 0.59375,-7.5625 -10e-6,-0.661781 -0.0318,-2.68761 -0.0937,-6.34375 -1.5e-4,-0.01266 1.5e-4,-0.01861 0,-0.03125 -0.0133,-1.11245 0.0232,-1.815194 0.0312,-2.75 0.16408,2.35e-4 0.55976,-0.0353 0.6875,-0.03125 1.9696,0.0594 3.86352,-0.12301 5.625,-1.25 1.76148,-1.12699 2.84373,-3.449257 2.84375,-5.40625 -2e-5,-1.896811 -1.0081,-4.159887 -2.6875,-5.3125 -0.94349,-0.647542 -1.92011,-0.963507 -2.9375,-1.15625 1.30997,-0.153837 2.61297,-0.480004 3.78125,-1.375 1.60766,-1.231598 2.43748,-3.386574 2.4375,-5.21875 -2e-5,-1.880864 -0.92766,-4.121131 -2.59375,-5.3125 -1.66609,-1.191369 -3.50691,-1.437476 -5.375,-1.4375 -4.44944,4.4e-5 -8.52549,1.38445 -11.15625,4.46875 -2.09502,2.455491 -3.15086,5.687192 -3.65625,9.5 -0.55869,0.07632 -1.28915,0.02366 -1.84375,0.1875 -0.80189,0.237305 -1.57401,0.682995 -2.3125,1.21875 -0.26157,-0.276697 -0.41053,-0.663461 -0.71875,-0.875 -0.94349,-0.647542 -1.92011,-0.963507 -2.9375,-1.15625 1.30997,-0.153837 2.61297,-0.480004 3.78125,-1.375 1.60766,-1.231598 2.43748,-3.386574 2.4375,-5.21875 -2e-5,-1.880864 -0.92766,-4.121131 -2.59375,-5.3125 -1.66609,-1.191369 -3.50691,-1.437476 -5.375,-1.4375 z m -36.5625,15.6875 c 3.14691,2.6e-5 4.83438,0.771051 5.0625,0.96875 0.28374,0.259165 0.93748,1.321725 0.9375,4.03125 -2e-5,3.262952 -0.83885,5.936581 -2.53125,8.40625 -1.81568,2.667914 -3.30566,3.468753 -5.53125,3.46875 -2.30006,4e-6 -3.81316,-0.548914 -5.03125,-1.53125 -1.26079,-1.016445 -1.65626,-1.841638 -1.65625,-3.46875 -10e-6,-3.091083 0.87702,-5.730918 2.78125,-8.3125 1.99879,-2.715338 3.67992,-3.562481 5.96875,-3.5625 z" />
    <g
       style="font-size:48px;font-style:normal;font-variant:normal;font-weight:bold;font-stretch:normal;line-height:125%;letter-spacing:0px;word-spacing:0px;fill:#ffff00;fill-opacity:1;stroke:none;font-family:Comic Sans MS;-inkscape-font-specification:Comic Sans MS Bold"
       id="text3241">
      <path
         d="m -470.76117,65.469872 c -4.62501,-2e-6 -8.56251,-1.328126 -11.8125,-3.984375 -3.46875,-2.843745 -5.20313,-6.523429 -5.20312,-11.039063 -10e-6,-5.312481 1.66405,-10.156226 4.99218,-14.53125 3.73437,-4.921842 8.43749,-7.382777 14.10938,-7.382812 5.4531,3.5e-5 9.53903,1.250034 12.25781,3.75 2.71872,2.500029 4.07809,6.257838 4.07813,11.273437 -4e-5,5.312515 -1.53129,10.12501 -4.59375,14.4375 -3.53128,4.984376 -8.14065,7.476561 -13.82813,7.476563 z m 2.08594,-30.585938 c -3.48439,2.9e-5 -6.46877,1.687527 -8.95313,5.0625 -2.32813,3.156271 -3.49219,6.656267 -3.49218,10.5 -10e-6,2.593761 1.0078,4.703134 3.02343,6.328125 1.93749,1.562506 4.3828,2.343755 7.33594,2.34375 3.43748,5e-6 6.30466,-1.687493 8.60156,-5.0625 2.10935,-3.078112 3.16404,-6.578108 3.16407,-10.5 -3e-5,-3.281226 -0.73441,-5.562474 -2.20313,-6.84375 -1.40628,-1.218721 -3.89846,-1.828096 -7.47656,-1.828125 z"
         style=""
         id="path4367" />
      <path
         d="m -437.31586,39.969872 c 2.09374,-0.187476 3.59374,-0.281226 4.5,-0.28125 2.92186,2.4e-5 4.38279,1.000023 4.38282,3 -3e-5,2.062519 -1.55471,3.046893 -4.66407,2.953125 -0.98439,-0.03123 -2.47657,0.03908 -4.47656,0.210937 -0.0625,1.656267 -0.0781,3.765639 -0.0469,6.328125 0.0625,3.687508 0.0937,5.789069 0.0937,6.304688 -2e-5,2.859377 -0.17971,5.125 -0.53907,6.796875 -0.35938,1.671872 -1.39063,2.507808 -3.09375,2.507812 -0.87501,-4e-6 -1.63672,-0.281253 -2.28515,-0.84375 -0.64845,-0.562502 -0.97267,-1.273439 -0.97266,-2.132812 -1e-5,-0.203126 0.0156,-0.398438 0.0469,-0.585938 0.37499,-2.234373 0.56249,-4.335933 0.5625,-6.304687 l 0,-11.71875 c -0.28126,0.01564 -0.79689,0.07814 -1.54688,0.1875 -0.59375,0.07814 -1.04688,0.117205 -1.35937,0.117187 -0.95313,1.8e-5 -1.74219,-0.277326 -2.36719,-0.832031 -0.625,-0.554669 -0.9375,-1.300762 -0.9375,-2.238281 0,-1.453103 0.76562,-2.406227 2.29687,-2.859375 0.6875,-0.203102 2.05469,-0.335914 4.10157,-0.398438 0.0156,-0.281226 0.11718,-1.164037 0.30468,-2.648437 0.4375,-3.484345 1.38281,-6.078093 2.83594,-7.78125 1.81249,-2.124964 4.59374,-3.187463 8.34375,-3.1875 2.85935,3.7e-5 4.28904,1.023473 4.28906,3.070312 -2e-5,2.031282 -1.32814,3.046906 -3.98437,3.046875 -1.89064,3.1e-5 -3.26564,0.664093 -4.125,1.992188 -0.64064,0.984403 -1.07033,2.523464 -1.28906,4.617187 z"
         style=""
         id="path4369" />
      <path
         d="m -412.94086,39.969872 c 2.09374,-0.187476 3.59374,-0.281226 4.5,-0.28125 2.92186,2.4e-5 4.38279,1.000023 4.38282,3 -3e-5,2.062519 -1.55471,3.046893 -4.66407,2.953125 -0.98439,-0.03123 -2.47657,0.03908 -4.47656,0.210937 -0.0625,1.656267 -0.0781,3.765639 -0.0469,6.328125 0.0625,3.687508 0.0937,5.789069 0.0937,6.304688 -2e-5,2.859377 -0.17971,5.125 -0.53907,6.796875 -0.35938,1.671872 -1.39063,2.507808 -3.09375,2.507812 -0.87501,-4e-6 -1.63672,-0.281253 -2.28515,-0.84375 -0.64845,-0.562502 -0.97267,-1.273439 -0.97266,-2.132812 -1e-5,-0.203126 0.0156,-0.398438 0.0469,-0.585938 0.37499,-2.234373 0.56249,-4.335933 0.5625,-6.304687 l 0,-11.71875 c -0.28126,0.01564 -0.79689,0.07814 -1.54688,0.1875 -0.59375,0.07814 -1.04688,0.117205 -1.35937,0.117187 -0.95313,1.8e-5 -1.74219,-0.277326 -2.36719,-0.832031 -0.625,-0.554669 -0.9375,-1.300762 -0.9375,-2.238281 0,-1.453103 0.76562,-2.406227 2.29687,-2.859375 0.6875,-0.203102 2.05469,-0.335914 4.10157,-0.398438 0.0156,-0.281226 0.11718,-1.164037 0.30468,-2.648437 0.4375,-3.484345 1.38281,-6.078093 2.83594,-7.78125 1.81249,-2.124964 4.59374,-3.187463 8.34375,-3.1875 2.85935,3.7e-5 4.28904,1.023473 4.28906,3.070312 -2e-5,2.031282 -1.32814,3.046906 -3.98437,3.046875 -1.89064,3.1e-5 -3.26564,0.664093 -4.125,1.992188 -0.64064,0.984403 -1.07033,2.523464 -1.28906,4.617187 z"
         style=""
         id="path4371" />
    </g>
  </g>
</svg>
