<?xml version="1.0" encoding="UTF-8" standalone="no"?>
<!-- Created with Inkscape (http://www.inkscape.org/) -->

<svg
   xmlns:dc="http://purl.org/dc/elements/1.1/"
   xmlns:cc="http://creativecommons.org/ns#"
   xmlns:rdf="http://www.w3.org/1999/02/22-rdf-syntax-ns#"
   xmlns:svg="http://www.w3.org/2000/svg"
   xmlns="http://www.w3.org/2000/svg"
   xmlns:xlink="http://www.w3.org/1999/xlink"
   xmlns:sodipodi="http://sodipodi.sourceforge.net/DTD/sodipodi-0.dtd"
   xmlns:inkscape="http://www.inkscape.org/namespaces/inkscape"
   width="512"
   height="128"
   id="svg3213"
   version="1.1"
   inkscape:version="0.48.4 r9939"
   sodipodi:docname="sound.svg">
  <defs
     id="defs3215" />
  <sodipodi:namedview
     id="base"
     pagecolor="#ffffff"
     bordercolor="#666666"
     borderopacity="1.0"
     inkscape:pageopacity="0.0"
     inkscape:pageshadow="2"
     inkscape:zoom="1.4"
     inkscape:cx="181.64714"
     inkscape:cy="57.544504"
     inkscape:document-units="px"
     inkscape:current-layer="layer1"
     showgrid="false"
     fit-margin-top="0"
     fit-margin-left="0"
     fit-margin-right="0"
     fit-margin-bottom="0"
     inkscape:window-width="1366"
     inkscape:window-height="716"
     inkscape:window-x="-8"
     inkscape:window-y="-8"
     inkscape:window-maximized="1" />
  <metadata
     id="metadata3218">
    <rdf:RDF>
      <cc:Work
         rdf:about="">
        <dc:format>image/svg+xml</dc:format>
        <dc:type
           rdf:resource="http://purl.org/dc/dcmitype/StillImage" />
        <dc:title />
      </cc:Work>
    </rdf:RDF>
  </metadata>
  <g
     inkscape:label="Layer 1"
     inkscape:groupmode="layer"
     id="layer1"
     transform="translate(683.46875,7.5312507)">
    <flowRoot
       xml:space="preserve"
       id="flowRoot3221"
       style="font-size:22px;font-style:normal;font-variant:normal;font-weight:normal;font-stretch:normal;line-height:125%;letter-spacing:0px;word-spacing:0px;fill:#000000;fill-opacity:1;stroke:none;font-family:Comic Sans MS;-inkscape-font-specification:Comic Sans MS"><flowRegion
         id="flowRegion3223"><rect
           id="rect3225"
           width="42.857143"
           height="45.714287"
           x="-565.71429"
           y="149.50504" /></flowRegion><flowPara
         id="flowPara3227" /></flowRoot>    <path
       sodipodi:type="inkscape:offset"
       inkscape:radius="7.2668757"
       inkscape:original="M -393.3125 26.6875 C -395.07815 26.687537 -396.07815 27.593786 -396.34375 29.4375 C -396.62502 31.468783 -396.85939 35.171904 -397.0625 40.5 C -397.73439 40.000024 -398.54689 39.625024 -399.46875 39.375 C -400.39064 39.125025 -401.42189 39.000025 -402.59375 39 C -406.42189 39.000025 -409.53126 40.289086 -411.90625 42.875 C -414.28125 45.460956 -415.46875 48.85939 -415.46875 53.0625 C -415.46875 56.593757 -414.29688 59.500005 -411.9375 61.78125 C -409.62501 64.015625 -406.71876 65.124999 -403.21875 65.125 C -402.00001 65.124999 -400.82814 64.945312 -399.6875 64.625 C -398.54689 64.304687 -397.43752 63.828125 -396.375 63.1875 C -395.81252 64.21875 -394.93752 64.749999 -393.78125 64.75 C -392.95315 64.749999 -392.25002 64.460937 -391.625 63.90625 C -391.00003 63.351563 -390.68753 62.640626 -390.6875 61.78125 C -390.68753 61.578127 -390.70315 61.375003 -390.75 61.125 C -391.1094 59.250005 -391.28128 55.531259 -391.28125 50 C -391.28128 47.734391 -391.10159 44.359395 -390.75 39.875 C -390.39846 35.390654 -390.21878 32.015657 -390.21875 29.75 C -390.21878 28.89066 -390.50003 28.156286 -391.0625 27.5625 C -391.62502 26.968787 -392.39065 26.687537 -393.3125 26.6875 z M -505.3125 29.65625 C -509.17189 29.656284 -512.70314 30.929721 -515.90625 33.46875 C -519.10938 36.007841 -520.73438 38.7969 -520.78125 41.84375 C -520.82813 44.265645 -519.39063 46.140643 -516.5 47.4375 C -514.35939 48.390641 -511.95314 48.875015 -509.25 48.9375 C -505.76564 49.01564 -503.43752 49.29689 -502.28125 49.75 C -500.65627 50.375014 -499.84378 51.656262 -499.84375 53.625 C -499.84378 55.062509 -501.14065 56.390633 -503.75 57.59375 C -506.26564 58.76563 -508.87502 59.343755 -511.5625 59.34375 C -514.70314 59.343755 -516.73438 58.390631 -517.625 56.46875 C -518.28126 55.031259 -519.31251 54.31251 -520.71875 54.3125 C -521.76563 54.31251 -522.5625 54.632822 -523.15625 55.28125 C -523.75 55.929696 -524.0625 56.765632 -524.0625 57.75 C -524.0625 59.671879 -523.10938 61.343753 -521.1875 62.8125 C -518.90626 64.578124 -515.78126 65.468749 -511.8125 65.46875 C -507.31252 65.468749 -503.31252 64.671874 -499.8125 63.09375 C -495.21878 61.015628 -492.90628 57.968756 -492.90625 53.9375 C -492.90628 50.625013 -494.03128 48.031266 -496.25 46.15625 C -498.26565 44.46877 -501.00002 43.484396 -504.46875 43.21875 C -506.45314 43.109396 -508.43752 43.015646 -510.4375 42.90625 C -511.57814 42.750021 -512.4297 42.476584 -513 42.09375 C -513.57032 41.71096 -513.87501 41.218773 -513.875 40.625 C -513.87501 39.4844 -512.93751 38.437526 -511.0625 37.46875 C -509.25002 36.515653 -507.32814 36.015653 -505.3125 36 C -504.56252 36.000028 -503.46096 36.156278 -502 36.46875 C -500.53909 36.781277 -499.4219 36.937527 -498.6875 36.9375 C -497.70315 36.937527 -496.90628 36.609402 -496.28125 35.90625 C -495.71878 35.281279 -495.43753 34.562529 -495.4375 33.75 C -495.43753 32.609406 -496.82815 31.593782 -499.625 30.71875 C -501.87502 30.015659 -503.78127 29.656284 -505.3125 29.65625 z M -436.375 38.4375 C -437.29688 38.437526 -438.08594 38.742213 -438.71875 39.3125 C -439.35156 39.882837 -439.65625 40.593773 -439.65625 41.46875 C -439.65625 41.921897 -439.61719 42.601584 -439.5625 43.53125 C -439.50781 44.460957 -439.5 45.187519 -439.5 45.65625 C -439.5 47.156267 -439.59375 49.23439 -439.8125 51.90625 C -440.03125 54.578134 -440.15625 56.656257 -440.15625 58.15625 C -440.15625 58.593755 -440.09375 59.242192 -440 60.125 C -439.90625 61.007816 -439.875 61.687502 -439.875 62.125 C -439.875 63.015626 -439.57813 63.757813 -438.96875 64.34375 C -438.35938 64.929687 -437.5625 65.218749 -436.625 65.21875 C -435.68751 65.218749 -434.92969 64.929687 -434.3125 64.34375 C -433.69532 63.757813 -433.37501 63.015626 -433.375 62.125 C -433.37501 61.687502 -433.4297 61.007816 -433.53125 60.125 C -433.63282 59.242192 -433.68751 58.593755 -433.6875 58.15625 C -433.68751 57.484382 -433.62501 56.796882 -433.53125 56.09375 C -433.42188 55.234384 -433.37501 54.546884 -433.34375 54.03125 C -432.56251 51.453138 -431.47657 49.335952 -430.09375 47.65625 C -428.71095 45.976581 -427.28126 45.125019 -425.84375 45.125 C -425.17189 45.125019 -424.84377 45.765643 -424.84375 47.0625 C -424.84377 47.343767 -424.87502 47.710954 -424.90625 48.15625 C -424.93752 48.601578 -424.93752 48.89064 -424.9375 49 C -424.93752 49.406265 -424.97658 50.109389 -425.03125 51.09375 C -425.08595 52.078137 -425.09377 52.750011 -425.09375 53.15625 C -425.09377 54.671884 -424.98439 56.312508 -424.75 58.03125 C -424.53127 59.656254 -424.31252 61.265628 -424.09375 62.875 C -423.87502 64.765624 -422.79689 65.718748 -420.875 65.71875 C -419.95315 65.718748 -419.18752 65.421874 -418.5625 64.84375 C -417.93752 64.265625 -417.62502 63.531251 -417.625 62.65625 C -417.62502 61.453128 -417.78909 59.890629 -418.125 57.96875 C -418.46096 56.046883 -418.62502 54.46876 -418.625 53.25 C -418.62502 52.953136 -418.64065 52.468762 -418.625 51.75 L -418.625 50.0625 C -418.62502 46.765642 -419.00002 44.31252 -419.75 42.65625 C -420.87502 40.187524 -422.89064 38.937525 -425.84375 38.9375 C -428.37501 38.937525 -430.78126 40.078149 -433.0625 42.375 L -433.09375 42.125 C -433.23438 39.671899 -434.32813 38.437526 -436.375 38.4375 z M -461.5625 39.0625 C -463.35938 39.062525 -464.4375 39.953149 -464.75 41.71875 C -465.21875 44.328145 -465.4375 46.625017 -465.4375 48.65625 C -465.4375 51.734387 -465.14063 55.250009 -464.53125 59.15625 C -464.20313 61.218753 -463.17188 62.765626 -461.46875 63.84375 C -459.95313 64.781249 -458.09376 65.249999 -455.875 65.25 C -453.73439 65.249999 -451.65627 64.890624 -449.65625 64.15625 C -449.06252 65.328124 -448.14064 65.906248 -446.84375 65.90625 C -445.9219 65.906248 -445.13283 65.632811 -444.5 65.0625 C -443.86721 64.492187 -443.56252 63.78125 -443.5625 62.90625 C -443.56252 62.578126 -443.57034 62.085939 -443.625 61.4375 C -443.67971 60.789066 -443.71877 60.296879 -443.71875 59.96875 C -443.71877 58.92188 -443.7344 57.328132 -443.75 55.21875 C -443.76565 53.109386 -443.75002 51.546887 -443.75 50.5 C -443.75002 50.953138 -443.6094 48.203141 -443.3125 42.25 C -443.26565 41.375023 -443.56252 40.640648 -444.21875 40.0625 C -444.87502 39.4844 -445.6719 39.187525 -446.59375 39.1875 C -448.48439 39.187525 -449.54689 40.140649 -449.78125 42 C -450.07814 44.328145 -450.21877 47.078142 -450.21875 50.28125 C -450.21877 51.078138 -450.21877 52.390637 -450.1875 54.21875 C -450.17189 55.750008 -450.15627 57.109382 -450.15625 58.3125 C -452.23439 58.812505 -454.14064 59.062505 -455.875 59.0625 C -456.21876 59.062505 -456.57032 59.031255 -456.9375 58.9375 C -457.3047 58.843755 -457.70313 58.70313 -458.09375 58.53125 C -458.39063 57.453132 -458.60157 56.085945 -458.75 54.4375 C -458.89845 52.789074 -458.96876 50.859388 -458.96875 48.65625 C -458.96876 47.890641 -458.85157 46.781267 -458.625 45.3125 C -458.39845 43.84377 -458.28126 42.781271 -458.28125 42.09375 C -458.28126 41.218773 -458.60938 40.476586 -459.25 39.90625 C -459.89063 39.335962 -460.65626 39.062525 -461.5625 39.0625 z M -478.15625 39.75 C -482.39063 39.750024 -485.68751 41.343773 -488.0625 44.53125 C -490.0625 47.234392 -491.01563 50.296889 -490.90625 53.75 C -490.79688 57.375007 -489.59375 60.265629 -487.3125 62.4375 C -485.23438 64.421875 -482.73438 65.437499 -479.84375 65.4375 C -476.18752 65.437499 -473.29689 63.984375 -471.125 61.125 C -469.18752 58.562505 -468.21877 55.468759 -468.21875 51.84375 C -468.21877 48.515641 -469.03127 45.750018 -470.6875 43.5 C -472.53127 41.000023 -475.03127 39.750024 -478.15625 39.75 z M -402.5 44.9375 C -401.35939 44.937519 -400.39064 45.171894 -399.5625 45.65625 C -398.73439 46.140643 -398.04689 46.890642 -397.53125 47.875 C -397.56252 52.843761 -397.56252 55.687508 -397.53125 56.4375 C -397.78127 56.703132 -398.04689 56.968757 -398.3125 57.1875 C -399.32814 58.000006 -400.04689 58.500006 -400.46875 58.6875 C -401.09377 58.968755 -402.01564 59.093755 -403.21875 59.09375 C -404.87501 59.093755 -406.31251 58.484381 -407.5625 57.28125 C -408.81251 56.078133 -409.43751 54.656259 -409.4375 52.96875 C -409.43751 50.296889 -408.87501 48.273453 -407.71875 46.9375 C -406.56251 45.601581 -404.81251 44.937519 -402.5 44.9375 z M -478.4375 45.9375 C -475.59377 45.953143 -474.29689 48.468766 -474.5 53.5 C -474.57814 55.343759 -475.17189 56.796882 -476.3125 57.875 C -477.31251 58.79688 -478.48439 59.250005 -479.84375 59.25 C -480.96876 59.250005 -481.96876 58.85938 -482.8125 58.0625 C -483.87501 57.062507 -484.40626 55.625008 -484.40625 53.75 C -484.40626 51.765637 -483.93751 50.046889 -483 48.5625 C -481.89064 46.796892 -480.35939 45.921893 -478.4375 45.9375 z "
       xlink:href="#text3241"
       style="font-size:48px;font-style:normal;font-variant:normal;font-weight:bold;font-stretch:normal;line-height:125%;letter-spacing:0px;word-spacing:0px;fill:#ffffff;fill-opacity:1;stroke:none;font-family:Comic Sans MS;-inkscape-font-specification:Comic Sans MS Bold"
       id="path3247"
       inkscape:href="#text3241"
       d="m -395.3125,19.40625 c -2.12608,4.5e-5 -4.89991,0.717363 -6.96875,2.59375 -2.06884,1.876387 -2.95764,4.376759 -3.25,6.40625 a 7.2676024,7.2676024 0 0 0 0,0.03125 c -0.10714,0.773767 -0.13523,2.445596 -0.21875,3.40625 -4.26008,0.243086 -8.41374,1.816324 -11.6875,4.53125 -2.69656,-2.826612 -6.70232,-4.718719 -10.40625,-4.71875 -1.78458,1.8e-5 -3.50325,0.440106 -5.15625,1.03125 -1.75123,-0.990116 -3.72398,-1.531229 -5.375,-1.53125 -1.96455,5.5e-5 -3.97617,0.788241 -5.71875,1.875 -1.45603,-0.656317 -3.00645,-1.124959 -4.5,-1.125 -2.16645,2.9e-5 -4.9099,0.682922 -7.03125,2.5625 -0.17731,0.1571 -0.24472,0.364453 -0.40625,0.53125 -0.14778,-0.152904 -0.21872,-0.392116 -0.375,-0.53125 -1.92672,-1.715164 -4.78838,-2.687435 -7.15625,-2.6875 -2.09903,2.9e-5 -4.69921,0.643782 -6.78125,2.375 -0.38252,0.318069 -0.58874,0.731566 -0.90625,1.09375 -2.68194,-1.700358 -5.8044,-2.781226 -8.90625,-2.78125 -3.65204,2.1e-5 -7.22556,1.174612 -10.34375,3.0625 0.11405,-0.597747 0.34373,-1.195532 0.34375,-1.78125 -9e-5,-3.523515 -2.3084,-6.22742 -4.0625,-7.5 -1.7541,-1.27258 -3.41449,-1.894487 -5.25,-2.46875 -2.69244,-0.841338 -5.17564,-1.406191 -7.84375,-1.40625 -5.45786,4.8e-5 -10.78009,1.986914 -15.09375,5.40625 -4.29562,3.405101 -7.5707,8.375963 -7.65625,13.9375 l 0.0312,0 c -0.039,2.402044 0.86393,4.702982 2.1875,6.71875 -0.98954,0.519442 -1.95426,1.136733 -2.6875,1.9375 -1.83676,2.005958 -2.8125,4.852658 -2.8125,7.375 0,4.308805 2.61886,8.428097 5.71875,10.8125 0.0116,0.009 0.0196,0.02231 0.0312,0.03125 3.88041,2.987833 8.74041,4.156249 13.78125,4.15625 5.35788,-10e-7 10.44434,-0.977146 15,-3.03125 1.45808,-0.659612 2.8185,-1.533576 4.09375,-2.53125 0.14422,0.148183 0.25644,0.325718 0.40625,0.46875 l 0,0.03125 c 3.28656,3.129301 7.88417,5.031248 12.46875,5.03125 4.41762,-10e-7 8.78848,-1.812804 12.09375,-4.71875 0.73678,0.762373 1.54334,1.422509 2.40625,1.96875 a 7.2676024,7.2676024 0 0 0 0.0625,0.0625 c 2.85531,1.766173 6.16399,2.499999 9.40625,2.5 1.63745,-10e-7 3.26041,-0.216518 4.875,-0.53125 1.38188,0.672745 2.81934,1.187498 4.15625,1.1875 1.83677,-4e-6 3.88709,-0.7161 5.6875,-1.8125 1.50434,0.686625 3.08199,1.124998 4.53125,1.125 2.43125,-3e-6 5.4067,-1.065706 7.3125,-2.875 0.15639,-0.148477 0.22757,-0.399176 0.375,-0.5625 0.35235,0.456181 0.54844,0.975989 1,1.375 2.1481,1.898135 4.90027,2.562498 7.0625,2.5625 2.482,-5e-6 5.36369,-1.067718 7.25,-2.8125 0.14365,-0.132877 0.20773,-0.354908 0.34375,-0.5 3.05452,1.741646 6.55159,2.718749 10.0625,2.71875 1.93301,-2e-6 3.79312,-0.301929 5.5,-0.78125 0.24913,-0.06996 0.4716,-0.232794 0.71875,-0.3125 1.08161,0.414485 2.16709,0.718749 3.21875,0.71875 2.51918,-3e-6 5.25748,-1.168799 6.96875,-2.6875 2.03106,-1.802652 3.40616,-4.941599 3.40625,-7.5625 -8e-5,-0.574952 -0.0633,-1.337001 -0.1875,-2 A 7.2676024,7.2676024 0 0 0 -385.625,59.75 c -0.10561,-0.550981 -0.37503,-4.369301 -0.375,-9.75 -2e-5,-1.88128 0.15554,-5.169006 0.5,-9.5625 0.35866,-4.575222 0.56246,-8.037734 0.5625,-10.6875 -9e-5,-2.44476 -1.05581,-5.300011 -2.84375,-7.1875 -2.03871,-2.151763 -5.13151,-3.156154 -7.53125,-3.15625 z m -86.53125,32.5625 c 0.54975,-2e-6 1.60853,0.458 2,0.8125 0.0549,0.05164 0.0157,0.03706 0.0625,0.09375 -0.32791,0.176743 -0.54135,0.333213 -0.6875,0.34375 -0.41451,-0.0023 -1.28861,-0.455509 -2.0625,-0.96875 0.28526,-0.110211 0.56218,-0.28125 0.6875,-0.28125 z" />
    <path
       sodipodi:type="inkscape:offset"
       inkscape:radius="3.7029774"
       inkscape:original="M -393.3125 26.6875 C -395.07815 26.687537 -396.07815 27.593786 -396.34375 29.4375 C -396.62502 31.468783 -396.85939 35.171904 -397.0625 40.5 C -397.73439 40.000024 -398.54689 39.625024 -399.46875 39.375 C -400.39064 39.125025 -401.42189 39.000025 -402.59375 39 C -406.42189 39.000025 -409.53126 40.289086 -411.90625 42.875 C -414.28125 45.460956 -415.46875 48.85939 -415.46875 53.0625 C -415.46875 56.593757 -414.29688 59.500005 -411.9375 61.78125 C -409.62501 64.015625 -406.71876 65.124999 -403.21875 65.125 C -402.00001 65.124999 -400.82814 64.945312 -399.6875 64.625 C -398.54689 64.304687 -397.43752 63.828125 -396.375 63.1875 C -395.81252 64.21875 -394.93752 64.749999 -393.78125 64.75 C -392.95315 64.749999 -392.25002 64.460937 -391.625 63.90625 C -391.00003 63.351563 -390.68753 62.640626 -390.6875 61.78125 C -390.68753 61.578127 -390.70315 61.375003 -390.75 61.125 C -391.1094 59.250005 -391.28128 55.531259 -391.28125 50 C -391.28128 47.734391 -391.10159 44.359395 -390.75 39.875 C -390.39846 35.390654 -390.21878 32.015657 -390.21875 29.75 C -390.21878 28.89066 -390.50003 28.156286 -391.0625 27.5625 C -391.62502 26.968787 -392.39065 26.687537 -393.3125 26.6875 z M -505.3125 29.65625 C -509.17189 29.656284 -512.70314 30.929721 -515.90625 33.46875 C -519.10938 36.007841 -520.73438 38.7969 -520.78125 41.84375 C -520.82813 44.265645 -519.39063 46.140643 -516.5 47.4375 C -514.35939 48.390641 -511.95314 48.875015 -509.25 48.9375 C -505.76564 49.01564 -503.43752 49.29689 -502.28125 49.75 C -500.65627 50.375014 -499.84378 51.656262 -499.84375 53.625 C -499.84378 55.062509 -501.14065 56.390633 -503.75 57.59375 C -506.26564 58.76563 -508.87502 59.343755 -511.5625 59.34375 C -514.70314 59.343755 -516.73438 58.390631 -517.625 56.46875 C -518.28126 55.031259 -519.31251 54.31251 -520.71875 54.3125 C -521.76563 54.31251 -522.5625 54.632822 -523.15625 55.28125 C -523.75 55.929696 -524.0625 56.765632 -524.0625 57.75 C -524.0625 59.671879 -523.10938 61.343753 -521.1875 62.8125 C -518.90626 64.578124 -515.78126 65.468749 -511.8125 65.46875 C -507.31252 65.468749 -503.31252 64.671874 -499.8125 63.09375 C -495.21878 61.015628 -492.90628 57.968756 -492.90625 53.9375 C -492.90628 50.625013 -494.03128 48.031266 -496.25 46.15625 C -498.26565 44.46877 -501.00002 43.484396 -504.46875 43.21875 C -506.45314 43.109396 -508.43752 43.015646 -510.4375 42.90625 C -511.57814 42.750021 -512.4297 42.476584 -513 42.09375 C -513.57032 41.71096 -513.87501 41.218773 -513.875 40.625 C -513.87501 39.4844 -512.93751 38.437526 -511.0625 37.46875 C -509.25002 36.515653 -507.32814 36.015653 -505.3125 36 C -504.56252 36.000028 -503.46096 36.156278 -502 36.46875 C -500.53909 36.781277 -499.4219 36.937527 -498.6875 36.9375 C -497.70315 36.937527 -496.90628 36.609402 -496.28125 35.90625 C -495.71878 35.281279 -495.43753 34.562529 -495.4375 33.75 C -495.43753 32.609406 -496.82815 31.593782 -499.625 30.71875 C -501.87502 30.015659 -503.78127 29.656284 -505.3125 29.65625 z M -436.375 38.4375 C -437.29688 38.437526 -438.08594 38.742213 -438.71875 39.3125 C -439.35156 39.882837 -439.65625 40.593773 -439.65625 41.46875 C -439.65625 41.921897 -439.61719 42.601584 -439.5625 43.53125 C -439.50781 44.460957 -439.5 45.187519 -439.5 45.65625 C -439.5 47.156267 -439.59375 49.23439 -439.8125 51.90625 C -440.03125 54.578134 -440.15625 56.656257 -440.15625 58.15625 C -440.15625 58.593755 -440.09375 59.242192 -440 60.125 C -439.90625 61.007816 -439.875 61.687502 -439.875 62.125 C -439.875 63.015626 -439.57813 63.757813 -438.96875 64.34375 C -438.35938 64.929687 -437.5625 65.218749 -436.625 65.21875 C -435.68751 65.218749 -434.92969 64.929687 -434.3125 64.34375 C -433.69532 63.757813 -433.37501 63.015626 -433.375 62.125 C -433.37501 61.687502 -433.4297 61.007816 -433.53125 60.125 C -433.63282 59.242192 -433.68751 58.593755 -433.6875 58.15625 C -433.68751 57.484382 -433.62501 56.796882 -433.53125 56.09375 C -433.42188 55.234384 -433.37501 54.546884 -433.34375 54.03125 C -432.56251 51.453138 -431.47657 49.335952 -430.09375 47.65625 C -428.71095 45.976581 -427.28126 45.125019 -425.84375 45.125 C -425.17189 45.125019 -424.84377 45.765643 -424.84375 47.0625 C -424.84377 47.343767 -424.87502 47.710954 -424.90625 48.15625 C -424.93752 48.601578 -424.93752 48.89064 -424.9375 49 C -424.93752 49.406265 -424.97658 50.109389 -425.03125 51.09375 C -425.08595 52.078137 -425.09377 52.750011 -425.09375 53.15625 C -425.09377 54.671884 -424.98439 56.312508 -424.75 58.03125 C -424.53127 59.656254 -424.31252 61.265628 -424.09375 62.875 C -423.87502 64.765624 -422.79689 65.718748 -420.875 65.71875 C -419.95315 65.718748 -419.18752 65.421874 -418.5625 64.84375 C -417.93752 64.265625 -417.62502 63.531251 -417.625 62.65625 C -417.62502 61.453128 -417.78909 59.890629 -418.125 57.96875 C -418.46096 56.046883 -418.62502 54.46876 -418.625 53.25 C -418.62502 52.953136 -418.64065 52.468762 -418.625 51.75 L -418.625 50.0625 C -418.62502 46.765642 -419.00002 44.31252 -419.75 42.65625 C -420.87502 40.187524 -422.89064 38.937525 -425.84375 38.9375 C -428.37501 38.937525 -430.78126 40.078149 -433.0625 42.375 L -433.09375 42.125 C -433.23438 39.671899 -434.32813 38.437526 -436.375 38.4375 z M -461.5625 39.0625 C -463.35938 39.062525 -464.4375 39.953149 -464.75 41.71875 C -465.21875 44.328145 -465.4375 46.625017 -465.4375 48.65625 C -465.4375 51.734387 -465.14063 55.250009 -464.53125 59.15625 C -464.20313 61.218753 -463.17188 62.765626 -461.46875 63.84375 C -459.95313 64.781249 -458.09376 65.249999 -455.875 65.25 C -453.73439 65.249999 -451.65627 64.890624 -449.65625 64.15625 C -449.06252 65.328124 -448.14064 65.906248 -446.84375 65.90625 C -445.9219 65.906248 -445.13283 65.632811 -444.5 65.0625 C -443.86721 64.492187 -443.56252 63.78125 -443.5625 62.90625 C -443.56252 62.578126 -443.57034 62.085939 -443.625 61.4375 C -443.67971 60.789066 -443.71877 60.296879 -443.71875 59.96875 C -443.71877 58.92188 -443.7344 57.328132 -443.75 55.21875 C -443.76565 53.109386 -443.75002 51.546887 -443.75 50.5 C -443.75002 50.953138 -443.6094 48.203141 -443.3125 42.25 C -443.26565 41.375023 -443.56252 40.640648 -444.21875 40.0625 C -444.87502 39.4844 -445.6719 39.187525 -446.59375 39.1875 C -448.48439 39.187525 -449.54689 40.140649 -449.78125 42 C -450.07814 44.328145 -450.21877 47.078142 -450.21875 50.28125 C -450.21877 51.078138 -450.21877 52.390637 -450.1875 54.21875 C -450.17189 55.750008 -450.15627 57.109382 -450.15625 58.3125 C -452.23439 58.812505 -454.14064 59.062505 -455.875 59.0625 C -456.21876 59.062505 -456.57032 59.031255 -456.9375 58.9375 C -457.3047 58.843755 -457.70313 58.70313 -458.09375 58.53125 C -458.39063 57.453132 -458.60157 56.085945 -458.75 54.4375 C -458.89845 52.789074 -458.96876 50.859388 -458.96875 48.65625 C -458.96876 47.890641 -458.85157 46.781267 -458.625 45.3125 C -458.39845 43.84377 -458.28126 42.781271 -458.28125 42.09375 C -458.28126 41.218773 -458.60938 40.476586 -459.25 39.90625 C -459.89063 39.335962 -460.65626 39.062525 -461.5625 39.0625 z M -478.15625 39.75 C -482.39063 39.750024 -485.68751 41.343773 -488.0625 44.53125 C -490.0625 47.234392 -491.01563 50.296889 -490.90625 53.75 C -490.79688 57.375007 -489.59375 60.265629 -487.3125 62.4375 C -485.23438 64.421875 -482.73438 65.437499 -479.84375 65.4375 C -476.18752 65.437499 -473.29689 63.984375 -471.125 61.125 C -469.18752 58.562505 -468.21877 55.468759 -468.21875 51.84375 C -468.21877 48.515641 -469.03127 45.750018 -470.6875 43.5 C -472.53127 41.000023 -475.03127 39.750024 -478.15625 39.75 z M -402.5 44.9375 C -401.35939 44.937519 -400.39064 45.171894 -399.5625 45.65625 C -398.73439 46.140643 -398.04689 46.890642 -397.53125 47.875 C -397.56252 52.843761 -397.56252 55.687508 -397.53125 56.4375 C -397.78127 56.703132 -398.04689 56.968757 -398.3125 57.1875 C -399.32814 58.000006 -400.04689 58.500006 -400.46875 58.6875 C -401.09377 58.968755 -402.01564 59.093755 -403.21875 59.09375 C -404.87501 59.093755 -406.31251 58.484381 -407.5625 57.28125 C -408.81251 56.078133 -409.43751 54.656259 -409.4375 52.96875 C -409.43751 50.296889 -408.87501 48.273453 -407.71875 46.9375 C -406.56251 45.601581 -404.81251 44.937519 -402.5 44.9375 z M -478.4375 45.9375 C -475.59377 45.953143 -474.29689 48.468766 -474.5 53.5 C -474.57814 55.343759 -475.17189 56.796882 -476.3125 57.875 C -477.31251 58.79688 -478.48439 59.250005 -479.84375 59.25 C -480.96876 59.250005 -481.96876 58.85938 -482.8125 58.0625 C -483.87501 57.062507 -484.40626 55.625008 -484.40625 53.75 C -484.40626 51.765637 -483.93751 50.046889 -483 48.5625 C -481.89064 46.796892 -480.35939 45.921893 -478.4375 45.9375 z "
       xlink:href="#text3241"
       style="font-size:48px;font-style:normal;font-variant:normal;font-weight:bold;font-stretch:normal;line-height:125%;letter-spacing:0px;word-spacing:0px;fill:#000000;fill-opacity:1;stroke:none;font-family:Comic Sans MS;-inkscape-font-specification:Comic Sans MS Bold"
       id="path3249"
       inkscape:href="#text3241"
       d="m -395.3125,23 c -1.51635,3.2e-5 -3.26115,0.444709 -4.5625,1.625 -1.30135,1.180291 -1.91089,2.794977 -2.125,4.28125 a 3.7033477,3.7033477 0 0 0 0,0.03125 c -0.18982,1.370836 -0.30195,4.285738 -0.4375,6.625 -0.71631,-0.09135 -1.4009,-0.249984 -2.15625,-0.25 -4.6594,3e-5 -8.9818,1.74223 -12.03125,5.0625 -0.53958,0.587505 -0.96413,1.251132 -1.40625,1.90625 -0.12959,-0.371512 -0.18306,-0.801387 -0.34375,-1.15625 -1.62152,-3.558228 -5.47072,-5.874966 -9.46875,-5.875 -1.98651,2e-5 -3.89934,0.545435 -5.6875,1.46875 -1.30938,-1.300668 -3.17886,-1.968729 -4.84375,-1.96875 -1.73772,4.9e-5 -3.52977,0.656507 -4.8125,1.8125 -0.23226,0.209329 -0.36245,0.530134 -0.5625,0.78125 -0.0167,-0.01505 -0.0144,-0.04769 -0.0312,-0.0625 -1.3001,-1.145246 -3.0957,-1.781203 -4.8125,-1.78125 -1.56757,2.1e-5 -3.31473,0.436377 -4.65625,1.625 -1.34152,1.188623 -2.02456,2.865606 -2.21875,4.40625 -0.32461,2.545553 -0.43752,5.438495 -0.4375,8.75 -2e-5,0.790764 2e-4,2.132805 0.0312,3.96875 1.2e-4,0.0118 -1.2e-4,0.01947 0,0.03125 0.003,0.306238 -0.003,0.52089 0,0.8125 -0.32667,0.03602 -0.69385,0.138641 -1,0.15625 -0.0572,-0.428454 -0.14186,-0.649404 -0.1875,-1.15625 -0.13466,-1.495339 -0.21876,-3.313155 -0.21875,-5.4375 -10e-6,-0.387691 0.0994,-1.400002 0.3125,-2.78125 0.23824,-1.544502 0.37498,-2.672995 0.375,-3.78125 -2e-5,-1.800708 -0.82427,-3.75508 -2.1875,-4.96875 -1.29598,-1.153682 -3.13021,-1.749954 -4.78125,-1.75 -1.51022,2.1e-5 -3.20881,0.400388 -4.53125,1.5 -1.21963,1.014124 -1.87592,2.452183 -2.1875,3.84375 -2.45536,-2.913892 -6.04014,-4.656221 -9.875,-4.65625 -5.16353,2.9e-5 -9.87237,2.220162 -12.875,6.25 a 3.7033477,3.7033477 0 0 0 0,0.03125 c -0.56993,0.770296 -1.0629,1.568695 -1.5,2.40625 -0.42497,-0.494214 -0.84003,-1.011815 -1.34375,-1.4375 -1.51987,-1.272416 -3.34688,-2.118817 -5.3125,-2.75 0.15375,0.0061 0.34623,0.06251 0.5,0.0625 1.79935,4.9e-5 3.87162,-0.81806 5.15625,-2.25 0.006,-0.0065 -0.006,-0.02474 0,-0.03125 1.08618,-1.217169 1.78119,-2.935671 1.78125,-4.59375 -5e-5,-2.075167 -1.32671,-3.728443 -2.5625,-4.625 -1.23579,-0.896557 -2.5976,-1.430302 -4.21875,-1.9375 -2.47546,-0.773537 -4.6707,-1.218703 -6.78125,-1.21875 -4.67392,4.1e-5 -9.13724,1.606144 -12.90625,4.59375 -3.75983,2.980383 -6.18342,6.890492 -6.25,11.21875 -0.0759,3.923298 2.749,7.376434 6.4375,9.03125 a 3.7033477,3.7033477 0 0 0 0.0312,0 c 2.65675,1.182961 5.56186,1.740971 8.65625,1.8125 3.32221,0.0745 5.64996,0.535541 5.71875,0.5625 -0.23092,0.208312 -0.72974,0.589646 -1.6875,1.03125 a 3.7033477,3.7033477 0 0 0 0,0.03125 c -2.04973,0.954842 -4.09358,1.406254 -6.25,1.40625 -2.35415,4e-6 -2.50764,-0.330139 -2.6875,-0.71875 -0.004,-0.0077 0.004,-0.02355 0,-0.03125 l -0.0312,0 c -1.08327,-2.329599 -3.78406,-4.281231 -6.4375,-4.28125 -1.80219,1.7e-5 -3.85827,0.738738 -5.15625,2.15625 -1.22715,1.340192 -1.875,3.200678 -1.875,4.96875 0,3.131445 1.77015,6.035272 4.28125,7.96875 l 0,0.03125 c 0.006,0.0043 0.0257,-0.0042 0.0312,0 3.09615,2.386923 7.11253,3.406249 11.625,3.40625 4.93714,-10e-7 9.49331,-0.866831 13.53125,-2.6875 2.42733,-1.098083 4.41509,-2.706262 5.96875,-4.5625 0.68437,1.168197 1.447,2.275741 2.4375,3.21875 2.6945,2.572949 6.27326,3.999999 10.03125,4 4.63736,-10e-7 8.89262,-2.111583 11.65625,-5.75 a 3.7033477,3.7033477 0 0 0 0.0312,-0.03125 c 0.32412,-0.428676 0.56294,-0.88929 0.84375,-1.34375 0.82988,2.005504 2.06667,3.824029 3.875,4.96875 A 3.7033477,3.7033477 0 0 0 -465.40625,67 c 2.19828,1.359766 4.79095,1.937499 7.53125,1.9375 1.744,-10e-7 3.46573,-0.277186 5.15625,-0.6875 1.16982,0.812905 2.54933,1.343748 3.875,1.34375 1.65409,-4e-6 3.47978,-0.580196 4.8125,-1.78125 0.23226,-0.209329 0.36245,-0.530135 0.5625,-0.78125 1.32999,1.249211 3.16679,1.874998 4.84375,1.875 1.69866,-2e-6 3.60117,-0.665677 4.875,-1.875 1.28557,-1.220493 2.06248,-3.127807 2.0625,-4.90625 -2e-5,-0.746007 -0.0473,-1.490269 -0.15625,-2.4375 C -431.93904,58.859293 -432,58.285079 -432,58.15625 c -10e-6,-0.442186 0.0445,-0.959129 0.125,-1.5625 a 3.7033477,3.7033477 0 0 0 0.0312,-0.03125 c 0.0938,-0.737033 0.12154,-1.251362 0.15625,-1.75 0.27796,-0.868121 0.59672,-1.644149 0.9375,-2.34375 -0.003,0.191811 -0.0313,0.550622 -0.0312,0.6875 -2e-5,1.693826 0.11882,3.496484 0.375,5.375 0.21638,1.607515 0.44024,3.192197 0.65625,4.78125 l -0.0312,0 c 0.003,0.02177 0.0285,0.04067 0.0312,0.0625 0.19164,1.546957 0.84837,3.222952 2.1875,4.40625 1.35802,1.199994 3.11442,1.624998 4.6875,1.625 1.71685,-4e-6 3.54476,-0.671133 4.8125,-1.84375 0.84673,-0.783253 1.37213,-1.867676 1.71875,-3 2.97127,2.79448 6.9123,4.249999 11.125,4.25 1.58271,-10e-7 3.10207,-0.223662 4.53125,-0.625 0.57228,-0.16071 1.09817,-0.496165 1.65625,-0.71875 1.01228,0.585209 2.14664,0.968749 3.25,0.96875 1.68982,-2e-6 3.44646,-0.704081 4.625,-1.75 1.34147,-1.190612 2.15619,-3.149255 2.15625,-4.90625 -6e-5,-0.392596 -0.0387,-0.883297 -0.125,-1.34375 -0.23008,-1.200318 -0.46878,-4.982962 -0.46875,-10.4375 -3e-5,-2.069767 0.18329,-5.405675 0.53125,-9.84375 0.35517,-4.530654 0.53122,-7.944863 0.53125,-10.40625 -6e-5,-1.667222 -0.65682,-3.465733 -1.84375,-4.71875 -1.31474,-1.387647 -3.26256,-2.031183 -4.9375,-2.03125 z M -404.5,48.625 c 0.63338,1.1e-5 0.87133,0.106938 1.0625,0.21875 0.0548,0.03207 0.15266,0.190685 0.21875,0.25 -0.0163,2.794322 -0.0154,4.490568 0,5.65625 -0.33456,0.22624 -0.96273,0.657049 -0.75,0.5625 a 3.7033477,3.7033477 0 0 0 -0.0312,0 c 0.24313,-0.109405 -0.27213,0.09375 -1.21875,0.09375 -0.74798,2e-6 -1.10313,-0.128551 -1.78125,-0.78125 -0.64409,-0.619925 -0.75,-0.883064 -0.75,-1.65625 -10e-6,-2.152135 0.50939,-3.207423 0.84375,-3.59375 0.34367,-0.397079 0.80262,-0.749987 2.40625,-0.75 z m -76.125,1.03125 c 0.15851,0.348153 0.5224,1.58446 0.4375,3.6875 -0.0467,1.102015 -0.24647,1.447024 -0.625,1.8125 -0.0107,0.01032 -0.0203,0.02087 -0.0312,0.03125 -0.35144,0.319792 -0.48316,0.375002 -1,0.375 -0.26784,10e-7 -0.21642,0.0213 -0.4375,-0.1875 -0.22138,-0.208354 -0.43751,-0.44945 -0.4375,-1.625 -10e-6,-1.401203 0.29779,-2.35432 0.84375,-3.21875 0.52678,-0.838395 0.67155,-0.876619 1.25,-0.875 z m -24.78125,3.46875 c -0.0376,-0.03461 -0.12501,0.02502 -0.125,0.5 10e-6,-0.348976 0.13766,-0.533393 0.0625,-0.46875 0.002,-0.01912 0.0735,-0.0211 0.0625,-0.03125 z" />
    <g
       style="font-size:48px;font-style:normal;font-variant:normal;font-weight:bold;font-stretch:normal;line-height:125%;letter-spacing:0px;word-spacing:0px;fill:#ffff00;fill-opacity:1;stroke:none;font-family:Comic Sans MS;-inkscape-font-specification:Comic Sans MS Bold"
       id="text3241">
      <path
         d="m -511.80023,65.469872 c -3.96876,-2e-6 -7.09376,-0.882814 -9.375,-2.648438 -1.92188,-1.468747 -2.88282,-3.164058 -2.88281,-5.085937 -10e-6,-0.984368 0.29687,-1.800774 0.89062,-2.449219 0.59375,-0.648428 1.41406,-0.972647 2.46094,-0.972656 1.40624,9e-6 2.43749,0.718759 3.09375,2.15625 0.89061,1.92188 2.90624,2.882817 6.04687,2.882812 2.68749,5e-6 5.28905,-0.585932 7.80469,-1.757812 2.60935,-1.203118 3.91404,-2.523429 3.91406,-3.960938 -2e-5,-1.968738 -0.81252,-3.265611 -2.4375,-3.890625 -1.15627,-0.45311 -3.47658,-0.718735 -6.96093,-0.796875 -2.70314,-0.06249 -5.12502,-0.570297 -7.26563,-1.523437 -2.89063,-1.296858 -4.3125,-3.156231 -4.26562,-5.578125 0.0469,-3.04685 1.67186,-5.839816 4.875,-8.378907 3.20311,-2.539029 6.73435,-3.808559 10.59375,-3.808593 1.53122,3.4e-5 3.42185,0.351596 5.67187,1.054687 2.79685,0.875032 4.19528,1.882844 4.19531,3.023438 -3e-5,0.812529 -0.28128,1.531278 -0.84375,2.15625 -0.62503,0.703152 -1.42971,1.054714 -2.41406,1.054687 -0.7344,2.7e-5 -1.83206,-0.156223 -3.29297,-0.46875 -1.46096,-0.312472 -2.56643,-0.468722 -3.3164,-0.46875 -2.01565,0.01565 -3.92971,0.500028 -5.74219,1.453125 -1.87501,0.968776 -2.81251,2.023462 -2.8125,3.164063 -10e-6,0.593772 0.28514,1.082053 0.85547,1.464843 0.5703,0.382834 1.42576,0.652365 2.5664,0.808594 1.99999,0.109396 3.99217,0.218771 5.97657,0.328125 3.46872,0.265646 6.21091,1.242207 8.22656,2.929688 2.21872,1.875016 3.32809,4.468763 3.32812,7.78125 -3e-5,4.031256 -2.2969,7.08594 -6.89062,9.164062 -3.50002,1.578124 -7.50002,2.367186 -12,2.367188 z"
         style=""
         id="path5202" />
      <path
         d="m -479.85492,65.422997 c -2.89063,-2e-6 -5.37501,-0.992188 -7.45312,-2.976563 -2.28126,-2.171871 -3.47657,-5.070306 -3.58594,-8.695312 -0.10938,-3.453112 0.83593,-6.531234 2.83594,-9.234375 2.37499,-3.187478 5.67967,-4.781226 9.91406,-4.78125 3.12498,2.4e-5 5.60935,1.250023 7.45312,3.75 1.65623,2.250018 2.48435,5.039078 2.48438,8.367187 -3e-5,3.625009 -0.96877,6.718755 -2.90625,9.28125 -2.1719,2.859375 -5.08596,4.289061 -8.74219,4.289063 z m 1.40625,-19.5 c -1.92189,-0.01561 -3.43751,0.859392 -4.54687,2.625 -0.93751,1.484389 -1.40626,3.218762 -1.40625,5.203125 -10e-6,1.875008 0.53124,3.312506 1.59375,4.3125 0.84374,0.79688 1.82811,1.195317 2.95312,1.195312 1.35936,5e-6 2.53905,-0.460932 3.53906,-1.382812 1.14061,-1.078118 1.74999,-2.539054 1.82813,-4.382813 0.20311,-5.031234 -1.11721,-7.554669 -3.96094,-7.570312 z"
         style=""
         id="path5204" />
      <path
         d="m -443.76117,50.493309 c -2e-5,1.046888 0.008,2.625011 0.0234,4.734375 0.0156,2.109382 0.0234,3.687505 0.0234,4.734375 -3e-5,0.328129 0.0273,0.81641 0.082,1.464844 0.0547,0.648439 0.082,1.13672 0.082,1.464844 -3e-5,0.875 -0.31643,1.597655 -0.94922,2.167968 -0.63283,0.570311 -1.41018,0.855467 -2.33203,0.855469 -1.2969,-2e-6 -2.24221,-0.585939 -2.83594,-1.757812 -2.00001,0.734374 -4.07032,1.101561 -6.21094,1.101562 -2.21876,-10e-7 -4.08594,-0.468751 -5.60156,-1.40625 -1.70313,-1.078124 -2.71875,-2.648435 -3.04687,-4.710937 -0.60938,-3.906242 -0.91407,-7.398426 -0.91407,-10.476563 0,-2.031233 0.23438,-4.351543 0.70313,-6.960937 0.3125,-1.765601 1.36718,-2.648413 3.16406,-2.648438 0.90624,2.5e-5 1.67968,0.285181 2.32031,0.855469 0.64062,0.570336 0.96093,1.292991 0.96094,2.167969 -1e-5,0.687521 -0.11329,1.765645 -0.33984,3.234375 -0.22657,1.468767 -0.33985,2.585953 -0.33985,3.351562 0,2.203138 0.0742,4.128918 0.22266,5.777344 0.14843,1.648445 0.37108,3.011725 0.66797,4.089844 0.39061,0.17188 0.76952,0.304692 1.13672,0.398437 0.36717,0.09375 0.72264,0.14063 1.0664,0.140625 1.73437,5e-6 3.64061,-0.249995 5.71875,-0.75 -1e-5,-1.203118 -0.008,-2.570304 -0.0234,-4.101562 -0.0313,-1.828114 -0.0469,-3.140613 -0.0469,-3.9375 -2e-5,-3.203109 0.14842,-5.968731 0.44531,-8.296875 0.23436,-1.859352 1.29686,-2.789038 3.1875,-2.789063 0.92186,2.5e-5 1.71092,0.289087 2.36719,0.867188 0.65623,0.578148 0.96091,1.30471 0.91406,2.179687 -0.2969,5.953141 -0.44533,8.703138 -0.44531,8.25 z"
         style=""
         id="path5206" />
      <path
         d="m -420.88617,65.704247 c -1.92189,-2e-6 -2.9922,-0.945314 -3.21094,-2.835938 -0.21876,-1.609372 -0.43751,-3.226558 -0.65625,-4.851562 -0.23439,-1.718743 -0.35158,-3.335929 -0.35156,-4.851563 -2e-5,-0.406239 0.0273,-1.101551 0.082,-2.085937 0.0547,-0.984362 0.082,-1.679673 0.082,-2.085938 -1e-5,-0.10936 0.0156,-0.386703 0.0469,-0.832031 0.0312,-0.445296 0.0469,-0.808577 0.0469,-1.089844 -1e-5,-1.296857 -0.33595,-1.945294 -1.00781,-1.945312 -1.43751,1.8e-5 -2.84767,0.839861 -4.23047,2.519531 -1.38282,1.679702 -2.46485,3.808606 -3.24609,6.386719 -0.0313,0.515634 -0.10157,1.203133 -0.21094,2.0625 -0.0938,0.703132 -0.14063,1.390631 -0.14062,2.0625 -10e-6,0.437505 0.0508,1.097661 0.15234,1.980468 0.10155,0.882816 0.15233,1.542971 0.15234,1.980469 -1e-5,0.890626 -0.3086,1.628907 -0.92578,2.214844 -0.61719,0.585936 -1.39454,0.878905 -2.33203,0.878906 -0.9375,-10e-7 -1.71094,-0.29297 -2.32031,-0.878906 -0.60938,-0.585937 -0.91407,-1.324218 -0.91406,-2.214844 -10e-6,-0.437498 -0.0469,-1.097653 -0.14063,-1.980469 -0.0937,-0.882807 -0.14063,-1.542963 -0.14062,-1.980468 -10e-6,-1.499993 0.10937,-3.585929 0.32812,-6.257813 0.21875,-2.67186 0.32812,-4.757796 0.32813,-6.257812 -10e-6,-0.468732 -0.0274,-1.16795 -0.082,-2.097657 -0.0547,-0.929666 -0.082,-1.621071 -0.082,-2.074218 0,-0.874977 0.31641,-1.597633 0.94922,-2.167969 0.63281,-0.570287 1.41015,-0.855443 2.33203,-0.855469 2.04687,2.6e-5 3.14062,1.226587 3.28125,3.679688 l 0.0234,0.257812 c 2.28124,-2.296851 4.68749,-3.445287 7.21875,-3.445312 2.95311,2.5e-5 4.99217,1.234398 6.11719,3.703125 0.74998,1.656269 1.12497,4.132829 1.125,7.429687 l 0,1.664063 c -0.0156,0.718761 -0.0235,1.226573 -0.0234,1.523437 -2e-5,1.21876 0.16795,2.789071 0.50391,4.710938 0.33591,1.921879 0.50388,3.484377 0.5039,4.6875 -2e-5,0.875 -0.31252,1.601562 -0.9375,2.179687 -0.62502,0.578124 -1.39846,0.867186 -2.32031,0.867188 z"
         style=""
         id="path5208" />
      <path
         d="m -397.07367,40.485497 c 0.20311,-5.328097 0.44529,-9.00778 0.72656,-11.039063 0.26561,-1.843714 1.28123,-2.765588 3.04688,-2.765625 0.92185,3.7e-5 1.66404,0.296912 2.22656,0.890625 0.56247,0.593786 0.84372,1.320348 0.84375,2.179688 -3e-5,2.265657 -0.17581,5.640653 -0.52734,10.125 -0.35159,4.484394 -0.52737,7.859391 -0.52735,10.125 -2e-5,5.531258 0.17967,9.234379 0.53907,11.109375 0.0468,0.250002 0.0703,0.476564 0.0703,0.679687 -3e-5,0.859376 -0.31253,1.566407 -0.9375,2.121094 -0.62503,0.554687 -1.35159,0.83203 -2.17969,0.832031 -1.15627,-10e-7 -2.01565,-0.515625 -2.57812,-1.546875 -1.06252,0.640625 -2.16409,1.121093 -3.30469,1.441406 -1.14064,0.320312 -2.32033,0.480468 -3.53906,0.480469 -3.50001,-10e-7 -6.40626,-1.117187 -8.71875,-3.351562 -2.35938,-2.281246 -3.53907,-5.187493 -3.53907,-8.71875 0,-4.20311 1.1875,-7.597638 3.5625,-10.183594 2.375,-2.585914 5.47656,-3.878881 9.30469,-3.878906 1.17186,2.5e-5 2.21873,0.125024 3.14063,0.375 0.92185,0.250024 1.71873,0.625024 2.39062,1.125 z m -0.46875,7.382812 c -0.51564,-0.984358 -1.18752,-1.718732 -2.01562,-2.203125 -0.82815,-0.484356 -1.81252,-0.726543 -2.95313,-0.726562 -2.31251,1.9e-5 -4.04688,0.667987 -5.20312,2.003906 -1.15626,1.335953 -1.73439,3.339857 -1.73438,6.011719 -1e-5,1.687509 0.62499,3.13282 1.875,4.335937 1.24999,1.203131 2.70311,1.804692 4.35938,1.804688 1.20311,4e-6 2.11717,-0.14062 2.74218,-0.421875 0.42186,-0.187495 1.14061,-0.687494 2.15625,-1.5 0.26561,-0.218743 0.52342,-0.460931 0.77344,-0.726563 -0.0313,-0.749992 -0.0313,-3.609364 0,-8.578125 z"
         style=""
         id="path5210" />
    </g>
  </g>
</svg>
