<?xml version="1.0" encoding="UTF-8" standalone="no"?>
<!-- Created with Inkscape (http://www.inkscape.org/) -->

<svg
   xmlns:dc="http://purl.org/dc/elements/1.1/"
   xmlns:cc="http://creativecommons.org/ns#"
   xmlns:rdf="http://www.w3.org/1999/02/22-rdf-syntax-ns#"
   xmlns:svg="http://www.w3.org/2000/svg"
   xmlns="http://www.w3.org/2000/svg"
   xmlns:xlink="http://www.w3.org/1999/xlink"
   xmlns:sodipodi="http://sodipodi.sourceforge.net/DTD/sodipodi-0.dtd"
   xmlns:inkscape="http://www.inkscape.org/namespaces/inkscape"
   width="512"
   height="128"
   id="svg3213"
   version="1.1"
   inkscape:version="0.48.4 r9939"
   sodipodi:docname="start.svg">
  <defs
     id="defs3215" />
  <sodipodi:namedview
     id="base"
     pagecolor="#ffffff"
     bordercolor="#666666"
     borderopacity="1.0"
     inkscape:pageopacity="0.0"
     inkscape:pageshadow="2"
     inkscape:zoom="1.4"
     inkscape:cx="181.64714"
     inkscape:cy="57.544504"
     inkscape:document-units="px"
     inkscape:current-layer="layer1"
     showgrid="false"
     fit-margin-top="0"
     fit-margin-left="0"
     fit-margin-right="0"
     fit-margin-bottom="0"
     inkscape:window-width="1366"
     inkscape:window-height="716"
     inkscape:window-x="-8"
     inkscape:window-y="-8"
     inkscape:window-maximized="1" />
  <metadata
     id="metadata3218">
    <rdf:RDF>
      <cc:Work
         rdf:about="">
        <dc:format>image/svg+xml</dc:format>
        <dc:type
           rdf:resource="http://purl.org/dc/dcmitype/StillImage" />
        <dc:title></dc:title>
      </cc:Work>
    </rdf:RDF>
  </metadata>
  <g
     inkscape:label="Layer 1"
     inkscape:groupmode="layer"
     id="layer1"
     transform="translate(683.46875,7.5312507)">
    <flowRoot
       xml:space="preserve"
       id="flowRoot3221"
       style="font-size:22px;font-style:normal;font-variant:normal;font-weight:normal;font-stretch:normal;line-height:125%;letter-spacing:0px;word-spacing:0px;fill:#000000;fill-opacity:1;stroke:none;font-family:Comic Sans MS;-inkscape-font-specification:Comic Sans MS"><flowRegion
         id="flowRegion3223"><rect
           id="rect3225"
           width="42.857143"
           height="45.714287"
           x="-565.71429"
           y="149.50504" /></flowRegion><flowPara
         id="flowPara3227" /></flowRoot>    <path
       sodipodi:type="inkscape:offset"
       inkscape:radius="7.2668757"
       inkscape:original="M -413.3125 27.21875 C -415.79689 27.218787 -418.10939 28.140661 -420.28125 29.96875 C -423.37501 32.578156 -425.90626 35.984403 -427.875 40.1875 C -429.84375 44.390645 -430.84375 48.500016 -430.84375 52.5 C -430.84375 56.890632 -429.79688 60.179691 -427.71875 62.375 C -425.64063 64.570312 -422.53126 65.656248 -418.375 65.65625 C -413.98439 65.656248 -410.14065 64.25 -406.875 61.4375 C -403.65628 58.64063 -401.53128 54.906259 -400.46875 50.25 C -399.53128 49.625014 -399.06253 48.76564 -399.0625 47.625 C -399.06253 46.734392 -399.36722 45.984393 -400 45.375 C -400.63284 44.765644 -401.40628 44.43752 -402.34375 44.4375 C -406.59378 44.43752 -410.31252 44.718769 -413.5 45.25 C -419.15626 46.203143 -422.00001 47.859391 -422 50.25 C -422.00001 51.062513 -421.70314 51.796887 -421.125 52.4375 C -420.48439 53.156261 -419.68751 53.531261 -418.71875 53.53125 C -418.23439 53.531261 -417.73439 53.406261 -417.25 53.1875 C -414.56252 51.984387 -411.40627 51.250013 -407.78125 50.96875 C -408.70315 53.71876 -410.14065 55.812508 -412.0625 57.25 C -413.87502 58.60938 -415.98439 59.281255 -418.375 59.28125 C -420.70314 59.281255 -422.25001 58.79688 -423.0625 57.8125 C -423.82813 56.875007 -424.21876 55.109384 -424.21875 52.5 C -424.21876 47.359392 -422.48438 42.562521 -419 38.15625 C -416.60939 35.125029 -414.71877 33.62503 -413.3125 33.625 C -411.98439 33.62503 -410.50783 34.054717 -408.90625 34.9375 C -407.30471 35.820341 -406.28128 36.281278 -405.8125 36.28125 C -404.87503 36.281278 -404.07815 35.945341 -403.4375 35.28125 C -402.7969 34.617217 -402.46878 33.84378 -402.46875 33 C -402.46878 31.531283 -404.03128 30.171909 -407.125 28.875 C -409.7344 27.781286 -411.79689 27.218787 -413.3125 27.21875 z M -545.28125 27.6875 C -546.3125 27.687536 -547.22657 28.046911 -548.03125 28.78125 C -548.83594 29.51566 -549.25 30.375034 -549.25 31.3125 C -549.25 32.250032 -549.15625 33.640655 -548.96875 35.5 C -548.78125 37.359402 -548.6875 38.750025 -548.6875 39.6875 C -548.6875 40.671898 -548.64063 42.171897 -548.59375 44.15625 C -548.54688 46.140643 -548.53125 47.609391 -548.53125 48.59375 C -548.53125 49.51564 -548.5625 50.906263 -548.625 52.75 C -548.6875 54.593759 -548.71875 55.984383 -548.71875 56.90625 C -548.71875 57.531257 -548.77344 58.453131 -548.875 59.71875 C -548.97656 60.984378 -549.03125 61.937502 -549.03125 62.5625 C -549.03125 63.453126 -548.73438 64.21875 -548.125 64.84375 C -547.4375 65.546874 -546.51563 65.906248 -545.375 65.90625 C -543.12501 65.906248 -542.00001 63.578125 -542 58.96875 C -542.00001 57.734381 -542.00782 55.890633 -542.0625 53.40625 C -542.1172 50.921888 -542.15626 49.04689 -542.15625 47.8125 C -542.15626 46.890642 -542.12501 44.40627 -542.03125 40.34375 C -534.46877 50.125014 -527.6719 57.734381 -521.65625 63.15625 C -520.28128 64.390625 -519.03128 64.999999 -517.9375 65 C -515.96879 64.999999 -514.84379 63.984375 -514.53125 61.96875 C -514.26566 60.281254 -514.12504 59.062505 -514.125 58.28125 C -514.12504 56.343758 -514.09379 51.406263 -514 43.46875 C -513.96879 41.171898 -513.93754 39.921899 -513.9375 39.75 C -513.93754 31.890657 -515.20316 27.968786 -517.75 27.96875 C -520.03128 27.968786 -521.18753 29.062535 -521.1875 31.21875 C -521.18753 31.843782 -521.09378 32.687531 -520.9375 33.78125 C -520.76566 35.015654 -520.68753 35.859403 -520.65625 36.3125 C -520.50003 39.000025 -520.40628 44.203145 -520.40625 51.90625 C -520.40628 53.78126 -520.42191 54.968759 -520.4375 55.46875 C -527.34377 49.07814 -534.34377 40.812523 -541.4375 30.6875 C -542.84376 28.687535 -544.12501 27.687536 -545.28125 27.6875 z M -367.09375 38.03125 C -368.20313 38.031276 -369.07813 38.718775 -369.6875 40.125 C -370.1875 41.250023 -370.4375 42.515647 -370.4375 43.90625 C -370.4375 44.687519 -370.40625 45.835956 -370.34375 47.34375 C -370.28125 48.851578 -370.25 50.000014 -370.25 50.78125 L -370.25 59.5 C -370.25 61.203128 -370.07813 62.437502 -369.75 63.21875 C -369.28125 64.375 -368.39063 64.968749 -367.0625 64.96875 C -366.14063 64.968749 -365.37501 64.734374 -364.75 64.28125 C -364.06251 63.796875 -363.71876 63.125001 -363.71875 62.28125 C -363.71876 61.921877 -363.68751 61.36719 -363.65625 60.625 C -363.62501 59.882817 -363.62501 59.312505 -363.625 58.875 C -363.62501 57.078132 -363.59376 54.593759 -363.53125 51.4375 C -363.34376 51.218763 -363.20313 51.046888 -363.125 50.9375 C -361.29689 48.500016 -359.46876 46.765642 -357.65625 45.71875 C -357.48439 46.312518 -357.40627 47.093767 -357.40625 48.09375 C -357.40627 49.875014 -357.19533 52.507824 -356.8125 55.96875 C -356.4297 59.429692 -356.25002 62.062502 -356.25 63.84375 C -356.25002 64.734374 -355.95314 65.468749 -355.34375 66.0625 C -354.73439 66.656247 -353.96877 66.937497 -353.03125 66.9375 C -352.09377 66.937497 -351.2969 66.656247 -350.6875 66.0625 C -350.07815 65.468749 -349.78127 64.734374 -349.78125 63.84375 C -349.78127 62.140627 -350.00002 59.578129 -350.4375 56.15625 C -350.8594 52.812511 -351.06252 50.250014 -351.0625 48.46875 C -350.46877 47.953141 -349.53127 47.312517 -348.25 46.59375 C -346.96878 45.875018 -346.1719 45.531269 -345.8125 45.53125 C -345.15628 45.531269 -344.6094 46.921892 -344.1875 49.71875 C -343.9844 51.062513 -343.71878 53.343761 -343.40625 56.5625 C -343.1094 59.500005 -342.81253 61.765627 -342.53125 63.375 C -342.21878 65.156249 -341.17191 66.062498 -339.375 66.0625 C -338.46878 66.062498 -337.67191 65.765623 -337 65.1875 C -336.32816 64.609374 -336.03129 63.890625 -336.09375 63 C -336.78129 57.093757 -337.34379 52.875011 -337.78125 50.34375 C -338.23441 46.734392 -338.56253 44.593769 -338.78125 43.96875 C -339.87503 40.921898 -341.96878 39.406275 -345.03125 39.40625 C -346.37503 39.406275 -347.62502 39.609399 -348.78125 40.03125 C -349.93752 40.453149 -350.9844 41.093773 -351.9375 41.9375 C -353.06252 40.109399 -354.84377 39.187525 -357.25 39.1875 C -359.35939 39.187525 -361.57814 40.578148 -363.9375 43.3125 C -363.79688 41.640647 -363.71876 40.953148 -363.71875 41.28125 C -363.71876 40.468774 -364.06251 39.710962 -364.75 39.03125 C -365.43751 38.351588 -366.21876 38.031276 -367.09375 38.03125 z M -292.125 39.03125 C -296.10939 39.031275 -299.07813 39.3594 -301.03125 40 C -304.35938 41.093773 -306.03125 43.203146 -306.03125 46.34375 C -306.03125 48.562515 -304.92188 50.453139 -302.71875 52 C -301.81251 52.625011 -299.75001 53.640635 -296.53125 55.0625 C -294.32814 56.031258 -293.21877 56.921882 -293.21875 57.71875 C -293.23439 59.000005 -294.82814 59.625004 -298 59.625 C -298.73438 59.625004 -299.79688 59.42188 -301.15625 58.96875 C -302.51563 58.515631 -303.5625 58.281256 -304.28125 58.28125 C -306.14063 58.281256 -307.0625 59.062505 -307.0625 60.625 C -307.0625 62.328127 -305.875 63.625 -303.53125 64.5 C -301.81251 65.140624 -299.92188 65.437499 -297.84375 65.4375 C -294.90626 65.437499 -292.42189 64.890624 -290.40625 63.78125 C -287.90627 62.390627 -286.65627 60.343754 -286.65625 57.65625 C -286.65627 55.593758 -287.7969 53.765635 -290.0625 52.125 C -291.15627 51.328138 -293.25002 50.203139 -296.34375 48.78125 C -298.60938 47.750016 -299.75001 46.921892 -299.75 46.3125 C -299.75001 45.281269 -297.85939 44.781269 -294.09375 44.78125 C -293.43751 44.781269 -292.81252 44.828144 -292.1875 44.9375 C -291.87502 46.234393 -290.92189 46.875017 -289.375 46.875 C -287.8594 46.875017 -287.12502 45.468769 -287.125 42.65625 C -287.12502 41.187523 -287.62502 40.203149 -288.65625 39.65625 C -289.40627 39.250025 -290.56252 39.031275 -292.125 39.03125 z M -498.625 39.5625 C -502.54688 39.562524 -505.65626 41.062523 -507.96875 44.09375 C -510.04688 46.828142 -511.09375 50.171889 -511.09375 54.125 C -511.09375 57.703131 -509.78125 60.468754 -507.15625 62.4375 C -504.78126 64.21875 -501.70314 65.124999 -497.96875 65.125 C -495.51564 65.124999 -493.21877 64.656249 -491.03125 63.71875 C -488.4219 62.593751 -487.09378 61.125003 -487.09375 59.34375 C -487.09378 57.765631 -487.90627 57.000007 -489.53125 57 C -490.31252 57.000007 -491.3594 57.359382 -492.65625 58.125 C -494.10939 58.98438 -495.87502 59.437505 -497.96875 59.4375 C -499.34376 59.437505 -500.56251 59.218755 -501.625 58.8125 C -502.68751 58.406256 -503.59376 57.812506 -504.34375 57 L -496.46875 53.5 C -493.82814 52.328137 -492.06252 51.421888 -491.1875 50.8125 C -489.26565 49.48439 -488.31252 47.968766 -488.3125 46.25 C -488.31252 43.81252 -489.4844 42.031272 -491.84375 40.875 C -493.64064 40.000024 -495.90627 39.562524 -498.625 39.5625 z M -383.65625 39.5625 C -387.53126 39.562524 -390.84376 40.914086 -393.625 43.59375 C -396.40625 46.273455 -397.8125 49.48439 -397.8125 53.25 C -397.8125 57.265632 -396.85156 60.296879 -394.96875 62.3125 C -393.08594 64.328125 -390.26563 65.343749 -386.5 65.34375 C -385.73439 65.343749 -384.81251 65.164061 -383.71875 64.8125 C -382.62502 64.460937 -381.37502 63.9375 -379.9375 63.25 C -378.37502 64.812499 -377.21877 65.593748 -376.5 65.59375 C -375.6719 65.593748 -374.94534 65.328124 -374.3125 64.78125 C -373.67971 64.234375 -373.37503 63.546876 -373.375 62.71875 C -373.37503 62.531252 -373.6719 61.750002 -374.28125 60.40625 C -374.95315 58.92188 -375.2969 58.109381 -375.34375 57.96875 C -375.76565 56.656257 -376.00002 54.515635 -376 51.53125 C -376.00002 50.265639 -375.92971 49.164077 -375.84375 48.21875 C -375.75784 47.273454 -375.65627 46.468768 -375.5 45.84375 C -375.14065 45.421894 -374.96877 44.937519 -374.96875 44.375 C -374.96877 43.031271 -376.14065 41.859397 -378.5 40.84375 C -380.45314 40.000024 -382.17189 39.562524 -383.65625 39.5625 z M -321.53125 39.5625 C -325.45313 39.562524 -328.56251 41.062523 -330.875 44.09375 C -332.95313 46.828142 -334 50.171889 -334 54.125 C -334 57.703131 -332.6875 60.468754 -330.0625 62.4375 C -327.68751 64.21875 -324.60939 65.124999 -320.875 65.125 C -318.42189 65.124999 -316.12502 64.656249 -313.9375 63.71875 C -311.32815 62.593751 -310.00003 61.125003 -310 59.34375 C -310.00003 57.765631 -310.81252 57.000007 -312.4375 57 C -313.21877 57.000007 -314.26565 57.359382 -315.5625 58.125 C -317.01564 58.98438 -318.78127 59.437505 -320.875 59.4375 C -322.25001 59.437505 -323.46876 59.218755 -324.53125 58.8125 C -325.59376 58.406256 -326.50001 57.812506 -327.25 57 L -319.375 53.5 C -316.73439 52.328137 -314.96877 51.421888 -314.09375 50.8125 C -312.1719 49.48439 -311.21877 47.968766 -311.21875 46.25 C -311.21877 43.81252 -312.39065 42.031272 -314.75 40.875 C -316.54689 40.000024 -318.81252 39.562524 -321.53125 39.5625 z M -481.21875 39.65625 C -482.125 39.656274 -482.91406 39.929712 -483.5625 40.5 C -484.21094 41.070335 -484.53125 41.796897 -484.53125 42.65625 C -484.53125 43.453146 -484.40625 44.53127 -484.1875 45.9375 C -483.17188 52.437512 -482.42188 56.656257 -481.9375 58.59375 C -481.40625 60.734378 -480.73438 62.484377 -479.875 63.84375 C -479.06251 65.187499 -478.26563 65.843748 -477.53125 65.8125 C -476.23438 65.765623 -475.28126 65.234374 -474.625 64.1875 C -474.15626 63.796875 -473.79689 63.281251 -473.5625 62.625 C -472.00001 58.546881 -470.81251 55.531259 -470 53.59375 C -469.92189 53.359386 -469.70314 52.906261 -469.375 52.21875 C -468.79689 56.140633 -468.29689 58.812505 -467.875 60.25 C -466.75002 64.015625 -465.21877 65.906248 -463.25 65.9375 C -462.00002 65.953123 -461.00002 65.437499 -460.25 64.40625 C -459.18753 62.921876 -458.40628 61.500003 -457.9375 60.09375 C -456.28128 55.093759 -454.64066 49.531265 -453 43.40625 C -452.92191 43.109396 -452.87503 42.875021 -452.875 42.71875 C -452.87503 41.859397 -453.22659 41.140648 -453.90625 40.5625 C -454.58597 39.984399 -455.3594 39.687524 -456.25 39.6875 C -457.8594 39.687524 -458.84378 40.375024 -459.1875 41.71875 C -461.50002 50.734388 -462.7344 55.484384 -462.875 55.96875 C -463.01565 55.265634 -463.39065 53.046886 -464.03125 49.34375 C -464.46877 46.796892 -464.89065 44.718769 -465.28125 43.125 C -465.82814 40.859398 -466.98439 39.750024 -468.71875 39.75 C -470.48439 39.750024 -471.67189 40.750023 -472.3125 42.78125 C -473.81251 47.500017 -475.15626 51.453138 -476.3125 54.625 C -476.73438 51.859387 -477.04688 49.875014 -477.25 48.65625 C -477.29688 48.328141 -477.40626 47.218767 -477.59375 45.375 C -477.73438 44.09377 -477.89063 43.031271 -478.09375 42.15625 C -478.48438 40.484399 -479.53126 39.656274 -481.21875 39.65625 z M -383.34375 45.1875 C -383.17189 45.187519 -382.96095 45.210956 -382.71875 45.28125 C -382.47658 45.351581 -382.21877 45.468769 -381.90625 45.625 C -382.04689 46.421893 -382.14845 47.132829 -382.21875 47.78125 C -382.28908 48.429703 -382.31252 49.000015 -382.3125 49.5 C -382.31252 51.343763 -382.09377 54.12501 -381.625 57.84375 C -382.39064 58.468756 -383.19533 58.960943 -384.0625 59.28125 C -384.9297 59.601567 -385.84376 59.750004 -386.8125 59.75 C -388.31251 59.750004 -389.43751 59.210942 -390.1875 58.15625 C -390.93751 57.101569 -391.31251 55.531258 -391.3125 53.4375 C -391.31251 51.250013 -390.53126 49.320327 -388.9375 47.65625 C -387.34376 45.992206 -385.46876 45.187519 -383.34375 45.1875 z M -498.625 45.21875 C -496.93752 45.218769 -495.54689 45.531269 -494.5 46.125 C -495.75002 46.937517 -497.45314 47.796891 -499.5625 48.75 C -501.31251 49.500015 -503.04688 50.265639 -504.8125 51.03125 C -504.18751 49.093765 -503.37501 47.656266 -502.34375 46.6875 C -501.31251 45.718768 -500.07814 45.218769 -498.625 45.21875 z M -321.53125 45.21875 C -319.84377 45.218769 -318.45314 45.531269 -317.40625 46.125 C -318.65627 46.937517 -320.35939 47.796891 -322.46875 48.75 C -324.21876 49.500015 -325.95313 50.265639 -327.71875 51.03125 C -327.09376 49.093765 -326.28126 47.656266 -325.25 46.6875 C -324.21876 45.718768 -322.98439 45.218769 -321.53125 45.21875 z "
       xlink:href="#text3241"
       style="font-size:48px;font-style:normal;font-variant:normal;font-weight:bold;font-stretch:normal;line-height:125%;letter-spacing:0px;word-spacing:0px;fill:#ffffff;fill-opacity:1;stroke:none;font-family:Comic Sans MS;-inkscape-font-specification:Comic Sans MS Bold"
       id="path3247"
       inkscape:href="#text3241"
       d="m -415.3125,19.9375 c -4.28199,6.4e-5 -8.46096,1.779221 -11.65625,4.46875 -3.98294,3.359374 -7.15607,7.683407 -9.5,12.6875 -2.33955,4.994778 -3.65625,10.195115 -3.65625,15.40625 0,5.545739 1.39335,10.932931 5.125,14.875 3.74347,3.954573 9.20296,5.562497 14.625,5.5625 5.94226,-3e-6 11.75547,-2.129139 16.25,-6 a 7.2676024,7.2676024 0 0 0 0.0312,0 c 0.3308,-0.287443 0.59214,-0.634276 0.90625,-0.9375 0.31814,0.417908 0.54091,0.890137 0.90625,1.28125 3.52267,3.771159 8.70899,5.343749 13.78125,5.34375 1.90262,-2e-6 3.4605,-0.411417 5,-0.90625 0.13404,-0.04309 0.27279,-0.110995 0.40625,-0.15625 1.02261,0.658132 2.25756,1.312493 4.59375,1.3125 1.84437,-4e-6 3.78654,-0.744715 5.46875,-1.75 1.33536,0.644121 2.7136,1.124999 3.96875,1.125 1.98399,-2e-6 4.19859,-0.653259 6.0625,-1.84375 0.21892,0.272126 0.35059,0.638081 0.59375,0.875 1.96689,1.916494 4.98415,2.937492 7.375,2.9375 2.39087,-8e-6 5.35048,-0.934538 7.40625,-2.9375 0.01,-0.0097 0.0213,-0.02149 0.0312,-0.03125 1.97038,1.424043 4.29311,2.093748 6.21875,2.09375 2.49328,-6e-6 5.23216,-1.027618 7.125,-2.65625 0.23092,-0.19871 0.41059,-0.481469 0.625,-0.71875 3.26308,1.661016 6.96668,2.437499 10.75,2.4375 3.37883,-10e-7 6.73827,-0.682486 9.8125,-2 0.55682,-0.240066 1.08329,-0.582828 1.625,-0.875 1.09323,0.753227 2.23534,1.355778 3.375,1.78125 2.66447,0.993126 5.44854,1.406249 8.21875,1.40625 3.83941,-10e-7 7.59589,-0.723334 10.9375,-2.5625 a 7.2676024,7.2676024 0 0 0 0.0312,-0.03125 c 4.24796,-2.362943 7.49996,-7.527982 7.5,-12.46875 -3e-5,-2.768868 -1.09401,-5.304016 -2.625,-7.46875 0.2565,-0.324455 0.5737,-0.63646 0.75,-0.96875 1.32046,-2.488825 1.40624,-4.523762 1.40625,-6.5625 -4e-5,-3.09935 -2.01861,-7.570919 -5.34375,-9.375 -0.0231,-0.0125 -0.0395,-0.01895 -0.0625,-0.03125 -2.50945,-1.340545 -4.6547,-1.499964 -6.875,-1.5 -4.38333,2.8e-5 -7.82934,0.252562 -11.15625,1.34375 a 7.2676024,7.2676024 0 0 0 -0.0312,0 c -1.94525,0.639298 -3.75269,1.800576 -5.40625,3.25 -0.884,-0.803903 -1.8379,-1.507052 -2.84375,-2 -3.10131,-1.510148 -6.47046,-2.062469 -9.96875,-2.0625 -4.73622,2.9e-5 -9.43374,1.971635 -12.9375,5.1875 -2.67636,-3.095846 -6.6695,-5.343718 -10.5625,-5.34375 -2.076,3.9e-5 -4.21513,0.351327 -6.25,1.09375 -0.0756,0.0276 -0.14362,0.06505 -0.21875,0.09375 -1.86315,-0.858955 -3.85705,-1.40623 -5.75,-1.40625 -1.51962,1.8e-5 -2.89141,0.332132 -4.1875,0.78125 -1.71862,-1.095114 -3.70231,-1.937442 -5.65625,-1.9375 -2.93146,6.9e-5 -5.69697,1.810119 -7.53125,3.90625 -0.33467,-0.161918 -0.65961,-0.353468 -1,-0.5 l 0,0.03125 c -2.53836,-1.096534 -5.11909,-1.906203 -8.03125,-1.90625 -4.36078,2.7e-5 -8.64724,1.406095 -12.21875,3.84375 0.33959,-1.023539 0.68746,-2.05928 0.6875,-3.125 -7e-5,-3.311277 -1.92575,-6.036355 -3.65625,-7.5625 -1.7305,-1.526145 -3.4893,-2.4202 -5.46875,-3.25 -3.04921,-1.278056 -5.68655,-2.249919 -9,-2.25 z m -131.96875,0.46875 c -2.71936,9.5e-5 -5.69955,1.214346 -7.65625,3 -1.97278,1.800483 -3.59375,4.829028 -3.59375,7.90625 0,1.421974 0.14422,2.927616 0.34375,4.90625 0.17547,1.740127 0.21875,3.015746 0.21875,3.46875 0,1.215062 0.0788,2.668536 0.125,4.625 0.0458,1.937898 0.0312,3.373815 0.0312,4.28125 0,0.757669 -0.001,2.104194 -0.0625,3.90625 -0.0639,1.885438 -0.125,3.320158 -0.125,4.40625 0,0.201091 -0.0293,1.026248 -0.125,2.21875 -0.10819,1.348249 -0.1875,2.38858 -0.1875,3.4375 0,2.505458 1.14334,5.439499 3,7.34375 a 7.2676024,7.2676024 0 0 0 0,0.03125 c 2.09237,2.139921 5.27051,3.249995 7.9375,3.25 3.6314,-3e-6 7.6704,-2.977372 9.0625,-5.84375 1.19456,-2.459631 1.43795,-4.762872 1.5,-7.1875 2.83134,3.06521 5.63356,6.019903 8.28125,8.40625 a 7.2676024,7.2676024 0 0 0 0.0312,0 c 2.11946,1.902742 4.76968,3.718747 8.5625,3.71875 2.23397,-10e-7 5.03959,-0.734602 7.15625,-2.625 0.21965,-0.196167 0.30437,-0.446935 0.5,-0.65625 3.61688,2.295595 7.90074,3.406249 12.3125,3.40625 3.37883,-10e-7 6.73827,-0.682486 9.8125,-2 1.03114,-0.444565 2.03262,-1.000579 3,-1.65625 0.52168,0.725962 0.95856,1.442513 1.8125,2.15625 1.29407,1.081611 3.45543,2.245901 6.0625,2.15625 0.0224,-7.69e-4 0.0401,9.55e-4 0.0625,0 2.30383,-0.100969 5.01022,-1.258816 6.96875,-2.96875 1.79574,1.632876 4.19332,3.082431 6.875,3.125 a 7.2676024,7.2676024 0 0 0 0.0312,0 c 3.29636,0.0412 7.08924,-1.946991 8.96875,-4.53125 a 7.2676024,7.2676024 0 0 0 0.0312,-0.0625 c 1.35951,-1.899372 2.54244,-3.908725 3.3125,-6.21875 a 7.2676024,7.2676024 0 0 0 0,-0.03125 c 1.71166,-5.167353 3.39308,-10.86135 5.0625,-17.09375 a 7.2676024,7.2676024 0 0 0 0,-0.03125 c 0.13546,-0.514943 0.37469,-0.923039 0.375,-2.53125 -10e-5,-2.841123 -1.59204,-5.984758 -3.59375,-7.6875 -1.81679,-1.545174 -4.55711,-2.624932 -7.0625,-2.625 -1.83943,2.7e-5 -4.08055,0.416894 -6.09375,1.8125 -0.14722,0.102057 -0.23474,0.263762 -0.375,0.375 -1.8164,-1.269126 -4.02415,-2.124973 -6,-2.125 -1.98227,2.7e-5 -4.23727,0.761971 -6.09375,2.03125 -1.99268,-1.513134 -4.43088,-2.124972 -6.40625,-2.125 -2.23812,5.9e-5 -4.82984,0.878509 -6.78125,2.4375 -0.22837,-0.133067 -0.42293,-0.354405 -0.65625,-0.46875 -3.10131,-1.510148 -6.47046,-2.062469 -9.96875,-2.0625 -2.84125,1.7e-5 -5.69539,0.673291 -8.28125,1.90625 -0.18687,-1.935262 -0.49533,-3.746133 -1.0625,-5.5 -0.53603,-1.657567 -1.30259,-3.412822 -2.90625,-5.0625 -1.60366,-1.649678 -4.37326,-2.937465 -6.875,-2.9375 -2.30198,3.6e-5 -5.2433,0.619511 -7.5625,2.8125 -2.3192,2.192989 -3.15628,5.341694 -3.15625,7.71875 -6e-5,1.340346 0.17289,2.367005 0.34375,3.5625 0.002,0.01649 -0.002,0.01493 0,0.03125 0.11169,0.80826 0.12626,1.191303 0.15625,1.53125 -2.49017,-3.099938 -4.98867,-6.183418 -7.53125,-9.8125 a 7.2676024,7.2676024 0 0 0 0,-0.03125 c -1.94525,-2.766513 -4.43523,-6.093584 -9.78125,-6.09375 z" />
    <path
       sodipodi:type="inkscape:offset"
       inkscape:radius="3.7029774"
       inkscape:original="M -413.3125 27.21875 C -415.79689 27.218787 -418.10939 28.140661 -420.28125 29.96875 C -423.37501 32.578156 -425.90626 35.984403 -427.875 40.1875 C -429.84375 44.390645 -430.84375 48.500016 -430.84375 52.5 C -430.84375 56.890632 -429.79688 60.179691 -427.71875 62.375 C -425.64063 64.570312 -422.53126 65.656248 -418.375 65.65625 C -413.98439 65.656248 -410.14065 64.25 -406.875 61.4375 C -403.65628 58.64063 -401.53128 54.906259 -400.46875 50.25 C -399.53128 49.625014 -399.06253 48.76564 -399.0625 47.625 C -399.06253 46.734392 -399.36722 45.984393 -400 45.375 C -400.63284 44.765644 -401.40628 44.43752 -402.34375 44.4375 C -406.59378 44.43752 -410.31252 44.718769 -413.5 45.25 C -419.15626 46.203143 -422.00001 47.859391 -422 50.25 C -422.00001 51.062513 -421.70314 51.796887 -421.125 52.4375 C -420.48439 53.156261 -419.68751 53.531261 -418.71875 53.53125 C -418.23439 53.531261 -417.73439 53.406261 -417.25 53.1875 C -414.56252 51.984387 -411.40627 51.250013 -407.78125 50.96875 C -408.70315 53.71876 -410.14065 55.812508 -412.0625 57.25 C -413.87502 58.60938 -415.98439 59.281255 -418.375 59.28125 C -420.70314 59.281255 -422.25001 58.79688 -423.0625 57.8125 C -423.82813 56.875007 -424.21876 55.109384 -424.21875 52.5 C -424.21876 47.359392 -422.48438 42.562521 -419 38.15625 C -416.60939 35.125029 -414.71877 33.62503 -413.3125 33.625 C -411.98439 33.62503 -410.50783 34.054717 -408.90625 34.9375 C -407.30471 35.820341 -406.28128 36.281278 -405.8125 36.28125 C -404.87503 36.281278 -404.07815 35.945341 -403.4375 35.28125 C -402.7969 34.617217 -402.46878 33.84378 -402.46875 33 C -402.46878 31.531283 -404.03128 30.171909 -407.125 28.875 C -409.7344 27.781286 -411.79689 27.218787 -413.3125 27.21875 z M -545.28125 27.6875 C -546.3125 27.687536 -547.22657 28.046911 -548.03125 28.78125 C -548.83594 29.51566 -549.25 30.375034 -549.25 31.3125 C -549.25 32.250032 -549.15625 33.640655 -548.96875 35.5 C -548.78125 37.359402 -548.6875 38.750025 -548.6875 39.6875 C -548.6875 40.671898 -548.64063 42.171897 -548.59375 44.15625 C -548.54688 46.140643 -548.53125 47.609391 -548.53125 48.59375 C -548.53125 49.51564 -548.5625 50.906263 -548.625 52.75 C -548.6875 54.593759 -548.71875 55.984383 -548.71875 56.90625 C -548.71875 57.531257 -548.77344 58.453131 -548.875 59.71875 C -548.97656 60.984378 -549.03125 61.937502 -549.03125 62.5625 C -549.03125 63.453126 -548.73438 64.21875 -548.125 64.84375 C -547.4375 65.546874 -546.51563 65.906248 -545.375 65.90625 C -543.12501 65.906248 -542.00001 63.578125 -542 58.96875 C -542.00001 57.734381 -542.00782 55.890633 -542.0625 53.40625 C -542.1172 50.921888 -542.15626 49.04689 -542.15625 47.8125 C -542.15626 46.890642 -542.12501 44.40627 -542.03125 40.34375 C -534.46877 50.125014 -527.6719 57.734381 -521.65625 63.15625 C -520.28128 64.390625 -519.03128 64.999999 -517.9375 65 C -515.96879 64.999999 -514.84379 63.984375 -514.53125 61.96875 C -514.26566 60.281254 -514.12504 59.062505 -514.125 58.28125 C -514.12504 56.343758 -514.09379 51.406263 -514 43.46875 C -513.96879 41.171898 -513.93754 39.921899 -513.9375 39.75 C -513.93754 31.890657 -515.20316 27.968786 -517.75 27.96875 C -520.03128 27.968786 -521.18753 29.062535 -521.1875 31.21875 C -521.18753 31.843782 -521.09378 32.687531 -520.9375 33.78125 C -520.76566 35.015654 -520.68753 35.859403 -520.65625 36.3125 C -520.50003 39.000025 -520.40628 44.203145 -520.40625 51.90625 C -520.40628 53.78126 -520.42191 54.968759 -520.4375 55.46875 C -527.34377 49.07814 -534.34377 40.812523 -541.4375 30.6875 C -542.84376 28.687535 -544.12501 27.687536 -545.28125 27.6875 z M -367.09375 38.03125 C -368.20313 38.031276 -369.07813 38.718775 -369.6875 40.125 C -370.1875 41.250023 -370.4375 42.515647 -370.4375 43.90625 C -370.4375 44.687519 -370.40625 45.835956 -370.34375 47.34375 C -370.28125 48.851578 -370.25 50.000014 -370.25 50.78125 L -370.25 59.5 C -370.25 61.203128 -370.07813 62.437502 -369.75 63.21875 C -369.28125 64.375 -368.39063 64.968749 -367.0625 64.96875 C -366.14063 64.968749 -365.37501 64.734374 -364.75 64.28125 C -364.06251 63.796875 -363.71876 63.125001 -363.71875 62.28125 C -363.71876 61.921877 -363.68751 61.36719 -363.65625 60.625 C -363.62501 59.882817 -363.62501 59.312505 -363.625 58.875 C -363.62501 57.078132 -363.59376 54.593759 -363.53125 51.4375 C -363.34376 51.218763 -363.20313 51.046888 -363.125 50.9375 C -361.29689 48.500016 -359.46876 46.765642 -357.65625 45.71875 C -357.48439 46.312518 -357.40627 47.093767 -357.40625 48.09375 C -357.40627 49.875014 -357.19533 52.507824 -356.8125 55.96875 C -356.4297 59.429692 -356.25002 62.062502 -356.25 63.84375 C -356.25002 64.734374 -355.95314 65.468749 -355.34375 66.0625 C -354.73439 66.656247 -353.96877 66.937497 -353.03125 66.9375 C -352.09377 66.937497 -351.2969 66.656247 -350.6875 66.0625 C -350.07815 65.468749 -349.78127 64.734374 -349.78125 63.84375 C -349.78127 62.140627 -350.00002 59.578129 -350.4375 56.15625 C -350.8594 52.812511 -351.06252 50.250014 -351.0625 48.46875 C -350.46877 47.953141 -349.53127 47.312517 -348.25 46.59375 C -346.96878 45.875018 -346.1719 45.531269 -345.8125 45.53125 C -345.15628 45.531269 -344.6094 46.921892 -344.1875 49.71875 C -343.9844 51.062513 -343.71878 53.343761 -343.40625 56.5625 C -343.1094 59.500005 -342.81253 61.765627 -342.53125 63.375 C -342.21878 65.156249 -341.17191 66.062498 -339.375 66.0625 C -338.46878 66.062498 -337.67191 65.765623 -337 65.1875 C -336.32816 64.609374 -336.03129 63.890625 -336.09375 63 C -336.78129 57.093757 -337.34379 52.875011 -337.78125 50.34375 C -338.23441 46.734392 -338.56253 44.593769 -338.78125 43.96875 C -339.87503 40.921898 -341.96878 39.406275 -345.03125 39.40625 C -346.37503 39.406275 -347.62502 39.609399 -348.78125 40.03125 C -349.93752 40.453149 -350.9844 41.093773 -351.9375 41.9375 C -353.06252 40.109399 -354.84377 39.187525 -357.25 39.1875 C -359.35939 39.187525 -361.57814 40.578148 -363.9375 43.3125 C -363.79688 41.640647 -363.71876 40.953148 -363.71875 41.28125 C -363.71876 40.468774 -364.06251 39.710962 -364.75 39.03125 C -365.43751 38.351588 -366.21876 38.031276 -367.09375 38.03125 z M -292.125 39.03125 C -296.10939 39.031275 -299.07813 39.3594 -301.03125 40 C -304.35938 41.093773 -306.03125 43.203146 -306.03125 46.34375 C -306.03125 48.562515 -304.92188 50.453139 -302.71875 52 C -301.81251 52.625011 -299.75001 53.640635 -296.53125 55.0625 C -294.32814 56.031258 -293.21877 56.921882 -293.21875 57.71875 C -293.23439 59.000005 -294.82814 59.625004 -298 59.625 C -298.73438 59.625004 -299.79688 59.42188 -301.15625 58.96875 C -302.51563 58.515631 -303.5625 58.281256 -304.28125 58.28125 C -306.14063 58.281256 -307.0625 59.062505 -307.0625 60.625 C -307.0625 62.328127 -305.875 63.625 -303.53125 64.5 C -301.81251 65.140624 -299.92188 65.437499 -297.84375 65.4375 C -294.90626 65.437499 -292.42189 64.890624 -290.40625 63.78125 C -287.90627 62.390627 -286.65627 60.343754 -286.65625 57.65625 C -286.65627 55.593758 -287.7969 53.765635 -290.0625 52.125 C -291.15627 51.328138 -293.25002 50.203139 -296.34375 48.78125 C -298.60938 47.750016 -299.75001 46.921892 -299.75 46.3125 C -299.75001 45.281269 -297.85939 44.781269 -294.09375 44.78125 C -293.43751 44.781269 -292.81252 44.828144 -292.1875 44.9375 C -291.87502 46.234393 -290.92189 46.875017 -289.375 46.875 C -287.8594 46.875017 -287.12502 45.468769 -287.125 42.65625 C -287.12502 41.187523 -287.62502 40.203149 -288.65625 39.65625 C -289.40627 39.250025 -290.56252 39.031275 -292.125 39.03125 z M -498.625 39.5625 C -502.54688 39.562524 -505.65626 41.062523 -507.96875 44.09375 C -510.04688 46.828142 -511.09375 50.171889 -511.09375 54.125 C -511.09375 57.703131 -509.78125 60.468754 -507.15625 62.4375 C -504.78126 64.21875 -501.70314 65.124999 -497.96875 65.125 C -495.51564 65.124999 -493.21877 64.656249 -491.03125 63.71875 C -488.4219 62.593751 -487.09378 61.125003 -487.09375 59.34375 C -487.09378 57.765631 -487.90627 57.000007 -489.53125 57 C -490.31252 57.000007 -491.3594 57.359382 -492.65625 58.125 C -494.10939 58.98438 -495.87502 59.437505 -497.96875 59.4375 C -499.34376 59.437505 -500.56251 59.218755 -501.625 58.8125 C -502.68751 58.406256 -503.59376 57.812506 -504.34375 57 L -496.46875 53.5 C -493.82814 52.328137 -492.06252 51.421888 -491.1875 50.8125 C -489.26565 49.48439 -488.31252 47.968766 -488.3125 46.25 C -488.31252 43.81252 -489.4844 42.031272 -491.84375 40.875 C -493.64064 40.000024 -495.90627 39.562524 -498.625 39.5625 z M -383.65625 39.5625 C -387.53126 39.562524 -390.84376 40.914086 -393.625 43.59375 C -396.40625 46.273455 -397.8125 49.48439 -397.8125 53.25 C -397.8125 57.265632 -396.85156 60.296879 -394.96875 62.3125 C -393.08594 64.328125 -390.26563 65.343749 -386.5 65.34375 C -385.73439 65.343749 -384.81251 65.164061 -383.71875 64.8125 C -382.62502 64.460937 -381.37502 63.9375 -379.9375 63.25 C -378.37502 64.812499 -377.21877 65.593748 -376.5 65.59375 C -375.6719 65.593748 -374.94534 65.328124 -374.3125 64.78125 C -373.67971 64.234375 -373.37503 63.546876 -373.375 62.71875 C -373.37503 62.531252 -373.6719 61.750002 -374.28125 60.40625 C -374.95315 58.92188 -375.2969 58.109381 -375.34375 57.96875 C -375.76565 56.656257 -376.00002 54.515635 -376 51.53125 C -376.00002 50.265639 -375.92971 49.164077 -375.84375 48.21875 C -375.75784 47.273454 -375.65627 46.468768 -375.5 45.84375 C -375.14065 45.421894 -374.96877 44.937519 -374.96875 44.375 C -374.96877 43.031271 -376.14065 41.859397 -378.5 40.84375 C -380.45314 40.000024 -382.17189 39.562524 -383.65625 39.5625 z M -321.53125 39.5625 C -325.45313 39.562524 -328.56251 41.062523 -330.875 44.09375 C -332.95313 46.828142 -334 50.171889 -334 54.125 C -334 57.703131 -332.6875 60.468754 -330.0625 62.4375 C -327.68751 64.21875 -324.60939 65.124999 -320.875 65.125 C -318.42189 65.124999 -316.12502 64.656249 -313.9375 63.71875 C -311.32815 62.593751 -310.00003 61.125003 -310 59.34375 C -310.00003 57.765631 -310.81252 57.000007 -312.4375 57 C -313.21877 57.000007 -314.26565 57.359382 -315.5625 58.125 C -317.01564 58.98438 -318.78127 59.437505 -320.875 59.4375 C -322.25001 59.437505 -323.46876 59.218755 -324.53125 58.8125 C -325.59376 58.406256 -326.50001 57.812506 -327.25 57 L -319.375 53.5 C -316.73439 52.328137 -314.96877 51.421888 -314.09375 50.8125 C -312.1719 49.48439 -311.21877 47.968766 -311.21875 46.25 C -311.21877 43.81252 -312.39065 42.031272 -314.75 40.875 C -316.54689 40.000024 -318.81252 39.562524 -321.53125 39.5625 z M -481.21875 39.65625 C -482.125 39.656274 -482.91406 39.929712 -483.5625 40.5 C -484.21094 41.070335 -484.53125 41.796897 -484.53125 42.65625 C -484.53125 43.453146 -484.40625 44.53127 -484.1875 45.9375 C -483.17188 52.437512 -482.42188 56.656257 -481.9375 58.59375 C -481.40625 60.734378 -480.73438 62.484377 -479.875 63.84375 C -479.06251 65.187499 -478.26563 65.843748 -477.53125 65.8125 C -476.23438 65.765623 -475.28126 65.234374 -474.625 64.1875 C -474.15626 63.796875 -473.79689 63.281251 -473.5625 62.625 C -472.00001 58.546881 -470.81251 55.531259 -470 53.59375 C -469.92189 53.359386 -469.70314 52.906261 -469.375 52.21875 C -468.79689 56.140633 -468.29689 58.812505 -467.875 60.25 C -466.75002 64.015625 -465.21877 65.906248 -463.25 65.9375 C -462.00002 65.953123 -461.00002 65.437499 -460.25 64.40625 C -459.18753 62.921876 -458.40628 61.500003 -457.9375 60.09375 C -456.28128 55.093759 -454.64066 49.531265 -453 43.40625 C -452.92191 43.109396 -452.87503 42.875021 -452.875 42.71875 C -452.87503 41.859397 -453.22659 41.140648 -453.90625 40.5625 C -454.58597 39.984399 -455.3594 39.687524 -456.25 39.6875 C -457.8594 39.687524 -458.84378 40.375024 -459.1875 41.71875 C -461.50002 50.734388 -462.7344 55.484384 -462.875 55.96875 C -463.01565 55.265634 -463.39065 53.046886 -464.03125 49.34375 C -464.46877 46.796892 -464.89065 44.718769 -465.28125 43.125 C -465.82814 40.859398 -466.98439 39.750024 -468.71875 39.75 C -470.48439 39.750024 -471.67189 40.750023 -472.3125 42.78125 C -473.81251 47.500017 -475.15626 51.453138 -476.3125 54.625 C -476.73438 51.859387 -477.04688 49.875014 -477.25 48.65625 C -477.29688 48.328141 -477.40626 47.218767 -477.59375 45.375 C -477.73438 44.09377 -477.89063 43.031271 -478.09375 42.15625 C -478.48438 40.484399 -479.53126 39.656274 -481.21875 39.65625 z M -383.34375 45.1875 C -383.17189 45.187519 -382.96095 45.210956 -382.71875 45.28125 C -382.47658 45.351581 -382.21877 45.468769 -381.90625 45.625 C -382.04689 46.421893 -382.14845 47.132829 -382.21875 47.78125 C -382.28908 48.429703 -382.31252 49.000015 -382.3125 49.5 C -382.31252 51.343763 -382.09377 54.12501 -381.625 57.84375 C -382.39064 58.468756 -383.19533 58.960943 -384.0625 59.28125 C -384.9297 59.601567 -385.84376 59.750004 -386.8125 59.75 C -388.31251 59.750004 -389.43751 59.210942 -390.1875 58.15625 C -390.93751 57.101569 -391.31251 55.531258 -391.3125 53.4375 C -391.31251 51.250013 -390.53126 49.320327 -388.9375 47.65625 C -387.34376 45.992206 -385.46876 45.187519 -383.34375 45.1875 z M -498.625 45.21875 C -496.93752 45.218769 -495.54689 45.531269 -494.5 46.125 C -495.75002 46.937517 -497.45314 47.796891 -499.5625 48.75 C -501.31251 49.500015 -503.04688 50.265639 -504.8125 51.03125 C -504.18751 49.093765 -503.37501 47.656266 -502.34375 46.6875 C -501.31251 45.718768 -500.07814 45.218769 -498.625 45.21875 z M -321.53125 45.21875 C -319.84377 45.218769 -318.45314 45.531269 -317.40625 46.125 C -318.65627 46.937517 -320.35939 47.796891 -322.46875 48.75 C -324.21876 49.500015 -325.95313 50.265639 -327.71875 51.03125 C -327.09376 49.093765 -326.28126 47.656266 -325.25 46.6875 C -324.21876 45.718768 -322.98439 45.218769 -321.53125 45.21875 z "
       xlink:href="#text3241"
       style="font-size:48px;font-style:normal;font-variant:normal;font-weight:bold;font-stretch:normal;line-height:125%;letter-spacing:0px;word-spacing:0px;fill:#000000;fill-opacity:1;stroke:none;font-family:Comic Sans MS;-inkscape-font-specification:Comic Sans MS Bold"
       id="path3249"
       inkscape:href="#text3241"
       d="m -415.3125,23.53125 c -3.40039,5.1e-5 -6.65038,1.326698 -9.34375,3.59375 -3.54686,2.991567 -6.40258,6.88874 -8.5625,11.5 -2.1577,4.606537 -3.3125,9.257851 -3.3125,13.875 0,4.979239 1.20429,9.320846 4.125,12.40625 2.92673,3.091778 7.22999,4.437498 12.03125,4.4375 5.18128,-2e-6 10.0144,-1.741942 13.90625,-5.09375 a 3.7033477,3.7033477 0 0 0 0.0312,-0.03125 c 1.49979,-1.303225 2.74254,-2.826631 3.84375,-4.46875 0.62103,1.930455 1.56303,3.655784 2.90625,5.09375 2.71843,2.910192 6.75605,4.187499 11.1875,4.1875 1.345,-2e-6 2.58535,-0.262932 3.90625,-0.6875 0.6166,-0.198198 1.31993,-0.547242 1.96875,-0.8125 0.20731,0.160277 0.41209,0.386416 0.625,0.53125 0.8745,0.594896 1.799,1.218745 3.5,1.21875 1.61995,-4e-6 3.34883,-0.611693 4.59375,-1.6875 0.21929,-0.189514 0.33898,-0.491624 0.53125,-0.71875 1.24302,1.054806 2.81328,1.781249 4.3125,1.78125 1.52697,-2e-6 3.14944,-0.430948 4.4375,-1.34375 0.019,-0.01346 0.0437,-0.01758 0.0625,-0.03125 l -0.0312,-0.03125 c 1.48392,-1.076093 2.50671,-3.09458 2.53125,-4.90625 0.0137,0.388804 0.125,1.192079 0.125,1.5 -4e-5,1.713568 0.72808,3.63572 2,4.875 1.30112,1.267779 3.22816,1.906245 4.90625,1.90625 1.67808,-5e-6 3.59108,-0.59441 4.9375,-1.90625 1.20344,-1.17263 1.86146,-2.954019 1.9375,-4.59375 0.27522,1.443759 0.97348,2.971054 2.25,4.0625 1.31205,1.121829 3.01028,1.562498 4.53125,1.5625 1.71494,-4e-6 3.48719,-0.63657 4.78125,-1.75 0.87762,-0.755198 1.45404,-1.90264 1.8125,-3.09375 0.18145,0.152297 0.3092,0.356903 0.5,0.5 3.12131,2.340989 7.07278,3.406249 11.40625,3.40625 2.92483,-10e-7 5.76689,-0.556357 8.40625,-1.6875 1.26378,-0.54487 2.35211,-1.264808 3.34375,-2.125 0.0898,0.112487 0.12289,0.269939 0.21875,0.375 1.13398,1.242874 2.55227,2.018263 4.09375,2.59375 2.20066,0.820248 4.53796,1.156249 6.96875,1.15625 3.39708,-10e-7 6.52744,-0.612496 9.21875,-2.09375 a 3.7033477,3.7033477 0 0 0 0.0312,0 c 3.3907,-1.886088 5.62497,-5.539302 5.625,-9.375 -3e-5,-3.067548 -1.70206,-5.78963 -4.09375,-7.8125 1.12458,-0.560962 2.14418,-1.316099 2.65625,-2.28125 0.85582,-1.613063 0.96874,-3.177699 0.96875,-4.90625 -3e-5,-2.30911 -1.25038,-5.104766 -3.46875,-6.28125 l 0,0.03125 c -1.6619,-0.900115 -3.31068,-1.062469 -5.21875,-1.0625 -4.18768,2.6e-5 -7.40934,0.254794 -10.0625,1.125 -2.16011,0.709908 -4.11488,1.901332 -5.5,3.65625 -0.45004,0.570188 -0.70038,1.249104 -1,1.90625 -0.99027,-1.891802 -2.50799,-3.523134 -4.4375,-4.46875 a 3.7033477,3.7033477 0 0 0 0,-0.03125 c -2.46158,-1.19864 -5.29028,-1.656222 -8.40625,-1.65625 -4.86605,3e-5 -9.35519,2.133248 -12.28125,5.96875 -0.47047,0.619044 -0.86554,1.297716 -1.25,1.96875 -0.0703,-0.322009 -0.0804,-0.667241 -0.21875,-1.0625 a 3.7033477,3.7033477 0 0 0 0,-0.03125 c -1.46958,-4.093687 -5.4658,-6.999965 -9.75,-7 -1.7169,3.2e-5 -3.42729,0.258545 -5.03125,0.84375 -0.50097,0.182794 -0.87329,0.571969 -1.34375,0.8125 -1.70426,-1.175338 -3.75612,-1.874978 -5.84375,-1.875 -1.68841,2e-5 -3.21676,0.482953 -4.65625,1.28125 -0.0986,-0.110573 -0.14646,-0.272632 -0.25,-0.375 -1.27126,-1.256752 -3.15886,-2.062447 -4.9375,-2.0625 -2.62405,6.1e-5 -5.00913,2.105662 -5.96875,4.28125 -0.003,0.007 0.003,0.02424 0,0.03125 -0.15528,0.351846 -0.22388,0.729128 -0.34375,1.09375 -1.04966,-0.997967 -2.24696,-1.719286 -3.625,-2.3125 -2.25135,-0.972549 -4.41308,-1.562464 -6.625,-1.5625 -4.73604,2.9e-5 -9.14009,1.795194 -12.53125,5.0625 -0.53546,0.515907 -0.97698,1.089142 -1.4375,1.65625 -1.23771,-1.109688 -2.99328,-1.843713 -4.71875,-1.84375 -4.41338,2.1e-5 -8.3109,0.270583 -11.75,0.84375 a 3.7033477,3.7033477 0 0 0 -0.0312,0 c -1.19237,0.200927 -2.22622,0.447158 -3.25,0.71875 0.40632,-0.626299 0.78891,-1.252394 1.28125,-1.875 1.08529,-1.37612 2.02849,-2.306502 2.625,-2.78125 0.22478,-0.178899 0.31892,-0.207326 0.40625,-0.25 0.54015,0.03533 1.28727,0.181698 2.375,0.78125 0.8542,0.470876 1.58863,0.852654 2.28125,1.15625 0.69262,0.303596 1.14552,0.625087 2.59375,0.625 1.82216,5.4e-5 3.75855,-0.805737 5.03125,-2.125 1.19946,-1.243341 1.99994,-3.040068 2,-4.84375 -4e-5,-2.047477 -1.14321,-3.79236 -2.40625,-4.90625 -1.26304,-1.11389 -2.7327,-1.884137 -4.5,-2.625 -2.83351,-1.187649 -5.19326,-1.937441 -7.625,-1.9375 z M -547.28125,24 c -1.89146,6.6e-5 -3.85829,0.761193 -5.25,2.03125 -1.39991,1.277648 -2.40625,3.25343 -2.40625,5.28125 0,1.184389 0.0876,2.642369 0.28125,4.5625 0.18137,1.798623 0.28125,3.121897 0.28125,3.8125 0,1.101938 0.0472,2.592358 0.0937,4.5625 0.0463,1.960701 0.0625,3.398589 0.0625,4.34375 0,0.838208 -0.032,2.208752 -0.0937,4.03125 -0.0632,1.864997 -0.0937,3.275699 -0.0937,4.28125 0,0.408993 -0.0577,1.302889 -0.15625,2.53125 -0.10494,1.307729 -0.15625,2.283984 -0.15625,3.125 0,1.713495 0.69254,3.598133 1.9375,4.875 1.40338,1.435272 3.48783,2.156247 5.40625,2.15625 2.40218,-2e-6 4.88976,-1.783863 5.875,-3.8125 0.98524,-2.028637 1.18749,-4.206555 1.1875,-6.8125 -10e-6,-1.249959 -0.007,-3.139328 -0.0625,-5.65625 -0.0276,-1.255296 -0.0461,-1.851263 -0.0625,-2.78125 5.05735,6.040108 9.92151,11.417425 14.3125,15.375 1.75434,1.574954 3.71837,2.781248 6.1875,2.78125 1.62112,-10e-7 3.42488,-0.476122 4.78125,-1.6875 1.04304,-0.931541 1.58648,-2.149364 1.9375,-3.375 0.56669,0.632628 1.15195,1.262402 1.84375,1.78125 3.12131,2.340989 7.07278,3.406249 11.40625,3.40625 2.92483,-10e-7 5.76689,-0.556357 8.40625,-1.6875 1.63293,-0.704024 3.06103,-1.590166 4.21875,-2.875 0.35556,-0.394593 0.60176,-0.895669 0.875,-1.375 0.4036,1.033367 0.87358,1.973755 1.4375,2.875 0.0119,0.01965 0.0193,0.04294 0.0312,0.0625 0.53569,0.878429 1.09857,1.673807 1.9375,2.375 0.85138,0.7116 2.14662,1.366236 3.65625,1.3125 0.01,-3.49e-4 0.0216,3.96e-4 0.0312,0 1.86382,-0.07634 3.71555,-1.13088 5.03125,-2.5625 l 0.0937,0.09375 c 0.85019,-0.708506 1.48878,-1.666742 1.9375,-2.6875 0.42811,0.907754 0.94342,1.737932 1.5625,2.5 1.24933,1.537884 3.28347,2.747057 5.4375,2.78125 a 3.7033477,3.7033477 0 0 0 0.0312,0 c 2.29275,0.02866 4.70567,-1.208635 6.03125,-3.03125 a 3.7033477,3.7033477 0 0 0 0,-0.03125 c 1.21383,-1.695844 2.1902,-3.445712 2.8125,-5.3125 1.68447,-5.085274 3.34468,-10.695265 5,-16.875 a 3.7033477,3.7033477 0 0 0 0.0312,-0.03125 c 0.10732,-0.407986 0.21858,-0.728865 0.21875,-1.625 -7e-5,-1.869203 -0.95916,-3.817543 -2.3125,-4.96875 -1.25913,-1.070892 -3.03655,-1.749954 -4.75,-1.75 -1.33197,2e-5 -2.79621,0.278422 -4.0625,1.15625 -1.04033,0.721181 -1.72463,1.82543 -2.15625,2.9375 -0.37543,-0.773516 -0.84265,-1.514555 -1.5,-2.15625 -1.24857,-1.218846 -3.0933,-1.874977 -4.75,-1.875 -1.58189,2.2e-5 -3.3086,0.541441 -4.59375,1.625 -0.74704,0.629853 -1.31001,1.381063 -1.75,2.1875 -0.41705,-0.926958 -0.96242,-1.821851 -1.8125,-2.5 -1.28652,-1.026325 -2.89428,-1.406229 -4.34375,-1.40625 -1.65105,4.4e-5 -3.45495,0.583551 -4.78125,1.75 -0.59962,0.527393 -1.06269,1.22896 -1.4375,1.96875 -0.81649,-0.855591 -1.7186,-1.604216 -2.78125,-2.125 a 3.7033477,3.7033477 0 0 0 0,-0.03125 c -2.46158,-1.19864 -5.29028,-1.656222 -8.40625,-1.65625 -4.55622,2.8e-5 -8.73389,1.923642 -11.65625,5.3125 0.007,-0.371353 0.0312,-1.203106 0.0312,-1.4375 -2e-5,-4.128437 -0.2674,-7.316798 -1.125,-9.96875 -0.4288,-1.325976 -1.01148,-2.575077 -2.0625,-3.65625 -1.05102,-1.081173 -2.72543,-1.843728 -4.3125,-1.84375 -1.73242,2.7e-5 -3.66159,0.428732 -5.125,1.8125 -1.46341,1.383768 -2.00002,3.384988 -2,5.125 -5e-5,0.985498 0.11907,1.925831 0.28125,3.0625 0.002,0.01568 -0.002,0.01572 0,0.03125 0.15443,1.116468 0.22558,1.871327 0.25,2.21875 2.9e-4,0.0051 -2.9e-4,0.02615 0,0.03125 0.0904,1.564836 0.11477,5.977558 0.15625,9.59375 -4.67349,-5.067224 -9.39876,-10.714087 -14.21875,-17.59375 -1.68091,-2.390574 -3.58378,-4.562398 -6.875,-4.5625 z m 159.3125,26 c 0.0178,1.472393 0.24051,3.65838 0.46875,5.84375 -0.3845,0.125405 -0.78516,0.218752 -1.3125,0.21875 -0.61284,2e-6 -0.26193,0.05256 -0.34375,-0.0625 -0.0818,-0.115061 -0.46876,-0.910896 -0.46875,-2.5625 -10e-6,-1.305811 0.35223,-2.150859 1.375,-3.21875 0.1028,-0.107335 0.18346,-0.12701 0.28125,-0.21875 z m 77.25,0.375 c 0.78987,1.678875 1.97992,3.185347 3.5,4.34375 -0.83063,0.07952 -1.65032,0.318785 -2.46875,0.75 -0.14338,-0.18102 -0.20268,-0.397639 -0.375,-0.5625 -1.05577,-1.010093 -2.33133,-1.342349 -3.53125,-1.46875 1.12958,-0.863665 2.16458,-1.854509 2.875,-3.0625 z m -178.21875,1.25 c 0.15544,0.91102 0.29871,1.746044 0.4375,2.5 -0.73859,-0.373938 -1.44676,-0.60947 -2.1875,-0.6875 0.67591,-0.516796 1.20537,-1.162613 1.75,-1.8125 z" />
    <g
       style="font-size:48px;font-style:normal;font-variant:normal;font-weight:bold;font-stretch:normal;line-height:125%;letter-spacing:0px;word-spacing:0px;fill:#ffff00;fill-opacity:1;stroke:none;font-family:Comic Sans MS;-inkscape-font-specification:Comic Sans MS Bold"
       id="text3241">
      <path
         d="m -514.12836,58.274559 c -3e-5,0.781255 -0.13285,2.015629 -0.39843,3.703125 -0.31254,2.015625 -1.45316,3.023437 -3.42188,3.023438 -1.09378,-10e-7 -2.32816,-0.617188 -3.70312,-1.851563 -6.01565,-5.421869 -12.80471,-13.023424 -20.36719,-22.804687 -0.0938,4.062519 -0.14064,6.554704 -0.14063,7.476562 -10e-6,1.23439 0.0273,3.093763 0.082,5.578125 0.0547,2.484383 0.082,4.343756 0.082,5.578125 -10e-6,4.609375 -1.12501,6.914061 -3.375,6.914063 -1.14063,-2e-6 -2.0547,-0.351564 -2.74219,-1.054688 -0.60938,-0.625 -0.91407,-1.382812 -0.91406,-2.273437 -10e-6,-0.624998 0.0508,-1.57031 0.15234,-2.835938 0.10156,-1.265619 0.15234,-2.210931 0.15234,-2.835937 0,-0.921867 0.0312,-2.304679 0.0937,-4.148438 0.0625,-1.843737 0.0937,-3.226548 0.0937,-4.148437 0,-0.984359 -0.0234,-2.468733 -0.0703,-4.453125 -0.0469,-1.984354 -0.0703,-3.468727 -0.0703,-4.453125 0,-0.937475 -0.0937,-2.335911 -0.28125,-4.195313 -0.1875,-1.859345 -0.28125,-3.257781 -0.28125,-4.195312 0,-0.937467 0.40234,-1.773403 1.20703,-2.507813 0.80468,-0.734339 1.72265,-1.101526 2.75391,-1.101562 1.15624,3.6e-5 2.43749,1.000035 3.84375,3 7.09373,10.125023 14.09372,18.382827 21,24.773437 0.0156,-0.499991 0.0234,-1.68749 0.0234,-3.5625 -3e-5,-7.703105 -0.0781,-12.898412 -0.23437,-15.585937 -0.0313,-0.453097 -0.13284,-1.296846 -0.30469,-2.53125 -0.15628,-1.093719 -0.2344,-1.953093 -0.23437,-2.578125 -3e-5,-2.156215 1.14059,-3.234339 3.42187,-3.234375 2.54684,3.6e-5 3.82028,3.929719 3.82031,11.789062 -3e-5,0.171899 -0.0157,1.406273 -0.0469,3.703125 -0.0938,7.937513 -0.14066,12.875008 -0.14063,14.8125 z"
         style=""
         id="path3631" />
      <path
         d="m -497.97992,65.118309 c -3.73438,-10e-7 -6.78907,-0.890625 -9.16406,-2.671875 -2.625,-1.968746 -3.9375,-4.742181 -3.9375,-8.320312 0,-3.953112 1.03906,-7.296858 3.11719,-10.03125 2.31249,-3.031228 5.42967,-4.546851 9.35156,-4.546875 2.71873,2.4e-5 4.97654,0.437524 6.77344,1.3125 2.35935,1.156272 3.53903,2.953145 3.53906,5.390625 -3e-5,1.718766 -0.96096,3.242202 -2.88281,4.570312 -0.87502,0.609388 -2.63284,1.500012 -5.27344,2.671875 l -7.89844,3.492188 c 0.74999,0.812506 1.65624,1.42188 2.71875,1.828125 1.06249,0.406254 2.28124,0.609379 3.65625,0.609375 2.09373,4e-6 3.86717,-0.429683 5.32031,-1.289063 1.29686,-0.765618 2.33592,-1.14843 3.11719,-1.148437 1.62498,7e-6 2.43748,0.789068 2.4375,2.367187 -2e-5,1.781253 -1.30471,3.234376 -3.91406,4.359375 -2.18752,0.937499 -4.50783,1.406249 -6.96094,1.40625 z m -0.63281,-19.898437 c -1.45314,1.8e-5 -2.69533,0.484393 -3.72656,1.453125 -1.03126,0.968766 -1.85939,2.421889 -2.48438,4.359375 1.76562,-0.765612 3.52343,-1.523423 5.27344,-2.273438 2.10936,-0.953109 3.78904,-1.83592 5.03906,-2.648437 -1.04689,-0.593732 -2.41408,-0.890607 -4.10156,-0.890625 z"
         style=""
         id="path3633" />
      <path
         d="m -453.00336,43.391747 c -1.64065,6.125014 -3.28909,11.687508 -4.94531,16.6875 -0.46878,1.406252 -1.2344,2.851563 -2.29687,4.335937 -0.75003,1.031249 -1.75003,1.539061 -3,1.523438 -1.96877,-0.03125 -3.51565,-1.929688 -4.64063,-5.695313 -0.42189,-1.437495 -0.92189,-4.11718 -1.5,-8.039062 -0.32814,0.687511 -0.53126,1.148448 -0.60937,1.382812 -0.81252,1.937509 -2.00002,4.945318 -3.5625,9.023438 -0.23439,0.65625 -0.58595,1.179687 -1.05469,1.570312 -0.65626,1.046874 -1.63282,1.593748 -2.92969,1.640625 -0.73438,0.03125 -1.50782,-0.625001 -2.32031,-1.96875 -0.85938,-1.359373 -1.55469,-3.109372 -2.08594,-5.25 -0.48438,-1.937493 -1.23438,-6.156238 -2.25,-12.65625 -0.21875,-1.40623 -0.32813,-2.507792 -0.32812,-3.304687 -10e-6,-0.859353 0.32421,-1.574196 0.97265,-2.144532 0.64844,-0.570288 1.42578,-0.855444 2.33203,-0.855468 1.6875,2.4e-5 2.72656,0.835961 3.11719,2.507812 0.20312,0.875021 0.37499,1.953145 0.51563,3.234375 0.18749,1.843767 0.30467,2.929703 0.35156,3.257813 0.20311,1.218764 0.51561,3.210949 0.9375,5.976562 1.15624,-3.171862 2.48436,-7.117171 3.98437,-11.835937 0.64061,-2.031227 1.84374,-3.046851 3.60938,-3.046875 1.73435,2.4e-5 2.87498,1.132835 3.42187,3.398437 0.39061,1.593769 0.80467,3.66408 1.24219,6.210938 0.6406,3.703136 1.03123,5.906258 1.17188,6.609375 0.1406,-0.484367 1.36716,-5.234362 3.67968,-14.25 0.34373,-1.343727 1.32029,-2.015601 2.92969,-2.015625 0.8906,2.4e-5 1.67575,0.289086 2.35547,0.867187 0.67965,0.578148 1.0195,1.296897 1.01953,2.15625 -3e-5,0.156271 -0.0391,0.382833 -0.11719,0.679688 z"
         style=""
         id="path3635" />
      <path
         d="m -400.45648,50.258934 c -1.06253,4.656259 -3.20316,8.382818 -6.42188,11.179688 -3.26564,2.812499 -7.09376,4.218748 -11.48437,4.21875 -4.15626,-2e-6 -7.27345,-1.097657 -9.35156,-3.292969 -2.07813,-2.195309 -3.11719,-5.488274 -3.11719,-9.878906 0,-3.999985 0.98437,-8.101543 2.95312,-12.304688 1.96875,-4.203097 4.49999,-7.609344 7.59375,-10.21875 2.17186,-1.828089 4.49999,-2.742151 6.98438,-2.742187 1.5156,3.6e-5 3.5781,0.546911 6.1875,1.640625 3.09372,1.296908 4.64059,2.67972 4.64062,4.148437 -3e-5,0.84378 -0.32034,1.597686 -0.96093,2.261719 -0.64066,0.66409 -1.42972,0.996121 -2.36719,0.996094 -0.46878,2.7e-5 -1.50393,-0.441379 -3.10547,-1.324219 -1.60158,-0.882783 -3.06643,-1.324189 -4.39453,-1.324219 -1.40627,3e-5 -3.3047,1.515654 -5.69531,4.546875 -3.48439,4.406271 -5.22657,9.179704 -5.22657,14.320313 0,2.609383 0.38281,4.382819 1.14844,5.320312 0.81249,0.98438 2.3828,1.476567 4.71094,1.476563 2.39061,4e-6 4.49217,-0.679683 6.30469,-2.039063 1.92185,-1.437492 3.34372,-3.53124 4.26562,-6.28125 -3.62502,0.281263 -6.78127,1.02345 -9.46875,2.226563 -0.48439,0.21876 -0.96876,0.328135 -1.45312,0.328125 -0.96877,10e-6 -1.77345,-0.359365 -2.41407,-1.078125 -0.57813,-0.640613 -0.86719,-1.367175 -0.86718,-2.179688 -10e-6,-2.390609 2.82811,-4.062482 8.48437,-5.015625 3.18748,-0.531231 6.90623,-0.796855 11.15625,-0.796875 0.93747,2e-5 1.72263,0.304707 2.35547,0.914063 0.63278,0.609393 0.94919,1.359392 0.94922,2.25 -3e-5,1.14064 -0.46878,2.023451 -1.40625,2.648437 z"
         style=""
         id="path3637" />
      <path
         d="m -376.50336,65.587059 c -0.71877,-2e-6 -1.85939,-0.781251 -3.42187,-2.34375 -1.43752,0.6875 -2.70314,1.207031 -3.79688,1.558594 -1.09376,0.351561 -2.02345,0.527342 -2.78906,0.527344 -3.76563,-2e-6 -6.58985,-1.007813 -8.47266,-3.023438 -1.88281,-2.015621 -2.82422,-5.031243 -2.82421,-9.046875 -10e-6,-3.76561 1.39062,-6.988263 4.17187,-9.667969 2.78124,-2.679664 6.10936,-4.019507 9.98438,-4.019531 1.48435,2.4e-5 3.2031,0.421899 5.15625,1.265625 2.35935,1.015647 3.53903,2.195334 3.53906,3.539063 -3e-5,0.562519 -0.17971,1.054706 -0.53906,1.476562 -0.15628,0.625018 -0.27737,1.410173 -0.36329,2.355469 -0.086,0.945327 -0.12893,2.050795 -0.1289,3.316406 -3e-5,2.984385 0.21091,5.13282 0.63281,6.445313 0.0469,0.14063 0.40623,0.95313 1.07813,2.4375 0.60935,1.343752 0.91403,2.109376 0.91406,2.296875 -3e-5,0.828125 -0.31643,1.515624 -0.94922,2.0625 -0.63284,0.546873 -1.36331,0.82031 -2.19141,0.820312 z m -5.8125,-16.078125 c -1e-5,-0.499985 0.0351,-1.074203 0.10547,-1.722656 0.0703,-0.648421 0.17577,-1.371076 0.31641,-2.167969 -0.31252,-0.156231 -0.58986,-0.269513 -0.83203,-0.339844 -0.24221,-0.07029 -0.44924,-0.10545 -0.6211,-0.105468 -2.12501,1.8e-5 -3.98438,0.832049 -5.57812,2.496093 -1.59376,1.664077 -2.39063,3.589857 -2.39063,5.777344 0,2.093759 0.37499,3.667976 1.125,4.722656 0.74999,1.054693 1.87499,1.582036 3.375,1.582032 0.96874,4e-6 1.88671,-0.160152 2.75391,-0.480469 0.86717,-0.320308 1.68358,-0.792963 2.44922,-1.417969 -0.46877,-3.71874 -0.70314,-6.499987 -0.70313,-8.34375 z"
         style=""
         id="path3639" />
      <path
         d="m -363.94086,43.297997 c 2.35937,-2.734352 4.59374,-4.101538 6.70313,-4.101563 2.40623,2.5e-5 4.17185,0.914086 5.29687,2.742188 0.95311,-0.843728 2.00779,-1.476539 3.16407,-1.898438 1.15622,-0.421851 2.40622,-0.632788 3.75,-0.632812 3.06247,2.4e-5 5.14059,1.52346 6.23437,4.570312 0.21872,0.625019 0.55465,2.742205 1.00781,6.351563 0.43747,2.531261 0.99997,6.750006 1.6875,12.65625 0.0625,0.890625 -0.24222,1.624999 -0.91406,2.203125 -0.67191,0.578123 -1.46097,0.867185 -2.36719,0.867187 -1.7969,-2e-6 -2.85159,-0.890626 -3.16406,-2.671875 -0.28128,-1.609373 -0.57034,-3.882808 -0.86719,-6.820312 -0.31253,-3.21874 -0.57034,-5.499988 -0.77343,-6.84375 -0.42191,-2.796858 -0.96097,-4.195294 -1.61719,-4.195313 -0.3594,1.9e-5 -1.17971,0.359393 -2.46094,1.078125 -1.28127,0.718767 -2.21877,1.335954 -2.8125,1.851563 -2e-5,1.781263 0.21092,4.343761 0.63281,7.6875 0.43748,3.421879 0.65623,5.984376 0.65625,7.6875 -2e-5,0.890624 -0.30471,1.632811 -0.91406,2.226562 -0.6094,0.593747 -1.38283,0.890622 -2.32031,0.890625 -0.93752,-3e-6 -1.71096,-0.296878 -2.32031,-0.890625 -0.6094,-0.593751 -0.91408,-1.335938 -0.91407,-2.226562 -1e-5,-1.781248 -0.19142,-4.40234 -0.57422,-7.863282 -0.38282,-3.460926 -0.57423,-6.082017 -0.57421,-7.863281 -2e-5,-0.999983 -0.086,-1.796857 -0.25782,-2.390625 -1.81251,1.046892 -3.63282,2.789078 -5.46093,5.226563 -0.0781,0.109388 -0.21095,0.27345 -0.39844,0.492187 -0.0625,3.156259 -0.0938,5.632819 -0.0937,7.429688 -10e-6,0.437504 -0.0156,1.027347 -0.0469,1.769531 -0.0313,0.74219 -0.0469,1.292971 -0.0469,1.652344 -10e-6,0.84375 -0.34376,1.507812 -1.03125,1.992187 -0.62501,0.453124 -1.39845,0.679687 -2.32031,0.679688 -1.32813,-10e-7 -2.22657,-0.578126 -2.69532,-1.734375 -0.32812,-0.781249 -0.49219,-2.023435 -0.49218,-3.726563 l 0,-8.71875 c -10e-6,-0.781236 -0.0313,-1.925766 -0.0937,-3.433594 -0.0625,-1.507794 -0.0938,-2.652324 -0.0937,-3.433593 -10e-6,-1.390604 0.24999,-2.648415 0.75,-3.773438 0.60937,-1.406225 1.46874,-2.109349 2.57812,-2.109375 0.87499,2.6e-5 1.65624,0.339869 2.34375,1.019531 0.68749,0.679712 1.03124,1.425805 1.03125,2.238282 -1e-5,-0.328102 -0.0703,0.343772 -0.21094,2.015625 z"
         style=""
         id="path3641" />
      <path
         d="m -320.88617,65.118309 c -3.73438,-10e-7 -6.78907,-0.890625 -9.16406,-2.671875 -2.625,-1.968746 -3.9375,-4.742181 -3.9375,-8.320312 0,-3.953112 1.03906,-7.296858 3.11719,-10.03125 2.31249,-3.031228 5.42967,-4.546851 9.35156,-4.546875 2.71873,2.4e-5 4.97654,0.437524 6.77344,1.3125 2.35935,1.156272 3.53903,2.953145 3.53906,5.390625 -3e-5,1.718766 -0.96096,3.242202 -2.88281,4.570312 -0.87502,0.609388 -2.63284,1.500012 -5.27344,2.671875 l -7.89844,3.492188 c 0.74999,0.812506 1.65624,1.42188 2.71875,1.828125 1.06249,0.406254 2.28124,0.609379 3.65625,0.609375 2.09373,4e-6 3.86717,-0.429683 5.32031,-1.289063 1.29686,-0.765618 2.33592,-1.14843 3.11719,-1.148437 1.62498,7e-6 2.43748,0.789068 2.4375,2.367187 -2e-5,1.781253 -1.30471,3.234376 -3.91406,4.359375 -2.18752,0.937499 -4.50783,1.406249 -6.96094,1.40625 z m -0.63281,-19.898437 c -1.45314,1.8e-5 -2.69533,0.484393 -3.72656,1.453125 -1.03126,0.968766 -1.85939,2.421889 -2.48438,4.359375 1.76562,-0.765612 3.52343,-1.523423 5.27344,-2.273438 2.10936,-0.953109 3.78904,-1.83592 5.03906,-2.648437 -1.04689,-0.593732 -2.41408,-0.890607 -4.10156,-0.890625 z"
         style=""
         id="path3643" />
      <path
         d="m -289.38617,46.883934 c -1.54689,1.7e-5 -2.47658,-0.64842 -2.78906,-1.945312 -0.62502,-0.109356 -1.26564,-0.164044 -1.92188,-0.164063 -3.76563,1.9e-5 -5.64844,0.515644 -5.64843,1.546875 -10e-6,0.609392 1.1328,1.429704 3.39843,2.460938 3.09374,1.421888 5.18749,2.531262 6.28125,3.328125 2.26561,1.640635 3.39842,3.492195 3.39844,5.554687 -2e-5,2.687504 -1.25002,4.726564 -3.75,6.117188 -2.01564,1.109374 -4.4922,1.664061 -7.42969,1.664062 -2.07813,-10e-7 -3.97657,-0.320314 -5.69531,-0.960937 -2.34375,-0.875 -3.51563,-2.164061 -3.51562,-3.867188 -10e-6,-1.562495 0.92968,-2.343744 2.78906,-2.34375 0.71874,6e-6 1.7578,0.226568 3.11719,0.679688 1.35936,0.453129 2.40624,0.679691 3.14062,0.679687 3.17186,4e-6 4.76561,-0.64062 4.78125,-1.921875 -1e-5,-0.796868 -1.10158,-1.679679 -3.30469,-2.648437 -3.21876,-1.421865 -5.28125,-2.445302 -6.1875,-3.070313 -2.20313,-1.546861 -3.30469,-3.429672 -3.30468,-5.648437 -10e-6,-3.140605 1.66405,-5.25779 4.99218,-6.351563 1.95312,-0.6406 4.92187,-0.960912 8.90625,-0.960937 1.56249,2.5e-5 2.71873,0.203149 3.46875,0.609375 1.03123,0.546898 1.54686,1.55471 1.54688,3.023437 -2e-5,2.812519 -0.75783,4.218767 -2.27344,4.21875 z"
         style=""
         id="path3645" />
    </g>
  </g>
</svg>
