<?xml version="1.0" encoding="UTF-8" standalone="no"?>
<!-- Created with Inkscape (http://www.inkscape.org/) -->

<svg
   xmlns:dc="http://purl.org/dc/elements/1.1/"
   xmlns:cc="http://creativecommons.org/ns#"
   xmlns:rdf="http://www.w3.org/1999/02/22-rdf-syntax-ns#"
   xmlns:svg="http://www.w3.org/2000/svg"
   xmlns="http://www.w3.org/2000/svg"
   version="1.2"
   width="512"
   height="128"
   id="svg3213">
  <defs
     id="defs3215" />
  <metadata
     id="metadata3218">
    <rdf:RDF>
      <cc:Work
         rdf:about="">
        <dc:format>image/svg+xml</dc:format>
        <dc:type
           rdf:resource="http://purl.org/dc/dcmitype/StillImage" />
        <dc:title></dc:title>
      </cc:Work>
    </rdf:RDF>
  </metadata>
  <g
     transform="translate(683.46875,7.5312507)"
     id="layer1">
    <flowRoot
       id="flowRoot3221"
       xml:space="preserve"
       style="font-size:22px;font-style:normal;font-variant:normal;font-weight:normal;font-stretch:normal;line-height:125%;letter-spacing:0px;word-spacing:0px;fill:#000000;fill-opacity:1;stroke:none;font-family:Comic Sans MS;-inkscape-font-specification:Comic Sans MS"><flowRegion
         id="flowRegion3223"><rect
           width="42.857143"
           height="45.714287"
           x="-565.71429"
           y="149.50504"
           id="rect3225" /></flowRegion><flowPara
         id="flowPara3227" /></flowRoot>    <path
       d="m -383.96875,19.9375 c -4.28199,6.4e-5 -8.46096,1.779221 -11.65625,4.46875 -3.98294,3.359374 -7.15607,7.683407 -9.5,12.6875 -2.33955,4.994778 -3.65625,10.195115 -3.65625,15.40625 0,5.545739 1.39335,10.932931 5.125,14.875 3.74347,3.954573 9.20296,5.562497 14.625,5.5625 5.94226,-3e-6 11.75547,-2.129139 16.25,-6 a 7.2676024,7.2676024 0 0 0 0.0312,0 c 0.3308,-0.287443 0.59214,-0.634276 0.90625,-0.9375 0.31814,0.417908 0.54091,0.890137 0.90625,1.28125 3.52267,3.771159 8.70899,5.343749 13.78125,5.34375 1.90262,-2e-6 3.4605,-0.411417 5,-0.90625 0.13404,-0.04309 0.27279,-0.110995 0.40625,-0.15625 1.02261,0.658132 2.25756,1.312493 4.59375,1.3125 1.84437,-4e-6 3.78654,-0.744715 5.46875,-1.75 1.33536,0.644121 2.7136,1.124999 3.96875,1.125 1.98399,-2e-6 4.19859,-0.653259 6.0625,-1.84375 0.21892,0.272126 0.35059,0.638081 0.59375,0.875 1.96689,1.916494 4.98415,2.937492 7.375,2.9375 2.39087,-8e-6 5.35048,-0.934538 7.40625,-2.9375 0.01,-0.0097 0.0213,-0.02149 0.0312,-0.03125 1.97038,1.424043 4.29311,2.093748 6.21875,2.09375 2.49328,-6e-6 5.23216,-1.027618 7.125,-2.65625 0.23092,-0.19871 0.41059,-0.481469 0.625,-0.71875 3.26308,1.661016 6.96668,2.437499 10.75,2.4375 3.37883,-10e-7 6.73827,-0.682486 9.8125,-2 0.55682,-0.240066 1.08329,-0.582828 1.625,-0.875 1.09323,0.753227 2.23534,1.355778 3.375,1.78125 2.66447,0.993126 5.44854,1.406249 8.21875,1.40625 3.83941,-10e-7 7.59589,-0.723334 10.9375,-2.5625 a 7.2676024,7.2676024 0 0 0 0.0312,-0.03125 c 1.02993,-0.5729 1.99571,-1.327704 2.875,-2.1875 0.98558,0.813772 2.00534,1.553899 3.125,2.125 a 7.2676024,7.2676024 0 0 0 0.0312,0.03125 c 3.10064,1.562339 6.58513,2.312499 10.09375,2.3125 4.98985,-10e-7 9.96164,-1.957544 13.5625,-5.34375 3.61791,-3.402302 5.8437,-8.406446 5.84375,-13.375 -2e-5,-3.004241 -0.90564,-6.076807 -2.4375,-8.75 1.11734,-2.356924 1.59371,-4.8227 1.59375,-7.15625 -5e-5,-4.941663 -2.50188,-10.198278 -6.59375,-13.125 a 7.2676024,7.2676024 0 0 0 0,-0.03125 c -3.71562,-2.638544 -8.21002,-3.624954 -12.78125,-3.625 -3.3755,8.3e-5 -6.07039,1.082109 -8.96875,2.53125 -1.75612,0.878079 -3.36118,1.847658 -4.875,3.375 -1.20056,1.211279 -2.4133,3.048004 -2.875,5.28125 -1.30692,-0.29005 -2.56663,-0.43748 -3.84375,-0.4375 -4.38333,2.8e-5 -7.82934,0.252562 -11.15625,1.34375 a 7.2676024,7.2676024 0 0 0 -0.0312,0 c -1.94525,0.639298 -3.75269,1.800576 -5.40625,3.25 -0.884,-0.803903 -1.8379,-1.507052 -2.84375,-2 -3.10131,-1.510148 -6.47046,-2.062469 -9.96875,-2.0625 -4.73622,2.9e-5 -9.43374,1.971635 -12.9375,5.1875 -2.67636,-3.095846 -6.6695,-5.343718 -10.5625,-5.34375 -2.076,3.9e-5 -4.21513,0.351327 -6.25,1.09375 -0.0756,0.0276 -0.14362,0.06505 -0.21875,0.09375 -1.86315,-0.858955 -3.85705,-1.40623 -5.75,-1.40625 -1.51962,1.8e-5 -2.89141,0.332132 -4.1875,0.78125 -1.71862,-1.095114 -3.70231,-1.937442 -5.65625,-1.9375 -2.93146,6.9e-5 -5.69697,1.810119 -7.53125,3.90625 -0.33467,-0.161918 -0.65961,-0.353468 -1,-0.5 l 0,0.03125 c -2.53836,-1.096534 -5.11909,-1.906203 -8.03125,-1.90625 -4.36078,2.7e-5 -8.64724,1.406095 -12.21875,3.84375 0.33959,-1.023539 0.68746,-2.05928 0.6875,-3.125 -7e-5,-3.311277 -1.92575,-6.036355 -3.65625,-7.5625 -1.7305,-1.526145 -3.4893,-2.4202 -5.46875,-3.25 -3.04921,-1.278056 -5.68655,-2.249919 -9,-2.25 z m -131.96875,0.46875 c -2.71936,9.5e-5 -5.69955,1.214346 -7.65625,3 -0.26705,0.243726 -0.43671,0.65193 -0.6875,0.9375 -0.10134,-0.07014 -0.17868,-0.182909 -0.28125,-0.25 -3.29712,-2.158467 -7.26203,-3.343696 -11.28125,-3.34375 -3.46137,5.7e-5 -6.82099,0.994105 -9.75,2.59375 -2.11929,1.153879 -4.11897,2.683364 -6.28125,4.59375 l -0.0312,0 c -1.99795,1.768909 -3.625,5.024045 -3.625,7.875 0,2.909516 1.99617,6.571232 4.46875,8.1875 0.0194,0.01258 0.043,0.01879 0.0625,0.03125 0.35447,0.226967 0.77377,0.346791 1.15625,0.53125 -0.92709,0.927647 -1.82172,1.877249 -2.5625,3 -2.19817,3.336988 -3.15625,7.328457 -3.15625,11.3125 0,2.004647 0.0289,3.80073 1.09375,6.25 1.43595,3.27577 5.58538,5.725318 8.90625,6 0.20169,0.01668 0.43045,0.09375 0.625,0.09375 0.40701,0.0714 0.75629,0.1875 1.5,0.1875 1.4168,0 2.35028,-0.159085 3.59375,-0.3125 1.02941,-0.127007 1.73775,-0.155061 1.78125,-0.15625 l 0.0312,0 6.84375,0.03125 a 7.2676024,7.2676024 0 0 0 0.0312,0 c -0.37793,0 0.0473,2.17e-4 0.625,0.09375 0.8854,0.143356 1.51237,0.3125 2.96875,0.3125 1.40877,0 2.88891,-0.384488 4.25,-1 2.0722,1.783685 4.85028,2.812496 7.28125,2.8125 3.6314,-3e-6 7.6704,-2.977372 9.0625,-5.84375 1.19456,-2.459631 1.43795,-4.762872 1.5,-7.1875 2.83134,3.06521 5.63356,6.019903 8.28125,8.40625 a 7.2676024,7.2676024 0 0 0 0.0312,0 c 2.11946,1.902742 4.76968,3.718747 8.5625,3.71875 2.23397,-10e-7 5.03959,-0.734602 7.15625,-2.625 0.21965,-0.196167 0.30437,-0.446935 0.5,-0.65625 3.61688,2.295595 7.90074,3.406249 12.3125,3.40625 3.37883,-10e-7 6.73827,-0.682486 9.8125,-2 1.03114,-0.444565 2.03262,-1.000579 3,-1.65625 0.52168,0.725962 0.95856,1.442513 1.8125,2.15625 1.29407,1.081611 3.45543,2.245901 6.0625,2.15625 0.0224,-7.69e-4 0.0401,9.55e-4 0.0625,0 2.30383,-0.100969 5.01022,-1.258816 6.96875,-2.96875 1.79574,1.632876 4.19332,3.082431 6.875,3.125 a 7.2676024,7.2676024 0 0 0 0.0312,0 c 3.29636,0.0412 7.08924,-1.946991 8.96875,-4.53125 A 7.2676024,7.2676024 0 0 0 -425,68.625 c 1.35951,-1.899372 2.54244,-3.908725 3.3125,-6.21875 a 7.2676024,7.2676024 0 0 0 0,-0.03125 c 1.71166,-5.167353 3.39308,-10.86135 5.0625,-17.09375 a 7.2676024,7.2676024 0 0 0 0,-0.03125 c 0.13546,-0.514943 0.37469,-0.923039 0.375,-2.53125 -10e-5,-2.841123 -1.59204,-5.984758 -3.59375,-7.6875 -1.81679,-1.545174 -4.55711,-2.624932 -7.0625,-2.625 -1.83943,2.7e-5 -4.08055,0.416894 -6.09375,1.8125 -0.14722,0.102057 -0.23474,0.263762 -0.375,0.375 -1.8164,-1.269126 -4.02415,-2.124973 -6,-2.125 -1.98227,2.7e-5 -4.23727,0.761971 -6.09375,2.03125 -1.99268,-1.513134 -4.43088,-2.124972 -6.40625,-2.125 -2.23812,5.9e-5 -4.82984,0.878509 -6.78125,2.4375 -0.22837,-0.133067 -0.42293,-0.354405 -0.65625,-0.46875 -3.10131,-1.510148 -6.47046,-2.062469 -9.96875,-2.0625 -2.84125,1.7e-5 -5.69539,0.673291 -8.28125,1.90625 -0.18687,-1.935262 -0.49533,-3.746133 -1.0625,-5.5 -0.53603,-1.657567 -1.30259,-3.412822 -2.90625,-5.0625 -1.60366,-1.649678 -4.37326,-2.937465 -6.875,-2.9375 -2.30198,3.6e-5 -5.2433,0.619511 -7.5625,2.8125 -2.3192,2.192989 -3.15628,5.341694 -3.15625,7.71875 -6e-5,1.340346 0.17289,2.367005 0.34375,3.5625 0.002,0.01649 -0.002,0.01493 0,0.03125 0.11169,0.80826 0.12626,1.191303 0.15625,1.53125 -2.49017,-3.099938 -4.98867,-6.183418 -7.53125,-9.8125 a 7.2676024,7.2676024 0 0 0 0,-0.03125 c -1.94525,-2.766513 -4.43523,-6.093584 -9.78125,-6.09375 z"
       id="path3247"
       style="font-size:48px;font-style:normal;font-variant:normal;font-weight:bold;font-stretch:normal;line-height:125%;letter-spacing:0px;word-spacing:0px;fill:#ffffff;fill-opacity:1;stroke:none;font-family:Comic Sans MS;-inkscape-font-specification:Comic Sans MS Bold" />
    <path
       d="m -383.96875,23.53125 c -3.40039,5.1e-5 -6.65038,1.326698 -9.34375,3.59375 -3.54686,2.991567 -6.40258,6.88874 -8.5625,11.5 -2.1577,4.606537 -3.3125,9.257851 -3.3125,13.875 0,4.979239 1.20429,9.320846 4.125,12.40625 2.92673,3.091778 7.22999,4.437498 12.03125,4.4375 5.18128,-2e-6 10.0144,-1.741942 13.90625,-5.09375 a 3.7033477,3.7033477 0 0 0 0.0312,-0.03125 c 1.49979,-1.303225 2.74254,-2.826631 3.84375,-4.46875 0.62103,1.930455 1.56303,3.655784 2.90625,5.09375 2.71843,2.910192 6.75605,4.187499 11.1875,4.1875 1.345,-2e-6 2.58535,-0.262932 3.90625,-0.6875 0.6166,-0.198198 1.31993,-0.547242 1.96875,-0.8125 0.20731,0.160277 0.41209,0.386416 0.625,0.53125 0.8745,0.594896 1.799,1.218745 3.5,1.21875 1.61995,-4e-6 3.34883,-0.611693 4.59375,-1.6875 0.21929,-0.189514 0.33898,-0.491624 0.53125,-0.71875 1.24302,1.054806 2.81328,1.781249 4.3125,1.78125 1.52697,-2e-6 3.14944,-0.430948 4.4375,-1.34375 0.019,-0.01346 0.0437,-0.01758 0.0625,-0.03125 L -333.25,67.25 c 1.48392,-1.076093 2.50671,-3.09458 2.53125,-4.90625 0.0137,0.388804 0.125,1.192079 0.125,1.5 -4e-5,1.713568 0.72808,3.63572 2,4.875 1.30112,1.267779 3.22816,1.906245 4.90625,1.90625 1.67808,-5e-6 3.59108,-0.59441 4.9375,-1.90625 1.20344,-1.17263 1.86146,-2.954019 1.9375,-4.59375 0.27522,1.443759 0.97348,2.971054 2.25,4.0625 1.31205,1.121829 3.01028,1.562498 4.53125,1.5625 1.71494,-4e-6 3.48719,-0.63657 4.78125,-1.75 0.87762,-0.755198 1.45404,-1.90264 1.8125,-3.09375 0.18145,0.152297 0.3092,0.356903 0.5,0.5 3.12131,2.340989 7.07278,3.406249 11.40625,3.40625 2.92483,-10e-7 5.76689,-0.556357 8.40625,-1.6875 1.26378,-0.54487 2.35211,-1.264808 3.34375,-2.125 0.0898,0.112487 0.12289,0.269939 0.21875,0.375 1.13398,1.242874 2.55227,2.018263 4.09375,2.59375 2.20066,0.820248 4.53796,1.156249 6.96875,1.15625 3.39708,-10e-7 6.52744,-0.612496 9.21875,-2.09375 a 3.7033477,3.7033477 0 0 0 0.0312,0 c 1.93893,-1.078538 3.41734,-2.784748 4.40625,-4.71875 1.26501,1.864154 2.84501,3.526442 4.9375,4.59375 a 3.7033477,3.7033477 0 0 0 0.0312,0 c 2.56851,1.294213 5.44712,1.906249 8.46875,1.90625 4.19787,-10e-7 8.13299,-1.5301 11.125,-4.34375 3.00067,-2.82185 4.68746,-6.686176 4.6875,-10.78125 -2e-5,-3.241869 -1.1388,-6.260212 -3.0625,-8.65625 0.2663,-0.361383 0.59547,-0.666745 0.8125,-1.0625 1.04464,-1.904967 1.40621,-4.031155 1.40625,-6.1875 -4e-5,-4.050702 -1.82031,-7.899765 -5.0625,-10.21875 a 3.7033477,3.7033477 0 0 0 0,-0.03125 c -2.95087,-2.095476 -6.6499,-2.937459 -10.71875,-2.9375 -2.44038,6e-5 -4.74864,0.811856 -7.375,2.125 -1.53856,0.769295 -2.84426,1.584495 -3.9375,2.6875 -1.09324,1.103005 -2.03125,2.709879 -2.03125,4.59375 0,1.761977 0.78674,3.569746 1.96875,4.78125 1.17425,1.203672 2.90095,1.825122 4.5,1.9375 -0.0215,0.02217 -0.0411,0.03992 -0.0625,0.0625 -1.02795,1.087078 -1.65626,2.737505 -1.65625,4.21875 -1e-5,1.678229 0.76412,3.660676 2.15625,4.84375 1.38347,1.175709 2.99095,1.594004 4.59375,1.75 0.01,9.77e-4 0.0212,-9.56e-4 0.0312,0 2.14475,0.216408 3.36388,0.78438 3.84375,1.1875 0.48269,0.40549 0.65624,0.601283 0.65625,1.71875 0,0.185448 0.15094,-0.03205 -0.28125,0.3125 -0.4971,0.396289 -0.86299,0.562502 -1.59375,0.5625 -1.27288,3e-6 -1.71573,-0.257563 -1.84375,-0.34375 -0.005,-0.0031 -0.0589,-0.02864 -0.0625,-0.03125 -0.003,-0.0024 -0.0601,0.0019 -0.0625,0 a 3.7033477,3.7033477 0 0 0 0,-0.03125 c 0.0535,0.04281 0.0201,-0.0029 0.0625,0.03125 -0.0284,-0.0308 -0.0386,-0.06418 -0.0625,-0.09375 -0.24801,-0.307534 -0.61453,-0.793544 -1.09375,-1.4375 A 3.7033477,3.7033477 0 0 0 -244.5,53.4375 c -1.18534,-1.55961 -3.30934,-2.62498 -5.3125,-2.625 -1.6666,2e-5 -3.36188,0.627789 -4.59375,1.625 -0.20281,0.166755 -0.31663,0.455195 -0.5,0.65625 -0.7071,-1.224745 -1.69356,-2.303612 -2.8125,-3.25 1.12458,-0.560962 2.14418,-1.316099 2.65625,-2.28125 0.85582,-1.613063 0.96874,-3.177699 0.96875,-4.90625 -3e-5,-2.30911 -1.25038,-5.104766 -3.46875,-6.28125 l 0,0.03125 c -1.6619,-0.900115 -3.31068,-1.062469 -5.21875,-1.0625 -4.18768,2.6e-5 -7.40934,0.254794 -10.0625,1.125 -2.16011,0.709908 -4.11488,1.901332 -5.5,3.65625 -0.45004,0.570188 -0.70038,1.249104 -1,1.90625 -0.99027,-1.891802 -2.50799,-3.523134 -4.4375,-4.46875 a 3.7033477,3.7033477 0 0 0 0,-0.03125 c -2.46158,-1.19864 -5.29028,-1.656222 -8.40625,-1.65625 -4.86605,3e-5 -9.35519,2.133248 -12.28125,5.96875 -0.47047,0.619044 -0.86554,1.297716 -1.25,1.96875 -0.0703,-0.322009 -0.0804,-0.667241 -0.21875,-1.0625 a 3.7033477,3.7033477 0 0 0 0,-0.03125 c -1.46958,-4.093687 -5.4658,-6.999965 -9.75,-7 -1.7169,3.2e-5 -3.42729,0.258545 -5.03125,0.84375 -0.50097,0.182794 -0.87329,0.571969 -1.34375,0.8125 -1.70426,-1.175338 -3.75612,-1.874978 -5.84375,-1.875 -1.68841,2e-5 -3.21676,0.482953 -4.65625,1.28125 -0.0986,-0.110573 -0.14646,-0.272632 -0.25,-0.375 -1.27126,-1.256752 -3.15886,-2.062447 -4.9375,-2.0625 -2.62405,6.1e-5 -5.00913,2.105662 -5.96875,4.28125 -0.003,0.007 0.003,0.02424 0,0.03125 -0.15528,0.351846 -0.22388,0.729128 -0.34375,1.09375 -1.04966,-0.997967 -2.24696,-1.719286 -3.625,-2.3125 -2.25135,-0.972549 -4.41308,-1.562464 -6.625,-1.5625 -4.73604,2.9e-5 -9.14009,1.795194 -12.53125,5.0625 -0.53546,0.515907 -0.97698,1.089142 -1.4375,1.65625 -1.23771,-1.109688 -2.99328,-1.843713 -4.71875,-1.84375 -4.41338,2.1e-5 -8.3109,0.270583 -11.75,0.84375 a 3.7033477,3.7033477 0 0 0 -0.0312,0 c -1.19237,0.200927 -2.22622,0.447158 -3.25,0.71875 0.40632,-0.626299 0.78891,-1.252394 1.28125,-1.875 1.08529,-1.37612 2.02849,-2.306502 2.625,-2.78125 0.22478,-0.178899 0.31892,-0.207326 0.40625,-0.25 0.54015,0.03533 1.28727,0.181698 2.375,0.78125 0.8542,0.470876 1.58863,0.852654 2.28125,1.15625 0.69262,0.303596 1.14552,0.625087 2.59375,0.625 1.82216,5.4e-5 3.75855,-0.805737 5.03125,-2.125 1.19946,-1.243341 1.99994,-3.040068 2,-4.84375 -4e-5,-2.047477 -1.14321,-3.79236 -2.40625,-4.90625 -1.26304,-1.11389 -2.7327,-1.884137 -4.5,-2.625 -2.83351,-1.187649 -5.19326,-1.937441 -7.625,-1.9375 z M -515.9375,24 c -1.89146,6.6e-5 -3.85829,0.761193 -5.25,2.03125 -1.12815,1.029617 -1.82389,2.561751 -2.125,4.15625 -0.87542,-1.189244 -1.92516,-2.268046 -3.1875,-3.09375 -2.74528,-1.797202 -5.96999,-2.749955 -9.34375,-2.75 -2.82897,4.7e-5 -5.57379,0.765816 -8.0625,2.125 -1.77311,0.965393 -3.59185,2.327119 -5.625,4.125 -1.40535,1.236762 -2.40625,3.294352 -2.40625,5.21875 0,1.916203 1.17506,4.118982 2.8125,5.1875 0.0114,0.0074 0.0198,0.02391 0.0312,0.03125 1.22064,0.783399 2.72094,1.187546 4.1875,1.1875 1.67636,6.3e-5 2.45772,-0.515418 3.34375,-1.03125 0.88603,-0.515832 1.76838,-1.161006 2.78125,-1.96875 1.4392,-1.147699 2.38742,-1.43749 2.9375,-1.4375 0.0604,2e-6 0.24709,0.105163 0.34375,0.125 -0.28088,0.546999 -0.78336,1.142957 -1.875,1.9375 -2.05907,1.353431 -4.08032,2.714531 -6.125,4.0625 a 3.7033477,3.7033477 0 0 0 -0.0625,0.03125 c -2.49636,1.69335 -4.48108,3.481092 -5.875,5.59375 -1.75615,2.665968 -2.53125,5.880631 -2.53125,9.34375 0,1.757155 0.0541,3.211931 0.75,4.8125 a 3.7033477,3.7033477 0 0 0 0,0.03125 c 1.02137,2.330007 3.86011,3.90625 6.28125,3.90625 -0.27699,0 -0.14889,-0.009 0.0625,0.03125 0.44487,0.08474 0.81679,0.15625 1.4375,0.15625 1.02081,0 1.96381,-0.09903 3.1875,-0.25 1.10806,-0.13671 1.87636,-0.217306 2.1875,-0.21875 l 0.0312,0 6.84375,0.03125 a 3.7033477,3.7033477 0 0 0 0.0312,0 c -0.0163,0 0.4908,0.04345 1.1875,0.15625 0.85347,0.138185 1.47253,0.25 2.40625,0.25 1.82816,0 3.74441,-0.825386 4.96875,-2.125 0.004,-0.0042 -0.004,-0.02706 0,-0.03125 l 0.0312,0 c 0.31477,0.645432 0.63254,1.307413 1.125,1.8125 1.40338,1.435272 3.48783,2.156247 5.40625,2.15625 2.40218,-2e-6 4.88976,-1.783863 5.875,-3.8125 0.98524,-2.028637 1.18749,-4.206555 1.1875,-6.8125 -10e-6,-1.249959 -0.007,-3.139328 -0.0625,-5.65625 -0.0276,-1.255296 -0.0461,-1.851263 -0.0625,-2.78125 5.05735,6.040108 9.92151,11.417425 14.3125,15.375 1.75434,1.574954 3.71837,2.781248 6.1875,2.78125 1.62112,-10e-7 3.42488,-0.476122 4.78125,-1.6875 1.04304,-0.931541 1.58648,-2.149364 1.9375,-3.375 0.56669,0.632628 1.15195,1.262402 1.84375,1.78125 3.12131,2.340989 7.07278,3.406249 11.40625,3.40625 2.92483,-10e-7 5.76689,-0.556357 8.40625,-1.6875 1.63293,-0.704024 3.06103,-1.590166 4.21875,-2.875 0.35556,-0.394593 0.60176,-0.895669 0.875,-1.375 0.4036,1.033367 0.87358,1.973755 1.4375,2.875 0.0119,0.01965 0.0193,0.04294 0.0312,0.0625 0.53569,0.878429 1.09857,1.673807 1.9375,2.375 0.85138,0.7116 2.14662,1.366236 3.65625,1.3125 0.01,-3.49e-4 0.0216,3.96e-4 0.0312,0 1.86382,-0.07634 3.71555,-1.13088 5.03125,-2.5625 l 0.0937,0.09375 c 0.85019,-0.708506 1.48878,-1.666742 1.9375,-2.6875 0.42811,0.907754 0.94342,1.737932 1.5625,2.5 1.24933,1.537884 3.28347,2.747057 5.4375,2.78125 a 3.7033477,3.7033477 0 0 0 0.0312,0 c 2.29275,0.02866 4.70567,-1.208635 6.03125,-3.03125 a 3.7033477,3.7033477 0 0 0 0,-0.03125 c 1.21383,-1.695844 2.1902,-3.445712 2.8125,-5.3125 1.68447,-5.085274 3.34468,-10.695265 5,-16.875 a 3.7033477,3.7033477 0 0 0 0.0312,-0.03125 c 0.10732,-0.407986 0.21858,-0.728865 0.21875,-1.625 -7e-5,-1.869203 -0.95916,-3.817543 -2.3125,-4.96875 -1.25913,-1.070892 -3.03655,-1.749954 -4.75,-1.75 -1.33197,2e-5 -2.79621,0.278422 -4.0625,1.15625 -1.04033,0.721181 -1.72463,1.82543 -2.15625,2.9375 -0.37543,-0.773516 -0.84265,-1.514555 -1.5,-2.15625 -1.24857,-1.218846 -3.0933,-1.874977 -4.75,-1.875 -1.58189,2.2e-5 -3.3086,0.541441 -4.59375,1.625 -0.74704,0.629853 -1.31001,1.381063 -1.75,2.1875 -0.41705,-0.926958 -0.96242,-1.821851 -1.8125,-2.5 -1.28652,-1.026325 -2.89428,-1.406229 -4.34375,-1.40625 -1.65105,4.4e-5 -3.45495,0.583551 -4.78125,1.75 -0.59962,0.527393 -1.06269,1.22896 -1.4375,1.96875 -0.81649,-0.855591 -1.7186,-1.604216 -2.78125,-2.125 a 3.7033477,3.7033477 0 0 0 0,-0.03125 c -2.46158,-1.19864 -5.29028,-1.656222 -8.40625,-1.65625 -4.55622,2.8e-5 -8.73389,1.923642 -11.65625,5.3125 0.007,-0.371353 0.0312,-1.203106 0.0312,-1.4375 -2e-5,-4.128437 -0.2674,-7.316798 -1.125,-9.96875 -0.4288,-1.325976 -1.01148,-2.575077 -2.0625,-3.65625 -1.05102,-1.081173 -2.72543,-1.843728 -4.3125,-1.84375 -1.73242,2.7e-5 -3.66159,0.428732 -5.125,1.8125 -1.46341,1.383768 -2.00002,3.384988 -2,5.125 -5e-5,0.985498 0.11907,1.925831 0.28125,3.0625 0.002,0.01568 -0.002,0.01572 0,0.03125 0.15443,1.116468 0.22558,1.871327 0.25,2.21875 2.9e-4,0.0051 -2.9e-4,0.02615 0,0.03125 0.0904,1.564836 0.11477,5.977558 0.15625,9.59375 -4.67349,-5.067224 -9.39876,-10.714087 -14.21875,-17.59375 -1.68091,-2.390574 -3.58378,-4.562398 -6.875,-4.5625 z m -7,20.03125 c 0.002,0.0922 -0.002,0.124331 0,0.21875 0.0463,1.960701 0.0625,3.398589 0.0625,4.34375 0,0.838208 -0.032,2.208752 -0.0937,4.03125 -0.0558,1.647292 -0.087,2.808859 -0.0937,3.78125 -0.72314,-0.612811 -1.44861,-1.194208 -2.28125,-1.5625 -1.73779,-0.765436 -3.61088,-1.18749 -5.5,-1.1875 -0.64866,3e-6 -2.08823,0.06527 -3.03125,0.09375 1.57188,-0.987856 3.129,-1.983771 4.6875,-2.96875 a 3.7033477,3.7033477 0 0 0 0.125,-0.0625 c 2.33208,-1.590051 4.2086,-3.329213 5.53125,-5.375 0.008,-0.01147 0.0238,-0.01976 0.0312,-0.03125 0.2537,-0.389614 0.34905,-0.86794 0.5625,-1.28125 z M -356.625,50 c 0.0178,1.472393 0.24051,3.65838 0.46875,5.84375 -0.3845,0.125405 -0.78516,0.218752 -1.3125,0.21875 -0.61284,2e-6 -0.26193,0.05256 -0.34375,-0.0625 -0.0818,-0.115061 -0.46876,-0.910896 -0.46875,-2.5625 -10e-6,-1.305811 0.35223,-2.150859 1.375,-3.21875 0.1028,-0.107335 0.18346,-0.12701 0.28125,-0.21875 z m 77.25,0.375 c 0.78987,1.678875 1.97992,3.185347 3.5,4.34375 -0.83063,0.07952 -1.65032,0.318785 -2.46875,0.75 -0.14338,-0.18102 -0.20268,-0.397639 -0.375,-0.5625 -1.05577,-1.010093 -2.33133,-1.342349 -3.53125,-1.46875 1.12958,-0.863665 2.16458,-1.854509 2.875,-3.0625 z m -178.21875,1.25 c 0.15544,0.91102 0.29871,1.746044 0.4375,2.5 -0.73859,-0.373938 -1.44676,-0.60947 -2.1875,-0.6875 0.67591,-0.516796 1.20537,-1.162613 1.75,-1.8125 z"
       id="path3249"
       style="font-size:48px;font-style:normal;font-variant:normal;font-weight:bold;font-stretch:normal;line-height:125%;letter-spacing:0px;word-spacing:0px;fill:#000000;fill-opacity:1;stroke:none;font-family:Comic Sans MS;-inkscape-font-specification:Comic Sans MS Bold" />
    <g
       id="text3241"
       style="font-size:48px;font-style:normal;font-variant:normal;font-weight:bold;font-stretch:normal;line-height:125%;letter-spacing:0px;word-spacing:0px;fill:#ffff00;fill-opacity:1;stroke:none;font-family:Comic Sans MS;-inkscape-font-specification:Comic Sans MS Bold">
      <path
         d="m -527.55804,64.087059 c -0.39065,0 -0.99612,-0.06641 -1.81641,-0.199219 -0.82033,-0.132812 -1.41018,-0.199218 -1.76953,-0.199218 l -6.89063,-0.02344 c -0.59376,0 -1.4922,0.07422 -2.69531,0.222656 -1.20313,0.148438 -2.10938,0.222656 -2.71875,0.222657 -0.17188,-10e-7 -0.42188,-0.03125 -0.75,-0.09375 -0.32813,-0.0625 -0.57813,-0.09375 -0.75,-0.09375 -1.40625,0 -2.35938,-0.570312 -2.85937,-1.710938 -0.31251,-0.718747 -0.46876,-1.828121 -0.46875,-3.328125 -10e-6,-2.921867 0.64843,-5.367177 1.94531,-7.335937 0.99999,-1.515611 2.61718,-3.031235 4.85156,-4.546875 2.10936,-1.390607 4.21092,-2.773418 6.30469,-4.148438 2.46873,-1.796852 3.7031,-3.835912 3.70312,-6.117187 -2e-5,-0.593723 -0.4922,-1.183566 -1.47656,-1.769532 -0.98439,-0.585908 -1.94533,-0.878876 -2.88281,-0.878906 -1.65627,3e-5 -3.41017,0.73831 -5.26172,2.214844 -1.85157,1.476589 -3.1211,2.214869 -3.80859,2.214844 -0.82813,2.5e-5 -1.5547,-0.2031 -2.17969,-0.609375 -0.78126,-0.499974 -1.17188,-1.195286 -1.17188,-2.085938 0,-0.953096 0.39062,-1.773407 1.17188,-2.460937 1.89062,-1.671843 3.53905,-2.890592 4.94531,-3.65625 2.03124,-1.10934 4.1328,-1.664027 6.30469,-1.664063 2.70311,3.6e-5 5.1406,0.710973 7.3125,2.132813 2.48435,1.625032 3.72653,3.75003 3.72656,6.375 -3e-5,2.656274 -0.6094,4.914085 -1.82812,6.773437 -0.95315,1.484394 -2.46096,2.929705 -4.52344,4.335938 -1.95315,1.23439 -3.90627,2.460951 -5.85938,3.679687 -2.96876,1.937511 -4.56251,4.148446 -4.78125,6.632813 0.85937,-0.109369 2.12499,-0.234369 3.79688,-0.375 3.32811,-0.171869 5.71092,-0.257806 7.14844,-0.257813 1.34372,7e-6 2.67185,0.289069 3.98437,0.867188 1.62497,0.718755 2.43747,1.640629 2.4375,2.765625 -3e-5,0.812502 -0.28909,1.523439 -0.86719,2.132812 -0.6094,0.65625 -1.36721,0.984375 -2.27343,0.984375 z"
         id="path2999" />
      <path
         d="m -484.78461,58.274559 c -3e-5,0.781255 -0.13285,2.015629 -0.39843,3.703125 -0.31254,2.015625 -1.45316,3.023437 -3.42188,3.023438 -1.09378,-10e-7 -2.32816,-0.617188 -3.70312,-1.851563 -6.01565,-5.421869 -12.80471,-13.023424 -20.36719,-22.804687 -0.0938,4.062519 -0.14064,6.554704 -0.14063,7.476562 -10e-6,1.23439 0.0273,3.093763 0.082,5.578125 0.0547,2.484383 0.082,4.343756 0.082,5.578125 -10e-6,4.609375 -1.12501,6.914061 -3.375,6.914063 -1.14063,-2e-6 -2.0547,-0.351564 -2.74219,-1.054688 -0.60938,-0.625 -0.91407,-1.382812 -0.91406,-2.273437 -10e-6,-0.624998 0.0508,-1.57031 0.15234,-2.835938 0.10156,-1.265619 0.15234,-2.210931 0.15234,-2.835937 0,-0.921867 0.0312,-2.304679 0.0937,-4.148438 0.0625,-1.843737 0.0937,-3.226548 0.0937,-4.148437 0,-0.984359 -0.0234,-2.468733 -0.0703,-4.453125 -0.0469,-1.984354 -0.0703,-3.468727 -0.0703,-4.453125 0,-0.937475 -0.0937,-2.335911 -0.28125,-4.195313 -0.1875,-1.859345 -0.28125,-3.257781 -0.28125,-4.195312 0,-0.937467 0.40234,-1.773403 1.20703,-2.507813 0.80468,-0.734339 1.72265,-1.101526 2.75391,-1.101562 1.15624,3.6e-5 2.43749,1.000035 3.84375,3 7.09373,10.125023 14.09372,18.382827 21,24.773437 0.0156,-0.499991 0.0234,-1.68749 0.0234,-3.5625 -3e-5,-7.703105 -0.0781,-12.898412 -0.23437,-15.585937 -0.0313,-0.453097 -0.13284,-1.296846 -0.30469,-2.53125 -0.15628,-1.093719 -0.2344,-1.953093 -0.23437,-2.578125 -3e-5,-2.156215 1.14059,-3.234339 3.42187,-3.234375 2.54684,3.6e-5 3.82028,3.929719 3.82031,11.789062 -3e-5,0.171899 -0.0157,1.406273 -0.0469,3.703125 -0.0938,7.937513 -0.14066,12.875008 -0.14063,14.8125 z"
         id="path3001" />
      <path
         d="m -468.63617,65.118309 c -3.73438,-10e-7 -6.78907,-0.890625 -9.16406,-2.671875 -2.625,-1.968746 -3.9375,-4.742181 -3.9375,-8.320312 0,-3.953112 1.03906,-7.296858 3.11719,-10.03125 2.31249,-3.031228 5.42967,-4.546851 9.35156,-4.546875 2.71873,2.4e-5 4.97654,0.437524 6.77344,1.3125 2.35935,1.156272 3.53903,2.953145 3.53906,5.390625 -3e-5,1.718766 -0.96096,3.242202 -2.88281,4.570312 -0.87502,0.609388 -2.63284,1.500012 -5.27344,2.671875 l -7.89844,3.492188 c 0.74999,0.812506 1.65624,1.42188 2.71875,1.828125 1.06249,0.406254 2.28124,0.609379 3.65625,0.609375 2.09373,4e-6 3.86717,-0.429683 5.32031,-1.289063 1.29686,-0.765618 2.33592,-1.14843 3.11719,-1.148437 1.62498,7e-6 2.43748,0.789068 2.4375,2.367187 -2e-5,1.781253 -1.30471,3.234376 -3.91406,4.359375 -2.18752,0.937499 -4.50783,1.406249 -6.96094,1.40625 z m -0.63281,-19.898437 c -1.45314,1.8e-5 -2.69533,0.484393 -3.72656,1.453125 -1.03126,0.968766 -1.85939,2.421889 -2.48438,4.359375 1.76562,-0.765612 3.52343,-1.523423 5.27344,-2.273438 2.10936,-0.953109 3.78904,-1.83592 5.03906,-2.648437 -1.04689,-0.593732 -2.41408,-0.890607 -4.10156,-0.890625 z"
         id="path3003" />
      <path
         d="m -423.65961,43.391747 c -1.64065,6.125014 -3.28909,11.687508 -4.94531,16.6875 -0.46878,1.406252 -1.2344,2.851563 -2.29687,4.335937 -0.75003,1.031249 -1.75003,1.539061 -3,1.523438 -1.96877,-0.03125 -3.51565,-1.929688 -4.64063,-5.695313 -0.42189,-1.437495 -0.92189,-4.11718 -1.5,-8.039062 -0.32814,0.687511 -0.53126,1.148448 -0.60937,1.382812 -0.81252,1.937509 -2.00002,4.945318 -3.5625,9.023438 -0.23439,0.65625 -0.58595,1.179687 -1.05469,1.570312 -0.65626,1.046874 -1.63282,1.593748 -2.92969,1.640625 -0.73438,0.03125 -1.50782,-0.625001 -2.32031,-1.96875 -0.85938,-1.359373 -1.55469,-3.109372 -2.08594,-5.25 -0.48438,-1.937493 -1.23438,-6.156238 -2.25,-12.65625 -0.21875,-1.40623 -0.32813,-2.507792 -0.32812,-3.304687 -10e-6,-0.859353 0.32421,-1.574196 0.97265,-2.144532 0.64844,-0.570288 1.42578,-0.855444 2.33203,-0.855468 1.6875,2.4e-5 2.72656,0.835961 3.11719,2.507812 0.20312,0.875021 0.37499,1.953145 0.51563,3.234375 0.18749,1.843767 0.30467,2.929703 0.35156,3.257813 0.20311,1.218764 0.51561,3.210949 0.9375,5.976562 1.15624,-3.171862 2.48436,-7.117171 3.98437,-11.835937 0.64061,-2.031227 1.84374,-3.046851 3.60938,-3.046875 1.73435,2.4e-5 2.87498,1.132835 3.42187,3.398437 0.39061,1.593769 0.80467,3.66408 1.24219,6.210938 0.6406,3.703136 1.03123,5.906258 1.17188,6.609375 0.1406,-0.484367 1.36716,-5.234362 3.67968,-14.25 0.34373,-1.343727 1.32029,-2.015601 2.92969,-2.015625 0.8906,2.4e-5 1.67575,0.289086 2.35547,0.867187 0.67965,0.578148 1.0195,1.296897 1.01953,2.15625 -3e-5,0.156271 -0.0391,0.382833 -0.11719,0.679688 z"
         id="path3005" />
      <path
         d="m -371.11273,50.258934 c -1.06253,4.656259 -3.20316,8.382818 -6.42188,11.179688 -3.26564,2.812499 -7.09376,4.218748 -11.48437,4.21875 -4.15626,-2e-6 -7.27345,-1.097657 -9.35156,-3.292969 -2.07813,-2.195309 -3.11719,-5.488274 -3.11719,-9.878906 0,-3.999985 0.98437,-8.101543 2.95312,-12.304688 1.96875,-4.203097 4.49999,-7.609344 7.59375,-10.21875 2.17186,-1.828089 4.49999,-2.742151 6.98438,-2.742187 1.5156,3.6e-5 3.5781,0.546911 6.1875,1.640625 3.09372,1.296908 4.64059,2.67972 4.64062,4.148437 -3e-5,0.84378 -0.32034,1.597686 -0.96093,2.261719 -0.64066,0.66409 -1.42972,0.996121 -2.36719,0.996094 -0.46878,2.7e-5 -1.50393,-0.441379 -3.10547,-1.324219 -1.60158,-0.882783 -3.06643,-1.324189 -4.39453,-1.324219 -1.40627,3e-5 -3.3047,1.515654 -5.69531,4.546875 -3.48439,4.406271 -5.22657,9.179704 -5.22657,14.320313 0,2.609383 0.38281,4.382819 1.14844,5.320312 0.81249,0.98438 2.3828,1.476567 4.71094,1.476563 2.39061,4e-6 4.49217,-0.679683 6.30469,-2.039063 1.92185,-1.437492 3.34372,-3.53124 4.26562,-6.28125 -3.62502,0.281263 -6.78127,1.02345 -9.46875,2.226563 -0.48439,0.21876 -0.96876,0.328135 -1.45312,0.328125 -0.96877,10e-6 -1.77345,-0.359365 -2.41407,-1.078125 -0.57813,-0.640613 -0.86719,-1.367175 -0.86718,-2.179688 -10e-6,-2.390609 2.82811,-4.062482 8.48437,-5.015625 3.18748,-0.531231 6.90623,-0.796855 11.15625,-0.796875 0.93747,2e-5 1.72263,0.304707 2.35547,0.914063 0.63278,0.609393 0.94919,1.359392 0.94922,2.25 -3e-5,1.14064 -0.46878,2.023451 -1.40625,2.648437 z"
         id="path3007" />
      <path
         d="m -347.15961,65.587059 c -0.71877,-2e-6 -1.85939,-0.781251 -3.42187,-2.34375 -1.43752,0.6875 -2.70314,1.207031 -3.79688,1.558594 -1.09376,0.351561 -2.02345,0.527342 -2.78906,0.527344 -3.76563,-2e-6 -6.58985,-1.007813 -8.47266,-3.023438 -1.88281,-2.015621 -2.82422,-5.031243 -2.82421,-9.046875 -10e-6,-3.76561 1.39062,-6.988263 4.17187,-9.667969 2.78124,-2.679664 6.10936,-4.019507 9.98438,-4.019531 1.48435,2.4e-5 3.2031,0.421899 5.15625,1.265625 2.35935,1.015647 3.53903,2.195334 3.53906,3.539063 -3e-5,0.562519 -0.17971,1.054706 -0.53906,1.476562 -0.15628,0.625018 -0.27737,1.410173 -0.36329,2.355469 -0.086,0.945327 -0.12893,2.050795 -0.1289,3.316406 -3e-5,2.984385 0.21091,5.13282 0.63281,6.445313 0.0469,0.14063 0.40623,0.95313 1.07813,2.4375 0.60935,1.343752 0.91403,2.109376 0.91406,2.296875 -3e-5,0.828125 -0.31643,1.515624 -0.94922,2.0625 -0.63284,0.546873 -1.36331,0.82031 -2.19141,0.820312 z m -5.8125,-16.078125 c -1e-5,-0.499985 0.0351,-1.074203 0.10547,-1.722656 0.0703,-0.648421 0.17577,-1.371076 0.31641,-2.167969 -0.31252,-0.156231 -0.58986,-0.269513 -0.83203,-0.339844 -0.24221,-0.07029 -0.44924,-0.10545 -0.6211,-0.105468 -2.12501,1.8e-5 -3.98438,0.832049 -5.57812,2.496093 -1.59376,1.664077 -2.39063,3.589857 -2.39063,5.777344 0,2.093759 0.37499,3.667976 1.125,4.722656 0.74999,1.054693 1.87499,1.582036 3.375,1.582032 0.96874,4e-6 1.88671,-0.160152 2.75391,-0.480469 0.86717,-0.320308 1.68358,-0.792963 2.44922,-1.417969 -0.46877,-3.71874 -0.70314,-6.499987 -0.70313,-8.34375 z"
         id="path3009" />
      <path
         d="m -334.59711,43.297997 c 2.35937,-2.734352 4.59374,-4.101538 6.70313,-4.101563 2.40623,2.5e-5 4.17185,0.914086 5.29687,2.742188 0.95311,-0.843728 2.00779,-1.476539 3.16407,-1.898438 1.15622,-0.421851 2.40622,-0.632788 3.75,-0.632812 3.06247,2.4e-5 5.14059,1.52346 6.23437,4.570312 0.21872,0.625019 0.55465,2.742205 1.00781,6.351563 0.43747,2.531261 0.99997,6.750006 1.6875,12.65625 0.0625,0.890625 -0.24222,1.624999 -0.91406,2.203125 -0.67191,0.578123 -1.46097,0.867185 -2.36719,0.867187 -1.7969,-2e-6 -2.85159,-0.890626 -3.16406,-2.671875 -0.28128,-1.609373 -0.57034,-3.882808 -0.86719,-6.820312 -0.31253,-3.21874 -0.57034,-5.499988 -0.77343,-6.84375 -0.42191,-2.796858 -0.96097,-4.195294 -1.61719,-4.195313 -0.3594,1.9e-5 -1.17971,0.359393 -2.46094,1.078125 -1.28127,0.718767 -2.21877,1.335954 -2.8125,1.851563 -2e-5,1.781263 0.21092,4.343761 0.63281,7.6875 0.43748,3.421879 0.65623,5.984376 0.65625,7.6875 -2e-5,0.890624 -0.30471,1.632811 -0.91406,2.226562 -0.6094,0.593747 -1.38283,0.890622 -2.32031,0.890625 -0.93752,-3e-6 -1.71096,-0.296878 -2.32031,-0.890625 -0.6094,-0.593751 -0.91408,-1.335938 -0.91407,-2.226562 -1e-5,-1.781248 -0.19142,-4.40234 -0.57422,-7.863282 -0.38282,-3.460926 -0.57423,-6.082017 -0.57421,-7.863281 -2e-5,-0.999983 -0.086,-1.796857 -0.25782,-2.390625 -1.81251,1.046892 -3.63282,2.789078 -5.46093,5.226563 -0.0781,0.109388 -0.21095,0.27345 -0.39844,0.492187 -0.0625,3.156259 -0.0938,5.632819 -0.0937,7.429688 -10e-6,0.437504 -0.0156,1.027347 -0.0469,1.769531 -0.0313,0.74219 -0.0469,1.292971 -0.0469,1.652344 -10e-6,0.84375 -0.34376,1.507812 -1.03125,1.992187 -0.62501,0.453124 -1.39845,0.679687 -2.32031,0.679688 -1.32813,-10e-7 -2.22657,-0.578126 -2.69532,-1.734375 -0.32812,-0.781249 -0.49219,-2.023435 -0.49218,-3.726563 l 0,-8.71875 c -10e-6,-0.781236 -0.0313,-1.925766 -0.0937,-3.433594 -0.0625,-1.507794 -0.0938,-2.652324 -0.0937,-3.433593 -1e-5,-1.390604 0.24999,-2.648415 0.75,-3.773438 0.60937,-1.406225 1.46874,-2.109349 2.57812,-2.109375 0.87499,2.6e-5 1.65624,0.339869 2.34375,1.019531 0.68749,0.679712 1.03124,1.425805 1.03125,2.238282 -10e-6,-0.328102 -0.0703,0.343772 -0.21094,2.015625 z"
         id="path3011" />
      <path
         d="m -291.54242,65.118309 c -3.73438,-10e-7 -6.78907,-0.890625 -9.16406,-2.671875 -2.625,-1.968746 -3.9375,-4.742181 -3.9375,-8.320312 0,-3.953112 1.03906,-7.296858 3.11719,-10.03125 2.31249,-3.031228 5.42967,-4.546851 9.35156,-4.546875 2.71873,2.4e-5 4.97654,0.437524 6.77344,1.3125 2.35935,1.156272 3.53903,2.953145 3.53906,5.390625 -3e-5,1.718766 -0.96096,3.242202 -2.88281,4.570312 -0.87502,0.609388 -2.63284,1.500012 -5.27344,2.671875 l -7.89844,3.492188 c 0.74999,0.812506 1.65624,1.42188 2.71875,1.828125 1.06249,0.406254 2.28124,0.609379 3.65625,0.609375 2.09373,4e-6 3.86717,-0.429683 5.32031,-1.289063 1.29686,-0.765618 2.33592,-1.14843 3.11719,-1.148437 1.62498,7e-6 2.43748,0.789068 2.4375,2.367187 -2e-5,1.781253 -1.30471,3.234376 -3.91406,4.359375 -2.18752,0.937499 -4.50783,1.406249 -6.96094,1.40625 z m -0.63281,-19.898437 c -1.45314,1.8e-5 -2.69533,0.484393 -3.72656,1.453125 -1.03126,0.968766 -1.85939,2.421889 -2.48438,4.359375 1.76562,-0.765612 3.52343,-1.523423 5.27344,-2.273438 2.10936,-0.953109 3.78904,-1.83592 5.03906,-2.648437 -1.04689,-0.593732 -2.41408,-0.890607 -4.10156,-0.890625 z"
         id="path3013" />
      <path
         d="m -260.04242,46.883934 c -1.54689,1.7e-5 -2.47658,-0.64842 -2.78906,-1.945312 -0.62502,-0.109356 -1.26564,-0.164044 -1.92188,-0.164063 -3.76563,1.9e-5 -5.64844,0.515644 -5.64843,1.546875 -10e-6,0.609392 1.1328,1.429704 3.39843,2.460938 3.09374,1.421888 5.18749,2.531262 6.28125,3.328125 2.26561,1.640635 3.39842,3.492195 3.39844,5.554687 -2e-5,2.687504 -1.25002,4.726564 -3.75,6.117188 -2.01564,1.109374 -4.4922,1.664061 -7.42969,1.664062 -2.07813,-10e-7 -3.97657,-0.320314 -5.69531,-0.960937 -2.34375,-0.875 -3.51563,-2.164061 -3.51562,-3.867188 -10e-6,-1.562495 0.92968,-2.343744 2.78906,-2.34375 0.71874,6e-6 1.7578,0.226568 3.11719,0.679688 1.35936,0.453129 2.40624,0.679691 3.14062,0.679687 3.17186,4e-6 4.76561,-0.64062 4.78125,-1.921875 -1e-5,-0.796868 -1.10158,-1.679679 -3.30469,-2.648437 -3.21876,-1.421865 -5.28125,-2.445302 -6.1875,-3.070313 -2.20313,-1.546861 -3.30469,-3.429672 -3.30468,-5.648437 -10e-6,-3.140605 1.66405,-5.25779 4.99218,-6.351563 1.95312,-0.6406 4.92187,-0.960912 8.90625,-0.960937 1.56249,2.5e-5 2.71873,0.203149 3.46875,0.609375 1.03123,0.546898 1.54686,1.55471 1.54688,3.023437 -2e-5,2.812519 -0.75783,4.218767 -2.27344,4.21875 z"
         id="path3015" />
      <path
         d="m -234.09711,45.055809 c 3.21873,1.796892 4.8281,4.671889 4.82813,8.625 -3e-5,3.187507 -1.17971,5.890629 -3.53906,8.109375 -2.3594,2.21875 -5.22658,3.328124 -8.60157,3.328125 -2.51563,-10e-7 -4.78126,-0.507813 -6.79687,-1.523437 -2.32813,-1.187499 -3.89844,-2.874997 -4.71094,-5.0625 -0.125,-0.32812 -0.1875,-0.679682 -0.1875,-1.054688 0,-0.874993 0.35156,-1.601554 1.05469,-2.179687 0.65624,-0.531241 1.40624,-0.796866 2.25,-0.796875 0.98437,9e-6 1.77343,0.390634 2.36719,1.171875 0.99999,1.343757 1.57811,2.078131 1.73437,2.203125 0.96874,0.781255 2.39843,1.17188 4.28906,1.171875 1.48436,5e-6 2.78514,-0.445308 3.90235,-1.335938 1.11717,-0.890618 1.67576,-1.960929 1.67578,-3.210937 -2e-5,-3.890612 -2.61721,-6.093735 -7.85156,-6.609375 -2.29689,-0.218734 -3.44533,-1.179671 -3.44532,-2.882813 -1e-5,-1.296855 0.89062,-2.242166 2.67188,-2.835937 1.68749,-0.374978 3.36717,-0.75779 5.03906,-1.148438 1.06248,-0.328102 1.85936,-0.757789 2.39063,-1.289062 0.53123,-0.531226 0.80466,-1.164038 0.82031,-1.898438 0.0625,-2.328096 -1.75783,-3.492158 -5.46094,-3.492187 -1.21876,2.9e-5 -2.5547,0.464873 -4.00781,1.394531 -1.45314,0.929715 -2.44532,1.394558 -2.97656,1.394531 -0.89064,2.7e-5 -1.64845,-0.320285 -2.27344,-0.960937 -0.62501,-0.640597 -0.93751,-1.367159 -0.9375,-2.179688 -1e-5,-1.328094 1.31249,-2.648405 3.9375,-3.960937 2.34374,-1.17184 4.24999,-1.757777 5.71875,-1.757813 3.54686,3.6e-5 6.39842,0.76566 8.55469,2.296875 2.35935,1.687532 3.53903,4.093779 3.53906,7.21875 -3e-5,1.718775 -0.33206,3.183617 -0.9961,4.394531 -0.66408,1.210958 -1.66017,2.167989 -2.98828,2.871094 z"
         id="path3017" />
    </g>
  </g>
</svg>
