<?xml version="1.0" encoding="UTF-8" standalone="no"?>
<!-- Created with Inkscape (http://www.inkscape.org/) -->

<svg
   xmlns:dc="http://purl.org/dc/elements/1.1/"
   xmlns:cc="http://creativecommons.org/ns#"
   xmlns:rdf="http://www.w3.org/1999/02/22-rdf-syntax-ns#"
   xmlns:svg="http://www.w3.org/2000/svg"
   xmlns="http://www.w3.org/2000/svg"
   version="1.1"
   width="598.125"
   height="83.46875"
   id="svg2">
  <defs
     id="defs4" />
  <metadata
     id="metadata7">
    <rdf:RDF>
      <cc:Work
         rdf:about="">
        <dc:format>image/svg+xml</dc:format>
        <dc:type
           rdf:resource="http://purl.org/dc/dcmitype/StillImage" />
        <dc:title></dc:title>
      </cc:Work>
    </rdf:RDF>
  </metadata>
  <g
     transform="translate(290.21875,6.1875)"
     id="layer1">
    <path
       d="m -217.625,-6.1875 c -3.4111,1.37e-4 -7.27942,1.2880443 -10.3125,3.40625 -3.79704,-1.302501 -7.24846,-1.4999715 -11.03125,-1.5 -2.09821,6.13e-5 -4.82198,0.062087 -8.4375,0.15625 -3.50405,0.091361 -6.1239,0.1250482 -7.78125,0.125 -1.02243,3.32e-5 -3.3551,-0.1192654 -6.46875,-0.3125 -3.38502,-0.209963 -5.95282,-0.2811828 -8,-0.28125 -3.80703,4.25e-5 -8.01896,0.3566047 -12.46875,3.34375 -4.44979,2.9871453 -7.40625,9.4129389 -7.40625,14.1875 0,4.580177 2.44921,10.240083 6.21875,13.375 l 0,0.03125 c 0.005,0.0044 0.0259,-0.0044 0.0312,0 2.50412,2.069563 5.6491,3.335479 8.65625,3.84375 -2.25025,2.990773 -4.51211,5.980473 -6.75,8.96875 -0.0399,0.05324 -0.0851,0.103008 -0.125,0.15625 -2.12735,2.742364 -3.24513,4.134668 -4.46875,6.03125 a 12.729195,12.729195 0 0 0 -0.0625,0.0625 c -2.21099,3.474427 -4.1875,7.424279 -4.1875,12.84375 0,4.56084 2.5087,10.385917 6.5,13.53125 l 0,0.03125 c 0.0297,0.02337 0.0639,0.03937 0.0937,0.0625 0.0114,0.0089 0.0198,0.02243 0.0312,0.03125 3.45281,2.657545 7.88769,3.781245 11.5,3.78125 3.81369,-2e-6 9.20664,-0.104691 16.375,-0.28125 7.06884,-0.174112 12.333,-0.250001 15.71875,-0.25 0.14319,0 1.03849,0.05001 2.28125,0.125 1.476,0.08907 2.62767,0.124996 3.84375,0.125 1.8951,-3e-6 3.96408,-0.305052 5.96875,-0.96875 2.7179,1.479276 5.82189,2.374994 8.625,2.375 4.1878,-9e-6 9.14802,-1.884637 12.28125,-4.9375 3.03272,-2.955002 5.21872,-8.051845 5.21875,-12.375 -1e-5,-1.218062 0.10292,-3.282053 0.21875,-5.3125 0.85342,-0.157087 1.7096,-0.312784 2.5625,-0.46875 0.0626,1.678397 0.15623,3.699257 0.15625,4.46875 -1.4e-4,4.565698 2.51114,9.906262 5.84375,12.8125 3.22682,2.814203 7.92536,4.437494 11.96875,4.4375 2.91712,-4e-6 6.17856,-0.939263 8.96875,-2.53125 2.39689,1.095446 5.03598,1.781248 7.5625,1.78125 5.74442,-3e-6 12.3949,-4.106467 15.15625,-8.625 a 12.729195,12.729195 0 0 0 0.4375,-0.78125 c 1.15431,-2.237748 1.6729,-3.47083 2.5625,-5.28125 0.10855,0.252645 0.20113,0.531849 0.3125,0.78125 0.0169,0.03789 0.0143,0.08718 0.0312,0.125 l 0.0312,0 c 1.22614,2.791269 2.53748,5.325365 4.75,7.90625 2.24688,2.620961 6.23932,5.907429 11.96875,6.125 4.27898,0.155601 9.33223,-1.775361 12.40625,-4.53125 0.77559,-0.695391 1.49795,-1.52745 2.15625,-2.4375 0.98824,1.494156 2.11683,2.896217 3.4375,3.9375 A 12.729195,12.729195 0 0 0 -111.15625,72 c 3.54083,2.729436 8.11183,3.937495 12.03125,3.9375 3.748911,-6e-6 7.846571,-1.250034 10.9375,-3.375 a 12.729195,12.729195 0 0 0 0.15625,-0.125 c 0.717281,-0.508627 1.367111,-1.209923 2.03125,-1.90625 1.107303,1.38416 2.292219,2.643855 3.5625,3.5 0.01898,0.01279 0.04345,0.01852 0.0625,0.03125 3.08468,2.06063 7.041914,3.218742 10.6875,3.21875 5.977501,-8e-6 13.147458,-4.29136 16.03125,-9.34375 l 0.03125,0 c 0.0038,-0.0067 -0.0038,-0.02453 0,-0.03125 1.29123,-2.263291 2.384717,-4.706451 3.5,-7.5625 1.132381,-2.903134 3.243588,-7.839272 6.1875,-14.46875 a 12.729195,12.729195 0 0 0 0.03125,-0.03125 c 2.957817,-6.702916 5.109936,-11.847817 6.5625,-15.59375 a 12.729195,12.729195 0 0 0 0.1875,-0.5625 c 0.831866,-2.495758 1.422108,-4.321126 1.90625,-5.9375 0.430964,-1.117412 0.846855,-2.141769 1.125,-2.8125 a 12.729195,12.729195 0 0 0 0.0625,-0.125 c 0.459015,-1.141053 0.831572,-2.121372 1.1875,-3.1875 0.355928,-1.066128 0.968164,-1.395706 0.96875,-5.34375 -2.25e-4,-4.2588629 -1.991471,-9.4857079 -5.40625,-12.6875 -3.351667,-3.1417596 -8.27837,-4.7498499 -12.28125,-4.75 -5.622401,1.607e-4 -12.020527,3.6548236 -15,8 a 12.729195,12.729195 0 0 0 -0.03125,0.0625 c -0.348065,0.5141728 -0.54226,1.0435371 -0.84375,1.5625 -3.237949,-4.51945352 -9.132518,-8.6873675 -14.90625,-8.6875 -5.706016,1.234e-4 -10.271533,3.1160785 -12.9375,5.96875 -0.82008,0.8775118 -1.410103,1.7806654 -2.0625,2.6875 -0.363198,-0.6433315 -0.598448,-1.2243825 -1.125,-1.96875 -0.0203,-0.028862 -0.0419,-0.064966 -0.0625,-0.09375 -3.00991,-4.205372 -9.27634,-7.56234 -14.59375,-7.5625 -3.65344,1.441e-4 -7.9831,1.2700235 -11.1875,3.71875 -0.0113,0.00859 -0.02,0.022615 -0.0312,0.03125 -0.0294,0.022574 -0.0646,0.039728 -0.0937,0.0625 l 0,0.03125 c -0.99511,0.77962553 -1.90083,1.75076821 -2.71875,2.84375 -0.18849,-0.1858664 -0.33027,-0.3811849 -0.53125,-0.5625 -3.21565,-2.9010422 -7.92825,-4.4374229 -11.75,-4.4375 -7.25203,2.774e-4 -8.42226,2.71049125 -9.90625,4.03125 -1.48399,1.3207588 -2.53415,2.5544686 -3.6875,3.96875 -2.30669,2.8285629 -4.81649,6.394553 -7.875,11.03125 -0.88522,1.343093 -1.55549,2.580475 -2.40625,3.90625 0.0607,-0.841397 0.12493,-1.7044 0.125,-2.5625 1e-5,0.201461 0.0129,-0.228523 0.25,-1.09375 a 12.729195,12.729195 0 0 0 0.0312,-0.09375 c 0.28698,-1.076609 0.56224,-2.485089 0.5625,-4.34375 -1.8e-4,-4.7100219 -2.70104,-10.1150876 -5.96875,-12.9375 a 12.729195,12.729195 0 0 0 -0.0625,-0.0625 c -2.86691,-2.4470632 -7.35416,-4.2810671 -11.53125,-4.28125 -4.55658,1.49e-4 -8.81667,2.317946 -11.25,4.6875 -2.43333,2.369554 -3.73851,4.7347852 -4.8125,7.09375 a 12.729195,12.729195 0 0 0 0,0.0625 c -1.5125,3.3610469 -2.66313,6.901324 -2.78125,11.03125 -6.2e-4,0.02175 5.7e-4,0.04072 0,0.0625 -0.026,0.845744 -0.0376,0.76328 -0.0625,1.53125 -0.48361,0.07397 -0.94415,0.138125 -1.4375,0.21875 0.10503,-3.104001 0.15623,-5.753219 0.15625,-7.59375 -7e-5,-4.3231011 -2.07969,-9.3474532 -5.21875,-12.40625 -3.13315,-3.0525672 -8.09372,-4.9373318 -12.28125,-4.9375 z m 210.5,1 c -3.653442,1.441e-4 -7.983121,1.2700472 -11.1875,3.71875 -0.01128,0.00859 -0.01998,0.022615 -0.03125,0.03125 -0.02937,0.022574 -0.06457,0.039728 -0.09375,0.0625 l 0,0.03125 c -3.788847,2.9683907 -6.500007,8.6926309 -6.5,13.34375 -7e-6,2.033771 0.371175,4.143565 1.03125,6 0.0074,0.02091 0.02374,0.04165 0.03125,0.0625 3.505936,9.910376 5.970037,17.408512 7.375,22.40625 0.0059,0.02094 0.0254,0.0729 0.03125,0.09375 1.721436,7.119121 2.959721,12.497157 3.6875,15.9375 a 12.729195,12.729195 0 0 0 0.15625,0.65625 l 1.09375,4.09375 c 0.876623,3.9964 3.1560866,8.167572 6.3125,10.65625 A 12.729195,12.729195 0 0 0 -5.125,72 c 3.5408306,2.729429 8.1118308,3.937495 12.03125,3.9375 3.748911,-6e-6 7.846573,-1.250036 10.9375,-3.375 A 12.729195,12.729195 0 0 0 18,72.4375 c 0.717281,-0.508627 1.367111,-1.209923 2.03125,-1.90625 1.107303,1.38416 2.292219,2.643855 3.5625,3.5 0.01898,0.01279 0.04345,0.01852 0.0625,0.03125 3.08468,2.06063 7.041914,3.218742 10.6875,3.21875 5.977501,-8e-6 13.147458,-4.29136 16.03125,-9.34375 l 0.03125,0 c 0.0038,-0.0067 -0.0038,-0.02453 0,-0.03125 1.169817,-2.050475 2.177425,-4.323901 3.1875,-6.84375 1.094226,2.194493 2.372968,4.311886 4.125,6.1875 5.727339,6.131361 14.11772,8.562497 22.03125,8.5625 2.975742,-5e-6 5.494627,-0.556047 7.96875,-1.34375 1.603612,0.929568 3.562433,1.749994 7.03125,1.75 2.281091,-4e-6 4.620064,-0.543662 6.78125,-1.4375 2.31609,0.973825 4.73686,1.468747 6.8125,1.46875 4.02255,-6e-6 9.03532,-1.722698 12.28125,-4.84375 3.04946,-2.932213 4.91453,-7.489183 5.1875,-11.53125 0.20863,3.456308 1.49767,7.427758 4.09375,10.46875 L 129.875,70.375 c 0.0286,0.03365 0.0648,0.06038 0.0937,0.09375 0.0344,0.03955 0.0589,0.0858 0.0937,0.125 l 0.0312,-0.03125 c 3.2934,3.705869 8.73319,5.687494 12.84375,5.6875 4.02255,-6e-6 9.03532,-1.722698 12.28125,-4.84375 3.29812,-3.171311 5.28122,-8.267681 5.28125,-12.53125 a 12.729195,12.729195 0 0 0 0,-0.03125 l 0,-5.1875 c 0.69383,0.122132 1.32411,0.144784 1.96875,0.1875 0.0298,1.372861 0.0625,3.069992 0.0625,3.71875 -3e-5,4.041569 1.92882,9.337835 5.25,12.53125 3.3504,3.221542 8.28997,4.843747 12.3125,4.84375 3.79232,-3e-6 8.41304,-1.582308 11.65625,-4.375 4.86341,3.401735 10.81538,5.406247 16.6875,5.40625 5.30213,-2e-6 10.6244,-1.747717 15.25,-4.5625 3.33005,3.119279 8.14488,4.843745 11.90625,4.84375 4.02255,-6e-6 8.9621,-1.622243 12.3125,-4.84375 2.70884,-2.604685 4.37873,-6.407733 4.96875,-9.90625 0.81364,2.425843 2.04679,4.731314 3.625,6.46875 2.75214,3.0298 5.90347,4.679799 8.9375,5.8125 4.14992,1.546789 8.55431,2.218747 12.96875,2.21875 6.01603,-3e-6 11.96483,-1.136434 17.28125,-4.0625 a 12.729195,12.729195 0 0 0 0.0625,-0.03125 c 6.76436,-3.762701 12.15619,-12.303405 12.15625,-20.28125 -4e-5,-4.061134 -1.37006,-7.880092 -3.4375,-11.1875 0.11256,-0.179643 0.30886,-0.350892 0.40625,-0.53125 2.25743,-4.180715 2.37498,-7.532658 2.375,-10.78125 -7e-5,-5.24198 -3.29119,-12.657538 -9,-15.75 -0.009,-0.005 -0.0221,0.0049 -0.0312,0 -0.0258,-0.01389 -0.0366,-0.04878 -0.0625,-0.0625 -4.32583,-2.314071 -7.7656,-2.374945 -11.15625,-2.375 -6.65314,4.2e-5 -11.95629,0.295472 -17.34375,2.0625 -1.43233,0.47073 -2.84705,1.261363 -4.25,2 -3.4819,-2.308638 -7.65832,-3.593722 -11.1875,-3.59375 -3.9583,2.9e-5 -7.90114,0.695387 -11.65625,2 -2.33843,-0.929044 -4.73877,-1.374972 -6.78125,-1.375 -3.38379,8.4e-5 -7.74774,1.290083 -11.125,4.03125 C 220.47776,13.567697 215.69845,12.000036 211,12 c -3.7742,2.1e-5 -7.53063,0.902776 -11.125,2.25 0.007,-0.174284 0.0625,-0.359022 0.0625,-0.53125 -6e-5,-4.5780022 -2.34334,-9.9386024 -5.6875,-13.03125 -3.13882,-2.9023669 -8.07049,-4.9060933 -12.53125,-4.90625 -4.46074,1.567e-4 -9.32499,1.9390749 -12.5,4.84375 a 12.729195,12.729195 0 0 0 0,0.03125 c -2.84881,2.6064748 -4.95341,6.8730646 -5.53125,11 -0.71025,-0.08653 -1.4554,-0.249995 -2.125,-0.25 -3.94879,2.9e-5 -7.87792,0.70147 -11.625,2 -2.35209,-0.940659 -4.77957,-1.374971 -6.84375,-1.375 -2.15289,5.3e-5 -4.72842,0.57941 -7.1875,1.65625 -2.9558,-1.464501 -6.14132,-2.281228 -8.9375,-2.28125 -3.94879,2.9e-5 -7.87792,0.70147 -11.625,2 -2.35209,-0.940659 -4.77957,-1.374971 -6.84375,-1.375 -3.09914,7.7e-5 -7.07243,1.123183 -10.28125,3.375 -0.461848,-0.219641 -0.909769,-0.518197 -1.375,-0.71875 -0.0091,-0.0039 -0.02217,0.0039 -0.03125,0 -3.996325,-1.723799 -8.12406,-2.937423 -12.78125,-2.9375 -4.113935,2.6e-5 -8.20179,0.823748 -12.0625,2.28125 0.056,-0.582083 0.156113,-0.828989 0.15625,-1.75 -2.25e-4,-4.2588629 -1.991471,-9.4857079 -5.40625,-12.6875 -3.351667,-3.1417596 -8.27837,-4.7498499 -12.28125,-4.75 -5.622401,1.607e-4 -12.020527,3.6548236 -15,8 a 12.729195,12.729195 0 0 0 -0.03125,0.0625 C 39.058185,3.4204228 38.86399,3.9497871 38.5625,4.46875 35.324551,-0.05070352 29.429982,-4.2186175 23.65625,-4.21875 17.950234,-4.2186266 13.384717,-1.1026715 10.71875,1.75 9.8986704,2.6275118 9.3086467,3.5306654 8.65625,4.4375 8.2930568,3.7941745 8.0577921,3.2131087 7.53125,2.46875 7.5109552,2.4398875 7.4893519,2.4037845 7.46875,2.375 4.4588371,-1.8303847 -1.8075932,-5.18734 -7.125,-5.1875 z m -228.4375,42.71875 c -4.3e-4,0.174451 0,0.551561 0,0.71875 0,0.448402 -0.13345,1.837456 -0.15625,2.5 -0.77164,-0.02318 -1.65035,-0.03463 -2.5,-0.03125 0.88601,-1.053066 1.86421,-2.321628 2.65625,-3.1875 z m 444,3.75 c 1.25875,-5e-6 3.47594,0.897397 4.3125,1.6875 0.66367,0.640446 1.0515,1.434011 1.28125,2.03125 -0.0803,0.05697 -0.22277,0.140048 -0.34375,0.21875 -0.89421,0.58172 -2.42163,1.490259 -3.21875,1.5 -0.55977,-0.0031 -1.57315,-0.53864 -2.5,-1 l -0.65625,-0.75 -0.0312,0 -2.1875,-2.375 c 0.58283,-0.537292 2.55431,-1.312503 3.34375,-1.3125 z m -3.46875,1.40625 2.15625,2.25 -0.625,0 0.625,0.03125 0.625,0.65625 c -0.50276,-0.261924 -0.76565,-0.368741 -1.25,-0.6875 l -0.0312,0 c -0.82702,-0.546257 -1.41541,-1.102853 -1.875,-1.625 0.17194,-0.303756 0.12541,-0.389086 0.375,-0.625 z M 81.9375,43 c 0.193295,0.09888 0.308639,0.263961 0.5,0.375 0.792249,0.459708 1.598971,0.950502 2.0625,1.5625 0.02015,0.0266 0.07469,0.0357 0.09375,0.0625 0.200581,0.282062 0.135838,0.270642 0.25,0.46875 -0.131159,0.05826 -0.302922,0.125 -0.34375,0.125 -1.412567,-1.53e-4 -2.139104,-0.20273 -2.625,-0.34375 -0.157085,-0.04562 -0.192621,-0.08118 -0.3125,-0.125 L 81.15625,44.625 81.9375,43 z"
       id="path3209"
       style="font-size:72px;font-style:normal;font-variant:normal;font-weight:bold;font-stretch:normal;line-height:125%;letter-spacing:0px;word-spacing:0px;fill:#ffffff;fill-opacity:1;stroke:none;font-family:Comic Sans MS;-inkscape-font-specification:Comic Sans MS Bold" />
    <path
       d="m -217.625,0.875 c -2.61633,1.0509e-4 -5.44339,1.085957 -7.34375,2.9375 -0.61542,0.5996685 -1.01986,1.4216999 -1.46875,2.1875 -0.77035,-0.6714354 -1.5702,-1.2608063 -2.40625,-1.625 -3.01233,-1.3122033 -6.22366,-1.5937206 -10.125,-1.59375 -1.93516,5.65e-5 -4.64443,0.062346 -8.25,0.15625 -3.55607,0.092718 -6.22956,0.1250506 -7.96875,0.125 -1.35286,4.39e-5 -3.73856,-0.1159117 -6.90625,-0.3125 -3.28832,-0.2039646 -5.75421,-0.2811906 -7.5625,-0.28125 -3.01363,3.36e-5 -5.8588,0.383209 -8.5,2.15625 -2.6412,1.773041 -4.3125,5.2985601 -4.3125,8.3125 0,2.86085 1.39344,6.048476 3.65625,7.9375 0.011,0.0091 0.0202,0.02221 0.0312,0.03125 2.02042,1.660493 4.69002,2.468826 7.125,2.46875 0.6587,1.1e-4 1.04305,-0.02758 1.53125,-0.0625 0.25903,-0.01848 0.40284,-0.0312 0.71875,-0.03125 l 9.1875,0 c -1.32697,1.576735 -2.63414,3.056397 -4,4.8125 a 5.6574198,5.6574198 0 0 0 -0.0312,0.0625 c -3.85903,5.098598 -7.70269,10.200067 -11.53125,15.3125 -0.0175,0.02334 -0.045,0.03916 -0.0625,0.0625 -2.15662,2.783094 -3.37881,4.402803 -4.1875,5.65625 a 5.6574198,5.6574198 0 0 0 -0.0312,0.03125 c -1.80297,2.833256 -3.09375,5.685099 -3.09375,9.03125 0,2.868977 1.43262,6.135932 3.8125,8 0.0229,0.01792 0.0394,0.04484 0.0625,0.0625 l 0.0312,-0.03125 c 2.07775,1.598533 4.71597,2.343747 7.15625,2.34375 3.67413,-2e-6 9.03671,-0.105124 16.1875,-0.28125 7.10654,-0.17504 12.42229,-0.250001 15.90625,-0.25 0.44122,-10e-7 1.41119,0.0461 2.71875,0.125 1.41118,0.08516 2.48814,0.124997 3.40625,0.125 2.32453,-3e-6 4.79953,-0.763458 6.78125,-2.21875 0.17753,0.20759 0.27718,0.500848 0.46875,0.6875 1.90035,1.851628 4.72731,2.937494 7.34375,2.9375 2.61644,-6e-6 5.44338,-1.085881 7.34375,-2.9375 1.85568,-1.808127 3.09373,-4.674952 3.09375,-7.3125 -1e-5,-1.880485 0.11808,-4.456462 0.34375,-7.625 9.2e-4,-0.01296 -9.3e-4,-0.01827 0,-0.03125 0.12415,-1.646108 0.13719,-2.38045 0.21875,-3.625 3.04278,-0.566559 6.08507,-1.133336 9.125,-1.6875 2.85167,-0.518478 4.71122,-0.599829 7,-0.875 0.0334,1.551894 0.0261,2.87237 0.125,5.09375 0.15152,3.404253 0.24997,5.941697 0.25,7.4375 -9e-5,2.732325 1.39642,5.688807 3.4375,7.46875 1.99402,1.739038 4.74718,2.718746 7.3125,2.71875 2.61644,-4e-6 5.44341,-1.085987 7.34375,-2.9375 0.46688,-0.454938 0.74711,-1.120087 1.125,-1.6875 0.32532,0.389513 0.53181,0.899629 0.90625,1.21875 1.95315,1.664632 4.59869,2.656248 7.15625,2.65625 3.56869,-2e-6 7.29356,-2.304263 9.09375,-5.25 a 5.6574198,5.6574198 0 0 0 0.21875,-0.34375 c 2.00781,-3.892342 3.1447,-6.389426 4.3125,-8.9375 1.52078,-0.186502 2.81157,-0.36745 5.15625,-0.53125 0.0139,-9.08e-4 0.0174,9.08e-4 0.0312,0 1.77288,-0.116297 2.61065,-0.255143 3.96875,-0.375 0.65835,2.040479 1.3545,3.99252 2.15625,5.78125 0.006,0.01364 0.0253,0.01764 0.0312,0.03125 1.06756,2.436689 2.14794,4.459324 3.65625,6.21875 1.51673,1.769255 3.81425,3.540021 6.875,3.65625 2.61789,0.0952 5.50483,-0.986098 7.4375,-2.71875 2.04858,-1.836745 3.40615,-4.846105 3.40625,-7.625 -1.3e-4,-2.527717 -0.69752,-4.384892 -1.6875,-6.75 a 5.6574198,5.6574198 0 0 0 0,-0.03125 c -1.01561,-2.400398 -1.67473,-4.355338 -1.53125,-3.78125 -2.0405,-8.60457 -3.774,-16.234725 -5.1875,-22.90625 -0.005,-0.02685 0.005,-0.03572 0,-0.0625 -0.99689,-4.962045 -1.73034,-8.710193 -2.1875,-11.15625 a 5.6574198,5.6574198 0 0 0 -0.125,-0.5 c -0.62666,-2.252426 -1.68768,-4.436668 -3.59375,-6.15625 -1.90607,-1.719582 -4.58531,-2.6249513 -7,-2.625 -3.41193,1.305e-4 -4.21333,1.3551721 -5.21875,2.25 -1.00542,0.8948279 -1.89127,1.9116325 -2.90625,3.15625 -2.02997,2.489235 -4.45056,5.909311 -7.4375,10.4375 -3.71843,5.641761 -7.017,11.097487 -10.125,16.40625 -0.003,0.0045 -0.0286,-0.0045 -0.0312,0 -0.71961,0.323201 -1.40757,0.736784 -2.125,1.28125 -1.43486,1.088932 -2.95847,3.157651 -3.15625,5.53125 a 5.6574198,5.6574198 0 0 0 -0.0312,0.0625 c -0.0499,0.673545 0.0418,1.271911 0.125,1.875 -0.32257,0.665854 -0.52539,1.173366 -0.8125,1.78125 -0.0567,-1.189478 -0.18752,-2.845665 -0.1875,-3.5625 -5e-5,-2.04117 0.11239,-5.268296 0.34375,-9.59375 0.23595,-4.41331 0.37494,-7.754089 0.375,-10.21875 -2e-5,-0.319042 0.0372,-1.265351 0.15625,-2.53125 0.13797,-1.468086 0.21867,-2.569915 0.21875,-3.5625 -2e-5,-0.613561 0.13419,-1.633657 0.5,-2.96875 a 5.6574198,5.6574198 0 0 0 0,-0.03125 c 0.1796,-0.673778 0.3436,-1.509839 0.34375,-2.53125 -1.1e-4,-2.8355019 -1.50605,-5.8445238 -3.53125,-7.59375 a 5.6574198,5.6574198 0 0 0 0,-0.03125 c -1.80806,-1.5432828 -4.42219,-2.5936385 -6.96875,-2.59375 -2.4874,8.13e-5 -4.81706,1.2312617 -6.3125,2.6875 -1.49544,1.4562383 -2.4706,3.1195547 -3.3125,4.96875 a 5.6574198,5.6574198 0 0 0 0,0.03125 c -1.25715,2.793614 -2.07719,5.504407 -2.15625,8.34375 -2.9e-4,0.01033 2.7e-4,0.02092 0,0.03125 -0.12717,4.135445 -0.19453,5.384396 -0.28125,7.5625 -2.82819,0.285114 -5.83223,0.690329 -9.15625,1.28125 a 5.6574198,5.6574198 0 0 0 -0.0312,0 l -6.40625,1.1875 c -1e-5,-1.59097 0.0901,-4.24527 0.21875,-7.8125 0.13033,-3.614087 0.18748,-6.344723 0.1875,-8.25 -4e-5,-2.6374955 -1.19081,-5.489464 -3.09375,-7.34375 -1.90033,-1.8514581 -4.72742,-2.93739491 -7.34375,-2.9375 z m 104.46875,1 c -2.38605,9.41e-5 -4.94713,0.7660455 -6.90625,2.28125 -0.0111,0.0086 -0.0202,0.022601 -0.0312,0.03125 -2.29481,1.7664083 -3.8125,4.9540336 -3.8125,7.8125 0,1.229333 0.24609,2.475435 0.65625,3.625 l -0.0312,0 c 3.58272,10.124121 6.1405,17.879312 7.625,23.1875 0.012,0.04298 0.0506,0.144845 0.0625,0.1875 1.71641,7.101957 2.94133,12.503961 3.6875,16.03125 a 5.6574198,5.6574198 0 0 0 0.0625,0.3125 l 1.09375,4.09375 0.125,-0.03125 c 0.41695,2.635059 1.66385,5.292675 3.75,6.9375 a 5.6574198,5.6574198 0 0 0 0.0312,0.03125 c 2.19869,1.694852 5.02625,2.499997 7.71875,2.5 2.421379,-4e-6 4.938741,-0.782134 6.9375,-2.15625 a 5.6574198,5.6574198 0 0 0 0.0625,-0.03125 c 2.457025,-1.742288 4.312442,-5.051573 4.3125,-8.1875 -1.6e-5,-0.356323 -0.18013,-0.72837 -0.21875,-1.09375 0.466827,-1.632515 1.325469,-3.835593 2.40625,-6.4375 0.177225,0.891556 0.496343,2.65803 0.65625,3.4375 l -0.03125,0 c 0.0094,0.05714 0.05263,0.130183 0.0625,0.1875 0.0015,0.0087 -0.0015,0.02257 0,0.03125 0.371637,2.14329 1.140205,4.457813 2.15625,7.0625 0.559786,2.627632 2.258651,5.085408 4.3125,6.46875 0.01142,0.0077 0.0198,0.02359 0.03125,0.03125 1.967496,1.315447 4.391252,2.031245 6.75,2.03125 3.898385,-5e-6 8.009151,-2.46692 9.90625,-5.78125 0.0059,-0.01034 0.02534,-0.02088 0.03125,-0.03125 1.03871,-1.822746 2.037078,-3.999068 3.0625,-6.625 1.219394,-3.126215 3.319166,-8.110849 6.28125,-14.78125 a 5.6574198,5.6574198 0 0 0 0.03125,0 c 2.929132,-6.637913 5.049691,-11.73356 6.4375,-15.3125 a 5.6574198,5.6574198 0 0 0 0.09375,-0.25 c 0.83404,-2.502281 1.40356,-4.308666 1.84375,-5.78125 0.03417,-0.08914 0.06021,-0.131485 0.09375,-0.21875 0.01595,-0.05387 0.04707,-0.166129 0.0625,-0.21875 0.446758,-1.159068 0.869329,-2.232749 1.1875,-3 A 5.6574198,5.6574198 0 0 0 -42.625,18.1875 c 0.431851,-1.073528 0.787665,-1.989273 1.0625,-2.8125 0.274835,-0.823227 0.593469,-1.202332 0.59375,-3.09375 -1.4e-4,-2.661029 -1.149028,-5.6199215 -3.1875,-7.53125 -2.010502,-1.8845893 -4.86421,-2.8436535 -7.4375,-2.84375 -3.540549,1.012e-4 -7.207076,2.0948816 -9.15625,4.9375 A 5.6574198,5.6574198 0 0 0 -60.78125,6.875 c -1.549466,2.2889178 -2.558735,4.913921 -3.34375,7.9375 -0.0026,0.01004 0.0026,0.02121 0,0.03125 -0.94091,3.57419 -1.770532,6.183008 -1.625,5.8125 a 5.6574198,5.6574198 0 0 0 -0.03125,0.03125 c -1.242116,3.240569 -1.849909,4.62298 -2.9375,7.40625 -0.0974,-0.622836 -0.535247,-2.458288 -0.59375,-2.9375 -0.469151,-3.752808 -0.770706,-6.047332 -0.9375,-7.1875 a 5.6574198,5.6574198 0 0 0 0,-0.0625 c -0.520732,-3.322425 -0.976831,-5.634167 -1.90625,-7.8125 -0.0087,-0.02072 -0.02238,-0.04181 -0.03125,-0.0625 -1.625452,-3.7934983 -5.82364,-7.1873999 -10.1875,-7.1875 -3.2131,6.95e-5 -5.898893,1.7380056 -7.75,3.71875 -1.84246,1.9714921 -3.24071,4.374438 -4.5625,7.25 -0.0041,0.0089 0.0041,0.02238 0,0.03125 -0.0021,0.0046 -0.02912,-0.0046 -0.03125,0 -1.023245,2.221855 -2.183483,5.70721 -3.46875,9.71875 -1.162723,-4.211655 -2.29992,-8.062622 -3.375,-11.15625 -0.81879,-2.353945 -1.43985,-4.0731043 -2.71875,-5.875 -0.008,-0.011805 -0.0229,-0.019475 -0.0312,-0.03125 -1.91897,-2.7016151 -5.48932,-4.6248991 -8.84375,-4.625 z m 106.03125,0 c -2.3860457,9.41e-5 -4.947137,0.7660563 -6.90625,2.28125 -0.01112,0.0086 -0.02017,0.022601 -0.03125,0.03125 -2.294803,1.766404 -3.812504,4.954016 -3.8125,7.8125 -4e-6,1.229364 0.2461,2.475455 0.65625,3.625 l -0.03125,0 c 3.582719,10.124122 6.140498,17.879309 7.625,23.1875 0.01202,0.04298 0.050621,0.144845 0.0625,0.1875 1.7164062,7.101956 2.9413276,12.503959 3.6875,16.03125 a 5.6574198,5.6574198 0 0 0 0.0625,0.3125 l 1.09375,4.09375 0.125,-0.03125 c 0.4169489,2.635062 1.6638568,5.292678 3.75,6.9375 A 5.6574198,5.6574198 0 0 0 -0.8125,66.375 c 2.1986926,1.694849 5.0262545,2.499997 7.71875,2.5 2.4213785,-4e-6 4.938742,-0.782135 6.9375,-2.15625 a 5.6574198,5.6574198 0 0 0 0.0625,-0.03125 C 16.363275,64.945212 18.218692,61.635927 18.21875,58.5 18.218734,58.143677 18.03862,57.77163 18,57.40625 c 0.466827,-1.632515 1.325469,-3.835593 2.40625,-6.4375 0.177225,0.891556 0.496343,2.65803 0.65625,3.4375 l -0.03125,0 c 0.0094,0.05714 0.05263,0.130183 0.0625,0.1875 0.0015,0.0087 -0.0015,0.02257 0,0.03125 0.371637,2.14329 1.140205,4.457813 2.15625,7.0625 0.559786,2.627632 2.258651,5.085408 4.3125,6.46875 0.01142,0.0077 0.0198,0.02359 0.03125,0.03125 1.967496,1.315447 4.391252,2.031245 6.75,2.03125 3.898385,-5e-6 8.009151,-2.46692 9.90625,-5.78125 0.0059,-0.01034 0.02534,-0.02088 0.03125,-0.03125 1.03871,-1.822746 2.037078,-3.999068 3.0625,-6.625 C 48.563144,54.655035 50.662916,49.670401 53.625,43 a 5.6574198,5.6574198 0 0 0 0.03125,0 c 2.929132,-6.637913 5.049691,-11.73356 6.4375,-15.3125 a 5.6574198,5.6574198 0 0 0 0.09375,-0.25 c 0.83404,-2.502281 1.40356,-4.308666 1.84375,-5.78125 0.03417,-0.08914 0.06021,-0.131485 0.09375,-0.21875 0.01595,-0.05387 0.04707,-0.166129 0.0625,-0.21875 0.446758,-1.159068 0.869329,-2.232749 1.1875,-3 a 5.6574198,5.6574198 0 0 0 0.03125,-0.03125 c 0.431851,-1.073528 0.787665,-1.989273 1.0625,-2.8125 0.274835,-0.823227 0.593469,-1.202332 0.59375,-3.09375 C 65.06236,9.620221 63.913472,6.6613285 61.875,4.75 59.864498,2.8654107 57.01079,1.9063465 54.4375,1.90625 50.896951,1.9063512 47.230424,4.0011316 45.28125,6.84375 A 5.6574198,5.6574198 0 0 0 45.25,6.875 c -1.549466,2.2889178 -2.558735,4.913921 -3.34375,7.9375 -0.0026,0.01004 0.0026,0.02121 0,0.03125 -0.94091,3.57419 -1.770532,6.183008 -1.625,5.8125 A 5.6574198,5.6574198 0 0 0 40.25,20.6875 c -1.242116,3.240569 -1.849909,4.62298 -2.9375,7.40625 -0.0974,-0.622836 -0.535247,-2.458288 -0.59375,-2.9375 -0.469151,-3.752808 -0.770706,-6.047332 -0.9375,-7.1875 a 5.6574198,5.6574198 0 0 0 0,-0.0625 c -0.520732,-3.322425 -0.976831,-5.634167 -1.90625,-7.8125 -0.0087,-0.02072 -0.02238,-0.04181 -0.03125,-0.0625 -1.625452,-3.7934983 -5.82364,-7.1873999 -10.1875,-7.1875 -3.2131,6.95e-5 -5.898893,1.7380056 -7.75,3.71875 -1.84246,1.9714921 -3.24071,4.374438 -4.5625,7.25 -0.0041,0.0089 0.0041,0.02238 0,0.03125 -0.0021,0.0046 -0.02912,-0.0046 -0.03125,0 C 10.289255,16.065605 9.1290175,19.55096 7.84375,23.5625 6.6810272,19.350845 5.5438268,15.499878 4.46875,12.40625 3.6499543,10.052305 3.028876,8.3331298 1.75,6.53125 1.7416993,6.5194451 1.7271139,6.5117751 1.71875,6.5 -0.20021785,3.7983792 -3.770574,1.8751009 -7.125,1.875 z m 188.84375,0.96875 c -2.81589,9.89e-5 -5.69566,1.1491665 -7.71875,3 -2.0902,1.912395 -3.50002,4.982289 -3.5,7.875 -2e-5,2.743617 1.33623,5.577641 3.25,7.5 -0.18175,0.149311 -0.42498,0.212721 -0.59375,0.375 -0.6021,0.578956 -0.96399,1.382001 -1.40625,2.125 -0.14381,-0.217753 -0.24655,-0.444116 -0.40625,-0.65625 -2.26241,-3.005236 -6.18672,-4.593722 -9.78125,-4.59375 -4.21604,3.1e-5 -8.28629,0.981463 -12.0625,2.75 -1.91237,-1.466542 -4.28169,-2.124971 -6.40625,-2.125 -2.4787,6.1e-5 -5.37843,0.977841 -7.3125,2.96875 -2.31827,-2.321384 -5.66378,-3.593725 -8.8125,-3.59375 -4.21604,3.1e-5 -8.28629,0.981463 -12.0625,2.75 -1.91237,-1.466542 -4.28169,-2.124971 -6.40625,-2.125 -2.57834,6.4e-5 -5.63563,1.030626 -7.5625,3.1875 -0.61488,0.688325 -1.000255,1.557759 -1.40625,2.40625 -1.599697,-1.536766 -3.400271,-2.596114 -5.5,-3.5 -3.407559,-1.472009 -6.688468,-2.374945 -10,-2.375 -7.117724,4.5e-5 -13.792291,2.697815 -18.90625,7.625 -5.127177,4.939977 -7.968752,11.526598 -7.96875,18.5625 -2e-6,6.896554 1.641898,13.039628 5.75,17.4375 4.11449,4.404736 10.188597,6.312498 16.84375,6.3125 1.9822,-3e-6 3.877673,-0.410468 5.90625,-1.0625 0.895254,-0.287765 1.928172,-0.804152 2.875,-1.1875 0.300152,0.234282 0.597019,0.567548 0.90625,0.78125 1.305287,0.902052 2.696579,1.874995 5.3125,1.875 2.48512,-4e-6 4.979032,-0.977788 6.84375,-2.53125 1.89485,1.645811 4.46466,2.562497 6.75,2.5625 2.56904,-4e-6 5.42455,-1.030836 7.375,-2.90625 1.97364,-1.897753 3.12498,-4.769143 3.125,-7.40625 l -0.0312,-16.09375 c 0.34442,-0.572827 0.7259,-1.098336 1.125,-1.53125 0.41043,0.958586 0.93517,1.89756 1.71875,2.71875 2.03297,2.130559 4.94197,2.906267 7.40625,2.90625 1.20415,8e-6 2.48269,-0.282971 3.71875,-0.71875 l 0,12.71875 c 0,2.346863 0.82358,4.927529 2.5,6.875 l -0.0312,0.03125 c 0.0241,0.02837 0.0692,0.03447 0.0937,0.0625 0.005,0.0053 -0.005,0.02599 0,0.03125 1.9032,2.165032 4.96445,3.312496 7.59375,3.3125 2.56904,-4e-6 5.42455,-1.030836 7.375,-2.90625 1.97364,-1.897753 3.12498,-4.769143 3.125,-7.40625 l -0.0312,-16.09375 c 0.34442,-0.572827 0.7259,-1.098336 1.125,-1.53125 0.41043,0.958586 0.93517,1.89756 1.71875,2.71875 2.03297,2.130559 4.94197,2.906267 7.40625,2.90625 1.87289,1.2e-5 3.9255,-0.551381 5.6875,-1.625 0.007,1.443756 0.0494,3.310457 0.125,6.03125 0.0814,2.931808 0.12499,5.066544 0.125,6.28125 -2e-5,2.551462 1.10985,5.498674 3.09375,7.40625 1.99688,1.920077 4.8372,2.906248 7.40625,2.90625 2.56904,-2e-6 5.42456,-1.030868 7.375,-2.90625 1.54383,-1.484474 2.41476,-3.631763 2.78125,-5.78125 0.88787,1.334571 1.91836,2.568471 3.09375,3.6875 4.06626,3.882832 9.45996,6.031247 15.09375,6.03125 6.81107,-2e-6 13.10052,-3.095913 17.28125,-8.375 0.28268,1.860369 0.92894,3.720396 2.21875,5.21875 l -0.0312,0.03125 c 0.0241,0.02837 0.0692,0.03447 0.0937,0.0625 0.005,0.0053 -0.005,0.02599 0,0.03125 1.9032,2.165032 4.96445,3.312496 7.59375,3.3125 2.56904,-4e-6 5.40937,-0.986189 7.40625,-2.90625 2.02007,-1.942401 3.09373,-4.857359 3.09375,-7.40625 l -0.0312,-16.09375 c 0.34894,-0.577851 0.74843,-1.094541 1.15625,-1.53125 0.41755,0.970235 0.9246,1.926513 1.71875,2.75 2.04161,2.117029 4.94197,2.875017 7.40625,2.875 2.5836,1.7e-5 5.57884,-0.970375 7.5625,-3.0625 0.93443,1.21683 1.99215,2.322459 3.21875,3.28125 -1.72338,0.19358 -3.48429,0.627154 -5.09375,1.96875 -2.12676,1.772795 -3.09375,4.671796 -3.09375,6.96875 0,2.58055 1.06871,5.302186 2.78125,7.1875 1.71254,1.885314 3.86248,3.069494 6.1875,3.9375 3.2767,1.221315 6.80625,1.781248 10.5,1.78125 5.1217,-2e-6 9.83245,-0.962548 13.875,-3.1875 a 5.6574198,5.6574198 0 0 0 0.0312,-0.03125 c 5.0897,-2.831164 8.53121,-8.308454 8.53125,-14.09375 -4e-5,-4.515237 -2.44811,-8.571543 -5.9375,-11.625 1.59033,-0.844689 3.00386,-2.055673 3.75,-3.4375 1.31851,-2.441863 1.53123,-4.821799 1.53125,-7.4375 -5e-5,-3.553559 -1.91326,-7.704593 -5.3125,-9.53125 -0.009,-0.0051 -0.0219,0.005 -0.0312,0 C 292.28368,18.215514 289.8111,18.000046 287,18 c -6.27727,4e-5 -11.10298,0.399571 -15.125,1.71875 a 5.6574198,5.6574198 0 0 0 -0.0312,0 c -2.77133,0.910784 -5.17617,2.463838 -7.15625,4.5 -0.23088,-0.386571 -0.40913,-0.786488 -0.6875,-1.15625 -2.26241,-3.005236 -6.18672,-4.593722 -9.78125,-4.59375 -4.21604,3.1e-5 -8.28629,0.981463 -12.0625,2.75 -1.90269,-1.456817 -4.26372,-2.124971 -6.375,-2.125 -2.57834,6.4e-5 -5.61719,0.975012 -7.59375,3.1875 -1.04123,1.165595 -1.64906,2.616067 -2.0625,4.09375 -3.68267,-4.550213 -9.22081,-7.312455 -15.125,-7.3125 -7.76171,4.4e-5 -14.87668,3.35837 -19.40625,9.4375 a 5.6574198,5.6574198 0 0 0 -0.0312,0 c -0.19987,0.270133 -0.34229,0.567725 -0.53125,0.84375 5.2e-4,-0.09904 0.0312,-0.246043 0.0312,-0.34375 -4e-5,-2.392648 -1.06248,-4.923721 -2.6875,-6.78125 0.33755,-0.244369 0.76041,-0.376888 1.0625,-0.65625 2.09195,-1.934431 3.43746,-5.001814 3.4375,-7.84375 -4e-5,-2.841932 -1.34574,-5.9093161 -3.4375,-7.84375 -2.00051,-1.8498076 -4.90286,-3.0311511 -7.71875,-3.03125 z M -228.25,22.5 c -0.0185,0.852899 -0.01,1.136598 -0.0312,2.0625 -0.14103,6.052273 -0.21876,10.589291 -0.21875,13.6875 -1e-5,2.074752 -0.16098,5.513188 -0.5625,10.125 -0.0305,0.349858 -0.0341,0.474991 -0.0625,0.8125 -0.89734,-0.387277 -1.82115,-0.704993 -2.75,-0.90625 -2.28997,-0.493881 -4.51662,-0.499992 -8,-0.5 -3.18227,8e-6 -7.34141,0.106778 -12.53125,0.34375 -0.28293,0.01217 -0.25721,0.01949 -0.53125,0.03125 1.83732,-2.463984 3.66389,-4.937433 5.5,-7.40625 0.0102,-0.01345 0.0211,-0.01781 0.0312,-0.03125 5.22585,-6.895228 9.7331,-11.590488 12.90625,-13.9375 1.71342,-1.132346 3.19741,-2.103842 4.34375,-2.8125 a 5.6574198,5.6574198 0 0 0 0.28125,-0.15625 c 0.57696,-0.402125 1.08037,-0.876365 1.625,-1.3125 z m 438.5,17.1875 c 0.23513,0.569522 0.67974,2.390132 0.5625,5.40625 -5e-4,0.0129 5.2e-4,0.01831 0,0.03125 -0.072,1.576072 -0.3847,2.125256 -0.9375,2.65625 -0.0108,0.01038 -0.0203,0.02087 -0.0312,0.03125 -0.53533,0.49062 -0.64482,0.531253 -1.40625,0.53125 -0.37807,2e-6 -0.23119,0.06291 -0.5625,-0.25 -0.32225,-0.30329 -0.62501,-0.62071 -0.625,-2.34375 -1e-5,-2.065888 0.44455,-3.505953 1.25,-4.78125 a 5.6574198,5.6574198 0 0 0 0,-0.03125 c 0.78055,-1.242278 0.95505,-1.258685 1.75,-1.25 z M 80.46875,40.34375 c 0.0361,2.171023 0.355131,5.31126 0.6875,8.4375 -0.565171,0.17498 -1.160127,0.312503 -1.875,0.3125 -0.92092,2e-6 -0.343436,0.13228 -0.4375,0 -0.09406,-0.132275 -0.656259,-1.347315 -0.65625,-3.8125 -7e-6,-1.898425 0.4877,-3.138347 2.03125,-4.75 0.09115,-0.09517 0.161888,-0.100571 0.25,-0.1875 z"
       id="path3211"
       style="font-size:72px;font-style:normal;font-variant:normal;font-weight:bold;font-stretch:normal;line-height:125%;letter-spacing:0px;word-spacing:0px;fill:#000000;fill-opacity:1;stroke:none;font-family:Comic Sans MS;-inkscape-font-specification:Comic Sans MS Bold" />
    <g
       id="text3205"
       style="font-size:72px;font-style:normal;font-variant:normal;font-weight:bold;font-stretch:normal;line-height:125%;letter-spacing:0px;word-spacing:0px;fill:#ffff00;fill-opacity:1;stroke:none;font-family:Comic Sans MS;-inkscape-font-specification:Comic Sans MS Bold">
      <path
         d="m -233.13751,19.160305 c -1.28911,0.796916 -2.87114,1.816446 -4.7461,3.058594 -3.96097,2.929723 -8.64846,7.968781 -14.0625,15.117187 -4.14846,5.578144 -8.29689,11.167982 -12.44531,16.769532 l -0.14062,0.175781 c 1.71092,-0.04687 5.83591,-0.210931 12.375,-0.492188 5.13278,-0.234367 9.22262,-0.351554 12.26953,-0.351562 3.35152,8e-6 5.62495,0.128914 6.82031,0.386719 2.81245,0.609381 4.26558,1.957036 4.35938,4.042968 0.0703,1.546877 -0.4688,2.765626 -1.61719,3.65625 -0.98442,0.773437 -2.16802,1.160155 -3.55078,1.160157 -0.67973,-2e-6 -1.69926,-0.04102 -3.0586,-0.123047 -1.35941,-0.08203 -2.37894,-0.123048 -3.05859,-0.123047 -3.56254,-10e-7 -8.91214,0.08789 -16.04883,0.263672 -7.13673,0.175779 -12.48634,0.26367 -16.04883,0.263672 -1.52344,-2e-6 -2.77734,-0.386721 -3.76172,-1.160157 -1.10156,-0.84375 -1.65234,-2.027342 -1.65234,-3.550781 0,-1.687495 0.73828,-3.6914 2.21484,-6.011719 0.46875,-0.726553 1.79297,-2.496082 3.97266,-5.308593 3.84374,-5.132794 7.6992,-10.253882 11.56641,-15.363282 4.59372,-5.906214 8.8945,-10.687459 12.90234,-14.34375 -3.65628,0.257856 -6.44534,0.386763 -8.36719,0.386719 l -14.20312,0 c -0.25782,4.4e-5 -0.63282,0.01762 -1.125,0.05273 -0.4922,0.0352 -0.8672,0.05278 -1.125,0.05274 -1.38282,4.3e-5 -2.55469,-0.398394 -3.51563,-1.195313 -1.07812,-0.890579 -1.61719,-2.08589 -1.61718,-3.585937 -10e-6,-3.2108863 2.3789,-4.8163534 7.13671,-4.8164065 1.61718,5.31e-5 4.03124,0.099662 7.24219,0.2988281 3.21092,0.1992714 5.62498,0.2988806 7.24219,0.2988282 1.80466,5.24e-5 4.50583,-0.046822 8.10351,-0.140625 3.59763,-0.093697 6.2988,-0.1405723 8.10352,-0.140625 6.98433,5.27e-5 10.47651,1.5234887 10.47656,4.5703122 -5e-5,1.945359 -1.54692,3.996138 -4.64062,6.152344 z"
         id="path3144" />
      <path
         d="m -175.23517,12.410305 c -0.4688,1.710985 -0.70318,3.199264 -0.70312,4.464844 -6e-5,0.656293 -0.0645,1.669964 -0.19336,3.041015 -0.12896,1.371134 -0.19341,2.384805 -0.19336,3.041016 -5e-5,2.226599 -0.11724,5.531283 -0.35156,9.914063 -0.23443,4.382836 -0.35162,7.68752 -0.35157,9.914062 -5e-5,1.710954 0.12886,4.265639 0.38672,7.664063 0.25776,3.398444 0.38667,5.953129 0.38672,7.664062 -5e-5,1.289064 -0.45708,2.378907 -1.37109,3.269531 -0.91412,0.890624 -2.05083,1.335936 -3.41016,1.335938 -1.38286,-2e-6 -2.57817,-0.439454 -3.58594,-1.31836 -1.00785,-0.878905 -1.51176,-1.95117 -1.51172,-3.216796 -4e-5,-1.710933 -0.0762,-4.277337 -0.22851,-7.699219 -0.15239,-3.421861 -0.22856,-5.988265 -0.22852,-7.699219 -4e-5,-1.335918 0.0234,-2.51951 0.0703,-3.550781 -3.67973,0.164084 -8.2266,0.738302 -13.64063,1.722656 -4.50002,0.820332 -9.00002,1.652362 -13.5,2.496094 -0.0469,1.593766 -0.21095,4.253919 -0.49219,7.980469 -0.23439,3.281256 -0.35157,5.964847 -0.35156,8.050781 -1e-5,1.289063 -0.45704,2.378905 -1.37109,3.269531 -0.91408,0.890623 -2.05079,1.335935 -3.41016,1.335938 -1.35938,-3e-6 -2.4961,-0.445315 -3.41016,-1.335938 -0.91406,-0.890626 -1.37109,-1.980468 -1.37109,-3.269531 0,-2.367184 0.20507,-5.906243 0.61523,-10.617188 0.41016,-4.71092 0.61523,-8.249979 0.61524,-10.617187 -1e-5,-2.999974 0.0703,-7.517548 0.21094,-13.552735 0.14062,-6.035113 0.21093,-10.552687 0.21093,-13.552734 0,-1.2890112 0.45703,-2.3788538 1.3711,-3.2695312 0.91405,-0.8905708 2.05077,-1.3358829 3.41015,-1.3359375 1.35937,5.46e-5 2.49608,0.4453667 3.41016,1.3359375 0.91405,0.8906774 1.37108,1.98052 1.37109,3.2695312 -1e-5,1.781298 -0.0645,4.45903 -0.19336,8.033203 -0.12892,3.574257 -0.19337,6.251989 -0.19335,8.033203 -2e-5,0.585971 -0.0821,1.71097 -0.2461,3.375 -0.14064,1.546904 -0.19923,2.730497 -0.17578,3.550782 l 13.5,-2.53125 c 5.2734,-0.93747 9.82028,-1.476532 13.64063,-1.617188 0.0937,-1.57028 0.24605,-5.789026 0.45703,-12.65625 0.0468,-1.804642 0.59761,-3.878859 1.65234,-6.222656 1.31246,-2.8827598 2.80074,-4.3241646 4.46484,-4.324219 1.24214,5.44e-5 2.3437,0.4102102 3.30469,1.2304688 1.0312,0.8906772 1.54682,2.0039572 1.54688,3.3398442 -6e-5,0.351611 -0.0469,0.703174 -0.14063,1.054687 z"
         id="path3146" />
      <path
         d="m -128.79376,62.226711 c -1.85161,-0.07031 -3.71489,-2.249999 -5.58985,-6.539062 -1.24222,-2.765617 -2.30863,-5.953114 -3.19921,-9.5625 -1.73441,0.257827 -4.57035,0.515639 -8.50782,0.773437 -3.70315,0.257827 -6.53908,0.562514 -8.50781,0.914063 -1.07814,2.578136 -2.95314,6.457038 -5.625,11.636719 -1.03126,1.6875 -2.46095,2.531249 -4.28906,2.53125 -1.28907,-10e-7 -2.44923,-0.439454 -3.48047,-1.31836 -1.03125,-0.878905 -1.54688,-1.998044 -1.54688,-3.357422 0,-1.195307 1.71094,-5.249991 5.13282,-12.164062 -0.32814,-0.726546 -0.46876,-1.406233 -0.42188,-2.039063 0.0937,-1.124981 1.23046,-2.003886 3.41016,-2.636718 3.32811,-5.765599 7.03123,-11.742156 11.10937,-17.929688 5.85935,-8.882765 9.46872,-13.3241668 10.82813,-13.3242187 2.57809,5.19e-5 4.30074,1.5586437 5.16797,4.6757817 0.46871,2.507857 1.20699,6.269572 2.21484,11.285156 1.42965,6.750029 3.17574,14.472678 5.23828,23.167969 0.16402,0.656262 0.76167,2.203135 1.79297,4.640625 0.8437,2.015631 1.26558,3.527348 1.26563,4.535156 -5e-5,1.359377 -0.50982,2.496095 -1.5293,3.410156 -1.01958,0.914062 -2.17387,1.347655 -3.46289,1.300781 z m -13.11328,-36.070312 c -1.82816,3.140657 -4.34769,7.417996 -7.5586,12.832031 1.05467,-0.234353 2.69529,-0.421852 4.92188,-0.5625 2.62497,-0.16404 4.27731,-0.292946 4.95703,-0.386719 -0.56253,-3.046849 -1.33597,-7.007782 -2.32031,-11.882812 z"
         id="path3148" />
      <path
         d="m -47.864075,16.066555 c -0.398509,0.960982 -0.867258,2.144574 -1.40625,3.550781 -0.398508,1.359415 -1.043038,3.375038 -1.933593,6.046875 -1.336005,3.445345 -3.457097,8.460965 -6.363282,15.046875 -2.976622,6.703139 -5.109432,11.70704 -6.398437,15.011719 -0.960993,2.460941 -1.863336,4.429689 -2.707031,5.90625 -1.101615,1.94531 -2.777395,2.917965 -5.027344,2.917969 -1.335985,-4e-6 -2.543015,-0.363284 -3.621094,-1.089844 -1.265668,-0.843751 -1.945355,-1.957032 -2.039062,-3.339844 -1.078167,-2.695308 -1.757854,-4.898431 -2.039063,-6.609375 -1.03129,-5.015612 -2.460976,-12.550761 -4.289062,-22.605468 -1.523473,4.710963 -3.164096,8.941427 -4.921875,12.691406 -2.625029,5.625012 -4.347684,10.042976 -5.167969,13.253906 0.210911,0.515629 0.316379,1.06641 0.316406,1.652344 -2.7e-5,1.453126 -0.644557,2.636719 -1.933594,3.550781 -1.125023,0.773436 -2.367209,1.160154 -3.726562,1.160156 -1.710953,-2e-6 -3.128923,-0.433595 -4.253903,-1.300781 -1.21877,-0.960937 -1.85158,-2.273436 -1.89844,-3.9375 l -1.08984,-4.113281 c -0.77346,-3.656239 -2.03908,-9.117171 -3.79688,-16.382813 -1.54688,-5.554658 -4.13672,-13.464806 -7.76953,-23.730468 -0.21094,-0.58589 -0.31641,-1.171827 -0.31641,-1.757813 0,-1.406199 0.53906,-2.5194795 1.61719,-3.3398437 0.96093,-0.7499468 2.12109,-1.1249464 3.48047,-1.125 1.78124,5.36e-5 3.19921,0.7500529 4.25391,2.25 0.58592,0.8203627 1.25389,2.3086427 2.0039,4.4648437 2.29686,6.609415 4.8867,16.242218 7.769533,28.898438 1.874977,-4.57029 3.785131,-9.96091 5.730469,-16.171875 1.570284,-5.062461 2.847626,-8.660114 3.832031,-10.792969 2.343717,-5.109325 4.73434,-7.6640101 7.171875,-7.6640627 2.296835,5.26e-5 3.972614,1.2539576 5.027344,3.7617187 0.515581,1.19536 1.019487,3.363327 1.511718,6.503906 0.140581,0.960979 0.445268,3.316446 0.914063,7.066407 0.492142,4.031281 1.968703,11.367211 4.429687,22.007812 2.484323,-5.812481 5.824164,-14.191379 10.019532,-25.136719 0.257752,-0.656211 0.867127,-2.812458 1.828125,-6.46875 0.679625,-2.624952 1.535093,-4.699169 2.566406,-6.222656 1.124935,-1.6405722 2.624933,-2.4608839 4.5,-2.4609375 1.429617,5.36e-5 2.61321,0.4395063 3.550781,1.3183594 0.937427,0.8789577 1.406177,2.0098161 1.40625,3.3925781 -7.3e-5,0.492236 -0.410229,1.75786 -1.230469,3.796875 z"
         id="path3150" />
      <path
         d="m 58.167175,16.066555 c -0.398509,0.960982 -0.867258,2.144574 -1.40625,3.550781 -0.398508,1.359415 -1.043038,3.375038 -1.933593,6.046875 -1.336005,3.445345 -3.457097,8.460965 -6.363282,15.046875 -2.976622,6.703139 -5.109432,11.70704 -6.398437,15.011719 -0.960993,2.460941 -1.863336,4.429689 -2.707031,5.90625 -1.101615,1.94531 -2.777395,2.917965 -5.027344,2.917969 -1.335985,-4e-6 -2.543015,-0.363284 -3.621094,-1.089844 -1.265668,-0.843751 -1.945355,-1.957032 -2.039062,-3.339844 -1.078167,-2.695308 -1.757854,-4.898431 -2.039063,-6.609375 -1.03129,-5.015612 -2.460976,-12.550761 -4.289062,-22.605468 -1.523473,4.710963 -3.164096,8.941427 -4.921875,12.691406 -2.625029,5.625012 -4.347684,10.042976 -5.167969,13.253906 0.210911,0.515629 0.316379,1.06641 0.316406,1.652344 -2.7e-5,1.453126 -0.644557,2.636719 -1.933594,3.550781 -1.1250232,0.773436 -2.3672094,1.160154 -3.7265622,1.160156 -1.7109567,-2e-6 -3.128924,-0.433595 -4.2539063,-1.300781 -1.2187654,-0.960937 -1.85157723,-2.273436 -1.89843746,-3.9375 L -0.33282471,53.859524 C -1.1062751,50.203285 -2.3718988,44.742353 -4.1296997,37.476711 -5.676583,31.922053 -8.2664242,24.011905 -11.899231,13.746243 c -0.210939,-0.58589 -0.316408,-1.171827 -0.316406,-1.757813 -2e-6,-1.406199 0.53906,-2.5194795 1.617187,-3.3398437 0.9609335,-0.7499468 2.1210885,-1.1249464 3.480469,-1.125 1.7812414,5.36e-5 3.1992087,0.7500529 4.2539063,2.25 0.5859258,0.8203627 1.2538939,2.3086427 2.00390624,4.4648437 2.29685956,6.609415 4.88670076,16.242218 7.76953126,28.898438 1.8749772,-4.57029 3.7851312,-9.96091 5.7304692,-16.171875 1.570284,-5.062461 2.847626,-8.660114 3.832031,-10.792969 2.343717,-5.109325 4.73434,-7.6640101 7.171875,-7.6640627 2.296835,5.26e-5 3.972614,1.2539576 5.027344,3.7617187 0.515581,1.19536 1.019487,3.363327 1.511718,6.503906 0.140581,0.960979 0.445268,3.316446 0.914063,7.066407 0.492142,4.031281 1.968703,11.367211 4.429687,22.007812 2.484323,-5.812481 5.824164,-14.191379 10.019532,-25.136719 0.257752,-0.656211 0.867127,-2.812458 1.828125,-6.46875 0.679625,-2.624952 1.535093,-4.699169 2.566406,-6.222656 1.124935,-1.6405722 2.624933,-2.4608839 4.5,-2.4609375 1.429617,5.36e-5 2.61321,0.4395063 3.550781,1.3183594 0.937427,0.8789577 1.406177,2.0098161 1.40625,3.3925781 -7.3e-5,0.492236 -0.410229,1.75786 -1.230469,3.796875 z"
         id="path3152" />
      <path
         d="m 94.764832,63.492336 c -1.078158,-2e-6 -2.789094,-1.171876 -5.132813,-3.515625 -2.156277,1.03125 -4.054712,1.810547 -5.695312,2.337891 -1.640647,0.527342 -3.035177,0.791014 -4.183594,0.791016 -5.648451,-2e-6 -9.884775,-1.51172 -12.708985,-4.535157 -2.824222,-3.023432 -4.23633,-7.546865 -4.236328,-13.570312 -2e-6,-5.648416 2.085934,-10.482395 6.257813,-14.501953 4.171862,-4.019497 9.164045,-6.029261 14.976562,-6.029297 2.226537,3.6e-5 4.80466,0.632848 7.734375,1.898437 3.539028,1.523471 5.308558,3.293001 5.308594,5.308594 -3.6e-5,0.843779 -0.269567,1.582059 -0.808594,2.214844 -0.23441,0.937526 -0.41605,2.115259 -0.544922,3.533203 -0.128941,1.417991 -0.193394,3.076192 -0.193359,4.974609 -3.5e-5,4.476577 0.316371,7.69923 0.949219,9.667969 0.07028,0.210946 0.609339,1.429695 1.617187,3.65625 0.914025,2.015628 1.371055,3.164065 1.371094,3.445313 -3.9e-5,1.242188 -0.474647,2.273437 -1.423828,3.09375 -0.949255,0.82031 -2.044957,1.230466 -3.287109,1.230468 z m -8.71875,-24.117187 c -2.6e-5,-0.749978 0.05271,-1.611305 0.158203,-2.583985 0.105443,-0.97263 0.263646,-2.056614 0.474609,-3.251953 -0.468775,-0.234347 -0.884791,-0.404269 -1.248047,-0.509765 -0.363305,-0.105441 -0.673852,-0.158175 -0.93164,-0.158203 -3.187521,2.8e-5 -5.976581,1.248073 -8.367188,3.74414 -2.390638,2.496116 -3.585949,5.384785 -3.585937,8.666016 -1.2e-5,3.140638 0.562487,5.501963 1.6875,7.083984 1.124985,1.582039 2.812483,2.373053 5.0625,2.373047 1.453105,6e-6 2.830056,-0.240228 4.130859,-0.720703 1.300757,-0.480461 2.525365,-1.189445 3.673828,-2.126953 -0.703151,-5.57811 -1.054713,-9.749981 -1.054687,-12.515625 z"
         id="path3154" />
      <path
         d="m 133.96405,35.824368 c -0.21097,3.585959 -1.83987,5.378926 -4.88672,5.378906 -2.95315,2e-5 -4.42971,-1.523416 -4.42969,-4.570313 l -0.17578,-3.550781 c -5.27345,0.843777 -9.04689,3.550806 -11.32031,8.121094 l 0.0352,17.683594 c -2e-5,1.335938 -0.45705,2.443359 -1.3711,3.322265 -0.91407,0.878904 -2.07422,1.318357 -3.48047,1.31836 -1.45313,-3e-6 -2.57813,-0.468752 -3.375,-1.40625 -0.75,-0.843751 -1.125,-1.921875 -1.125,-3.234375 l 0,-23.027344 c 0,-0.726537 0.0234,-1.81052 0.0703,-3.251953 0.0469,-1.441377 0.0703,-2.52536 0.0703,-3.251953 0,-1.312467 0.39257,-2.408169 1.17773,-3.28711 0.78515,-0.87887 1.90429,-1.318323 3.35743,-1.318359 2.60155,3.6e-5 4.14842,1.335972 4.64062,4.007812 4.14842,-3.093714 8.75389,-4.640588 13.81641,-4.640625 4.68747,3.7e-5 7.03121,3.117222 7.03125,9.351563 -4e-5,1.195339 -0.0118,1.980494 -0.0352,2.355469 z"
         id="path3156" />
      <path
         d="m 168.5578,35.824368 c -0.21097,3.585959 -1.83987,5.378926 -4.88672,5.378906 -2.95315,2e-5 -4.42971,-1.523416 -4.42969,-4.570313 l -0.17578,-3.550781 c -5.27345,0.843777 -9.04689,3.550806 -11.32031,8.121094 l 0.0352,17.683594 c -2e-5,1.335938 -0.45705,2.443359 -1.3711,3.322265 -0.91407,0.878904 -2.07422,1.318357 -3.48047,1.31836 -1.45313,-3e-6 -2.57813,-0.468752 -3.375,-1.40625 -0.75,-0.843751 -1.125,-1.921875 -1.125,-3.234375 l 0,-23.027344 c 0,-0.726537 0.0234,-1.81052 0.0703,-3.251953 0.0469,-1.441377 0.0703,-2.52536 0.0703,-3.251953 0,-1.312467 0.39257,-2.408169 1.17773,-3.28711 0.78515,-0.87887 1.90429,-1.318323 3.35743,-1.318359 2.60155,3.6e-5 4.14842,1.335972 4.64062,4.007812 4.14842,-3.093714 8.75389,-4.640588 13.81641,-4.640625 4.68747,3.7e-5 7.03121,3.117222 7.03125,9.351563 -4e-5,1.195339 -0.0118,1.980494 -0.0352,2.355469 z"
         id="path3158" />
      <path
         d="m 181.70624,18.914211 c -1.50001,4.3e-5 -2.80079,-0.503863 -3.90235,-1.511718 -1.10157,-1.007768 -1.65235,-2.238236 -1.65234,-3.691407 -10e-6,-1.453076 0.55077,-2.683543 1.65234,-3.691406 1.10156,-1.0077603 2.40234,-1.5116661 3.90235,-1.5117187 1.49998,5.26e-5 2.79491,0.5039584 3.88476,1.5117187 1.08983,1.007863 1.63475,2.23833 1.63477,3.691406 -2e-5,1.453171 -0.54494,2.683639 -1.63477,3.691407 -1.08985,1.007855 -2.38478,1.511761 -3.88476,1.511718 z m 2.98828,25.769532 c -2e-5,1.335952 0.041,3.480481 0.12305,6.433593 0.082,2.953132 0.12303,5.097661 0.12304,6.433594 -1e-5,1.359377 -0.45704,2.478517 -1.37109,3.357422 -0.91408,0.878906 -2.07423,1.318358 -3.48047,1.318359 -1.40626,-1e-6 -2.56641,-0.439453 -3.48047,-1.318359 -0.91407,-0.878905 -1.3711,-1.998045 -1.37109,-3.357422 -1e-5,-1.335933 -0.041,-3.480462 -0.12305,-6.433594 -0.082,-2.953112 -0.12305,-5.097641 -0.12305,-6.433593 0,-2.085919 0.11719,-4.699198 0.35157,-7.839844 0.23437,-3.140598 0.35155,-5.753876 0.35156,-7.839844 -1e-5,-1.359341 0.45702,-2.478481 1.37109,-3.357422 0.91406,-0.87887 2.07421,-1.318322 3.48047,-1.318359 1.40624,3.7e-5 2.56639,0.439489 3.48047,1.318359 0.91405,0.878941 1.37108,1.998081 1.37109,3.357422 -1e-5,2.085968 -0.1172,4.699246 -0.35156,7.839844 -0.23439,3.140646 -0.35158,5.753925 -0.35156,7.839844 z"
         id="path3160" />
      <path
         d="m 208.42499,63.246243 c -4.33595,-3e-6 -8.06251,-1.488282 -11.17969,-4.464844 -3.42188,-3.257807 -5.21485,-7.605459 -5.37891,-13.042969 -0.16406,-5.179667 1.25391,-9.79685 4.25391,-13.851562 3.56249,-4.781216 8.51952,-7.171839 14.87109,-7.171875 4.68748,3.6e-5 8.41404,1.875034 11.17969,5.625 2.48434,3.375027 3.72653,7.558617 3.72656,12.550781 -3e-5,5.437513 -1.45316,10.078133 -4.35937,13.921875 -3.25784,4.289062 -7.62893,6.433591 -13.11328,6.433594 z m 2.10937,-29.25 c -2.88283,-0.02341 -5.15626,1.289088 -6.82031,3.9375 -1.40626,2.226583 -2.10939,4.828143 -2.10937,7.804687 -2e-5,2.812513 0.79686,4.96876 2.39062,6.46875 1.26561,1.19532 2.74217,1.792976 4.42969,1.792969 2.03904,7e-6 3.80857,-0.691399 5.30859,-2.074219 1.71091,-1.617177 2.62498,-3.808581 2.74219,-6.574219 0.30466,-7.546851 -1.67581,-11.332004 -5.94141,-11.355468 z"
         id="path3162" />
      <path
         d="m 261.22968,35.824368 c -0.21098,3.585959 -1.83988,5.378926 -4.88672,5.378906 -2.95315,2e-5 -4.42971,-1.523416 -4.42969,-4.570313 l -0.17578,-3.550781 c -5.27346,0.843777 -9.04689,3.550806 -11.32031,8.121094 l 0.0351,17.683594 c -1e-5,1.335938 -0.45704,2.443359 -1.37109,3.322265 -0.91407,0.878904 -2.07423,1.318357 -3.48047,1.31836 -1.45313,-3e-6 -2.57813,-0.468752 -3.375,-1.40625 -0.75,-0.843751 -1.125,-1.921875 -1.125,-3.234375 l 0,-23.027344 c 0,-0.726537 0.0234,-1.81052 0.0703,-3.251953 0.0469,-1.441377 0.0703,-2.52536 0.0703,-3.251953 0,-1.312467 0.39258,-2.408169 1.17774,-3.28711 0.78515,-0.87887 1.90429,-1.318323 3.35742,-1.318359 2.60155,3.6e-5 4.14843,1.335972 4.64063,4.007812 4.14842,-3.093714 8.75388,-4.640588 13.8164,-4.640625 4.68747,3.7e-5 7.03122,3.117222 7.03125,9.351563 -3e-5,1.195339 -0.0118,1.980494 -0.0352,2.355469 z"
         id="path3164" />
      <path
         d="m 291.11249,35.437649 c -2.32034,2.6e-5 -3.71487,-0.97263 -4.1836,-2.917969 -0.93752,-0.164034 -1.89846,-0.246065 -2.88281,-0.246094 -5.64845,2.9e-5 -8.47267,0.773466 -8.47265,2.320313 -2e-5,0.914088 1.6992,2.144555 5.09765,3.691406 4.6406,2.132833 7.78123,3.796894 9.42188,4.992188 3.3984,2.460952 5.09762,5.238293 5.09765,8.332031 -3e-5,4.031255 -1.87503,7.089846 -5.625,9.175781 -3.02346,1.664061 -6.7383,2.496092 -11.14453,2.496094 -3.1172,-2e-6 -5.96485,-0.480471 -8.54297,-1.441406 -3.51563,-1.3125 -5.27344,-3.246092 -5.27343,-5.800782 -10e-6,-2.343742 1.39452,-3.515616 4.18359,-3.515625 1.07812,9e-6 2.63671,0.339852 4.67578,1.019532 2.03905,0.679694 3.60936,1.019537 4.71094,1.019531 4.75779,6e-6 7.14841,-0.96093 7.17187,-2.882813 -2e-5,-1.195302 -1.65236,-2.519519 -4.95703,-3.972656 -4.82814,-2.132797 -7.92188,-3.667952 -9.28125,-4.605469 -3.30469,-2.320292 -4.95703,-5.144508 -4.95703,-8.472656 0,-4.710906 2.49609,-7.886684 7.48828,-9.527344 2.92968,-0.9609 7.3828,-1.441368 13.35938,-1.441406 2.34372,3.8e-5 4.07809,0.304725 5.20312,0.914063 1.54685,0.820348 2.32028,2.332065 2.32031,4.535156 -3e-5,4.218778 -1.13675,6.328151 -3.41015,6.328125 z"
         id="path3166" />
    </g>
  </g>
</svg>
